<svg version="1.1" xmlns="http://www.w3.org/2000/svg" viewBox="0 0 1132.449880389776 635.5" width="2264.899760779552" height="1271">
  <!-- svg-source:excalidraw -->
  
  <defs>
    <style>
      @font-face {
        font-family: "Virgil";
        src: url("https://excalidraw.com/Virgil.woff2");
      }
      @font-face {
        font-family: "Cascadia";
        src: url("https://excalidraw.com/Cascadia.woff2");
      }
    </style>
  </defs>
  <rect x="0" y="0" width="1132.449880389776" height="635.5" fill="#ffffff"></rect><g stroke-linecap="round" transform="translate(478.949880389776 10) rotate(0 147.9999999999999 123.5)"><path d="M1.3827913755277197 1.2624032985435572 C73.36358096501279 1.0067670636077748, 145.28684759263643 -0.12465591674145637, 295.06701401695096 0.83208904941481 M-0.691288589495357 0.09877166963415335 C101.82936767552326 1.5594773518417742, 204.31068993201336 1.5842641892177367, 296.35466657649374 0.36799073873225646 M297.5974275750445 0.681303781802915 C293.742638379335 66.4709261946046, 295.99382658140706 133.9995087413647, 295.93671172027445 248.49141737717738 M296.523499284516 -0.35364352068321625 C296.0787187264735 82.3917201358039, 296.04137984897756 165.82259848035326, 295.45091160009946 246.23632361002657 M294.53037598530506 248.3393530681614 C206.28639824746315 243.83220085718114, 116.66313824116801 246.5684317498925, 0.6213822504423419 246.67540790227696 M296.35921754171 246.53919509201103 C186.25443472608535 248.4533365075675, 77.66507646577496 248.6147109171412, -0.011265128974266726 246.35248008317106 M0.20755241982665207 248.39625265232402 C1.4805405260606461 189.06762537007853, -1.38710962490986 128.80052532286572, -0.34810490969619595 0.6946528549219354 M0.6727113519193283 246.81491169790226 C0.4419501831344003 186.68790824128044, -0.4193189592220668 127.32299636046507, 0.6828645057337156 0.22369707219262194" stroke="#000000" stroke-width="1" fill="none"></path></g><g transform="translate(495.949880389776 30) rotate(0 118.5 12.5)"><text x="0" y="18" font-family="Virgil, Segoe UI Emoji" font-size="20px" fill="#000000" text-anchor="start" style="white-space: pre;" direction="ltr">AttributeFormController</text></g><g transform="translate(488.949880389776 87) rotate(0 141 80)"><text x="0" y="14" font-family="Virgil, Segoe UI Emoji" font-size="16px" fill="#000000" text-anchor="start" style="white-space: pre;" direction="ltr">- has FeatureLayerPair</text><text x="0" y="34" font-family="Virgil, Segoe UI Emoji" font-size="16px" fill="#000000" text-anchor="start" style="white-space: pre;" direction="ltr">- parses QGIS form config</text><text x="0" y="54" font-family="Virgil, Segoe UI Emoji" font-size="16px" fill="#000000" text-anchor="start" style="white-space: pre;" direction="ltr">    - create &amp; owns FormModels</text><text x="0" y="74" font-family="Virgil, Segoe UI Emoji" font-size="16px" fill="#000000" text-anchor="start" style="white-space: pre;" direction="ltr">    - create &amp; owns TabModel</text><text x="0" y="94" font-family="Virgil, Segoe UI Emoji" font-size="16px" fill="#000000" text-anchor="start" style="white-space: pre;" direction="ltr">- keeps the GUI config for widgets</text><text x="0" y="114" font-family="Virgil, Segoe UI Emoji" font-size="16px" fill="#000000" text-anchor="start" style="white-space: pre;" direction="ltr">- keeps the data for models</text><text x="0" y="134" font-family="Virgil, Segoe UI Emoji" font-size="16px" fill="#000000" text-anchor="start" style="white-space: pre;" direction="ltr">- knows current attr. values</text><text x="0" y="154" font-family="Virgil, Segoe UI Emoji" font-size="16px" fill="#000000" text-anchor="start" style="white-space: pre;" direction="ltr">- CRUD for attributes   </text></g><g stroke-linecap="round"><g transform="translate(486.949880389776 72) rotate(0 116.83616319857543 -0.9662415679544267)"><path d="M-0.8856472436338663 0.12190254963934422 C38.25976978304485 -0.18613597514728702, 195.15227028292912 -2.027839394037922, 234.5579736407846 -2.054385685548186 M0.8502492241188886 -0.8597025571390987 C39.82648890099178 -1.037593559237818, 194.34109331251432 -0.9013782876854142, 233.37786433856934 -1.0705129192396998" stroke="#000000" stroke-width="1" fill="none"></path></g></g><g stroke-linecap="round" transform="translate(59.94988038977601 203) rotate(0 159.5 138)"><path d="M-0.7419994127622886 -0.5108630484402135 C121.00062866444077 0.3981772930239483, 239.35985030763044 1.413108682718019, 319.5381879861494 -0.8908149810669853 M0.3984168051290534 0.4418323845387794 C110.19476871948194 0.11220716045014417, 220.3842462733879 1.0454407951590017, 319.3975580085277 -0.3188999577457808 M317.9552554861897 0.4877690621415906 C318.0687508561305 83.09930537285615, 317.35376961772545 167.95191947153992, 318.291291221536 276.58668276537435 M318.6447323144341 -0.4877427514717665 C318.00038674540315 56.539349829172316, 317.9459831969034 113.05833705726856, 319.5545045727556 275.5809506862216 M318.60996044705837 277.2038727542528 C224.94662276955538 277.87127003427986, 128.05532897688667 275.40858669023675, 0.20606741305076626 276.8469305735395 M319.5206757257948 275.93437423821916 C224.61667935772883 275.75966399962795, 131.70883115963593 275.6191462364349, 0.47749231457398156 276.6568368006664 M-0.06750422249652668 274.6314822701602 C2.7888335321961186 202.41903605130776, -0.14623551833815385 131.37164042525853, -0.37149239385031985 -1.0938699487886376 M-0.3718655908209536 275.4506718817476 C1.8032695023694207 219.2589950260118, 1.6274822112160017 163.31094038757672, 0.5226453871958401 0.5676325303977284" stroke="#862e9c" stroke-width="1" fill="none"></path></g><g transform="translate(69.94988038977601 262) rotate(0 127.5 30)"><text x="0" y="14" font-family="Virgil, Segoe UI Emoji" font-size="16px" fill="#862e9c" text-anchor="start" style="white-space: pre;" direction="ltr"></text><text x="0" y="34" font-family="Virgil, Segoe UI Emoji" font-size="16px" fill="#862e9c" text-anchor="start" style="white-space: pre;" direction="ltr">Flickable TabButtons</text><text x="0" y="54" font-family="Virgil, Segoe UI Emoji" font-size="16px" fill="#862e9c" text-anchor="start" style="white-space: pre;" direction="ltr">      - based on TabProxyModel</text></g><g stroke-linecap="round"><g transform="translate(474.4752427086165 117.49765966704354) rotate(0 -97.46184578427102 6.7042765883245465)"><path d="M-0.45175547562539575 -0.2885639134794473 C-33.053324450673486 2.0061512512117945, -162.96858929158162 11.17985461808757, -195.6615298028846 13.279143223330568 M1.511934170331806 -1.4856639133952558 C-31.214104359736616 1.0691608648337738, -163.23384031015422 12.447937100175926, -196.43562573887377 14.894217090044359" stroke="#000000" stroke-width="1" fill="none"></path></g><g transform="translate(474.4752427086165 117.49765966704354) rotate(0 -97.46184578427102 6.7042765883245465)"><path d="M-169.6427458585232 2.9508883249866287 C-177.02993304180004 4.962828003248843, -186.71358804685804 11.607859981883731, -195.6947170472142 15.297672189135293 M-169.2889622799113 2.438011500510804 C-177.1635253224696 5.463750373915142, -183.1240114294258 8.158862496726583, -196.9446551766616 15.534225633662382" stroke="#000000" stroke-width="1" fill="none"></path></g><g transform="translate(474.4752427086165 117.49765966704354) rotate(0 -97.46184578427102 6.7042765883245465)"><path d="M-167.99162315623647 23.405564959141294 C-175.78359833619535 19.36372036262917, -185.95541933256584 19.961183930837116, -195.6947170472142 15.297672189135293 M-167.63783957762456 22.89268813466547 C-175.76722919748528 20.625627614860555, -182.1554459234444 18.021865531585036, -196.9446551766616 15.534225633662382" stroke="#000000" stroke-width="1" fill="none"></path></g></g><g stroke-linecap="round" transform="translate(467.949880389776 322) rotate(0 152.5 48.5)"><path d="M-0.8913057290557026 0.7072327521756291 C75.7887124219145 -1.6516607091031443, 152.92834194953267 -0.4641680539307963, 304.7033154697034 1.050798051677048 M-0.17177160191759466 0.5054838357876241 C71.4743840363726 -0.14895958539121612, 143.6443556587021 -0.37455697765939694, 305.2461000174071 0.29938025761589404 M303.354419240728 -1.8288308177143335 C305.25853469950147 27.79359176224098, 304.4095258412976 58.81215348709375, 304.8422437403351 97.94758971594274 M304.9379255576059 -0.3954088045284152 C303.98800550631245 34.14032137012109, 304.2551770382281 69.22775309048593, 305.94125289749354 96.21861491072923 M306.0998696028802 95.63504062916309 C220.11999810698316 99.70818916345182, 135.84797539007783 99.21118356361929, -1.3513096774867175 96.93151803864986 M304.9056524119546 96.94629745817646 C211.05539677784145 97.41258321791874, 117.46377858284575 97.83478691116082, -0.6148512125562131 97.3795186990355 M1.950190195813775 98.63094212673604 C-0.23409702030010515 68.18375670770183, 1.7935077384393663 37.48708055075258, 0.09519929625093937 -0.6347706709057093 M0.831777255050838 97.71987855900079 C0.09885287554003297 71.95305472137406, 0.836073311874643 48.14375518336892, 0.38782943319529295 0.9145697699859738" stroke="#000000" stroke-width="1" fill="none"></path></g><g transform="translate(477.949880389776 331) rotate(0 136.5 12.5)"><text x="0" y="18" font-family="Virgil, Segoe UI Emoji" font-size="20px" fill="#000000" text-anchor="start" style="white-space: pre;" direction="ltr">QgsQuickFormTabProxyModel</text></g><g transform="translate(516.949880389776 388) rotate(0 86 10)"><text x="0" y="14" font-family="Virgil, Segoe UI Emoji" font-size="16px" fill="#000000" text-anchor="start" style="white-space: pre;" direction="ltr">filter-out hidden tabs</text></g><g stroke-linecap="round"><g transform="translate(499.949880389776 371) rotate(0 116.83727291785186 -1.0522592354006974)"><path d="M-0.8145054046064615 -0.19038575850427142 C38.38994863989452 -0.3225369847069183, 195.22755793494483 -0.2175889448573192, 234.48905124031006 -0.2075789924710989 M0.9587405286356807 -1.3359422270581127 C40.02501165768752 -1.8556050988162558, 194.45590698183824 -1.8007463526849947, 233.27275767784565 -1.9141327122971417" stroke="#000000" stroke-width="1" fill="none"></path></g></g><g stroke-linecap="round" transform="translate(821.449880389776 262.5) rotate(0 150.5 85.5)"><path d="M1.4356606896472484 1.0487659623269052 C81.6210767751422 1.220908147473913, 166.05775166137263 -1.467266076061148, 300.0434096142395 -1.1186646425556213 M0.14838819824590535 0.21642952809665353 C108.02345333303545 -0.45101638511479214, 216.98216436753052 -0.18740083190210177, 301.72803393835983 -0.05468623028285355 M299.79168589971954 1.470065364614129 C301.68426246390675 49.84334207726643, 299.43398715005253 100.97981192041189, 300.12026669643814 169.3937037680298 M300.5003097997978 -0.5456539588049054 C300.6845410067867 38.406556061562156, 300.64656936119303 75.73496675789357, 301.2446407126262 170.05183918308467 M300.5926344323636 170.26931182604665 C230.12609163163827 171.53636953194206, 160.99206879825 170.5356372469141, -1.1835668545613736 170.34915706793538 M301.68494539268204 170.30262775639454 C225.79377133595844 173.61625269369807, 152.6892501690771 172.5025425885459, -0.671574860517551 170.34788555729546 M0.4275261964648962 172.11702955700457 C1.7011648487951607 135.83248695256188, 2.570918984403834 100.50559548642485, 0.6513515915721655 1.392676780000329 M0.6130432235077024 171.20944194030017 C0.1389273687917738 103.04372534649445, -0.7370436206739397 35.49584761224685, -0.08045202028006315 0.5005290610715747" stroke="#000000" stroke-width="1" fill="none"></path></g><g transform="translate(834.449880389776 279.5) rotate(0 109.5 12.5)"><text x="0" y="18" font-family="Virgil, Segoe UI Emoji" font-size="20px" fill="#000000" text-anchor="start" style="white-space: pre;" direction="ltr">QgsQuickFormTabModel</text></g><g transform="translate(842.449880389776 328.5) rotate(0 134.5 30)"><text x="0" y="14" font-family="Virgil, Segoe UI Emoji" font-size="16px" fill="#000000" text-anchor="start" style="white-space: pre;" direction="ltr">- each tab, one row</text><text x="0" y="34" font-family="Virgil, Segoe UI Emoji" font-size="16px" fill="#000000" text-anchor="start" style="white-space: pre;" direction="ltr">- autolayout has 1 "fake" row</text><text x="0" y="54" font-family="Virgil, Segoe UI Emoji" font-size="16px" fill="#000000" text-anchor="start" style="white-space: pre;" direction="ltr">- no data, all stored in controller</text></g><g stroke-linecap="round"><g transform="translate(831.449880389776 314.5) rotate(0 117.80085279382763 -0.4347891453653574)"><path d="M-0.5691125627607106 1.1674829777330158 C38.59646201568345 0.6846257225920755, 197.04004772541424 -1.5229131960620483, 236.170818150416 -2.037061268463731 M1.3329646124504508 0.7348075957037508 C40.33994455576564 0.2903180298147101, 196.6099539123041 -0.7413658357722064, 235.83745221575722 -1.0440931831859053" stroke="#000000" stroke-width="1" fill="none"></path></g></g><g stroke-linecap="round"><g transform="translate(808.2282309052399 363.5107180100187) rotate(0 -15.81852224479394 0.7004054812088896)"><path d="M1.1249575261026619 0.4247425016015769 C-3.95731762330347 0.4973358503085991, -26.15875516884594 0.4108962983402707, -31.575236327163203 0.8252334977553006 M0.25642149796709424 -0.39787163039669404 C-4.929022919212667 -0.24900298249819697, -27.34048812905891 1.549173857788304, -32.76200201569058 1.7986825928144867" stroke="#000000" stroke-width="1" fill="none"></path></g><g transform="translate(808.2282309052399 363.5107180100187) rotate(0 -15.81852224479394 0.7004054812088896)"><path d="M-17.938610174398793 -5.064590511047858 C-22.860724939202527 -3.352871190800263, -23.14655824812039 -1.6144578937780865, -32.91689994640271 1.3118814115202944 M-18.37269321412022 -5.212754969281995 C-23.05153893296004 -2.620132418911381, -28.634245554556493 -0.35500406711942134, -33.31564335526205 1.582073707122645" stroke="#000000" stroke-width="1" fill="none"></path></g><g transform="translate(808.2282309052399 363.5107180100187) rotate(0 -15.81852224479394 0.7004054812088896)"><path d="M-17.245605294384756 5.576523690725801 C-22.34771418480107 5.061511599847469, -22.77898695925269 4.566696810282069, -32.91689994640271 1.3118814115202944 M-17.67968833410618 5.428359232491664 C-22.626049278639005 4.270649965563236, -28.45286489154916 2.787476206991585, -33.31564335526205 1.582073707122645" stroke="#000000" stroke-width="1" fill="none"></path></g></g><g stroke-linecap="round"><g transform="translate(463.36284643954787 381.378365579154) rotate(0 -52.34812222742778 -26.774722192493755)"><path d="M-1.0938139859586953 0.5050837878137826 C-18.823784458299865 -8.065243844576646, -87.79338845888967 -43.28258532230045, -105.22903939692908 -52.35467267453951 M0.5327949420735241 -0.27535116892307987 C-16.907182233405997 -9.099245992675892, -85.55729085049474 -45.26493049107725, -102.8848360420265 -54.054528172801255" stroke="#000000" stroke-width="1" fill="none"></path></g><g transform="translate(463.36284643954787 381.378365579154) rotate(0 -52.34812222742778 -26.774722192493755)"><path d="M-72.29214045093795 -51.36393739890865 C-83.54032993865619 -53.96031917117039, -97.93994535893829 -55.26652664986975, -103.04816437112771 -54.07630221706164 M-73.11972479303768 -49.68771489479205 C-83.21328404766744 -52.04005314016283, -93.64158752201367 -52.631125955868036, -102.24032448670499 -54.837241247969686" stroke="#000000" stroke-width="1" fill="none"></path></g><g transform="translate(463.36284643954787 381.378365579154) rotate(0 -52.34812222742778 -26.774722192493755)"><path d="M-81.73243616965563 -33.143047762861784 C-89.10160270281851 -42.86700519709131, -99.76381807793568 -51.38683773349777, -103.04816437112771 -54.07630221706164 M-82.56002051175535 -31.466825258745192 C-89.50120206486825 -40.099745866372, -96.65131116193403 -47.01812237400539, -102.24032448670499 -54.837241247969686" stroke="#000000" stroke-width="1" fill="none"></path></g></g><g transform="translate(69.94988038977601 357) rotate(0 149.5 50)"><text x="0" y="14" font-family="Virgil, Segoe UI Emoji" font-size="16px" fill="#862e9c" text-anchor="start" style="white-space: pre;" direction="ltr">SwipeView Tabs </text><text x="0" y="34" font-family="Virgil, Segoe UI Emoji" font-size="16px" fill="#862e9c" text-anchor="start" style="white-space: pre;" direction="ltr">     - based on TabProxyModel</text><text x="0" y="54" font-family="Virgil, Segoe UI Emoji" font-size="16px" fill="#862e9c" text-anchor="start" style="white-space: pre;" direction="ltr">     - Each tab is ListView</text><text x="0" y="74" font-family="Virgil, Segoe UI Emoji" font-size="16px" fill="#862e9c" text-anchor="start" style="white-space: pre;" direction="ltr">          - based on FormProxyModel</text><text x="0" y="94" font-family="Virgil, Segoe UI Emoji" font-size="16px" fill="#862e9c" text-anchor="start" style="white-space: pre;" direction="ltr">          - each row is loaded widget</text></g><g transform="translate(49.94988038977601 124) rotate(0 131 40)"><text x="0" y="14" font-family="Virgil, Segoe UI Emoji" font-size="16px" fill="#c92a2a" text-anchor="start" style="white-space: pre;" direction="ltr">1 x AttributeFormController</text><text x="0" y="34" font-family="Virgil, Segoe UI Emoji" font-size="16px" fill="#c92a2a" text-anchor="start" style="white-space: pre;" direction="ltr">1 x AttributePreviewController</text><text x="0" y="54" font-family="Virgil, Segoe UI Emoji" font-size="16px" fill="#c92a2a" text-anchor="start" style="white-space: pre;" direction="ltr">1 x RememberAttributesController</text><text x="0" y="74" font-family="Virgil, Segoe UI Emoji" font-size="16px" fill="#c92a2a" text-anchor="start" style="white-space: pre;" direction="ltr"></text></g><g stroke-linecap="round" transform="translate(790.5501196102241 460.25) rotate(0 152.50000000000006 48.5)"><path d="M-0.42102028889685866 -0.9916453402659297 C64.87312255393162 1.6910956093902212, 129.5910299960643 2.772899039098702, 304.15274039289443 1.2748654078438877 M0.3576290128113329 0.36255741585239765 C63.02162457365365 0.1633699569915011, 124.57867435095714 0.5482531881974413, 305.35815996776836 -0.10627585439696907 M305.6430896613747 -1.4189557824283838 C305.9349003796 24.209792954381555, 305.27043513101523 51.899841968901455, 306.2822012398392 98.13604827784002 M305.2039344711229 0.12085557449609041 C305.1401480197068 20.323464300390334, 304.3588404714223 40.13093619309366, 305.60674644540995 97.25766638386995 M305.4321118704316 96.9229776038602 C218.8193144577007 93.75967148316495, 132.53303029661774 95.87327575943105, -0.090707106590569 97.23565776664287 M304.5694201891591 97.08515089725003 C226.68003384269892 95.85371475866974, 148.72401754277809 94.58948296210468, -0.09469982237562537 97.34263410618767 M0.9500651452690363 97.5946272816509 C-0.9881390633899718 65.48946737507357, -1.2454731169063598 37.901540363393714, -1.9120859410613775 1.6995390262454748 M-0.5863683419302106 96.41376668680459 C0.11506741494871675 76.38650617720559, -0.5102781429793686 54.756650338321926, -0.19809227157384157 -0.11204114090651274" stroke="#000000" stroke-width="1" fill="none"></path></g><g transform="translate(815.5501196102242 471.25) rotate(0 118.5 12.5)"><text x="0" y="18" font-family="Virgil, Segoe UI Emoji" font-size="20px" fill="#000000" text-anchor="start" style="white-space: pre;" direction="ltr">QgsQuickFormProxyModel</text></g><g transform="translate(825.5501196102242 525.25) rotate(0 96.5 10)"><text x="0" y="14" font-family="Virgil, Segoe UI Emoji" font-size="16px" fill="#000000" text-anchor="start" style="white-space: pre;" direction="ltr">filter-out hidden widgets</text></g><g stroke-linecap="round"><g transform="translate(815.5501196102242 506.25) rotate(0 116.62839306237174 -0.5554673789091567)"><path d="M-0.04414586462080483 0.23496888913214198 C39.144470319772765 0.3934724175681669, 195.72609282893438 0.16027882533768792, 234.7832472976297 0.13030388392508008 M-1.5264611728861928 -0.687276389412582 C37.51565721950183 -0.7636907603467504, 193.99617269517233 -1.2244980031376085, 233.72140666525812 -1.3988613257929683" stroke="#000000" stroke-width="1" fill="none"></path></g></g><g stroke-linecap="round" transform="translate(451.0501196102239 461.75) rotate(0 140.49999999999994 80)"><path d="M-0.27634640135636923 1.4410681266995966 C64.18752558621368 0.9243151721402528, 128.71074741220536 -1.3775637861591932, 281.0430567996741 0.7547258719184458 M-0.5437696148298472 0.6441673484450071 C98.73092388615693 -0.7810502730015287, 196.4687889439583 -1.181929167525817, 280.4467771676153 0.24596996262604892 M281.9209611508995 -0.2842849288135767 C283.5505423594266 37.78440201841295, 280.4547607351094 73.95796834491193, 280.7231548521667 160.40786894224584 M280.0381289524957 -0.47733407747000456 C281.3178448466584 50.1913555758074, 280.52511418741193 100.22339228261264, 280.146905968897 160.29802462924272 M280.14318682421236 160.80148915686203 C198.09701096232052 158.2412766684393, 114.71407107127223 156.92784383048897, -1.2378801797497332 159.09132170062824 M280.95301512944445 159.34423821463514 C193.29956122835787 162.26736736163795, 105.855425046 162.09639850938052, -0.3580138226256579 160.36338243686674 M-1.0038214828819036 160.533199807629 C-1.314895997568965 108.94252077303827, -0.9544741611927747 54.10796623490751, 1.694326350465417 -1.1727366838604212 M-0.6936068134382367 160.9055085228756 C-0.08887426275759935 121.26769187022, -0.22869468946009874 83.37560752499849, -0.23352097440510988 -0.29095550905913115" stroke="#000000" stroke-width="1" fill="none"></path></g><g transform="translate(477.0501196102239 471.75) rotate(0 91.5 12.5)"><text x="0" y="18" font-family="Virgil, Segoe UI Emoji" font-size="20px" fill="#000000" text-anchor="start" style="white-space: pre;" direction="ltr">QgsQuickFormModel</text></g><g transform="translate(470.0501196102239 530.75) rotate(0 128 30)"><text x="0" y="14" font-family="Virgil, Segoe UI Emoji" font-size="16px" fill="#000000" text-anchor="start" style="white-space: pre;" direction="ltr">- each widget/container one row</text><text x="0" y="34" font-family="Virgil, Segoe UI Emoji" font-size="16px" fill="#000000" text-anchor="start" style="white-space: pre;" direction="ltr">- no data, all data in controller</text><text x="0" y="54" font-family="Virgil, Segoe UI Emoji" font-size="16px" fill="#000000" text-anchor="start" style="white-space: pre;" direction="ltr">- no logic, all logic in controller</text></g><g stroke-linecap="round"><g transform="translate(469.0501196102239 514.75) rotate(0 117.63677786083889 -0.34762181602417286)"><path d="M-0.7012190524488687 1.0551192406564949 C38.31171735289196 0.5750081145515042, 194.5717006103446 -1.50650472206374, 233.86086572967469 -1.7503628727048635 M1.1315022156760097 0.5634528966620564 C40.51570894500861 0.7331511775528391, 197.1157245618229 -0.10634291292478648, 235.9747747741267 -0.6068781296536327" stroke="#000000" stroke-width="1" fill="none"></path></g></g><g stroke-linecap="round"><g transform="translate(871.6806957915916 449.3602242652951) rotate(0 0.4441905508479067 -2.382186100097215)"><path d="M1.0551192406564949 -1.1391342703253031 C0.7475991827934041 -1.962529177018693, -0.6435493808542408 -4.985572202248825, -0.7148164632534644 -5.641588492609207 M0.14991811266168953 0.8772162924148144 C0.1298184247813181 0.3225008215706143, 1.5994167711096785 -2.7564507518954118, 1.6031975649492778 -4.086433118033801" stroke="#000000" stroke-width="1" fill="none"></path></g><g transform="translate(871.6806957915916 449.3602242652951) rotate(0 0.4441905508479067 -2.382186100097215)"><path d="M1.7476357254316892 -1.4564767464550306 C1.8782833018337428 -2.242060795544423, 1.849090266188763 -3.3029212302613087, 1.691504103142707 -4.28815190249615 M1.9730172911040795 -1.374188169764735 C1.7415406926349744 -2.3126445421344863, 1.5844952479732703 -3.32442039073738, 1.4696629087337256 -4.021097008779489" stroke="#000000" stroke-width="1" fill="none"></path></g><g transform="translate(871.6806957915916 449.3602242652951) rotate(0 0.4441905508479067 -2.382186100097215)"><path d="M-0.1537417361650938 -1.8472864379307472 C0.7241299128406624 -2.495534603093889, 1.4444446431455886 -3.4023409876888455, 1.691504103142707 -4.28815190249615 M0.07163982950729665 -1.7649978612404515 C0.5726201968909254 -2.550514325757297, 1.1461009579503274 -3.4121375997982573, 1.4696629087337256 -4.021097008779489" stroke="#000000" stroke-width="1" fill="none"></path></g></g><g stroke-linecap="round"><g transform="translate(736.8379821363875 541.0921886578625) rotate(0 20.44783150712442 -2.844219076236982)"><path d="M-1.1391342703253031 -0.7503628727048635 C5.983535119178528 -1.8173394968653307, 34.74474927873728 -4.612952890765959, 42.03479728457412 -5.346740504306308 M0.4636815084144472 1.4700926737859845 C7.492641296754414 0.5669582687398208, 34.15667507191566 -5.732990377207392, 41.104481944301035 -7.158530826259903" stroke="#000000" stroke-width="1" fill="none"></path></g><g transform="translate(736.8379821363875 541.0921886578625) rotate(0 20.44783150712442 -2.844219076236982)"><path d="M21.95662682127413 4.27874997948295 C28.417130306850652 2.643321323020215, 33.06323424788195 -0.48376990046102986, 39.68279364653757 -5.474352166567496 M22.536586227791577 3.4992619831208005 C29.79883311958409 -0.408081478614009, 36.52337414536203 -4.616305051766578, 41.5649625197508 -7.300673290666691" stroke="#000000" stroke-width="1" fill="none"></path></g><g transform="translate(736.8379821363875 541.0921886578625) rotate(0 20.44783150712442 -2.844219076236982)"><path d="M18.828225611105406 -9.888027736297474 C26.16900524659321 -8.071560373286939, 31.57082167298559 -7.776452819210164, 39.68279364653757 -5.474352166567496 M19.408185017622852 -10.667515732659623 C27.742740265737446 -9.615227903822621, 35.560357502695624 -8.873521250678333, 41.5649625197508 -7.300673290666691" stroke="#000000" stroke-width="1" fill="none"></path></g></g><g stroke-linecap="round" transform="translate(10 54.5) rotate(0 190.5 285.5)"><path d="M-0.4811629093789547 -0.8609746315256147 C87.24370520185818 0.41045615404220415, 176.23679269849876 1.0969418942370015, 380.4681984919437 0.5449502141564339 M-0.1699516736818805 -0.07800189805524199 C113.90224349407484 -0.5240780998574478, 226.73537241373432 -0.92491032672746, 380.5668297340484 0.43593224862964297 M381.73913386389614 0.33074413016438486 C381.68024094017227 178.44104956043884, 381.4753213396855 355.83930131029337, 380.7968604139984 571.6490441150963 M380.7822546157986 -0.38744078613817695 C379.3305319436453 200.46194159025328, 379.0492322452925 400.6994491955266, 380.8761362824589 571.1744905736298 M380.6399847228821 571.6329518433331 C301.60778231158645 573.0073449163035, 222.84843774604576 572.00820818231, 0.29284878514838514 570.8682582977004 M380.63835871021047 570.9205101693509 C290.91126979183775 572.3129769031733, 199.97129681862955 571.4013876445986, 0.22267565245914306 571.0204486552967 M0.40743387266993525 571.0404676504434 C1.6530022932104766 408.5125481952913, 2.376789052587003 246.13570982534438, -0.30340799763798715 0.5925460167229176 M0.3801331911236048 570.809268727526 C1.6872460908330982 428.99130927016955, 1.7537880367673937 287.0888920338824, -0.3176164593547583 0.3358904864639044" stroke="#c92a2a" stroke-width="1" fill="none"></path></g><g transform="translate(32 74.5) rotate(0 100.5 12.5)"><text x="0" y="18" font-family="Virgil, Segoe UI Emoji" font-size="20px" fill="#c92a2a" text-anchor="start" style="white-space: pre;" direction="ltr">Feature Panel (QML)</text></g><g transform="translate(82 222.5) rotate(0 98 12.5)"><text x="0" y="18" font-family="Virgil, Segoe UI Emoji" font-size="20px" fill="#862e9c" text-anchor="start" style="white-space: pre;" direction="ltr">Feature Form (QML)</text></g><g stroke-linecap="round" transform="translate(57 494.5) rotate(0 163 58.5)"><path d="M-0.7382873365399993 -0.19872772231082542 C75.20844437654972 2.9566934823070548, 150.43427604211368 1.527872615872457, 327.0449346928263 -1.3484201826741895 M0.6229065215225118 -0.014075586827381326 C120.22918612287549 -0.9271291480301525, 241.45662260747014 -0.9313049248163249, 325.84729762734355 0.40649430103919915 M325.8370366226882 1.5948137808591127 C324.47208839665166 25.824002252612267, 325.56808292875996 53.25895740222187, 325.01131172291934 116.02817703969777 M326.1843426907435 0.40602487977594137 C326.20883747578597 40.88243245417253, 326.760203059921 83.58376125507058, 325.50222728494555 117.01327160652727 M326.9014061554121 117.3156670968081 C208.0923963277993 116.99348353086846, 88.58699543034625 116.57219167914181, 0.5049057254933915 117.25614249150608 M325.82520589512234 116.31040505101114 C223.2119051781969 118.7230405788702, 119.78794015137345 118.93489359557233, -0.349942257683156 116.46944977637392 M-1.7812033761292696 116.53183086402714 C0.0042533925641330406 87.64675781046972, -0.623274261606857 59.23856959883123, -0.5392135847359896 -0.3789487909525633 M-0.584394327364862 117.70142377074808 C0.7066339463647455 83.17346835313364, -0.3272913783136755 48.851086017489436, -0.42277308460325 0.320433116517961" stroke="#862e9c" stroke-width="1" fill="none"></path></g><g transform="translate(74 507.5) rotate(0 79.5 12.5)"><text x="0" y="18" font-family="Virgil, Segoe UI Emoji" font-size="20px" fill="#862e9c" text-anchor="start" style="white-space: pre;" direction="ltr">Feature Toolbar</text></g><g transform="translate(139 555.5) rotate(0 112 10)"><text x="0" y="14" font-family="Virgil, Segoe UI Emoji" font-size="16px" fill="#862e9c" text-anchor="start" style="white-space: pre;" direction="ltr">Save, Create, Delete, Edit</text></g></svg>