<svg width="40" height="40" viewBox="0 0 40 40" fill="none" xmlns="http://www.w3.org/2000/svg">
<path d="M20 31.6667H8.33333C7.44928 31.6667 6.60143 31.3155 5.97631 30.6904C5.35119 30.0652 5 29.2174 5 28.3333V13.3333C5 12.4493 5.35119 11.6014 5.97631 10.9763C6.60143 10.3512 7.44928 10 8.33333 10H10C10.8841 10 11.7319 9.64881 12.357 9.02369C12.9821 8.39857 13.3333 7.55072 13.3333 6.66667C13.3333 6.22464 13.5089 5.80072 13.8215 5.48816C14.134 5.1756 14.558 5 15 5H25C25.442 5 25.8659 5.1756 26.1785 5.48816C26.4911 5.80072 26.6667 6.22464 26.6667 6.66667C26.6667 7.55072 27.0179 8.39857 27.643 9.02369C28.2681 9.64881 29.1159 10 30 10H31.6667C32.5507 10 33.3986 10.3512 34.0237 10.9763C34.6488 11.6014 35 12.4493 35 13.3333V19.1667" stroke="#5A2740" stroke-width="2" stroke-linecap="round" stroke-linejoin="round"/>
<path d="M26.6665 30H36.6665" stroke="#5A2740" stroke-width="2" stroke-linecap="round" stroke-linejoin="round"/>
<path d="M31.6665 25V35" stroke="#5A2740" stroke-width="2" stroke-linecap="round" stroke-linejoin="round"/>
<path d="M15 20C15 21.3261 15.5268 22.5979 16.4645 23.5355C17.4021 24.4732 18.6739 25 20 25C21.3261 25 22.5979 24.4732 23.5355 23.5355C24.4732 22.5979 25 21.3261 25 20C25 18.6739 24.4732 17.4021 23.5355 16.4645C22.5979 15.5268 21.3261 15 20 15C18.6739 15 17.4021 15.5268 16.4645 16.4645C15.5268 17.4021 15 18.6739 15 20Z" stroke="#5A2740" stroke-width="2" stroke-linecap="round" stroke-linejoin="round"/>
</svg>
