<?xml version="1.0" encoding="UTF-8" standalone="no"?>
<!-- Uploaded to: SVG Repo, www.svgrepo.com, Generator: SVG Repo Mixer Tools -->

<svg
   width="800px"
   height="800px"
   viewBox="0 0 24 24"
   fill="none"
   version="1.1"
   id="svg1"
   sodipodi:docname="addTable.svg"
   inkscape:version="1.4.2 (f4327f4, 2025-05-13)"
   xmlns:inkscape="http://www.inkscape.org/namespaces/inkscape"
   xmlns:sodipodi="http://sodipodi.sourceforge.net/DTD/sodipodi-0.dtd"
   xmlns="http://www.w3.org/2000/svg"
   xmlns:svg="http://www.w3.org/2000/svg">
  <defs
     id="defs1" />
  <sodipodi:namedview
     id="namedview1"
     pagecolor="#ffffff"
     bordercolor="#000000"
     borderopacity="0.25"
     inkscape:showpageshadow="2"
     inkscape:pageopacity="0.0"
     inkscape:pagecheckerboard="0"
     inkscape:deskcolor="#d1d1d1"
     inkscape:zoom="1.00875"
     inkscape:cx="400"
     inkscape:cy="400"
     inkscape:window-width="1920"
     inkscape:window-height="1009"
     inkscape:window-x="-8"
     inkscape:window-y="-8"
     inkscape:window-maximized="1"
     inkscape:current-layer="svg1" />
  <g
     id="Edit / Table_Add"
     style="stroke:#004d45;stroke-opacity:1;stroke-width:1.2;stroke-dasharray:none">
    <path
       id="Vector"
       d="M11 4H15.8002C16.9203 4 17.4801 4 17.9079 4.21799C18.2842 4.40973 18.5905 4.71547 18.7822 5.0918C19 5.5192 19 6.07899 19 7.19691V9.0002L11.0001 9.0001M11 4H6.2002C5.08009 4 4.51962 4 4.0918 4.21799C3.71547 4.40973 3.40973 4.71547 3.21799 5.0918C3 5.51962 3 6.08009 3 7.2002V9M11 4L11.0001 9.0001M3 9V15M3 9L11.0001 9.0001M3 15V16.8002C3 17.9203 3 18.4801 3.21799 18.9079C3.40973 19.2842 3.71547 19.5905 4.0918 19.7822C4.5192 20 5.07899 20 6.19691 20H11.0002L11.0001 9.0001M3 15H11M15 16H18M18 16H21M18 16V19M18 16V13"
       stroke="#000000"
       stroke-width="2"
       stroke-linecap="round"
       stroke-linejoin="round"
       style="stroke:#004d45;stroke-opacity:1;stroke-width:1.2;stroke-dasharray:none" />
  </g>
</svg>
