<svg width="32" height="32" viewBox="0 0 32 32" fill="none" xmlns="http://www.w3.org/2000/svg">
<path d="M16.7127 20.5913L15.6521 21.6518C15.3039 22 14.8904 22.2763 14.4354 22.4648C13.9803 22.6533 13.4926 22.7503 13.0001 22.7503C12.0054 22.7503 11.0514 22.3551 10.3481 21.6518C9.64471 20.9484 9.24957 19.9944 9.24957 18.9997C9.24957 18.005 9.64471 17.0511 10.3481 16.3477L11.4086 15.2872L11.0606 14.9392C10.7793 14.658 10.3978 14.5 10.0001 14.5C9.60232 14.5 9.22085 14.658 8.93956 14.9392L5.75802 18.1207C4.63577 19.2477 4.00394 20.7723 4 22.3628L4 26.4998C4 26.8977 4.15804 27.2792 4.43935 27.5605C4.72065 27.8418 5.10219 27.9998 5.50002 27.9998H9.63557C10.424 28.0019 11.205 27.8476 11.9334 27.5459C12.6618 27.2441 13.3232 26.8009 13.8791 26.2418L17.0607 23.0603C17.3419 22.779 17.4998 22.3975 17.4998 21.9998C17.4998 21.602 17.3419 21.2206 17.0607 20.9393L16.7127 20.5913Z" fill="#4D2A24"/>
<path d="M27.5606 8.93924L23.0605 4.43919C22.7792 4.15798 22.3978 4 22 4C21.6023 4 21.2208 4.15798 20.9395 4.43919L19.4395 5.9392C19.1581 6.22045 19.0001 6.60192 19 6.99972V10.8788L11.9394 17.9393C11.7961 18.0777 11.6818 18.2432 11.6032 18.4262C11.5246 18.6093 11.4832 18.8061 11.4815 19.0053C11.4798 19.2044 11.5177 19.402 11.5931 19.5863C11.6686 19.7706 11.7799 19.9381 11.9208 20.079C12.0616 20.2198 12.2291 20.3312 12.4135 20.4066C12.5978 20.482 12.7953 20.52 12.9945 20.5183C13.1937 20.5165 13.3905 20.4751 13.5735 20.3965C13.7565 20.3179 13.922 20.2036 14.0604 20.0604L21.121 12.9998H25C25.3978 12.9997 25.7793 12.8416 26.0606 12.5603L27.5606 11.0603C27.8418 10.779 27.9998 10.3975 27.9998 9.99975C27.9998 9.602 27.8418 9.22053 27.5606 8.93924ZM22 9.99975V7.62072L24.379 9.99975H22Z" fill="#4D2A24"/>
</svg>
