<svg width="20" height="30" viewBox="0 0 20 30" fill="none" xmlns="http://www.w3.org/2000/svg">
<path d="M13.6257 23.0587C13.6121 21.8473 11.9923 20.8673 9.99152 20.8673C7.97708 20.8537 6.34375 21.8473 6.34375 23.0587V26.3798L6.35736 27.5912C6.34375 27.6592 6.34375 27.7137 6.34375 27.7817C6.34375 28.9931 7.96347 29.9867 9.97791 30.0003C11.9923 30.014 13.6257 29.0204 13.6257 27.809C13.6257 27.7409 13.6257 27.6592 13.6121 27.5912L13.6257 26.3798V23.0587Z" fill="#262533"/>
<g opacity="0.1">
<path d="M9.96428 25.3441C8.14039 25.3441 6.6704 24.5003 6.31651 23.6836C6.26207 23.8061 6.22123 24.0783 6.34373 24.1464V24.5411C6.72484 25.4258 8.09956 26.3514 9.85539 26.3514C11.7473 26.3514 13.3534 25.5483 13.6529 24.65C13.6529 24.65 13.6529 24.405 13.6529 24.3097C13.6529 24.1872 13.6801 24.1055 13.6257 23.983C13.2445 24.8133 11.7882 25.3441 9.96428 25.3441Z" fill="#BCBCBC"/>
</g>
<g opacity="0.1">
<path d="M9.96428 26.8549C8.14039 26.8549 6.6704 26.011 6.31651 25.1943C6.26207 25.3168 6.22123 25.5891 6.34373 25.6571V26.0518C6.72484 26.9366 8.09956 27.8621 9.85539 27.8621C11.7473 27.8621 13.3534 27.0591 13.6529 26.1607C13.6529 26.1607 13.6529 25.9157 13.6529 25.8204C13.6529 25.6979 13.6801 25.6163 13.6257 25.4938C13.2445 26.3377 11.7882 26.8685 9.96428 26.8549Z" fill="black"/>
</g>
<path d="M9.96381 26.6098C8.13992 26.6098 6.66993 25.7659 6.31604 24.9492C6.2616 25.0717 6.23438 25.1942 6.23438 25.3167C6.23438 26.3239 7.75882 27.617 9.85492 27.617C11.951 27.617 13.6932 26.637 13.6932 25.6298C13.6932 25.4937 13.666 25.3712 13.6116 25.2487C13.2441 26.0789 11.7877 26.6098 9.96381 26.6098Z" fill="#BCBCBC"/>
<g opacity="0.1">
<path d="M9.96428 28.516C8.14039 28.516 6.6704 27.6721 6.31651 26.8555C6.26207 26.978 6.22123 27.2502 6.34373 27.3182V27.713C6.72484 28.5977 8.09956 29.5232 9.85539 29.5232C11.7473 29.5232 13.3534 28.7202 13.6529 27.8219C13.6529 27.8219 13.6529 27.5769 13.6529 27.4816C13.6529 27.3455 13.6801 27.2774 13.6257 27.1549C13.2445 27.9852 11.7882 28.516 9.96428 28.516Z" fill="black"/>
</g>
<path d="M9.96429 28.2572C8.14041 28.2572 6.67042 27.4133 6.31653 26.5967C6.26209 26.7192 6.23486 26.8417 6.23486 26.9642C6.23486 27.9714 7.7593 29.2644 9.85541 29.2644C11.9515 29.2644 13.6937 28.2845 13.6937 27.2772C13.6937 27.1547 13.6665 27.0186 13.6121 26.8961C13.2446 27.7264 11.7882 28.2572 9.96429 28.2572Z" fill="#BCBCBC"/>
<g opacity="0.1">
<path d="M13.6258 24.2832C12.9861 26.5154 10.155 28.1896 6.76587 28.1896C6.64337 28.1896 6.50727 28.1896 6.38477 28.176C6.68421 29.2104 8.18142 29.9999 9.96447 29.9999C11.9789 30.0135 13.6122 29.0199 13.6122 27.8085C13.6122 27.7404 13.6259 27.6587 13.6122 27.5907C13.6122 27.5907 13.6667 27.5362 13.6667 27.264C13.6667 27.1143 13.5986 26.9374 13.5986 26.9374L13.6122 26.3793C13.6122 26.3793 13.5986 26.216 13.6122 25.9846C13.6259 25.8349 13.6803 25.6307 13.6667 25.549C13.6667 25.481 13.6122 25.2632 13.6122 25.2632V24.2832H13.6258Z" fill="black"/>
</g>
<path d="M19.7508 10.3456C19.7508 15.545 15.5314 19.7645 10.3319 19.7645C5.13252 19.7645 0.913086 15.545 0.913086 10.3456C0.913086 5.14619 5.13252 0.926758 10.3319 0.926758C15.545 0.940369 19.7508 5.14619 19.7508 10.3456Z" fill="#FFE840"/>
<path fill-rule="evenodd" clip-rule="evenodd" d="M16.6746 17.3138C16.6746 17.3138 14.6738 18.7158 13.6393 22.7583H6.38463C6.38463 22.7583 6.33018 19.655 3.62158 16.96L16.6746 17.3138Z" fill="#FFE840"/>
<g opacity="0.5">
<path fill-rule="evenodd" clip-rule="evenodd" d="M16.2662 8.94279C16.2662 13.0533 12.6457 14.5097 8.53514 14.5097C4.42459 14.5097 2.41016 13.2167 2.41016 9.10613C2.41016 4.99559 6.24848 2.47754 10.359 2.47754C14.4832 2.49115 16.2662 4.83225 16.2662 8.94279Z" fill="white"/>
</g>
<path d="M7.46001 5.88064C7.46001 6.62925 6.84751 7.24174 6.0989 7.24174C5.35029 7.24174 4.73779 6.62925 4.73779 5.88064C4.73779 5.13203 5.35029 4.51953 6.0989 4.51953C6.84751 4.51953 7.46001 5.13203 7.46001 5.88064Z" fill="#FBFFFF"/>
<path d="M5.07791 8.03163C5.07791 8.46718 4.72402 8.82107 4.28847 8.82107C3.85291 8.82107 3.49902 8.46718 3.49902 8.03163C3.49902 7.59608 3.85291 7.24219 4.28847 7.24219C4.73763 7.2558 5.07791 7.59608 5.07791 8.03163Z" fill="#FBFFFF"/>
<path d="M13.6395 22.7581C13.6395 23.8062 12.0198 24.6501 10.019 24.6501C8.01815 24.6501 6.39844 23.8062 6.39844 22.7581C6.39844 21.7101 8.01815 20.8662 10.019 20.8662C12.0198 20.8662 13.6395 21.7237 13.6395 22.7581Z" fill="#F2D925"/>
<path d="M11.9107 22.7454C11.9107 23.3035 11.0396 23.7663 9.95072 23.7663C8.87544 23.7663 7.99072 23.3035 7.99072 22.7454C7.99072 22.1874 8.86183 21.7246 9.95072 21.7246C11.026 21.7246 11.9107 22.1738 11.9107 22.7454Z" fill="#E8AF1F"/>
<path d="M8.79411 23.2626C8.52189 22.5276 6.37134 16.5387 7.66439 15.5587C7.89578 15.3818 8.168 15.6948 8.45383 16.0351C8.658 16.2665 8.903 16.5523 9.01189 16.4979C9.06633 16.4707 9.10717 16.1576 9.12078 16.0079C9.16161 15.6676 9.21606 15.3273 9.42022 15.3137C9.65161 15.3001 9.73327 15.7085 9.81494 16.1032C9.85577 16.321 9.93744 16.6885 10.0055 16.7157C10.1008 16.7429 10.2641 16.4026 10.373 16.1848C10.5499 15.8173 10.7269 15.4771 10.9447 15.5315C11.1488 15.586 11.2169 15.9535 11.2986 16.3346C11.3394 16.5387 11.4074 16.9198 11.4755 16.9198C11.5844 16.9198 11.7069 16.4707 11.8022 16.1848C11.9383 15.7085 12.088 15.2185 12.3602 15.3137C12.5235 15.3818 12.6597 15.5315 12.7413 15.7629C13.2994 17.4507 11.2986 23.004 11.2169 23.2626L10.9583 23.3034C10.9855 23.249 13.0816 17.4507 12.5508 15.8854C12.4963 15.7221 12.4147 15.6268 12.3058 15.586C12.2241 15.5587 12.0744 16.0215 12.0063 16.2801C11.8702 16.7701 11.7341 17.2193 11.4755 17.2057C11.2577 17.1785 11.176 16.7837 11.108 16.4026C11.0672 16.1848 10.9991 15.8173 10.9311 15.8037C10.8358 15.7765 10.6724 16.1168 10.5635 16.3346C10.3866 16.7021 10.2097 17.0287 9.99189 16.9879C9.78772 16.9471 9.70605 16.566 9.62439 16.1712C9.58355 15.9807 9.5155 15.586 9.44745 15.586C9.40661 15.6132 9.36578 15.899 9.35217 16.0487C9.31133 16.3754 9.2705 16.6748 9.09356 16.7565C8.86217 16.8654 8.60356 16.566 8.33134 16.2393C8.14078 16.0215 7.88217 15.7085 7.77328 15.7901C6.83412 16.5115 8.33134 21.357 9.0255 23.2898L8.79411 23.2626Z" fill="#E8AF1F"/>
</svg>
