<svg width="18" height="18" viewBox="0 0 18 18" fill="none" xmlns="http://www.w3.org/2000/svg">
<path d="M13.5002 1.2059C14.8576 1.98967 15.9868 3.11438 16.776 4.46867C17.5652 5.82297 17.987 7.3599 17.9997 8.92731C18.0124 10.4947 17.6154 12.0383 16.8482 13.4051C16.081 14.772 14.9701 15.9148 13.6255 16.7204C12.2809 17.526 10.7492 17.9664 9.182 17.9982C7.61484 18.0299 6.06657 17.6518 4.69046 16.9012C3.31434 16.1507 2.15811 15.0538 1.33622 13.7191C0.514322 12.3844 0.0552691 10.8581 0.00450016 9.2915L0 8.9999L0.00450016 8.7083C0.0549036 7.15399 0.507199 5.63927 1.31729 4.3118C2.12738 2.98432 3.26763 1.88941 4.62686 1.1338C5.98609 0.378185 7.51792 -0.0123397 9.07302 0.000297221C10.6281 0.0129341 12.1534 0.428301 13.5002 1.2059ZM12.3365 6.5636C12.1815 6.40864 11.9753 6.31556 11.7566 6.3018C11.5378 6.28805 11.3216 6.35458 11.1484 6.4889L11.0638 6.5636L8.1001 9.5264L6.93639 8.3636L6.85178 8.2889C6.67861 8.15467 6.46241 8.08822 6.24374 8.10202C6.02507 8.11582 5.81894 8.20891 5.66401 8.36384C5.50907 8.51877 5.41598 8.7249 5.40218 8.94357C5.38839 9.16224 5.45484 9.37843 5.58907 9.5516L5.66377 9.6362L7.46379 11.4362L7.54839 11.5109C7.70623 11.6334 7.90033 11.6998 8.1001 11.6998C8.29987 11.6998 8.49397 11.6334 8.65181 11.5109L8.73641 11.4362L12.3365 7.8362L12.4112 7.7516C12.5455 7.57844 12.612 7.36221 12.5983 7.14349C12.5845 6.92477 12.4914 6.71858 12.3365 6.5636Z" fill="#004C45"/>
</svg>
