<svg width="24" height="24" viewBox="0 0 24 24" fill="none" xmlns="http://www.w3.org/2000/svg">
<path d="M19 10C19 10 18.4643 15.8598 18.1535 18.7493C18.0056 20.1294 17.1798 20.9381 15.8273 20.9636C13.2534 21.0115 10.6766 21.0145 8.10366 20.9585C6.80241 20.931 5.99049 20.1121 5.84547 18.7564C5.53273 15.8414 5 10 5 10" stroke="white" stroke-width="2" stroke-linecap="round" stroke-linejoin="round"/>
<path d="M20 6.5H4" stroke="white" stroke-width="2" stroke-linecap="round" stroke-linejoin="round"/>
<path d="M17 6.5C16.2469 6.5 15.5983 4.68186 15.4505 4.24104L15.2174 3.544C15.0735 3.22241 14.5861 3 14.0306 3H9.96939C9.41389 3 8.92651 3.22241 8.7826 3.544L8.54946 4.24104C8.40171 4.68186 7.75314 6.5 7 6.5" stroke="white" stroke-width="2" stroke-linecap="round" stroke-linejoin="round"/>
</svg>
