<svg width="32" height="32" viewBox="0 0 32 32" fill="none" xmlns="http://www.w3.org/2000/svg">
<path d="M23 14C23 14 22.4643 20.3925 22.1535 23.5447C22.0056 25.0503 21.1798 25.9325 19.8273 25.9603C17.2534 26.0125 14.6766 26.0158 12.1037 25.9547C10.8024 25.9247 9.99049 25.0314 9.84547 23.5525C9.53273 20.3725 9 14 9 14" stroke="white" stroke-width="2" stroke-linecap="round" stroke-linejoin="round"/>
<path d="M25 10H7" stroke="white" stroke-width="2" stroke-linecap="round" stroke-linejoin="round"/>
<path d="M21 10C20.2469 10 19.5983 7.92212 19.4505 7.41834L19.2174 6.62171C19.0735 6.25419 18.5861 6 18.0306 6H13.9694C13.4139 6 12.9265 6.25419 12.7826 6.62171L12.5495 7.41834C12.4017 7.92212 11.7531 10 11 10" stroke="white" stroke-width="2" stroke-linecap="round" stroke-linejoin="round"/>
</svg>
