<svg width="32" height="32" viewBox="0 0 32 32" fill="none" xmlns="http://www.w3.org/2000/svg">
<g clip-path="url(#clip0_101_400)">
<path d="M22.5002 4.74186C24.461 5.87397 26.0921 7.49854 27.2321 9.45475C28.372 11.411 28.9813 13.631 28.9996 15.895C29.0179 18.159 28.4445 20.3886 27.3363 22.363C26.2281 24.3373 24.6235 25.988 22.6813 27.1517C20.739 28.3153 18.5266 28.9515 16.2629 28.9973C13.9992 29.0432 11.7628 28.497 9.7751 27.4129C7.78739 26.3288 6.11727 24.7443 4.93009 22.8164C3.74291 20.8885 3.07983 18.684 3.0065 16.4211L3 15.9999L3.0065 15.5787C3.07931 13.3335 3.73262 11.1456 4.90275 9.22815C6.07289 7.31069 7.71991 5.72915 9.68324 4.63771C11.6466 3.54627 13.8592 2.98218 16.1055 3.00043C18.3517 3.01868 20.5549 3.61866 22.5002 4.74186ZM20.8193 12.4808C20.5955 12.2569 20.2976 12.1225 19.9817 12.1026C19.6658 12.0827 19.3534 12.1788 19.1033 12.3729L18.9811 12.4808L14.7001 16.7604L13.0192 15.0808L12.897 14.9729C12.6469 14.779 12.3346 14.683 12.0187 14.7029C11.7029 14.7228 11.4051 14.8573 11.1813 15.0811C10.9576 15.3049 10.8231 15.6026 10.8032 15.9185C10.7832 16.2343 10.8792 16.5466 11.0731 16.7968L11.181 16.919L13.781 19.519L13.9032 19.6269C14.1312 19.8037 14.4116 19.8997 14.7001 19.8997C14.9887 19.8997 15.2691 19.8037 15.4971 19.6269L15.6193 19.519L20.8193 14.319L20.9272 14.1968C21.1213 13.9466 21.2173 13.6343 21.1975 13.3184C21.1776 13.0024 21.0432 12.7046 20.8193 12.4808Z" fill="#004C45"/>
</g>
<defs>
<clipPath id="clip0_101_400">
<rect width="32" height="32" fill="white"/>
</clipPath>
</defs>
</svg>
