<svg width="32" height="32" viewBox="0 0 32 32" fill="none" xmlns="http://www.w3.org/2000/svg">
<path d="M4 16C4 17.5759 4.31039 19.1363 4.91345 20.5922C5.5165 22.0481 6.40042 23.371 7.51472 24.4853C8.62902 25.5996 9.95189 26.4835 11.4078 27.0866C12.8637 27.6896 14.4241 28 16 28C17.5759 28 19.1363 27.6896 20.5922 27.0866C22.0481 26.4835 23.371 25.5996 24.4853 24.4853C25.5996 23.371 26.4835 22.0481 27.0866 20.5922C27.6896 19.1363 28 17.5759 28 16C28 14.4241 27.6896 12.8637 27.0866 11.4078C26.4835 9.95189 25.5996 8.62902 24.4853 7.51472C23.371 6.40042 22.0481 5.5165 20.5922 4.91345C19.1363 4.31039 17.5759 4 16 4C14.4241 4 12.8637 4.31039 11.4078 4.91345C9.95189 5.5165 8.62902 6.40042 7.51472 7.51472C6.40042 8.62902 5.5165 9.95189 4.91345 11.4078C4.31039 12.8637 4 14.4241 4 16Z" fill="#004C45" stroke="#004C45" stroke-width="2" stroke-linecap="round" stroke-linejoin="round"/>
<path fill-rule="evenodd" clip-rule="evenodd" d="M16.8661 12.3645C17.2124 11.9394 17.8348 11.877 18.2573 12.2255C18.2806 12.2444 19.031 12.8433 19.031 12.8433C19.4951 13.1315 19.6393 13.7442 19.3524 14.2118C19.3372 14.2369 15.0946 19.6888 15.0946 19.6888C14.9535 19.8697 14.7392 19.9765 14.5102 19.979L12.8855 20L12.5194 18.4082C12.4682 18.1844 12.5194 17.9493 12.6606 17.7684L16.8661 12.3645Z" stroke="#73D19C" stroke-width="2" stroke-linecap="round" stroke-linejoin="round"/>
<path d="M16 14L18 15.5" stroke="#73D19C" stroke-width="2" stroke-linecap="round" stroke-linejoin="round"/>
</svg>
