<svg width="32" height="32" viewBox="0 0 32 32" fill="none" xmlns="http://www.w3.org/2000/svg">
<path fill-rule="evenodd" clip-rule="evenodd" d="M11.0251 3.98957C12.6023 3.33626 14.2928 3 16 3C17.7072 3 19.3977 3.33626 20.9749 3.98957C22.5521 4.64288 23.9852 5.60045 25.1924 6.80761C26.3995 8.01477 27.3571 9.44788 28.0104 11.0251C28.6637 12.6023 29 14.2928 29 16C29 17.7072 28.6637 19.3977 28.0104 20.9749C27.3571 22.5521 26.3995 23.9852 25.1924 25.1924C23.9852 26.3995 22.5521 27.3571 20.9749 28.0104C19.3977 28.6637 17.7072 29 16 29C14.2928 29 12.6023 28.6637 11.0251 28.0104C9.44788 27.3571 8.01477 26.3995 6.80761 25.1924C5.60045 23.9852 4.64288 22.5521 3.98957 20.9749C3.33625 19.3977 3 17.7072 3 16C3 14.2928 3.33625 12.6023 3.98957 11.0251C4.64288 9.44788 5.60045 8.01477 6.80761 6.80761C8.01477 5.60045 9.44788 4.64288 11.0251 3.98957ZM16 5C14.5555 5 13.1251 5.28452 11.7905 5.83733C10.4559 6.39013 9.24327 7.20038 8.22183 8.22183C7.20038 9.24327 6.39013 10.4559 5.83733 11.7905C5.28452 13.1251 5 14.5555 5 16C5 17.4445 5.28452 18.8749 5.83733 20.2095C6.39013 21.5441 7.20038 22.7567 8.22183 23.7782C9.24327 24.7996 10.4559 25.6099 11.7905 26.1627C13.1251 26.7155 14.5555 27 16 27C17.4445 27 18.8749 26.7155 20.2095 26.1627C21.5441 25.6099 22.7567 24.7996 23.7782 23.7782C24.7996 22.7567 25.6099 21.5441 26.1627 20.2095C26.7155 18.8749 27 17.4445 27 16C27 14.5555 26.7155 13.1251 26.1627 11.7905C25.6099 10.4559 24.7996 9.24327 23.7782 8.22183C22.7567 7.20038 21.5441 6.39013 20.2095 5.83733C18.8749 5.28452 17.4445 5 16 5Z" fill="#004C45"/>
<path fill-rule="evenodd" clip-rule="evenodd" d="M4.91345 20.5922C4.31039 19.1363 4 17.5759 4 16C4 14.4241 4.31039 12.8637 4.91345 11.4078C5.5165 9.95189 6.40042 8.62902 7.51472 7.51472C8.62902 6.40042 9.95189 5.5165 11.4078 4.91345C12.8637 4.31039 14.4241 4 16 4C17.5759 4 19.1363 4.31039 20.5922 4.91345C22.0481 5.5165 23.371 6.40042 24.4853 7.51472C25.5996 8.62902 26.4835 9.95189 27.0866 11.4078C27.6896 12.8637 28 14.4241 28 16C28 17.5759 27.6896 19.1363 27.0866 20.5922C26.4835 22.0481 25.5996 23.371 24.4853 24.4853C23.371 25.5996 22.0481 26.4835 20.5922 27.0866C19.1363 27.6896 17.5759 28 16 28C14.4241 28 12.8637 27.6896 11.4078 27.0866C9.95189 26.4835 8.62902 25.5996 7.51472 24.4853C6.40042 23.371 5.5165 22.0481 4.91345 20.5922ZM16.1101 11.1366C16.7878 10.2895 18.0171 10.1371 18.8811 10.7929L19.7803 11.4755C20.6954 12.1702 20.8385 13.4912 20.0933 14.3657L19.1756 15.4427C19.1687 15.4508 19.1617 15.4588 19.1545 15.4667L17.035 17.7986L17.0313 17.8033L16.9696 17.8791C16.9166 17.9441 16.8408 18.0367 16.7492 18.1477C16.5664 18.3693 16.3187 18.6663 16.0621 18.9648C15.808 19.2603 15.535 19.5691 15.304 19.8087C15.1907 19.9262 15.0709 20.0445 14.9593 20.1398C14.9053 20.186 14.8314 20.2455 14.7465 20.2992C14.7038 20.3261 14.6401 20.3632 14.5608 20.3963C14.4916 20.4252 14.3476 20.4781 14.1596 20.4802L14.1581 20.4802L12.4223 20.4999C11.9632 20.5051 11.5595 20.197 11.4434 19.7528L11.052 18.2546C10.9976 18.0457 11.0193 17.8674 11.0351 17.7781C11.0529 17.6774 11.081 17.5921 11.1037 17.5319C11.1489 17.4116 11.2075 17.2992 11.2576 17.2106C11.3604 17.0285 11.4937 16.8305 11.6176 16.6563C11.8552 16.3222 12.1253 15.9819 12.2397 15.8503L14.7254 12.8675L16.1101 11.1366ZM15.498 16.5187C15.5102 16.5036 15.5228 16.4888 15.5359 16.4745L16.1831 15.7623L15.4036 15.1777L13.7682 17.1402C13.7617 17.148 13.7551 17.1557 13.7483 17.1634L13.7483 17.1634L13.7472 17.1647L13.7433 17.1692L13.7301 17.1848C13.719 17.1979 13.705 17.215 13.6881 17.2358C13.6542 17.2774 13.6117 17.3307 13.5637 17.3922C13.4672 17.5157 13.3535 17.6662 13.2476 17.8153C13.1793 17.9113 13.1197 17.999 13.0719 18.0739L13.1809 18.4912L13.802 18.4841C13.8211 18.4649 13.8418 18.4438 13.864 18.4207C14.0549 18.2226 14.2985 17.9482 14.5457 17.6608C14.7904 17.3762 15.0287 17.0904 15.2066 16.8748C15.2953 16.7673 15.3685 16.6778 15.4194 16.6154L15.4781 16.5432L15.498 16.5187ZM17.6637 14.1334L17.5343 14.2757L16.6754 13.6315L17.6719 12.3859L18.571 13.0685L17.6637 14.1334Z" fill="#004C45"/>
</svg>
