<svg width="32" height="32" viewBox="0 0 32 32" fill="none" xmlns="http://www.w3.org/2000/svg">
<path d="M20.6748 16.7293L16.1299 21.7689L21.3501 27.0062C22.6706 28.3317 24.8123 28.3317 26.1335 27.0062C27.4547 25.6807 27.4547 23.532 26.1335 22.2065L20.674 16.7285L20.6748 16.7293Z" fill="#5A2740"/>
<path d="M10.6589 13.8792L13.1666 11.5953L6.62588 5.03341C6.31412 4.72063 5.80939 4.72063 5.49842 5.03341L4.23382 6.30212C3.92206 6.61489 3.92206 7.12126 4.23382 7.43323L10.6589 13.8792Z" fill="#5A2740"/>
<path d="M27.7669 12.7701L20.3786 5.31067C18.8278 3.77878 16.4564 3.59079 14.7047 4.74111C14.2908 5.01309 14.2518 5.61384 14.6018 5.96502L17.9897 9.36397L4.78082 21.3943C3.80486 22.2878 3.73549 23.8053 4.62613 24.7844L6.32688 26.4947C6.77659 26.9459 7.38656 27.1987 8.02285 27.1979C8.65036 27.2003 9.25237 26.9515 9.69729 26.5075L21.7596 13.1485L24.5743 15.9723C24.8852 16.2843 25.3908 16.2843 25.7017 15.9723L27.7653 13.902C28.077 13.5901 28.0786 13.0837 27.7677 12.7709L27.7669 12.7701Z" fill="#5A2740"/>
</svg>
