<svg width="32" height="32" viewBox="0 0 32 32" fill="none" xmlns="http://www.w3.org/2000/svg">
<path d="M27.7076 4.29185C27.5948 4.17926 27.4566 4.09531 27.3047 4.047C27.1529 3.99868 26.9916 3.98742 26.8345 4.01414C26.313 4.10205 14.062 6.21187 10.4518 9.83414C9.14859 11.1414 8.3195 12.8466 8.09616 14.6789C7.87283 16.5113 8.26805 18.3657 9.21907 19.9477L4.60993 24.565C4.41911 24.7493 4.26691 24.9697 4.1622 25.2135C4.05749 25.4572 4.00238 25.7194 4.00008 25.9847C3.99777 26.25 4.04832 26.5131 4.14878 26.7586C4.24923 27.0041 4.39758 27.2272 4.58517 27.4148C4.77276 27.6024 4.99583 27.7508 5.24136 27.8512C5.48689 27.9517 5.74997 28.0022 6.01525 27.9999C6.28053 27.9976 6.5427 27.9425 6.78645 27.8378C7.0302 27.7331 7.25065 27.5809 7.43495 27.39L18.8369 15.9878L14.8411 23.8257C15.3235 23.9219 15.8138 23.9734 16.3056 23.9796C17.3943 23.9824 18.4728 23.7693 19.4786 23.3526C20.4844 22.9359 21.3976 22.3239 22.1654 21.5521C25.7816 17.9378 27.8974 5.68641 27.9853 5.16895C28.0127 5.01119 28.0017 4.84917 27.9534 4.69653C27.9051 4.54388 27.8208 4.40509 27.7076 4.29185Z" fill="#004C45"/>
</svg>
