<svg width="24" height="24" viewBox="0 0 24 24" fill="none" xmlns="http://www.w3.org/2000/svg">
<path fill-rule="evenodd" clip-rule="evenodd" d="M12 22C17.5228 22 22 17.5228 22 12C22 6.47715 17.5228 2 12 2C6.47715 2 2 6.47715 2 12C2 17.5228 6.47715 22 12 22ZM12.0001 13.4031C12.1862 13.4031 12.3647 13.3292 12.4963 13.1976C12.6279 13.066 12.7018 12.8875 12.7018 12.7014V8.49084C12.7018 8.30472 12.6279 8.12623 12.4963 7.99462C12.3647 7.86302 12.1862 7.78908 12.0001 7.78908C11.8139 7.78908 11.6354 7.86302 11.5038 7.99462C11.3722 8.12623 11.2983 8.30472 11.2983 8.49084V12.7014C11.2983 12.8875 11.3722 13.066 11.5038 13.1976C11.6354 13.3292 11.8139 13.4031 12.0001 13.4031ZM11.9997 16.2102C12.5811 16.2102 13.0524 15.7389 13.0524 15.1575C13.0524 14.5762 12.5811 14.1049 11.9997 14.1049C11.4184 14.1049 10.9471 14.5762 10.9471 15.1575C10.9471 15.7389 11.4184 16.2102 11.9997 16.2102Z" fill="#5A2740"/>
</svg>
