<svg width="16" height="16" viewBox="0 0 16 16" fill="none" xmlns="http://www.w3.org/2000/svg">
<path d="M8 2C11.3138 2 14 4.68514 14 7.99763C14.0012 9.57229 13.3829 11.0843 12.2785 12.2071C11.1741 13.33 9.67229 13.9737 8.09721 13.9992C6.52214 14.0247 5.0002 13.43 3.86 12.3435C2.71979 11.257 2.05279 9.76582 2.003 8.19195L2 7.99763L2.0024 7.82969C2.0912 4.59517 4.742 2 8 2ZM8.006 9.79692L7.9298 9.80111C7.78397 9.81845 7.64957 9.88865 7.55205 9.99841C7.45453 10.1082 7.40067 10.2499 7.40067 10.3967C7.40067 10.5435 7.45453 10.6852 7.55205 10.7949C7.64957 10.9047 7.78397 10.9749 7.9298 10.9922L8 10.9964L8.0762 10.9922C8.22203 10.9749 8.35643 10.9047 8.45395 10.7949C8.55147 10.6852 8.60533 10.5435 8.60533 10.3967C8.60533 10.2499 8.55147 10.1082 8.45395 9.99841C8.35643 9.88865 8.22203 9.81845 8.0762 9.80111L8.006 9.79692ZM8 4.99881C7.85304 4.99883 7.7112 5.05277 7.60138 5.15038C7.49155 5.248 7.42139 5.38251 7.4042 5.5284L7.4 5.59858V7.99763L7.4042 8.0678C7.42155 8.21357 7.49177 8.34792 7.60158 8.4454C7.71138 8.54288 7.85314 8.59672 8 8.59672C8.14686 8.59672 8.28861 8.54288 8.39842 8.4454C8.50823 8.34792 8.57845 8.21357 8.5958 8.0678L8.6 7.99763V5.59858L8.5958 5.5284C8.5786 5.38251 8.50844 5.248 8.39862 5.15038C8.2888 5.05277 8.14696 4.99883 8 4.99881Z" fill="#FFA6A6"/>
</svg>
