<svg width="24" height="24" viewBox="0 0 24 24" fill="none" xmlns="http://www.w3.org/2000/svg">
<path d="M3 4C3 3.44772 3.44772 3 4 3H20C20.5523 3 21 3.44772 21 4V6.586C21 6.85119 20.8946 7.10554 20.7071 7.29308L14.2929 13.7071C14.1054 13.8946 14 14.149 14 14.4142V19.382C14 19.7607 13.786 20.107 13.4472 20.2764L10.4472 21.7764C9.78231 22.1088 9 21.6253 9 20.882V14.4142C9 14.149 8.89464 13.8946 8.70711 13.7071L3.29289 8.29289C3.10536 8.10536 3 7.851 3 7.58579V4Z" stroke="#004C45" stroke-width="2" stroke-linecap="round" stroke-linejoin="round"/>
</svg>
