<svg width="22" height="22" viewBox="0 0 22 22" fill="none" xmlns="http://www.w3.org/2000/svg">
<path d="M11 21C16.5228 21 21 16.5228 21 11C21 5.47715 16.5228 1 11 1C5.47715 1 1 5.47715 1 11C1 16.5228 5.47715 21 11 21Z" stroke="#B7CDC4" stroke-width="2" stroke-linecap="round" stroke-linejoin="round"/>
<path d="M7.0001 2H8.0001C6.0501 7.84 6.0501 14.16 8.0001 20H7.0001" stroke="#B7CDC4" stroke-width="2" stroke-linecap="round" stroke-linejoin="round"/>
<path d="M14 2C15.95 7.84 15.95 14.16 14 20" stroke="#B7CDC4" stroke-width="2" stroke-linecap="round" stroke-linejoin="round"/>
<path d="M2 15V14C7.84 15.95 14.16 15.95 20 14V15" stroke="#B7CDC4" stroke-width="2" stroke-linecap="round" stroke-linejoin="round"/>
<path d="M2 7.99961C7.84 6.04961 14.16 6.04961 20 7.99961" stroke="#B7CDC4" stroke-width="2" stroke-linecap="round" stroke-linejoin="round"/>
</svg>
