<svg width="20" height="20" viewBox="0 0 20 20" fill="none" xmlns="http://www.w3.org/2000/svg">
<path d="M5.65006 18.9098C5.62006 18.9098 5.58006 18.9298 5.55006 18.9298C3.61006 17.9698 2.03006 16.3798 1.06006 14.4398C1.06006 14.4098 1.08006 14.3698 1.08006 14.3398C2.30006 14.6998 3.56006 14.9698 4.81006 15.1798C5.03006 16.4398 5.29006 17.6898 5.65006 18.9098Z" fill="white"/>
<path d="M18.94 14.4498C17.95 16.4398 16.3 18.0498 14.29 19.0198C14.67 17.7498 14.99 16.4698 15.2 15.1798C16.46 14.9698 17.7 14.6998 18.92 14.3398C18.91 14.3798 18.94 14.4198 18.94 14.4498Z" fill="white"/>
<path d="M19.02 5.70949C17.76 5.32949 16.49 5.01949 15.2 4.79949C14.99 3.50949 14.68 2.22949 14.29 0.979492C16.36 1.96949 18.03 3.63949 19.02 5.70949Z" fill="white"/>
<path d="M5.64998 1.08957C5.28998 2.30957 5.02998 3.54957 4.81998 4.80957C3.52998 5.00957 2.24998 5.32957 0.97998 5.70957C1.94998 3.69957 3.55998 2.04957 5.54998 1.05957C5.57998 1.05957 5.61998 1.08957 5.64998 1.08957Z" fill="white"/>
<path d="M13.4898 4.59C11.1698 4.33 8.82977 4.33 6.50977 4.59C6.75977 3.22 7.07977 1.85 7.52977 0.53C7.54977 0.45 7.53977 0.39 7.54977 0.31C8.33977 0.12 9.14977 0 9.99977 0C10.8398 0 11.6598 0.12 12.4398 0.31C12.4498 0.39 12.4498 0.45 12.4698 0.53C12.9198 1.86 13.2398 3.22 13.4898 4.59Z" fill="white"/>
<path d="M4.59 13.4898C3.21 13.2398 1.85 12.9198 0.53 12.4698C0.45 12.4498 0.39 12.4598 0.31 12.4498C0.12 11.6598 0 10.8498 0 9.99977C0 9.15977 0.12 8.33977 0.31 7.55977C0.39 7.54977 0.45 7.54977 0.53 7.52977C1.86 7.08977 3.21 6.75977 4.59 6.50977C4.34 8.82977 4.34 11.1698 4.59 13.4898Z" fill="white"/>
<path d="M20.0002 9.99977C20.0002 10.8498 19.8802 11.6598 19.6902 12.4498C19.6102 12.4598 19.5502 12.4498 19.4702 12.4698C18.1402 12.9098 16.7802 13.2398 15.4102 13.4898C15.6702 11.1698 15.6702 8.82977 15.4102 6.50977C16.7802 6.75977 18.1502 7.07977 19.4702 7.52977C19.5502 7.54977 19.6102 7.55977 19.6902 7.55977C19.8802 8.34977 20.0002 9.15977 20.0002 9.99977Z" fill="white"/>
<path d="M13.4898 15.4102C13.2398 16.7902 12.9198 18.1502 12.4698 19.4702C12.4498 19.5502 12.4498 19.6102 12.4398 19.6902C11.6598 19.8802 10.8398 20.0002 9.99977 20.0002C9.14977 20.0002 8.33977 19.8802 7.54977 19.6902C7.53977 19.6102 7.54977 19.5502 7.52977 19.4702C7.08977 18.1402 6.75977 16.7902 6.50977 15.4102C7.66977 15.5402 8.82977 15.6302 9.99977 15.6302C11.1698 15.6302 12.3398 15.5402 13.4898 15.4102Z" fill="white"/>
<path d="M13.7633 13.7633C11.2622 14.0789 8.73776 14.0789 6.23667 13.7633C5.92111 11.2622 5.92111 8.73776 6.23667 6.23667C8.73776 5.92111 11.2622 5.92111 13.7633 6.23667C14.0789 8.73776 14.0789 11.2622 13.7633 13.7633Z" fill="white"/>
</svg>
