<svg width="24" height="24" viewBox="0 0 24 24" fill="none" xmlns="http://www.w3.org/2000/svg"><g clip-path="url(#a)" stroke="white" stroke-width="2" stroke-linecap="round" stroke-linejoin="round"><path d="m3.707 6.293 2.586-2.586a1 1 0 0 1 1.414 0l5.586 5.586a1 1 0 0 1 0 1.414l-2.586 2.586a1 1 0 0 1-1.414 0L3.707 7.707a1 1 0 0 1 0-1.414Z"/><path d="m6 10-2.293 2.293a1 1 0 0 0 0 1.414l1.586 1.586a1 1 0 0 0 1.414 0L9 13m1-7 2.293-2.293a1 1 0 0 1 1.414 0l1.586 1.586a1 1 0 0 1 0 1.414L13 9m-1 3 1.5 1.5m1 3.5a2.5 2.5 0 0 0 2.5-2.5M15 21a6 6 0 0 0 6-6"/></g><defs><clipPath id="a"><path fill="#fff" d="M0 0h24v24H0z"/></clipPath></defs></svg>