<svg width="24" height="24" viewBox="0 0 24 24" fill="none" xmlns="http://www.w3.org/2000/svg">
<path d="M10.5858 13.4142C10.2107 13.0391 10 12.5304 10 12C10 11.4696 10.2107 10.9609 10.5858 10.5858C10.9609 10.2107 11.4696 10 12 10C12.5304 10 13.0391 10.2107 13.4142 10.5858" stroke="#004C45" stroke-width="2" stroke-linecap="round" stroke-linejoin="round"/>
<path fill-rule="evenodd" clip-rule="evenodd" d="M19.5591 7.26932L18.1455 8.68298C18.6498 9.18153 19.1226 9.74608 19.5567 10.3737L19.5576 10.375C19.83 10.7674 20 11.3549 20 12C20 12.6451 19.83 13.2326 19.5576 13.625L19.5567 13.6263C19.4314 13.8075 19.3028 13.9834 19.1712 14.154L14.1753 12.6531L14.1749 12.6535L19.1708 14.1546C17.2498 16.6446 14.6778 18 12 18C11.08 18 10.1724 17.84 9.29948 17.5289L7.76599 19.0624C9.09085 19.6722 10.5187 20 12 20C15.6319 20 18.9431 18.029 21.2011 14.7647L19.1708 14.1546C19.1709 14.1544 19.1711 14.1542 19.1712 14.154L21.2016 14.764C21.7564 13.9639 22 12.9531 22 12C22 11.0469 21.7564 10.0361 21.2016 9.23599C20.7029 8.5149 20.1527 7.85691 19.5591 7.26932ZM4.4409 16.7307L5.85455 15.317C5.35022 14.8185 4.87737 14.2539 4.4433 13.6263L4.44238 13.625C4.17004 13.2326 4 12.6451 4 12C4 11.3549 4.17004 10.7674 4.44238 10.375L4.44329 10.3737C4.56875 10.1923 4.69744 10.0162 4.8292 9.84539L9.82507 11.3465L9.82531 11.3463L4.82926 9.84532C6.75021 7.35542 9.32226 6 12 6C12.92 6 13.8276 6.16001 14.7005 6.47106L16.234 4.93756C14.9092 4.32784 13.4813 4 12 4C8.36806 4 5.05688 5.971 2.79886 9.23533C2.24372 10.0356 2 11.0466 2 12C2 12.9531 2.24359 13.9639 2.7984 14.764C3.29714 15.4851 3.84727 16.1431 4.4409 16.7307ZM2.79886 9.23533L4.82926 9.84532C4.82924 9.84534 4.82922 9.84536 4.8292 9.84539L2.79886 9.23533Z" fill="#004C45"/>
<path d="M4 20L20 4" stroke="#004C45" stroke-width="2" stroke-linecap="round" stroke-linejoin="round"/>
</svg>
