<svg width="32" height="32" viewBox="0 0 32 32" fill="none" xmlns="http://www.w3.org/2000/svg">
<path fill-rule="evenodd" clip-rule="evenodd" d="M11.7905 5.83733C13.1251 5.28452 14.5555 5 16 5C17.4445 5 18.8749 5.28452 20.2095 5.83733C21.5441 6.39013 22.7567 7.20038 23.7782 8.22183C24.7996 9.24327 25.6099 10.4559 26.1627 11.7905C26.7155 13.1251 27 14.5555 27 16C27 17.4445 26.7155 18.8749 26.1627 20.2095C25.6099 21.5441 24.7996 22.7567 23.7782 23.7782C22.7567 24.7996 21.5441 25.6099 20.2095 26.1627C18.8749 26.7155 17.4445 27 16 27C14.5555 27 13.1251 26.7155 11.7905 26.1627C10.4559 25.6099 9.24327 24.7996 8.22183 23.7782C7.20038 22.7567 6.39013 21.5441 5.83733 20.2095C5.28452 18.8749 5 17.4445 5 16C5 14.5555 5.28452 13.1251 5.83733 11.7905C6.39013 10.4559 7.20038 9.24327 8.22183 8.22183C9.24327 7.20038 10.4559 6.39013 11.7905 5.83733ZM16 7C14.8181 7 13.6478 7.23279 12.5558 7.68508C11.4639 8.13738 10.4718 8.80031 9.63604 9.63604C8.80031 10.4718 8.13738 11.4639 7.68508 12.5558C7.23279 13.6478 7 14.8181 7 16C7 17.1819 7.23279 18.3522 7.68508 19.4442C8.13738 20.5361 8.80031 21.5282 9.63604 22.364C10.4718 23.1997 11.4639 23.8626 12.5558 24.3149C13.6478 24.7672 14.8181 25 16 25C17.1819 25 18.3522 24.7672 19.4442 24.3149C20.5361 23.8626 21.5282 23.1997 22.364 22.364C23.1997 21.5282 23.8626 20.5361 24.3149 19.4442C24.7672 18.3522 25 17.1819 25 16C25 14.8181 24.7672 13.6478 24.3149 12.5558C23.8626 11.4639 23.1997 10.4718 22.364 9.63604C21.5282 8.80031 20.5361 8.13738 19.4442 7.68508C18.3522 7.23279 17.1819 7 16 7Z" fill="white"/>
<path fill-rule="evenodd" clip-rule="evenodd" d="M6.7612 19.8268C6.25866 18.6136 6 17.3132 6 16C6 14.6868 6.25866 13.3864 6.7612 12.1732C7.26375 10.9599 8.00035 9.85752 8.92893 8.92893C9.85752 8.00035 10.9599 7.26375 12.1732 6.7612C13.3864 6.25866 14.6868 6 16 6C17.3132 6 18.6136 6.25866 19.8268 6.7612C21.0401 7.26375 22.1425 8.00035 23.0711 8.92893C23.9997 9.85752 24.7362 10.9599 25.2388 12.1732C25.7413 13.3864 26 14.6868 26 16C26 17.3132 25.7413 18.6136 25.2388 19.8268C24.7362 21.0401 23.9997 22.1425 23.0711 23.0711C22.1425 23.9997 21.0401 24.7362 19.8268 25.2388C18.6136 25.7413 17.3132 26 16 26C14.6868 26 13.3864 25.7413 12.1732 25.2388C10.9599 24.7362 9.85752 23.9997 8.92893 23.0711C8.00035 22.1425 7.26375 21.0401 6.7612 19.8268ZM14.995 11.5C14.995 10.9477 15.4427 10.5 15.995 10.5H16.005C16.5573 10.5 17.005 10.9477 17.005 11.5C17.005 12.0523 16.5573 12.5 16.005 12.5H15.995C15.4427 12.5 14.995 12.0523 14.995 11.5ZM16 14.0001C16.5523 14.0001 17 14.4478 17 15.0001V21.0001C17 21.5524 16.5523 22.0001 16 22.0001C15.4477 22.0001 15 21.5524 15 21.0001V15.0001C15 14.4478 15.4477 14.0001 16 14.0001Z" fill="white"/>
</svg>
