<svg width="32" height="32" viewBox="0 0 32 32" fill="none" xmlns="http://www.w3.org/2000/svg"><path d="m17.453 6.267 7.028 3.108c2.025.89 2.025 2.36 0 3.25l-7.028 3.108c-.798.356-2.108.356-2.906 0l-7.028-3.108c-2.025-.89-2.025-2.36 0-3.25l7.028-3.108c.798-.356 2.108-.356 2.906 0Z" stroke="#fff" stroke-width="2" stroke-linecap="round" stroke-linejoin="round"/><path d="M6 15c0 .943.7 2.033 1.556 2.415l7.544 3.391a2.187 2.187 0 0 0 1.8 0l7.544-3.391C25.3 17.033 26 15.943 26 15" stroke="#fff" stroke-width="2" stroke-linecap="round" stroke-linejoin="round"/><path d="M6 20a2.65 2.65 0 0 0 1.556 2.415l7.544 3.391a2.187 2.187 0 0 0 1.8 0l7.544-3.391A2.648 2.648 0 0 0 26 20" stroke="#fff" stroke-width="2" stroke-linecap="round" stroke-linejoin="round"/></svg>