<svg width="32" height="32" viewBox="0 0 32 32" fill="none" xmlns="http://www.w3.org/2000/svg">
<path d="M17.4532 6.2669L24.4812 9.37485C26.5063 10.2645 26.5063 11.7355 24.4812 12.6251L17.4532 15.7331C16.6552 16.089 15.3448 16.089 14.5468 15.7331L7.51876 12.6251C5.49375 11.7355 5.49375 10.2645 7.51876 9.37485L14.5468 6.2669C15.3448 5.91103 16.6552 5.91103 17.4532 6.2669Z" stroke="white" stroke-width="2" stroke-linecap="round" stroke-linejoin="round"/>
<path d="M6 15C6 15.9434 6.7 17.0328 7.55556 17.4146L15.1 20.8063C15.6778 21.0646 16.3333 21.0646 16.9 20.8063L24.4444 17.4146C25.3 17.0328 26 15.9434 26 15" stroke="white" stroke-width="2" stroke-linecap="round" stroke-linejoin="round"/>
<path d="M6 20C6 21.0445 6.61111 21.9878 7.55556 22.4146L15.1 25.8063C15.6778 26.0646 16.3333 26.0646 16.9 25.8063L24.4444 22.4146C25.3889 21.9878 26 21.0445 26 20" stroke="white" stroke-width="2" stroke-linecap="round" stroke-linejoin="round"/>
</svg>
