<svg width="24" height="24" viewBox="0 0 24 24" fill="none" xmlns="http://www.w3.org/2000/svg">
<path fill-rule="evenodd" clip-rule="evenodd" d="M7 12C7 11.4477 7.44772 11 8 11H16C16.5523 11 17 11.4477 17 12C17 12.5523 16.5523 13 16 13H8C7.44772 13 7 12.5523 7 12Z" fill="#004C45"/>
<path fill-rule="evenodd" clip-rule="evenodd" d="M8.25 8C5.85658 8 4 9.83659 4 12C4 14.1634 5.85658 16 8.25 16H10C10.5523 16 11 16.4477 11 17C11 17.5523 10.5523 18 10 18H8.25C4.84509 18 2 15.3588 2 12C2 8.64119 4.84509 6 8.25 6H10C10.5523 6 11 6.44772 11 7C11 7.55228 10.5523 8 10 8H8.25Z" fill="#004C45"/>
<path fill-rule="evenodd" clip-rule="evenodd" d="M13 7C13 6.44772 13.4477 6 14 6H15.75C19.1549 6 22 8.64119 22 12C22 15.3588 19.1549 18 15.75 18H14C13.4477 18 13 17.5523 13 17C13 16.4477 13.4477 16 14 16H15.75C18.1434 16 20 14.1634 20 12C20 9.83659 18.1434 8 15.75 8H14C13.4477 8 13 7.55228 13 7Z" fill="#004C45"/>
</svg>
