<svg width="24" height="24" viewBox="0 0 24 24" fill="none" xmlns="http://www.w3.org/2000/svg">
<path d="M20.9023 4.75516C19.5139 8.20874 16.0262 12.911 13.1141 15.2396L11.3307 16.6571C11.2484 16.7186 11.166 16.7757 11.082 16.8283C10.8705 16.9607 10.6168 16.7922 10.5858 16.5446V16.5446C10.4842 15.7909 10.1456 15.0821 9.53606 14.4859C8.91526 13.8672 8.17031 13.5185 7.40278 13.4172V13.4172C7.14706 13.4013 6.96039 13.1355 7.09847 12.9197C7.15926 12.8247 7.22684 12.7351 7.30119 12.6523L8.72338 10.8749C11.0598 7.9725 15.7892 4.47392 19.243 3.09024C19.7735 2.88775 20.2927 3.04525 20.6201 3.37148C20.9587 3.70896 21.1167 4.22644 20.9023 4.75516Z" stroke="white" stroke-width="2" stroke-linecap="round" stroke-linejoin="round"/>
<path d="M10.6308 17.0506C10.6308 18.0406 10.247 18.9855 9.53592 19.7055C8.98284 20.2567 8.23789 20.6392 7.3462 20.7517L5.12263 20.9879C3.9149 21.1229 2.87648 20.0992 3.01192 18.873L3.24895 16.6569C3.46341 14.6882 5.11134 13.4283 6.87214 13.3946C7.05273 13.3833 7.23333 13.3946 7.41392 13.4058C8.18145 13.507 8.92641 13.8558 9.5472 14.4745C10.1567 15.082 10.4953 15.7794 10.5969 16.5331C10.6195 16.7131 10.6308 16.8931 10.6308 17.0506Z" stroke="white" stroke-width="2" stroke-linecap="round" stroke-linejoin="round"/>
<path d="M14.0622 14.2269C14.0622 11.8758 12.1547 9.96338 9.78436 9.96338" stroke="white" stroke-width="2" stroke-linecap="round" stroke-linejoin="round"/>
</svg>
