<svg width="24" height="24" viewBox="0 0 24 24" fill="none" xmlns="http://www.w3.org/2000/svg">
<path fill-rule="evenodd" clip-rule="evenodd" d="M15.4037 16.7195C17.5529 16.4502 19.4242 15.0606 19.6594 13.7908C20.03 11.7906 19.9994 8.90969 19.9994 8.90969C19.9994 5.00494 17.5615 3.86039 17.5615 3.86039C16.3323 3.26795 14.2215 3.01881 12.0286 3H11.9747C9.78177 3.01881 7.67239 3.26795 6.44308 3.86039C6.44308 3.86039 4.00507 5.00494 4.00507 8.90969C4.00507 9.14641 4.00391 9.39539 4.00269 9.65459C3.99932 10.3744 3.99558 11.1731 4.01542 12.0067C4.10396 15.8253 4.68257 19.5888 8.04704 20.5233C9.59832 20.9541 10.9302 21.0443 12.0029 20.9825C13.9481 20.8693 15.0401 20.254 15.0401 20.254L14.976 18.7729C14.976 18.7729 13.5859 19.2329 12.0247 19.1768C10.4779 19.1212 8.84505 19.0018 8.59488 17.009C8.57177 16.8339 8.56022 16.6467 8.56022 16.4502C8.56022 16.4502 10.0786 16.8396 12.0029 16.9322C13.1795 16.9888 14.2829 16.8598 15.4037 16.7195ZM17.1237 13.9406V9.21263C17.1237 8.24633 16.8892 7.47845 16.4184 6.91035C15.9327 6.34225 15.2967 6.05103 14.5072 6.05103C13.5937 6.05103 12.902 6.41945 12.4447 7.15639L12 7.93852L11.5554 7.15639C11.098 6.41945 10.4063 6.05103 9.49288 6.05103C8.70338 6.05103 8.06738 6.34225 7.58173 6.91035C7.11079 7.47845 6.87633 8.24633 6.87633 9.21263V13.9406H8.66133V9.3516C8.66133 8.38424 9.0492 7.89323 9.82502 7.89323C10.6828 7.89323 11.1128 8.47569 11.1128 9.62741V12.1392H12.8873V9.62741C12.8873 8.47569 13.3172 7.89323 14.175 7.89323C14.9508 7.89323 15.3387 8.38424 15.3387 9.3516V13.9406H17.1237Z" fill="#004C45"/>
</svg>
