<svg width="24" height="24" viewBox="0 0 24 24" fill="none" xmlns="http://www.w3.org/2000/svg">
<path d="M4 11.5C6.75862 11.5 7.03448 11 8.41379 11C9.7931 11 10.3448 12 12 12C13.6552 12 13.6552 11 15.0345 11C16.4138 11 18.2931 11.5 20.5 11.5" stroke="#004C45" stroke-width="2" stroke-linecap="round" stroke-linejoin="round"/>
<path d="M12 7.152C12.6585 6.41025 13.5136 5.99983 14.4 6C15.3171 6.05124 16.1932 6.48959 16.8852 7.2435L21 11.25C19.32 13.35 16.2 18 12 18C7.8 18 4.68 13.35 3 11.25L7.1148 7.2435C7.80685 6.48959 8.68293 6.05124 9.6 6C10.4864 5.99983 11.3415 6.41025 12 7.152Z" stroke="#004C45" stroke-width="2" stroke-linecap="round" stroke-linejoin="round"/>
</svg>
