<svg width="32" height="32" viewBox="0 0 32 32" fill="none" xmlns="http://www.w3.org/2000/svg">
<path d="M14.228 14.5898L4.43924 24.3779C4.15799 24.6591 4 25.0405 4 25.4383C4 25.836 4.15799 26.2174 4.43924 26.4986L5.49988 27.559C5.78121 27.8402 6.16272 27.9982 6.56052 27.9982C6.95832 27.9982 7.33983 27.8402 7.62116 27.559L17.41 17.7725L14.228 14.5898Z" fill="#F4CB46"/>
<path d="M10.237 4.69072C10.4213 4.40226 10.6986 4.18546 11.0231 4.07633C11.3476 3.96721 11.6996 3.9723 12.0208 4.09078C14.9811 5.19724 17.7233 6.81631 20.1218 8.8738L20.9379 8.05788C21.2193 7.7767 21.6008 7.61874 21.9986 7.61874C22.3964 7.61874 22.7779 7.7767 23.0592 8.05788L23.9383 8.93679C24.2196 9.21805 24.3776 9.59948 24.3776 9.99718C24.3776 10.3949 24.2196 10.7763 23.9383 11.0576L23.1222 11.8735C25.1812 14.2707 26.8008 17.0125 27.9064 19.9727C28.025 20.2935 28.0305 20.6452 27.9218 20.9695C27.8131 21.2938 27.5967 21.5713 27.3087 21.7558C27.0206 21.9403 26.6781 22.0209 26.338 21.9841C25.9978 21.9473 25.6805 21.7954 25.4385 21.5535L10.4366 6.55503C10.1964 6.31317 10.0458 5.99676 10.0095 5.65789C9.97323 5.31901 10.0535 4.9779 10.237 4.69072Z" fill="#F4CB46"/>
</svg>
