<svg width="24" height="24" viewBox="0 0 24 24" fill="none" xmlns="http://www.w3.org/2000/svg">
<path d="M17 9C18.6569 9 20 7.65685 20 6C20 4.34315 18.6569 3 17 3C15.3431 3 14 4.34315 14 6C14 7.65685 15.3431 9 17 9Z" stroke="#004C45" stroke-width="2" stroke-linecap="round" stroke-linejoin="round"/>
<path d="M18 21C19.6569 21 21 19.6569 21 18C21 16.3431 19.6569 15 18 15C16.3431 15 15 16.3431 15 18C15 19.6569 16.3431 21 18 21Z" stroke="#004C45" stroke-width="2" stroke-linecap="round" stroke-linejoin="round"/>
<path d="M6 15C7.65685 15 9 13.6569 9 12C9 10.3431 7.65685 9 6 9C4.34315 9 3 10.3431 3 12C3 13.6569 4.34315 15 6 15Z" stroke="#004C45" stroke-width="2" stroke-linecap="round" stroke-linejoin="round"/>
<path d="M14 7L9 10.6215M14 17L9 13.3785" stroke="#004C45" stroke-width="2" stroke-linecap="round" stroke-linejoin="round"/>
</svg>
