<svg width="32" height="32" viewBox="0 0 32 32" fill="none" xmlns="http://www.w3.org/2000/svg">
<path d="M11.2442 11.2442L11.9604 9.27541L7.59766 7.59766L9.27541 11.9604L11.2442 11.2442Z" fill="#4D2A24"/>
<path d="M20.7553 11.2442L22.7241 11.9604L24.4018 7.59766L20.0391 9.27541L20.7553 11.2442Z" fill="#4D2A24"/>
<path d="M20.7553 20.7553L20.0391 22.7241L24.4018 24.4018L22.7241 20.0391L20.7553 20.7553Z" fill="#4D2A24"/>
<path d="M11.2442 20.7553L9.27541 20.0391L7.59766 24.4018L11.9604 22.7241L11.2442 20.7553Z" fill="#4D2A24"/>
<path d="M27.5065 15.295L19.585 12.415L16.7042 4.4935C16.597 4.19725 16.3158 4 16 4C15.6842 4 15.403 4.19725 15.2957 4.4935L12.415 12.415L4.4935 15.295C4.19725 15.403 4 15.685 4 16C4 16.315 4.19725 16.597 4.4935 16.705L12.415 19.585L15.2957 27.5065C15.403 27.8027 15.6842 28 16 28C16.3158 28 16.597 27.8027 16.7042 27.5065L19.585 19.585L27.5065 16.705C27.8027 16.597 28 16.315 28 16C28 15.685 27.8027 15.403 27.5065 15.295ZM16 17.5C15.1713 17.5 14.5 16.8287 14.5 16C14.5 15.1713 15.1713 14.5 16 14.5C16.8287 14.5 17.5 15.1713 17.5 16C17.5 16.8287 16.8287 17.5 16 17.5Z" fill="#4D2A24"/>
</svg>
