<svg width="22" height="20" viewBox="0 0 22 20" fill="none" xmlns="http://www.w3.org/2000/svg">
<path d="M1 5.61271V15.7165C1 17.6894 2.36986 18.4994 4.03399 17.5233L6.41857 16.1318C6.93607 15.8307 7.79858 15.7995 8.33638 16.0799L13.6636 18.8109C14.2014 19.0809 15.0639 19.0601 15.5814 18.759L19.9751 16.1837C20.5332 15.8514 21 15.0415 21 14.3769V4.27316C21 2.30018 19.6301 1.49022 17.966 2.46633L15.5814 3.8578C15.0639 4.15894 14.2014 4.19009 13.6636 3.90972L8.33638 1.18908C7.79858 0.919092 6.93607 0.93986 6.41857 1.241L2.02486 3.81626C1.45662 4.14855 1 4.95851 1 5.61271Z" stroke="#B7CDC4" stroke-width="2" stroke-linecap="round" stroke-linejoin="round"/>
<path d="M7.3623 1.6875V15.1868" stroke="#B7CDC4" stroke-width="2" stroke-linecap="round" stroke-linejoin="round"/>
<path d="M14.6377 4.4082V18.3021" stroke="#B7CDC4" stroke-width="2" stroke-linecap="round" stroke-linejoin="round"/>
</svg>
