<svg width="20" height="18" viewBox="0 0 20 18" fill="none" xmlns="http://www.w3.org/2000/svg">
<path d="M5.41857 0.147632C5.59933 0.0451683 5.79401 0.197172 5.79401 0.404953V14.7326C5.79401 14.9572 5.64177 15.1476 5.44452 15.255C5.43581 15.2598 5.42716 15.2646 5.41857 15.2694L3.03399 16.6825C1.36986 17.6737 0 16.8512 0 14.8476V4.58716C0 3.92281 0.456621 3.10029 1.02486 2.76284L5.41857 0.147632Z" fill="white"/>
<path d="M12.6219 2.8218C12.7909 2.90877 12.8971 3.08287 12.8971 3.27292V17.1788C12.8971 17.5561 12.4999 17.8014 12.1626 17.6325L7.85004 15.4732C7.67829 15.3872 7.56982 15.2116 7.56982 15.0196V1.05341C7.56982 0.673656 7.9717 0.428511 8.30935 0.60229L12.6219 2.8218Z" fill="white"/>
<path d="M20.0001 3.22677V13.4872C20.0001 14.1516 19.5435 14.9741 18.9752 15.3116L15.4398 17.4172C15.1016 17.6187 14.6729 17.375 14.6729 16.9813V3.04118C14.6729 2.86206 14.7673 2.69621 14.9214 2.60482L16.9661 1.39191C18.6302 0.40066 20.0001 1.22318 20.0001 3.22677Z" fill="white"/>
</svg>
