<svg width="24" height="24" viewBox="0 0 24 24" fill="none" xmlns="http://www.w3.org/2000/svg">
<path d="M12.876 12.798H15.4032L13.2644 10.627H10.644V13.2121L12.876 15.4962V12.798Z" fill="#004C45"/>
<path d="M20.982 18.4607L16.473 13.8838H13.9336V16.5783L18.2545 21.0001H20.982V18.4607Z" fill="#004C45"/>
<path d="M13.2348 17.2445C12.8519 17.335 12.4538 17.3841 12.0431 17.3841C9.10569 17.3841 6.60749 14.904 6.60749 11.6884C6.60749 8.47279 9.0782 6.04734 12.0431 6.04734C15.008 6.04734 17.3689 8.47267 17.3689 11.6884C17.3689 12.2114 17.3055 12.7146 17.1881 13.1913L19.9069 15.9823C20.6079 14.7213 21 13.2551 21 11.6669C21 6.71085 17.1479 3 11.9881 3C6.85196 3 3 6.68648 3 11.6669C3 16.6717 6.85208 20.4315 11.9881 20.4315C13.3141 20.4315 14.5532 20.1811 15.6632 19.7255L13.2348 17.2445Z" fill="#004C45"/>
</svg>
