<svg width="24" height="24" viewBox="0 0 24 24" fill="none" xmlns="http://www.w3.org/2000/svg">
<path d="M21 11.7647C21 10.4706 19.9875 9.52941 18.8625 9.52941C18.3 9.52941 17.85 9.76471 17.5125 10C16.1625 9.17647 14.475 8.58824 12.675 8.47059L13.575 5.41176L16.1625 6C16.275 6.94118 17.0625 7.76471 17.9625 7.76471C18.975 7.76471 19.7625 6.94118 19.7625 5.88235C19.7625 4.82353 18.975 4 17.9625 4C17.2875 4 16.6125 4.47059 16.3875 5.05882L13.35 4.23529C13.125 4.23529 12.9 4.35294 12.7875 4.58824L11.6625 8.47059C9.75 8.47059 7.95 9.05882 6.4875 9.88235C6.15 9.64706 5.7 9.41177 5.1375 9.41177C4.0125 9.41177 3 10.4706 3 11.7647C3 12.5882 3.3375 13.1765 3.9 13.6471C3.9 13.8824 3.9 14 3.9 14.2353C3.9 15.7647 4.8 17.2941 6.375 18.3529C7.8375 19.4118 9.8625 20 12 20C14.1375 20 16.1625 19.4118 17.625 18.3529C19.2 17.2941 20.1 15.8824 20.1 14.2353C20.1 14.1176 20.1 13.8824 20.1 13.7647C20.55 13.1765 21 12.4706 21 11.7647ZM8.0625 13.0588C8.0625 12.3529 8.625 11.7647 9.3 11.7647C9.975 11.7647 10.5375 12.3529 10.5375 13.0588C10.5375 13.7647 9.975 14.3529 9.3 14.3529C8.625 14.3529 8.0625 13.7647 8.0625 13.0588ZM14.925 16.8235C14.25 17.5294 13.35 17.7647 12 17.7647C10.65 17.7647 9.6375 17.4118 9.075 16.8235C8.85 16.5882 8.85 16.3529 9.075 16.1176C9.3 15.8824 9.525 15.8824 9.75 16.1176C10.2 16.5882 10.875 16.8235 12 16.8235C13.125 16.8235 13.8 16.5882 14.25 16.1176C14.475 15.8824 14.7 15.8824 14.925 16.1176C15.15 16.3529 15.15 16.7059 14.925 16.8235ZM14.7 14.3529C14.025 14.3529 13.4625 13.7647 13.4625 13.0588C13.4625 12.3529 14.025 11.7647 14.7 11.7647C15.375 11.7647 15.9375 12.3529 15.9375 13.0588C15.9375 13.7647 15.375 14.3529 14.7 14.3529Z" fill="#004C45"/>
</svg>
