<svg width="24" height="24" viewBox="0 0 24 24" fill="none" xmlns="http://www.w3.org/2000/svg">
<path d="M6.1468 15H5.00205H3.8573C3.06708 15 2.69973 15.9814 3.29346 16.5043L6.70636 19.5C7.3001 20.0186 6.93275 21 6.1468 21H5.00205H3.8573" stroke="#004C45" stroke-width="2" stroke-linecap="round" stroke-linejoin="round"/>
<path fill-rule="evenodd" clip-rule="evenodd" d="M16.4847 3.63791C17.0783 2.89388 18.1454 2.78478 18.8696 3.39467C18.9001 3.4199 19.6555 4.03539 20.0124 4.32622C20.1351 4.42614 20.2667 4.51414 20.3873 4.61654C21.0284 5.16098 21.1969 6.12211 20.747 6.87067C20.721 6.91439 13.4821 16.4106 13.4481 16.4552C13.447 16.4566 13.4474 16.4561 13.4464 16.4575C13.2044 16.7728 12.8378 16.9589 12.4461 16.9633L9.66087 17L9.03331 14.2144C8.9454 13.8227 9.03331 13.4113 9.27528 13.0948L16.4847 3.63791Z" stroke="#004C45" stroke-width="2" stroke-linecap="round" stroke-linejoin="round"/>
<path d="M16 6L19 8" stroke="#004C45" stroke-width="2" stroke-linecap="round" stroke-linejoin="round"/>
</svg>
