<svg width="24" height="24" viewBox="0 0 24 24" fill="none" xmlns="http://www.w3.org/2000/svg">
<g clip-path="url(#clip0_1174_8671)">
<path d="M3.70697 6.29285L6.29297 3.70685C6.4805 3.51938 6.73481 3.41406 6.99997 3.41406C7.26514 3.41406 7.51944 3.51938 7.70697 3.70685L13.293 9.29285C13.4804 9.48038 13.5858 9.73468 13.5858 9.99985C13.5858 10.265 13.4804 10.5193 13.293 10.7068L10.707 13.2928C10.5194 13.4803 10.2651 13.5856 9.99997 13.5856C9.73481 13.5856 9.4805 13.4803 9.29297 13.2928L3.70697 7.70685C3.5195 7.51932 3.41418 7.26501 3.41418 6.99985C3.41418 6.73468 3.5195 6.48038 3.70697 6.29285Z" stroke="#004C45" stroke-width="2" stroke-linecap="round" stroke-linejoin="round"/>
<path d="M6 10L3.70711 12.2929C3.31658 12.6834 3.31658 13.3166 3.70711 13.7071L5.29289 15.2929C5.68342 15.6834 6.31658 15.6834 6.70711 15.2929L9 13" stroke="#004C45" stroke-width="2" stroke-linecap="round" stroke-linejoin="round"/>
<path d="M10 6L12.2929 3.70711C12.6834 3.31658 13.3166 3.31658 13.7071 3.70711L15.2929 5.29289C15.6834 5.68342 15.6834 6.31658 15.2929 6.70711L13 9" stroke="#004C45" stroke-width="2" stroke-linecap="round" stroke-linejoin="round"/>
<path d="M12 12L13.5 13.5" stroke="#004C45" stroke-width="2" stroke-linecap="round" stroke-linejoin="round"/>
<path d="M14.5 17C15.163 17 15.7989 16.7366 16.2678 16.2678C16.7366 15.7989 17 15.163 17 14.5" stroke="#004C45" stroke-width="2" stroke-linecap="round" stroke-linejoin="round"/>
<path d="M15 21C16.5913 21 18.1174 20.3679 19.2426 19.2426C20.3679 18.1174 21 16.5913 21 15" stroke="#004C45" stroke-width="2" stroke-linecap="round" stroke-linejoin="round"/>
</g>
<defs>
<clipPath id="clip0_1174_8671">
<rect width="24" height="24" fill="white"/>
</clipPath>
</defs>
</svg>
