<svg width="24" height="24" viewBox="0 0 24 24" fill="none" xmlns="http://www.w3.org/2000/svg">
<path d="M6.63479 5.94202C7.35768 4.73719 8.65971 4 10.0648 4H13.9352C15.3403 4 16.6423 4.7372 17.3652 5.94202L19.7652 9.94202C20.5252 11.2087 20.5252 12.7913 19.7652 14.058L17.3652 18.058C16.6423 19.2628 15.3403 20 13.9352 20H10.0648C8.65971 20 7.35768 19.2628 6.63479 18.058L4.23479 14.058C3.47475 12.7913 3.47475 11.2087 4.23479 9.94202L6.63479 5.94202Z" stroke="white" stroke-width="2" stroke-linecap="round" stroke-linejoin="round"/>
<path d="M12 15.0769C13.6569 15.0769 15 13.6994 15 12C15 10.3007 13.6569 8.9231 12 8.9231C10.3431 8.9231 9 10.3007 9 12C9 13.6994 10.3431 15.0769 12 15.0769Z" stroke="white" stroke-width="2" stroke-linecap="round" stroke-linejoin="round"/>
</svg>
