<svg width="24" height="24" viewBox="0 0 24 24" fill="none" xmlns="http://www.w3.org/2000/svg">
<path d="M17.823 16.347L18.174 19.191C18.264 19.938 17.463 20.46 16.824 20.073L13.053 17.832C12.639 17.832 12.234 17.805 11.838 17.751C12.504 16.968 12.9 15.978 12.9 14.907C12.9 12.351 10.686 10.281 7.94996 10.281C6.90596 10.281 5.94297 10.578 5.14196 11.1C5.11496 10.875 5.10596 10.65 5.10596 10.416C5.10596 6.321 8.66096 3 13.053 3C17.445 3 21 6.321 21 10.416C21 12.846 19.749 14.997 17.823 16.347Z" stroke="#004C45" stroke-width="2" stroke-linecap="round" stroke-linejoin="round"/>
<path d="M12.9 14.9072C12.9 15.9782 12.504 16.9682 11.838 17.7513C10.947 18.8313 9.53401 19.5242 7.95001 19.5242L5.601 20.9192C5.205 21.1622 4.701 20.8292 4.755 20.3702L4.98 18.5973C3.774 17.7603 3 16.4192 3 14.9072C3 13.3232 3.84601 11.9282 5.14201 11.1002C5.94301 10.5782 6.90601 10.2812 7.95001 10.2812C10.686 10.2813 12.9 12.3512 12.9 14.9072Z" stroke="#004C45" stroke-width="2" stroke-linecap="round" stroke-linejoin="round"/>
</svg>
