<svg width="24" height="24" viewBox="0 0 24 24" fill="none" xmlns="http://www.w3.org/2000/svg">
<path d="M8 17C8 18.0609 8.42143 19.0783 9.17157 19.8284C9.92172 20.5786 10.9391 21 12 21" stroke="#004C45" stroke-width="2" stroke-linecap="round" stroke-linejoin="round"/>
<path d="M7 13C9.66667 10.2133 11 8.13 11 6.75C11 5.75544 10.5786 4.80161 9.82843 4.09835C9.07828 3.39509 8.06087 3 7 3C5.93913 3 4.92172 3.39509 4.17157 4.09835C3.42143 4.80161 3 5.75544 3 6.75C3 8.13167 4.33333 10.215 7 13Z" stroke="#004C45" stroke-width="2" stroke-linecap="round" stroke-linejoin="round"/>
<path d="M8 7C8 7.26522 7.89464 7.51957 7.70711 7.70711C7.51957 7.89464 7.26522 8 7 8C6.73478 8 6.48043 7.89464 6.29289 7.70711C6.10536 7.51957 6 7.26522 6 7C6 6.73478 6.10536 6.48043 6.29289 6.29289C6.48043 6.10536 6.73478 6 7 6C7.26522 6 7.51957 6.10536 7.70711 6.29289C7.89464 6.48043 8 6.73478 8 7Z" fill="#004C45"/>
<path d="M18 13C18 13.2652 17.8946 13.5196 17.7071 13.7071C17.5196 13.8946 17.2652 14 17 14C16.7348 14 16.4804 13.8946 16.2929 13.7071C16.1054 13.5196 16 13.2652 16 13C16 12.7348 16.1054 12.4804 16.2929 12.2929C16.4804 12.1054 16.7348 12 17 12C17.2652 12 17.5196 12.1054 17.7071 12.2929C17.8946 12.4804 18 12.7348 18 13Z" fill="#004C45"/>
<path d="M17 19C19.6667 16.2762 21 14.2127 21 12.8095C21 11.7992 20.5786 10.8302 19.8284 10.1158C19.0783 9.40136 18.0609 9 17 9C15.9391 9 14.9217 9.40136 14.1716 10.1158C13.4214 10.8302 13 11.7992 13 12.8095C13 14.2127 14.3333 16.2762 17 19Z" stroke="#004C45" stroke-width="2" stroke-linecap="round" stroke-linejoin="round"/>
</svg>
