<svg width="32" height="32" viewBox="0 0 32 32" fill="none" xmlns="http://www.w3.org/2000/svg">
<path d="M18.0869 11.6367H8.69557C8.55719 11.6367 8.42449 11.6942 8.32664 11.7965C8.2288 11.8988 8.17383 12.0375 8.17383 12.1822V27.4548C8.17383 27.5995 8.2288 27.7382 8.32664 27.8405C8.42449 27.9428 8.55719 28.0003 8.69557 28.0003H18.0869C18.2252 28.0003 18.358 27.9428 18.4558 27.8405C18.5536 27.7382 18.6086 27.5995 18.6086 27.4548V12.1822C18.6086 12.0375 18.5536 11.8988 18.4558 11.7965C18.358 11.6942 18.2252 11.6367 18.0869 11.6367Z" fill="#1C324A"/>
<path d="M27.6157 7.29191L16.1375 4.0192C16.0601 3.99714 15.9788 3.99404 15.9001 4.01014C15.8214 4.02624 15.7472 4.06111 15.6835 4.11203C15.6197 4.16295 15.5681 4.22856 15.5325 4.30375C15.497 4.37894 15.4785 4.46169 15.4785 4.54556V10.5455H18.0872C18.5023 10.5455 18.9005 10.7179 19.194 11.0248C19.4875 11.3317 19.6524 11.7479 19.6524 12.1819V28H27.4785C27.6169 28 27.7496 27.9425 27.8474 27.8402C27.9453 27.7379 28.0003 27.5992 28.0003 27.4545V7.81828C28.0003 7.69859 27.9626 7.58222 27.8932 7.4871C27.8237 7.39198 27.7262 7.32339 27.6157 7.29191Z" fill="#1C324A"/>
<path d="M4.52174 16C4.38337 16 4.25066 16.0575 4.15281 16.1598C4.05497 16.2621 4 16.4008 4 16.5455V27.4545C4 27.5992 4.05497 27.7379 4.15281 27.8402C4.25066 27.9425 4.38337 27.9999 4.52174 27.9999H7.13043V16H4.52174Z" fill="#1C324A"/>
<rect x="10.7822" y="17.0908" width="5.21739" height="2.18181" rx="1" fill="#CCBDF5"/>
<rect x="10.7822" y="21.4551" width="5.21739" height="2.18181" rx="1" fill="#CCBDF5"/>
</svg>
