<svg width="24" height="24" viewBox="0 0 24 24" fill="none" xmlns="http://www.w3.org/2000/svg">
<path d="M19.6479 13.0257L14.4952 12.6154C14.7528 9.53749 13.9369 8.75776 14.1087 6.82896C14.3234 4.32562 16.041 2.84824 17.8874 3.01239C19.7338 3.1355 21.1937 4.90015 20.979 7.36245C20.7643 9.82475 19.6479 13.0257 19.6479 13.0257Z" stroke="#004C45" stroke-width="2" stroke-linecap="round" stroke-linejoin="round"/>
<path d="M16.5132 19.3456C14.7527 19.2225 13.5504 17.5399 14.0227 15.9394L14.2804 15.0776L19.4331 15.488L19.5619 16.3909C19.7337 18.0324 18.2737 19.5098 16.5132 19.3456Z" stroke="#004C45" stroke-width="2" stroke-linecap="round" stroke-linejoin="round"/>
<path d="M4.49026 14.7082L9.60005 14.2157C9.29948 11.1379 10.0724 10.3581 9.85769 8.42934C9.60005 5.926 7.88248 4.48966 6.03608 4.65381C4.18968 4.81797 2.77268 6.62365 3.03032 9.04492C3.28796 11.4662 4.49026 14.7082 4.49026 14.7082Z" stroke="#004C45" stroke-width="2" stroke-linecap="round" stroke-linejoin="round"/>
<path d="M7.71065 20.9872C9.47117 20.8231 10.6305 19.1405 10.1153 17.54L9.85763 16.6782L4.74783 17.1296L4.66195 18.0325C4.4902 19.7151 5.95014 21.1514 7.71065 20.9872Z" stroke="#004C45" stroke-width="2" stroke-linecap="round" stroke-linejoin="round"/>
</svg>
