<svg width="32" height="32" viewBox="0 0 32 32" fill="none" xmlns="http://www.w3.org/2000/svg">
<path d="M28 15H26V21H28V15Z" fill="#FFBABC"/>
<path d="M17.241 19.7302C16.847 19.9102 16.43 20.0002 16 20.0002C15.57 20.0002 15.153 19.9102 14.76 19.7312L8 16.6582V22.0002C8 24.6262 12.024 26.0002 16 26.0002C19.976 26.0002 24 24.6262 24 22.0002V16.6592L17.241 19.7302Z" fill="#FFBABC"/>
<path d="M27.414 11.0902L16.414 6.09023C16.151 5.97123 15.85 5.97123 15.587 6.09023L4.587 11.0902C4.229 11.2522 4 11.6072 4 12.0002C4 12.3932 4.229 12.7482 4.586 12.9102L15.586 17.9102C15.718 17.9702 15.859 18.0002 16 18.0002C16.141 18.0002 16.282 17.9702 16.414 17.9102L27.414 12.9102C27.771 12.7482 28 12.3932 28 12.0002C28 11.6072 27.771 11.2522 27.414 11.0902Z" fill="#FFBABC"/>
</svg>
