<svg width="32" height="32" viewBox="0 0 32 32" fill="none" xmlns="http://www.w3.org/2000/svg">
<path d="M25.9422 8L26 14L20 12.0858" stroke="white" stroke-width="2" stroke-linecap="round" stroke-linejoin="round"/>
<path d="M26 13.8174C25.3309 11.3793 23.8781 9.26755 21.8946 7.84962C19.911 6.43168 17.5222 5.7973 15.1437 6.05687C12.7653 6.31643 10.5478 7.4535 8.87715 9.27023C7.69748 10.553 6.84317 12.1174 6.37659 13.8174" stroke="white" stroke-width="2" stroke-linecap="round" stroke-linejoin="round"/>
<path d="M6.05779 24L6 18L12 19.9142" stroke="white" stroke-width="2" stroke-linecap="round" stroke-linejoin="round"/>
<path d="M6 18.1826C6.66912 20.6207 8.12186 22.7324 10.1054 24.1504C12.089 25.5683 14.4778 26.2027 16.8563 25.9431C19.2347 25.6836 21.4522 24.5465 23.1228 22.7298C24.3025 21.4469 25.1568 19.8826 25.6234 18.1826" stroke="white" stroke-width="2" stroke-linecap="round" stroke-linejoin="round"/>
</svg>
