<svg width="24" height="24" viewBox="0 0 24 24" fill="none" xmlns="http://www.w3.org/2000/svg">
<path d="M10.1355 3.47725L4.38315 7.01492C2.53895 8.14914 2.53895 10.6876 4.38315 11.8218L10.1355 15.3595C11.1675 15.9986 12.8683 15.9986 13.9003 15.3595L19.624 11.8218C21.4587 10.6876 21.4587 8.15814 19.624 7.02392L13.9003 3.48625C12.8683 2.83812 11.1675 2.83812 10.1355 3.47725Z" stroke="#004C45" stroke-width="2" stroke-linecap="round" stroke-linejoin="round"/>
<path d="M5.9119 12.9736L5.90234 17.1954C5.90234 18.3387 6.83877 19.5629 7.98542 19.923L11.0336 20.8771C11.5591 21.0392 12.4287 21.0392 12.9638 20.8771L16.012 19.923C17.1586 19.5629 18.095 18.3387 18.095 17.1954V13.0186" stroke="#004C45" stroke-width="2" stroke-linecap="round" stroke-linejoin="round"/>
<path d="M20.981 14.7018V9.30078" stroke="#004C45" stroke-width="2" stroke-linecap="round" stroke-linejoin="round"/>
</svg>
