<svg width="32" height="32" viewBox="0 0 32 32" fill="none" xmlns="http://www.w3.org/2000/svg">
<path d="M13 28H12C9.879 27.9976 7.84555 27.154 6.34578 25.6542C4.846 24.1544 4.00238 22.121 4 20L4 19H6V20C6.00159 21.5908 6.63424 23.116 7.75911 24.2409C8.88399 25.3658 10.4092 25.9984 12 26H13V28Z" fill="#A6CBF4"/>
<path d="M13 24H12C10.9391 24 9.92172 23.5786 9.17157 22.8284C8.42143 22.0783 8 21.0609 8 20V19H10V20C10 20.5304 10.2107 21.0391 10.5858 21.4142C10.9609 21.7893 11.4696 22 12 22H13V24Z" fill="#A6CBF4"/>
<path d="M23 18H20.414L19.414 17L23.5 12.914L21.293 10.707L22.707 9.293L24.914 11.5L25.085 11.328C25.6703 10.7427 25.9992 9.94879 25.9992 9.121C25.9992 8.29321 25.6703 7.49933 25.085 6.914C24.4997 6.32867 23.7058 5.99983 22.878 5.99983C22.0502 5.99983 21.2563 6.32867 20.671 6.914L15 12.586L14 11.586V9L9 4L5 8L10 13H12.586L13.586 14L10.586 17L15 21.414L18 18.414L19 19.414V22L24 27L28 23L23 18Z" fill="#A6CBF4"/>
</svg>
