<svg width="24" height="24" viewBox="0 0 24 24" fill="none" xmlns="http://www.w3.org/2000/svg">
<path d="M22.5003 16.2V13.5C22.5003 12.15 21.9003 10.95 21.0003 10.2V6H22.5003C23.3283 6 24.0003 5.328 24.0003 4.5C24.0003 3.672 23.3283 3 22.5003 3H19.5003C18.6723 3 18.0003 3.672 18.0003 4.5V9H16.0503L13.3503 1.05C13.2003 0.45 12.6003 0 12.0003 0H3.00028C2.17228 0 1.50028 0.672 1.50028 1.5C1.50028 2.328 2.17228 3 3.00028 3H4.50028V10.95C0.717283 12.285 -1.74422 17.25 1.51828 21.4395C2.54578 22.7595 4.06378 23.6835 5.71978 23.9235C9.19378 24.429 12.0498 22.335 13.0503 19.4985H15.0003C15.0003 22.134 17.0838 24.129 19.7598 23.991C21.5853 23.8965 23.2443 22.6485 23.7843 20.9025C24.3708 19.008 23.7033 17.2005 22.5003 16.1985V16.2ZM7.50028 3H10.9503L12.9003 9H7.50028V3ZM6.75028 21C4.65028 21 3.00028 19.35 3.00028 17.25C3.00028 15.15 4.65028 13.5 6.75028 13.5C8.85028 13.5 10.5003 15.15 10.5003 17.25C10.5003 19.35 8.85028 21 6.75028 21ZM19.5003 21C18.6003 21 18.0003 20.4 18.0003 19.5C18.0003 18.6 18.6003 18 19.5003 18C20.4003 18 21.0003 18.6 21.0003 19.5C21.0003 20.4 20.4003 21 19.5003 21Z" fill="#4D2A24"/>
</svg>
