<svg width="32" height="32" viewBox="0 0 32 32" fill="none" xmlns="http://www.w3.org/2000/svg">
<path d="M24.1065 17.6084L19.8438 21.8095L23.802 27.67C23.8646 27.7624 23.9471 27.8399 24.0438 27.8969C24.1404 27.954 24.2487 27.9893 24.3608 28.0001H24.4354C24.6369 28.0001 24.8301 27.9213 24.9728 27.7811L26.6094 26.1681C26.7101 26.069 26.7806 25.9441 26.8129 25.8075C26.8452 25.6709 26.838 25.5282 26.7921 25.3954L24.1065 17.6084Z" fill="#1C324A"/>
<path d="M26.8366 5.14453C26.0919 4.41164 25.0825 4 24.0301 4C22.9776 4 21.9682 4.41164 21.2235 5.14453L17.2134 9.09656L6.67067 5.55113C6.5361 5.50573 6.39133 5.4984 6.25275 5.52995C6.11417 5.56151 5.98733 5.6307 5.88662 5.72968L4.25002 7.3426C4.17025 7.42107 4.10916 7.51601 4.07115 7.62058C4.03314 7.72514 4.01917 7.83672 4.03024 7.94726C4.04131 8.05779 4.07714 8.16453 4.13516 8.25975C4.19318 8.35498 4.27193 8.43632 4.36572 8.4979L12.4346 13.8003L8.85991 17.3277C8.79611 17.3905 8.74451 17.4642 8.70767 17.5453L7.7592 19.5828L5.0295 19.3832C4.83481 19.3681 4.6401 19.4122 4.47164 19.5096C4.30318 19.607 4.16908 19.7529 4.08743 19.9278C4.00578 20.1026 3.98051 20.2979 4.01503 20.4874C4.04955 20.6768 4.14219 20.8512 4.28047 20.9872L6.22155 22.8792L5.2807 24.8987C5.21334 25.0453 5.1785 25.2044 5.1785 25.3653C5.1785 25.5262 5.21334 25.6853 5.2807 25.8319C5.34213 25.9669 5.43016 26.0886 5.53966 26.1898C5.64916 26.291 5.77796 26.3698 5.91859 26.4216C6.04721 26.4686 6.18334 26.4924 6.32051 26.4921C6.48488 26.4917 6.64729 26.4569 6.79703 26.3901L8.84316 25.4658L10.7645 27.3788C10.9024 27.5151 11.0794 27.6064 11.2716 27.6404C11.4638 27.6744 11.662 27.6495 11.8394 27.5691C12.0168 27.4886 12.1649 27.3564 12.2637 27.1904C12.3625 27.0244 12.4073 26.8325 12.3919 26.6406L12.1879 23.9504L14.2554 23.0157C14.3366 22.9784 14.4108 22.9277 14.4746 22.8657L26.8366 10.6795C27.2055 10.3162 27.498 9.88491 27.6976 9.41018C27.8973 8.93546 28 8.42662 28 7.91275C28 7.39888 27.8973 6.89004 27.6976 6.41531C27.498 5.94059 27.2055 5.50928 26.8366 5.14603V5.14453Z" fill="#1C324A"/>
</svg>
