<svg width="120" height="120" viewBox="0 0 120 120" fill="none" xmlns="http://www.w3.org/2000/svg">
<path d="M60 120C93.1361 120 120 93.1893 120 60.0006C120 26.8108 93.0178 0 60 0C26.8639 0 0 26.8108 0 60.0006C0 93.1893 26.8639 120 60 120Z" fill="#B7CDC4"/>
<path d="M79.2143 67.0373L78.3943 66.5623L93.3533 62.6748L94.1733 63.1498L79.2143 67.0373Z" fill="white"/>
<path d="M79.2267 71.3L78.4067 70.825L78.3943 66.5625L79.2143 67.0375L79.2267 71.3Z" fill="white"/>
<path d="M60.4911 88.2131L59.6711 87.7256L59.6587 83.4756L60.4787 83.9506L60.4911 88.2131Z" fill="white"/>
<path d="M60.4787 83.95L59.6587 83.475L78.3947 66.5625L79.2147 67.0375L60.4787 83.95Z" fill="white"/>
<path d="M94.1735 63.15L93.3535 62.675L93.2168 15.25L94.0368 15.7375L94.1735 63.15Z" fill="white"/>
<path d="M41.7177 93.0877L41.7053 88.8252L60.4786 83.9502L60.491 88.2127L41.7177 93.0877Z" fill="white"/>
<path d="M41.705 88.8256L40.885 88.3506L59.6583 83.4756L60.4783 83.9506L41.705 88.8256Z" fill="white"/>
<path d="M41.7174 93.0871L40.8974 92.6121L40.885 88.3496L41.705 88.8246L41.7174 93.0871Z" fill="white"/>
<path d="M79.0778 19.6125L78.2578 19.1375L93.2168 15.25L94.0368 15.7375L79.0778 19.6125Z" fill="#73D19C"/>
<path d="M79.2145 67.0367L78.3945 66.5617L78.2578 19.1367L79.0778 19.6117L79.2145 67.0367Z" fill="#73D19C"/>
<path d="M79.0776 19.6123L94.0366 15.7373L94.1733 63.1498L79.2143 67.0373L79.0776 19.6123Z" fill="#73D19C"/>
<path d="M79.0652 15.3621L97.8385 10.4746L98 66.4246L79.2267 71.2996L79.2143 67.0371L94.1733 63.1496L94.0366 15.7371L79.1397 19.5996L79.0652 15.3621Z" fill="white"/>
<path d="M79.0651 15.3625L78.2451 14.875L97.0184 10L97.8384 10.475L79.0651 15.3625Z" fill="white"/>
<path d="M79.1397 19.6L78.3197 19.1125L78.2451 14.875L79.0651 15.3625L79.1397 19.6Z" fill="white"/>
<path d="M26.7709 102.3L25.9509 101.825L40.8851 88.3496L41.7051 88.8246L26.7709 102.3Z" fill="white"/>
<path d="M60.4784 83.9498L59.6584 83.4748L59.5217 36.0498L60.3417 36.5248L60.4784 83.9498Z" fill="#73D19C"/>
<path d="M60.4784 83.9498L59.6584 83.4748L59.5217 36.0498L60.3417 36.5248L60.4784 83.9498Z" fill="white"/>
<path d="M79.0778 19.6133L79.2145 67.0383L60.4785 83.9508L60.3418 36.5258L79.0778 19.6133Z" fill="#73D19C"/>
<path d="M60.3417 36.5242L59.5217 36.0492L78.2577 19.1367L79.0777 19.6117L60.3417 36.5242Z" fill="#73D19C"/>
<path d="M60.329 32.2625L59.509 31.7875L78.245 14.875L79.065 15.3625L60.329 32.2625Z" fill="white"/>
<path d="M60.3415 36.5246L59.5215 36.0496L59.509 31.7871L60.329 32.2621L60.3415 36.5246Z" fill="white"/>
<path d="M79.0653 15.3623L79.0778 19.6123L60.3418 36.5248L60.4784 83.9498L79.2144 67.0373L79.2269 71.2998L60.4909 88.2123L60.4784 83.9498L60.3418 36.5248L60.3293 32.2623L79.0653 15.3623Z" fill="white"/>
<path d="M41.5685 41.3998L40.7485 40.9248L59.5218 36.0498L60.3418 36.5248L41.5685 41.3998Z" fill="#73D19C"/>
<path d="M41.7052 88.8258L40.8852 88.3508L40.7485 40.9258L41.5685 41.4008L41.7052 88.8258Z" fill="#73D19C"/>
<path d="M41.5684 41.3994L60.3416 36.5244L60.4783 83.9494L41.705 88.8244L41.5684 41.3994Z" fill="#73D19C"/>
<path d="M41.5561 37.1496L40.7361 36.6621L59.5094 31.7871L60.3294 32.2621L41.5561 37.1496Z" fill="white"/>
<path d="M41.5685 41.3996L40.7485 40.9246L40.7361 36.6621L41.5561 37.1496L41.5685 41.3996Z" fill="white"/>
<path d="M41.5562 37.1492L60.3294 32.2617L60.3419 36.5242L41.5686 41.3992L41.5562 37.1492Z" fill="white"/>
<path d="M26.7711 102.299L25.9511 101.824L25.8145 54.3994L26.6469 54.8869L26.7711 102.299Z" fill="#73D19C"/>
<path d="M26.6469 54.8883L25.8145 54.4008L40.7486 40.9258L41.5686 41.4008L26.6469 54.8883Z" fill="#73D19C"/>
<path d="M41.5684 41.4004L41.7051 88.8254L26.771 102.3L26.6467 54.8879L41.5684 41.4004Z" fill="#73D19C"/>
<path d="M22.82 54.0496L22 53.5746L40.736 36.6621L41.556 37.1496L22.82 54.0496Z" fill="white"/>
<path d="M22.9815 110L22.1615 109.513L22 53.5752L22.82 54.0502L22.9815 110Z" fill="white"/>
<path d="M41.5561 37.1494L41.5685 41.3994L26.6468 54.8869L26.771 102.299L41.7052 88.8244L41.7176 93.0869L22.9816 109.999L22.8201 54.0494L41.5561 37.1494Z" fill="white"/>
<path d="M43.9043 67.8367C43.9043 67.8367 43.7055 68.0242 43.6807 68.0367C43.6807 68.0492 43.7055 68.0742 43.7179 68.0742C43.8546 67.9992 43.9292 67.9117 43.9043 67.8242V67.8367Z" fill="white"/>
<path d="M42.1027 68.4375C42.1027 68.4375 42.0777 68.4625 42.1027 68.4625C42.1027 68.4375 42.1027 68.425 42.1027 68.4375Z" fill="white"/>
<path d="M39.9907 70.775C40.0528 70.775 40.1274 70.7625 40.1895 70.75C40.1895 70.725 40.1895 70.7 40.1895 70.675C40.1895 70.6 40.1025 70.675 40.0031 70.775H39.9907Z" fill="white"/>
<path d="M47.1098 53.363C47.1098 53.363 47.2216 53.263 47.2465 53.213C47.2465 53.188 47.1098 53.1255 47.1222 53.088C46.1407 53.713 47.2465 51.9505 46.6128 51.913C46.6252 51.913 45.6437 53.388 45.6934 52.9505C45.6934 52.9755 45.594 52.538 45.7307 52.3255C45.6313 52.363 45.4573 52.388 45.4449 52.4005C45.7307 52.0505 44.9604 52.3005 44.7616 52.4755C44.1279 52.738 44.0534 54.538 43.5316 55.113C42.9973 55.7005 42.9849 56.3005 42.637 56.7505C42.1524 57.363 42.637 55.663 42.6618 55.7005C42.5625 55.588 41.407 55.8755 41.0964 56.063C41.1212 56.0255 41.2827 55.5255 41.2579 55.513C41.1958 55.4755 41.084 55.6505 41.0094 55.6255C40.8727 55.588 42.4134 53.4755 42.4755 53.5505C42.4009 53.463 42.1524 53.7255 42.0779 53.6255C42.8109 53.463 43.1091 52.788 43.7303 52.1755C43.5191 52.5255 43.3079 52.8755 43.1216 53.163C43.2458 53.063 44.1404 52.7005 44.3267 52.413C44.2025 52.6005 43.9913 51.988 43.867 52.0505C43.8297 52.0755 43.8422 52.2505 43.7676 52.313C43.8173 52.2005 43.8546 52.088 43.7552 52.138C43.7552 52.113 43.7552 52.063 43.7552 52.0505C43.9788 51.8755 43.9416 52.1755 44.1031 52.0755C44.1901 52.0255 44.041 51.938 44.041 51.9255C44.2025 51.638 45.1219 50.988 44.8982 50.5755C44.8858 50.5505 45.7058 50.2255 45.6064 49.9255C45.6934 50.0005 45.8052 50.138 45.9295 50.038C45.9295 50.163 45.6934 50.138 45.7058 50.313C45.7058 50.363 45.9916 50.188 46.0289 50.1505C46.0289 50.2755 45.8798 50.4255 45.8922 50.4505C45.9419 50.7005 46.1034 50.188 46.1034 50.1755C46.1283 50.238 46.1407 50.1755 46.2028 50.1755C46.1283 50.538 45.7183 50.863 45.7183 51.113C45.5319 51.3505 44.861 51.488 44.7864 51.9005C44.861 51.4755 46.2277 51.838 46.5134 51.6755C46.6998 51.563 46.2774 51.3255 46.2774 51.3005C46.4886 51.1755 46.6501 51.4505 46.8116 51.363C46.9607 51.2755 46.8116 51.0505 46.8861 50.963C46.8861 50.963 46.8861 50.963 46.8986 50.9505C46.9234 50.988 46.9234 51.038 46.9855 51.0005C46.8861 51.063 47.0104 50.7005 47.0477 50.663C46.998 50.6005 46.6998 50.513 46.7122 50.5005C46.7495 50.363 47.5571 50.2255 47.9422 49.538C47.8677 49.538 47.0849 49.563 47.0849 49.5505C47.0849 49.463 47.4701 49.238 47.4701 49.163C47.4701 49.138 47.321 49.2005 47.2962 49.2005C47.2962 49.188 47.2962 49.1755 47.2962 49.163C47.3334 49.1505 47.4204 49.138 47.4452 49.0755C47.5198 48.8755 47.2713 49.0755 47.2216 49.113C47.2713 48.913 46.8489 48.7505 46.6625 49.163C46.588 49.0005 46.4513 49.0505 46.3892 48.963C46.4389 48.613 45.8549 48.988 45.8549 49.113C45.8798 49.413 46.1531 48.9755 46.2525 49.013C46.2774 49.013 45.6561 49.538 45.6561 49.5255C45.6561 49.463 45.8673 49.1755 45.8549 49.063C45.8549 48.913 44.8361 49.8005 44.7864 50.0755C44.7864 50.1505 44.9355 50.0255 44.9355 50.088L44.8485 50.188C44.4385 50.3255 45.2958 49.313 45.2958 49.3255C45.2461 49.1505 44.0285 50.313 44.0285 50.663C44.0285 50.663 44.3391 50.513 44.3888 50.513C44.3516 50.538 43.9913 50.688 44.0037 50.788C44.041 50.988 44.9231 50.463 44.9231 50.463C44.9231 50.463 44.8485 50.563 44.8485 50.5755C44.6125 50.888 44.3143 51.2255 43.9788 51.5255C43.9664 51.5255 44.041 51.413 44.041 51.388C44.041 51.388 43.78 51.7755 43.6931 51.863C43.6931 51.838 43.6558 51.7755 43.6185 51.7755C43.6185 51.7755 44.0907 51.0755 43.7552 51.2755C43.7303 51.288 43.6931 51.3255 43.6558 51.3755C43.6558 51.188 43.3203 51.488 43.3079 51.4755C43.4322 51.3005 43.7552 50.863 43.4322 50.863C43.6185 50.7005 44.4137 50.0505 44.5131 49.788C44.4758 49.9005 42.8855 51.088 42.7115 51.6755C42.637 51.9005 42.9476 51.688 42.9725 51.6755C42.9725 51.713 42.9973 51.7005 43.0222 51.7005C42.9103 51.813 42.4134 52.363 42.4134 52.5505C42.4134 52.563 42.3264 52.638 42.3264 52.638C42.314 52.638 42.2891 52.6255 42.2767 52.638C42.2891 52.588 42.4755 52.313 42.4755 52.313C42.4755 52.2755 42.3015 52.413 42.2767 52.3755C42.2767 52.388 42.7861 51.888 42.8109 51.8255C42.8731 51.638 41.9537 52.2505 41.9909 52.4255C42.0158 52.5005 42.1649 52.313 42.2021 52.338C41.904 52.7505 41.5561 53.0755 41.0218 53.1755C41.3449 52.8755 40.4503 53.1755 40.3633 53.5005C40.3633 53.488 40.4876 53.688 40.3261 53.9005C40.3261 53.9005 40.2639 53.9255 40.2515 53.913C40.2764 53.838 40.2515 53.7005 40.1148 53.788C40.1273 53.763 40.2639 53.638 40.2639 53.6255C40.2639 53.6005 39.3694 54.338 39.2327 54.3005C39.2327 54.188 39.6303 54.0505 39.5682 53.938C39.3818 53.663 38.4376 54.438 38.1518 54.538C38.1642 54.513 38.1766 54.5005 38.2015 54.488C38.2139 54.488 38.3257 54.288 38.3257 54.2755C38.3009 54.1255 37.8412 54.788 37.8412 54.7005C37.8412 54.7005 37.9033 54.438 37.8909 54.413C37.8909 54.413 37.8163 54.413 37.8039 54.413C37.8288 54.4005 37.4933 54.913 37.456 54.813C37.456 54.813 37.5057 54.763 37.5181 54.7255C37.0957 55.213 30.8462 57.938 30.9456 59.0005C30.9456 59.088 31.1196 59.3505 31.2687 59.113C31.2687 59.363 30.8587 59.6255 30.7593 59.6505C30.7841 59.6255 30.8959 59.488 30.8835 59.4505C30.8835 59.4755 29.8274 60.213 29.8274 60.3505C29.8274 60.413 29.989 60.3255 30.0138 60.313C29.989 60.3255 29.7902 60.538 29.7902 60.613C29.8026 60.7505 30.4238 60.3255 30.6971 60.0755C30.1008 60.7005 28.5229 62.013 28.7838 62.5005C28.8708 62.638 29.2559 61.9755 29.3429 61.9255C29.2808 62.0005 28.7838 62.7255 28.7714 62.8005C28.7714 62.8505 29.4796 62.3255 29.5665 62.2255C29.3926 62.513 29.5541 62.363 29.6908 62.2255C29.5417 62.4255 28.8832 63.088 28.262 63.7005C28.262 63.7005 28.3614 63.738 28.3986 63.763C29.1068 63.113 29.8771 62.388 30.0511 62.2255C30.0138 62.2755 29.6162 62.6755 29.6908 62.738C29.6908 62.738 29.7902 62.7505 29.7653 62.763C29.8771 62.7005 30.5232 61.9505 30.5481 61.863C30.5605 61.7755 30.5232 61.863 30.5481 61.788C30.5481 61.763 30.1008 62.1755 30.0635 62.213C30.1877 62.0505 30.5729 61.738 30.3865 61.7005C30.7593 61.3505 31.0078 60.9505 31.3184 60.688C31.2065 60.863 30.7717 61.3505 30.7468 61.463C30.7841 61.3255 31.5917 60.863 31.9644 60.5005C31.9644 60.513 31.9644 60.538 31.9644 60.538C31.9893 60.5755 32.1632 60.313 32.2005 60.263C32.2005 60.4255 32.2378 60.3005 32.2626 60.4755C33.7163 59.2005 32.8093 61.0255 33.1448 61.3755C33.2566 61.5005 33.4429 60.863 33.4802 60.738C33.4429 60.9255 33.4057 62.2255 33.4802 62.2755C33.4057 62.288 33.182 62.2255 33.1448 62.4255C33.0578 62.938 33.5299 62.7505 33.2317 63.613C32.7596 64.713 31.7905 66.613 32.275 67.2255C32.536 67.5505 33.356 68.7755 32.859 69.063C33.1075 68.913 33.356 70.388 33.6417 70.2505C33.6417 70.2505 33.6666 70.2505 33.679 70.238C33.8405 70.138 33.0826 67.9755 33.2441 67.888C33.7784 67.5755 33.3063 68.463 33.4802 68.638C34.1263 69.2755 34.412 71.0005 35.6669 70.888C36.3751 70.8005 37.4436 70.8255 38.2015 70.388C38.5121 70.213 38.6488 71.763 39.1706 71.463C39.1706 71.463 39.3197 71.0755 39.4439 71.2255C39.4439 71.363 39.357 71.338 39.3445 71.388C39.3321 71.4255 39.3818 71.488 39.3942 71.488C39.4812 71.438 39.7545 71.0255 39.9409 70.813C39.5557 70.838 39.2327 70.6255 39.0588 70.2755C38.5991 69.2755 39.4439 69.4755 38.04 69.7255C38.2636 69.263 38.3133 68.7755 38.4748 68.313C38.9718 66.9255 37.6424 68.6005 37.7169 68.863C37.8412 69.238 36.5987 69.813 36.3627 69.138C36.6733 68.513 37.3566 64.788 38.3382 65.6005C38.3754 65.5755 38.4003 65.588 38.4127 65.6005C38.4748 65.413 38.8227 65.0005 38.86 64.9255C38.8973 64.538 39.7421 65.263 39.7794 65.288C39.7048 65.2255 40.0279 65.938 40.0651 65.9255C40.5373 65.6505 40.1521 63.5505 41.0591 62.788C41.5437 62.388 41.6182 61.9005 41.7797 61.6755C41.8543 61.5755 41.7797 60.7255 42.0903 60.5255C42.0655 60.6005 41.8543 61.288 41.904 61.3255C42.0034 61.4005 42.2021 60.538 42.2146 60.4755C42.2146 60.463 42.2518 60.5755 42.2643 60.613C42.2518 60.5505 42.5997 59.938 42.8358 59.638C42.8358 59.638 42.8234 59.638 42.8109 59.638C42.8482 59.613 42.8731 59.588 42.8979 59.5505C42.8731 59.5755 42.8606 59.6005 42.8358 59.6255C42.8855 59.588 43.0222 59.438 43.047 59.463C43.0346 59.4505 42.9973 59.463 42.9725 59.488C43.2209 59.2505 43.2955 59.1505 43.3079 59.2755C43.3079 59.2255 43.6434 59.0255 43.5813 58.888C43.544 58.813 43.5067 58.963 43.4446 59.038C43.4446 58.9755 43.3949 58.938 43.3949 58.9005C43.4322 58.6505 43.8794 58.188 44.041 57.913C44.041 57.988 43.9664 58.013 43.9664 58.0755C43.9664 58.0255 44.9107 57.0755 44.9976 56.963C44.9728 57.013 44.8485 57.1505 44.8485 57.1755C44.8485 57.2505 45.0349 57.063 45.0473 57.038C45.0473 57.2505 44.364 57.513 44.5131 57.8755C44.5752 58.013 46.2525 55.8755 45.8798 56.088C45.4698 56.3255 45.3704 56.5005 45.3579 56.5755C45.3579 56.5255 45.3331 56.4255 45.2089 56.238C45.2089 56.238 44.8237 56.463 44.7864 56.463C44.7864 56.463 44.7864 56.463 44.7864 56.4505C45.0473 56.363 45.1467 56.0755 45.3331 55.9005C45.4573 55.388 44.0161 57.0755 43.8422 57.288C44.7988 55.8755 45.6313 55.638 46.588 54.538C47.2589 54.1505 47.3583 53.288 47.0849 53.363H47.1098ZM43.6434 51.438C43.5688 51.5505 43.4943 51.6755 43.4819 51.7505C43.3825 51.6005 43.544 51.513 43.6434 51.438ZM42.8979 52.688C43.0719 52.563 43.134 52.588 43.2706 52.6005C43.1216 52.688 42.9476 52.6505 42.8855 52.7005L42.8979 52.688Z" fill="white"/>
<path d="M46.9239 53.5C46.9239 53.5 46.8739 53.5625 46.8489 53.6C46.8614 53.5625 46.8989 53.5375 46.9239 53.5Z" fill="white"/>
<path d="M46.6004 53.8379L46.5879 53.8504C46.5879 53.8504 46.5879 53.8504 46.6004 53.8379Z" fill="white"/>
<path d="M45.8055 51.5872C45.668 51.7872 45.8805 51.4247 45.8055 51.5872V51.5872Z" fill="white"/>
<path d="M42.1152 52.6377C42.0652 52.6877 42.2777 52.6377 42.1152 52.6377V52.6377Z" fill="white"/>
<path d="M38.4001 65.3623C38.3751 65.4123 38.5001 65.1748 38.4001 65.3623V65.3623Z" fill="white"/>
<path d="M31.2936 59.2871C31.2936 59.2871 31.2686 59.2871 31.2686 59.2996C31.2686 59.2996 31.2811 59.2996 31.2936 59.2871Z" fill="white"/>
<path d="M31.6172 60.4869C31.2297 60.7869 31.6922 60.4244 31.6172 60.4869V60.4869Z" fill="white"/>
<path d="M33.3188 60.7754V60.7879C33.3563 60.6879 33.4313 60.5629 33.3188 60.7754Z" fill="white"/>
<path d="M38.8235 70.6499C38.5235 71.0624 38.936 70.4874 38.8235 70.6499V70.6499Z" fill="white"/>
<path d="M38.5249 65.6627C38.5249 65.6627 38.4874 65.6127 38.4624 65.5752C38.4374 65.6502 38.4499 65.6877 38.5249 65.6627Z" fill="white"/>
<path d="M45.8057 52.25C45.7807 52.275 45.7557 52.2875 45.7432 52.325C45.7932 52.3125 45.8182 52.2875 45.8182 52.2625L45.8057 52.25Z" fill="white"/>
<path d="M37.5929 54.6631C37.5929 54.6631 37.5929 54.6881 37.5679 54.7131C37.5804 54.6881 37.5929 54.6756 37.5929 54.6631Z" fill="white"/>
<path d="M47.6811 69.5744C47.6811 69.5744 47.706 69.1369 47.5942 69.1994C47.2214 69.4119 46.886 69.2244 46.5878 70.0869C46.5878 69.8119 45.3081 67.0369 44.5875 68.6619C44.6993 68.0744 43.9538 68.2369 43.7302 68.0869C43.2953 68.3369 42.2641 68.4994 42.115 68.4744C42.0777 68.5994 41.7423 69.1494 41.7547 69.0744C41.7547 69.0119 41.705 68.9869 41.705 68.9369C41.705 68.8869 41.9908 68.6869 41.8914 68.5869C41.5559 68.2494 40.475 70.6619 40.5495 70.6119C40.4253 70.6869 40.3135 70.7244 40.1892 70.7494C40.2513 71.1244 40.4377 71.9119 40.4004 71.9369C39.7668 72.3119 39.6053 74.4744 39.7916 74.0994C39.6425 75.4994 40.1644 75.8369 40.7732 76.9369C41.1459 77.6119 43.0344 77.0119 42.3386 78.8619C42.0777 79.5994 42.3759 83.8494 42.8232 83.8494C42.7114 83.9369 42.7611 84.3744 42.8853 84.2994C43.0096 84.2244 42.9102 83.8619 42.9226 83.7369L42.9723 83.7119C43.0344 83.6744 43.1711 84.3994 43.0965 84.5119C43.0344 84.5494 43.0096 84.3619 42.935 84.4119C42.9971 84.3744 42.8977 85.3244 42.9599 85.2994C42.935 85.3119 43.2829 85.0369 43.2829 84.9244C43.3202 84.9619 43.4071 85.1119 43.3699 85.1994C42.8853 86.0244 43.8917 86.2994 43.8917 86.2994C43.8917 86.3244 43.8917 86.3494 43.8917 86.3744C43.8172 86.3994 43.755 86.3744 43.755 86.4994C43.755 86.6744 45.482 86.4369 45.5566 86.2869C45.3205 86.4244 45.7802 85.8119 45.7926 85.7744C44.6123 86.1119 44.3017 83.7994 44.6372 83.0619C44.7241 82.8119 44.7987 83.2119 44.9105 82.9619C44.985 82.7994 44.3266 82.9619 44.4384 82.6869C44.5253 82.6119 45.4323 81.4369 44.8856 81.8119C46.4884 80.3994 45.4075 81.2244 45.4199 80.1869C45.4199 81.0369 46.4014 79.3494 46.7493 78.5494C46.7493 78.5869 46.7493 78.5994 46.7742 78.5869C47.0102 78.4494 47.3581 75.9619 48.0042 75.3619C48.6005 74.7619 50.1784 69.3369 49.6566 69.1494C49.1348 68.9619 48.1408 69.5494 47.6439 69.6119L47.6811 69.5744ZM41.8417 69.4369C41.5932 69.9744 42.1647 68.7119 41.8417 69.4369V69.4369ZM43.2208 84.8119C43.0965 84.7494 43.2208 84.6119 43.2208 84.8119V84.8119Z" fill="white"/>
<path d="M54.6635 44.7881C54.4399 44.8631 54.2162 45.0256 54.005 45.1381C54.3281 44.9381 54.3529 44.9381 54.7878 44.6756C54.9741 44.5631 54.7008 44.4006 54.502 44.3006C54.589 44.3131 54.9741 44.2131 54.912 43.9631C54.8996 43.9131 54.7256 44.0131 54.6884 44.0006C54.912 43.7881 54.9866 43.8506 55.1853 43.5881C55.1853 43.6131 55.1108 43.6131 55.0984 43.6006C55.2226 43.5256 55.3593 43.4506 55.4711 43.2881C55.5332 43.2006 55.322 43.3006 55.2972 43.2881C55.6451 42.9131 55.322 43.0256 55.2972 42.9131C55.2599 42.7506 55.5332 42.7756 55.5954 42.8381C55.6326 42.7381 55.7444 42.5381 55.7444 42.5506C55.7196 42.3631 55.5332 42.6881 55.4587 42.6006C55.4711 42.6006 55.6575 42.5506 55.6575 42.4756C55.6575 42.1881 55.2723 42.7006 55.2475 42.7131C55.3593 42.0881 56.8129 41.4381 56.8626 40.9756C56.8502 41.0631 55.6823 41.5631 55.7196 41.5256C55.6947 41.5631 55.6948 41.7756 55.4835 41.8256C55.6948 41.4756 55.0984 42.0006 55.0735 41.9506C55.1481 41.9006 55.6575 41.5506 55.6575 41.5006C55.6575 41.2256 54.0299 42.4006 53.9926 42.4131C54.0299 42.3756 54.1914 42.2756 54.1914 42.2006C54.1665 41.9631 52.2905 43.5881 52.1911 43.4881C52.1911 43.4881 52.1041 43.4381 52.1041 43.5131C52.1041 43.7381 52.452 43.3506 52.4893 43.4756C52.3402 43.6131 51.8059 43.5756 51.6817 43.8506C51.632 43.9506 51.7811 43.8881 51.8183 43.8756C51.7686 43.9131 51.3214 44.1631 51.2717 44.2131C51.3462 44.0881 49.1098 45.6256 49.1347 45.7506C49.1471 45.8381 49.4204 45.5506 49.4453 45.6006C49.5198 45.8631 47.9668 46.5881 47.9543 46.8756C47.9543 46.9131 48.265 46.8131 48.3147 46.8131C48.2153 46.8756 48.004 46.9256 47.9792 47.0756C47.8922 47.6631 49.6316 46.0881 49.6441 46.4256C49.6441 46.6131 49.5819 46.4506 49.731 46.5756C49.5571 46.8881 49.6565 47.0131 49.7807 46.8756C49.7807 46.9256 49.3707 47.4631 49.6813 47.1131C49.6565 47.1506 49.4577 47.4631 49.5074 47.4881C49.6316 47.5506 49.8056 47.3131 49.8926 47.1756C49.8677 47.3506 49.9423 47.4131 50.1162 47.2756C50.1162 47.2756 50.1038 47.3631 50.0913 47.3631C49.8429 47.5631 49.818 47.3631 49.818 47.3631C49.7186 47.2881 49.408 47.9631 49.3832 48.0256C49.3335 48.1756 49.5944 48.0006 49.7683 47.8631C49.5074 48.2631 49.1098 48.8631 49.3459 48.7381C48.8613 49.7256 49.5819 49.8131 49.9174 50.0006C50.0292 50.0631 52.6508 46.7881 52.8868 46.2381C53.0981 46.3381 53.6075 45.9506 53.8932 45.6506C54.005 45.5506 54.6635 44.8131 54.6635 44.8131V44.7881ZM54.6014 44.0881C54.6014 44.0881 54.4399 44.2506 54.4647 44.3006C54.3902 44.2631 54.3405 44.2506 54.3405 44.2381C54.3529 44.2006 54.5641 44.0881 54.6014 44.0881ZM49.8801 47.6506C49.8801 47.6506 49.7435 47.6506 49.7186 47.6506C49.7559 47.6131 49.9174 47.5381 49.9671 47.5131C49.9795 47.5131 49.9423 47.5631 49.8801 47.6506Z" fill="white"/>
<path d="M55.5832 42.8869C55.5832 42.8869 55.6082 42.8619 55.5832 42.8369C55.5832 42.8744 55.5707 42.8869 55.5832 42.8869Z" fill="white"/>
<path d="M56.7012 47.2252C56.7012 47.2252 56.8378 46.9752 56.8751 46.9252C56.8751 46.9877 56.7633 47.1877 56.813 47.2377C56.8627 47.1877 56.9124 47.0377 56.9621 47.0127C56.9621 47.1002 56.7384 47.3377 56.7633 47.3752C56.813 47.4377 56.9124 47.1877 56.9248 47.1877C56.9248 47.2252 56.8503 47.4127 56.8751 47.4502C56.9 47.4877 57.0615 47.1752 57.0615 47.1752C57.0739 47.1752 56.9869 47.4377 56.9869 47.4752C56.9869 47.5377 57.2478 47.3127 57.2975 47.2627C57.2727 47.4127 56.9869 48.0627 56.9869 47.9252C56.9869 48.0502 57.0366 48.0002 57.136 47.9752C57.0988 48.0627 56.9 48.3502 56.9124 48.3752C56.9372 48.4502 57.2603 48.2752 57.3472 48.2002C57.3224 48.2377 56.726 48.8377 56.7633 48.9252C56.7633 48.9127 58.2169 47.9002 58.1921 47.7502C58.1921 47.7252 58.043 47.7877 58.043 47.7877C58.13 47.5627 58.453 46.9877 57.9809 47.4252C57.9188 47.5252 57.6703 46.2502 57.6827 46.3002C57.633 46.1502 57.3348 46.5752 57.2727 46.5127C57.2851 46.5252 57.6703 45.9002 57.5957 45.8877H57.5212C57.4839 45.9127 57.1236 46.4627 57.0242 46.6127C56.9372 46.7377 56.9 46.7877 56.7509 46.9002C56.7881 46.9752 56.7136 47.2127 56.726 47.2252H56.7012Z" fill="white"/>
<path d="M86.1968 32.9004C86.1968 32.9004 86.2343 32.9254 86.2343 32.9004C86.2343 32.9004 86.2218 32.9004 86.1968 32.9004Z" fill="white"/>
<path d="M69.7966 35.3368C69.7966 35.3368 69.7966 35.3618 69.8091 35.3743C69.8091 35.3118 69.8091 35.2743 69.7966 35.3368Z" fill="white"/>
<path d="M82.2832 42.2001C82.2832 42.3876 84.4202 39.4626 83.7741 38.9376C83.8238 38.9751 83.4138 39.1501 83.4138 39.1501C83.8859 38.7751 83.3144 38.4501 83.128 38.3626C82.3701 38.0126 83.2026 37.7876 83.2026 37.3376C83.2026 37.3251 83.1902 37.2126 83.1777 37.2001C83.128 37.1751 81.7986 37.9376 81.9726 37.4751C81.9726 37.4501 81.985 37.4126 81.9974 37.3876C82.2583 37.2376 82.4074 36.5501 82.6186 36.5376C82.7056 36.5126 82.6683 36.8626 82.6683 37.0251C82.8298 36.9251 83.6002 36.8626 83.6747 36.8626C84.209 36.5626 83.8859 37.2001 84.1717 37.5626C84.1717 37.5626 85.029 36.8501 84.7059 36.6251C84.4947 36.5001 83.6499 35.5376 84.1965 35.2251C85.439 34.5001 84.9793 32.9751 84.7929 32.0751C85.3272 31.8751 85.5508 33.3626 85.9484 33.1251C86.0105 33.0876 85.9484 32.9751 85.9484 32.9376C85.9856 32.9126 86.1223 32.8876 86.1844 32.8876C86.0602 32.8126 85.6626 32.4001 85.6253 32.3626C85.7123 32.2876 86.0229 32.2876 86.0229 32.2751C86.0353 32.2126 84.6065 31.4751 84.5444 31.5126C84.4202 31.6251 84.7059 31.6626 84.7308 31.6751C84.6065 31.9251 84.7805 31.6626 84.7681 32.0251C84.4326 31.8501 83.9729 31.7501 83.6747 32.1001C83.6747 31.9751 83.4511 31.8626 83.4262 31.9876C83.4262 32.0626 83.6126 32.0251 83.5753 32.1126C83.538 32.2001 83.3641 32.0376 83.3517 32.0376C83.3517 32.0376 83.3144 32.2251 83.0783 32.2751C83.5008 31.3501 84.3705 29.4626 85.1905 29.8001C85.1408 29.8376 85.0911 29.8876 85.0538 29.9501C85.0538 30.1376 85.7869 29.4876 85.7869 29.4751C85.7993 29.2126 85.7869 29.1251 85.762 29.1001C85.7993 29.0626 85.8738 28.9626 86.0105 28.6751C85.9111 28.8876 86.669 28.7376 86.6193 28.3501C86.6193 28.2751 86.4453 28.3126 86.3956 28.2626C86.582 28.2501 86.7063 28.2876 86.8305 28.4251C86.8057 28.4376 86.4578 29.3876 86.4081 29.4876C86.4329 29.4501 87.7748 30.9001 87.7499 30.8626C87.8493 30.9876 88.0108 30.1376 87.8742 29.9626C87.8866 29.9626 88.0729 29.8001 88.1102 29.8001C88.0605 29.7626 87.8493 29.7251 87.8742 29.6501C87.8742 29.6251 88.1723 29.0751 88.0108 29.0251C88.0108 29.0126 88.0108 28.9876 88.0108 28.9626C87.899 28.7751 86.9672 28.9751 87.1163 28.5376C87.2778 28.1251 87.9363 28.0501 88.2842 27.8376C87.9238 28.0501 89.2781 26.1501 89.1539 26.6751C89.2533 26.2751 88.3339 26.7376 88.222 26.6001C88.309 26.5751 88.5575 26.4501 88.5575 26.2751C88.5575 26.2126 88.2842 26.1876 88.309 26.1751C88.3214 26.1751 88.3836 26.2126 88.3836 26.1251C88.4705 26.3001 89.9863 25.7126 90.0112 25.6251C90.0112 25.5751 89.7627 25.5376 89.7378 25.5251C89.7751 25.4751 89.9366 25.4376 89.9118 25.3501C89.7999 25.3501 88.9054 25.3251 88.7936 25.6251C88.8433 25.6501 88.9054 25.6751 88.9675 25.6751C87.7375 26.0376 86.6566 26.2376 85.3893 26.8501C85.4265 26.8626 85.8117 26.9501 85.8117 26.9251C85.6253 27.3626 81.5129 28.6626 80.7177 29.0626C80.7177 29.0126 80.8419 28.9751 80.8544 28.9501V28.9251L79.9722 29.3751C79.9722 29.4001 80.0592 29.3876 80.0716 29.3876C80.0344 29.4126 79.848 29.5126 79.8356 29.5626C79.8356 29.4751 80.1586 29.5876 80.1586 29.6001C79.8231 29.8251 79.4504 29.8876 78.9534 30.1751C78.9037 30.2126 78.9907 30.4001 79.0031 30.4501C78.8292 30.4876 77.1892 30.3626 77.0649 30.8751C77.0401 30.9501 77.2389 30.9251 77.2637 30.9626C76.6673 30.9626 75.574 32.0376 75.2013 31.9001C75.2385 31.8626 75.4373 31.7501 75.4373 31.6626C75.4373 31.4626 74.9279 32.0751 74.9403 32.0876C74.9403 32.1626 75.077 32.0501 75.1143 32.0126C75.077 32.1626 74.5179 32.3876 74.5179 32.5626C74.5179 32.3251 75.3131 31.7376 75.2758 31.5501C75.1764 30.9626 73.0021 32.5501 73.0891 32.5251C72.704 32.6626 72.5549 32.9876 72.1573 33.1251C72.0579 33.2126 71.0639 34.0376 71.0639 34.1751C71.0639 34.2126 71.3994 34.0376 71.4615 34.0376C71.2876 34.2876 70.5918 34.5001 70.567 34.7626C70.567 34.9126 71.1758 34.7001 71.1758 34.7501C71.1261 34.8376 70.5048 35.0251 70.4054 35.0251C70.4303 34.9876 70.5545 34.9251 70.567 34.9001C70.6539 34.6251 70.1445 35.3001 70.1942 35.2501C70.2936 35.2501 70.3682 35.1376 70.4676 35.1376C70.4179 35.1876 70.157 35.2626 70.1445 35.3626C70.1445 35.3626 70.1445 35.3751 70.1445 35.3876C70.0079 35.3876 69.8712 35.3876 69.8339 35.3501C69.8215 35.4876 69.7718 35.7501 69.7469 35.7251C69.7469 35.7251 69.7469 35.7376 69.7594 35.7501C69.3866 35.4001 68.8151 35.3501 68.753 36.3626C68.753 36.3626 68.9891 36.4376 69.0015 36.4376C68.84 36.9001 69.4612 36.2001 69.3618 36.6751C69.1754 36.7376 67.523 37.1376 67.523 37.2751C67.523 37.2876 67.9827 37.2501 68.0572 37.2376C68.0697 37.6001 67.759 37.3751 67.6845 37.3626C67.6224 37.4376 67.2621 37.8501 66.9763 38.0626C66.9142 37.9251 67.0508 37.9626 67.0508 37.8501C67.0508 37.7376 65.6842 39.3876 65.5972 39.0751C65.6593 38.9251 65.796 38.9626 65.8457 38.8376C65.6966 38.8376 65.3611 38.9751 65.2742 38.9501C65.2245 39.0376 65.5475 39.3126 65.5475 39.2626C65.5351 39.3251 65.4854 39.4126 65.5102 39.4626C64.9884 39.3251 64.9884 40.0376 64.9511 40.1376C64.8269 40.4376 64.4044 40.1626 64.2802 40.4751C64.2429 40.5751 64.566 40.5001 64.5908 40.5251C64.2181 40.9626 63.8081 40.4626 63.5969 40.3876C63.9075 40.0876 65.7339 39.4876 64.6157 39.4626C63.982 39.4001 63.485 39.7751 62.9508 40.0126C62.9756 39.9876 63.1869 39.7876 63.1869 39.7501C63.1496 39.5376 62.7147 40.0001 62.6899 40.0001L62.7769 39.8126C62.6526 39.7251 62.5408 40.0376 62.4662 40.1251C62.4662 40.1251 62.4538 40.1126 62.4414 40.1001C62.4414 40.1501 62.4041 40.2376 62.2302 40.3501C62.2426 40.3001 62.3917 40.0751 62.3544 40.0376C62.3544 40.0376 61.7581 40.5251 61.6711 40.5501C61.6959 40.5501 61.7829 40.5501 61.7953 40.5751C61.5717 40.6751 61.5593 40.7126 61.3977 40.9376C61.4226 40.5251 61.1617 41.1001 61.112 41.2626C60.9877 41.0626 60.9753 41.3126 60.9132 41.4501C60.8262 41.2001 60.5032 41.7501 60.2795 41.9876C60.2795 42.0126 60.2795 42.0376 60.2795 42.0626C60.3168 42.0876 60.5777 41.7626 60.6399 41.7126C60.6647 42.5251 59.298 43.6376 59.2856 43.9251C59.2856 43.8001 58.5153 45.0626 58.975 44.9751C58.8135 45.4126 59.7329 45.1626 59.8944 44.4626C60.1553 45.2501 60.0435 45.1126 59.9938 45.6751C59.9938 45.7126 60.0808 45.7001 60.1056 45.6876C60.7765 45.3001 61.0002 44.2251 61.4226 43.5001C61.4474 43.4501 60.7889 43.2751 61.2611 42.7501C61.4971 42.4751 61.8823 42.0626 62.1432 41.8001C61.8699 42.1626 61.522 42.8001 61.7953 42.9626C62.0687 43.1251 62.8266 42.5251 63.3111 42.3126C63.0626 42.5251 61.9444 43.2126 61.9071 43.5876C61.9071 43.5626 61.9693 43.6876 61.9693 43.7001C62.019 43.6626 62.4662 43.1876 62.4041 43.3251C62.3917 43.4501 62.429 43.5251 62.4041 43.6376C61.932 44.0751 60.8262 45.9001 59.9814 45.9001C59.7204 46.2751 59.9814 44.9501 59.9317 44.9126C59.5092 44.6501 59.6086 46.1001 59.6086 46.1126C59.6086 46.1626 57.6083 48.4501 57.5089 48.5001C57.9189 48.2626 56.9622 49.3501 56.9001 49.2876C56.9747 49.5751 58.4407 49.7626 56.7262 50.7626C55.6949 51.3626 55.8689 52.1501 55.844 53.2251C56.1919 53.1126 58.0059 52.2751 57.7077 51.4501C57.5338 50.9501 59.8198 48.2001 59.8198 49.1876C59.8198 49.2376 60.8014 49.1626 60.8014 49.3376C60.8262 49.9126 60.3168 50.2126 60.3168 50.3126C60.3168 51.4501 61.522 49.1251 61.3108 49.0251C61.3853 49.0251 61.4847 49.0876 61.5344 49.0626C61.6835 48.7876 60.2671 48.7876 60.2671 48.3751C60.2671 47.8501 60.8138 48.1001 60.8138 48.1626C60.8138 48.2751 62.5905 49.3376 62.752 48.9876C62.752 48.9876 62.8266 48.8126 62.8514 48.7626C62.7769 48.7501 62.2799 48.4001 62.3793 48.3501C62.4662 48.3001 63.1869 47.6126 63.1993 47.8876C63.1993 47.9376 63.0253 48.2876 63.0502 48.3501C63.1372 48.5376 63.2614 48.1126 63.249 48.1126C63.249 48.2126 63.1247 48.5376 63.075 48.6001C63.1247 48.5751 63.3235 48.5376 63.3484 48.5126C63.3484 48.5501 63.162 48.7376 63.4105 48.7001C63.3732 48.7126 63.2738 48.9751 63.2738 49.0001C63.3981 48.8251 63.3981 48.8126 63.5099 48.6876C63.5099 48.7376 63.4105 48.7626 63.3857 48.8626C63.4105 48.8626 63.5099 48.9251 63.5347 48.9626C63.5844 48.8751 63.6093 48.7126 63.6341 48.6751C63.6341 48.9001 65.1623 47.9876 65.1623 47.7626C65.4357 49.2251 64.392 50.0126 63.2117 50.4501C63.0378 50.5126 61.0747 51.4376 61.6338 51.6751C61.2611 51.5126 60.4038 51.5626 59.9938 51.6876C59.6211 51.7876 60.1677 50.8626 60.0186 50.6751C59.6086 50.1626 56.2292 53.7376 55.8565 54.2251C55.4216 54.8001 54.3283 57.3876 54.0673 58.2126C53.9804 58.5751 53.6201 61.1376 53.8313 61.3001C54.204 61.5501 54.5643 62.1251 55.0364 62.4501C55.8813 63.2501 57.161 61.5001 58.1922 60.7501C58.4532 60.5626 60.2174 60.3501 59.6335 61.3376C59.298 61.9626 60.2671 63.5001 60.4411 63.9626C60.8511 64.9501 59.7577 66.5001 60.5405 67.4126C61.0871 68.0126 61.0871 69.9126 61.522 70.4626C61.8574 70.8751 62.6278 69.9626 63.2241 69.6126C64.566 68.8376 64.9635 65.4251 65.2866 64.6501C65.1748 63.9126 66.529 62.4501 66.529 61.0876C66.529 60.8501 65.8333 58.8876 66.6408 58.4251C67.3987 57.9876 68.9518 53.7501 68.8897 53.1751C68.8772 53.0126 67.3242 53.9501 67.0012 54.1376C67.4236 53.4876 64.4169 51.4001 64.5908 50.1626C64.6529 50.2626 64.8393 50.6376 64.9884 50.5501C65.0505 50.5126 65.0754 50.1501 65.0878 50.0626C65.1251 50.6376 67.5975 53.2501 67.4733 53.4876C68.2809 51.9626 70.7409 50.5126 70.6788 48.8126C70.6788 48.9126 69.5357 48.3751 69.7718 48.2376C69.486 48.4001 69.3245 49.1376 68.9021 49.3751C68.6287 49.5376 68.9518 48.6751 68.6536 48.8501C68.5791 48.8876 68.6039 49.1376 68.5915 49.1626C68.6163 49.1501 67.4857 48.2751 68.2063 47.9876C68.343 47.9251 69.1754 48.8626 69.5357 48.1876C69.8215 47.6251 72.3685 47.7876 72.9152 47.3376C72.853 47.5251 72.617 47.6376 72.5921 47.6876C72.5549 47.8376 73.114 48.0876 73.3003 47.6251C73.4246 48.6876 75.0397 51.3251 75.2013 50.0251C75.2261 49.7626 75.0894 48.2001 75.4746 47.8126C75.7728 47.5126 76.7046 45.8626 76.7916 45.3251C76.7916 45.5751 77.1767 45.2126 77.2016 45.0251C77.2637 45.1876 77.4873 44.8876 77.4873 44.7876C77.6489 45.4251 78.4937 46.3376 78.8043 45.7876C79.3013 44.8751 79.4504 48.0251 79.351 48.0876C79.3883 48.0626 79.4007 47.9001 79.4131 47.8751C79.438 47.9001 79.525 48.1126 79.5374 48.1126C79.5374 48.1126 80.5438 49.7751 80.8544 49.2126C80.991 48.9751 78.8292 46.6501 79.7734 46.1001C80.0344 45.9501 80.9165 46.8876 80.8916 46.9376C82.5689 44.8501 79.9598 43.6501 81.5501 42.7251C81.5626 42.7376 81.5501 43.0501 81.5874 43.1126C81.488 42.9251 82.2086 42.3376 82.2707 42.1501L82.2832 42.2001ZM70.4551 35.3251C70.4551 35.3251 70.4054 35.3501 70.3682 35.3626C70.48 35.3001 70.567 35.2376 70.4551 35.3251ZM69.7469 36.9126C70.1694 36.6626 70.0948 36.2001 69.8339 35.8876C69.9954 36.0001 70.2563 35.9251 70.5173 35.8126C70.5173 35.8126 70.2563 36.0001 70.2315 36.0626C70.2066 36.1501 70.4551 36.9501 69.7345 36.9126H69.7469ZM70.5545 35.8001C70.7409 35.7251 70.89 35.9501 70.9024 35.9501C70.803 36.0126 70.6912 35.8001 70.5545 35.8001ZM80.8916 29.1001C80.991 28.9876 81.1277 28.8501 80.8916 29.1001V29.1001Z" fill="white"/>
<path d="M82.7059 37.1129C82.7059 37.1129 82.6934 37.0754 82.6934 37.0254C82.6559 37.0504 82.6434 37.0754 82.7059 37.1129Z" fill="white"/>
<path d="M63.075 48.6746C63.075 48.6746 63.075 48.6746 63.0875 48.6621C63.075 48.6621 63.0625 48.6621 63.075 48.6746Z" fill="white"/>
<path d="M63.5601 49.0244C63.5601 49.0244 63.5226 49.0869 63.4976 49.0994C63.5601 49.0869 63.5726 49.0494 63.5601 49.0244Z" fill="white"/>
<path d="M90.2098 46.0624C90.2098 46.0624 90.6944 45.7624 90.2968 45.7749C90.1229 45.7749 87.9734 45.0874 87.8616 46.0999C87.8243 46.4499 87.054 45.9249 86.6689 46.3374C86.6564 46.3374 86.644 46.4124 86.6316 46.4499C86.7807 46.4624 86.9919 46.6874 87.2155 46.5374C87.1037 46.6249 86.9422 46.7249 86.9174 46.7999C86.9546 46.7249 87.1161 47.0874 87.141 47.0749C87.2404 47.0249 87.2777 46.7874 87.3149 46.6999C87.3149 47.1999 88.0728 46.9249 88.0728 47.7499C88.0728 48.0624 89.7625 46.7499 89.3153 47.0124C89.9489 46.1499 90.2098 47.2499 90.8807 46.8624C90.9056 46.8624 91.005 46.6499 91.005 46.6249C91.005 46.4249 90.011 46.5499 90.2098 46.0749V46.0624Z" fill="white"/>
<path d="M86.6441 46.4375C86.6441 46.4375 86.6441 46.4375 86.6316 46.4375C86.6316 46.475 86.6441 46.4625 86.6441 46.4375Z" fill="white"/>
<path d="M90.2348 50.6123C90.1851 50.3498 90.1851 50.1998 90.1851 50.0248C90.1851 49.7748 89.2782 48.9748 89.3154 48.8498C89.2782 48.7748 89.216 47.6998 89.1663 47.7373C88.9675 47.8498 88.57 50.4748 88.3339 50.3373C88.0606 50.1873 87.6754 50.2623 87.4393 50.0248C87.3524 49.9248 87.9612 49.0623 87.8618 49.0123L87.7748 48.9123C87.6506 48.9873 87.7375 49.1373 87.6506 49.1873C87.6381 49.1873 87.6009 49.0373 87.6257 49.0123C87.2778 49.2123 87.0293 49.1498 86.756 49.2998C86.6566 49.3498 86.9299 49.4248 86.8927 49.5123C86.8927 49.5123 85.6875 50.9123 86.1845 50.6623C86.0975 50.9248 85.936 50.7248 85.849 50.9998C85.7869 50.0873 85.0042 51.6623 84.942 51.8998C84.8799 51.9373 84.8302 51.8748 84.7929 51.8998C84.6687 51.9748 84.8178 52.1748 84.8178 52.1998C84.6811 52.2248 84.7805 52.1998 84.7184 52.3873C84.6811 52.3248 84.6935 52.1373 84.6563 52.0998C83.9978 53.3748 83.4138 53.9998 82.4696 55.1248C82.4696 55.0998 82.5068 54.8873 82.4696 54.9123C82.395 55.3498 82.4199 55.8748 82.3453 56.2248C82.3453 56.2623 82.2956 56.2998 82.2832 56.3248C82.2832 56.2998 82.2584 56.1873 82.2211 56.1998C82.072 56.2498 82.2708 56.4123 82.1714 56.4748C82.159 56.4373 82.1217 56.1748 82.0596 56.2123C82.1714 56.1498 82.2459 57.9248 82.1962 58.1373C81.9478 59.3248 82.0099 58.9123 82.9293 58.2373C83.7493 57.6248 84.4451 56.6748 85.3148 56.1623C85.5881 55.9998 85.762 56.0123 85.8863 56.0748C86.0354 56.8998 86.172 57.6873 86.9548 57.8123C87.166 57.8498 87.5139 57.6123 87.6878 57.2748C87.7748 57.1123 87.8493 56.9498 87.9239 56.7873C88.5203 56.4373 90.9182 51.8873 90.8436 50.9373C90.8685 51.2123 90.2348 50.1748 90.2348 50.5748V50.6123Z" fill="white"/>
<circle cx="85" cy="83" r="19" fill="#004C45"/>
<path d="M91.6667 75H78.3333C77.9797 75 77.6406 75.1405 77.3905 75.3905C77.1405 75.6406 77 75.9797 77 76.3333C77 76.687 77.1405 77.0261 77.3905 77.2761C77.6406 77.5262 77.9797 77.6667 78.3333 77.6667H91.6667C92.0203 77.6667 92.3594 77.5262 92.6095 77.2761C92.8595 77.0261 93 76.687 93 76.3333C93 75.9797 92.8595 75.6406 92.6095 75.3905C92.3594 75.1405 92.0203 75 91.6667 75Z" fill="white"/>
<path d="M84.3332 91.0002H85.6666C85.8434 91.0002 86.0129 90.93 86.138 90.805C86.263 90.6799 86.3332 90.5104 86.3332 90.3335V87.0002H89.6666C89.7945 87.0001 89.9198 86.9631 90.0273 86.8937C90.1349 86.8243 90.2202 86.7255 90.273 86.6089C90.3259 86.4924 90.3441 86.3631 90.3254 86.2364C90.3068 86.1098 90.2521 85.9913 90.1679 85.8949L85.5012 80.5615C85.4369 80.4931 85.3592 80.4385 85.273 80.4013C85.1868 80.364 85.0938 80.3447 84.9999 80.3447C84.906 80.3447 84.813 80.364 84.7268 80.4013C84.6406 80.4385 84.5629 80.4931 84.4986 80.5615L79.8319 85.8949C79.7477 85.9913 79.693 86.1098 79.6743 86.2364C79.6557 86.3631 79.6739 86.4924 79.7268 86.6089C79.7796 86.7255 79.8649 86.8243 79.9725 86.8937C80.08 86.9631 80.2052 87.0001 80.3332 87.0002H83.6666V90.3335C83.6666 90.5104 83.7368 90.6799 83.8618 90.805C83.9868 90.93 84.1564 91.0002 84.3332 91.0002Z" fill="white"/>
</svg>
