<svg width="24" height="24" viewBox="0 0 24 24" fill="none" xmlns="http://www.w3.org/2000/svg">
<path opacity="0.6" d="M12 6C13.1046 6 14 5.10457 14 4C14 2.89543 13.1046 2 12 2C10.8954 2 10 2.89543 10 4C10 5.10457 10.8954 6 12 6Z" fill="#1C324A"/>
<path opacity="0.8" d="M17.6569 8.34277C18.7614 8.34277 19.6569 7.44734 19.6569 6.34277C19.6569 5.2382 18.7614 4.34277 17.6569 4.34277C16.5523 4.34277 15.6569 5.2382 15.6569 6.34277C15.6569 7.44734 16.5523 8.34277 17.6569 8.34277Z" fill="#1C324A"/>
<path d="M20 14C21.1046 14 22 13.1046 22 12C22 10.8954 21.1046 10 20 10C18.8954 10 18 10.8954 18 12C18 13.1046 18.8954 14 20 14Z" fill="#1C324A"/>
<path opacity="0.4" d="M17.6569 19.6572C18.7614 19.6572 19.6569 18.7618 19.6569 17.6572C19.6569 16.5527 18.7614 15.6572 17.6569 15.6572C16.5523 15.6572 15.6569 16.5527 15.6569 17.6572C15.6569 18.7618 16.5523 19.6572 17.6569 19.6572Z" fill="#1C324A"/>
<path opacity="0.4" d="M12 22C13.1046 22 14 21.1046 14 20C14 18.8954 13.1046 18 12 18C10.8954 18 10 18.8954 10 20C10 21.1046 10.8954 22 12 22Z" fill="#1C324A"/>
<path opacity="0.4" d="M6.34314 19.6572C7.44771 19.6572 8.34314 18.7618 8.34314 17.6572C8.34314 16.5527 7.44771 15.6572 6.34314 15.6572C5.23857 15.6572 4.34314 16.5527 4.34314 17.6572C4.34314 18.7618 5.23857 19.6572 6.34314 19.6572Z" fill="#1C324A"/>
<path opacity="0.4" d="M4 14C5.10457 14 6 13.1046 6 12C6 10.8954 5.10457 10 4 10C2.89543 10 2 10.8954 2 12C2 13.1046 2.89543 14 4 14Z" fill="#1C324A"/>
<path opacity="0.4" d="M6.34314 8.34277C7.44771 8.34277 8.34314 7.44734 8.34314 6.34277C8.34314 5.2382 7.44771 4.34277 6.34314 4.34277C5.23857 4.34277 4.34314 5.2382 4.34314 6.34277C4.34314 7.44734 5.23857 8.34277 6.34314 8.34277Z" fill="#1C324A"/>
</svg>
