<svg width="24" height="24" viewBox="0 0 24 24" fill="none" xmlns="http://www.w3.org/2000/svg">
<path fill-rule="evenodd" clip-rule="evenodd" d="M21.7459 18.0312L13.8514 4.05634C13.6567 3.70963 13.3597 3.42578 12.9978 3.24036C12.5061 2.98768 11.9303 2.93166 11.3958 3.08447C10.8612 3.23727 10.4111 3.58656 10.1434 4.05634L2.25013 18.0312C2.07753 18.3388 1.99123 18.6841 1.99972 19.0334C2.0082 19.3826 2.11117 19.7238 2.2985 20.0232C2.48584 20.3227 2.7511 20.5702 3.06822 20.7415C3.38534 20.9127 3.7434 21.0018 4.10723 21H19.8888C20.2375 21 20.5809 20.9175 20.8886 20.76C21.1324 20.6357 21.3481 20.4664 21.5234 20.2617C21.6987 20.057 21.83 19.821 21.9098 19.5673C21.9896 19.3136 22.0163 19.0473 21.9884 18.7837C21.9605 18.52 21.8773 18.2643 21.7459 18.0312ZM11.9999 15.0575C12.186 15.0575 12.3645 14.9849 12.4961 14.8557C12.6277 14.7265 12.7017 14.5512 12.7017 14.3685V10.2345C12.7017 10.0518 12.6277 9.87656 12.4961 9.74735C12.3645 9.61813 12.186 9.54554 11.9999 9.54554C11.8138 9.54554 11.6353 9.61813 11.5037 9.74735C11.3721 9.87656 11.2982 10.0518 11.2982 10.2345V14.3685C11.2982 14.5512 11.3721 14.7265 11.5037 14.8557C11.6353 14.9849 11.8138 15.0575 11.9999 15.0575ZM11.9996 17.8135C12.581 17.8135 13.0522 17.3507 13.0522 16.78C13.0522 16.2092 12.581 15.7465 11.9996 15.7465C11.4183 15.7465 10.947 16.2092 10.947 16.78C10.947 17.3507 11.4183 17.8135 11.9996 17.8135Z" fill="#4D2A24"/>
</svg>
