<svg width="16" height="16" viewBox="0 0 16 16" fill="none" xmlns="http://www.w3.org/2000/svg">
<path d="M11.0001 2.80394C11.9051 3.32645 12.6579 4.07625 13.184 4.97912C13.7102 5.88198 13.9914 6.9066 13.9998 7.95154C14.0082 8.99648 13.7436 10.0255 13.2322 10.9368C12.7207 11.848 11.9801 12.6099 11.0837 13.1469C10.1872 13.684 9.16611 13.9776 8.12133 13.9988C7.07656 14.0199 6.04438 13.7678 5.12697 13.2675C4.20956 12.7671 3.43874 12.0358 2.89081 11.146C2.34288 10.2562 2.03685 9.23876 2.003 8.19433L2 7.99993L2.003 7.80553C2.0366 6.76933 2.33813 5.75951 2.87819 4.87453C3.41826 3.98955 4.17842 3.25961 5.08457 2.75586C5.99073 2.25212 7.01195 1.99177 8.04868 2.0002C9.08541 2.00862 10.1023 2.28553 11.0001 2.80394ZM7.10666 6.28394C6.98095 6.2091 6.83223 6.18278 6.68846 6.20991C6.5447 6.23705 6.41581 6.31577 6.32602 6.43128C6.23624 6.54679 6.19175 6.69113 6.20093 6.83714C6.2101 6.98315 6.27231 7.12078 6.37585 7.22413L7.15106 7.99993L6.37585 8.77573L6.32605 8.83213C6.2328 8.95273 6.18896 9.1043 6.20341 9.25605C6.21787 9.4078 6.28955 9.54837 6.40389 9.64919C6.51823 9.75001 6.66666 9.80352 6.81903 9.79887C6.9714 9.79422 7.11629 9.73174 7.22426 9.62413L8.00007 8.84893L8.77588 9.62413L8.83228 9.67393C8.95288 9.76718 9.10445 9.81103 9.2562 9.79657C9.40796 9.78212 9.54852 9.71044 9.64934 9.5961C9.75017 9.48176 9.80369 9.33333 9.79903 9.18096C9.79438 9.02859 9.7319 8.88371 9.62429 8.77573L8.84908 7.99993L9.62429 7.22413L9.67409 7.16773C9.76734 7.04714 9.81119 6.89557 9.79673 6.74382C9.78228 6.59207 9.7106 6.4515 9.59626 6.35068C9.48192 6.24986 9.33349 6.19635 9.18112 6.201C9.02875 6.20565 8.88386 6.26813 8.77588 6.37574L8.00007 7.15093L7.22426 6.37574L7.16786 6.32593L7.10666 6.28394Z" fill="#FFB673"/>
</svg>
