<svg width="26" height="24" viewBox="0 0 26 24" fill="none" xmlns="http://www.w3.org/2000/svg">
<path d="M22.381 8.26667C22.1416 6.75 21.4235 5.7 19.7479 5.46667C17.1147 5 13.0453 5 13.0453 5C13.0453 5 8.97589 5 6.34274 5.46667C4.6671 5.7 3.82928 6.75 3.70959 8.26667C3.47021 9.78333 3.47021 12 3.47021 12C3.47021 12 3.47021 14.2167 3.70959 15.7333C3.94897 17.25 4.6671 18.3 6.34274 18.5333C8.97589 19 13.0453 19 13.0453 19C13.0453 19 17.1147 19 19.7479 18.5333C21.4235 18.1833 22.1416 17.25 22.381 15.7333C22.6204 14.2167 22.6204 12 22.6204 12C22.6204 12 22.6204 9.78333 22.381 8.26667ZM10.6515 15.5V8.5L16.636 12L10.6515 15.5Z" fill="#004C45"/>
</svg>
