<svg width="24" height="24" viewBox="0 0 24 24" fill="none" xmlns="http://www.w3.org/2000/svg">
<path d="M21 12C21 7.032 16.968 3 12 3C7.032 3 3 7.032 3 12C3 16.968 7.032 21 12 21" stroke="white" stroke-width="2" stroke-linecap="round" stroke-linejoin="round"/>
<path d="M8.39998 3.8999V3.8999C8.84265 3.8999 9.15533 4.33395 9.03 4.7585C7.63498 9.48405 7.63498 14.5158 9.03 19.2413C9.15533 19.6659 8.84265 20.0999 8.39998 20.0999V20.0999" stroke="white" stroke-width="2" stroke-linecap="round" stroke-linejoin="round"/>
<path d="M14.7 3.8999C15.573 6.5279 16.014 9.2639 16.014 11.9999" stroke="white" stroke-width="2" stroke-linecap="round" stroke-linejoin="round"/>
<path d="M3.89999 15.6V15.6C3.89999 15.157 4.33391 14.8438 4.75888 14.9688C7.12157 15.6634 9.56078 16.014 12 16.014" stroke="white" stroke-width="2" stroke-linecap="round" stroke-linejoin="round"/>
<path d="M3.89999 9.29989C9.15599 7.54489 14.844 7.54489 20.1 9.29989" stroke="white" stroke-width="2" stroke-linecap="round" stroke-linejoin="round"/>
<path d="M17.58 20.46C19.1706 20.46 20.46 19.1705 20.46 17.58C20.46 15.9894 19.1706 14.7 17.58 14.7C15.9894 14.7 14.7 15.9894 14.7 17.58C14.7 19.1705 15.9894 20.46 17.58 20.46Z" stroke="white" stroke-width="2" stroke-linecap="round" stroke-linejoin="round"/>
<path d="M21 21.0001L20.1 20.1001" stroke="white" stroke-width="2" stroke-linecap="round" stroke-linejoin="round"/>
</svg>
