<?xml version="1.0" encoding="utf-8"?>
<!-- Generator: Adobe Illustrator 16.0.0, SVG Export Plug-In . SVG Version: 6.00 Build 0)  -->
<!DOCTYPE svg PUBLIC "-//W3C//DTD SVG 1.1//EN" "http://www.w3.org/Graphics/SVG/1.1/DTD/svg11.dtd">
<svg version="1.1" id="Layer_1" xmlns="http://www.w3.org/2000/svg" xmlns:xlink="http://www.w3.org/1999/xlink" x="0px" y="0px"
	 width="48px" height="48px" viewBox="-2.375 -6.857 48 48" enable-background="new -2.375 -6.857 48 48" xml:space="preserve">
<g>
	<path d="M33.891,21.049c1.613,0.938,2.891,2.215,3.828,3.828c0.938,1.615,1.406,3.359,1.406,5.234v3.281
		c0,1.041-0.365,1.926-1.094,2.656c-0.73,0.729-1.615,1.094-2.656,1.094h-27.5c-1.043,0-1.928-0.365-2.656-1.094
		c-0.73-0.73-1.094-1.615-1.094-2.656v-3.281c0-1.875,0.469-3.619,1.406-5.234c0.938-1.613,2.213-2.891,3.828-3.828
		c1.613-0.938,3.359-1.406,5.234-1.406h1.328c1.822,0.834,3.723,1.25,5.703,1.25c1.979,0,3.879-0.416,5.703-1.25h1.328
		C30.532,19.643,32.276,20.112,33.891,21.049z M16.586,15.815c-1.537-0.885-2.748-2.096-3.633-3.633
		c-0.887-1.535-1.328-3.215-1.328-5.039c0-1.822,0.441-3.502,1.328-5.039c0.885-1.535,2.096-2.746,3.633-3.633
		c1.535-0.885,3.215-1.328,5.039-1.328c1.822,0,3.502,0.443,5.039,1.328c1.535,0.887,2.746,2.098,3.633,3.633
		c0.885,1.537,1.328,3.217,1.328,5.039c0,1.824-0.443,3.504-1.328,5.039c-0.887,1.537-2.098,2.748-3.633,3.633
		c-1.537,0.887-3.217,1.328-5.039,1.328C19.801,17.143,18.122,16.702,16.586,15.815z"/>
</g>
</svg>
