<?xml version="1.0" encoding="utf-8"?>
<!-- Generator: Adobe Illustrator 16.0.0, SVG Export Plug-In . SVG Version: 6.00 Build 0)  -->
<!DOCTYPE svg PUBLIC "-//W3C//DTD SVG 1.1//EN" "http://www.w3.org/Graphics/SVG/1.1/DTD/svg11.dtd">
<svg version="1.1" id="Layer_1" xmlns="http://www.w3.org/2000/svg" xmlns:xlink="http://www.w3.org/1999/xlink" x="0px" y="0px"
	 width="52px" height="48px" viewBox="-4.375 -6.857 52 48" enable-background="new -4.375 -6.857 52 48" xml:space="preserve">
<g>
	<g>
		<path d="M22.133,20.854c1.379,0.809,2.473,1.902,3.281,3.281c0.807,1.381,1.211,2.879,1.211,4.492v2.266
			c0,1.043-0.365,1.926-1.094,2.656c-0.73,0.729-1.615,1.094-2.656,1.094h-22.5c-1.043,0-1.928-0.365-2.656-1.094
			c-0.73-0.73-1.094-1.613-1.094-2.656v-2.266c0-1.613,0.402-3.111,1.211-4.492c0.807-1.379,1.9-2.473,3.281-3.281
			c1.379-0.807,2.877-1.211,4.492-1.211h0.625c1.77,0.834,3.566,1.25,5.391,1.25c1.822,0,3.619-0.416,5.391-1.25h0.625
			C19.254,19.643,20.752,20.047,22.133,20.854z M7.25,15.971c-1.355-0.781-2.422-1.848-3.203-3.203
			c-0.781-1.354-1.172-2.812-1.172-4.375s0.391-3.02,1.172-4.375C4.829,2.665,5.895,1.596,7.25,0.815
			c1.354-0.781,2.812-1.172,4.375-1.172S14.645,0.034,16,0.815c1.354,0.781,2.422,1.85,3.203,3.203
			c0.781,1.355,1.172,2.812,1.172,4.375s-0.391,3.021-1.172,4.375c-0.781,1.355-1.85,2.422-3.203,3.203
			c-1.355,0.781-2.812,1.172-4.375,1.172S8.604,16.752,7.25,15.971z M42.25,20.815c1.354,0.781,2.422,1.85,3.203,3.203
			c0.781,1.355,1.172,2.812,1.172,4.375c0,1.043-0.365,1.928-1.094,2.656c-0.73,0.73-1.615,1.094-2.656,1.094H29.047l0.078-3.516
			c0-1.457-0.273-2.852-0.82-4.18S26.989,21.909,26,20.815c1.406-0.781,2.863-1.172,4.375-1.172h0.312
			c1.197,0.418,2.344,0.625,3.438,0.625s2.238-0.207,3.438-0.625h0.312C39.438,19.643,40.895,20.034,42.25,20.815z M28.813,14.956
			c-1.459-1.457-2.188-3.229-2.188-5.312c0-2.082,0.729-3.854,2.188-5.312c1.457-1.457,3.229-2.188,5.312-2.188
			c2.082,0,3.854,0.73,5.312,2.188c1.457,1.459,2.188,3.23,2.188,5.312c0,2.084-0.73,3.855-2.188,5.312
			c-1.459,1.459-3.23,2.188-5.312,2.188C32.042,17.143,30.27,16.415,28.813,14.956z"/>
	</g>
</g>
</svg>
