<?xml version="1.0" encoding="utf-8"?>
<!-- Generator: Adobe Illustrator 16.0.4, SVG Export Plug-In . SVG Version: 6.00 Build 0)  -->
<!DOCTYPE svg PUBLIC "-//W3C//DTD SVG 1.1//EN" "http://www.w3.org/Graphics/SVG/1.1/DTD/svg11.dtd">
<svg version="1.1" id="Layer_1" xmlns="http://www.w3.org/2000/svg" xmlns:xlink="http://www.w3.org/1999/xlink" x="0px" y="0px"
	 width="48px" height="48px" viewBox="0 0 48 48" enable-background="new 0 0 48 48" xml:space="preserve">
<path d="M44,9.714v28.571c0,0.789-0.279,1.463-0.838,2.021c-0.559,0.557-1.23,0.836-2.02,0.836H6.857
	c-0.789,0-1.463-0.279-2.021-0.836C4.279,39.748,4,39.074,4,38.285V9.714c0-0.789,0.279-1.462,0.836-2.021
	c0.559-0.558,1.232-0.837,2.021-0.837h34.285c0.789,0,1.461,0.279,2.02,0.837C43.721,8.252,44,8.925,44,9.714z M6.857,15.428h34.285
	v-2.634v-3.08H22.66l-1.428,2.857H6.857V15.428z M6.857,38.285h34.285v-2.857H6.857V38.285z M9.713,11.143h8.572V8.286H9.713V11.143
	z M30.061,31.533c1.674-1.674,2.51-3.693,2.51-6.061c0-2.366-0.836-4.385-2.51-6.06c-1.676-1.674-3.695-2.511-6.061-2.511
	c-2.367,0-4.387,0.837-6.061,2.511c-1.674,1.675-2.512,3.694-2.512,6.06c0,2.367,0.838,4.387,2.512,6.061s3.693,2.512,6.061,2.512
	C26.365,34.045,28.385,33.207,30.061,31.533z M28.039,21.433c1.117,1.116,1.674,2.463,1.674,4.04c0,1.578-0.557,2.924-1.674,4.041
	c-1.115,1.115-2.463,1.674-4.039,1.674c-1.578,0-2.924-0.559-4.041-1.674c-1.115-1.117-1.674-2.463-1.674-4.041
	c0-1.577,0.559-2.923,1.674-4.04c1.117-1.116,2.463-1.674,4.041-1.674C25.576,19.759,26.924,20.317,28.039,21.433z M24.514,23.084
	c0.133-0.134,0.199-0.305,0.199-0.513c0-0.209-0.066-0.38-0.199-0.514c-0.135-0.134-0.307-0.201-0.514-0.201
	c-0.982,0-1.824,0.35-2.523,1.049c-0.699,0.7-1.049,1.541-1.049,2.522c0,0.209,0.066,0.381,0.201,0.514
	c0.135,0.135,0.305,0.201,0.514,0.201s0.379-0.066,0.514-0.201c0.133-0.133,0.201-0.305,0.201-0.514c0-0.594,0.207-1.1,0.625-1.517
	c0.416-0.416,0.922-0.625,1.518-0.625C24.207,23.286,24.379,23.218,24.514,23.084z"/>
</svg>
