<?xml version="1.0" encoding="utf-8"?>
<!-- Generator: Adobe Illustrator 16.0.0, SVG Export Plug-In . SVG Version: 6.00 Build 0)  -->
<!DOCTYPE svg PUBLIC "-//W3C//DTD SVG 1.1//EN" "http://www.w3.org/Graphics/SVG/1.1/DTD/svg11.dtd">
<svg version="1.1" id="Layer_1" xmlns="http://www.w3.org/2000/svg" xmlns:xlink="http://www.w3.org/1999/xlink" x="0px" y="0px"
	 width="49.296px" height="48.98px" viewBox="0 0 49.296 48.98" enable-background="new 0 0 49.296 48.98" xml:space="preserve">
<g>
	<g>
		<g>
			<path fill="#036247" d="M24.65,10.633c7.637,0,13.853,6.213,13.856,13.852c0.002,3.702-1.438,7.183-4.055,9.8
				c-2.615,2.619-6.096,4.062-9.805,4.064c-7.635,0-13.852-6.215-13.857-13.853c-0.004-7.641,6.211-13.859,13.852-13.863H24.65
				 M24.65,9.633c-0.003,0-0.005,0-0.009,0C16.437,9.637,9.786,16.292,9.79,24.497c0.006,8.206,6.656,14.853,14.857,14.853
				c0.003,0,0.006,0,0.008,0c8.207-0.004,14.855-6.66,14.852-14.866C39.503,16.282,32.851,9.633,24.65,9.633L24.65,9.633z"/>
		</g>
	</g>
	<g>
		<g>
			<path fill="#036247" d="M24.651,18.131c3.504,0,6.355,2.852,6.357,6.355c0.001,1.699-0.66,3.298-1.86,4.499
				c-1.2,1.203-2.798,1.865-4.501,1.865c-3.504,0-6.357-2.852-6.359-6.356c-0.002-3.508,2.851-6.361,6.357-6.363H24.651
				 M24.651,17.131c-0.002,0-0.004,0-0.006,0c-4.064,0.002-7.359,3.297-7.357,7.363c0.003,4.063,3.297,7.356,7.359,7.356
				c0.002,0,0.002,0,0.004,0c4.066-0.002,7.359-3.299,7.357-7.364C32.007,20.424,28.712,17.131,24.651,17.131L24.651,17.131z"/>
		</g>
	</g>
	<g>
		<polygon fill="#036247" points="23.648,45.541 23.648,25.491 3.599,25.491 3.599,23.491 23.648,23.491 23.648,3.44 25.648,3.44 
			25.648,23.491 45.698,23.491 45.698,25.491 25.648,25.491 25.648,45.541 		"/>
		<path fill="#FFFFFF" d="M25.148,3.94v20.051h20.05v1h-20.05v20.05h-1v-20.05H4.099v-1h20.05V3.94H25.148 M26.148,2.94h-1h-1h-1v1
			v19.051H4.099h-1v1v1v1h1h19.05v19.05v1h1h1h1v-1v-19.05h19.05h1v-1v-1v-1h-1h-19.05V3.94V2.94L26.148,2.94z"/>
	</g>
</g>
</svg>
