<?xml version="1.0" encoding="utf-8"?>
<!-- Generator: Adobe Illustrator 16.0.4, SVG Export Plug-In . SVG Version: 6.00 Build 0)  -->
<!DOCTYPE svg PUBLIC "-//W3C//DTD SVG 1.1//EN" "http://www.w3.org/Graphics/SVG/1.1/DTD/svg11.dtd">
<svg version="1.1" id="Layer_1" xmlns="http://www.w3.org/2000/svg" xmlns:xlink="http://www.w3.org/1999/xlink" x="0px" y="0px"
	 width="48px" height="48px" viewBox="0 0 48 48" enable-background="new 0 0 48 48" xml:space="preserve">
<path d="M25.662,13.051l9.287,9.286L16.377,40.908H7.092v-9.285L25.662,13.051z M15.193,38.051l2.031-2.031l-5.244-5.244
	l-2.031,2.031v2.387h2.855v2.857H15.193z M26.867,17.337c0-0.327-0.162-0.491-0.49-0.491c-0.148,0-0.275,0.052-0.379,0.156
	L13.898,29.1c-0.104,0.105-0.156,0.232-0.156,0.381c0,0.326,0.164,0.49,0.492,0.49c0.148,0,0.275-0.053,0.379-0.156l12.098-12.098
	C26.816,17.613,26.867,17.486,26.867,17.337z M40.908,15.194c0,0.789-0.275,1.459-0.826,2.009l-3.705,3.706l-9.285-9.286
	l3.705-3.683c0.535-0.565,1.205-0.849,2.008-0.849c0.789,0,1.467,0.283,2.031,0.849l5.246,5.223
	C40.633,13.744,40.908,14.42,40.908,15.194z"/>
</svg>
