<?xml version="1.0" encoding="utf-8"?>
<!-- Generator: Adobe Illustrator 16.0.0, SVG Export Plug-In . SVG Version: 6.00 Build 0)  -->
<!DOCTYPE svg PUBLIC "-//W3C//DTD SVG 1.1//EN" "http://www.w3.org/Graphics/SVG/1.1/DTD/svg11.dtd">
<svg version="1.1" id="Layer_1" xmlns="http://www.w3.org/2000/svg" xmlns:xlink="http://www.w3.org/1999/xlink" x="0px" y="0px"
	 width="48px" height="48px" viewBox="-2.375 -6.857 48 48" enable-background="new -2.375 -6.857 48 48" xml:space="preserve">
<g>
	<path d="M41.754,13.617c-1.338-1.613-3.021-2.628-5.049-3.043c0.275-0.784,0.414-1.591,0.414-2.421
		c0-1.844-0.646-3.412-1.938-4.704c-1.291-1.291-2.859-1.937-4.703-1.937c-1.338,0-2.559,0.37-3.666,1.107
		c-0.969-1.66-2.307-2.997-4.012-4.012c-1.707-1.014-3.563-1.522-5.569-1.522s-3.862,0.496-5.567,1.487
		C9.958-0.436,8.609,0.913,7.618,2.619C6.626,4.325,6.131,6.17,6.131,8.152v0.553c-1.937,0.692-3.528,1.892-4.772,3.597
		c-1.246,1.707-1.868,3.644-1.868,5.811c0,1.797,0.45,3.457,1.349,4.979c0.899,1.523,2.11,2.734,3.631,3.633
		c1.523,0.898,3.183,1.35,4.98,1.35h5.628c-0.442-1.254-0.695-2.594-0.695-3.996c0-6.632,5.374-12.007,12.002-12.007
		c6.631,0,12.006,5.375,12.006,12.007c0,1.219-0.184,2.395-0.523,3.504c0.516-0.18,1.016-0.406,1.5-0.686
		c1.359-0.783,2.432-1.855,3.217-3.215c0.783-1.359,1.176-2.848,1.176-4.463C43.76,17.1,43.09,15.231,41.754,13.617z"/>
	<path d="M33.954,29.866h-0.666c1.221-1.557,1.832-3.336,1.832-5.336c0-1.584-0.389-3.035-1.166-4.357
		c-0.779-1.318-1.828-2.367-3.148-3.146c-1.32-0.778-2.771-1.167-4.355-1.167s-3.035,0.389-4.355,1.167
		c-1.32,0.779-2.371,1.828-3.147,3.146c-0.778,1.322-1.168,2.773-1.168,4.357s0.39,3.037,1.168,4.355
		c0.776,1.32,1.827,2.369,3.147,3.148c1.32,0.777,2.771,1.166,4.355,1.166c2.002,0,3.779-0.611,5.336-1.834v0.668
		c0,0.277,0.098,0.514,0.291,0.707l1.178,1.176l2.992,2.994c0.193,0.193,0.43,0.291,0.709,0.291c0.277,0,0.514-0.098,0.707-0.291
		l1.168-1.168c0.193-0.195,0.293-0.432,0.293-0.709s-0.1-0.514-0.293-0.709l-2.938-2.936l-1.23-1.232
		C34.467,29.963,34.231,29.866,33.954,29.866z M31.077,27.217c-0.473,0.82-1.119,1.467-1.938,1.939
		c-0.82,0.473-1.717,0.709-2.689,0.709s-1.869-0.236-2.688-0.709c-0.82-0.473-1.467-1.119-1.939-1.939
		c-0.473-0.818-0.709-1.715-0.709-2.688s0.236-1.869,0.709-2.689c0.472-0.818,1.119-1.465,1.939-1.938
		c0.818-0.473,1.715-0.709,2.688-0.709s1.869,0.236,2.689,0.709c0.818,0.473,1.465,1.119,1.938,1.938
		c0.473,0.82,0.709,1.717,0.709,2.689S31.549,26.399,31.077,27.217z"/>
</g>
</svg>
