<?xml version="1.0" encoding="utf-8"?>
<!-- Generator: Adobe Illustrator 16.0.0, SVG Export Plug-In . SVG Version: 6.00 Build 0)  -->
<!DOCTYPE svg PUBLIC "-//W3C//DTD SVG 1.1//EN" "http://www.w3.org/Graphics/SVG/1.1/DTD/svg11.dtd">
<svg version="1.1" id="Layer_1" xmlns="http://www.w3.org/2000/svg" xmlns:xlink="http://www.w3.org/1999/xlink" x="0px" y="0px"
	 width="43.251px" height="34.286px" viewBox="0 0 43.251 34.286" enable-background="new 0 0 43.251 34.286" xml:space="preserve">
<g>
	<path fill="#006146" d="M43.251,3.571v27.144c0,0.981-0.35,1.822-1.05,2.521c-0.699,0.7-1.54,1.05-2.521,1.05H3.965
		c-0.982,0-1.823-0.35-2.522-1.05c-0.699-0.699-1.049-1.54-1.049-2.521V3.571c0-0.981,0.35-1.822,1.049-2.522
		C2.142,0.35,2.982,0,3.965,0H39.68c0.981,0,1.822,0.35,2.521,1.049C42.901,1.749,43.251,2.59,43.251,3.571z M39.68,2.857H3.965
		c-0.193,0-0.36,0.07-0.502,0.212S3.251,3.378,3.251,3.571v27.144c0,0.193,0.07,0.36,0.212,0.502s0.309,0.212,0.502,0.212H39.68
		c0.192,0,0.36-0.07,0.502-0.212s0.212-0.309,0.212-0.502V3.571c0-0.193-0.07-0.36-0.212-0.502S39.872,2.857,39.68,2.857z
		 M13.43,6.965C14.263,7.798,14.68,8.81,14.68,10s-0.417,2.202-1.25,3.036c-0.834,0.833-1.846,1.25-3.036,1.25
		s-2.202-0.417-3.036-1.25C6.524,12.202,6.107,11.19,6.107,10s0.417-2.202,1.25-3.035c0.834-0.834,1.846-1.25,3.036-1.25
		S12.596,6.131,13.43,6.965z M37.536,18.571v10H6.107v-4.285l7.144-7.144l3.571,3.572L28.251,9.286L37.536,18.571z"/>
</g>
</svg>
