<?xml version="1.0" encoding="utf-8"?>
<!-- Generator: Adobe Illustrator 16.0.0, SVG Export Plug-In . SVG Version: 6.00 Build 0)  -->
<!DOCTYPE svg PUBLIC "-//W3C//DTD SVG 1.1//EN" "http://www.w3.org/Graphics/SVG/1.1/DTD/svg11.dtd">
<svg version="1.1" id="Layer_1" xmlns="http://www.w3.org/2000/svg" xmlns:xlink="http://www.w3.org/1999/xlink" x="0px" y="0px"
	 width="48px" height="48px" viewBox="-2.375 -6.857 48 48" enable-background="new -2.375 -6.857 48 48" xml:space="preserve">
<g>
	<path d="M44.086,17.321c0.025,0.262-0.039,0.496-0.195,0.703l-1.953,2.422c-0.156,0.209-0.365,0.312-0.625,0.312
		c-0.262,0-0.496-0.078-0.703-0.234L22.25,5.446c-0.209-0.156-0.418-0.234-0.625-0.234c-0.209,0-0.418,0.078-0.625,0.234
		L2.641,20.524c-0.209,0.156-0.443,0.234-0.703,0.234c-0.262,0-0.469-0.104-0.625-0.312l-1.953-2.422
		c-0.156-0.207-0.223-0.441-0.195-0.703c0.025-0.26,0.117-0.469,0.273-0.625L19.281,0.368c0.676-0.572,1.457-0.859,2.344-0.859
		c0.885,0,1.692,0.287,2.422,0.859L31,6.149V0.446c0-0.26,0.09-0.48,0.273-0.664c0.182-0.182,0.402-0.273,0.664-0.273h4.375
		c0.26,0,0.48,0.092,0.664,0.273c0.182,0.184,0.273,0.404,0.273,0.664v10.859l6.562,5.391
		C43.969,16.853,44.059,17.062,44.086,17.321z M36.938,20.68L22.25,8.649c-0.209-0.156-0.418-0.234-0.625-0.234
		c-0.209,0-0.418,0.078-0.625,0.234L6.312,20.68C6.104,20.889,6,21.149,6,21.461v11.172c0,0.52,0.182,0.963,0.547,1.328
		c0.363,0.363,0.807,0.547,1.328,0.547h9.062c0.26,0,0.48-0.092,0.664-0.273c0.182-0.184,0.273-0.404,0.273-0.664v-8.75
		c0-0.26,0.09-0.48,0.273-0.664c0.182-0.182,0.402-0.273,0.664-0.273h5.625c0.26,0,0.48,0.092,0.664,0.273
		c0.182,0.184,0.273,0.404,0.273,0.664v8.75c0,0.26,0.09,0.48,0.273,0.664c0.182,0.182,0.402,0.273,0.664,0.273h9.062
		c0.52,0,0.963-0.184,1.328-0.547c0.363-0.365,0.547-0.809,0.547-1.328V21.461C37.25,21.149,37.145,20.889,36.938,20.68z"/>
</g>
</svg>
