<?xml version="1.0" encoding="utf-8"?>
<!-- Generator: Adobe Illustrator 16.0.0, SVG Export Plug-In . SVG Version: 6.00 Build 0)  -->
<!DOCTYPE svg PUBLIC "-//W3C//DTD SVG 1.1//EN" "http://www.w3.org/Graphics/SVG/1.1/DTD/svg11.dtd">
<svg version="1.1" id="Layer_1" xmlns="http://www.w3.org/2000/svg" xmlns:xlink="http://www.w3.org/1999/xlink" x="0px" y="0px"
	 width="138px" height="64px" viewBox="0 0 138 64" enable-background="new 0 0 138 64" xml:space="preserve">
<g>
	<path fill="#FFFFFF" d="M16.118,40.972c1,0,1.637-0.275,1.913-0.825c0.276-0.554,0.414-1.446,0.414-2.684v-6.546
		c0-1.236,0.052-2.379,0.158-3.432l-2.761,0.12v-2.998c1.656,0,2.997-0.118,4.023-0.355c1.025-0.237,1.708-0.512,2.05-0.829h2.129
		v13.765c0,1.262-0.052,2.418-0.158,3.471c0.841-0.079,1.697-0.12,2.563-0.12v2.997H16.118V40.972z M19.47,18.987
		c-0.579-0.617-0.867-1.374-0.867-2.268c0-0.893,0.302-1.662,0.906-2.306c0.604-0.644,1.315-0.966,2.13-0.966
		c0.841,0,1.543,0.314,2.109,0.946c0.565,0.63,0.848,1.407,0.848,2.326c0,0.921-0.27,1.684-0.809,2.288
		c-0.539,0.606-1.242,0.908-2.109,0.908C20.784,19.915,20.048,19.605,19.47,18.987z"/>
	<path fill="#FFFFFF" d="M28.307,40.972c1,0,1.637-0.275,1.913-0.825c0.276-0.554,0.414-1.446,0.414-2.684v-6.625
		c0-1.183,0.052-2.3,0.158-3.353l-2.76,0.12v-2.998c1.656,0,2.997-0.118,4.023-0.355c1.025-0.237,1.708-0.512,2.05-0.829h1.932
		c0,0.053,0.053,0.711,0.158,1.972h0.079c0.763-0.603,1.703-1.124,2.821-1.557c1.115-0.434,2.069-0.651,2.857-0.651
		c2.392,0,4.103,0.685,5.128,2.052c1.025,1.367,1.538,3.588,1.538,6.664v5.286c0,1.262-0.053,2.418-0.158,3.471
		c0.867-0.079,1.722-0.12,2.563-0.12v2.997H40.69v-2.564c1,0,1.644-0.275,1.932-0.825c0.289-0.554,0.434-1.446,0.434-2.684
		l-0.039-5.599c0-1.736-0.245-3.012-0.73-3.826c-0.486-0.815-1.307-1.223-2.464-1.223c-0.632,0-1.277,0.139-1.933,0.415
		c-0.658,0.277-1.209,0.625-1.655,1.046v8.913c0,1.262-0.053,2.418-0.158,3.471c0.841-0.079,1.696-0.12,2.563-0.12v2.997H28.307
		V40.972z"/>
	<path fill="#FFFFFF" d="M51.471,51.029c1,0,1.645-0.275,1.933-0.827c0.288-0.552,0.434-1.446,0.434-2.684v-16.68
		c0-1.183,0.053-2.3,0.158-3.353l-2.8,0.12v-2.998c1.655,0,2.997-0.118,4.022-0.355c1.026-0.237,1.708-0.512,2.052-0.829h1.933
		c0.052,0.448,0.118,1.079,0.197,1.894h0.039c1.631-1.42,3.392-2.131,5.286-2.131c1.578,0,2.964,0.409,4.16,1.224
		c1.195,0.816,2.128,1.979,2.799,3.49c0.67,1.512,1.006,3.268,1.006,5.265c0,2.103-0.407,3.988-1.222,5.659
		c-0.815,1.669-1.966,2.978-3.45,3.923c-1.486,0.946-3.189,1.421-5.107,1.421c-1.027,0-2.197-0.238-3.511-0.711v3.785
		c0,1.131-0.039,2.288-0.119,3.472c0.815-0.078,1.657-0.118,2.524-0.118v2.997H51.471V51.029z M66.891,33.756
		c0-1.945-0.348-3.601-1.044-4.968c-0.696-1.367-1.741-2.052-3.135-2.052c-0.658,0-1.281,0.158-1.873,0.474
		c-0.592,0.315-1.072,0.736-1.439,1.262v12.029c0.263,0.184,0.651,0.347,1.164,0.493c0.513,0.144,1.032,0.217,1.557,0.217
		C65.3,41.211,66.891,38.726,66.891,33.756z"/>
	<path fill="#FFFFFF" d="M77.91,42.117c-1.013-1.368-1.52-3.589-1.52-6.664v-4.536c0-1.103,0.04-2.248,0.119-3.432l-2.762,0.12
		v-2.998c1.657,0,2.998-0.118,4.023-0.355c1.024-0.237,1.708-0.512,2.05-0.829h2.17v12.069c0,1.734,0.223,3.009,0.671,3.825
		c0.446,0.813,1.155,1.222,2.129,1.222c0.656,0,1.333-0.184,2.03-0.552c0.696-0.369,1.282-0.814,1.756-1.341v-7.729
		c0-1.236,0.052-2.379,0.158-3.432l-2.761,0.12v-2.998c1.655,0,2.99-0.118,4.002-0.355c1.013-0.237,1.689-0.512,2.031-0.829h2.17
		v13.765c0,1.262-0.056,2.418-0.158,3.471c0.841-0.079,1.696-0.12,2.563-0.12v2.997H89.09l-0.238-2.052h-0.038
		c-0.974,0.842-1.912,1.5-2.82,1.973c-0.907,0.473-1.926,0.711-3.056,0.711C80.597,44.168,78.922,43.484,77.91,42.117z"/>
	<path fill="#FFFFFF" d="M99.336,36.596l0.077-9.503h-2.681v-3.274c0.84,0,1.637-0.262,2.386-0.79
		c0.749-0.524,1.386-1.169,1.913-1.931c0.526-0.763,0.894-1.499,1.104-2.208h2.917l-0.04,4.929h5.01v3.037l-5.01,0.118l-0.039,9.702
		c0,2.552,0.791,3.826,2.367,3.826c1.262,0,2.458-0.788,3.588-2.366l1.894,1.773c-1.236,1.814-2.471,2.978-3.707,3.489
		c-1.236,0.515-2.445,0.771-3.629,0.771C101.386,44.168,99.336,41.645,99.336,36.596z"/>
</g>
<path fill="#FD9626" d="M117.003,12.666c-1.748,0-3.588,0.738-5.754,2.674l-2.674-2.674v8.043h8.046l-2.826-2.826
	c4.825-4.185,11.384-0.746,11.384,5.219c0.157-0.645,0.251-1.316,0.251-2.011C125.43,16.438,121.656,12.666,117.003,12.666z"/>
</svg>
