<?xml version="1.0" encoding="utf-8"?>
<!-- Generator: Adobe Illustrator 15.1.0, SVG Export Plug-In . SVG Version: 6.00 Build 0)  -->
<!DOCTYPE svg PUBLIC "-//W3C//DTD SVG 1.1//EN" "http://www.w3.org/Graphics/SVG/1.1/DTD/svg11.dtd">
<svg version="1.1" xmlns="http://www.w3.org/2000/svg" xmlns:xlink="http://www.w3.org/1999/xlink" x="0px" y="0px" width="233.5px"
	 height="79px" viewBox="5621 -758.508 233.5 79" enable-background="new 5621 -758.508 233.5 79" xml:space="preserve">
<g id="svg2" xmlns:sodipodi="http://sodipodi.sourceforge.net/DTD/sodipodi-0.dtd" xmlns:dc="http://purl.org/dc/elements/1.1/" xmlns:inkscape="http://www.inkscape.org/namespaces/inkscape" xmlns:cc="http://creativecommons.org/ns#" xmlns:svg="http://www.w3.org/2000/svg" inkscape:version="0.47pre4 r22446" sodipodi:docname="paw_and_text.svg" xmlns:rdf="http://www.w3.org/1999/02/22-rdf-syntax-ns#">
	<defs>
		
		
			<inkscape:perspective  id="perspective13" inkscape:vp_z="1600.002 : 512.00098 : 1" inkscape:vp_y="0 : 1000 : 0" inkscape:vp_x="0 : 512.00098 : 1" inkscape:persp3d-origin="800.00098 : 341.33398 : 1" sodipodi:type="inkscape:persp3d">
			</inkscape:perspective>
		
			<inkscape:perspective  id="perspective2833" inkscape:vp_z="1 : 0.5 : 1" inkscape:vp_y="0 : 1000 : 0" inkscape:vp_x="0 : 0.5 : 1" inkscape:persp3d-origin="0.5 : 0.33333333 : 1" sodipodi:type="inkscape:persp3d">
			</inkscape:perspective>
		
			<inkscape:perspective  id="perspective3667" inkscape:vp_z="1 : 0.5 : 1" inkscape:vp_y="0 : 1000 : 0" inkscape:vp_x="0 : 0.5 : 1" inkscape:persp3d-origin="0.5 : 0.33333333 : 1" sodipodi:type="inkscape:persp3d">
			</inkscape:perspective>
		
			<inkscape:perspective  id="perspective3731" inkscape:vp_z="1 : 0.5 : 1" inkscape:vp_y="0 : 1000 : 0" inkscape:vp_x="0 : 0.5 : 1" inkscape:persp3d-origin="0.5 : 0.33333333 : 1" sodipodi:type="inkscape:persp3d">
			</inkscape:perspective>
		
			<inkscape:perspective  id="perspective3777" inkscape:vp_z="1 : 0.5 : 1" inkscape:vp_y="0 : 1000 : 0" inkscape:vp_x="0 : 0.5 : 1" inkscape:persp3d-origin="0.5 : 0.33333333 : 1" sodipodi:type="inkscape:persp3d">
			</inkscape:perspective>
	</defs>
	
		<sodipodi:namedview  id="namedview7" borderopacity="1" inkscape:window-width="1600" bordercolor="#666666" inkscape:zoom="0.32593141" gridtolerance="10" objecttolerance="10" inkscape:cy="105.66452" inkscape:window-height="825" guidetolerance="10" inkscape:window-maximized="1" showgrid="false" pagecolor="#ffffff" inkscape:cx="675.20032" inkscape:window-y="25" inkscape:pageopacity="0" inkscape:current-layer="svg2" inkscape:window-x="0" inkscape:pageshadow="2">
		</sodipodi:namedview>
</g>
<g id="Layer_2">
	<g>
		<g>
			<path d="M5725.64-710.075c-0.917,0-1.374-0.504-1.374-1.513v-36.403c0-1.008,0.457-1.512,1.374-1.512h2.529
				c0.916,0,1.375,0.504,1.375,1.512v33.407h18.229c1.009,0,1.513,0.412,1.513,1.237v2.035c0,0.825-0.504,1.237-1.513,1.237H5725.64
				z"/>
			<path d="M5752.827-720.138v-17.57c0-0.824,0.413-1.237,1.237-1.237h2.365c0.824,0,1.236,0.413,1.236,1.237v16.25
				c0,3.593,0.596,5.87,1.787,6.833c1.192,0.962,2.668,1.443,4.428,1.443c2.326,0,4.109-0.71,5.347-2.131
				c1.237-1.42,1.856-3.854,1.856-7.3v-15.095c0-0.824,0.408-1.237,1.223-1.237h2.338c0.816,0,1.224,0.413,1.224,1.237v26.396
				c0,0.824-0.413,1.237-1.237,1.237h-2.31c-0.825,0-1.237-0.413-1.237-1.237v-2.199c-1.206,1.319-2.506,2.3-3.896,2.941
				c-1.393,0.642-3.091,0.962-5.095,0.962c-3.207,0-5.554-0.939-7.038-2.818C5753.57-714.305,5752.827-716.876,5752.827-720.138"/>
			<path d="M5780.957-735.315c-0.825,0-1.238-0.32-1.238-0.962v-1.705c0-0.642,0.413-0.963,1.238-0.963h3.244v-9.603
				c0-0.628,0.281-0.962,0.798-0.962h3.216c0.551,0,0.825,0.321,0.825,0.962v9.603h5.856c0.825,0,1.237,0.321,1.237,0.963v1.705
				c0,0.642-0.412,0.962-1.237,0.962h-5.856v17.514c0,1.925,0.289,3.176,0.866,3.753c0.578,0.578,1.27,0.866,2.076,0.866
				c0.623,0,1.37-0.183,2.24-0.549c0.871-0.367,1.472-0.678,1.801-0.935c0.33-0.256,0.587-0.174,0.771,0.248l0.907,2.117
				c0.146,0.367,0.036,0.66-0.33,0.88c-0.715,0.422-1.76,0.83-3.135,1.223c-1.374,0.394-2.749,0.591-4.123,0.591
				c-1.907,0-3.369-0.688-4.387-2.062c-1.017-1.375-1.525-3.317-1.525-5.829v-17.816H5780.957z"/>
			<path d="M5802.932-710.075c-0.815,0-1.223-0.413-1.223-1.237v-26.396c0-0.824,0.412-1.237,1.237-1.237h2.31
				c0.824,0,1.236,0.413,1.236,1.237v3.3c0.89-1.649,1.937-2.896,3.14-3.739c1.204-0.843,2.704-1.265,4.501-1.265
				c1.186,0,2.02,0.101,2.501,0.303c0.421,0.164,0.577,0.439,0.467,0.824l-0.632,2.255c-0.092,0.33-0.33,0.458-0.715,0.385
				c-0.645-0.128-1.253-0.192-1.824-0.192c-2.157,0-3.936,0.967-5.336,2.9c-1.4,1.934-2.102,4.569-2.102,7.905v13.72
				c0,0.825-0.407,1.237-1.223,1.237H5802.932z"/>
			<path d="M5818.811-717.773c0-3.263,1.525-5.655,4.578-7.176c3.052-1.522,7.61-2.411,13.679-2.667v-1.869
				c0-1.724-0.39-3.213-1.169-4.468s-2.323-1.884-4.633-1.884c-1.778,0-3.285,0.257-4.523,0.771
				c-1.236,0.513-2.396,1.375-3.478,2.584c-0.495,0.55-0.963,0.577-1.402,0.082l-1.43-1.649c-0.403-0.458-0.266-1.008,0.413-1.65
				c1.502-1.43,3.262-2.406,5.278-2.928c2.017-0.523,3.729-0.784,5.142-0.784c3.83,0,6.562,0.986,8.193,2.956
				c1.632,1.971,2.447,4.67,2.447,8.098v17.047c0,0.825-0.417,1.237-1.252,1.237h-2.502c-0.725,0-1.085-0.413-1.085-1.237v-1.347
				c-1.448,1.137-2.864,1.929-4.249,2.378c-1.384,0.449-2.928,0.673-4.632,0.673c-3.007,0-5.32-0.719-6.942-2.158
				C5819.621-713.205,5818.811-715.207,5818.811-717.773 M5823.814-717.939c0,1.796,0.426,3.016,1.278,3.657
				c0.853,0.642,2.204,0.962,4.056,0.962c1.411,0,2.75-0.137,4.015-0.413c1.265-0.274,2.565-0.999,3.904-2.172v-8.111
				c-6.251,0.477-10.022,1.297-11.314,2.461C5824.461-720.391,5823.814-719.185,5823.814-717.939"/>
			<path d="M5724.189-694.5c0-1.476,0.366-2.632,1.098-3.469c0.731-0.837,1.783-1.256,3.152-1.256c0.802,0,1.464,0.136,1.986,0.408
				c0.523,0.272,0.898,0.644,1.126,1.117c0.118,0.244,0.099,0.413-0.058,0.506l-0.499,0.291c-0.169,0.097-0.318,0.017-0.449-0.24
				c-0.14-0.266-0.367-0.515-0.683-0.747c-0.316-0.232-0.77-0.348-1.36-0.348c-1.054,0-1.82,0.328-2.299,0.984
				s-0.718,1.574-0.718,2.754s0.239,2.099,0.718,2.755c0.479,0.655,1.245,0.982,2.299,0.982c0.607,0,1.093-0.139,1.458-0.417
				s0.629-0.569,0.794-0.873c0.131-0.244,0.282-0.318,0.455-0.221l0.524,0.297c0.152,0.088,0.165,0.257,0.038,0.506
				c-0.249,0.485-0.653,0.889-1.214,1.211s-1.268,0.484-2.119,0.484c-1.369,0-2.421-0.418-3.152-1.256
				C5724.556-691.868,5724.189-693.024,5724.189-694.5"/>
			<path d="M5737.312-694.5c0-1.476,0.364-2.632,1.092-3.469c0.728-0.837,1.776-1.256,3.146-1.256s2.419,0.418,3.146,1.256
				c0.728,0.836,1.091,1.993,1.091,3.469s-0.363,2.632-1.091,3.469c-0.728,0.837-1.776,1.256-3.146,1.256s-2.419-0.418-3.146-1.256
				C5737.677-691.868,5737.312-693.024,5737.312-694.5 M5738.609-694.5c0,1.181,0.243,2.099,0.728,2.755
				c0.485,0.655,1.223,0.982,2.214,0.982c0.99,0,1.729-0.327,2.214-0.982c0.484-0.656,0.728-1.574,0.728-2.755
				s-0.243-2.099-0.728-2.754c-0.485-0.656-1.224-0.984-2.214-0.984c-0.991,0-1.729,0.328-2.214,0.984
				C5738.853-696.599,5738.609-695.681,5738.609-694.5"/>
			<path d="M5752.217-689.965c-0.211,0-0.315-0.116-0.315-0.348v-8.375c0-0.231,0.104-0.348,0.313-0.348h0.803
				c0.293,0,0.503,0.105,0.63,0.317l3.971,6.634h0.013c-0.008-0.169-0.013-0.337-0.013-0.506v-6.097c0-0.231,0.106-0.348,0.32-0.348
				h0.588c0.213,0,0.319,0.117,0.319,0.348v8.375c0,0.231-0.105,0.348-0.316,0.348h-0.557c-0.295,0-0.506-0.106-0.633-0.317
				l-4.225-7.04h-0.012c0.008,0.169,0.012,0.338,0.012,0.506v6.502c0,0.231-0.105,0.348-0.316,0.348H5752.217z"/>
			<path d="M5765.11-690.648c-0.224-0.203-0.282-0.38-0.177-0.531l0.328-0.475c0.113-0.165,0.297-0.152,0.551,0.038
				c0.333,0.249,0.68,0.454,1.04,0.614s0.798,0.24,1.312,0.24c0.38,0,0.7-0.057,0.962-0.17c0.26-0.114,0.471-0.278,0.629-0.491
				s0.237-0.472,0.237-0.775c0-0.22-0.033-0.423-0.099-0.611c-0.065-0.188-0.17-0.345-0.312-0.472
				c-0.145-0.127-0.294-0.226-0.449-0.298c-0.258-0.115-0.643-0.249-1.154-0.401c-0.513-0.152-0.961-0.317-1.345-0.494
				c-0.378-0.184-0.682-0.406-0.907-0.666c-0.225-0.26-0.375-0.529-0.449-0.804c-0.073-0.275-0.109-0.588-0.109-0.938
				c0-0.535,0.155-0.995,0.467-1.382c0.312-0.387,0.694-0.644,1.148-0.77c0.453-0.126,0.914-0.189,1.382-0.189
				c0.535,0,1.001,0.069,1.397,0.208s0.751,0.318,1.062,0.541c0.22,0.155,0.27,0.319,0.152,0.492l-0.322,0.462
				c-0.098,0.139-0.287,0.109-0.569-0.089c-0.216-0.152-0.478-0.294-0.788-0.427c-0.31-0.133-0.616-0.2-0.92-0.2
				c-0.389,0-0.711,0.046-0.968,0.137s-0.46,0.244-0.607,0.459s-0.221,0.464-0.221,0.747c0,0.177,0.017,0.341,0.05,0.491
				c0.034,0.15,0.121,0.303,0.26,0.459s0.308,0.276,0.506,0.36c0.266,0.114,0.678,0.248,1.236,0.402
				c0.559,0.154,1.047,0.343,1.465,0.566c0.388,0.207,0.667,0.423,0.838,0.648c0.17,0.227,0.304,0.471,0.398,0.734
				c0.095,0.264,0.142,0.561,0.142,0.89c0,0.6-0.153,1.099-0.462,1.5c-0.307,0.401-0.672,0.679-1.094,0.835
				s-0.951,0.234-1.588,0.234c-0.763,0-1.396-0.089-1.896-0.266C5765.734-690.219,5765.358-690.421,5765.11-690.648"/>
			<path d="M5777.254-693.425v-5.262c0-0.231,0.105-0.348,0.316-0.348h0.582c0.211,0,0.316,0.117,0.316,0.348v5.073
				c0,1.181,0.167,1.951,0.502,2.312c0.335,0.36,0.883,0.54,1.642,0.54s1.306-0.18,1.642-0.54c0.335-0.361,0.502-1.131,0.502-2.312
				v-5.073c0-0.231,0.105-0.348,0.316-0.348h0.582c0.211,0,0.316,0.117,0.316,0.348v5.262c0,1.336-0.307,2.279-0.92,2.827
				c-0.614,0.548-1.427,0.822-2.438,0.822s-1.825-0.274-2.438-0.822C5777.561-691.146,5777.254-692.088,5777.254-693.425"/>
			<path d="M5790.833-689.965c-0.211,0-0.315-0.116-0.315-0.348v-8.375c0-0.231,0.104-0.348,0.315-0.348h0.582
				c0.211,0,0.316,0.117,0.316,0.348v7.685h4.193c0.231,0,0.348,0.095,0.348,0.285v0.468c0,0.19-0.116,0.285-0.348,0.285H5790.833z"
				/>
			<path d="M5800.316-697.947c-0.241,0-0.361-0.095-0.361-0.285v-0.519c0-0.19,0.119-0.285,0.359-0.285h6.896
				c0.24,0,0.359,0.095,0.359,0.285v0.519c0,0.189-0.121,0.285-0.361,0.285h-2.839v7.634c0,0.231-0.105,0.348-0.316,0.348h-0.582
				c-0.211,0-0.316-0.116-0.316-0.348v-7.634H5800.316z"/>
			<path d="M5813.519-689.965c-0.211,0-0.316-0.116-0.316-0.348v-8.375c0-0.231,0.105-0.348,0.316-0.348h0.582
				c0.211,0,0.315,0.117,0.315,0.348v8.375c0,0.231-0.104,0.348-0.315,0.348H5813.519z"/>
			<path d="M5821.295-689.965c-0.211,0-0.316-0.116-0.316-0.348v-8.375c0-0.231,0.104-0.348,0.313-0.348h0.804
				c0.293,0,0.502,0.105,0.63,0.317l3.971,6.634h0.013c-0.009-0.169-0.013-0.337-0.013-0.506v-6.097
				c0-0.231,0.106-0.348,0.319-0.348h0.588c0.213,0,0.32,0.117,0.32,0.348v8.375c0,0.231-0.106,0.348-0.316,0.348h-0.557
				c-0.295,0-0.506-0.106-0.633-0.317l-4.225-7.04h-0.013c0.008,0.169,0.013,0.338,0.013,0.506v6.502
				c0,0.231-0.105,0.348-0.316,0.348H5821.295z"/>
			<path d="M5834.043-694.5c0-1.476,0.381-2.632,1.145-3.469c0.763-0.837,1.824-1.256,3.181-1.256c0.814,0,1.479,0.14,1.993,0.421
				c0.514,0.28,0.891,0.61,1.132,0.99c0.147,0.236,0.146,0.407-0.007,0.512l-0.474,0.329c-0.156,0.11-0.312,0.044-0.469-0.196
				c-0.126-0.19-0.364-0.415-0.714-0.677c-0.351-0.262-0.816-0.393-1.398-0.393c-1.033,0-1.807,0.328-2.321,0.984
				c-0.514,0.656-0.771,1.574-0.771,2.754s0.25,2.099,0.752,2.755c0.502,0.655,1.303,0.982,2.404,0.982
				c0.547,0,1.024-0.066,1.432-0.199c0.407-0.132,0.692-0.316,0.857-0.553v-1.676h-1.879c-0.232,0-0.348-0.095-0.348-0.285v-0.468
				c0-0.19,0.115-0.285,0.348-0.285h2.744c0.232,0,0.349,0.095,0.349,0.285v2.985c-0.515,0.375-1.028,0.666-1.543,0.873
				s-1.189,0.31-2.024,0.31c-1.391,0-2.471-0.418-3.238-1.256C5834.426-691.868,5834.043-693.024,5834.043-694.5"/>
		</g>
		<g>
			<g>
				<g>
					<path d="M5674.452-739.157c0.272-0.412,0.272-1.087,0-1.499l-5.509-8.329c-0.272-0.413-0.719-0.413-0.991,0l-5.509,8.329
						c-0.271,0.412-0.271,1.087,0,1.499l5.509,8.33c0.272,0.412,0.719,0.412,0.991,0L5674.452-739.157z"/>
				</g>
				<g>
					<path d="M5656.766-733.039c0.157-0.469-0.018-1.12-0.388-1.448l-7.477-6.621c-0.37-0.327-0.802-0.212-0.958,0.257l-3.164,9.472
						c-0.156,0.469,0.018,1.12,0.389,1.448l7.476,6.619c0.369,0.327,0.801,0.212,0.958-0.256L5656.766-733.039z"/>
				</g>
				<g>
					<path d="M5635.854-711.95c-0.03,0.493,0.308,1.077,0.749,1.298l8.936,4.459c0.441,0.22,0.828-0.002,0.858-0.496l0.605-9.968
						c0.03-0.493-0.308-1.077-0.75-1.298l-8.935-4.46c-0.442-0.221-0.828,0.002-0.859,0.495L5635.854-711.95z"/>
				</g>
				<g>
					<path d="M5668.969-720.313c-0.287-0.402-0.758-0.402-1.045,0l-14.811,20.707c-0.288,0.402-0.177,0.938,0.248,1.192
						l14.314,8.563c0.424,0.253,1.118,0.253,1.542,0l14.314-8.563c0.424-0.254,0.536-0.791,0.248-1.192L5668.969-720.313z"/>
				</g>
				<g>
					<path d="M5691.729-729.931c0.371-0.328,0.546-0.979,0.389-1.448l-3.164-9.472c-0.157-0.469-0.588-0.584-0.958-0.257
						l-7.477,6.621c-0.37,0.328-0.545,0.979-0.388,1.448l3.164,9.471c0.157,0.469,0.588,0.583,0.959,0.256L5691.729-729.931z"/>
				</g>
				<g>
					<path d="M5700.436-721.919c-0.029-0.493-0.416-0.717-0.858-0.496l-8.935,4.461c-0.442,0.221-0.78,0.805-0.75,1.298l0.605,9.968
						c0.03,0.493,0.417,0.716,0.859,0.496l8.934-4.459c0.443-0.221,0.78-0.805,0.75-1.299L5700.436-721.919z"/>
				</g>
			</g>
		</g>
	</g>
</g>
<g id="texts" display="none">
	<g display="inline">
		<text transform="matrix(1 0 0 1 -1108.061 -4129.5854)" fill="#B9B9B9" font-family="'Roboto-Regular'" font-size="24">Logo full color positive</text>
	</g>
	<g display="inline">
		<text transform="matrix(1 0 0 1 -2055.2935 -4129.5854)" fill="#B9B9B9" font-family="'Roboto-Regular'" font-size="24">Logo Positive</text>
	</g>
	<g display="inline">
		<text transform="matrix(1 0 0 1 -2036.3789 -2973.4702)" fill="#B9B9B9" font-family="'Roboto-Regular'" font-size="24">Logo color variations</text>
	</g>
	<g display="inline">
		<text transform="matrix(1 0 0 1 -640.7559 -2973.4702)" fill="#B9B9B9" font-family="'Roboto-Regular'" font-size="24">Black &amp; white</text>
	</g>
	<g display="inline">
		<text transform="matrix(1 0 0 1 -1108.061 -3580.7983)" fill="#B9B9B9" font-family="'Roboto-Regular'" font-size="24">Logo full color negative</text>
	</g>
	<g display="inline">
		<text transform="matrix(1 0 0 1 -2055.2935 -3580.7983)" fill="#B9B9B9" font-family="'Roboto-Regular'" font-size="24">Logo Negative</text>
	</g>
	<g display="inline">
		<text transform="matrix(1 0 0 1 -18.0903 -4129.5845)" fill="#B9B9B9" font-family="'Roboto-Regular'" font-size="24">Logo Positive</text>
	</g>
</g>
</svg>
