<?xml version="1.0" encoding="utf-8"?>
<!-- Generator: Adobe Illustrator 16.0.4, SVG Export Plug-In . SVG Version: 6.00 Build 0)  -->
<!DOCTYPE svg PUBLIC "-//W3C//DTD SVG 1.1//EN" "http://www.w3.org/Graphics/SVG/1.1/DTD/svg11.dtd">
<svg version="1.1" id="Layer_1" xmlns="http://www.w3.org/2000/svg" xmlns:xlink="http://www.w3.org/1999/xlink" x="0px" y="0px"
	 width="48px" height="48px" viewBox="0 0 48 48" enable-background="new 0 0 48 48" xml:space="preserve">
<path d="M4.938,15.562C4.312,15.25,4,14.729,4,14s0.312-1.25,0.938-1.562l18.203-8.281c0.572-0.261,1.145-0.261,1.719,0
	l18.203,8.281C43.688,12.75,44,13.271,44,14s-0.312,1.25-0.938,1.562l-18.203,8.281c-0.574,0.261-1.146,0.261-1.719,0L4.938,15.562z
	 M43.062,22.438C43.688,22.75,44,23.284,44,24.039s-0.312,1.263-0.938,1.523l-18.203,8.281c-0.574,0.261-1.146,0.261-1.719,0
	L4.938,25.562C4.312,25.302,4,24.794,4,24.039s0.312-1.289,0.938-1.602l4.609-2.031l12.578,5.703C22.75,26.37,23.375,26.5,24,26.5
	s1.25-0.13,1.875-0.391l12.656-5.703L43.062,22.438z M43.062,32.438C43.688,32.75,44,33.271,44,34s-0.312,1.25-0.938,1.562
	l-18.203,8.281c-0.574,0.261-1.146,0.261-1.719,0L4.938,35.562C4.312,35.25,4,34.729,4,34s0.312-1.25,0.938-1.562l4.531-2.031
	l12.656,5.703C22.75,36.37,23.375,36.5,24,36.5s1.25-0.13,1.875-0.391l12.656-5.703L43.062,32.438z"/>
</svg>
