<?xml version="1.0" encoding="utf-8"?>
<!-- Generator: Adobe Illustrator 16.0.0, SVG Export Plug-In . SVG Version: 6.00 Build 0)  -->
<!DOCTYPE svg PUBLIC "-//W3C//DTD SVG 1.1//EN" "http://www.w3.org/Graphics/SVG/1.1/DTD/svg11.dtd">
<svg version="1.1" id="Layer_1" xmlns="http://www.w3.org/2000/svg" xmlns:xlink="http://www.w3.org/1999/xlink" x="0px" y="0px"
	 width="119px" height="139px" viewBox="0 0 119 139" enable-background="new 0 0 119 139" xml:space="preserve">
<g>
	
		<radialGradient id="SVGID_1_" cx="58.7051" cy="429.6973" r="40.3735" gradientTransform="matrix(1 0 0 0.5846 0 -150.6289)" gradientUnits="userSpaceOnUse">
		<stop  offset="0" style="stop-color:#000000"/>
		<stop  offset="1" style="stop-color:#000000;stop-opacity:0"/>
	</radialGradient>
	<ellipse opacity="0.9" fill="url(#SVGID_1_)" cx="58.705" cy="100.56" rx="40.373" ry="23.602"/>
	<g>
		<g>
			<path fill="#FFFFFF" d="M84.849,46.275c0,14.267-11.561,25.827-25.821,25.827c-14.263,0-25.82-11.561-25.82-25.827
				c0-14.257,11.558-25.817,25.82-25.817C73.288,20.458,84.849,32.019,84.849,46.275z"/>
			<g>
				<path fill="#FF3333" d="M58.703,101.56c-0.282,0-0.55-0.119-0.74-0.327c-0.076-0.083-7.667-8.459-15.153-19.364
					C32.694,67.134,27.565,55.029,27.565,45.892c0-17.17,13.968-31.139,31.138-31.139c17.171,0,31.142,13.969,31.142,31.139
					c0,9.138-5.129,21.242-15.247,35.977c-7.487,10.905-15.08,19.281-15.155,19.364C59.253,101.441,58.985,101.56,58.703,101.56
					L58.703,101.56z M58.703,26.374c-10.763,0-19.52,8.756-19.52,19.518c0,10.761,8.756,19.515,19.52,19.515
					c10.765,0,19.523-8.754,19.523-19.515C78.227,35.129,69.468,26.374,58.703,26.374z"/>
				<path fill="#FFFFFF" d="M58.703,15.753c16.652,0,30.142,13.486,30.142,30.139c0,21.538-30.142,54.668-30.142,54.668
					s-30.138-33.13-30.138-54.668C28.565,29.239,42.07,15.753,58.703,15.753 M58.703,66.407c11.342,0,20.523-9.19,20.523-20.515
					c0-11.327-9.182-20.518-20.523-20.518c-11.329,0-20.52,9.191-20.52,20.518C38.184,57.216,47.374,66.407,58.703,66.407
					 M58.703,13.753c-17.721,0-32.138,14.417-32.138,32.139c0,22.058,29.406,54.638,30.658,56.014
					c0.379,0.417,0.916,0.654,1.479,0.654c0.563,0,1.1-0.237,1.479-0.654c1.252-1.376,30.662-33.956,30.662-56.014
					C90.845,28.17,76.426,13.753,58.703,13.753L58.703,13.753z M58.703,64.407c-10.212,0-18.52-8.306-18.52-18.515
					c0-10.211,8.308-18.518,18.52-18.518c10.214,0,18.523,8.307,18.523,18.518C77.227,56.101,68.917,64.407,58.703,64.407
					L58.703,64.407z"/>
			</g>
			
				<path fill="#FF3333" stroke="#FFFFFF" stroke-width="2" stroke-linecap="round" stroke-linejoin="round" stroke-miterlimit="10" d="
				M58.703,36.223c-5.336,0-9.673,4.323-9.673,9.669c0,5.341,4.337,9.673,9.673,9.673c5.349,0,9.679-4.332,9.679-9.673
				C68.382,40.545,64.052,36.223,58.703,36.223z"/>
		</g>
	</g>
</g>
</svg>
