<?xml version="1.0" encoding="UTF-8" standalone="no"?>
<!-- Created with Inkscape (http://www.inkscape.org/) -->

<svg
   xmlns:dc="http://purl.org/dc/elements/1.1/"
   xmlns:cc="http://creativecommons.org/ns#"
   xmlns:rdf="http://www.w3.org/1999/02/22-rdf-syntax-ns#"
   xmlns:svg="http://www.w3.org/2000/svg"
   xmlns="http://www.w3.org/2000/svg"
   xmlns:sodipodi="http://sodipodi.sourceforge.net/DTD/sodipodi-0.dtd"
   xmlns:inkscape="http://www.inkscape.org/namespaces/inkscape"
   width="160mm"
   height="76mm"
   viewBox="0 0 160 76"
   version="1.1"
   id="svg8"
   inkscape:version="0.92.3 (2405546, 2018-03-11)"
   sodipodi:docname="logo_color.svg">
  <defs
     id="defs2" />
  <sodipodi:namedview
     id="base"
     pagecolor="#ffffff"
     bordercolor="#666666"
     borderopacity="1.0"
     inkscape:pageopacity="0.0"
     inkscape:pageshadow="2"
     inkscape:zoom="0.70000001"
     inkscape:cx="-447.66477"
     inkscape:cy="445.1272"
     inkscape:document-units="mm"
     inkscape:current-layer="layer1"
     showgrid="false"
     inkscape:window-width="3840"
     inkscape:window-height="2020"
     inkscape:window-x="0"
     inkscape:window-y="68"
     inkscape:window-maximized="1" />
  <metadata
     id="metadata5">
    <rdf:RDF>
      <cc:Work
         rdf:about="">
        <dc:format>image/svg+xml</dc:format>
        <dc:type
           rdf:resource="http://purl.org/dc/dcmitype/StillImage" />
        <dc:title />
      </cc:Work>
    </rdf:RDF>
  </metadata>
  <g
     inkscape:label="Layer 1"
     inkscape:groupmode="layer"
     id="layer1"
     transform="translate(0,-221)">
    <path
       style="fill:#2d4470;stroke-width:0.26458332;fill-opacity:1"
       d="m 88.474622,290.41604 c -2.58339,-0.29471 -4.58106,-1.11288 -5.823201,-2.38495 -0.97101,-0.9944 -1.044942,-1.18097 -1.127779,-2.84597 -0.106211,-2.13478 0.359265,-3.06238 2.18111,-4.34654 l 1.18526,-0.83545 -0.789801,-0.4803 c -1.63513,-0.99438 -2.248881,-2.9729 -1.486869,-4.79312 0.40963,-0.97847 2.35505,-2.83577 2.97032,-2.83577 0.241,0 -0.249391,-0.63747 -1.170331,-1.52136 -1.85789,-1.78313 -2.283629,-2.93769 -2.090329,-5.66874 0.27614,-3.90129 3.730279,-7.12784 8.29309,-7.74666 1.49053,-0.20215 4.30248,0.21443 5.448809,0.80722 0.71981,0.37223 0.74125,0.36103 1.14133,-0.59651 0.59652,-1.42766 2.08381,-3.12713 3.200439,-3.65701 1.42691,-0.67711 3.4477,-0.4377 4.25811,0.50446 0.66263,0.77035 0.83001,2.42269 0.33846,3.34117 -0.75018,1.40172 -3.201,1.62455 -4.17994,0.38003 -0.47618,-0.60536 -0.53128,-0.61664 -0.919088,-0.18812 -0.2269,0.25072 -0.540711,0.79295 -0.69735,1.20496 -0.254711,0.66991 -0.191221,0.85842 0.60056,1.78344 1.091608,1.27531 1.500268,2.5784 1.496908,4.77323 -0.008,5.09459 -4.929758,8.70445 -11.242209,8.24523 -1.5717,-0.11434 -1.94888,-0.0563 -2.49151,0.38367 -1.45465,1.1793 -0.175889,1.73902 4.98031,2.17988 7.25413,0.62024 9.914769,2.01911 10.649899,5.59931 0.57891,2.81942 -0.75865,5.19363 -3.878279,6.88406 -2.90245,1.57274 -6.98197,2.25487 -10.847919,1.81384 z m 7.10348,-3.60035 c 2.44997,-0.83479 3.5429,-2.7969 2.22309,-3.99106 -0.93999,-0.85051 -2.14874,-1.1291 -6.13486,-1.41397 -4.17584,-0.29843 -4.103011,-0.32393 -4.69236,1.64314 -0.50305,1.67903 0.37238,3.09981 2.34303,3.80264 1.39927,0.49904 4.74072,0.47729 6.2611,-0.0408 z m -2.18749,-16.84659 c 3.08115,-2.0764 1.8305,-9.9853 -1.57823,-9.98042 -0.98084,0.001 -2.310141,0.88719 -2.82472,1.88229 -1.017021,1.9667 -0.722881,5.6024 0.59301,7.3298 1.12175,1.47256 2.38646,1.7276 3.80994,0.76833 z m -44.425078,9.59633 c -1.930156,-0.28799 -4.551005,-1.63368 -5.735761,-2.94506 -2.846512,-3.15074 -3.678238,-8.62785 -1.968852,-12.96533 1.886614,-4.78721 6.789763,-7.50295 11.879783,-6.57996 4.506669,0.81722 7.132938,3.82832 7.585429,8.69694 l 0.167507,1.80232 -6.950272,0.16845 c -3.822653,0.0926 -7.016649,0.23482 -7.097773,0.31594 -0.271653,0.27166 0.431987,3.55589 1.023736,4.77828 0.361275,0.74629 0.995458,1.48012 1.658133,1.91865 0.927044,0.6135 1.345822,0.71015 3.0768,0.71015 2.32106,0 3.826568,-0.59869 5.435933,-2.16168 l 0.983631,-0.9553 1.052758,1.05276 1.052759,1.05276 -1.328537,1.45363 c -2.614292,2.86046 -6.771626,4.26377 -10.835274,3.65745 z m 5.644538,-15.67514 c -0.559273,-2.79234 -1.322226,-3.63862 -3.278938,-3.63703 -2.064658,0.002 -3.513727,1.33419 -4.099002,3.76932 l -0.174876,0.72761 h 3.86252 3.862522 z M 2.9348645,277.51633 c 0.07431,-1.42472 0.12382,-1.5265 0.779449,-1.60242 0.385055,-0.0446 0.920836,-0.32473 1.190625,-0.62254 0.444187,-0.49033 0.498383,-1.15127 0.573706,-6.99654 l 0.08318,-6.45506 h -1.472243 -1.472243 v -1.6825 -1.68249 l 2.189349,-0.13659 c 1.407701,-0.0878 2.671755,-0.34412 3.540537,-0.71786 0.770888,-0.33162 1.7339505,-0.54465 2.2424215,-0.49602 0.819628,0.0784 0.8978,0.16444 0.972963,1.07092 l 0.08173,0.98567 0.976605,-0.61172 c 1.787492,-1.11963 3.509408,-1.62523 5.474521,-1.60744 2.067001,0.0187 3.203951,0.4738 4.368177,1.74846 l 0.716251,0.78419 1.266463,-0.80316 c 1.951699,-1.23773 3.700269,-1.74266 5.952233,-1.71881 2.312834,0.0245 3.678359,0.59354 4.978939,2.07482 1.503714,1.71263 1.758672,3.19692 1.763578,10.26701 l 0.0044,6.28386 1.256771,-1e-5 h 1.256771 v 1.71979 1.7198 H 34.23509 28.811132 v -1.5875 c 0,-1.36666 0.06791,-1.5875 0.488159,-1.5875 0.268488,0 0.714973,-0.25074 0.992187,-0.55719 0.461378,-0.51004 0.504029,-1.01938 0.504029,-6.01927 0,-4.59229 -0.07222,-5.6216 -0.453499,-6.4638 -0.821094,-1.81367 -2.879243,-2.1845 -5.292153,-0.95352 -0.906555,0.46248 -0.98751,0.58649 -0.806058,1.23468 0.110939,0.3963 0.199252,3.3697 0.196249,6.60753 l -0.0054,5.88698 h 1.262231 1.262232 v 1.71979 1.7198 h -5.569453 -5.569454 l 0.07935,-1.52136 c 0.06907,-1.32433 0.152866,-1.53183 0.647032,-1.60228 0.312225,-0.0445 0.788475,-0.32464 1.058333,-0.62251 0.427643,-0.47204 0.502186,-1.1057 0.580483,-4.93443 0.107164,-5.2403 -0.06379,-6.88281 -0.834806,-8.02057 -0.754528,-1.11343 -1.750022,-1.43856 -3.17933,-1.03838 -2.304493,0.64522 -2.217526,0.35993 -2.362974,7.75151 l -0.128857,6.54843 h 1.289838 1.289839 v 1.71979 1.7198 H 8.5573645 2.8556195 l 0.07935,-1.52136 z m 59.4783045,-0.0661 c 0,-1.4819 0.04063,-1.5875 0.610888,-1.5875 1.749013,0 2.020464,-1.12408 2.028632,-8.40052 l 0.0063,-5.6224 h -1.455207 -1.455208 v -1.68049 -1.68049 l 2.233596,-0.15763 c 1.379217,-0.0973 2.733516,-0.37269 3.540538,-0.71986 0.735708,-0.31649 1.696476,-0.52497 2.198173,-0.47698 l 0.891233,0.0853 0.132292,1.71979 0.132292,1.71979 0.59581,-0.83529 c 0.746863,-1.04706 2.752254,-2.39134 4.114686,-2.7582 2.248193,-0.60538 4.42527,0.46607 4.956632,2.4394 0.74322,2.76011 -1.799314,5.00465 -4.316182,3.81032 -0.547105,-0.25962 -1.070012,-0.76672 -1.257593,-1.21958 -0.176602,-0.42636 -0.476107,-0.77519 -0.66557,-0.77519 -0.556107,0 -2.002064,1.35104 -2.810801,2.62629 l -0.749274,1.18148 v 5.23986 5.23987 h 1.322917 1.322917 v 1.71979 1.71979 h -5.688542 -5.688541 z m 43.391661,0 c 0,-1.48897 0.0385,-1.5875 0.62045,-1.5875 0.34125,0 0.84727,-0.25031 1.12448,-0.55625 0.45823,-0.5057 0.51605,-1.14285 0.63632,-7.01182 l 0.13229,-6.45557 -1.53398,3.7e-4 -1.53398,3.7e-4 0.0788,-1.65365 0.0788,-1.65364 2.00571,-0.16314 c 1.99655,-0.16238 3.85223,-0.61632 4.33106,-1.05945 0.13824,-0.12796 0.82988,-0.23264 1.53697,-0.23264 h 1.28563 l -0.0818,9.26059 -0.0818,9.26059 1.38906,-1.7e-4 1.38906,-1.7e-4 v 1.71979 1.71979 h -5.68854 -5.68854 z m 12.96458,0.13229 c 0,-1.2649 0.0673,-1.45521 0.51442,-1.45521 0.28292,0 0.84847,-0.28715 1.25677,-0.63813 l 0.74235,-0.63812 0.0832,-6.50562 0.0832,-6.50563 h -1.47225 -1.47224 v -1.68249 -1.6825 l 2.18935,-0.13659 c 1.4077,-0.0878 2.67175,-0.34411 3.54054,-0.71785 0.77088,-0.33163 1.73395,-0.54466 2.24242,-0.49602 0.81462,0.0779 0.89812,0.1677 0.97138,1.0444 l 0.0802,0.95916 1.37506,-0.73897 c 5.15891,-2.77242 9.89424,-1.54845 11.46609,2.9637 0.42762,1.22754 0.4923,2.25606 0.4923,7.82883 v 6.41563 l 1.38906,5.2e-4 1.38906,5.3e-4 v 1.7198 1.71979 h -5.68854 -5.68854 v -1.45521 c 0,-1.2896 0.0616,-1.45521 0.54119,-1.45521 0.29766,0 0.84188,-0.30068 1.20938,-0.66818 l 0.66818,-0.66819 -0.0849,-5.61567 c -0.077,-5.09141 -0.13547,-5.70214 -0.62658,-6.54173 -1.02232,-1.74773 -3.28669,-1.9642 -5.60988,-0.53629 l -0.8599,0.52852 v 6.48618 6.48618 h 1.32292 1.32292 v 1.71979 1.71979 h -5.68855 -5.68854 z m -8.45872,-24.28327 c -1.60878,-0.81405 -2.33662,-3.26408 -1.46844,-4.94296 1.67585,-3.24074 6.223,-1.99156 6.223,1.70957 0,2.62722 -2.5395,4.35423 -4.75456,3.23339 z"
       id="path855"
       inkscape:connector-curvature="0" />
    <path
       style="fill:#fe9627;fill-opacity:1;stroke-width:0.26458335"
       d="m 146.11409,227.45227 c -0.69264,0 -10.83831,5.68821 -10.83831,6.08166 2.7676,1.91654 4.84445,3.08477 7.81938,4.92646 1.23693,0.76341 2.28246,1.39685 2.32337,1.40766 0.0717,0.0189 11.2301,-6.30539 11.37243,-6.4456 0.15475,-0.15244 -10.24951,-5.97018 -10.67687,-5.97018 z m 11.26857,6.92361 -5.35523,3.04064 c -2.9453,1.67238 -5.4966,3.15878 -5.66994,3.30264 -0.34578,0.28698 -0.52282,11.87435 -0.18655,12.21063 0.1,0.1 0.97527,-0.26351 1.9451,-0.8077 6.69279,-3.75552 8.72724,-5.01609 8.98343,-5.56607 0.17392,-0.37337 0.28319,-2.83929 0.28319,-6.39393 z m -22.87148,0.0501 c -0.11189,1.06738 -0.21333,3.00696 -0.2253,5.73609 -0.012,2.72912 0.10875,6.02055 0.28267,6.39392 0.25618,0.54999 1.62246,1.81056 8.31525,5.56607 0.96983,0.54419 1.8451,0.90771 1.9451,0.8077 0.33627,-0.33628 0.15975,-11.92365 -0.18603,-12.21062 -0.17334,-0.14386 -2.85708,-1.41677 -5.67046,-3.30264 z"
       id="path891"
       inkscape:connector-curvature="0"
       sodipodi:nodetypes="sccccsccccccsccccccccc" />
  </g>
</svg>
