<?xml version="1.0" encoding="UTF-8"?><svg xmlns="http://www.w3.org/2000/svg" viewBox="0 0 696.55 128.12"><defs><style>.e{fill:#2d052d;}.f{fill:#00a884;}</style></defs><g id="a"/><g id="b"/><g id="c"/><g id="d"><g><g><g><path class="f" d="M428.32,38.86h18.22v7.4c4.46-5.98,9.97-8.73,17.08-8.73,6.65,0,11.2,2.66,15,8.73,4.84-5.98,10.44-8.83,17.84-8.83,11.86,0,18.7,6.46,18.7,17.46v34.36h-19.74v-26.96c0-6.17-1.9-9.02-6.74-9.02s-7.12,2.94-7.12,9.21v26.77h-19.65v-26.29c0-6.74-1.9-9.68-7.02-9.68-4.46,0-6.83,3.04-6.83,8.92v27.05h-19.74V38.86Z"/><path class="f" d="M557.31,84.42c-5.13,4.56-10.92,6.64-18.32,6.64-11.48,0-17.84-5.88-17.84-16.04,0-11.2,7.02-14.33,21.92-16.23,9.68-1.23,13.86-.76,13.86-5.41,0-2.94-2.37-4.18-7.21-4.18-4.18,0-6.36,1.61-6.74,5.03h-19.55c.19-11.3,9.3-17.18,26.96-17.18,9.21,0,16.23,1.99,19.65,4.27,5.32,3.61,6.45,7.4,6.45,14.14v28.1c0,1.8,.76,3.32,2.18,4.27v1.42h-20.12l-1.23-4.84Zm-15.76-9.97c0,2.85,1.99,4.56,5.69,4.56,6.74,0,9.59-3.04,9.59-9.68,0-.85,0-1.71-.1-2.56-9.3,3.51-15.19,2.85-15.19,7.69Z"/><path class="f" d="M585.31,38.86h17.75v6.45c3.99-5.41,9.11-7.78,16.33-7.78,12.81,0,21.92,10.44,21.92,26.67s-8.83,26.77-22.31,26.77c-6.17,0-10.72-1.99-14.24-6.45v24.96h-19.46V38.86Zm27.91,13.67c-5.98,0-8.45,3.7-8.45,11.67s2.75,11.39,8.26,11.39,8.26-3.8,8.26-11.39-2.56-11.67-8.07-11.67Z"/><path class="f" d="M663.61,73.41c0,4.27,2.18,6.36,6.55,6.36s6.55-1.52,6.55-4.18c0-3.61-2.85-3.99-8.45-5.22-15.57-3.32-22.78-6.07-22.78-16.71s8.45-16.61,24.77-16.61c15.09,0,23.35,5.41,24.58,15.85h-18.03c-.28-2.94-2.75-4.94-6.36-4.94s-5.41,1.33-5.41,3.51c0,3.61,3.32,3.61,9.59,5.03,15,3.42,21.92,6.17,21.92,17.08,0,11.48-9.02,17.46-26.67,17.46-16.33,0-24.87-5.88-25.72-17.65h19.46Z"/></g><polygon class="f" points="64.06 106.77 106.77 106.77 106.77 21.35 64.06 21.35 64.06 0 128.12 0 128.12 128.12 64.06 128.12 64.06 106.77"/><path class="f" d="M29.51,64.06c0,19.09,15.47,34.55,34.55,34.55V29.51c-19.09,0-34.55,15.47-34.55,34.55Z"/></g><g><g><path class="e" d="M209.98,57.65c0-8.83-1.61-13-9.11-13-7.97,0-12.72,5.13-12.72,14.24v29.33h-8.45v-30.56c0-8.83-1.61-13-9.11-13-7.88,0-12.72,5.22-12.72,14.24v29.33h-8.35V38.58h7.97v7.02c3.7-5.6,8.64-8.26,15.47-8.26,6.26,0,10.44,2.47,13.57,7.78,4.27-5.32,9.21-7.78,15.95-7.78s11.39,2.47,13.86,6.74c1.9,3.42,1.99,7.59,1.99,12.91v31.23h-8.35v-30.56Z"/><path class="e" d="M269.78,72.18c-1.8,11.01-10.06,17.65-21.74,17.65-13.67,0-22.31-9.78-22.31-25.91,0-17.18,8.64-26.96,22.31-26.96s22.4,9.02,22.4,25.15c0,1.23,0,2.47-.09,3.7h-35.88c.19,10.54,5.51,16.42,14.33,16.42,6.83,0,11.39-3.61,12.72-10.06h8.26Zm-8.07-13.29c-.09-9.4-4.94-14.52-13.38-14.52s-13.1,5.03-13.86,14.52h27.24Z"/><path class="e" d="M277.18,38.58h8.07v8.92c2.66-6.74,7.21-9.97,13.76-9.97,.76,0,1.42,0,2.18,.09v8.83c-.66-.09-1.33-.09-1.99-.09-8.92,0-13.67,4.94-13.67,14.24v27.62h-8.35V38.58Z"/><path class="e" d="M325.78,89.83c-13.29,0-22.31-10.44-22.31-26.58s8.92-26.29,22.4-26.29c7.5,0,11.96,3.23,15.66,7.88v-6.26h8.07v48.6c0,15.09-6.65,21.73-23.16,21.73-13.38,0-20.98-5.6-20.98-14.52v-.38h8.16v.19c0,5.13,4.37,7.69,13.1,7.69,10.73,0,14.81-3.89,14.81-12.91v-6.83c-3.89,5.13-9.11,7.69-15.76,7.69Zm-13.57-26.39c0,12.05,5.6,18.89,14.71,18.89,10.16,0,14.9-5.98,14.9-18.6s-5.13-19.27-15-19.27c-9.3,0-14.62,6.64-14.62,18.98Z"/><path class="e" d="M359.47,19.97h8.35v9.49h-8.35v-9.49Zm0,18.6h8.35v49.64h-8.35V38.58Z"/><path class="e" d="M410.72,57.65c0-8.83-1.99-12.91-9.97-12.91-9.21,0-14.71,5.41-14.71,15.19v28.29h-8.35V38.58h7.97v7.21c3.8-5.69,9.02-8.45,15.95-8.45,7.5,0,12.62,2.28,15.38,6.74,2.09,3.23,2.18,7.12,2.18,11.96v32.18h-8.45v-30.56Z"/></g><polygon class="e" points="64.06 106.77 21.35 106.77 21.35 21.35 64.06 21.35 64.06 0 0 0 0 128.12 64.06 128.12 64.06 106.77"/><path class="e" d="M98.61,64.06c0,19.09-15.47,34.55-34.55,34.55V29.51c19.09,0,34.55,15.47,34.55,34.55Z"/></g></g></g></svg>