<?xml version="1.0" encoding="UTF-8"?><svg xmlns="http://www.w3.org/2000/svg" viewBox="0 0 699.19 206.67"><defs><style>.e{fill:#2d052d;}.f{fill:#00a884;}</style></defs><g id="a"/><g id="b"/><g id="c"/><g id="d"><g><g><g><path class="f" d="M420.05,81.03h16.13v6.55c3.95-5.29,8.82-7.73,15.12-7.73,5.88,0,9.91,2.35,13.27,7.73,4.28-5.29,9.24-7.81,15.79-7.81,10.5,0,16.55,5.71,16.55,15.46v30.41h-17.47v-23.86c0-5.46-1.68-7.98-5.96-7.98s-6.3,2.6-6.3,8.15v23.69h-17.39v-23.27c0-5.96-1.68-8.57-6.22-8.57-3.95,0-6.05,2.69-6.05,7.9v23.94h-17.47v-44.6Z"/><path class="f" d="M534.2,121.35c-4.54,4.03-9.66,5.88-16.21,5.88-10.16,0-15.79-5.21-15.79-14.2,0-9.91,6.22-12.68,19.4-14.36,8.57-1.09,12.26-.67,12.26-4.79,0-2.6-2.1-3.7-6.38-3.7-3.7,0-5.63,1.43-5.96,4.45h-17.3c.17-10,8.23-15.2,23.86-15.2,8.15,0,14.36,1.76,17.39,3.78,4.7,3.19,5.71,6.55,5.71,12.52v24.86c0,1.6,.67,2.94,1.93,3.78v1.26h-17.81l-1.09-4.28Zm-13.94-8.82c0,2.52,1.76,4.03,5.04,4.03,5.96,0,8.48-2.69,8.48-8.57,0-.76,0-1.51-.08-2.27-8.23,3.11-13.44,2.52-13.44,6.8Z"/><path class="f" d="M558.98,81.03h15.71v5.71c3.53-4.79,8.06-6.89,14.45-6.89,11.34,0,19.4,9.24,19.4,23.6s-7.81,23.69-19.74,23.69c-5.46,0-9.49-1.76-12.6-5.71v22.09h-17.22v-62.5Zm24.7,12.1c-5.29,0-7.48,3.28-7.48,10.33s2.44,10.08,7.31,10.08,7.31-3.36,7.31-10.08-2.27-10.33-7.14-10.33Z"/><path class="f" d="M628.28,111.61c0,3.78,1.93,5.63,5.8,5.63s5.8-1.34,5.8-3.7c0-3.19-2.52-3.53-7.48-4.62-13.78-2.94-20.16-5.38-20.16-14.78s7.48-14.7,21.92-14.7c13.36,0,20.66,4.79,21.76,14.03h-15.96c-.25-2.6-2.44-4.37-5.63-4.37s-4.79,1.18-4.79,3.11c0,3.19,2.94,3.19,8.48,4.45,13.27,3.02,19.4,5.46,19.4,15.12,0,10.16-7.98,15.46-23.6,15.46-14.45,0-22.01-5.21-22.76-15.62h17.22Z"/></g><polygon class="f" points="97.68 141.13 135.47 141.13 135.47 65.54 97.68 65.54 97.68 46.64 154.37 46.64 154.37 160.03 97.68 160.03 97.68 141.13"/><path class="f" d="M67.1,103.33c0,16.89,13.69,30.58,30.58,30.58v-61.15c-16.89,0-30.58,13.69-30.58,30.57Z"/></g><g><g><path class="e" d="M226.82,97.67c0-7.81-1.43-11.51-8.06-11.51-7.06,0-11.26,4.54-11.26,12.6v25.96h-7.48v-27.05c0-7.81-1.43-11.51-8.06-11.51-6.97,0-11.26,4.62-11.26,12.6v25.96h-7.39v-43.93h7.06v6.22c3.28-4.96,7.64-7.31,13.69-7.31,5.54,0,9.24,2.18,12.01,6.89,3.78-4.7,8.15-6.89,14.11-6.89s10.08,2.18,12.26,5.96c1.68,3.02,1.76,6.72,1.76,11.42v27.64h-7.39v-27.05Z"/><path class="e" d="M279.74,110.52c-1.6,9.74-8.9,15.62-19.24,15.62-12.1,0-19.74-8.65-19.74-22.93,0-15.2,7.64-23.86,19.74-23.86s19.82,7.98,19.82,22.26c0,1.09,0,2.18-.08,3.28h-31.75c.17,9.32,4.87,14.53,12.68,14.53,6.05,0,10.08-3.19,11.26-8.9h7.31Zm-7.14-11.76c-.08-8.32-4.37-12.85-11.84-12.85s-11.59,4.45-12.26,12.85h24.11Z"/><path class="e" d="M286.29,80.78h7.14v7.9c2.35-5.96,6.38-8.82,12.18-8.82,.67,0,1.26,0,1.93,.08v7.81c-.59-.08-1.18-.08-1.76-.08-7.9,0-12.1,4.37-12.1,12.6v24.44h-7.39v-43.93Z"/><path class="e" d="M329.3,126.14c-11.76,0-19.74-9.24-19.74-23.52s7.9-23.27,19.82-23.27c6.64,0,10.58,2.86,13.86,6.97v-5.54h7.14v43.01c0,13.36-5.88,19.24-20.5,19.24-11.84,0-18.56-4.96-18.56-12.85v-.34h7.22v.17c0,4.54,3.86,6.8,11.59,6.8,9.49,0,13.1-3.44,13.1-11.42v-6.05c-3.44,4.54-8.06,6.8-13.94,6.8Zm-12.01-23.35c0,10.67,4.96,16.72,13.02,16.72,8.99,0,13.19-5.29,13.19-16.46s-4.54-17.05-13.27-17.05c-8.23,0-12.94,5.88-12.94,16.8Z"/><path class="e" d="M359.12,64.32h7.39v8.4h-7.39v-8.4Zm0,16.46h7.39v43.93h-7.39v-43.93Z"/><path class="e" d="M404.48,97.67c0-7.81-1.76-11.42-8.82-11.42-8.15,0-13.02,4.79-13.02,13.44v25.03h-7.39v-43.93h7.06v6.38c3.36-5.04,7.98-7.48,14.11-7.48,6.64,0,11.17,2.02,13.61,5.96,1.85,2.86,1.93,6.3,1.93,10.58v28.48h-7.48v-27.05Z"/></g><polygon class="e" points="97.68 141.13 59.88 141.13 59.88 65.54 97.68 65.54 97.68 46.64 40.99 46.64 40.99 160.03 97.68 160.03 97.68 141.13"/><path class="e" d="M128.26,103.33c0,16.89-13.69,30.58-30.58,30.58v-61.15c16.89,0,30.58,13.69,30.58,30.57Z"/></g></g></g></svg>