<?xml version="1.0" encoding="UTF-8"?><svg xmlns="http://www.w3.org/2000/svg" viewBox="0 0 451.27 385.46"><defs><style>.e{fill:#2d052d;}.f{fill:#00a884;}</style></defs><g id="a"/><g id="b"/><g id="c"/><g id="d"><g><g><g><path class="f" d="M228.75,281.75h10.74v4.36c2.63-3.52,5.87-5.15,10.07-5.15,3.92,0,6.6,1.57,8.84,5.15,2.85-3.52,6.15-5.2,10.52-5.2,6.99,0,11.02,3.8,11.02,10.29v20.25h-11.64v-15.89c0-3.64-1.12-5.32-3.97-5.32s-4.2,1.73-4.2,5.43v15.78h-11.58v-15.5c0-3.97-1.12-5.71-4.14-5.71-2.63,0-4.03,1.79-4.03,5.26v15.94h-11.64v-29.71Z"/><path class="f" d="M304.78,308.6c-3.02,2.69-6.43,3.92-10.8,3.92-6.77,0-10.52-3.47-10.52-9.45,0-6.6,4.14-8.45,12.92-9.57,5.71-.73,8.17-.45,8.17-3.19,0-1.73-1.4-2.46-4.25-2.46-2.46,0-3.75,.95-3.97,2.97h-11.52c.11-6.66,5.48-10.13,15.89-10.13,5.43,0,9.57,1.18,11.58,2.52,3.13,2.13,3.8,4.36,3.8,8.34v16.56c0,1.06,.45,1.96,1.29,2.52v.84h-11.86l-.73-2.85Zm-9.29-5.87c0,1.68,1.17,2.68,3.36,2.68,3.97,0,5.65-1.79,5.65-5.71,0-.5,0-1.01-.06-1.51-5.48,2.07-8.95,1.68-8.95,4.53Z"/><path class="f" d="M321.28,281.75h10.46v3.8c2.35-3.19,5.37-4.59,9.62-4.59,7.55,0,12.92,6.15,12.92,15.72s-5.2,15.78-13.15,15.78c-3.64,0-6.32-1.17-8.39-3.8v14.71h-11.47v-41.62Zm16.45,8.06c-3.52,0-4.98,2.18-4.98,6.88s1.62,6.71,4.87,6.71,4.87-2.24,4.87-6.71-1.51-6.88-4.76-6.88Z"/><path class="f" d="M367.43,302.11c0,2.52,1.29,3.75,3.86,3.75s3.86-.89,3.86-2.46c0-2.13-1.68-2.35-4.98-3.08-9.17-1.96-13.43-3.58-13.43-9.85s4.98-9.79,14.6-9.79c8.89,0,13.76,3.19,14.49,9.34h-10.63c-.17-1.73-1.62-2.91-3.75-2.91s-3.19,.78-3.19,2.07c0,2.13,1.96,2.13,5.65,2.97,8.84,2.01,12.92,3.64,12.92,10.07,0,6.77-5.31,10.29-15.72,10.29-9.62,0-14.66-3.47-15.16-10.41h11.47Z"/></g><polygon class="f" points="225.63 218.59 288.23 218.59 288.23 93.39 225.63 93.39 225.63 62.09 319.53 62.09 319.53 249.89 225.63 249.89 225.63 218.59"/><path class="f" d="M174.99,155.98c0,27.98,22.67,50.65,50.65,50.65V105.35c-27.98,0-50.65,22.67-50.65,50.64Z"/></g><g><g><path class="e" d="M100.06,292.82c0-5.2-.95-7.66-5.37-7.66-4.7,0-7.5,3.02-7.5,8.39v17.29h-4.98v-18.01c0-5.2-.95-7.66-5.37-7.66-4.64,0-7.5,3.08-7.5,8.39v17.29h-4.92v-29.26h4.7v4.14c2.18-3.3,5.09-4.87,9.12-4.87,3.69,0,6.15,1.45,8,4.59,2.52-3.13,5.43-4.59,9.4-4.59s6.71,1.45,8.17,3.97c1.12,2.01,1.17,4.48,1.17,7.61v18.41h-4.92v-18.01Z"/><path class="e" d="M135.3,301.38c-1.06,6.49-5.93,10.41-12.81,10.41-8.06,0-13.15-5.76-13.15-15.27,0-10.13,5.09-15.89,13.15-15.89s13.2,5.31,13.2,14.83c0,.73,0,1.45-.06,2.18h-21.15c.11,6.21,3.24,9.68,8.45,9.68,4.03,0,6.71-2.13,7.5-5.93h4.87Zm-4.76-7.83c-.06-5.54-2.91-8.56-7.89-8.56s-7.72,2.97-8.17,8.56h16.06Z"/><path class="e" d="M139.67,281.58h4.76v5.26c1.57-3.97,4.25-5.87,8.11-5.87,.45,0,.84,0,1.29,.06v5.2c-.39-.06-.78-.06-1.17-.06-5.26,0-8.06,2.91-8.06,8.39v16.28h-4.92v-29.26Z"/><path class="e" d="M168.31,311.79c-7.83,0-13.15-6.15-13.15-15.66s5.26-15.5,13.2-15.5c4.42,0,7.05,1.9,9.23,4.64v-3.69h4.76v28.64c0,8.89-3.92,12.81-13.65,12.81-7.89,0-12.36-3.3-12.36-8.56v-.22h4.81v.11c0,3.02,2.57,4.53,7.72,4.53,6.32,0,8.73-2.29,8.73-7.61v-4.03c-2.29,3.02-5.37,4.53-9.29,4.53Zm-8-15.55c0,7.1,3.3,11.13,8.67,11.13,5.99,0,8.78-3.52,8.78-10.97s-3.02-11.36-8.84-11.36c-5.48,0-8.62,3.92-8.62,11.19Z"/><path class="e" d="M188.17,270.61h4.92v5.59h-4.92v-5.59Zm0,10.97h4.92v29.26h-4.92v-29.26Z"/><path class="e" d="M218.38,292.82c0-5.2-1.18-7.61-5.87-7.61-5.43,0-8.67,3.19-8.67,8.95v16.67h-4.92v-29.26h4.7v4.25c2.24-3.36,5.31-4.98,9.4-4.98,4.42,0,7.44,1.34,9.06,3.97,1.23,1.9,1.29,4.2,1.29,7.05v18.96h-4.98v-18.01Z"/></g><polygon class="e" points="225.63 218.59 163.03 218.59 163.03 93.39 225.63 93.39 225.63 62.09 131.74 62.09 131.74 249.89 225.63 249.89 225.63 218.59"/><path class="e" d="M276.28,155.98c0,27.98-22.67,50.65-50.65,50.65V105.35c27.98,0,50.65,22.67,50.65,50.64Z"/></g></g></g></svg>