<?xml version="1.0" encoding="utf-8"?>
<!-- Generator: Adobe Illustrator 16.0.4, SVG Export Plug-In . SVG Version: 6.00 Build 0)  -->
<!DOCTYPE svg PUBLIC "-//W3C//DTD SVG 1.1//EN" "http://www.w3.org/Graphics/SVG/1.1/DTD/svg11.dtd">
<svg version="1.1" id="Layer_1" xmlns="http://www.w3.org/2000/svg" xmlns:xlink="http://www.w3.org/1999/xlink" x="0px" y="0px"
	 width="48px" height="48px" viewBox="0 0 48 48" enable-background="new 0 0 48 48" xml:space="preserve">
<path d="M10.25,18.375c1.562,0,2.891,0.547,3.984,1.641s1.641,2.422,1.641,3.984s-0.547,2.891-1.641,3.984s-2.422,1.641-3.984,1.641
	s-2.891-0.547-3.984-1.641S4.625,25.562,4.625,24s0.547-2.891,1.641-3.984S8.688,18.375,10.25,18.375z M29.625,24
	c0-1.562-0.547-2.891-1.641-3.984S25.562,18.375,24,18.375s-2.891,0.547-3.984,1.641S18.375,22.438,18.375,24
	s0.547,2.891,1.641,3.984s2.422,1.641,3.984,1.641s2.891-0.547,3.984-1.641S29.625,25.562,29.625,24z M37.75,18.375
	c1.562,0,2.891,0.547,3.984,1.641s1.641,2.422,1.641,3.984s-0.547,2.891-1.641,3.984s-2.422,1.641-3.984,1.641
	s-2.891-0.547-3.984-1.641S32.125,25.562,32.125,24s0.547-2.891,1.641-3.984S36.188,18.375,37.75,18.375z"/>
</svg>
