<?xml version="1.0" encoding="utf-8"?>
<!-- Generator: Adobe Illustrator 16.0.4, SVG Export Plug-In . SVG Version: 6.00 Build 0)  -->
<!DOCTYPE svg PUBLIC "-//W3C//DTD SVG 1.1//EN" "http://www.w3.org/Graphics/SVG/1.1/DTD/svg11.dtd">
<svg version="1.1" id="Layer_1" xmlns="http://www.w3.org/2000/svg" xmlns:xlink="http://www.w3.org/1999/xlink" x="0px" y="0px"
	 width="48px" height="48px" viewBox="0 0 48 48" enable-background="new 0 0 48 48" xml:space="preserve">
<g>
	<path d="M29.234,24l7.812,7.812c0.469,0.469,0.703,1.042,0.703,1.719s-0.234,1.276-0.703,1.797l-1.719,1.719
		c-0.521,0.469-1.12,0.703-1.797,0.703s-1.25-0.234-1.719-0.703L24,29.234l-7.812,7.812c-0.469,0.469-1.042,0.703-1.719,0.703
		s-1.276-0.234-1.797-0.703l-1.719-1.719c-0.469-0.521-0.703-1.12-0.703-1.797s0.234-1.25,0.703-1.719L18.766,24l-7.812-7.812
		c-0.469-0.469-0.703-1.042-0.703-1.719s0.234-1.276,0.703-1.797l1.719-1.719c0.521-0.469,1.12-0.703,1.797-0.703
		s1.25,0.234,1.719,0.703L24,18.766l7.812-7.812c0.469-0.469,1.042-0.703,1.719-0.703s1.276,0.234,1.797,0.703l1.719,1.719
		c0.469,0.521,0.703,1.12,0.703,1.797s-0.234,1.25-0.703,1.719L29.234,24z"/>
</g>
</svg>
