<?xml version="1.0" encoding="utf-8"?>
<!-- Generator: Adobe Illustrator 16.0.4, SVG Export Plug-In . SVG Version: 6.00 Build 0)  -->
<!DOCTYPE svg PUBLIC "-//W3C//DTD SVG 1.1//EN" "http://www.w3.org/Graphics/SVG/1.1/DTD/svg11.dtd">
<svg version="1.1" id="Layer_1" xmlns="http://www.w3.org/2000/svg" xmlns:xlink="http://www.w3.org/1999/xlink" x="0px" y="0px"
	 width="34px" height="30px" viewBox="-2 0 34 30" enable-background="new -2 0 34 30" xml:space="preserve">
<path d="M-0.703,12.653L6.27,9.84c0.273,0.859,0.684,1.777,1.23,2.754v13.652l-8.086,3.691c-0.312,0.117-0.605,0.078-0.879-0.117
	s-0.41-0.449-0.41-0.762V14.411c0-0.391,0.107-0.742,0.322-1.055S-1.055,12.809-0.703,12.653z M15-0.003
	c1.328,0,2.559,0.332,3.691,0.996s2.031,1.562,2.695,2.695s0.996,2.363,0.996,3.691c0,1.445-0.879,3.496-2.637,6.152
	c-1.133,1.68-2.48,3.457-4.043,5.332c-0.195,0.234-0.429,0.352-0.703,0.352c-0.273,0-0.508-0.117-0.703-0.352
	c-1.562-1.875-2.91-3.652-4.043-5.332c-1.758-2.656-2.637-4.707-2.637-6.152c0-1.328,0.332-2.559,0.996-3.691
	s1.562-2.031,2.695-2.695S13.672-0.003,15-0.003z M15,21.09c0.859,0,1.582-0.332,2.168-0.996c1.289-1.562,2.441-3.066,3.457-4.512
	v14.414l-11.25-3.75V15.582c1.016,1.445,2.168,2.949,3.457,4.512C13.418,20.758,14.141,21.09,15,21.09z M15,9.84
	c0.664,0,1.24-0.244,1.729-0.732s0.732-1.064,0.732-1.729s-0.244-1.24-0.732-1.729S15.664,4.918,15,4.918s-1.24,0.244-1.729,0.732
	s-0.732,1.064-0.732,1.729s0.244,1.24,0.732,1.729S14.336,9.84,15,9.84z M30.586,9.43c0.312-0.117,0.605-0.078,0.879,0.117
	s0.41,0.449,0.41,0.762v14.648c0,0.391-0.107,0.742-0.322,1.055s-0.498,0.547-0.85,0.703L22.5,29.996V13.122L30.586,9.43z"/>
</svg>
