<?xml version="1.0" encoding="utf-8"?>
<!-- Generator: Adobe Illustrator 16.0.0, SVG Export Plug-In . SVG Version: 6.00 Build 0)  -->
<!DOCTYPE svg PUBLIC "-//W3C//DTD SVG 1.1//EN" "http://www.w3.org/Graphics/SVG/1.1/DTD/svg11.dtd">
<svg version="1.1" id="Layer_1" xmlns="http://www.w3.org/2000/svg" xmlns:xlink="http://www.w3.org/1999/xlink" x="0px" y="0px"
	 width="48px" height="48px" viewBox="-2.375 -6.857 48 48" enable-background="new -2.375 -6.857 48 48" xml:space="preserve">
<g>
	<g>
		<path d="M41.625,33.081c0,0.52-0.184,0.963-0.547,1.328l-2.188,2.188c-0.365,0.363-0.809,0.547-1.328,0.547
			c-0.521,0-0.965-0.184-1.328-0.547l-7.812-7.812c-0.365-0.363-0.547-0.807-0.547-1.328v-1.25c-2.918,2.293-6.25,3.438-10,3.438
			c-2.969,0-5.691-0.729-8.164-2.188c-2.475-1.457-4.441-3.424-5.898-5.898c-1.459-2.473-2.188-5.195-2.188-8.164
			s0.729-5.689,2.188-8.164C5.27,2.756,7.237,0.79,9.711-0.669c2.473-1.457,5.195-2.188,8.164-2.188s5.689,0.73,8.164,2.188
			c2.473,1.459,4.439,3.426,5.898,5.898c1.457,2.475,2.188,5.195,2.188,8.164c0,3.75-1.146,7.084-3.438,10h1.25
			c0.52,0,0.963,0.184,1.328,0.547l7.812,7.812C41.442,32.118,41.625,32.559,41.625,33.081z M22.915,22.065
			c1.535-0.885,2.746-2.096,3.633-3.633c0.885-1.535,1.328-3.215,1.328-5.039c0-1.822-0.443-3.502-1.328-5.039
			c-0.887-1.535-2.098-2.746-3.633-3.633c-1.537-0.885-3.217-1.328-5.039-1.328c-1.824,0-3.504,0.443-5.039,1.328
			c-1.537,0.887-2.748,2.098-3.633,3.633c-0.887,1.537-1.328,3.217-1.328,5.039c0,1.824,0.441,3.504,1.328,5.039
			c0.885,1.537,2.096,2.748,3.633,3.633c1.535,0.887,3.215,1.328,5.039,1.328C19.698,23.393,21.377,22.952,22.915,22.065z"/>
	</g>
</g>
</svg>
