<?xml version="1.0" encoding="utf-8"?>
<!-- Generator: Adobe Illustrator 16.0.4, SVG Export Plug-In . SVG Version: 6.00 Build 0)  -->
<!DOCTYPE svg PUBLIC "-//W3C//DTD SVG 1.1//EN" "http://www.w3.org/Graphics/SVG/1.1/DTD/svg11.dtd">
<svg version="1.1" id="Layer_1" xmlns="http://www.w3.org/2000/svg" xmlns:xlink="http://www.w3.org/1999/xlink" x="0px" y="0px"
	 width="30px" height="30px" viewBox="0 0 30 30" enable-background="new 0 0 30 30" xml:space="preserve">
<path d="M28.536,18.516c0.156,0.078,0.264,0.195,0.322,0.352s0.068,0.312,0.029,0.469c-0.664,2.07-1.738,3.906-3.223,5.508
	c-0.117,0.117-0.254,0.195-0.41,0.234s-0.312,0.02-0.469-0.059l-2.461-1.465c-1.055,0.898-2.246,1.582-3.574,2.051v2.871
	c0,0.156-0.049,0.303-0.146,0.439s-0.225,0.225-0.381,0.264c-2.148,0.469-4.297,0.469-6.446,0c-0.156-0.039-0.283-0.127-0.381-0.264
	s-0.146-0.283-0.146-0.439v-2.871c-1.328-0.469-2.52-1.152-3.574-2.051L5.215,25.02c-0.156,0.078-0.312,0.098-0.469,0.059
	s-0.293-0.117-0.41-0.234c-1.484-1.602-2.559-3.438-3.223-5.508c-0.039-0.156-0.029-0.312,0.029-0.469s0.166-0.273,0.322-0.352
	l2.461-1.465c-0.234-1.367-0.234-2.734,0-4.102l-2.461-1.465c-0.156-0.078-0.264-0.195-0.322-0.352s-0.068-0.312-0.029-0.469
	c0.664-2.07,1.738-3.906,3.223-5.508c0.117-0.117,0.254-0.195,0.41-0.234s0.312-0.02,0.469,0.059l2.461,1.465
	c1.055-0.898,2.246-1.582,3.574-2.051V1.523c0-0.156,0.049-0.303,0.146-0.439s0.225-0.225,0.381-0.264
	c2.148-0.469,4.297-0.469,6.446,0c0.156,0.039,0.283,0.127,0.381,0.264s0.146,0.283,0.146,0.439v2.871
	c1.328,0.469,2.52,1.152,3.574,2.051l2.461-1.465c0.156-0.078,0.312-0.098,0.469-0.059s0.293,0.117,0.41,0.234
	c1.484,1.602,2.559,3.438,3.223,5.508c0.039,0.156,0.029,0.312-0.029,0.469s-0.166,0.273-0.322,0.352l-2.461,1.465
	c0.234,1.367,0.234,2.734,0,4.102L28.536,18.516z M18.312,11.689c-0.918-0.918-2.021-1.377-3.311-1.377
	c-1.289,0-2.393,0.459-3.311,1.377S10.313,13.711,10.313,15s0.459,2.393,1.377,3.311s2.021,1.377,3.311,1.377
	c1.29,0,2.393-0.459,3.311-1.377s1.377-2.021,1.377-3.311S19.229,12.607,18.312,11.689z"/>
</svg>
