<?xml version="1.0" encoding="utf-8"?>
<!-- Generator: Adobe Illustrator 16.0.4, SVG Export Plug-In . SVG Version: 6.00 Build 0)  -->
<!DOCTYPE svg PUBLIC "-//W3C//DTD SVG 1.1//EN" "http://www.w3.org/Graphics/SVG/1.1/DTD/svg11.dtd">
<svg version="1.1" id="Layer_1" xmlns="http://www.w3.org/2000/svg" xmlns:xlink="http://www.w3.org/1999/xlink" x="0px" y="0px"
	 width="48px" height="48px" viewBox="0 0 48 48" enable-background="new 0 0 48 48" xml:space="preserve">
<path d="M6.5,8.375c0-0.521,0.182-0.964,0.547-1.328C7.41,6.683,7.854,6.5,8.375,6.5h8.75l0.703-1.484
	c0.156-0.312,0.391-0.56,0.703-0.742S19.182,4,19.547,4h8.906c0.363,0,0.703,0.091,1.016,0.273s0.547,0.43,0.703,0.742L30.875,6.5
	h8.75c0.52,0,0.963,0.183,1.328,0.547C41.316,7.411,41.5,7.854,41.5,8.375v2.188c0,0.261-0.092,0.481-0.273,0.664
	c-0.184,0.183-0.404,0.273-0.664,0.273H7.438c-0.262,0-0.482-0.091-0.664-0.273C6.59,11.044,6.5,10.823,6.5,10.562V8.375z M39,40.25
	c0,1.042-0.365,1.927-1.094,2.656C37.176,43.636,36.291,44,35.25,44h-22.5c-1.043,0-1.928-0.364-2.656-1.094
	C9.363,42.177,9,41.292,9,40.25V14.938c0-0.261,0.09-0.481,0.273-0.664C9.455,14.091,9.676,14,9.938,14h28.125
	c0.26,0,0.48,0.091,0.664,0.273C38.908,14.456,39,14.677,39,14.938V40.25z M17.398,19.352C17.164,19.117,16.863,19,16.5,19
	c-0.365,0-0.664,0.117-0.898,0.352s-0.352,0.534-0.352,0.898v17.5c0,0.364,0.117,0.664,0.352,0.898S16.135,39,16.5,39
	c0.363,0,0.664-0.117,0.898-0.352s0.352-0.534,0.352-0.898v-17.5C17.75,19.886,17.633,19.586,17.398,19.352z M24.898,19.352
	C24.664,19.117,24.363,19,24,19c-0.365,0-0.664,0.117-0.898,0.352s-0.352,0.534-0.352,0.898v17.5c0,0.364,0.117,0.664,0.352,0.898
	S23.635,39,24,39c0.363,0,0.664-0.117,0.898-0.352s0.352-0.534,0.352-0.898v-17.5C25.25,19.886,25.133,19.586,24.898,19.352z
	 M32.398,19.352C32.164,19.117,31.863,19,31.5,19c-0.365,0-0.664,0.117-0.898,0.352s-0.352,0.534-0.352,0.898v17.5
	c0,0.364,0.117,0.664,0.352,0.898S31.135,39,31.5,39c0.363,0,0.664-0.117,0.898-0.352s0.352-0.534,0.352-0.898v-17.5
	C32.75,19.886,32.633,19.586,32.398,19.352z"/>
</svg>
