<?xml version="1.0" encoding="utf-8"?>
<!-- Generator: Adobe Illustrator 16.0.4, SVG Export Plug-In . SVG Version: 6.00 Build 0)  -->
<!DOCTYPE svg PUBLIC "-//W3C//DTD SVG 1.1//EN" "http://www.w3.org/Graphics/SVG/1.1/DTD/svg11.dtd">
<svg version="1.1" id="Layer_1" xmlns="http://www.w3.org/2000/svg" xmlns:xlink="http://www.w3.org/1999/xlink" x="0px" y="0px"
	 width="48px" height="48px" viewBox="0 0 48 48" enable-background="new 0 0 48 48" xml:space="preserve">
<path d="M40.758,33.688c-1.746,2.969-4.102,5.325-7.07,7.07S27.488,43.375,24,43.375c-3.49,0-6.719-0.872-9.688-2.617
	s-5.326-4.102-7.07-7.07C5.496,30.719,4.625,27.489,4.625,24s0.871-6.719,2.617-9.688c1.744-2.969,4.102-5.325,7.07-7.07
	S20.51,4.625,24,4.625c3.488,0,6.719,0.872,9.688,2.617s5.324,4.102,7.07,7.07c1.744,2.969,2.617,6.198,2.617,9.688
	S42.502,30.719,40.758,33.688z M36.109,19.859C36.369,19.651,36.5,19.364,36.5,19s-0.131-0.651-0.391-0.859l-1.719-1.797
	c-0.262-0.261-0.561-0.391-0.898-0.391c-0.34,0-0.639,0.13-0.898,0.391L20.875,28.062l-5.469-5.469
	c-0.262-0.261-0.561-0.391-0.898-0.391c-0.34,0-0.639,0.13-0.898,0.391l-1.719,1.797c-0.262,0.208-0.391,0.495-0.391,0.859
	s0.129,0.651,0.391,0.859l8.125,8.125c0.207,0.261,0.494,0.391,0.859,0.391c0.363,0,0.65-0.13,0.859-0.391L36.109,19.859z"/>
</svg>
