<?xml version="1.0" encoding="utf-8"?>
<!-- Generator: Adobe Illustrator 16.0.4, SVG Export Plug-In . SVG Version: 6.00 Build 0)  -->
<!DOCTYPE svg PUBLIC "-//W3C//DTD SVG 1.1//EN" "http://www.w3.org/Graphics/SVG/1.1/DTD/svg11.dtd">
<svg version="1.1" id="Layer_1" xmlns="http://www.w3.org/2000/svg" xmlns:xlink="http://www.w3.org/1999/xlink" x="0px" y="0px"
	 width="30px" height="30px" viewBox="0 0 30 30" enable-background="new 0 0 30 30" xml:space="preserve">
<path d="M28.125,26.719c0,0.391-0.137,0.723-0.41,0.996s-0.605,0.41-0.996,0.41h-6.562c-0.391,0-0.723-0.137-0.996-0.41
	s-0.41-0.605-0.41-0.996s0.137-0.723,0.41-0.996l2.109-2.109L15,17.344l-6.27,6.27l2.109,2.109c0.273,0.273,0.41,0.605,0.41,0.996
	s-0.137,0.723-0.41,0.996s-0.605,0.41-0.996,0.41H3.281c-0.391,0-0.723-0.137-0.996-0.41s-0.41-0.605-0.41-0.996v-6.562
	c0-0.391,0.137-0.723,0.41-0.996s0.605-0.41,0.996-0.41s0.723,0.137,0.996,0.41l2.109,2.109L12.715,15L6.387,8.73L4.277,10.84
	c-0.273,0.273-0.605,0.41-0.996,0.41s-0.723-0.137-0.996-0.41s-0.41-0.605-0.41-0.996V3.281c0-0.391,0.137-0.723,0.41-0.996
	s0.605-0.41,0.996-0.41h6.562c0.391,0,0.723,0.137,0.996,0.41s0.41,0.605,0.41,0.996s-0.137,0.723-0.41,0.996L8.73,6.387l6.27,6.27
	l6.27-6.27L19.16,4.277c-0.273-0.273-0.41-0.605-0.41-0.996s0.137-0.723,0.41-0.996s0.605-0.41,0.996-0.41h6.562
	c0.391,0,0.723,0.137,0.996,0.41s0.41,0.605,0.41,0.996v6.562c0,0.391-0.137,0.723-0.41,0.996s-0.605,0.41-0.996,0.41
	s-0.723-0.137-0.996-0.41L23.613,8.73L17.344,15l6.27,6.27l2.109-2.109c0.273-0.273,0.605-0.41,0.996-0.41s0.723,0.137,0.996,0.41
	s0.41,0.605,0.41,0.996V26.719z"/>
</svg>
