<?xml version="1.0" encoding="UTF-8" standalone="no"?><!-- Generator: Gravit.io --><svg xmlns="http://www.w3.org/2000/svg" xmlns:xlink="http://www.w3.org/1999/xlink" style="isolation:isolate" viewBox="0 0 108 108" width="108pt" height="108pt"><defs><clipPath id="_clipPath_8wybGwKgOQxfT2hcPzZwAPgThJhyRGj0"><rect width="108" height="108"/></clipPath></defs><g clip-path="url(#_clipPath_8wybGwKgOQxfT2hcPzZwAPgThJhyRGj0)"><path d=" M 108 108 L 0 108 L 0 0 L 108 0 L 108 108" fill="rgb(0,71,52)"/><radialGradient id="_rgradient_0" fx="53.7402" fy="54.2212" cx="53.7402" cy="54.2212" r="32.7379" gradientTransform="matrix(65.436,0,0,65.436,21.282,21.282)" gradientUnits="userSpaceOnUse"><stop offset="0%" stop-opacity="1" style="stop-color:rgb(0,97,70)"/><stop offset="58.330000000000005%" stop-opacity="1" style="stop-color:rgb(0,95,69)"/><stop offset="79.86999999999999%" stop-opacity="1" style="stop-color:rgb(0,88,64)"/><stop offset="95.3%" stop-opacity="1" style="stop-color:rgb(0,76,56)"/><stop offset="100%" stop-opacity="1" style="stop-color:rgb(0,71,52)"/></radialGradient><circle vector-effect="non-scaling-stroke" cx="54" cy="54" r="32.718" fill="url(#_rgradient_0)"/><g style="opacity:0.1;"><g opacity="0.1"><mask id="_mask_mLvc888xXThpJ1l1TGJKbu2uxCHBd9zO" x="-200%" y="-200%" width="400%" height="400%"><rect x="-200%" y="-200%" width="400%" height="400%" style="fill:white;"/><line x1="5.328" y1="0" x2="5.328" y2="108" fill="black" stroke="none"/></mask><line x1="5.328" y1="0" x2="5.328" y2="108" mask="url(#_mask_mLvc888xXThpJ1l1TGJKbu2uxCHBd9zO)" vector-effect="non-scaling-stroke" stroke-width="1" stroke="rgb(255,255,255)" stroke-linejoin="miter" stroke-linecap="butt" stroke-miterlimit="10"/></g><g opacity="0.1"><mask id="_mask_vhWmYNPW22vgEdtmou8RjyAQc5cqlF8N" x="-200%" y="-200%" width="400%" height="400%"><rect x="-200%" y="-200%" width="400%" height="400%" style="fill:white;"/><line x1="24.646" y1="0" x2="24.646" y2="108" fill="black" stroke="none"/></mask><line x1="24.646" y1="0" x2="24.646" y2="108" mask="url(#_mask_vhWmYNPW22vgEdtmou8RjyAQc5cqlF8N)" vector-effect="non-scaling-stroke" stroke-width="1" stroke="rgb(255,255,255)" stroke-linejoin="miter" stroke-linecap="butt" stroke-miterlimit="10"/></g><g opacity="0.1"><mask id="_mask_TmFs3Gt1f7pxJOqBanZTRzcOgM8YfyT9" x="-200%" y="-200%" width="400%" height="400%"><rect x="-200%" y="-200%" width="400%" height="400%" style="fill:white;"/><line x1="43.963" y1="0" x2="43.963" y2="108" fill="black" stroke="none"/></mask><line x1="43.963" y1="0" x2="43.963" y2="108" mask="url(#_mask_TmFs3Gt1f7pxJOqBanZTRzcOgM8YfyT9)" vector-effect="non-scaling-stroke" stroke-width="1" stroke="rgb(255,255,255)" stroke-linejoin="miter" stroke-linecap="butt" stroke-miterlimit="10"/></g><g opacity="0.1"><mask id="_mask_mjdlpoXHGRUTOuu9LuDEHmUgtBn0SjC1" x="-200%" y="-200%" width="400%" height="400%"><rect x="-200%" y="-200%" width="400%" height="400%" style="fill:white;"/><line x1="63.281" y1="0" x2="63.281" y2="108" fill="black" stroke="none"/></mask><line x1="63.281" y1="0" x2="63.281" y2="108" mask="url(#_mask_mjdlpoXHGRUTOuu9LuDEHmUgtBn0SjC1)" vector-effect="non-scaling-stroke" stroke-width="1" stroke="rgb(255,255,255)" stroke-linejoin="miter" stroke-linecap="butt" stroke-miterlimit="10"/></g><g opacity="0.1"><mask id="_mask_x1w9Oeaxr5MsMGP6vHkWY3PmBr50T8lV" x="-200%" y="-200%" width="400%" height="400%"><rect x="-200%" y="-200%" width="400%" height="400%" style="fill:white;"/><line x1="82.599" y1="0" x2="82.599" y2="108" fill="black" stroke="none"/></mask><line x1="82.599" y1="0" x2="82.599" y2="108" mask="url(#_mask_x1w9Oeaxr5MsMGP6vHkWY3PmBr50T8lV)" vector-effect="non-scaling-stroke" stroke-width="1" stroke="rgb(255,255,255)" stroke-linejoin="miter" stroke-linecap="butt" stroke-miterlimit="10"/></g><g opacity="0.1"><mask id="_mask_34DfnnoP90zT2dLaeTAwu0xE74KJ6ZS6" x="-200%" y="-200%" width="400%" height="400%"><rect x="-200%" y="-200%" width="400%" height="400%" style="fill:white;"/><line x1="101.916" y1="0" x2="101.916" y2="108" fill="black" stroke="none"/></mask><line x1="101.916" y1="0" x2="101.916" y2="108" mask="url(#_mask_34DfnnoP90zT2dLaeTAwu0xE74KJ6ZS6)" vector-effect="non-scaling-stroke" stroke-width="1" stroke="rgb(255,255,255)" stroke-linejoin="miter" stroke-linecap="butt" stroke-miterlimit="10"/></g><g opacity="0.1"><mask id="_mask_yhOnHVU4fZxzAS8wULGP0Ac3f0xjsAte" x="-200%" y="-200%" width="400%" height="400%"><rect x="-200%" y="-200%" width="400%" height="400%" style="fill:white;"/><line x1="0" y1="101.794" x2="108" y2="101.794" fill="black" stroke="none"/></mask><line x1="0" y1="101.794" x2="108" y2="101.794" mask="url(#_mask_yhOnHVU4fZxzAS8wULGP0Ac3f0xjsAte)" vector-effect="non-scaling-stroke" stroke-width="1" stroke="rgb(255,255,255)" stroke-linejoin="miter" stroke-linecap="butt" stroke-miterlimit="10"/></g><g opacity="0.1"><mask id="_mask_vuve5W6HZxhBhWg7Z8Ew8PSPSHE3IjpK" x="-200%" y="-200%" width="400%" height="400%"><rect x="-200%" y="-200%" width="400%" height="400%" style="fill:white;"/><line x1="0" y1="82.477" x2="108" y2="82.477" fill="black" stroke="none"/></mask><line x1="0" y1="82.477" x2="108" y2="82.477" mask="url(#_mask_vuve5W6HZxhBhWg7Z8Ew8PSPSHE3IjpK)" vector-effect="non-scaling-stroke" stroke-width="1" stroke="rgb(255,255,255)" stroke-linejoin="miter" stroke-linecap="butt" stroke-miterlimit="10"/></g><g opacity="0.1"><mask id="_mask_UvkL3uun5YPPSv8SWG7T31IZvBIVgFFm" x="-200%" y="-200%" width="400%" height="400%"><rect x="-200%" y="-200%" width="400%" height="400%" style="fill:white;"/><line x1="0" y1="63.159" x2="108" y2="63.159" fill="black" stroke="none"/></mask><line x1="0" y1="63.159" x2="108" y2="63.159" mask="url(#_mask_UvkL3uun5YPPSv8SWG7T31IZvBIVgFFm)" vector-effect="non-scaling-stroke" stroke-width="1" stroke="rgb(255,255,255)" stroke-linejoin="miter" stroke-linecap="butt" stroke-miterlimit="10"/></g><g opacity="0.1"><mask id="_mask_xn1ZHPlmeIihiVAb3w7G1MXgk8ZZSfpg" x="-200%" y="-200%" width="400%" height="400%"><rect x="-200%" y="-200%" width="400%" height="400%" style="fill:white;"/><line x1="0" y1="43.841" x2="108" y2="43.841" fill="black" stroke="none"/></mask><line x1="0" y1="43.841" x2="108" y2="43.841" mask="url(#_mask_xn1ZHPlmeIihiVAb3w7G1MXgk8ZZSfpg)" vector-effect="non-scaling-stroke" stroke-width="1" stroke="rgb(255,255,255)" stroke-linejoin="miter" stroke-linecap="butt" stroke-miterlimit="10"/></g><g opacity="0.1"><mask id="_mask_Cau3bRxLN4rSwSyPYRiNUFnE4IPucuvq" x="-200%" y="-200%" width="400%" height="400%"><rect x="-200%" y="-200%" width="400%" height="400%" style="fill:white;"/><line x1="0" y1="24.523" x2="108" y2="24.523" fill="black" stroke="none"/></mask><line x1="0" y1="24.523" x2="108" y2="24.523" mask="url(#_mask_Cau3bRxLN4rSwSyPYRiNUFnE4IPucuvq)" vector-effect="non-scaling-stroke" stroke-width="1" stroke="rgb(255,255,255)" stroke-linejoin="miter" stroke-linecap="butt" stroke-miterlimit="10"/></g><g opacity="0.1"><mask id="_mask_vFAnOBkTCXuMpx0kssb19PRpx7nRQPpU" x="-200%" y="-200%" width="400%" height="400%"><rect x="-200%" y="-200%" width="400%" height="400%" style="fill:white;"/><line x1="0" y1="5.206" x2="108" y2="5.206" fill="black" stroke="none"/></mask><line x1="0" y1="5.206" x2="108" y2="5.206" mask="url(#_mask_vFAnOBkTCXuMpx0kssb19PRpx7nRQPpU)" vector-effect="non-scaling-stroke" stroke-width="1" stroke="rgb(255,255,255)" stroke-linejoin="miter" stroke-linecap="butt" stroke-miterlimit="10"/></g></g><g><g opacity="0.2"><circle vector-effect="non-scaling-stroke" cx="54" cy="65.1975" r="25.602000000000004" fill="rgb(253,150,38)"/></g><g opacity="0.5"><circle vector-effect="non-scaling-stroke" cx="54.001000000000005" cy="65.1975" r="18.229" fill="rgb(253,150,38)"/></g><radialGradient id="_rgradient_1" fx="54.001" fy="53.9961" cx="54.001" cy="53.9961" r="14.2485" gradientTransform="matrix(28.498,0,0,28.495,39.751,50.95)" gradientUnits="userSpaceOnUse"><stop offset="0%" stop-opacity="1" style="stop-color:rgb(0,0,0)"/><stop offset="16.24%" stop-opacity="1" style="stop-color:rgb(54,54,54)"/><stop offset="39.21%" stop-opacity="1" style="stop-color:rgb(125,125,125)"/><stop offset="59.9%" stop-opacity="1" style="stop-color:rgb(181,181,181)"/><stop offset="77.57%" stop-opacity="1" style="stop-color:rgb(221,221,221)"/><stop offset="91.51%" stop-opacity="1" style="stop-color:rgb(246,246,246)"/><stop offset="100%" stop-opacity="1" style="stop-color:rgb(255,255,255)"/></radialGradient><path d=" M 53.992 50.951 C 46.125 50.954 39.749 57.335 39.751 65.204 C 39.758 73.072 46.139 79.449 54.008 79.446 C 61.876 79.438 68.251 73.058 68.249 65.192 C 68.245 57.32 61.862 50.946 53.992 50.951 Z " fill="url(#_rgradient_1)"/><circle vector-effect="non-scaling-stroke" cx="54" cy="65.1975" r="10.903000000000002" fill="rgb(253,150,38)"/><circle vector-effect="non-scaling-stroke" cx="54" cy="65.1975" r="10.903000000000002" fill="rgb(253,150,38)"/><radialGradient id="_rgradient_2" fx="54.001" fy="53.9961" cx="54.001" cy="53.9961" r="8.6382" gradientTransform="matrix(17.276,0,0,17.276,45.362,56.56)" gradientUnits="userSpaceOnUse"><stop offset="0%" stop-opacity="1" style="stop-color:rgb(0,0,0)"/><stop offset="16.24%" stop-opacity="1" style="stop-color:rgb(54,54,54)"/><stop offset="39.21%" stop-opacity="1" style="stop-color:rgb(125,125,125)"/><stop offset="59.9%" stop-opacity="1" style="stop-color:rgb(181,181,181)"/><stop offset="77.57%" stop-opacity="1" style="stop-color:rgb(221,221,221)"/><stop offset="91.51%" stop-opacity="1" style="stop-color:rgb(246,246,246)"/><stop offset="100%" stop-opacity="1" style="stop-color:rgb(255,255,255)"/></radialGradient><circle vector-effect="non-scaling-stroke" cx="54" cy="65.1975" r="8.637999999999998" fill="url(#_rgradient_2)"/><linearGradient id="_lgradient_0" x1="0.4997849157975962" y1="-0.40865097165320863" x2="0.5004301359755475" y2="0.9837341723615994" gradientTransform="matrix(50.533,0,0,54.148,28.733,11.048)" gradientUnits="userSpaceOnUse"><stop offset="0%" stop-opacity="0" style="stop-color:rgb(253,150,38)"/><stop offset="100%" stop-opacity="1" style="stop-color:rgb(253,150,38)"/></linearGradient><path d=" M 28.733 11.048 L 54.032 65.197 L 79.266 11.048 L 28.733 11.048 Z " fill="url(#_lgradient_0)"/><circle vector-effect="non-scaling-stroke" cx="54" cy="65.1975" r="5.471000000000004" fill="rgb(255,255,255)"/><g><radialGradient id="_rgradient_3" fx="54.0908" fy="2.4731" cx="54.0908" cy="2.4731" r="50.678" gradientTransform="matrix(63.5,0,0,63.5,22.25,33.451)" gradientUnits="userSpaceOnUse"><stop offset="0%" stop-opacity="1" style="stop-color:rgb(255,255,255)"/><stop offset="100%" stop-opacity="0" style="stop-color:rgb(255,255,255)"/></radialGradient><circle vector-effect="non-scaling-stroke" cx="54" cy="65.2015" r="31.75" fill="url(#_rgradient_3)"/></g></g></g></svg>