<?xml version="1.0" encoding="utf-8"?>
<!-- Generator: Adobe Illustrator 16.0.0, SVG Export Plug-In . SVG Version: 6.00 Build 0)  -->
<!DOCTYPE svg PUBLIC "-//W3C//DTD SVG 1.1//EN" "http://www.w3.org/Graphics/SVG/1.1/DTD/svg11.dtd">
<svg version="1.1" id="Layer_1" xmlns="http://www.w3.org/2000/svg" xmlns:xlink="http://www.w3.org/1999/xlink" x="0px" y="0px"
	 width="108px" height="108px" viewBox="0 0 108 108" enable-background="new 0 0 108 108" xml:space="preserve">
<polyline fill="#004734" points="108,108 0,108 0,0 108,0 108,108 "/>
<radialGradient id="SVGID_1_" cx="53.7402" cy="54.2212" r="32.7379" gradientUnits="userSpaceOnUse">
	<stop  offset="0" style="stop-color:#006146"/>
	<stop  offset="0.5833" style="stop-color:#005F45"/>
	<stop  offset="0.7987" style="stop-color:#005840"/>
	<stop  offset="0.953" style="stop-color:#004C38"/>
	<stop  offset="1" style="stop-color:#004734"/>
</radialGradient>
<circle fill="url(#SVGID_1_)" cx="54" cy="54" r="32.718"/>
<g opacity="0.1">
	<line fill="none" stroke="#FFFFFF" stroke-width="0.5" stroke-miterlimit="10" x1="5.328" y1="0" x2="5.328" y2="108"/>
	<line fill="none" stroke="#FFFFFF" stroke-width="0.5" stroke-miterlimit="10" x1="24.646" y1="0" x2="24.646" y2="108"/>
	<line fill="none" stroke="#FFFFFF" stroke-width="0.5" stroke-miterlimit="10" x1="43.963" y1="0" x2="43.963" y2="108"/>
	<line fill="none" stroke="#FFFFFF" stroke-width="0.5" stroke-miterlimit="10" x1="63.281" y1="0" x2="63.281" y2="108"/>
	<line fill="none" stroke="#FFFFFF" stroke-width="0.5" stroke-miterlimit="10" x1="82.599" y1="0" x2="82.599" y2="108"/>
	<line fill="none" stroke="#FFFFFF" stroke-width="0.5" stroke-miterlimit="10" x1="101.916" y1="0" x2="101.916" y2="108"/>
	<line fill="none" stroke="#FFFFFF" stroke-width="0.5" stroke-miterlimit="10" x1="0" y1="101.794" x2="108" y2="101.794"/>
	<line fill="none" stroke="#FFFFFF" stroke-width="0.5" stroke-miterlimit="10" x1="0" y1="82.477" x2="108" y2="82.477"/>
	<line fill="none" stroke="#FFFFFF" stroke-width="0.5" stroke-miterlimit="10" x1="0" y1="63.159" x2="108" y2="63.159"/>
	<line fill="none" stroke="#FFFFFF" stroke-width="0.5" stroke-miterlimit="10" x1="0" y1="43.841" x2="108" y2="43.841"/>
	<line fill="none" stroke="#FFFFFF" stroke-width="0.5" stroke-miterlimit="10" x1="0" y1="24.523" x2="108" y2="24.523"/>
	<line fill="none" stroke="#FFFFFF" stroke-width="0.5" stroke-miterlimit="10" x1="0" y1="5.206" x2="108" y2="5.206"/>
</g>
</svg>
