<svg width="154" height="126" viewBox="0 0 154 126" fill="none" xmlns="http://www.w3.org/2000/svg">
<path fill-rule="evenodd" clip-rule="evenodd" d="M151 6C152.657 6 154 4.65645 154 3.00003C154 1.34254 152.657 0 151 0C149.344 0 148 1.34254 148 3.00003C148 4.65645 149.344 6 151 6ZM143 26C145.761 26 148 23.7622 148 21C148 18.239 145.761 16 143 16C140.239 16 138 18.239 138 21C138 23.7622 140.239 26 143 26ZM38 10C38 11.6575 36.6575 13 35 13C33.3436 13 32 11.6575 32 10C32 8.34356 33.3436 7 35 7C36.6575 7 38 8.34356 38 10ZM6 86C9.31385 86 12 83.3115 12 80C12 76.6885 9.31385 74 6 74C2.68615 74 0 76.6885 0 80C0 83.3115 2.68615 86 6 86ZM144 66.0006C144 99.1893 117.136 126 84 126C50.8639 126 24 99.1893 24 66.0006C24 32.8108 50.8639 6 84 6C117.018 6 144 32.8108 144 66.0006Z" fill="#B7CDC4"/>
</svg>
