<svg width="75" height="78" viewBox="0 0 75 78" fill="none" xmlns="http://www.w3.org/2000/svg">
<g clip-path="url(#clip0_1158_12580)">
<path d="M38.4737 58.6981L58.1667 55.2257L51.221 15.8348L31.528 19.3072L29.791 9.45605L59.335 4.24665L69.7539 63.3353L40.2099 68.5447L38.4737 58.6981Z" fill="#73D19C"/>
<path d="M19.0621 41.8113C20.6145 50.6156 29.0064 56.4877 37.806 54.9361L32.1866 23.0673C23.3825 24.6197 17.5105 33.0117 19.0621 41.8113Z" fill="#73D19C"/>
<path d="M38.4728 58.6977L18.7753 62.1709L11.8296 22.78L31.5271 19.3068L29.7901 9.45563L0.246094 14.665L10.665 73.7536L40.209 68.5442L38.4728 58.6977Z" fill="#73D19C"/>
<path d="M50.9338 36.1911C52.4862 44.9954 46.6088 53.3836 37.8093 54.9352L32.1899 23.0664C40.9941 21.514 49.3822 27.3915 50.9338 36.1911Z" fill="#73D19C"/>
</g>
<g clip-path="url(#clip1_1158_12580)">
<path d="M40.4737 54.6981L60.1667 51.2257L53.221 11.8348L33.528 15.3072L31.791 5.45605L61.335 0.246648L71.7539 59.3353L42.2099 64.5447L40.4737 54.6981Z" fill="white"/>
<path d="M21.0621 37.8113C22.6145 46.6156 31.0064 52.4877 39.806 50.9361L34.1866 19.0673C25.3825 20.6197 19.5105 29.0117 21.0621 37.8113Z" fill="white"/>
<path d="M40.4728 54.6977L20.7753 58.1709L13.8296 18.78L33.5271 15.3068L31.7901 5.45563L2.24609 10.665L12.665 69.7536L42.209 64.5442L40.4728 54.6977Z" fill="#004C45"/>
<path d="M52.9338 32.1911C54.4862 40.9954 48.6088 49.3836 39.8093 50.9352L34.1899 19.0664C42.9941 17.514 51.3822 23.3915 52.9338 32.1911Z" fill="#004C45"/>
</g>
<defs>
<clipPath id="clip0_1158_12580">
<rect width="64" height="64" fill="white" transform="translate(0.246094 14.665) rotate(-10)"/>
</clipPath>
<clipPath id="clip1_1158_12580">
<rect width="60" height="60" fill="white" transform="translate(2.24609 10.665) rotate(-10)"/>
</clipPath>
</defs>
</svg>
