<svg width="50" height="50" viewBox="0 0 50 50" fill="none" xmlns="http://www.w3.org/2000/svg">
<path d="M25 50C38.8067 50 50 38.8289 50 25.0003C50 11.1712 38.7574 0 25 0C11.1933 0 0 11.1712 0 25.0003C0 38.8289 11.1933 50 25 50Z" fill="#5A2740"/>
<path d="M25 16C29.9707 16 34 20.0277 34 24.9964C34.0019 27.3584 33.0744 29.6264 31.4178 31.3107C29.7612 32.995 27.5084 33.9605 25.1458 33.9988C22.7832 34.0371 20.5003 33.145 18.79 31.5153C17.0797 29.8855 16.0792 27.6487 16.0045 25.2879L16 24.9964L16.0036 24.7445C16.1368 19.8928 20.113 16 25 16ZM25.009 27.6954L24.8947 27.7017C24.676 27.7277 24.4743 27.833 24.3281 27.9976C24.1818 28.1623 24.101 28.3748 24.101 28.595C24.101 28.8152 24.1818 29.0278 24.3281 29.1924C24.4743 29.3571 24.676 29.4624 24.8947 29.4884L25 29.4947L25.1143 29.4884C25.333 29.4624 25.5346 29.3571 25.6809 29.1924C25.8272 29.0278 25.908 28.8152 25.908 28.595C25.908 28.3748 25.8272 28.1623 25.6809 27.9976C25.5346 27.833 25.333 27.7277 25.1143 27.7017L25.009 27.6954ZM25 20.4982C24.7796 20.4982 24.5668 20.5791 24.4021 20.7256C24.2373 20.872 24.1321 21.0738 24.1063 21.2926L24.1 21.3979V24.9964L24.1063 25.1017C24.1323 25.3204 24.2377 25.5219 24.4024 25.6681C24.5671 25.8143 24.7797 25.8951 25 25.8951C25.2203 25.8951 25.4329 25.8143 25.5976 25.6681C25.7623 25.5219 25.8677 25.3204 25.8937 25.1017L25.9 24.9964V21.3979L25.8937 21.2926C25.8679 21.0738 25.7627 20.872 25.5979 20.7256C25.4332 20.5791 25.2204 20.4982 25 20.4982Z" fill="#F0C4BC"/>
</svg>
