<svg width="50" height="50" viewBox="0 0 50 50" fill="none" xmlns="http://www.w3.org/2000/svg">
<path d="M25 50C38.8067 50 50 38.8289 50 25.0003C50 11.1712 38.7574 0 25 0C11.1933 0 0 11.1712 0 25.0003C0 38.8289 11.1933 50 25 50Z" fill="#BEDAF0"/>
<path d="M25 34C29.9707 34 34 29.9723 34 25.0036C34.0019 22.6416 33.0744 20.3736 31.4178 18.6893C29.7612 17.005 27.5084 16.0395 25.1458 16.0012C22.7832 15.9629 20.5003 16.855 18.79 18.4847C17.0797 20.1145 16.0792 22.3513 16.0045 24.7121L16 25.0036L16.0036 25.2555C16.1368 30.1072 20.113 34 25 34ZM25.009 22.3046L24.8947 22.2983C24.676 22.2723 24.4743 22.167 24.3281 22.0024C24.1818 21.8377 24.101 21.6252 24.101 21.405C24.101 21.1848 24.1818 20.9722 24.3281 20.8076C24.4743 20.6429 24.676 20.5376 24.8947 20.5116L25 20.5053L25.1143 20.5116C25.333 20.5376 25.5346 20.6429 25.6809 20.8076C25.8272 20.9722 25.908 21.1848 25.908 21.405C25.908 21.6252 25.8272 21.8377 25.6809 22.0024C25.5346 22.167 25.333 22.2723 25.1143 22.2983L25.009 22.3046ZM25 29.5018C24.7796 29.5018 24.5668 29.4209 24.4021 29.2744C24.2373 29.128 24.1321 28.9262 24.1063 28.7074L24.1 28.6021V25.0036L24.1063 24.8983C24.1323 24.6796 24.2377 24.4781 24.4024 24.3319C24.5671 24.1857 24.7797 24.1049 25 24.1049C25.2203 24.1049 25.4329 24.1857 25.5976 24.3319C25.7623 24.4781 25.8677 24.6796 25.8937 24.8983L25.9 25.0036V28.6021L25.8937 28.7074C25.8679 28.9262 25.7627 29.128 25.5979 29.2744C25.4332 29.4209 25.2204 29.5018 25 29.5018Z" fill="#1C324A"/>
</svg>
