<svg width="50" height="50" viewBox="0 0 50 50" fill="none" xmlns="http://www.w3.org/2000/svg">
<path d="M25 50C38.8067 50 50 38.8289 50 25.0003C50 11.1712 38.7574 0 25 0C11.1933 0 0 11.1712 0 25.0003C0 38.8289 11.1933 50 25 50Z" fill="#004C45"/>
<path d="M28.6252 34.0585C28.6116 32.8471 26.9919 31.8672 24.991 31.8672C22.9766 31.8535 21.3433 32.8471 21.3433 34.0585V37.3796L21.3569 38.591C21.3433 38.6591 21.3433 38.7135 21.3433 38.7816C21.3433 39.993 22.963 40.9866 24.9774 41.0002C26.9919 41.0138 28.6252 40.0202 28.6252 38.8088C28.6252 38.7407 28.6252 38.6591 28.6116 38.591L28.6252 37.3796V34.0585Z" fill="#262533"/>
<g opacity="0.1">
<path d="M24.964 36.3439C23.1402 36.3439 21.6702 35.5001 21.3163 34.6834C21.2618 34.8059 21.221 35.0781 21.3435 35.1462V35.5409C21.7246 36.4256 23.0993 37.3512 24.8551 37.3512C26.7471 37.3512 28.3532 36.5481 28.6526 35.6498C28.6526 35.6498 28.6526 35.4048 28.6526 35.3095C28.6526 35.187 28.6799 35.1053 28.6254 34.9828C28.2443 35.8131 26.7879 36.3439 24.964 36.3439Z" fill="#BCBCBC"/>
</g>
<g opacity="0.1">
<path d="M24.9638 37.8549C23.1399 37.8549 21.6699 37.011 21.316 36.1943C21.2616 36.3168 21.2207 36.589 21.3432 36.6571V37.0518C21.7244 37.9365 23.0991 38.8621 24.8549 38.8621C26.7468 38.8621 28.3529 38.059 28.6524 37.1607C28.6524 37.1607 28.6524 36.9157 28.6524 36.8204C28.6524 36.6979 28.6796 36.6163 28.6252 36.4938C28.2441 37.3377 26.7877 37.8685 24.9638 37.8549Z" fill="black"/>
</g>
<path d="M24.9638 37.6095C23.1399 37.6095 21.6699 36.7657 21.316 35.949C21.2616 36.0715 21.2344 36.194 21.2344 36.3165C21.2344 37.3237 22.7588 38.6168 24.8549 38.6168C26.951 38.6168 28.6932 37.6368 28.6932 36.6295C28.6932 36.4934 28.666 36.3709 28.6116 36.2484C28.2441 37.0787 26.7877 37.6095 24.9638 37.6095Z" fill="#BCBCBC"/>
<g opacity="0.1">
<path d="M24.9638 39.5157C23.1399 39.5157 21.6699 38.6719 21.316 37.8552C21.2616 37.9777 21.2207 38.2499 21.3432 38.318V38.7127C21.7244 39.5974 23.0991 40.523 24.8549 40.523C26.7468 40.523 28.3529 39.7199 28.6524 38.8216C28.6524 38.8216 28.6524 38.5766 28.6524 38.4813C28.6524 38.3452 28.6796 38.2771 28.6252 38.1546C28.2441 38.9849 26.7877 39.5157 24.9638 39.5157Z" fill="black"/>
</g>
<path d="M24.9641 39.2572C23.1402 39.2572 21.6702 38.4133 21.3163 37.5967C21.2618 37.7192 21.2346 37.8417 21.2346 37.9642C21.2346 38.9714 22.7591 40.2644 24.8552 40.2644C26.9513 40.2644 28.6935 39.2844 28.6935 38.2772C28.6935 38.1547 28.6663 38.0186 28.6118 37.8961C28.2443 38.7264 26.7879 39.2572 24.9641 39.2572Z" fill="#BCBCBC"/>
<g opacity="0.1">
<path d="M28.6258 35.2834C27.9861 37.5156 25.155 39.1898 21.7659 39.1898C21.6434 39.1898 21.5073 39.1898 21.3848 39.1762C21.6842 40.2106 23.1814 41 24.9645 41C26.9789 41.0137 28.6122 40.02 28.6122 38.8087C28.6122 38.7406 28.6259 38.6589 28.6122 38.5909C28.6122 38.5909 28.6667 38.5364 28.6667 38.2642C28.6667 38.1145 28.5986 37.9376 28.5986 37.9376L28.6122 37.3795C28.6122 37.3795 28.5986 37.2162 28.6122 36.9848C28.6259 36.8351 28.6803 36.6309 28.6667 36.5492C28.6667 36.4812 28.6122 36.2634 28.6122 36.2634V35.2834H28.6258Z" fill="black"/>
</g>
<path d="M34.7506 21.3454C34.7506 26.5448 30.5311 30.7643 25.3317 30.7643C20.1323 30.7643 15.9128 26.5448 15.9128 21.3454C15.9128 16.146 20.1323 11.9265 25.3317 11.9265C30.5447 11.9402 34.7506 16.146 34.7506 21.3454Z" fill="#FFE840"/>
<path fill-rule="evenodd" clip-rule="evenodd" d="M31.6744 28.3139C31.6744 28.3139 29.6735 29.7158 28.6391 33.7583H21.3844C21.3844 33.7583 21.3299 30.655 18.6213 27.96L31.6744 28.3139Z" fill="#FFE840"/>
<g opacity="0.5">
<path fill-rule="evenodd" clip-rule="evenodd" d="M31.2662 19.9429C31.2662 24.0535 27.6457 25.5098 23.5351 25.5098C19.4246 25.5098 17.4102 24.2168 17.4102 20.1063C17.4102 15.9957 21.2485 13.4777 25.359 13.4777C29.4832 13.4913 31.2662 15.8324 31.2662 19.9429Z" fill="white"/>
</g>
<path d="M22.4595 16.8806C22.4595 17.6292 21.847 18.2417 21.0984 18.2417C20.3498 18.2417 19.7373 17.6292 19.7373 16.8806C19.7373 16.132 20.3498 15.5195 21.0984 15.5195C21.847 15.5195 22.4595 16.132 22.4595 16.8806Z" fill="#FBFFFF"/>
<path d="M20.0777 19.0316C20.0777 19.4671 19.7238 19.821 19.2882 19.821C18.8527 19.821 18.4988 19.4671 18.4988 19.0316C18.4988 18.596 18.8527 18.2421 19.2882 18.2421C19.7374 18.2557 20.0777 18.596 20.0777 19.0316Z" fill="#FBFFFF"/>
<path d="M28.639 33.7582C28.639 34.8062 27.0193 35.6501 25.0185 35.6501C23.0177 35.6501 21.3979 34.8062 21.3979 33.7582C21.3979 32.7101 23.0177 31.8662 25.0185 31.8662C27.0193 31.8662 28.639 32.7237 28.639 33.7582Z" fill="#F2D925"/>
<path d="M26.9105 33.7449C26.9105 34.3029 26.0394 34.7657 24.9505 34.7657C23.8752 34.7657 22.9905 34.3029 22.9905 33.7449C22.9905 33.1868 23.8616 32.724 24.9505 32.724C26.0257 32.724 26.9105 33.1732 26.9105 33.7449Z" fill="#E8AF1F"/>
<path d="M23.7936 34.2619C23.5214 33.5269 21.3709 27.5381 22.6639 26.5581C22.8953 26.3811 23.1675 26.6942 23.4533 27.0345C23.6575 27.2659 23.9025 27.5517 24.0114 27.4972C24.0658 27.47 24.1067 27.157 24.1203 27.0072C24.1611 26.667 24.2156 26.3267 24.4197 26.3131C24.6511 26.2995 24.7328 26.7078 24.8145 27.1025C24.8553 27.3203 24.937 27.6878 25.005 27.715C25.1003 27.7422 25.2636 27.402 25.3725 27.1842C25.5495 26.8167 25.7264 26.4764 25.9442 26.5309C26.1483 26.5853 26.2164 26.9528 26.2981 27.3339C26.3389 27.5381 26.4069 27.9192 26.475 27.9192C26.5839 27.9192 26.7064 27.47 26.8017 27.1842C26.9378 26.7078 27.0875 26.2178 27.3597 26.3131C27.5231 26.3811 27.6592 26.5309 27.7408 26.7622C28.2989 28.45 26.2981 34.0033 26.2164 34.2619L25.9578 34.3028C25.985 34.2483 28.0811 28.45 27.5503 26.8847C27.4958 26.7214 27.4142 26.6261 27.3053 26.5853C27.2236 26.5581 27.0739 27.0209 27.0058 27.2795C26.8697 27.7695 26.7336 28.2186 26.475 28.205C26.2572 28.1778 26.1756 27.7831 26.1075 27.402C26.0667 27.1842 25.9986 26.8167 25.9306 26.8031C25.8353 26.7759 25.672 27.1161 25.5631 27.3339C25.3861 27.7014 25.2092 28.0281 24.9914 27.9872C24.7872 27.9464 24.7056 27.5653 24.6239 27.1706C24.5831 26.98 24.515 26.5853 24.447 26.5853C24.4061 26.6125 24.3653 26.8984 24.3517 27.0481C24.3108 27.3747 24.27 27.6742 24.0931 27.7559C23.8617 27.8647 23.6031 27.5653 23.3308 27.2386C23.1403 27.0209 22.8817 26.7078 22.7728 26.7895C21.8336 27.5109 23.3308 32.3564 24.025 34.2892L23.7936 34.2619Z" fill="#E8AF1F"/>
</svg>
