<svg width="160" height="140" viewBox="0 0 160 140" fill="none" xmlns="http://www.w3.org/2000/svg">
<path d="M87 133C120.136 133 147 106.189 147 73.0006C147 39.8108 120.018 13 87 13C53.8639 13 27 39.8108 27 73.0006C27 106.189 53.8639 133 87 133Z" fill="#F0C4BC"/>
<path d="M102.035 96.6357C100.721 95.7995 98.4512 97.1135 97.1373 99.5024C95.8233 101.891 95.8233 104.4 97.1373 105.116L95.8233 104.4C94.5094 103.564 94.5094 101.055 95.8233 98.7857C97.1373 96.3968 99.4068 95.2023 100.721 95.919L102.035 96.6357Z" fill="#131528"/>
<path d="M102.035 96.6357C103.349 97.4718 103.349 99.9802 102.035 102.25C100.721 104.639 98.4512 105.833 97.1373 105.116C95.8234 104.28 95.8234 101.772 97.1373 99.5024C98.4512 97.1135 100.601 95.919 102.035 96.6357Z" fill="#101224"/>
<path d="M101.915 98.5468C101.079 98.069 99.6457 98.9052 98.6902 100.339C97.854 101.891 97.854 103.444 98.6902 104.041L98.0929 103.683C97.2568 103.205 97.2568 101.533 98.0929 99.9802C98.9291 98.4274 100.362 97.5913 101.318 98.1885L101.915 98.5468Z" fill="#322B4E"/>
<path d="M101.915 98.5468C102.751 99.0246 102.751 100.697 101.915 102.25C101.079 103.803 99.6457 104.639 98.6901 104.041C97.854 103.564 97.854 101.891 98.6901 100.339C99.6457 98.9052 101.079 98.069 101.915 98.5468Z" fill="#201B3C"/>
<path d="M95.4652 103.086L80.6537 111.567L57.1226 97.9496L71.934 89.4688L95.4652 103.086Z" fill="#293773"/>
<path d="M80.6537 111.567V113L57.1226 99.383V97.9496L80.6537 111.567Z" fill="#4A692B"/>
<path d="M95.4651 103.086V104.4L80.6536 113V111.567L95.4651 103.086Z" fill="#405224"/>
<path d="M73.9645 66.4154L77.4285 109.655C77.4285 110.73 77.7868 111.447 78.3841 111.805L54.8529 98.1885C54.2557 97.8301 53.8973 97.1134 53.8973 96.0384L50.4333 52.7984L73.9645 66.4154Z" fill="#73D19C"/>
<path d="M101.318 50.5289L99.8845 95.4412C97.1372 96.994 95.3455 99.9802 95.226 103.205L80.7728 111.447C79.8173 112.044 78.9811 112.044 78.3839 111.686C77.7867 111.328 77.4283 110.611 77.4283 109.536L73.9644 65.4599L101.318 50.5289Z" fill="#64B888"/>
<path d="M49 53.1568C49 53.6346 49.2389 53.9929 49.8361 54.3513L71.2173 66.7738C72.2923 67.371 74.084 67.371 75.2785 66.7738L101.438 51.7234C102.035 51.3651 102.274 51.0067 102.274 50.5289V52.9179C102.274 53.3957 102.035 53.754 101.438 54.1124L75.2785 69.1627C74.2034 69.76 72.4117 69.76 71.2173 69.1627L49.8361 56.7402C49.2389 56.3819 49 56.0235 49 55.5457V53.1568Z" fill="#64B888"/>
<path d="M49 53.1568C49 52.679 49.2389 52.3207 49.8361 51.9623L75.9952 36.9119C77.0702 36.3147 78.8619 36.3147 80.0564 36.9119L101.438 49.3345C102.035 49.6928 102.274 50.0511 102.274 50.5289C102.274 51.0067 102.035 51.3651 101.438 51.7234L75.2785 66.7738C74.2034 67.371 72.4117 67.371 71.2173 66.7738L49.8361 54.3513C49.2389 53.9929 49 53.6346 49 53.1568Z" fill="#004C45"/>
<path d="M97.6151 50.8873L73.9645 64.5043C73.845 64.5043 73.6061 64.6238 73.2478 64.6238C72.8895 64.6238 72.5311 64.5043 72.5311 64.5043L53.6584 53.6346C53.3001 53.5151 53.3001 53.0373 53.6584 52.7984L77.309 39.1814C77.4285 39.1814 77.6674 39.062 78.0257 39.062C78.1451 39.062 78.2646 39.062 78.384 39.062C78.5035 39.062 78.6229 39.1814 78.7424 39.1814L97.6151 50.0512C97.9734 50.29 97.9734 50.6484 97.6151 50.8873Z" fill="#203565"/>
<path d="M49 49.6928C49 50.1706 49.2389 50.5289 49.8361 50.8873L71.2173 63.3098C72.2923 63.907 74.084 63.907 75.2785 63.3098L101.438 48.14C102.035 47.7816 102.274 47.4233 102.274 46.9455V49.4539C102.274 49.9317 102.035 50.29 101.438 50.6484L75.2785 65.6988C74.2034 66.296 72.4117 66.296 71.2173 65.6988L49.8361 53.2762C49.2389 52.9179 49 52.5595 49 52.0817V49.6928Z" fill="#64B888"/>
<path d="M49 49.6928C49 49.215 49.2389 48.8567 49.8361 48.4983L75.9952 33.4479C77.0702 32.8507 78.8619 32.8507 80.0564 33.4479L101.438 45.8705C102.035 46.2288 102.274 46.5872 102.274 47.0649C102.274 47.5427 102.035 47.9011 101.438 48.2594L75.2785 63.3098C74.2034 63.9071 72.4117 63.9071 71.2173 63.3098L49.8361 50.8873C49.2389 50.5289 49 50.1706 49 49.6928Z" fill="#73D19C"/>
<path d="M58.1973 46.9455C58.1973 47.1844 58.4362 47.5428 58.7945 47.6622L72.7699 55.7846C73.4866 56.2624 74.681 56.2624 75.3977 55.7846L92.4787 45.8705C92.8371 45.6316 93.076 45.3927 93.076 45.1538V47.9011C93.076 48.14 92.8371 48.4983 92.4787 48.6178L75.3977 58.5319C74.681 59.0097 73.4866 59.0097 72.7699 58.5319L58.7945 50.4095C58.4362 50.1706 58.1973 49.9317 58.1973 49.6928V46.9455Z" fill="#64B888"/>
<path d="M58.1973 46.9455C58.1973 46.7066 58.4362 46.3483 58.7945 46.2288L75.8755 36.3147C76.5922 35.8369 77.7867 35.8369 78.5033 36.3147L92.4787 44.4371C92.8371 44.676 93.076 44.9149 93.076 45.1538C93.076 45.3927 92.8371 45.751 92.4787 45.8705L75.3977 55.7846C74.681 56.2624 73.4866 56.2624 72.7699 55.7846L58.7945 47.7816C58.4362 47.5427 58.1973 47.3038 58.1973 46.9455Z" fill="#73D19C"/>
<path d="M55.3306 47.6622V45.3927L62.0196 41.5703V43.8398L55.3306 47.6622Z" fill="#004C45"/>
<path d="M55.3306 45.3927C54.7334 45.0343 54.2556 45.0343 53.8972 45.2732L60.5863 41.4509C60.9446 41.212 61.4224 41.3314 62.0197 41.5703L55.3306 45.3927Z" fill="#9CF9C5"/>
<path d="M55.3306 47.6621L53.4194 46.5871C53.4194 45.9899 53.6583 45.5121 54.0167 45.2732C54.375 45.0343 54.8528 45.1537 55.4501 45.3926V47.6621H55.3306Z" fill="#004C45"/>
<path d="M78.7425 61.1598C78.7425 61.1598 77.9063 58.4125 76.8313 57.8152L83.5204 53.9929C84.5954 54.5902 85.4315 57.3375 85.4315 57.3375L78.7425 61.1598Z" fill="#9CF9C5"/>
<path d="M79.3397 60.4431C79.1008 59.8458 78.9814 59.4875 78.623 58.7708L83.9982 55.6652C84.2371 56.2624 84.3565 56.5013 84.7149 57.3374L79.3397 60.4431Z" fill="#004C45"/>
<path d="M78.7425 61.1598L76.8313 60.0848V57.8153C77.9063 58.4125 78.7425 61.1598 78.7425 61.1598Z" fill="#64B888"/>
<path d="M146 33C148.761 33 151 30.7622 151 28C151 25.239 148.761 23 146 23C143.239 23 141 25.239 141 28C141 30.7622 143.239 33 146 33Z" fill="#F0C4BC"/>
<path d="M154 13C155.657 13 157 11.6565 157 10C157 8.34254 155.657 7 154 7C152.344 7 151 8.34254 151 10C151 11.6565 152.344 13 154 13Z" fill="#F0C4BC"/>
<path d="M38 20C39.6575 20 41 18.6575 41 17C41 15.3436 39.6575 14 38 14C36.3436 14 35 15.3436 35 17C35 18.6575 36.3436 20 38 20Z" fill="#F0C4BC"/>
<path d="M9 93C12.3138 93 15 90.3115 15 87C15 83.6885 12.3138 81 9 81C5.68615 81 3 83.6885 3 87C3 90.3115 5.68615 93 9 93Z" fill="#F0C4BC"/>
<circle cx="112" cy="96" r="19" fill="#5A2740"/>
<path d="M112 104C113.105 104 114 103.105 114 102C114 100.895 113.105 100 112 100C110.895 100 110 100.895 110 102C110 103.105 110.895 104 112 104Z" fill="white"/>
<path d="M112 98.6667C112.354 98.6667 112.693 98.5262 112.943 98.2761C113.193 98.0261 113.333 97.687 113.333 97.3333V89.3333C113.333 88.9797 113.193 88.6406 112.943 88.3905C112.693 88.1405 112.354 88 112 88C111.646 88 111.307 88.1405 111.057 88.3905C110.807 88.6406 110.667 88.9797 110.667 89.3333V97.3333C110.667 97.687 110.807 98.0261 111.057 98.2761C111.307 98.5262 111.646 98.6667 112 98.6667Z" fill="white"/>
</svg>
