<svg width="160" height="140" viewBox="0 0 160 140" fill="none" xmlns="http://www.w3.org/2000/svg">
<path d="M87 133C120.136 133 147 106.189 147 73.0006C147 39.8108 120.018 13 87 13C53.8639 13 27 39.8108 27 73.0006C27 106.189 53.8639 133 87 133Z" fill="#B7CDC4"/>
<path d="M111.5 96.8998C111.2 97.0998 110.8 97.0998 110.5 96.8998C110.4 96.7998 110.3 96.7999 110.3 96.6999V96.5999V111.3C110.3 111.4 110.4 111.5 110.5 111.6C110.8 111.8 111.2 111.8 111.5 111.6C111.6 111.6 111.6 111.5 111.7 111.5C111.7 111.5 111.8 111.4 111.8 111.3V96.5999C111.7 96.6999 111.6 96.7998 111.5 96.8998Z" fill="white"/>
<path d="M111.5 96.2999C111.2 96.0999 110.8 96.0999 110.5 96.2999C110.2 96.4999 110.2 96.6999 110.5 96.8999C110.8 97.0999 111.2 97.0999 111.5 96.8999C111.7 96.6999 111.7 96.3999 111.5 96.2999Z" fill="#B7CDC4"/>
<path d="M111.5 82.2997C111.2 82.4997 110.8 82.4997 110.5 82.2997C110.4 82.1997 110.3 82.1998 110.3 82.0998V81.9998V96.6998C110.3 96.7998 110.4 96.8998 110.5 96.9998C110.8 97.1998 111.2 97.1998 111.5 96.9998C111.6 96.9998 111.6 96.8997 111.7 96.8997C111.7 96.8997 111.8 96.7998 111.8 96.6998V81.9998C111.7 82.0998 111.6 82.1997 111.5 82.2997Z" fill="#004C45"/>
<path d="M111.5 81.6998C111.2 81.4998 110.8 81.4998 110.5 81.6998C110.2 81.8998 110.2 82.0998 110.5 82.2998C110.8 82.4998 111.2 82.4998 111.5 82.2998C111.7 82.0998 111.7 81.7998 111.5 81.6998Z" fill="#004C45"/>
<path d="M111.5 67.5998C111.2 67.7998 110.8 67.7998 110.5 67.5998C110.4 67.4998 110.3 67.4998 110.3 67.3998V67.2998V81.9998C110.3 82.0998 110.4 82.1998 110.5 82.2998C110.8 82.4998 111.2 82.4998 111.5 82.2998C111.6 82.2998 111.6 82.1998 111.7 82.1998C111.7 82.1998 111.8 82.0998 111.8 81.9998V67.2998C111.7 67.3998 111.6 67.4998 111.5 67.5998Z" fill="white"/>
<path d="M111.5 66.9999C111.2 66.7999 110.8 66.7999 110.5 66.9999C110.2 67.1999 110.2 67.3999 110.5 67.5999C110.8 67.7999 111.2 67.7999 111.5 67.5999C111.7 67.3999 111.7 67.1999 111.5 66.9999Z" fill="#B7CDC4"/>
<path d="M111.5 52.9997C111.2 53.1997 110.8 53.1997 110.5 52.9997C110.4 52.8997 110.3 52.8997 110.3 52.7997V52.6997V67.3997C110.3 67.4997 110.4 67.5997 110.5 67.6997C110.8 67.8997 111.2 67.8997 111.5 67.6997C111.6 67.6997 111.6 67.5997 111.7 67.5997C111.7 67.4997 111.8 67.4997 111.8 67.3997V52.6997C111.7 52.7997 111.6 52.8997 111.5 52.9997Z" fill="#004C45"/>
<path d="M111.5 52.3998C111.2 52.1998 110.8 52.1998 110.5 52.3998C110.2 52.5998 110.2 52.7998 110.5 52.9998C110.8 53.1998 111.2 53.1998 111.5 52.9998C111.7 52.7998 111.7 52.5998 111.5 52.3998Z" fill="#004C45"/>
<path d="M111.5 38.3998C111.2 38.5998 110.8 38.5998 110.5 38.3998C110.4 38.2998 110.3 38.2999 110.3 38.1999V38.0999V52.7998C110.3 52.8998 110.4 52.9999 110.5 53.0999C110.8 53.2999 111.2 53.2999 111.5 53.0999C111.6 53.0999 111.6 52.9998 111.7 52.9998C111.7 52.8998 111.8 52.8998 111.8 52.7998V38.0999C111.7 38.1999 111.6 38.2998 111.5 38.3998Z" fill="white"/>
<path d="M111.5 37.7999C111.2 37.5999 110.8 37.5999 110.5 37.7999C110.2 37.9999 110.2 38.1999 110.5 38.3999C110.8 38.5999 111.2 38.5999 111.5 38.3999C111.7 38.1999 111.7 37.9999 111.5 37.7999Z" fill="#B7CDC4"/>
<path d="M111.5 23.7997C111.2 23.9997 110.8 23.9997 110.5 23.7997C110.4 23.6997 110.3 23.6998 110.3 23.5998V23.4998V38.1998C110.3 38.2998 110.4 38.3998 110.5 38.4998C110.8 38.6998 111.2 38.6998 111.5 38.4998C111.6 38.4998 111.6 38.3997 111.7 38.3997C111.7 38.3997 111.8 38.2998 111.8 38.1998V23.4998C111.7 23.5998 111.6 23.6997 111.5 23.7997Z" fill="#004C45"/>
<path d="M111.5 23.1998C111.2 22.9998 110.8 22.9998 110.5 23.1998C110.2 23.3998 110.2 23.5998 110.5 23.7998C110.8 23.9998 111.2 23.9998 111.5 23.7998C111.7 23.5998 111.7 23.3998 111.5 23.1998Z" fill="#004C45"/>
<path d="M111.3 107.9L111.6 107.8L113.1 108.7L112.9 108.8L111.3 107.9Z" fill="white"/>
<path d="M113.1 108.6L113.3 108.4V109L113.1 109.1V108.6Z" fill="white"/>
<path d="M112.9 108.5L113.1 108.3L113.3 108.4L113.1 108.6L112.9 108.5Z" fill="white"/>
<path d="M113.1 108.6V109.1L111.3 108.1V107.9L112.9 108.8V108.5L113.1 108.6Z" fill="#B7CDC4"/>
<path d="M111.3 104.6L111.6 104.4L113.1 105.3L112.9 105.5L111.3 104.6Z" fill="white"/>
<path d="M113.1 105.3L113.3 105.1V105.7L113.1 105.8V105.3Z" fill="white"/>
<path d="M112.9 105.2L113.1 105L113.3 105.1L113.1 105.3L112.9 105.2Z" fill="white"/>
<path d="M113.1 105.3V105.8L111.3 104.8V104.6L112.9 105.5V105.2L113.1 105.3Z" fill="#B7CDC4"/>
<path d="M111.3 101.3L111.6 101.1L113.1 102L112.9 102.2L111.3 101.3Z" fill="white"/>
<path d="M113.1 101.9L113.3 101.8V102.3L113.1 102.5V101.9Z" fill="white"/>
<path d="M112.9 101.8L113.1 101.7L113.3 101.8L113.1 101.9L112.9 101.8Z" fill="white"/>
<path d="M113.1 101.9V102.5L111.3 101.5V101.3L112.9 102.2V101.8L113.1 101.9Z" fill="#B7CDC4"/>
<path d="M111.3 97.8998L111.6 97.7998L113.1 98.6998L112.9 98.7998L111.3 97.8998Z" fill="white"/>
<path d="M113.1 98.5998L113.3 98.4998V98.9998L113.1 99.1998V98.5998Z" fill="white"/>
<path d="M112.9 98.4999L113.1 98.3999L113.3 98.4999L113.1 98.5999L112.9 98.4999Z" fill="white"/>
<path d="M113.1 98.5999V99.1999L111.3 98.1999V97.8999L112.9 98.7999V98.4999L113.1 98.5999Z" fill="#B7CDC4"/>
<path d="M109 108.8L108.8 108.7L110.3 107.8L110.6 107.9L109 108.8Z" fill="white"/>
<path d="M108.9 109.1L108.6 109V108.4L108.8 108.6L108.9 109.1Z" fill="#B7CDC4"/>
<path d="M108.8 108.6L108.6 108.4L108.8 108.3L109 108.5L108.8 108.6Z" fill="white"/>
<path d="M109 108.5V108.8L110.6 107.9V108.1L108.9 109.1L108.8 108.6L109 108.5Z" fill="white"/>
<path d="M109 105.5L108.8 105.3L110.3 104.4L110.6 104.6L109 105.5Z" fill="white"/>
<path d="M108.9 105.8L108.6 105.7V105.1L108.8 105.3L108.9 105.8Z" fill="#B7CDC4"/>
<path d="M108.8 105.3L108.6 105.1L108.8 105L109 105.2L108.8 105.3Z" fill="white"/>
<path d="M109 105.2V105.5L110.6 104.6V104.8L108.9 105.8L108.8 105.3L109 105.2Z" fill="white"/>
<path d="M109 102.2L108.8 102L110.3 101.1L110.6 101.3L109 102.2Z" fill="white"/>
<path d="M108.9 102.5L108.6 102.3V101.8L108.8 101.9L108.9 102.5Z" fill="#B7CDC4"/>
<path d="M108.8 101.9L108.6 101.8L108.8 101.7L109 101.8L108.8 101.9Z" fill="white"/>
<path d="M109 101.8V102.2L110.6 101.3V101.5L108.9 102.5L108.8 101.9L109 101.8Z" fill="white"/>
<path d="M109 98.7998L108.8 98.6998L110.3 97.7998L110.6 97.8998L109 98.7998Z" fill="white"/>
<path d="M108.9 99.1998L108.6 98.9998V98.4998L108.8 98.5998L108.9 99.1998Z" fill="#B7CDC4"/>
<path d="M108.8 98.5999L108.6 98.4999L108.8 98.3999L109 98.4999L108.8 98.5999Z" fill="white"/>
<path d="M109 98.4999V98.7999L110.6 97.8999V98.1999L108.9 99.1999L108.8 98.5999L109 98.4999Z" fill="white"/>
<path d="M111.3 94.2998L111.6 94.0999L113.1 94.9998L112.9 95.0999L111.3 94.2998Z" fill="#004C45"/>
<path d="M113.1 94.8998L113.3 94.7998V95.2998L113.1 95.4998V94.8998Z" fill="#004C45"/>
<path d="M112.9 94.7999L113.1 94.7L113.3 94.7999L113.1 94.8999L112.9 94.7999Z" fill="#004C45"/>
<path d="M113.1 94.8998V95.4998L111.3 94.4998V94.2998L112.9 95.0998V94.7998L113.1 94.8998Z" fill="#004C45"/>
<path d="M111.3 90.8998L111.6 90.7998L113.1 91.6998L112.9 91.7998L111.3 90.8998Z" fill="#004C45"/>
<path d="M113.1 91.5998L113.3 91.4998V91.9998L113.1 92.1998V91.5998Z" fill="#004C45"/>
<path d="M112.9 91.4999L113.1 91.3999L113.3 91.4999L113.1 91.5999L112.9 91.4999Z" fill="#004C45"/>
<path d="M113.1 91.5999V92.1999L111.3 91.1999V90.8999L112.9 91.7999V91.4999L113.1 91.5999Z" fill="#004C45"/>
<path d="M111.3 87.5998L111.6 87.4998L113.1 88.2997L112.9 88.4998L111.3 87.5998Z" fill="#004C45"/>
<path d="M113.1 88.2998L113.3 88.0999V88.6999L113.1 88.7998V88.2998Z" fill="#004C45"/>
<path d="M112.9 88.1998L113.1 87.9998L113.3 88.0998L113.1 88.2997L112.9 88.1998Z" fill="#004C45"/>
<path d="M113.1 88.2998V88.7998L111.3 87.7998V87.5999L112.9 88.4998V88.1999L113.1 88.2998Z" fill="#004C45"/>
<path d="M111.3 84.2998L111.6 84.0999L113.1 84.9998L112.9 85.1999L111.3 84.2998Z" fill="#004C45"/>
<path d="M113.1 84.9998L113.3 84.7998V85.3998L113.1 85.4998V84.9998Z" fill="#004C45"/>
<path d="M112.9 84.8999L113.1 84.7L113.3 84.7999L113.1 84.9999L112.9 84.8999Z" fill="#004C45"/>
<path d="M113.1 84.9998V85.4998L111.3 84.4998V84.2998L112.9 85.1998V84.8998L113.1 84.9998Z" fill="#004C45"/>
<path d="M109 95.0999L108.8 94.9998L110.3 94.0999L110.6 94.2998L109 95.0999Z" fill="#004C45"/>
<path d="M108.9 95.4998L108.6 95.2998V94.7998L108.8 94.8998L108.9 95.4998Z" fill="#004C45"/>
<path d="M108.8 94.8999L108.6 94.7999L108.8 94.7L109 94.7999L108.8 94.8999Z" fill="#004C45"/>
<path d="M109 94.7998V95.0998L110.6 94.2998V94.4998L108.9 95.4998L108.8 94.8998L109 94.7998Z" fill="#004C45"/>
<path d="M109 91.7998L108.8 91.6998L110.3 90.7998L110.6 90.8998L109 91.7998Z" fill="#004C45"/>
<path d="M108.9 92.1998L108.6 91.9998V91.4998L108.8 91.5998L108.9 92.1998Z" fill="#004C45"/>
<path d="M108.8 91.5999L108.6 91.4999L108.8 91.3999L109 91.4999L108.8 91.5999Z" fill="#004C45"/>
<path d="M109 91.4999V91.7999L110.6 90.8999V91.0999L108.9 92.1999L108.8 91.5999L109 91.4999Z" fill="#004C45"/>
<path d="M109 88.4998L108.8 88.3997L110.3 87.4998L110.6 87.5998L109 88.4998Z" fill="#004C45"/>
<path d="M108.9 88.7998L108.6 88.6999V88.0999L108.8 88.2998L108.9 88.7998Z" fill="#004C45"/>
<path d="M108.8 88.2997L108.6 88.0998L108.8 87.9998L109 88.1998L108.8 88.2997Z" fill="#004C45"/>
<path d="M109 88.1999V88.4998L110.6 87.5999V87.7998L108.9 88.7998L108.8 88.2998L109 88.1999Z" fill="#004C45"/>
<path d="M109 85.1999L108.8 84.9998L110.3 84.0999L110.6 84.2998L109 85.1999Z" fill="#004C45"/>
<path d="M108.9 85.4998L108.6 85.3998V84.7998L108.8 84.9998L108.9 85.4998Z" fill="#004C45"/>
<path d="M108.8 84.9999L108.6 84.7999L108.8 84.7L109 84.8999L108.8 84.9999Z" fill="#004C45"/>
<path d="M109 84.8998V85.1998L110.6 84.2998V84.4998L108.9 85.4998L108.8 84.9998L109 84.8998Z" fill="#004C45"/>
<path d="M111.3 80.1999L111.6 80.0999L113.1 80.9998L112.9 81.0999L111.3 80.1999Z" fill="white"/>
<path d="M113.1 80.8998L113.3 80.7998V81.2998L113.1 81.4998V80.8998Z" fill="white"/>
<path d="M112.9 80.7999L113.1 80.7L113.3 80.7999L113.1 80.8999L112.9 80.7999Z" fill="white"/>
<path d="M113.1 80.8999V81.4999L111.3 80.3999V80.2L112.9 81.0999V80.7999L113.1 80.8999Z" fill="#B7CDC4"/>
<path d="M111.3 76.8998L111.6 76.7998L113.1 77.5998L112.9 77.7998L111.3 76.8998Z" fill="white"/>
<path d="M113.1 77.5999L113.3 77.3999V77.9999L113.1 78.0999V77.5999Z" fill="white"/>
<path d="M112.9 77.4998L113.1 77.2998L113.3 77.3998L113.1 77.5998L112.9 77.4998Z" fill="white"/>
<path d="M113.1 77.5999V78.0999L111.3 77.0999V76.8999L112.9 77.7999V77.4999L113.1 77.5999Z" fill="#B7CDC4"/>
<path d="M111.3 73.5999L111.6 73.3999L113.1 74.2999L112.9 74.4999L111.3 73.5999Z" fill="white"/>
<path d="M113.1 74.2998L113.3 74.0999V74.6999L113.1 74.7998V74.2998Z" fill="white"/>
<path d="M112.9 74.0998L113.1 73.9998L113.3 74.0998L113.1 74.2997L112.9 74.0998Z" fill="white"/>
<path d="M113.1 74.2998V74.7998L111.3 73.7998V73.5999L112.9 74.4998V74.0999L113.1 74.2998Z" fill="#B7CDC4"/>
<path d="M111.3 70.2998L111.6 70.0999L113.1 70.9998L112.9 71.0999L111.3 70.2998Z" fill="white"/>
<path d="M113.1 70.8998L113.3 70.7998V71.2998L113.1 71.4998V70.8998Z" fill="white"/>
<path d="M112.9 70.7999L113.1 70.7L113.3 70.7999L113.1 70.8999L112.9 70.7999Z" fill="white"/>
<path d="M113.1 70.8998V71.4998L111.3 70.4998V70.2998L112.9 71.0998V70.7998L113.1 70.8998Z" fill="#B7CDC4"/>
<path d="M109 81.0999L108.8 80.9998L110.3 80.0999L110.6 80.1999L109 81.0999Z" fill="white"/>
<path d="M108.9 81.4998L108.6 81.2998V80.7998L108.8 80.8998L108.9 81.4998Z" fill="#B7CDC4"/>
<path d="M108.8 80.8999L108.6 80.7999L108.8 80.7L109 80.7999L108.8 80.8999Z" fill="white"/>
<path d="M109 80.7999V81.0999L110.6 80.2V80.4999L108.9 81.4999L108.8 80.8999L109 80.7999Z" fill="white"/>
<path d="M109 77.7998L108.8 77.5998L110.3 76.7998L110.6 76.8998L109 77.7998Z" fill="white"/>
<path d="M108.9 78.0999L108.6 77.9999V77.3999L108.8 77.5999L108.9 78.0999Z" fill="#B7CDC4"/>
<path d="M108.8 77.5998L108.6 77.3998L108.8 77.2998L109 77.4998L108.8 77.5998Z" fill="white"/>
<path d="M109 77.4999V77.7999L110.6 76.8999V77.0999L108.9 78.0999L108.8 77.5999L109 77.4999Z" fill="white"/>
<path d="M109 74.4999L108.8 74.2999L110.3 73.3999L110.6 73.5999L109 74.4999Z" fill="white"/>
<path d="M108.9 74.7998L108.6 74.6999V74.0999L108.8 74.2998L108.9 74.7998Z" fill="#B7CDC4"/>
<path d="M108.8 74.2997L108.6 74.0998L108.8 73.9998L109 74.1998L108.8 74.2997Z" fill="white"/>
<path d="M109 74.1999V74.4998L110.6 73.5999V73.7998L108.9 74.7998L108.8 74.2998L109 74.1999Z" fill="white"/>
<path d="M109 71.0999L108.8 70.9998L110.3 70.0999L110.6 70.1999L109 71.0999Z" fill="white"/>
<path d="M108.9 71.4998L108.6 71.2998V70.7998L108.8 70.8998L108.9 71.4998Z" fill="#B7CDC4"/>
<path d="M108.8 70.8999L108.6 70.7999L108.8 70.7L109 70.7999L108.8 70.8999Z" fill="white"/>
<path d="M109 70.7999V71.0999L110.6 70.2V70.4999L108.9 71.4999L108.8 70.8999L109 70.7999Z" fill="white"/>
<path d="M111.3 66.8997L111.6 66.6997L113.1 67.5997L112.9 67.7997L111.3 66.8997Z" fill="#004C45"/>
<path d="M113.1 67.5999L113.3 67.3999V67.9999L113.1 68.0999V67.5999Z" fill="#004C45"/>
<path d="M112.9 67.4998L113.1 67.2998L113.3 67.3998L113.1 67.5998L112.9 67.4998Z" fill="#004C45"/>
<path d="M113.1 67.5999V68.0999L111.3 67.0999V66.8999L112.9 67.7999V67.4999L113.1 67.5999Z" fill="#004C45"/>
<path d="M111.3 63.5999L111.6 63.3999L113.1 64.2999L112.9 64.4999L111.3 63.5999Z" fill="#004C45"/>
<path d="M113.1 64.2998L113.3 64.0999V64.5999L113.1 64.7998V64.2998Z" fill="#004C45"/>
<path d="M112.9 64.0998L113.1 63.9998L113.3 64.0998L113.1 64.2997L112.9 64.0998Z" fill="#004C45"/>
<path d="M113.1 64.2998V64.7998L111.3 63.7998V63.5999L112.9 64.4998V64.0999L113.1 64.2998Z" fill="#004C45"/>
<path d="M111.3 60.1999L111.6 60.0999L113.1 60.9998L112.9 61.0999L111.3 60.1999Z" fill="#004C45"/>
<path d="M113.1 60.8998L113.3 60.7998V61.2998L113.1 61.4998V60.8998Z" fill="#004C45"/>
<path d="M112.9 60.7997L113.1 60.6997L113.3 60.7997L113.1 60.8997L112.9 60.7997Z" fill="#004C45"/>
<path d="M113.1 60.8997V61.4997L111.3 60.4997V60.1997L112.9 61.0997V60.7997L113.1 60.8997Z" fill="#004C45"/>
<path d="M111.3 56.8998L111.6 56.7998L113.1 57.6998L112.9 57.7998L111.3 56.8998Z" fill="#004C45"/>
<path d="M113.1 57.5998L113.3 57.4998V57.9998L113.1 58.0998V57.5998Z" fill="#004C45"/>
<path d="M112.9 57.4998L113.1 57.2998L113.3 57.4998L113.1 57.5998L112.9 57.4998Z" fill="#004C45"/>
<path d="M113.1 57.5999V58.0999L111.3 57.0999V56.8999L112.9 57.7999V57.4999L113.1 57.5999Z" fill="#004C45"/>
<path d="M109 67.7999L108.8 67.5999L110.3 66.7L110.6 66.8999L109 67.7999Z" fill="#004C45"/>
<path d="M108.9 68.0999L108.6 67.9999V67.3999L108.8 67.5999L108.9 68.0999Z" fill="#004C45"/>
<path d="M108.8 67.5998L108.6 67.3998L108.8 67.2998L109 67.4998L108.8 67.5998Z" fill="#004C45"/>
<path d="M109 67.4999V67.7999L110.6 66.8999V67.0999L108.9 68.0999L108.8 67.5999L109 67.4999Z" fill="#004C45"/>
<path d="M109 64.4999L108.8 64.2999L110.3 63.3999L110.6 63.5999L109 64.4999Z" fill="#004C45"/>
<path d="M108.9 64.7998L108.6 64.5999V64.0999L108.8 64.2998L108.9 64.7998Z" fill="#004C45"/>
<path d="M108.8 64.3L108.6 64.1L108.8 64L109 64.1L108.8 64.3Z" fill="#004C45"/>
<path d="M109 64.0999V64.4998L110.6 63.5999V63.7998L108.9 64.7998L108.8 64.2998L109 64.0999Z" fill="#004C45"/>
<path d="M109 61.0999L108.8 60.9998L110.3 60.0999L110.6 60.1999L109 61.0999Z" fill="#004C45"/>
<path d="M108.9 61.4998L108.6 61.2998V60.7998L108.8 60.8998L108.9 61.4998Z" fill="#004C45"/>
<path d="M108.8 60.8999L108.6 60.7999L108.8 60.7L109 60.7999L108.8 60.8999Z" fill="#004C45"/>
<path d="M109 60.7999V61.0999L110.6 60.2V60.4999L108.9 61.4999L108.8 60.8999L109 60.7999Z" fill="#004C45"/>
<path d="M109 57.7998L108.8 57.6998L110.3 56.7998L110.6 56.8998L109 57.7998Z" fill="#004C45"/>
<path d="M108.9 58.1L108.6 58V57.5L108.8 57.6L108.9 58.1Z" fill="#004C45"/>
<path d="M108.8 57.5998L108.6 57.4998L108.8 57.2998L109 57.4998L108.8 57.5998Z" fill="#004C45"/>
<path d="M109 57.4999V57.7999L110.6 56.8999V57.0999L108.9 58.0999L108.8 57.5999L109 57.4999Z" fill="#004C45"/>
<path d="M111.3 53.5999L111.6 53.3999L113.1 54.2999L112.9 54.4999L111.3 53.5999Z" fill="#004C45"/>
<path d="M113.1 54.2998L113.3 54.0999V54.6999L113.1 54.7998V54.2998Z" fill="#004C45"/>
<path d="M112.9 54.2L113.1 54L113.3 54.1L113.1 54.3L112.9 54.2Z" fill="#004C45"/>
<path d="M113.1 54.2998V54.7998L111.3 53.7998V53.5999L112.9 54.4998V54.1999L113.1 54.2998Z" fill="#004C45"/>
<path d="M109 54.4999L108.8 54.2999L110.3 53.3999L110.6 53.5999L109 54.4999Z" fill="#004C45"/>
<path d="M108.9 54.7998L108.6 54.6999V54.0999L108.8 54.2998L108.9 54.7998Z" fill="#004C45"/>
<path d="M108.8 54.3L108.6 54.1L108.8 54L109 54.2L108.8 54.3Z" fill="#004C45"/>
<path d="M109 54.1999V54.4998L110.6 53.5999V53.7998L108.9 54.7998L108.8 54.2998L109 54.1999Z" fill="#004C45"/>
<path d="M111.3 50.3999L111.6 50.2L113.1 51.0999L112.9 51.2L111.3 50.3999Z" fill="white"/>
<path d="M113.1 50.9999L113.3 50.8999V51.3999L113.1 51.5999V50.9999Z" fill="white"/>
<path d="M112.9 50.8998L113.1 50.7998L113.3 50.8998L113.1 50.9998L112.9 50.8998Z" fill="white"/>
<path d="M113.1 50.9999V51.5999L111.3 50.5999V50.3999L112.9 51.1999V50.8999L113.1 50.9999Z" fill="#B7CDC4"/>
<path d="M111.3 46.9999L111.6 46.8999L113.1 47.7999L112.9 47.8999L111.3 46.9999Z" fill="white"/>
<path d="M113.1 47.6999L113.3 47.5999V48.0999L113.1 48.2998V47.6999Z" fill="white"/>
<path d="M112.9 47.6L113.1 47.5L113.3 47.6L113.1 47.7L112.9 47.6Z" fill="white"/>
<path d="M113.1 47.7V48.3L111.3 47.2V47L112.9 47.9V47.6L113.1 47.7Z" fill="#B7CDC4"/>
<path d="M111.3 43.6999L111.6 43.5999L113.1 44.3998L112.9 44.5999L111.3 43.6999Z" fill="white"/>
<path d="M113.1 44.3999L113.3 44.2V44.7999L113.1 44.8999V44.3999Z" fill="white"/>
<path d="M112.9 44.2998L113.1 44.0999L113.3 44.1999L113.1 44.3998L112.9 44.2998Z" fill="white"/>
<path d="M113.1 44.3999V44.8999L111.3 43.8999V43.7L112.9 44.5999V44.2999L113.1 44.3999Z" fill="#B7CDC4"/>
<path d="M111.3 40.3999L111.6 40.2L113.1 41.0999L112.9 41.2999L111.3 40.3999Z" fill="white"/>
<path d="M113.1 41.0999L113.3 40.8999V41.4999L113.1 41.5999V41.0999Z" fill="white"/>
<path d="M112.9 40.8998L113.1 40.7998L113.3 40.8998L113.1 41.0998L112.9 40.8998Z" fill="white"/>
<path d="M113.1 41.0999V41.5999L111.3 40.5999V40.3999L112.9 41.2999V40.8999L113.1 41.0999Z" fill="#B7CDC4"/>
<path d="M109 51.2L108.8 51.0999L110.3 50.2L110.6 50.3999L109 51.2Z" fill="white"/>
<path d="M108.9 51.5999L108.6 51.3999V50.8999L108.8 50.9999L108.9 51.5999Z" fill="#B7CDC4"/>
<path d="M108.8 50.9998L108.6 50.8998L108.8 50.7998L109 50.8998L108.8 50.9998Z" fill="white"/>
<path d="M109 50.8999V51.1999L110.6 50.3999V50.5999L108.9 51.5999L108.8 50.9999L109 50.8999Z" fill="white"/>
<path d="M109 47.8999L108.8 47.7999L110.3 46.8999L110.6 46.9999L109 47.8999Z" fill="white"/>
<path d="M108.9 48.2998L108.6 48.0999V47.5999L108.8 47.6999L108.9 48.2998Z" fill="#B7CDC4"/>
<path d="M108.8 47.7L108.6 47.6L108.8 47.5L109 47.6L108.8 47.7Z" fill="white"/>
<path d="M109 47.6V47.9L110.6 47V47.2L108.9 48.3L108.8 47.7L109 47.6Z" fill="white"/>
<path d="M109 44.5999L108.8 44.4998L110.3 43.5999L110.6 43.6999L109 44.5999Z" fill="white"/>
<path d="M108.9 44.8999L108.6 44.7999V44.2L108.8 44.3999L108.9 44.8999Z" fill="#B7CDC4"/>
<path d="M108.8 44.3998L108.6 44.1999L108.8 44.0999L109 44.2998L108.8 44.3998Z" fill="white"/>
<path d="M109 44.2999V44.5999L110.6 43.7V43.8999L108.9 44.8999L108.8 44.3999L109 44.2999Z" fill="white"/>
<path d="M109 41.2999L108.8 41.0999L110.3 40.2L110.6 40.3999L109 41.2999Z" fill="white"/>
<path d="M108.9 41.5999L108.6 41.4999V40.8999L108.8 41.0999L108.9 41.5999Z" fill="#B7CDC4"/>
<path d="M108.8 41.0998L108.6 40.8998L108.8 40.7998L109 40.9998L108.8 41.0998Z" fill="white"/>
<path d="M109 40.9999V41.2999L110.6 40.3999V40.5999L108.9 41.5999L108.8 41.0999L109 40.9999Z" fill="white"/>
<path d="M111.3 36.6999L111.6 36.5999L113.1 37.3998L112.9 37.5999L111.3 36.6999Z" fill="#004C45"/>
<path d="M113.1 37.3999L113.3 37.2V37.7999L113.1 37.8999V37.3999Z" fill="#004C45"/>
<path d="M112.9 37.2998L113.1 37.0999L113.3 37.1999L113.1 37.3998L112.9 37.2998Z" fill="#004C45"/>
<path d="M113.1 37.3999V37.8999L111.3 36.8999V36.7L112.9 37.5999V37.2999L113.1 37.3999Z" fill="#004C45"/>
<path d="M111.3 33.3999L111.6 33.2L113.1 34.0999L112.9 34.2999L111.3 33.3999Z" fill="#004C45"/>
<path d="M113.1 34.0999L113.3 33.8999V34.4999L113.1 34.5999V34.0999Z" fill="#004C45"/>
<path d="M112.9 33.8998L113.1 33.7998L113.3 33.8998L113.1 34.0998L112.9 33.8998Z" fill="#004C45"/>
<path d="M113.1 34.0999V34.5999L111.3 33.5999V33.3999L112.9 34.2999V33.8999L113.1 34.0999Z" fill="#004C45"/>
<path d="M111.3 30.0999L111.6 29.8999L113.1 30.7999L112.9 30.8999L111.3 30.0999Z" fill="#004C45"/>
<path d="M113.1 30.6999L113.3 30.5999V31.0999L113.1 31.2998V30.6999Z" fill="#004C45"/>
<path d="M112.9 30.5998L113.1 30.4998L113.3 30.5998L113.1 30.6998L112.9 30.5998Z" fill="#004C45"/>
<path d="M113.1 30.6999V31.2998L111.3 30.2998V30.0999L112.9 30.8998V30.5999L113.1 30.6999Z" fill="#004C45"/>
<path d="M111.3 26.6999L111.6 26.5999L113.1 27.4998L112.9 27.5999L111.3 26.6999Z" fill="#004C45"/>
<path d="M113.1 27.3998L113.3 27.2998V27.7998L113.1 27.8998V27.3998Z" fill="#004C45"/>
<path d="M112.9 27.2998L113.1 27.0999L113.3 27.2998L113.1 27.3998L112.9 27.2998Z" fill="#004C45"/>
<path d="M113.1 27.3999V27.8999L111.3 26.8999V26.7L112.9 27.5999V27.2999L113.1 27.3999Z" fill="#004C45"/>
<path d="M109 37.5999L108.8 37.3998L110.3 36.5999L110.6 36.6999L109 37.5999Z" fill="#004C45"/>
<path d="M108.9 37.8999L108.6 37.7999V37.2L108.8 37.3999L108.9 37.8999Z" fill="#004C45"/>
<path d="M108.8 37.3998L108.6 37.1999L108.8 37.0999L109 37.2998L108.8 37.3998Z" fill="#004C45"/>
<path d="M109 37.2999V37.5999L110.6 36.7V36.8999L108.9 37.8999L108.8 37.3999L109 37.2999Z" fill="#004C45"/>
<path d="M109 34.2999L108.8 34.0999L110.3 33.2L110.6 33.3999L109 34.2999Z" fill="#004C45"/>
<path d="M108.9 34.5999L108.6 34.4999V33.8999L108.8 34.0999L108.9 34.5999Z" fill="#004C45"/>
<path d="M108.8 34.0998L108.6 33.8998L108.8 33.7998L109 33.9998L108.8 34.0998Z" fill="#004C45"/>
<path d="M109 33.9999V34.2999L110.6 33.3999V33.5999L108.9 34.5999L108.8 34.0999L109 33.9999Z" fill="#004C45"/>
<path d="M109 30.8999L108.8 30.7999L110.3 29.8999L110.6 30.0999L109 30.8999Z" fill="#004C45"/>
<path d="M108.9 31.2998L108.6 31.0999V30.5999L108.8 30.6999L108.9 31.2998Z" fill="#004C45"/>
<path d="M108.8 30.6998L108.6 30.5998L108.8 30.4998L109 30.5998L108.8 30.6998Z" fill="#004C45"/>
<path d="M109 30.5999V30.8998L110.6 30.0999V30.2998L108.9 31.2998L108.8 30.6999L109 30.5999Z" fill="#004C45"/>
<path d="M109 27.5999L108.8 27.4998L110.3 26.5999L110.6 26.6999L109 27.5999Z" fill="#004C45"/>
<path d="M108.9 27.9998L108.6 27.7998V27.2998L108.8 27.3998L108.9 27.9998Z" fill="#004C45"/>
<path d="M108.8 27.3998L108.6 27.2998L108.8 27.0999L109 27.2998L108.8 27.3998Z" fill="#004C45"/>
<path d="M109 27.2999V27.5999L110.6 26.7V26.8999L108.9 27.9999L108.8 27.3999L109 27.2999Z" fill="#004C45"/>
<path d="M139.2 111.7C139.1 111.7 139.1 111.7 139.2 111.7L112.2 23.4999C112.2 23.3999 112.2 23.3999 112.3 23.3999C112.4 23.3999 112.4 23.3999 112.4 23.4999L139.3 111.7C139.3 111.7 139.3 111.7 139.2 111.7Z" fill="white"/>
<path d="M110.9 128V24.3998C110.9 24.2998 110.9 24.2998 111 24.2998C111.1 24.2998 111.1 24.2998 111.1 24.3998L110.9 128C111 128 111 127.9 110.9 128Z" fill="#B7CDC4"/>
<path d="M82.4999 111.6C82.3999 111.6 82.3999 111.5 82.3999 111.5L109.3 23.4999C109.3 23.3999 109.4 23.3999 109.4 23.3999C109.5 23.3999 109.5 23.4999 109.5 23.4999L82.4999 111.6C82.5999 111.6 82.5999 111.6 82.4999 111.6Z" fill="white"/>
<path d="M114.1 22.2V22.4999C114.1 22.6999 114 22.7999 113.8 22.8999V22.5999C114 22.4999 114.1 22.3 114.1 22.2Z" fill="#B7CDC4"/>
<path d="M108.1 22.5999V22.8998C107.9 22.7998 107.8 22.5998 107.8 22.3998V22.0999C107.8 22.2999 107.9 22.4999 108.1 22.5999Z" fill="#B7CDC4"/>
<path d="M113.8 22.5999V22.8998L112.9 23.4998V23.0999L113.8 22.5999Z" fill="#004C45"/>
<path d="M109 23.0999V23.4998L108.1 22.8998V22.5999L109 23.0999Z" fill="#004C45"/>
<path d="M112.9 23.0999V23.3998C112.8 23.4998 112.7 23.4999 112.7 23.5999V23.2998C112.7 23.2998 112.8 23.1999 112.9 23.0999Z" fill="#B7CDC4"/>
<path d="M109.2 23.2998V23.5999C109.2 23.4999 109.1 23.3998 109 23.3998V23.0999C109.1 23.1999 109.2 23.2998 109.2 23.2998Z" fill="#B7CDC4"/>
<path d="M111.3 24.4999V24.7998C111.1 24.6998 110.8 24.6998 110.5 24.7998V24.4999C110.8 24.2999 111.1 24.2999 111.3 24.4999Z" fill="#B7CDC4"/>
<path d="M112.2 24.9998V25.2997L111.3 24.7997V24.4998L112.2 24.9998Z" fill="#004C45"/>
<path d="M110.6 24.4998V24.7997L109.7 25.2997V24.9998L110.6 24.4998Z" fill="#004C45"/>
<path d="M114.1 24.4998V24.7997C114.1 24.9997 114 25.0997 113.8 25.2997C113.4 25.4997 112.7 25.4997 112.2 25.2997V24.9998C112.6 25.1998 113.3 25.2998 113.8 24.9998C114 24.8998 114.1 24.6998 114.1 24.4998Z" fill="#B7CDC4"/>
<path d="M109.7 24.9998V25.2997C109.3 25.4997 108.6 25.4997 108.1 25.2997C107.9 25.1997 107.8 24.9997 107.8 24.7997V24.4998C107.8 24.6998 107.9 24.7998 108.1 24.9998C108.6 25.1998 109.3 25.1998 109.7 24.9998Z" fill="#B7CDC4"/>
<path d="M113.8 21.6999C114.2 21.8999 114.2 22.3998 113.8 22.5998L112.9 23.0998C112.7 23.1998 112.7 23.3998 112.9 23.4998L113.8 23.9998C114.2 24.1998 114.2 24.6998 113.8 24.8998C113.4 25.0998 112.7 25.0998 112.2 24.8998L111.3 24.3998C111.1 24.2998 110.8 24.2998 110.5 24.3998L109.6 24.8998C109.2 25.0998 108.5 25.0998 108 24.8998C107.6 24.5998 107.6 24.1998 108 23.9998L108.9 23.4998C109.1 23.3998 109.1 23.1998 108.9 23.0998L108 22.5998C107.6 22.2998 107.6 21.8999 108 21.6999C108.4 21.3999 109.1 21.3999 109.6 21.6999L110.5 22.1999C110.7 22.2999 111 22.2999 111.3 22.1999L112.2 21.6999C112.6 21.4999 113.3 21.4999 113.8 21.6999Z" fill="#004C45"/>
<path d="M109 12.2998V20.1998L107.9 20.7998V12.9998L109 12.2998Z" fill="#E2E2E2"/>
<path d="M107.9 12.9998V20.7998L107.5 20.5998V12.7998L107.9 12.9998Z" fill="#004C45"/>
<path d="M109 12.2998L107.9 12.9998L107.5 12.7998L107.6 12.5999L108.4 12.1999L108.6 12.0999L109 12.2998Z" fill="#B7CDC4"/>
<path d="M108.6 12.1C108.5 12.1 108.4 12.1 108.4 12.1C108.4 12.1 108.4 12.1 108.4 12V21.9V22C108.5 22 108.6 22 108.6 22C108.6 22 108.6 22 108.6 21.9V12.1Z" fill="white"/>
<path d="M108.6 11.8999C108.5 11.8999 108.4 11.8999 108.4 11.8999C108.3 11.8999 108.3 11.9999 108.4 11.9999C108.5 11.9999 108.6 11.9999 108.6 11.9999C108.7 11.9999 108.7 11.9999 108.6 11.8999Z" fill="#B7CDC4"/>
<path d="M114.3 12.7998V20.6998L114 20.8998V12.9998L114.3 12.7998Z" fill="#E2E2E2"/>
<path d="M114 12.9999V20.8999L112.9 20.1999V12.3999L114 12.9999Z" fill="#004C45"/>
<path d="M114.3 12.7V12.7999L114 12.9999L112.9 12.3999L113.2 12.2H113.5L114.3 12.7Z" fill="#B7CDC4"/>
<path d="M113.5 11.9999C113.4 11.9999 113.3 11.9999 113.3 11.9999C113.3 11.9999 113.3 11.9999 113.3 11.8999V21.7999V21.8999C113.4 21.8999 113.5 21.8999 113.5 21.8999C113.5 21.8999 113.5 21.8999 113.5 21.7999V11.9999Z" fill="#004C45"/>
<path d="M113.5 11.8999C113.4 11.8999 113.3 11.8999 113.3 11.8999C113.2 11.8999 113.2 11.9999 113.3 11.9999C113.4 11.9999 113.5 11.9999 113.5 11.9999C113.6 11.9999 113.6 11.8999 113.5 11.8999Z" fill="#B7CDC4"/>
<path d="M108.6 14.7999C108.5 14.7999 108.4 14.7999 108.4 14.7999C108.4 14.7999 108.4 14.8 108.4 14.7V24.5999V24.7C108.5 24.7 108.6 24.7 108.6 24.7C108.6 24.7 108.6 24.6999 108.6 24.5999V14.7999Z" fill="white"/>
<path d="M108.6 14.7C108.5 14.7 108.4 14.7 108.4 14.7C108.3 14.7 108.3 14.7999 108.4 14.7999C108.5 14.7999 108.6 14.7999 108.6 14.7999V14.7Z" fill="#B7CDC4"/>
<path d="M108.3 15.6998V23.5998L107.5 23.0998V15.2998L108.3 15.6998Z" fill="#004C45"/>
<path d="M108.6 15.7V23.5999H108.3V15.7H108.6Z" fill="#004C45"/>
<path d="M108.9 15.5L109 23.4L108.6 23.6V15.7L108.9 15.5Z" fill="#E2E2E2"/>
<path d="M108.9 15.4999L108.6 15.6999H108.3L107.5 15.2999V15.0999L107.9 14.8999L108.9 15.4999Z" fill="#B7CDC4"/>
<path d="M113.5 14.7999C113.4 14.7999 113.3 14.7999 113.3 14.7999C113.3 14.7999 113.3 14.8 113.3 14.7V24.5999V24.7C113.4 24.7 113.5 24.7 113.5 24.7C113.5 24.7 113.5 24.6999 113.5 24.5999V14.7999Z" fill="white"/>
<path d="M113.5 14.7C113.4 14.7 113.3 14.7 113.3 14.7C113.2 14.7 113.2 14.7999 113.3 14.7999C113.4 14.7999 113.5 14.7999 113.5 14.7999V14.7Z" fill="#B7CDC4"/>
<path d="M114.3 15.0999V22.8998L114.2 22.9998V15.1999L114.3 15.0999Z" fill="white"/>
<path d="M114.2 15.2V22.9999L113.5 23.4999L113.4 15.7L114.2 15.2Z" fill="#E2E2E2"/>
<path d="M113.4 15.7L113.5 23.4999H113.2V15.7H113.4Z" fill="#004C45"/>
<path d="M113.2 15.7V23.5L112.8 23.3V15.5L113.2 15.7Z" fill="#004C45"/>
<path d="M114.3 15.0999L114.2 15.1999L113.4 15.6999H113.2L112.8 15.4999L113.9 14.8999L114.3 15.0999Z" fill="#B7CDC4"/>
<path d="M111.1 12.8999L111.3 23.3999C111.3 23.3999 111.3 23.4999 111.2 23.4999C111.1 23.5999 110.9 23.5999 110.8 23.4999L110.7 23.3999L110.9 12.8999C110.9 12.9999 111 12.9999 111.1 12.8999C111.1 12.9999 111 12.9999 111.1 12.8999Z" fill="white"/>
<mask id="mask0_5928_17786" style="mask-type:luminance" maskUnits="userSpaceOnUse" x="110" y="12" width="2" height="12">
<path d="M111.1 12.8999L111.3 23.3999C111.3 23.3999 111.3 23.4999 111.2 23.4999C111.1 23.5999 110.9 23.5999 110.8 23.4999L110.7 23.3999L110.9 12.8999C110.9 12.9999 111 12.9999 111.1 12.8999C111.1 12.9999 111 12.9999 111.1 12.8999Z" fill="white"/>
</mask>
<g mask="url(#mask0_5928_17786)">
<path d="M111 13H110.9L110.7 23.5C110.7 23.5 110.7 23.6 110.8 23.6C110.9 23.7 111.1 23.7 111.2 23.6L111.3 23.5L111 13Z" fill="#004C45"/>
</g>
<path d="M111 12.8999H110.9V12.9999C110.9 12.9999 111 12.9999 111 12.8999C111.1 12.9999 111.1 12.8999 111 12.8999Z" fill="#B7CDC4"/>
<path d="M103.559 116.077L72.3622 120.963C70.295 121.277 68.165 119.554 67.6326 117.079L51.4389 41.8744C50.4992 38.335 53.6941 36.4243 55.7614 36.1111L85.4237 31.9452C87.4909 31.632 89.6209 33.3547 90.1533 35.8292L108.446 110.878C108.978 113.352 107.694 115.451 103.559 116.077Z" fill="#B7CDC4"/>
<path d="M105.689 115.2L74.4919 120.086C72.4247 120.399 70.2947 118.677 69.7622 116.202L53.5686 40.9973C53.0361 38.5228 54.289 36.2676 56.3563 35.923L87.5534 31.0367C89.6206 30.7235 91.7505 32.4463 92.283 34.9207L108.477 110.126C109.04 112.632 107.788 114.887 105.689 115.2Z" fill="white"/>
<path d="M106.383 107.666C106.771 109.414 105.618 111.13 103.854 111.432L75.2821 116.323C73.63 116.606 72.048 115.538 71.6926 113.9L56.5829 44.2513C56.2028 42.4989 57.3685 40.7857 59.1381 40.4961L87.4164 35.8688C89.0561 35.6005 90.62 36.6591 90.98 38.2811L106.383 107.666Z" fill="#73D19C"/>
<path d="M146 33C148.761 33 151 30.7622 151 28C151 25.239 148.761 23 146 23C143.239 23 141 25.239 141 28C141 30.7622 143.239 33 146 33Z" fill="#B7CDC4"/>
<path d="M154 13C155.657 13 157 11.6565 157 10C157 8.34254 155.657 7 154 7C152.344 7 151 8.34254 151 10C151 11.6565 152.344 13 154 13Z" fill="#B7CDC4"/>
<path d="M38 20C39.6575 20 41 18.6575 41 17C41 15.3436 39.6575 14 38 14C36.3436 14 35 15.3436 35 17C35 18.6575 36.3436 20 38 20Z" fill="#B7CDC4"/>
<path d="M9 93C12.3138 93 15 90.3115 15 87C15 83.6885 12.3138 81 9 81C5.68615 81 3 83.6885 3 87C3 90.3115 5.68615 93 9 93Z" fill="#B7CDC4"/>
<path d="M116.854 102.959C118.539 99.991 118.979 95.9752 118.014 92.2627C117.051 88.5115 114.679 85.1797 111.713 83.4174C111.257 83.1314 110.632 83.3049 110.346 83.7606C110.222 83.9891 110.175 84.2588 110.243 84.5323C110.313 84.7671 110.461 85.0043 110.689 85.128C113.197 86.643 115.237 89.4603 116.061 92.742C116.886 95.9849 116.542 99.4225 115.105 101.934C114.818 102.428 114.992 103.015 115.487 103.302C115.981 103.589 116.607 103.416 116.854 102.959Z" fill="#004C45"/>
<path d="M113.389 101.064C114.511 98.7367 114.716 95.9921 114.027 93.3348C113.339 90.6387 111.786 88.341 109.665 86.8385C109.21 86.5138 108.587 86.6099 108.263 87.0644C108.099 87.3303 108.051 87.6 108.12 87.8735C108.19 88.1083 108.3 88.3056 108.528 88.4292C110.271 89.6482 111.566 91.5501 112.114 93.7766C112.702 95.9656 112.512 98.2457 111.597 100.154C111.349 100.649 111.562 101.237 112.058 101.486C112.553 101.773 113.141 101.56 113.389 101.064Z" fill="#004C45"/>
<path d="M109.927 99.0922C110.636 97.5264 110.769 95.8257 110.356 94.2236C109.906 92.5428 108.906 91.1154 107.468 90.0613C107.014 89.7366 106.39 89.8327 106.066 90.2872C105.902 90.5531 105.853 90.8616 105.922 91.135C105.992 91.3698 106.102 91.5671 106.292 91.6895C107.39 92.4613 108.092 93.5303 108.441 94.7041C108.752 95.8767 108.636 97.0742 108.133 98.2591C107.923 98.7561 108.136 99.3442 108.633 99.5541C109.128 99.8413 109.716 99.6279 109.927 99.0922Z" fill="#004C45"/>
<path d="M106.955 95.121C106.61 93.8311 105.316 93.0917 104.027 93.3987C102.737 93.7444 101.998 95.038 102.305 96.3267C102.651 97.6166 103.944 98.356 105.233 98.049C106.523 97.7033 107.301 96.411 106.955 95.121Z" fill="#004C45"/>
<circle cx="112" cy="96" r="19" fill="#004C45"/>
<path d="M116 93C117.657 93 119 91.6569 119 90C119 88.3431 117.657 87 116 87C114.343 87 113 88.3431 113 90C113 91.6569 114.343 93 116 93Z" stroke="white" stroke-width="2" stroke-linecap="round" stroke-linejoin="round"/>
<path d="M117 105C118.657 105 120 103.657 120 102C120 100.343 118.657 99 117 99C115.343 99 114 100.343 114 102C114 103.657 115.343 105 117 105Z" stroke="white" stroke-width="2" stroke-linecap="round" stroke-linejoin="round"/>
<path d="M105 99C106.657 99 108 97.6569 108 96C108 94.3431 106.657 93 105 93C103.343 93 102 94.3431 102 96C102 97.6569 103.343 99 105 99Z" stroke="white" stroke-width="2" stroke-linecap="round" stroke-linejoin="round"/>
<path d="M113 91L108 94.6215M113 101L108 97.3785" stroke="white" stroke-width="2" stroke-linecap="round" stroke-linejoin="round"/>
</svg>
