<svg width="160" height="140" viewBox="0 0 160 140" fill="none" xmlns="http://www.w3.org/2000/svg">
<path d="M87 133C120.136 133 147 106.189 147 73.0006C147 39.8108 120.018 13 87 13C53.8639 13 27 39.8108 27 73.0006C27 106.189 53.8639 133 87 133Z" fill="#F0C4BC"/>
<path d="M146 33C148.761 33 151 30.7622 151 28C151 25.239 148.761 23 146 23C143.239 23 141 25.239 141 28C141 30.7622 143.239 33 146 33Z" fill="#F0C4BC"/>
<path d="M154 13C155.657 13 157 11.6565 157 10C157 8.34254 155.657 7 154 7C152.344 7 151 8.34254 151 10C151 11.6565 152.344 13 154 13Z" fill="#F0C4BC"/>
<path d="M38 20C39.6575 20 41 18.6575 41 17C41 15.3436 39.6575 14 38 14C36.3436 14 35 15.3436 35 17C35 18.6575 36.3436 20 38 20Z" fill="#F0C4BC"/>
<path d="M9 93C12.3138 93 15 90.3115 15 87C15 83.6885 12.3138 81 9 81C5.68615 81 3 83.6885 3 87C3 90.3115 5.68615 93 9 93Z" fill="#F0C4BC"/>
<path d="M103.559 116.077L72.3622 120.963C70.295 121.276 68.165 119.554 67.6326 117.079L51.4389 41.8743C50.4992 38.3348 53.6941 36.4242 55.7614 36.1109L85.4237 31.9451C87.4909 31.6318 89.6209 33.3546 90.1533 35.829L108.446 110.877C108.978 113.352 107.694 115.45 103.559 116.077Z" fill="#B7CDC4"/>
<path d="M105.689 115.2L74.4917 120.086C72.4244 120.399 70.2945 118.677 69.762 116.202L53.5683 40.9973C53.0359 38.5228 54.2888 36.2676 56.356 35.923L87.5531 31.0367C89.6204 30.7235 91.7503 32.4463 92.2828 34.9207L108.476 110.126C109.04 112.632 107.787 114.887 105.689 115.2Z" fill="white"/>
<path d="M106.383 107.666C106.771 109.414 105.618 111.13 103.854 111.432L75.2821 116.323C73.63 116.606 72.048 115.538 71.6926 113.9L56.5829 44.2513C56.2028 42.4989 57.3685 40.7856 59.1381 40.4961L87.4164 35.8687C89.0561 35.6004 90.62 36.659 90.98 38.281L106.383 107.666Z" fill="#73D19C"/>
<path d="M75.8916 69.5417L87.5264 77.1464L83.8435 83.5493L80.0882 63.905L85.8259 68.2509L77.7692 79.3638" stroke="#004C45" stroke-width="1.75"/>
<circle cx="112" cy="96" r="19" fill="#5A2740"/>
<path d="M112 104C113.105 104 114 103.105 114 102C114 100.895 113.105 100 112 100C110.895 100 110 100.895 110 102C110 103.105 110.895 104 112 104Z" fill="white"/>
<path d="M112 98.6667C112.353 98.6667 112.693 98.5262 112.943 98.2761C113.193 98.0261 113.333 97.687 113.333 97.3333V89.3333C113.333 88.9797 113.193 88.6406 112.943 88.3905C112.693 88.1405 112.353 88 112 88C111.646 88 111.307 88.1405 111.057 88.3905C110.807 88.6406 110.667 88.9797 110.667 89.3333V97.3333C110.667 97.687 110.807 98.0261 111.057 98.2761C111.307 98.5262 111.646 98.6667 112 98.6667Z" fill="white"/>
</svg>
