<svg width="160" height="140" viewBox="0 0 160 140" fill="none" xmlns="http://www.w3.org/2000/svg">
<path d="M87 133C120.136 133 147 106.189 147 73.0006C147 39.8108 120.018 13 87 13C53.8639 13 27 39.8108 27 73.0006C27 106.189 53.8639 133 87 133Z" fill="#B7CDC4"/>
<path d="M146 33C148.761 33 151 30.7622 151 28C151 25.239 148.761 23 146 23C143.239 23 141 25.239 141 28C141 30.7622 143.239 33 146 33Z" fill="#B7CDC4"/>
<path d="M154 13C155.657 13 157 11.6565 157 10C157 8.34254 155.657 7 154 7C152.344 7 151 8.34254 151 10C151 11.6565 152.344 13 154 13Z" fill="#B7CDC4"/>
<path d="M38 20C39.6575 20 41 18.6575 41 17C41 15.3436 39.6575 14 38 14C36.3436 14 35 15.3436 35 17C35 18.6575 36.3436 20 38 20Z" fill="#B7CDC4"/>
<path d="M9 93C12.3138 93 15 90.3115 15 87C15 83.6885 12.3138 81 9 81C5.68615 81 3 83.6885 3 87C3 90.3115 5.68615 93 9 93Z" fill="#B7CDC4"/>
<path d="M103.559 116.077L72.3622 120.963C70.295 121.276 68.165 119.554 67.6326 117.079L51.4389 41.8743C50.4992 38.3348 53.6941 36.4242 55.7614 36.1109L85.4237 31.9451C87.4909 31.6318 89.6209 33.3546 90.1533 35.829L108.446 110.877C108.978 113.352 107.694 115.45 103.559 116.077Z" fill="#B7CDC4"/>
<path d="M105.689 115.2L74.4917 120.086C72.4244 120.399 70.2945 118.677 69.762 116.202L53.5683 40.9973C53.0359 38.5228 54.2888 36.2676 56.356 35.923L87.5531 31.0367C89.6204 30.7235 91.7503 32.4463 92.2828 34.9207L108.476 110.126C109.04 112.632 107.787 114.887 105.689 115.2Z" fill="white"/>
<path d="M106.383 107.666C106.771 109.414 105.618 111.13 103.854 111.432L75.2821 116.323C73.63 116.606 72.048 115.538 71.6926 113.9L56.5829 44.2512C56.2028 42.4988 57.3685 40.7856 59.1381 40.496L87.4164 35.8686C89.0561 35.6003 90.62 36.659 90.98 38.281L106.383 107.666Z" fill="#73D19C"/>
<path d="M116.854 102.959C118.539 99.9911 118.979 95.9753 118.014 92.2628C117.051 88.5116 114.679 85.1798 111.713 83.4175C111.257 83.1315 110.632 83.305 110.346 83.7607C110.222 83.9892 110.175 84.259 110.243 84.5324C110.313 84.7672 110.461 85.0045 110.689 85.1281C113.197 86.6431 115.237 89.4604 116.061 92.7421C116.886 95.9851 116.542 99.4227 115.105 101.934C114.818 102.428 114.992 103.015 115.487 103.302C115.981 103.59 116.607 103.416 116.854 102.959Z" fill="#004C45"/>
<path d="M113.389 101.064C114.511 98.7368 114.716 95.9922 114.027 93.3349C113.339 90.6389 111.786 88.3411 109.665 86.8386C109.21 86.5139 108.587 86.61 108.262 87.0645C108.099 87.3304 108.051 87.6001 108.12 87.8736C108.19 88.1084 108.3 88.3057 108.528 88.4293C110.271 89.6483 111.566 91.5502 112.114 93.7767C112.702 95.9657 112.512 98.2458 111.597 100.154C111.349 100.649 111.562 101.238 112.058 101.486C112.552 101.773 113.14 101.56 113.389 101.064Z" fill="#004C45"/>
<path d="M109.927 99.0922C110.636 97.5264 110.769 95.8257 110.356 94.2236C109.906 92.5428 108.906 91.1154 107.468 90.0613C107.014 89.7366 106.39 89.8327 106.066 90.2872C105.902 90.5531 105.853 90.8616 105.922 91.135C105.992 91.3698 106.102 91.5671 106.292 91.6895C107.39 92.4613 108.092 93.5303 108.441 94.7041C108.752 95.8767 108.636 97.0742 108.133 98.2591C107.923 98.7561 108.136 99.3442 108.633 99.5541C109.128 99.8413 109.716 99.6279 109.927 99.0922Z" fill="#004C45"/>
<path d="M106.955 95.1211C106.61 93.8312 105.316 93.0918 104.027 93.3988C102.737 93.7445 101.998 95.0381 102.305 96.3268C102.651 97.6167 103.944 98.3561 105.233 98.0491C106.523 97.7034 107.301 96.4111 106.955 95.1211Z" fill="#004C45"/>
<circle cx="112" cy="96" r="19" fill="#004C45"/>
<path d="M75.8916 69.5417L87.5264 77.1464L83.8435 83.5493L80.0882 63.905L85.8259 68.2509L77.7692 79.3638" stroke="#004C45" stroke-width="1.75"/>
<path d="M104.591 90.2466C104.297 90.4436 104.094 90.7492 104.025 91.0963C103.957 91.4433 104.029 91.8034 104.226 92.0973C104.423 92.3911 104.728 92.5947 105.076 92.6632C105.423 92.7317 105.783 92.6596 106.077 92.4626C107.83 91.2914 109.892 90.6663 112.001 90.6663C114.109 90.6663 116.171 91.2914 117.925 92.4626C118.218 92.6596 118.579 92.7317 118.926 92.6632C119.273 92.5947 119.578 92.3911 119.775 92.0973C119.972 91.8034 120.044 91.4433 119.976 91.0963C119.907 90.7492 119.704 90.4436 119.41 90.2466C117.217 88.7818 114.638 88 112.001 88C109.363 88 106.785 88.7818 104.591 90.2466Z" fill="white"/>
<path d="M106.731 97.0369C106.843 97.172 106.98 97.2838 107.134 97.366C107.289 97.4482 107.458 97.499 107.633 97.5158C107.807 97.5325 107.983 97.5147 108.15 97.4634C108.318 97.4121 108.474 97.3283 108.609 97.2169C109.564 96.4303 110.763 96 112.001 95.9995C113.194 95.9951 114.354 96.3951 115.291 97.1342C115.428 97.2514 115.587 97.3397 115.759 97.3938C115.931 97.4478 116.111 97.4665 116.291 97.4488C116.47 97.431 116.644 97.3771 116.801 97.2904C116.959 97.2036 117.098 97.0858 117.209 96.9441C117.32 96.8023 117.401 96.6395 117.447 96.4655C117.494 96.2916 117.505 96.11 117.479 95.9317C117.453 95.7535 117.392 95.5823 117.298 95.4285C117.204 95.2747 117.081 95.1415 116.934 95.0369C115.529 93.9279 113.79 93.3273 112.001 93.3328C110.144 93.334 108.345 93.9797 106.911 95.1595C106.776 95.2709 106.664 95.4079 106.582 95.5626C106.5 95.7172 106.449 95.8866 106.432 96.0609C106.416 96.2352 106.433 96.4112 106.485 96.5786C106.536 96.7461 106.62 96.9018 106.731 97.0369Z" fill="white"/>
<path d="M114.667 101.333C114.667 99.8603 113.473 98.6664 112.001 98.6664C110.528 98.6664 109.334 99.8603 109.334 101.333C109.334 102.806 110.528 104 112.001 104C113.473 104 114.667 102.806 114.667 101.333Z" fill="white"/>
</svg>
