<svg width="154" height="126" viewBox="0 0 154 126" fill="none" xmlns="http://www.w3.org/2000/svg">
<path d="M84 126C117.136 126 144 99.1893 144 66.0006C144 32.8108 117.018 6 84 6C50.8639 6 24 32.8108 24 66.0006C24 99.1893 50.8639 126 84 126Z" fill="#B7CDC4"/>
<path d="M108.5 89.8998C108.2 90.0998 107.8 90.0998 107.5 89.8998C107.4 89.7998 107.3 89.7999 107.3 89.6999V89.5999V104.3C107.3 104.4 107.4 104.5 107.5 104.6C107.8 104.8 108.2 104.8 108.5 104.6C108.6 104.6 108.6 104.5 108.7 104.5C108.7 104.5 108.8 104.4 108.8 104.3V89.5999C108.7 89.6999 108.6 89.7998 108.5 89.8998Z" fill="white"/>
<path d="M108.5 89.2999C108.2 89.0999 107.8 89.0999 107.5 89.2999C107.2 89.4999 107.2 89.6999 107.5 89.8999C107.8 90.0999 108.2 90.0999 108.5 89.8999C108.7 89.6999 108.7 89.3999 108.5 89.2999Z" fill="#B7CDC4"/>
<path d="M108.5 75.2997C108.2 75.4997 107.8 75.4997 107.5 75.2997C107.4 75.1997 107.3 75.1998 107.3 75.0998V74.9998V89.6998C107.3 89.7998 107.4 89.8998 107.5 89.9998C107.8 90.1998 108.2 90.1998 108.5 89.9998C108.6 89.9998 108.6 89.8997 108.7 89.8997C108.7 89.8997 108.8 89.7998 108.8 89.6998V74.9998C108.7 75.0998 108.6 75.1997 108.5 75.2997Z" fill="#004C45"/>
<path d="M108.5 74.6998C108.2 74.4998 107.8 74.4998 107.5 74.6998C107.2 74.8998 107.2 75.0998 107.5 75.2998C107.8 75.4998 108.2 75.4998 108.5 75.2998C108.7 75.0998 108.7 74.7998 108.5 74.6998Z" fill="#004C45"/>
<path d="M108.5 60.5998C108.2 60.7998 107.8 60.7998 107.5 60.5998C107.4 60.4998 107.3 60.4998 107.3 60.3998V60.2998V74.9998C107.3 75.0998 107.4 75.1998 107.5 75.2998C107.8 75.4998 108.2 75.4998 108.5 75.2998C108.6 75.2998 108.6 75.1998 108.7 75.1998C108.7 75.1998 108.8 75.0998 108.8 74.9998V60.2998C108.7 60.3998 108.6 60.4998 108.5 60.5998Z" fill="white"/>
<path d="M108.5 59.9999C108.2 59.7999 107.8 59.7999 107.5 59.9999C107.2 60.1999 107.2 60.3999 107.5 60.5999C107.8 60.7999 108.2 60.7999 108.5 60.5999C108.7 60.3999 108.7 60.1999 108.5 59.9999Z" fill="#B7CDC4"/>
<path d="M108.5 45.9997C108.2 46.1997 107.8 46.1997 107.5 45.9997C107.4 45.8997 107.3 45.8997 107.3 45.7997V45.6997V60.3997C107.3 60.4997 107.4 60.5997 107.5 60.6997C107.8 60.8997 108.2 60.8997 108.5 60.6997C108.6 60.6997 108.6 60.5997 108.7 60.5997C108.7 60.4997 108.8 60.4997 108.8 60.3997V45.6997C108.7 45.7997 108.6 45.8997 108.5 45.9997Z" fill="#004C45"/>
<path d="M108.5 45.3998C108.2 45.1998 107.8 45.1998 107.5 45.3998C107.2 45.5998 107.2 45.7998 107.5 45.9998C107.8 46.1998 108.2 46.1998 108.5 45.9998C108.7 45.7998 108.7 45.5998 108.5 45.3998Z" fill="#004C45"/>
<path d="M108.5 31.3998C108.2 31.5998 107.8 31.5998 107.5 31.3998C107.4 31.2998 107.3 31.2999 107.3 31.1999V31.0999V45.7998C107.3 45.8998 107.4 45.9999 107.5 46.0999C107.8 46.2999 108.2 46.2999 108.5 46.0999C108.6 46.0999 108.6 45.9998 108.7 45.9998C108.7 45.8998 108.8 45.8998 108.8 45.7998V31.0999C108.7 31.1999 108.6 31.2998 108.5 31.3998Z" fill="white"/>
<path d="M108.5 30.7999C108.2 30.5999 107.8 30.5999 107.5 30.7999C107.2 30.9999 107.2 31.1999 107.5 31.3999C107.8 31.5999 108.2 31.5999 108.5 31.3999C108.7 31.1999 108.7 30.9999 108.5 30.7999Z" fill="#B7CDC4"/>
<path d="M108.5 16.7997C108.2 16.9997 107.8 16.9997 107.5 16.7997C107.4 16.6997 107.3 16.6998 107.3 16.5998V16.4998V31.1998C107.3 31.2998 107.4 31.3998 107.5 31.4998C107.8 31.6998 108.2 31.6998 108.5 31.4998C108.6 31.4998 108.6 31.3997 108.7 31.3997C108.7 31.3997 108.8 31.2998 108.8 31.1998V16.4998C108.7 16.5998 108.6 16.6997 108.5 16.7997Z" fill="#004C45"/>
<path d="M108.5 16.1998C108.2 15.9998 107.8 15.9998 107.5 16.1998C107.2 16.3998 107.2 16.5998 107.5 16.7998C107.8 16.9998 108.2 16.9998 108.5 16.7998C108.7 16.5998 108.7 16.3998 108.5 16.1998Z" fill="#004C45"/>
<path d="M108.3 100.9L108.6 100.8L110.1 101.7L109.9 101.8L108.3 100.9Z" fill="white"/>
<path d="M110.1 101.6L110.3 101.4V102L110.1 102.1V101.6Z" fill="white"/>
<path d="M109.9 101.5L110.1 101.3L110.3 101.4L110.1 101.6L109.9 101.5Z" fill="white"/>
<path d="M110.1 101.6V102.1L108.3 101.1V100.9L109.9 101.8V101.5L110.1 101.6Z" fill="#B7CDC4"/>
<path d="M108.3 97.5999L108.6 97.3999L110.1 98.2999L109.9 98.4999L108.3 97.5999Z" fill="white"/>
<path d="M110.1 98.2998L110.3 98.0999V98.6999L110.1 98.7998V98.2998Z" fill="white"/>
<path d="M109.9 98.1998L110.1 97.9998L110.3 98.0998L110.1 98.2997L109.9 98.1998Z" fill="white"/>
<path d="M110.1 98.2998V98.7998L108.3 97.7998V97.5999L109.9 98.4998V98.1999L110.1 98.2998Z" fill="#B7CDC4"/>
<path d="M108.3 94.2998L108.6 94.0999L110.1 94.9998L109.9 95.1999L108.3 94.2998Z" fill="white"/>
<path d="M110.1 94.8998L110.3 94.7998V95.2998L110.1 95.4998V94.8998Z" fill="white"/>
<path d="M109.9 94.7997L110.1 94.6997L110.3 94.7997L110.1 94.8997L109.9 94.7997Z" fill="white"/>
<path d="M110.1 94.8998V95.4998L108.3 94.4998V94.2998L109.9 95.1998V94.7998L110.1 94.8998Z" fill="#B7CDC4"/>
<path d="M108.3 90.8998L108.6 90.7998L110.1 91.6998L109.9 91.7998L108.3 90.8998Z" fill="white"/>
<path d="M110.1 91.5998L110.3 91.4998V91.9998L110.1 92.1998V91.5998Z" fill="white"/>
<path d="M109.9 91.4999L110.1 91.3999L110.3 91.4999L110.1 91.5999L109.9 91.4999Z" fill="white"/>
<path d="M110.1 91.5999V92.1999L108.3 91.1999V90.8999L109.9 91.7999V91.4999L110.1 91.5999Z" fill="#B7CDC4"/>
<path d="M106 101.8L105.8 101.7L107.3 100.8L107.6 100.9L106 101.8Z" fill="white"/>
<path d="M105.9 102.1L105.6 102V101.4L105.8 101.6L105.9 102.1Z" fill="#B7CDC4"/>
<path d="M105.8 101.6L105.6 101.4L105.8 101.3L106 101.5L105.8 101.6Z" fill="white"/>
<path d="M106 101.5V101.8L107.6 100.9V101.1L105.9 102.1L105.8 101.6L106 101.5Z" fill="white"/>
<path d="M106 98.4999L105.8 98.2999L107.3 97.3999L107.6 97.5999L106 98.4999Z" fill="white"/>
<path d="M105.9 98.7998L105.6 98.6999V98.0999L105.8 98.2998L105.9 98.7998Z" fill="#B7CDC4"/>
<path d="M105.8 98.2997L105.6 98.0998L105.8 97.9998L106 98.1998L105.8 98.2997Z" fill="white"/>
<path d="M106 98.1999V98.4998L107.6 97.5999V97.7998L105.9 98.7998L105.8 98.2998L106 98.1999Z" fill="white"/>
<path d="M106 95.1999L105.8 94.9998L107.3 94.0999L107.6 94.2998L106 95.1999Z" fill="white"/>
<path d="M105.9 95.4998L105.6 95.2998V94.7998L105.8 94.8998L105.9 95.4998Z" fill="#B7CDC4"/>
<path d="M105.8 94.8997L105.6 94.7997L105.8 94.6997L106 94.7997L105.8 94.8997Z" fill="white"/>
<path d="M106 94.7998V95.1998L107.6 94.2998V94.4998L105.9 95.4998L105.8 94.8998L106 94.7998Z" fill="white"/>
<path d="M106 91.7998L105.8 91.6998L107.3 90.7998L107.6 90.8998L106 91.7998Z" fill="white"/>
<path d="M105.9 92.1998L105.6 91.9998V91.4998L105.8 91.5998L105.9 92.1998Z" fill="#B7CDC4"/>
<path d="M105.8 91.5999L105.6 91.4999L105.8 91.3999L106 91.4999L105.8 91.5999Z" fill="white"/>
<path d="M106 91.4999V91.7999L107.6 90.8999V91.1999L105.9 92.1999L105.8 91.5999L106 91.4999Z" fill="white"/>
<path d="M108.3 87.2998L108.6 87.0999L110.1 87.9998L109.9 88.0999L108.3 87.2998Z" fill="#004C45"/>
<path d="M110.1 87.8998L110.3 87.7998V88.2998L110.1 88.4998V87.8998Z" fill="#004C45"/>
<path d="M109.9 87.7999L110.1 87.7L110.3 87.7999L110.1 87.8999L109.9 87.7999Z" fill="#004C45"/>
<path d="M110.1 87.8998V88.4998L108.3 87.4998V87.2998L109.9 88.0998V87.7998L110.1 87.8998Z" fill="#004C45"/>
<path d="M108.3 83.8998L108.6 83.7998L110.1 84.6998L109.9 84.7998L108.3 83.8998Z" fill="#004C45"/>
<path d="M110.1 84.5998L110.3 84.4998V84.9998L110.1 85.1998V84.5998Z" fill="#004C45"/>
<path d="M109.9 84.4999L110.1 84.3999L110.3 84.4999L110.1 84.5999L109.9 84.4999Z" fill="#004C45"/>
<path d="M110.1 84.5999V85.1999L108.3 84.1999V83.8999L109.9 84.7999V84.4999L110.1 84.5999Z" fill="#004C45"/>
<path d="M108.3 80.5998L108.6 80.4998L110.1 81.2997L109.9 81.4998L108.3 80.5998Z" fill="#004C45"/>
<path d="M110.1 81.2998L110.3 81.0999V81.6999L110.1 81.7998V81.2998Z" fill="#004C45"/>
<path d="M109.9 81.1998L110.1 80.9998L110.3 81.0998L110.1 81.2997L109.9 81.1998Z" fill="#004C45"/>
<path d="M110.1 81.2998V81.7998L108.3 80.7998V80.5999L109.9 81.4998V81.1999L110.1 81.2998Z" fill="#004C45"/>
<path d="M108.3 77.2998L108.6 77.0999L110.1 77.9998L109.9 78.1999L108.3 77.2998Z" fill="#004C45"/>
<path d="M110.1 77.9998L110.3 77.7998V78.3998L110.1 78.4998V77.9998Z" fill="#004C45"/>
<path d="M109.9 77.8999L110.1 77.7L110.3 77.7999L110.1 77.9999L109.9 77.8999Z" fill="#004C45"/>
<path d="M110.1 77.9998V78.4998L108.3 77.4998V77.2998L109.9 78.1998V77.8998L110.1 77.9998Z" fill="#004C45"/>
<path d="M106 88.0999L105.8 87.9998L107.3 87.0999L107.6 87.2998L106 88.0999Z" fill="#004C45"/>
<path d="M105.9 88.4998L105.6 88.2998V87.7998L105.8 87.8998L105.9 88.4998Z" fill="#004C45"/>
<path d="M105.8 87.8999L105.6 87.7999L105.8 87.7L106 87.7999L105.8 87.8999Z" fill="#004C45"/>
<path d="M106 87.7998V88.0998L107.6 87.2998V87.4998L105.9 88.4998L105.8 87.8998L106 87.7998Z" fill="#004C45"/>
<path d="M106 84.7998L105.8 84.6998L107.3 83.7998L107.6 83.8998L106 84.7998Z" fill="#004C45"/>
<path d="M105.9 85.1998L105.6 84.9998V84.4998L105.8 84.5998L105.9 85.1998Z" fill="#004C45"/>
<path d="M105.8 84.5999L105.6 84.4999L105.8 84.3999L106 84.4999L105.8 84.5999Z" fill="#004C45"/>
<path d="M106 84.4999V84.7999L107.6 83.8999V84.0999L105.9 85.1999L105.8 84.5999L106 84.4999Z" fill="#004C45"/>
<path d="M106 81.4998L105.8 81.3997L107.3 80.4998L107.6 80.5998L106 81.4998Z" fill="#004C45"/>
<path d="M105.9 81.7998L105.6 81.6999V81.0999L105.8 81.2998L105.9 81.7998Z" fill="#004C45"/>
<path d="M105.8 81.2997L105.6 81.0998L105.8 80.9998L106 81.1998L105.8 81.2997Z" fill="#004C45"/>
<path d="M106 81.1999V81.4998L107.6 80.5999V80.7998L105.9 81.7998L105.8 81.2998L106 81.1999Z" fill="#004C45"/>
<path d="M106 78.1999L105.8 77.9998L107.3 77.0999L107.6 77.2998L106 78.1999Z" fill="#004C45"/>
<path d="M105.9 78.4998L105.6 78.3998V77.7998L105.8 77.9998L105.9 78.4998Z" fill="#004C45"/>
<path d="M105.8 77.9999L105.6 77.7999L105.8 77.7L106 77.8999L105.8 77.9999Z" fill="#004C45"/>
<path d="M106 77.8998V78.1998L107.6 77.2998V77.4998L105.9 78.4998L105.8 77.9998L106 77.8998Z" fill="#004C45"/>
<path d="M108.3 73.1999L108.6 73.0999L110.1 73.9998L109.9 74.0999L108.3 73.1999Z" fill="white"/>
<path d="M110.1 73.8998L110.3 73.7998V74.2998L110.1 74.4998V73.8998Z" fill="white"/>
<path d="M109.9 73.7999L110.1 73.7L110.3 73.7999L110.1 73.8999L109.9 73.7999Z" fill="white"/>
<path d="M110.1 73.8999V74.4999L108.3 73.3999V73.2L109.9 74.0999V73.7999L110.1 73.8999Z" fill="#B7CDC4"/>
<path d="M108.3 69.8998L108.6 69.7998L110.1 70.5998L109.9 70.7998L108.3 69.8998Z" fill="white"/>
<path d="M110.1 70.5999L110.3 70.3999V70.9999L110.1 71.0999V70.5999Z" fill="white"/>
<path d="M109.9 70.4998L110.1 70.2998L110.3 70.3998L110.1 70.5998L109.9 70.4998Z" fill="white"/>
<path d="M110.1 70.5999V71.0999L108.3 70.0999V69.8999L109.9 70.7999V70.4999L110.1 70.5999Z" fill="#B7CDC4"/>
<path d="M108.3 66.5999L108.6 66.3999L110.1 67.2999L109.9 67.4999L108.3 66.5999Z" fill="white"/>
<path d="M110.1 67.2998L110.3 67.0999V67.6999L110.1 67.7998V67.2998Z" fill="white"/>
<path d="M109.9 67.0998L110.1 66.9998L110.3 67.0998L110.1 67.2997L109.9 67.0998Z" fill="white"/>
<path d="M110.1 67.2998V67.7998L108.3 66.7998V66.5999L109.9 67.4998V67.0999L110.1 67.2998Z" fill="#B7CDC4"/>
<path d="M108.3 63.2998L108.6 63.0999L110.1 63.9998L109.9 64.0999L108.3 63.2998Z" fill="white"/>
<path d="M110.1 63.8998L110.3 63.7998V64.2998L110.1 64.4998V63.8998Z" fill="white"/>
<path d="M109.9 63.7999L110.1 63.7L110.3 63.7999L110.1 63.8999L109.9 63.7999Z" fill="white"/>
<path d="M110.1 63.8998V64.4998L108.3 63.4998V63.2998L109.9 64.0998V63.7998L110.1 63.8998Z" fill="#B7CDC4"/>
<path d="M106 74.0999L105.8 73.9998L107.3 73.0999L107.6 73.1999L106 74.0999Z" fill="white"/>
<path d="M105.9 74.4998L105.6 74.2998V73.7998L105.8 73.8998L105.9 74.4998Z" fill="#B7CDC4"/>
<path d="M105.8 73.8999L105.6 73.7999L105.8 73.7L106 73.7999L105.8 73.8999Z" fill="white"/>
<path d="M106 73.7999V74.0999L107.6 73.2V73.4999L105.9 74.4999L105.8 73.8999L106 73.7999Z" fill="white"/>
<path d="M106 70.7998L105.8 70.5998L107.3 69.7998L107.6 69.8998L106 70.7998Z" fill="white"/>
<path d="M105.9 71.0999L105.6 70.9999V70.3999L105.8 70.5999L105.9 71.0999Z" fill="#B7CDC4"/>
<path d="M105.8 70.5998L105.6 70.3998L105.8 70.2998L106 70.4998L105.8 70.5998Z" fill="white"/>
<path d="M106 70.4999V70.7999L107.6 69.8999V70.0999L105.9 71.0999L105.8 70.5999L106 70.4999Z" fill="white"/>
<path d="M106 67.4999L105.8 67.2999L107.3 66.3999L107.6 66.5999L106 67.4999Z" fill="white"/>
<path d="M105.9 67.7998L105.6 67.6999V67.0999L105.8 67.2998L105.9 67.7998Z" fill="#B7CDC4"/>
<path d="M105.8 67.2997L105.6 67.0998L105.8 66.9998L106 67.1998L105.8 67.2997Z" fill="white"/>
<path d="M106 67.1999V67.4998L107.6 66.5999V66.7998L105.9 67.7998L105.8 67.2998L106 67.1999Z" fill="white"/>
<path d="M106 64.0999L105.8 63.9998L107.3 63.0999L107.6 63.1999L106 64.0999Z" fill="white"/>
<path d="M105.9 64.4998L105.6 64.2998V63.7998L105.8 63.8998L105.9 64.4998Z" fill="#B7CDC4"/>
<path d="M105.8 63.8999L105.6 63.7999L105.8 63.7L106 63.7999L105.8 63.8999Z" fill="white"/>
<path d="M106 63.7999V64.0999L107.6 63.2V63.4999L105.9 64.4999L105.8 63.8999L106 63.7999Z" fill="white"/>
<path d="M108.3 59.8997L108.6 59.6997L110.1 60.5997L109.9 60.7997L108.3 59.8997Z" fill="#004C45"/>
<path d="M110.1 60.5999L110.3 60.3999V60.9999L110.1 61.0999V60.5999Z" fill="#004C45"/>
<path d="M109.9 60.4998L110.1 60.2998L110.3 60.3998L110.1 60.5998L109.9 60.4998Z" fill="#004C45"/>
<path d="M110.1 60.5999V61.0999L108.3 60.0999V59.8999L109.9 60.7999V60.4999L110.1 60.5999Z" fill="#004C45"/>
<path d="M108.3 56.5999L108.6 56.3999L110.1 57.2999L109.9 57.4999L108.3 56.5999Z" fill="#004C45"/>
<path d="M110.1 57.2998L110.3 57.0999V57.5999L110.1 57.7998V57.2998Z" fill="#004C45"/>
<path d="M109.9 57.0998L110.1 56.9998L110.3 57.0998L110.1 57.2997L109.9 57.0998Z" fill="#004C45"/>
<path d="M110.1 57.2998V57.7998L108.3 56.7998V56.5999L109.9 57.4998V57.0999L110.1 57.2998Z" fill="#004C45"/>
<path d="M108.3 53.1999L108.6 53.0999L110.1 53.9998L109.9 54.0999L108.3 53.1999Z" fill="#004C45"/>
<path d="M110.1 53.8998L110.3 53.7998V54.2998L110.1 54.4998V53.8998Z" fill="#004C45"/>
<path d="M109.9 53.7997L110.1 53.6997L110.3 53.7997L110.1 53.8997L109.9 53.7997Z" fill="#004C45"/>
<path d="M110.1 53.8997V54.4997L108.3 53.4997V53.1997L109.9 54.0997V53.7997L110.1 53.8997Z" fill="#004C45"/>
<path d="M108.3 49.8998L108.6 49.7998L110.1 50.6998L109.9 50.7998L108.3 49.8998Z" fill="#004C45"/>
<path d="M110.1 50.5998L110.3 50.4998V50.9998L110.1 51.0998V50.5998Z" fill="#004C45"/>
<path d="M109.9 50.4998L110.1 50.2998L110.3 50.4998L110.1 50.5998L109.9 50.4998Z" fill="#004C45"/>
<path d="M110.1 50.5999V51.0999L108.3 50.0999V49.8999L109.9 50.7999V50.4999L110.1 50.5999Z" fill="#004C45"/>
<path d="M106 60.7999L105.8 60.5999L107.3 59.7L107.6 59.8999L106 60.7999Z" fill="#004C45"/>
<path d="M105.9 61.0999L105.6 60.9999V60.3999L105.8 60.5999L105.9 61.0999Z" fill="#004C45"/>
<path d="M105.8 60.5998L105.6 60.3998L105.8 60.2998L106 60.4998L105.8 60.5998Z" fill="#004C45"/>
<path d="M106 60.4999V60.7999L107.6 59.8999V60.0999L105.9 61.0999L105.8 60.5999L106 60.4999Z" fill="#004C45"/>
<path d="M106 57.4999L105.8 57.2999L107.3 56.3999L107.6 56.5999L106 57.4999Z" fill="#004C45"/>
<path d="M105.9 57.7998L105.6 57.5999V57.0999L105.8 57.2998L105.9 57.7998Z" fill="#004C45"/>
<path d="M105.8 57.3L105.6 57.1L105.8 57L106 57.1L105.8 57.3Z" fill="#004C45"/>
<path d="M106 57.0999V57.4998L107.6 56.5999V56.7998L105.9 57.7998L105.8 57.2998L106 57.0999Z" fill="#004C45"/>
<path d="M106 54.0999L105.8 53.9998L107.3 53.0999L107.6 53.1999L106 54.0999Z" fill="#004C45"/>
<path d="M105.9 54.4998L105.6 54.2998V53.7998L105.8 53.8998L105.9 54.4998Z" fill="#004C45"/>
<path d="M105.8 53.8999L105.6 53.7999L105.8 53.7L106 53.7999L105.8 53.8999Z" fill="#004C45"/>
<path d="M106 53.7999V54.0999L107.6 53.2V53.4999L105.9 54.4999L105.8 53.8999L106 53.7999Z" fill="#004C45"/>
<path d="M106 50.7998L105.8 50.6998L107.3 49.7998L107.6 49.8998L106 50.7998Z" fill="#004C45"/>
<path d="M105.9 51.1L105.6 51V50.5L105.8 50.6L105.9 51.1Z" fill="#004C45"/>
<path d="M105.8 50.5998L105.6 50.4998L105.8 50.2998L106 50.4998L105.8 50.5998Z" fill="#004C45"/>
<path d="M106 50.4999V50.7999L107.6 49.8999V50.0999L105.9 51.0999L105.8 50.5999L106 50.4999Z" fill="#004C45"/>
<path d="M108.3 46.5999L108.6 46.3999L110.1 47.2999L109.9 47.4999L108.3 46.5999Z" fill="#004C45"/>
<path d="M110.1 47.2998L110.3 47.0999V47.6999L110.1 47.7998V47.2998Z" fill="#004C45"/>
<path d="M109.9 47.2L110.1 47L110.3 47.1L110.1 47.3L109.9 47.2Z" fill="#004C45"/>
<path d="M110.1 47.2998V47.7998L108.3 46.7998V46.5999L109.9 47.4998V47.1999L110.1 47.2998Z" fill="#004C45"/>
<path d="M106 47.4999L105.8 47.2999L107.3 46.3999L107.6 46.5999L106 47.4999Z" fill="#004C45"/>
<path d="M105.9 47.7998L105.6 47.6999V47.0999L105.8 47.2998L105.9 47.7998Z" fill="#004C45"/>
<path d="M105.8 47.3L105.6 47.1L105.8 47L106 47.2L105.8 47.3Z" fill="#004C45"/>
<path d="M106 47.1999V47.4998L107.6 46.5999V46.7998L105.9 47.7998L105.8 47.2998L106 47.1999Z" fill="#004C45"/>
<path d="M108.3 43.3999L108.6 43.2L110.1 44.0999L109.9 44.2L108.3 43.3999Z" fill="white"/>
<path d="M110.1 43.9999L110.3 43.8999V44.3999L110.1 44.5999V43.9999Z" fill="white"/>
<path d="M109.9 43.8998L110.1 43.7998L110.3 43.8998L110.1 43.9998L109.9 43.8998Z" fill="white"/>
<path d="M110.1 43.9999V44.5999L108.3 43.5999V43.3999L109.9 44.1999V43.8999L110.1 43.9999Z" fill="#B7CDC4"/>
<path d="M108.3 39.9999L108.6 39.8999L110.1 40.7999L109.9 40.8999L108.3 39.9999Z" fill="white"/>
<path d="M110.1 40.6999L110.3 40.5999V41.0999L110.1 41.2998V40.6999Z" fill="white"/>
<path d="M109.9 40.6L110.1 40.5L110.3 40.6L110.1 40.7L109.9 40.6Z" fill="white"/>
<path d="M110.1 40.7V41.3L108.3 40.2V40L109.9 40.9V40.6L110.1 40.7Z" fill="#B7CDC4"/>
<path d="M108.3 36.6999L108.6 36.5999L110.1 37.3998L109.9 37.5999L108.3 36.6999Z" fill="white"/>
<path d="M110.1 37.3999L110.3 37.2V37.7999L110.1 37.8999V37.3999Z" fill="white"/>
<path d="M109.9 37.2998L110.1 37.0999L110.3 37.1999L110.1 37.3998L109.9 37.2998Z" fill="white"/>
<path d="M110.1 37.3999V37.8999L108.3 36.8999V36.7L109.9 37.5999V37.2999L110.1 37.3999Z" fill="#B7CDC4"/>
<path d="M108.3 33.3999L108.6 33.2L110.1 34.0999L109.9 34.2999L108.3 33.3999Z" fill="white"/>
<path d="M110.1 34.0999L110.3 33.8999V34.4999L110.1 34.5999V34.0999Z" fill="white"/>
<path d="M109.9 33.8998L110.1 33.7998L110.3 33.8998L110.1 34.0998L109.9 33.8998Z" fill="white"/>
<path d="M110.1 34.0999V34.5999L108.3 33.5999V33.3999L109.9 34.2999V33.8999L110.1 34.0999Z" fill="#B7CDC4"/>
<path d="M106 44.2L105.8 44.0999L107.3 43.2L107.6 43.3999L106 44.2Z" fill="white"/>
<path d="M105.9 44.5999L105.6 44.3999V43.8999L105.8 43.9999L105.9 44.5999Z" fill="#B7CDC4"/>
<path d="M105.8 43.9998L105.6 43.8998L105.8 43.7998L106 43.8998L105.8 43.9998Z" fill="white"/>
<path d="M106 43.8999V44.1999L107.6 43.3999V43.5999L105.9 44.5999L105.8 43.9999L106 43.8999Z" fill="white"/>
<path d="M106 40.8999L105.8 40.7999L107.3 39.8999L107.6 39.9999L106 40.8999Z" fill="white"/>
<path d="M105.9 41.2998L105.6 41.0999V40.5999L105.8 40.6999L105.9 41.2998Z" fill="#B7CDC4"/>
<path d="M105.8 40.7L105.6 40.6L105.8 40.5L106 40.6L105.8 40.7Z" fill="white"/>
<path d="M106 40.6V40.9L107.6 40V40.2L105.9 41.3L105.8 40.7L106 40.6Z" fill="white"/>
<path d="M106 37.5999L105.8 37.4998L107.3 36.5999L107.6 36.6999L106 37.5999Z" fill="white"/>
<path d="M105.9 37.8999L105.6 37.7999V37.2L105.8 37.3999L105.9 37.8999Z" fill="#B7CDC4"/>
<path d="M105.8 37.3998L105.6 37.1999L105.8 37.0999L106 37.2998L105.8 37.3998Z" fill="white"/>
<path d="M106 37.2999V37.5999L107.6 36.7V36.8999L105.9 37.8999L105.8 37.3999L106 37.2999Z" fill="white"/>
<path d="M106 34.2999L105.8 34.0999L107.3 33.2L107.6 33.3999L106 34.2999Z" fill="white"/>
<path d="M105.9 34.5999L105.6 34.4999V33.8999L105.8 34.0999L105.9 34.5999Z" fill="#B7CDC4"/>
<path d="M105.8 34.0998L105.6 33.8998L105.8 33.7998L106 33.9998L105.8 34.0998Z" fill="white"/>
<path d="M106 33.9999V34.2999L107.6 33.3999V33.5999L105.9 34.5999L105.8 34.0999L106 33.9999Z" fill="white"/>
<path d="M108.3 29.6999L108.6 29.5999L110.1 30.3998L109.9 30.5999L108.3 29.6999Z" fill="#004C45"/>
<path d="M110.1 30.3999L110.3 30.2V30.7999L110.1 30.8999V30.3999Z" fill="#004C45"/>
<path d="M109.9 30.2998L110.1 30.0999L110.3 30.1999L110.1 30.3998L109.9 30.2998Z" fill="#004C45"/>
<path d="M110.1 30.3999V30.8999L108.3 29.8999V29.7L109.9 30.5999V30.2999L110.1 30.3999Z" fill="#004C45"/>
<path d="M108.3 26.3999L108.6 26.2L110.1 27.0999L109.9 27.2999L108.3 26.3999Z" fill="#004C45"/>
<path d="M110.1 27.0999L110.3 26.8999V27.4999L110.1 27.5999V27.0999Z" fill="#004C45"/>
<path d="M109.9 26.8998L110.1 26.7998L110.3 26.8998L110.1 27.0998L109.9 26.8998Z" fill="#004C45"/>
<path d="M110.1 27.0999V27.5999L108.3 26.5999V26.3999L109.9 27.2999V26.8999L110.1 27.0999Z" fill="#004C45"/>
<path d="M108.3 23.0999L108.6 22.8999L110.1 23.7999L109.9 23.8999L108.3 23.0999Z" fill="#004C45"/>
<path d="M110.1 23.6999L110.3 23.5999V24.0999L110.1 24.2998V23.6999Z" fill="#004C45"/>
<path d="M109.9 23.5998L110.1 23.4998L110.3 23.5998L110.1 23.6998L109.9 23.5998Z" fill="#004C45"/>
<path d="M110.1 23.6999V24.2998L108.3 23.2998V23.0999L109.9 23.8998V23.5999L110.1 23.6999Z" fill="#004C45"/>
<path d="M108.3 19.6999L108.6 19.5999L110.1 20.4998L109.9 20.5999L108.3 19.6999Z" fill="#004C45"/>
<path d="M110.1 20.3998L110.3 20.2998V20.7998L110.1 20.8998V20.3998Z" fill="#004C45"/>
<path d="M109.9 20.2998L110.1 20.0999L110.3 20.2998L110.1 20.3998L109.9 20.2998Z" fill="#004C45"/>
<path d="M110.1 20.3999V20.8999L108.3 19.8999V19.7L109.9 20.5999V20.2999L110.1 20.3999Z" fill="#004C45"/>
<path d="M106 30.5999L105.8 30.3998L107.3 29.5999L107.6 29.6999L106 30.5999Z" fill="#004C45"/>
<path d="M105.9 30.8999L105.6 30.7999V30.2L105.8 30.3999L105.9 30.8999Z" fill="#004C45"/>
<path d="M105.8 30.3998L105.6 30.1999L105.8 30.0999L106 30.2998L105.8 30.3998Z" fill="#004C45"/>
<path d="M106 30.2999V30.5999L107.6 29.7V29.8999L105.9 30.8999L105.8 30.3999L106 30.2999Z" fill="#004C45"/>
<path d="M106 27.2999L105.8 27.0999L107.3 26.2L107.6 26.3999L106 27.2999Z" fill="#004C45"/>
<path d="M105.9 27.5999L105.6 27.4999V26.8999L105.8 27.0999L105.9 27.5999Z" fill="#004C45"/>
<path d="M105.8 27.0998L105.6 26.8998L105.8 26.7998L106 26.9998L105.8 27.0998Z" fill="#004C45"/>
<path d="M106 26.9999V27.2999L107.6 26.3999V26.5999L105.9 27.5999L105.8 27.0999L106 26.9999Z" fill="#004C45"/>
<path d="M106 23.8999L105.8 23.7999L107.3 22.8999L107.6 23.0999L106 23.8999Z" fill="#004C45"/>
<path d="M105.9 24.2998L105.6 24.0999V23.5999L105.8 23.6999L105.9 24.2998Z" fill="#004C45"/>
<path d="M105.8 23.6998L105.6 23.5998L105.8 23.4998L106 23.5998L105.8 23.6998Z" fill="#004C45"/>
<path d="M106 23.5999V23.8998L107.6 23.0999V23.2998L105.9 24.2998L105.8 23.6999L106 23.5999Z" fill="#004C45"/>
<path d="M106 20.5999L105.8 20.4998L107.3 19.5999L107.6 19.6999L106 20.5999Z" fill="#004C45"/>
<path d="M105.9 20.9998L105.6 20.7998V20.2998L105.8 20.3998L105.9 20.9998Z" fill="#004C45"/>
<path d="M105.8 20.3998L105.6 20.2998L105.8 20.0999L106 20.2998L105.8 20.3998Z" fill="#004C45"/>
<path d="M106 20.2999V20.5999L107.6 19.7V19.8999L105.9 20.9999L105.8 20.3999L106 20.2999Z" fill="#004C45"/>
<path d="M136.2 104.7C136.1 104.7 136.1 104.7 136.2 104.7L109.2 16.4999C109.2 16.3999 109.2 16.3999 109.3 16.3999C109.4 16.3999 109.4 16.3999 109.4 16.4999L136.3 104.7C136.3 104.7 136.3 104.7 136.2 104.7Z" fill="white"/>
<path d="M107.9 121V17.3998C107.9 17.2998 107.9 17.2998 108 17.2998C108.1 17.2998 108.1 17.2998 108.1 17.3998L107.9 121C108 121 108 120.9 107.9 121Z" fill="#B7CDC4"/>
<path d="M79.4999 104.6C79.3999 104.6 79.3999 104.5 79.3999 104.5L106.3 16.4999C106.3 16.3999 106.4 16.3999 106.4 16.3999C106.5 16.3999 106.5 16.4999 106.5 16.4999L79.4999 104.6C79.5999 104.6 79.5999 104.6 79.4999 104.6Z" fill="white"/>
<path d="M111.1 15.2V15.4999C111.1 15.6999 111 15.7999 110.8 15.8999V15.5999C111 15.4999 111.1 15.3 111.1 15.2Z" fill="#B7CDC4"/>
<path d="M105.1 15.5999V15.8998C104.9 15.7998 104.8 15.5998 104.8 15.3998V15.0999C104.8 15.2999 104.9 15.4999 105.1 15.5999Z" fill="#B7CDC4"/>
<path d="M110.8 15.5999V15.8998L109.9 16.4998V16.0999L110.8 15.5999Z" fill="#004C45"/>
<path d="M106 16.0999V16.4998L105.1 15.8998V15.5999L106 16.0999Z" fill="#004C45"/>
<path d="M109.9 16.0999V16.3998C109.8 16.4998 109.7 16.4999 109.7 16.5999V16.2998C109.7 16.2998 109.8 16.1999 109.9 16.0999Z" fill="#B7CDC4"/>
<path d="M106.2 16.2998V16.5999C106.2 16.4999 106.1 16.3998 106 16.3998V16.0999C106.1 16.1999 106.2 16.2998 106.2 16.2998Z" fill="#B7CDC4"/>
<path d="M108.3 17.4999V17.7998C108.1 17.6998 107.8 17.6998 107.5 17.7998V17.4999C107.8 17.2999 108.1 17.2999 108.3 17.4999Z" fill="#B7CDC4"/>
<path d="M109.2 17.9998V18.2997L108.3 17.7997V17.4998L109.2 17.9998Z" fill="#004C45"/>
<path d="M107.6 17.4998V17.7997L106.7 18.2997V17.9998L107.6 17.4998Z" fill="#004C45"/>
<path d="M111.1 17.4998V17.7997C111.1 17.9997 111 18.0997 110.8 18.2997C110.4 18.4997 109.7 18.4997 109.2 18.2997V17.9998C109.6 18.1998 110.3 18.2998 110.8 17.9998C111 17.8998 111.1 17.6998 111.1 17.4998Z" fill="#B7CDC4"/>
<path d="M106.7 17.9998V18.2997C106.3 18.4997 105.6 18.4997 105.1 18.2997C104.9 18.1997 104.8 17.9997 104.8 17.7997V17.4998C104.8 17.6998 104.9 17.7998 105.1 17.9998C105.6 18.1998 106.3 18.1998 106.7 17.9998Z" fill="#B7CDC4"/>
<path d="M110.8 14.6999C111.2 14.8999 111.2 15.3998 110.8 15.5998L109.9 16.0998C109.7 16.1998 109.7 16.3998 109.9 16.4998L110.8 16.9998C111.2 17.1998 111.2 17.6998 110.8 17.8998C110.4 18.0998 109.7 18.0998 109.2 17.8998L108.3 17.3998C108.1 17.2998 107.8 17.2998 107.5 17.3998L106.6 17.8998C106.2 18.0998 105.5 18.0998 105 17.8998C104.6 17.5998 104.6 17.1998 105 16.9998L105.9 16.4998C106.1 16.3998 106.1 16.1998 105.9 16.0998L105 15.5998C104.6 15.2998 104.6 14.8999 105 14.6999C105.4 14.3999 106.1 14.3999 106.6 14.6999L107.5 15.1999C107.7 15.2999 108 15.2999 108.3 15.1999L109.2 14.6999C109.6 14.4999 110.3 14.4999 110.8 14.6999Z" fill="#004C45"/>
<path d="M106 5.2998V13.1998L104.9 13.7998V5.99982L106 5.2998Z" fill="#E2E2E2"/>
<path d="M104.9 5.99982V13.7998L104.5 13.5998V5.7998L104.9 5.99982Z" fill="#004C45"/>
<path d="M106 5.29984L104.9 5.99985L104.5 5.79984L104.6 5.59985L105.4 5.19986L105.6 5.09985L106 5.29984Z" fill="#B7CDC4"/>
<path d="M105.6 5.10001C105.5 5.10001 105.4 5.10001 105.4 5.10001C105.4 5.10001 105.4 5.1 105.4 5V14.9V15C105.5 15 105.6 15 105.6 15C105.6 15 105.6 15 105.6 14.9V5.10001Z" fill="white"/>
<path d="M105.6 4.8999C105.5 4.8999 105.4 4.8999 105.4 4.8999C105.3 4.8999 105.3 4.99991 105.4 4.99991C105.5 4.99991 105.6 4.99991 105.6 4.99991C105.7 4.99991 105.7 4.9999 105.6 4.8999Z" fill="#B7CDC4"/>
<path d="M111.3 5.7998V13.6998L111 13.8998V5.99982L111.3 5.7998Z" fill="#E2E2E2"/>
<path d="M111 5.99991V13.8999L109.9 13.1999V5.3999L111 5.99991Z" fill="#004C45"/>
<path d="M111.3 5.69995V5.79993L111 5.99994L109.9 5.39993L110.2 5.19995H110.5L111.3 5.69995Z" fill="#B7CDC4"/>
<path d="M110.5 4.99991C110.4 4.99991 110.3 4.99991 110.3 4.99991C110.3 4.99991 110.3 4.9999 110.3 4.8999V14.7999V14.8999C110.4 14.8999 110.5 14.8999 110.5 14.8999C110.5 14.8999 110.5 14.8999 110.5 14.7999V4.99991Z" fill="#004C45"/>
<path d="M110.5 4.8999C110.4 4.8999 110.3 4.8999 110.3 4.8999C110.2 4.8999 110.2 4.99991 110.3 4.99991C110.4 4.99991 110.5 4.99991 110.5 4.99991C110.6 4.99991 110.6 4.8999 110.5 4.8999Z" fill="#B7CDC4"/>
<path d="M105.6 7.79993C105.5 7.79993 105.4 7.79993 105.4 7.79993C105.4 7.79993 105.4 7.79995 105.4 7.69995V17.5999V17.7C105.5 17.7 105.6 17.7 105.6 17.7C105.6 17.7 105.6 17.6999 105.6 17.5999V7.79993Z" fill="white"/>
<path d="M105.6 7.69995C105.5 7.69995 105.4 7.69995 105.4 7.69995C105.3 7.69995 105.3 7.79993 105.4 7.79993C105.5 7.79993 105.6 7.79993 105.6 7.79993V7.69995Z" fill="#B7CDC4"/>
<path d="M105.3 8.69983V16.5998L104.5 16.0998V8.2998L105.3 8.69983Z" fill="#004C45"/>
<path d="M105.6 8.69995V16.5999H105.3V8.69995H105.6Z" fill="#004C45"/>
<path d="M105.9 8.5L106 16.4L105.6 16.6V8.70001L105.9 8.5Z" fill="#E2E2E2"/>
<path d="M105.9 8.49991L105.6 8.69992H105.3L104.5 8.2999V8.09991L104.9 7.8999L105.9 8.49991Z" fill="#B7CDC4"/>
<path d="M110.5 7.79993C110.4 7.79993 110.3 7.79993 110.3 7.79993C110.3 7.79993 110.3 7.79995 110.3 7.69995V17.5999V17.7C110.4 17.7 110.5 17.7 110.5 17.7C110.5 17.7 110.5 17.6999 110.5 17.5999V7.79993Z" fill="white"/>
<path d="M110.5 7.69995C110.4 7.69995 110.3 7.69995 110.3 7.69995C110.2 7.69995 110.2 7.79993 110.3 7.79993C110.4 7.79993 110.5 7.79993 110.5 7.79993V7.69995Z" fill="#B7CDC4"/>
<path d="M111.3 8.09985V15.8998L111.2 15.9998V8.19986L111.3 8.09985Z" fill="white"/>
<path d="M111.2 8.19995V15.9999L110.5 16.4999L110.4 8.69995L111.2 8.19995Z" fill="#E2E2E2"/>
<path d="M110.4 8.69995L110.5 16.4999H110.2V8.69995H110.4Z" fill="#004C45"/>
<path d="M110.2 8.70001V16.5L109.8 16.3V8.5L110.2 8.70001Z" fill="#004C45"/>
<path d="M111.3 8.09991L111.2 8.19992L110.4 8.69992H110.2L109.8 8.49991L110.9 7.8999L111.3 8.09991Z" fill="#B7CDC4"/>
<path d="M108.1 5.8999L108.3 16.3999C108.3 16.3999 108.3 16.4999 108.2 16.4999C108.1 16.5999 107.9 16.5999 107.8 16.4999L107.7 16.3999L107.9 5.8999C107.9 5.9999 108 5.9999 108.1 5.8999C108.1 5.9999 108 5.9999 108.1 5.8999Z" fill="white"/>
<mask id="mask0_5928_17374" style="mask-type:luminance" maskUnits="userSpaceOnUse" x="107" y="5" width="2" height="12">
<path d="M108.1 5.8999L108.3 16.3999C108.3 16.3999 108.3 16.4999 108.2 16.4999C108.1 16.5999 107.9 16.5999 107.8 16.4999L107.7 16.3999L107.9 5.8999C107.9 5.9999 108 5.9999 108.1 5.8999C108.1 5.9999 108 5.9999 108.1 5.8999Z" fill="white"/>
</mask>
<g mask="url(#mask0_5928_17374)">
<path d="M108 6H107.9L107.7 16.5C107.7 16.5 107.7 16.6 107.8 16.6C107.9 16.7 108.1 16.7 108.2 16.6L108.3 16.5L108 6Z" fill="#004C45"/>
</g>
<path d="M108 5.8999H107.9V5.99991C107.9 5.99991 108 5.9999 108 5.8999C108.1 5.9999 108.1 5.8999 108 5.8999Z" fill="#B7CDC4"/>
<path d="M100.559 109.077L69.3622 113.963C67.295 114.277 65.165 112.554 64.6326 110.079L48.4389 34.8744C47.4992 31.335 50.6941 29.4243 52.7614 29.1111L82.4237 24.9452C84.4909 24.632 86.6209 26.3547 87.1533 28.8292L105.446 103.878C105.978 106.352 104.694 108.451 100.559 109.077Z" fill="#B7CDC4"/>
<path d="M102.689 108.2L71.4919 113.086C69.4247 113.399 67.2947 111.677 66.7622 109.202L50.5686 33.9973C50.0361 31.5228 51.289 29.2676 53.3563 28.923L84.5534 24.0367C86.6206 23.7235 88.7505 25.4463 89.283 27.9207L105.477 103.126C106.04 105.632 104.788 107.887 102.689 108.2Z" fill="white"/>
<path d="M103.383 100.666C103.771 102.414 102.618 104.13 100.854 104.432L72.2821 109.323C70.63 109.606 69.048 108.538 68.6926 106.9L53.5829 37.2513C53.2028 35.4989 54.3685 33.7857 56.1381 33.4961L84.4164 28.8688C86.0561 28.6005 87.62 29.6591 87.98 31.2811L103.383 100.666Z" fill="#73D19C"/>
<path d="M143 26C145.761 26 148 23.7622 148 21C148 18.239 145.761 16 143 16C140.239 16 138 18.239 138 21C138 23.7622 140.239 26 143 26Z" fill="#B7CDC4"/>
<path d="M151 6C152.657 6 154 4.65645 154 3.00003C154 1.34254 152.657 0 151 0C149.344 0 148 1.34254 148 3.00003C148 4.65645 149.344 6 151 6Z" fill="#B7CDC4"/>
<path d="M35 13C36.6575 13 38 11.6575 38 10C38 8.34356 36.6575 7 35 7C33.3436 7 32 8.34356 32 10C32 11.6575 33.3436 13 35 13Z" fill="#B7CDC4"/>
<path d="M6 86C9.31385 86 12 83.3115 12 80C12 76.6885 9.31385 74 6 74C2.68615 74 0 76.6885 0 80C0 83.3115 2.68615 86 6 86Z" fill="#B7CDC4"/>
<path d="M113.854 95.9589C115.539 92.991 115.979 88.9752 115.014 85.2627C114.051 81.5115 111.679 78.1797 108.713 76.4174C108.257 76.1314 107.632 76.3049 107.346 76.7606C107.222 76.9891 107.175 77.2588 107.243 77.5323C107.313 77.7671 107.461 78.0043 107.689 78.128C110.197 79.643 112.237 82.4603 113.061 85.742C113.886 88.9849 113.542 92.4225 112.105 94.9335C111.818 95.428 111.992 96.0149 112.487 96.3021C112.981 96.5894 113.607 96.4159 113.854 95.9589Z" fill="#004C45"/>
<path d="M110.389 94.0641C111.511 91.7367 111.716 88.9921 111.027 86.3348C110.339 83.6387 108.786 81.341 106.665 79.8385C106.21 79.5138 105.587 79.6099 105.263 80.0644C105.099 80.3303 105.051 80.6 105.12 80.8735C105.19 81.1083 105.3 81.3056 105.528 81.4292C107.271 82.6482 108.566 84.5501 109.114 86.7766C109.702 88.9656 109.512 91.2457 108.597 93.1536C108.349 93.6493 108.562 94.2375 109.058 94.486C109.553 94.7733 110.141 94.5598 110.389 94.0641Z" fill="#004C45"/>
<path d="M106.927 92.0922C107.636 90.5264 107.769 88.8257 107.356 87.2236C106.906 85.5428 105.906 84.1154 104.468 83.0613C104.014 82.7366 103.39 82.8327 103.066 83.2872C102.902 83.5531 102.853 83.8616 102.922 84.135C102.992 84.3698 103.102 84.5671 103.292 84.6895C104.39 85.4613 105.092 86.5303 105.441 87.7041C105.752 88.8767 105.636 90.0742 105.133 91.2591C104.923 91.7561 105.136 92.3442 105.633 92.5541C106.128 92.8413 106.716 92.6279 106.927 92.0922Z" fill="#004C45"/>
<path d="M103.955 88.121C103.61 86.8311 102.316 86.0917 101.027 86.3987C99.7375 86.7444 98.9981 88.038 99.3051 89.3267C99.6508 90.6166 100.944 91.356 102.233 91.049C103.523 90.7033 104.301 89.411 103.955 88.121Z" fill="#004C45"/>
<circle cx="109" cy="89" r="19" fill="#004C45"/>
<path d="M105 84.5L113 93.5L109 98V80L113 84.5L105 93.5" stroke="white" stroke-width="2" stroke-linecap="round" stroke-linejoin="round"/>
</svg>
