<?xml version="1.0" encoding="utf-8"?>
<!-- Generator: Adobe Illustrator 15.1.0, SVG Export Plug-In . SVG Version: 6.00 Build 0)  -->
<!DOCTYPE svg PUBLIC "-//W3C//DTD SVG 1.1//EN" "http://www.w3.org/Graphics/SVG/1.1/DTD/svg11.dtd">
<svg version="1.1" id="Layer_1" xmlns="http://www.w3.org/2000/svg" xmlns:xlink="http://www.w3.org/1999/xlink" x="0px" y="0px"
	 width="409.584px" height="216.372px" viewBox="0 0 409.584 216.372" enable-background="new 0 0 409.584 216.372"
	 xml:space="preserve">
<g>
	<path fill="#505050" d="M190.639,120.39c-1.107,0-1.658-0.609-1.658-1.825V74.625c0-1.216,0.551-1.825,1.658-1.825h3.055
		c1.105,0,1.658,0.609,1.658,1.825v40.321h22c1.219,0,1.826,0.498,1.826,1.494v2.455c0,0.996-0.607,1.494-1.826,1.494H190.639z"/>
	<path fill="#505050" d="M223.455,108.243V87.037c0-0.996,0.498-1.493,1.492-1.493h2.855c0.994,0,1.492,0.497,1.492,1.493v19.613
		c0,4.336,0.719,7.085,2.158,8.246c1.436,1.162,3.217,1.743,5.342,1.743c2.809,0,4.959-0.857,6.457-2.571
		c1.49-1.715,2.24-4.653,2.24-8.812V87.037c0-0.996,0.49-1.493,1.475-1.493h2.82c0.984,0,1.479,0.497,1.479,1.493v31.858
		c0,0.996-0.498,1.494-1.494,1.494h-2.787c-0.998,0-1.492-0.498-1.492-1.494v-2.654c-1.459,1.594-3.027,2.776-4.705,3.55
		c-1.68,0.774-3.73,1.163-6.148,1.163c-3.873,0-6.705-1.134-8.496-3.402C224.352,115.285,223.455,112.181,223.455,108.243"/>
	<path fill="#505050" d="M257.408,89.924c-0.996,0-1.494-0.387-1.494-1.161v-2.057c0-0.775,0.498-1.162,1.494-1.162h3.914V73.692
		c0-0.76,0.342-1.162,0.963-1.162h3.883c0.664,0,0.996,0.389,0.996,1.162v11.852h7.066c0.996,0,1.494,0.387,1.494,1.162v2.057
		c0,0.774-0.498,1.161-1.494,1.161h-7.066v21.14c0,2.324,0.348,3.833,1.045,4.529c0.695,0.697,1.531,1.047,2.506,1.047
		c0.752,0,1.654-0.222,2.705-0.664c1.051-0.441,1.775-0.818,2.172-1.129c0.4-0.31,0.707-0.21,0.932,0.299l1.094,2.556
		c0.176,0.442,0.043,0.796-0.4,1.062c-0.861,0.51-2.119,1.001-3.781,1.478c-1.66,0.475-3.32,0.712-4.979,0.712
		c-2.299,0-4.064-0.829-5.295-2.488c-1.225-1.658-1.84-4.004-1.84-7.035V89.924H257.408z"/>
	<path fill="#505050" d="M283.93,120.39c-0.984,0-1.475-0.498-1.475-1.494V87.036c0-0.995,0.496-1.494,1.494-1.494h2.787
		c0.996,0,1.492,0.499,1.492,1.494v3.982c1.074-1.99,2.334-3.495,3.789-4.514c1.453-1.016,3.266-1.526,5.432-1.526
		c1.434,0,2.438,0.123,3.02,0.366c0.508,0.197,0.697,0.53,0.564,0.995l-0.766,2.722c-0.107,0.397-0.398,0.552-0.859,0.465
		c-0.781-0.154-1.514-0.232-2.203-0.232c-2.604,0-4.75,1.168-6.441,3.5c-1.689,2.334-2.535,5.516-2.535,9.542v16.56
		c0,0.996-0.492,1.494-1.475,1.494H283.93z"/>
	<path fill="#505050" d="M303.096,111.098c0-3.939,1.842-6.825,5.525-8.663c3.686-1.836,9.189-2.908,16.51-3.219V96.96
		c0-2.08-0.469-3.877-1.408-5.393c-0.941-1.517-2.803-2.273-5.594-2.273c-2.145,0-3.965,0.31-5.457,0.93
		c-1.494,0.619-2.896,1.658-4.199,3.117c-0.602,0.664-1.162,0.698-1.693,0.101l-1.727-1.991c-0.486-0.552-0.32-1.217,0.5-1.991
		c1.811-1.725,3.938-2.903,6.371-3.534c2.436-0.631,4.502-0.946,6.205-0.946c4.625,0,7.922,1.19,9.891,3.568
		s2.953,5.636,2.953,9.774v20.574c0,0.996-0.504,1.494-1.51,1.494h-3.023c-0.871,0-1.309-0.498-1.309-1.494v-1.625
		c-1.746,1.371-3.455,2.328-5.125,2.869c-1.672,0.542-3.537,0.812-5.594,0.812c-3.629,0-6.42-0.867-8.377-2.604
		C304.074,116.612,303.096,114.194,303.096,111.098 M309.137,110.897c0,2.168,0.516,3.64,1.541,4.414
		c1.029,0.774,2.66,1.16,4.895,1.16c1.707,0,3.32-0.164,4.848-0.496c1.525-0.332,3.096-1.206,4.711-2.622v-9.79
		c-7.545,0.575-12.096,1.565-13.654,2.971C309.916,107.938,309.137,109.394,309.137,110.897"/>
	<path fill="#505050" d="M188.887,139.188c0-1.78,0.443-3.178,1.326-4.187c0.885-1.011,2.152-1.517,3.807-1.517
		c0.965,0,1.766,0.165,2.396,0.492c0.633,0.33,1.084,0.777,1.357,1.348c0.145,0.297,0.121,0.499-0.068,0.61l-0.604,0.352
		c-0.201,0.117-0.383,0.021-0.539-0.29c-0.17-0.32-0.443-0.619-0.826-0.901c-0.381-0.279-0.93-0.419-1.639-0.419
		c-1.273,0-2.199,0.396-2.777,1.188c-0.578,0.791-0.867,1.898-0.867,3.323s0.289,2.534,0.867,3.324
		c0.578,0.792,1.504,1.188,2.777,1.188c0.732,0,1.316-0.168,1.756-0.504c0.441-0.336,0.762-0.687,0.959-1.053
		c0.156-0.296,0.34-0.386,0.549-0.268l0.633,0.358c0.188,0.106,0.199,0.31,0.047,0.61c-0.299,0.586-0.789,1.072-1.465,1.462
		c-0.678,0.39-1.529,0.585-2.557,0.585c-1.654,0-2.922-0.507-3.807-1.516C189.33,142.366,188.887,140.97,188.887,139.188"/>
	<path fill="#505050" d="M204.729,139.188c0-1.78,0.438-3.178,1.316-4.187c0.879-1.011,2.143-1.517,3.799-1.517
		c1.654,0,2.92,0.506,3.797,1.517c0.879,1.009,1.318,2.406,1.318,4.187c0,1.781-0.439,3.178-1.318,4.188
		c-0.877,1.009-2.143,1.516-3.797,1.516c-1.656,0-2.92-0.507-3.799-1.516C205.166,142.366,204.729,140.97,204.729,139.188
		 M206.293,139.188c0,1.425,0.297,2.534,0.877,3.324c0.588,0.792,1.479,1.188,2.674,1.188s2.088-0.396,2.672-1.188
		c0.586-0.79,0.879-1.899,0.879-3.324s-0.293-2.532-0.879-3.323c-0.584-0.792-1.477-1.188-2.672-1.188s-2.086,0.396-2.674,1.188
		C206.59,136.656,206.293,137.764,206.293,139.188"/>
	<path fill="#505050" d="M222.719,144.661c-0.254,0-0.383-0.14-0.383-0.42v-10.106c0-0.28,0.125-0.42,0.379-0.42h0.969
		c0.355,0,0.607,0.127,0.762,0.382l4.793,8.008h0.014c-0.01-0.204-0.014-0.406-0.014-0.61v-7.359c0-0.28,0.129-0.42,0.385-0.42
		h0.709c0.258,0,0.385,0.14,0.385,0.42v10.106c0,0.28-0.127,0.42-0.381,0.42h-0.672c-0.354,0-0.611-0.127-0.764-0.381l-5.1-8.497
		h-0.016c0.012,0.205,0.016,0.409,0.016,0.611v7.847c0,0.28-0.127,0.42-0.381,0.42H222.719z"/>
	<path fill="#505050" d="M238.281,143.837c-0.271-0.244-0.342-0.458-0.215-0.641l0.395-0.574c0.137-0.199,0.361-0.183,0.668,0.047
		c0.4,0.3,0.82,0.548,1.254,0.74c0.436,0.194,0.961,0.291,1.586,0.291c0.455,0,0.844-0.07,1.16-0.207
		c0.314-0.137,0.566-0.334,0.758-0.592s0.283-0.569,0.283-0.936c0-0.266-0.035-0.512-0.113-0.738
		c-0.082-0.227-0.205-0.416-0.379-0.568c-0.176-0.154-0.355-0.273-0.543-0.36c-0.311-0.139-0.775-0.302-1.395-0.485
		c-0.615-0.184-1.158-0.382-1.621-0.596c-0.459-0.222-0.824-0.49-1.094-0.804c-0.273-0.313-0.453-0.638-0.541-0.971
		c-0.092-0.332-0.137-0.709-0.137-1.132c0-0.645,0.189-1.201,0.566-1.668c0.375-0.467,0.838-0.776,1.385-0.929
		c0.547-0.153,1.104-0.229,1.67-0.229c0.645,0,1.205,0.084,1.686,0.252c0.477,0.165,0.906,0.382,1.281,0.652
		c0.266,0.187,0.328,0.384,0.186,0.592l-0.391,0.559c-0.117,0.168-0.346,0.133-0.688-0.107c-0.26-0.182-0.576-0.355-0.951-0.516
		c-0.371-0.16-0.742-0.241-1.109-0.241c-0.469,0-0.855,0.056-1.17,0.166c-0.309,0.108-0.553,0.294-0.732,0.554
		c-0.178,0.259-0.268,0.559-0.268,0.9c0,0.215,0.023,0.412,0.064,0.592c0.039,0.182,0.145,0.365,0.311,0.555
		c0.17,0.189,0.373,0.334,0.609,0.435c0.322,0.139,0.82,0.3,1.494,0.485s1.264,0.414,1.768,0.684c0.467,0.25,0.805,0.512,1.01,0.783
		c0.207,0.273,0.369,0.569,0.482,0.887c0.117,0.318,0.172,0.677,0.172,1.074c0,0.723-0.186,1.326-0.557,1.81
		c-0.371,0.484-0.811,0.82-1.322,1.009c-0.508,0.188-1.146,0.283-1.914,0.283c-0.924,0-1.688-0.107-2.293-0.321
		S238.582,144.111,238.281,143.837"/>
	<path fill="#505050" d="M252.938,140.486v-6.352c0-0.28,0.127-0.42,0.383-0.42h0.701c0.254,0,0.383,0.14,0.383,0.42v6.122
		c0,1.426,0.199,2.355,0.605,2.79c0.404,0.436,1.064,0.653,1.98,0.653s1.576-0.218,1.98-0.653c0.406-0.435,0.607-1.364,0.607-2.79
		v-6.122c0-0.28,0.129-0.42,0.383-0.42h0.703c0.252,0,0.381,0.14,0.381,0.42v6.352c0,1.612-0.371,2.751-1.111,3.412
		s-1.721,0.993-2.943,0.993c-1.221,0-2.201-0.332-2.943-0.993C253.309,143.237,252.938,142.099,252.938,140.486"/>
	<path fill="#505050" d="M269.326,144.661c-0.252,0-0.381-0.14-0.381-0.42v-10.106c0-0.28,0.129-0.42,0.381-0.42h0.703
		c0.256,0,0.381,0.14,0.381,0.42v9.274h5.062c0.279,0,0.422,0.114,0.422,0.344v0.565c0,0.229-0.143,0.343-0.422,0.343H269.326z"/>
	<path fill="#505050" d="M280.773,135.028c-0.293,0-0.436-0.115-0.436-0.344v-0.625c0-0.23,0.143-0.345,0.434-0.345h8.326
		c0.287,0,0.432,0.114,0.432,0.345v0.625c0,0.229-0.145,0.344-0.436,0.344h-3.428v9.213c0,0.28-0.127,0.42-0.383,0.42h-0.703
		c-0.254,0-0.381-0.14-0.381-0.42v-9.213H280.773z"/>
	<path fill="#505050" d="M296.709,144.661c-0.256,0-0.383-0.14-0.383-0.42v-10.106c0-0.28,0.127-0.42,0.383-0.42h0.703
		c0.254,0,0.381,0.14,0.381,0.42v10.106c0,0.28-0.127,0.42-0.381,0.42H296.709z"/>
	<path fill="#505050" d="M306.094,144.661c-0.252,0-0.381-0.14-0.381-0.42v-10.106c0-0.28,0.127-0.42,0.379-0.42h0.969
		c0.352,0,0.605,0.127,0.762,0.382l4.791,8.008h0.016c-0.01-0.204-0.016-0.406-0.016-0.61v-7.359c0-0.28,0.129-0.42,0.387-0.42
		h0.709c0.258,0,0.385,0.14,0.385,0.42v10.106c0,0.28-0.125,0.42-0.381,0.42h-0.67c-0.355,0-0.611-0.127-0.766-0.381l-5.098-8.497
		h-0.018c0.01,0.205,0.018,0.409,0.018,0.611v7.847c0,0.28-0.129,0.42-0.383,0.42H306.094z"/>
	<path fill="#505050" d="M321.48,139.188c0-1.78,0.461-3.178,1.385-4.187c0.918-1.011,2.201-1.517,3.838-1.517
		c0.982,0,1.781,0.171,2.404,0.508c0.621,0.338,1.074,0.736,1.365,1.195c0.182,0.285,0.176,0.491-0.008,0.618l-0.572,0.397
		c-0.188,0.132-0.375,0.052-0.564-0.236c-0.152-0.23-0.439-0.502-0.861-0.817c-0.422-0.314-0.984-0.474-1.688-0.474
		c-1.248,0-2.18,0.396-2.801,1.188c-0.623,0.791-0.934,1.898-0.934,3.323s0.305,2.534,0.91,3.324c0.605,0.792,1.57,1.188,2.9,1.188
		c0.66,0,1.236-0.08,1.727-0.241c0.496-0.16,0.838-0.383,1.037-0.668v-2.021h-2.268c-0.279,0-0.42-0.116-0.42-0.345v-0.564
		c0-0.229,0.141-0.344,0.42-0.344h3.312c0.283,0,0.42,0.114,0.42,0.344v3.603c-0.621,0.454-1.24,0.805-1.863,1.055
		c-0.619,0.247-1.434,0.374-2.441,0.374c-1.68,0-2.982-0.507-3.908-1.516C321.943,142.366,321.48,140.97,321.48,139.188"/>
	<g>
		<g>
			<path fill="#DDA472" d="M128.582,83.138l-6.719-10.158c-0.297-0.449-0.76-0.493-1.096-0.143v22.431
				c0.336,0.351,0.799,0.306,1.096-0.143l6.719-10.159C128.912,84.463,128.912,83.641,128.582,83.138z"/>
		</g>
		<g>
			<path fill="#DDA472" d="M139.957,133.201l-18.061-25.254c-0.307-0.425-0.777-0.481-1.129-0.168v37.495
				c0.479,0.113,1.045,0.054,1.43-0.176l17.457-10.442C140.172,134.347,140.309,133.692,139.957,133.201z"/>
		</g>
		<g>
			<path fill="#DDA472" d="M149.65,96.218c0.453-0.399,0.666-1.194,0.473-1.766l-3.857-11.551c-0.191-0.573-0.717-0.713-1.17-0.313
				l-9.117,8.073c-0.453,0.4-0.664,1.194-0.473,1.767l3.859,11.551c0.191,0.572,0.717,0.712,1.168,0.312L149.65,96.218z"/>
		</g>
		<g>
			<path fill="#DDA472" d="M160.27,105.989c-0.035-0.603-0.506-0.875-1.047-0.604l-10.896,5.439
				c-0.539,0.27-0.951,0.982-0.914,1.584l0.738,12.156c0.037,0.601,0.508,0.874,1.049,0.604l10.895-5.438
				c0.539-0.27,0.949-0.983,0.914-1.584L160.27,105.989z"/>
		</g>
	</g>
	<g>
		<g>
			<path fill="#B0815B" d="M121.211,72.604c-0.211,0.01-0.42,0.132-0.582,0.375l-6.717,10.158c-0.332,0.503-0.332,1.325,0,1.828
				l6.717,10.159c0.162,0.242,0.371,0.364,0.582,0.375V72.604z"/>
		</g>
		<g>
			<path fill="#B0815B" d="M106.988,92.428c0.191-0.572-0.025-1.366-0.475-1.767l-9.119-8.073c-0.451-0.399-0.975-0.26-1.168,0.313
				l-3.857,11.551c-0.193,0.571,0.02,1.366,0.473,1.766l9.117,8.073c0.453,0.399,0.977,0.26,1.166-0.312L106.988,92.428z"/>
		</g>
		<g>
			<path fill="#B0815B" d="M81.484,118.146c-0.037,0.603,0.375,1.314,0.914,1.585l10.895,5.438c0.541,0.271,1.012-0.003,1.049-0.604
				l0.738-12.156c0.035-0.602-0.377-1.314-0.914-1.584l-10.896-5.438c-0.541-0.271-1.012,0.002-1.047,0.604L81.484,118.146z"/>
		</g>
		<g>
			<path fill="#B0815B" d="M121.211,107.583c-0.223,0.007-0.445,0.127-0.617,0.364l-18.061,25.254
				c-0.354,0.491-0.217,1.146,0.301,1.455l17.459,10.442c0.254,0.152,0.584,0.227,0.918,0.23V107.583z"/>
		</g>
	</g>
</g>
</svg>
