<?xml version="1.0" standalone="no"?>
<!DOCTYPE svg PUBLIC "-//W3C//DTD SVG 20010904//EN"
 "http://www.w3.org/TR/2001/REC-SVG-20010904/DTD/svg10.dtd">
<svg version="1.0" xmlns="http://www.w3.org/2000/svg"
 width="410.000000pt" height="123.000000pt" viewBox="0 0 410.000000 123.000000"
 preserveAspectRatio="xMidYMid meet">

<g transform="translate(0.000000,123.000000) scale(0.100000,-0.100000)"
fill="#000000" stroke="none">
<path d="M240 635 c0 -230 4 -355 10 -355 6 0 10 125 10 355 0 230 -4 355 -10
355 -6 0 -10 -125 -10 -355z"/>
<path d="M450 635 c0 -230 4 -355 10 -355 6 0 10 125 10 355 0 230 -4 355 -10
355 -6 0 -10 -125 -10 -355z"/>
<path d="M660 635 c0 -230 4 -355 10 -355 6 0 10 125 10 355 0 230 -4 355 -10
355 -6 0 -10 -125 -10 -355z"/>
<path d="M885 635 c0 -198 1 -280 2 -183 2 97 2 259 0 360 -1 101 -2 21 -2
-177z"/>
<path d="M1090 635 c0 -230 4 -355 10 -355 6 0 10 125 10 355 0 230 -4 355
-10 355 -6 0 -10 -125 -10 -355z"/>
<path d="M1300 635 c0 -230 4 -355 10 -355 6 0 10 125 10 355 0 230 -4 355
-10 355 -6 0 -10 -125 -10 -355z"/>
<path d="M1492 682 c3 -278 5 -311 21 -336 20 -30 87 -65 125 -66 l22 0 0 355
0 355 -86 0 -85 0 3 -308z"/>
<path d="M1750 635 l0 -355 85 0 85 0 0 147 0 146 20 -18 c11 -10 46 -56 77
-102 84 -125 149 -173 236 -173 l27 0 0 355 0 355 -80 0 -80 0 0 -192 c0 -226
3 -224 -96 -33 -72 137 -119 190 -187 210 -96 28 -87 62 -87 -340z"/>
<path d="M2550 978 c-65 -18 -125 -73 -166 -151 -25 -47 -25 -54 -22 -207 l3
-159 41 -58 c24 -34 61 -71 89 -88 48 -30 49 -30 217 -33 l168 -3 0 80 0 80
-151 3 -151 3 -29 33 c-16 18 -29 41 -29 52 0 19 7 20 180 20 l180 0 0 85 0
85 -180 0 c-176 0 -180 1 -180 21 0 11 13 34 29 50 l29 29 151 0 151 0 0 85 0
85 -147 -1 c-82 0 -164 -5 -183 -11z"/>
<path d="M3120 970 c-67 -22 -111 -69 -141 -149 -18 -50 -20 -73 -17 -206 3
-140 5 -154 30 -201 32 -62 85 -109 135 -123 21 -6 125 -11 231 -11 l192 0 0
198 c0 177 -2 201 -17 214 -14 12 -47 17 -135 20 l-118 3 0 -72 0 -73 70 0 71
0 -3 -62 -3 -63 -98 -3 c-170 -5 -192 18 -192 200 l0 120 33 29 32 29 180 0
180 0 0 85 0 85 -187 0 c-158 -1 -197 -4 -243 -20z"/>
<path d="M3650 680 l0 -309 31 -35 c27 -31 78 -56 117 -56 9 0 12 78 12 355
l0 355 -80 0 -80 0 0 -310z"/>
<path d="M301 954 c-12 -15 -21 -34 -21 -44 0 -30 39 -70 69 -70 45 0 71 26
71 70 0 29 -6 43 -22 54 -34 24 -73 20 -97 -10z"/>
<path d="M532 890 c-52 -22 -48 -113 7 -127 52 -14 91 12 91 62 0 55 -46 86
-98 65z"/>
<path d="M314 802 c-15 -10 -34 -47 -34 -67 0 -25 46 -65 75 -65 56 0 89 86
47 123 -19 17 -68 22 -88 9z"/>
<path d="M727 792 c-23 -25 -21 -78 3 -102 27 -27 66 -25 95 5 30 29 32 68 5
95 -26 26 -81 26 -103 2z"/>
<path d="M515 705 c-30 -30 -31 -54 -4 -89 42 -53 119 -25 121 45 2 63 -71 91
-117 44z"/>
<path d="M1164 652 c-15 -10 -34 -47 -34 -67 0 -25 46 -65 75 -65 56 0 89 86
47 123 -19 17 -68 22 -88 9z"/>
<path d="M760 643 c-56 -20 -68 -87 -23 -123 45 -35 113 -2 113 55 0 42 -52
82 -90 68z"/>
<path d="M940 570 c-27 -27 -25 -66 5 -95 29 -30 68 -32 95 -5 26 26 26 81 2
103 -25 23 -78 21 -102 -3z"/>
<path d="M511 534 c-27 -35 -26 -59 4 -89 45 -46 118 -19 118 43 0 69 -80 99
-122 46z"/>
<path d="M1170 487 c-56 -28 -48 -110 14 -130 74 -25 123 99 51 131 -32 15
-34 15 -65 -1z"/>
<path d="M745 468 c-28 -16 -35 -28 -35 -64 0 -39 27 -64 68 -64 66 0 94 69
47 115 -26 27 -49 31 -80 13z"/>
<path d="M960 417 c-56 -28 -48 -110 14 -130 68 -22 117 77 60 122 -31 24 -40
25 -74 8z"/>
</g>
</svg>
