<svg width="172" height="32" viewBox="0 0 172 32" fill="none" xmlns="http://www.w3.org/2000/svg">
<g clip-path="url(#clip0_1547_11021)">
<path d="M106.5 9.5H110.906V11.1726C111.985 9.70123 113.317 9.25 115.036 9.25C116.644 9.25 117.745 9.6791 118.664 11.1726C119.834 9.70123 121.188 9.25 122.978 9.25C125.846 9.25 127.5 10.5894 127.5 13.296V22H122.726V15.1167C122.726 13.5984 122.267 12.8972 121.096 12.8972C119.926 12.8972 119.375 13.6207 119.375 15.1635V22H114.623V15.2815C114.623 13.6232 114.163 12.8997 112.925 12.8997C111.847 12.8997 111.274 13.6477 111.274 15.0944V22H106.5V9.34939V9.5Z" fill="#12181F"/>
<path d="M137.801 20.4019C136.553 21.4995 135.143 22 133.342 22C130.548 22 129 20.5847 129 18.1394C129 15.4435 130.709 14.6902 134.335 14.2328C136.691 13.9367 137.709 14.0497 137.709 12.9306C137.709 12.2231 137.132 11.9245 135.954 11.9245C134.936 11.9245 134.406 12.3119 134.313 13.1352H129.555C129.601 10.4153 131.818 9.25 136.117 9.25C138.358 9.25 140.067 9.47899 140.899 10.0278C142.194 10.8967 142.469 11.809 142.469 13.4313V20.1949C142.469 20.6281 142.654 20.9939 143 21.2227V21.75H138.103L137.803 20.3995L137.801 20.4019ZM133.965 18.0021C133.965 18.6881 134.45 19.0997 135.35 19.0997C136.991 19.0997 137.684 18.368 137.684 16.7696C137.684 16.565 137.684 16.3582 137.66 16.1536C135.396 16.9985 133.963 16.8396 133.963 18.0045L133.965 18.0021Z" fill="#12181F"/>
<path d="M144.752 9.5H149.031V10.8923C149.993 9.57643 151.226 9.25 152.967 9.25C156.054 9.25 158.25 11.5392 158.25 15.4868C158.25 19.4342 156.122 21.75 152.873 21.75C151.386 21.75 150.289 21.514 149.441 20.4291V26.5H144.75V9.5H144.752ZM151.48 12.6484C150.038 12.6484 149.443 13.5483 149.443 15.4868C149.443 17.4252 150.106 18.2571 151.434 18.2571C152.762 18.2571 153.425 17.3329 153.425 15.4868C153.425 13.6408 152.808 12.6484 151.48 12.6484Z" fill="#12181F"/>
<path d="M163.736 17.755C163.736 18.7832 164.266 19.2863 165.33 19.2863C166.394 19.2863 166.924 18.9203 166.924 18.2799C166.924 17.4108 166.23 17.3192 164.868 17.023C161.078 16.2236 159.324 15.5614 159.324 12.9994C159.324 10.4375 161.38 9.25 165.352 9.25C169.024 9.25 171.035 10.3027 171.334 12.8165H166.946C166.878 12.1085 166.277 11.6269 165.398 11.6269C164.52 11.6269 164.081 11.9472 164.081 12.4721C164.081 13.3414 164.889 13.3414 166.415 13.6834C170.066 14.5068 171.75 15.169 171.75 17.7959C171.75 20.5602 169.555 22 165.259 22C161.285 22 159.207 20.5842 159 17.7502H163.736V17.755Z" fill="#12181F"/>
<path d="M51.937 14.2373C51.937 12.0679 51.5393 11.0434 49.6865 11.0434C47.7173 11.0434 46.5438 12.3037 46.5438 14.5419V21.9975H44.4562V14.2397C44.4562 12.0703 44.0584 11.0459 42.2054 11.0459C40.2587 11.0459 39.063 12.3283 39.063 14.5444V22H37V9.5H38.969V11.2793C39.8831 9.90351 41.1037 9.25 42.7909 9.25C44.3377 9.25 45.3703 9.85683 46.1436 11.1614C47.1987 9.85437 48.419 9.25 50.0843 9.25C51.7493 9.25 52.8983 9.85683 53.5085 10.9059C53.9778 11.7461 54 12.7705 54 14.0776V22H51.937V14.2422V14.2373Z" fill="#12181F"/>
<path d="M66.8302 17.7436C66.3673 20.3988 64.2427 22 61.2384 22C57.7223 22 55.5 19.6416 55.5 15.7516C55.5 11.6086 57.7223 9.25 61.2384 9.25C64.7546 9.25 67 11.4253 67 15.3151C67 15.6117 67 15.9107 66.9769 16.2076H57.748C57.7968 18.7492 59.1652 20.1673 61.4339 20.1673C63.1907 20.1673 64.3636 19.2968 64.7056 17.7412H66.8302V17.7436ZM64.7546 14.5386C64.7312 12.2717 63.4838 11.037 61.3129 11.037C59.142 11.037 57.9434 12.25 57.748 14.5386H64.7546Z" fill="#12181F"/>
<path d="M68.75 9.5H70.7666L70.7666 11.7343C71.4315 10.0548 72.5685 9.25 74.2052 9.25C74.3951 9.25 74.5601 9.25 74.75 9.27244V11.4726C74.5851 11.4502 74.4176 11.4502 74.2526 11.4502C72.0237 11.4502 70.8365 12.6811 70.8365 14.9985V22H68.75L68.75 9.5Z" fill="#12181F"/>
<path d="M80.9409 21.9255C77.6996 21.9255 75.5 19.4227 75.5 15.5529C75.5 11.6835 77.6752 9.25 80.9628 9.25C82.7919 9.25 83.8794 10.0244 84.7818 11.1392V9.5H86.75V21.2902C86.75 24.908 85.1281 26.5 81.1019 26.5C77.8387 26.5 75.9852 25.1573 75.9852 23.0189V22.9278H77.9753V22.9733C77.9753 24.2032 79.0411 24.8169 81.1701 24.8169C83.7869 24.8169 84.7818 23.8843 84.7818 21.7217V20.0844C83.8331 21.3142 82.5601 21.9279 80.9384 21.9279L80.9409 21.9255ZM77.6314 15.5985C77.6314 18.4875 78.997 20.1275 81.2188 20.1275C83.6965 20.1275 84.8527 18.6936 84.8527 15.668C84.8527 12.6424 83.6015 11.0481 81.1944 11.0481C78.9264 11.0481 77.629 12.64 77.629 15.5985H77.6314Z" fill="#12181F"/>
<path d="M89.5554 5H91.6457V7.3477H89.5554V5ZM89.5554 9.5H91.6457V22H89.5554V9.5Z" fill="#12181F"/>
<path d="M102.385 14.3215C102.385 12.137 101.886 11.1278 99.889 11.1278C97.5835 11.1278 96.2067 12.4662 96.2067 14.8855V22H94.1165V9.5H96.1115V11.3875C97.0627 9.97989 98.3695 9.25 100.104 9.25C101.982 9.25 103.263 9.86114 103.954 10.9645C104.477 11.7635 104.5 12.726 104.5 13.9232V22H102.385V14.324V14.3215Z" fill="#12181F"/>
<path d="M16 26.6675H26.665V5.335H16V0H32V32H16V26.6675Z" fill="#73D19C"/>
<path d="M7.36816 16.0006C7.36816 20.7686 11.232 24.6299 15.9976 24.6299V7.37109C11.2295 7.37109 7.36816 11.235 7.36816 16.0006Z" fill="#73D19C"/>
<path d="M16 26.6675H5.3325V5.335H16V0H0V32H16V26.6675Z" fill="#12181F"/>
<path d="M24.6295 16.0006C24.6295 20.7686 20.7655 24.6299 16 24.6299V7.37109C20.768 7.37109 24.6295 11.235 24.6295 16.0006Z" fill="#12181F"/>
</g>
<defs>
<clipPath id="clip0_1547_11021">
<rect width="172" height="32" fill="white"/>
</clipPath>
</defs>
</svg>
