<?xml version="1.0" encoding="UTF-8"?>
<svg version="1.1" xmlns="http://www.w3.org/2000/svg" width="490" height="510">
<path d="M0 0 C1.46687119 0.00373728 2.93374491 0.00658087 4.40061951 0.00857544 C8.23270751 0.01615565 12.06464019 0.03575482 15.89666748 0.0579834 C19.81846008 0.07856382 23.74027816 0.08760305 27.66210938 0.09765625 C35.33600776 0.11900692 43.00977886 0.15307369 50.68359375 0.1953125 C50.70825121 4.3070381 50.72643334 8.41873528 50.73852539 12.53051758 C50.74356455 13.93026478 50.75039591 15.3300067 50.7590332 16.72973633 C50.77111695 18.73777027 50.77629182 20.74584207 50.78125 22.75390625 C50.78648682 23.96361084 50.79172363 25.17331543 50.79711914 26.41967773 C50.68359375 29.1953125 50.68359375 29.1953125 49.68359375 30.1953125 C47.84909284 30.29776898 46.01068938 30.33102619 44.17333984 30.3371582 C42.9947641 30.34419266 41.81618835 30.35122711 40.60189819 30.35847473 C39.3165921 30.36263901 38.03128601 30.36680328 36.70703125 30.37109375 C34.6995433 30.38835232 32.69205524 30.40563461 30.68457985 30.42429638 C25.72025166 30.46989909 20.75602979 30.5075717 15.79150391 30.52124023 C13.01262763 30.5293934 10.23419958 30.54801898 7.45547485 30.57817078 C4.83676103 30.60628246 2.21783027 30.61923624 -0.40103149 30.61531067 C-7.20414728 30.70899819 -11.86876124 30.94286826 -17.31640625 35.1953125 C-22.04090933 42.75451743 -21.49946468 50.15924567 -21.50390625 58.8203125 C-21.52227539 60.67076172 -21.52227539 60.67076172 -21.54101562 62.55859375 C-21.67307798 74.82120783 -21.67307798 74.82120783 -17.56640625 86.1328125 C-12.56252207 90.71970633 -7.67909326 91.64957984 -1.07421875 91.70703125 C-0.30584686 91.72498245 0.46252502 91.74293365 1.25418091 91.76142883 C3.6889307 91.81526208 6.12348755 91.84933942 8.55859375 91.8828125 C10.21747461 91.91600955 11.8763301 91.95050141 13.53515625 91.98632812 C17.58449557 92.07097241 21.63378036 92.13791107 25.68359375 92.1953125 C25.35359375 91.5353125 25.02359375 90.8753125 24.68359375 90.1953125 C24.61171856 87.47555535 24.59080755 84.78856618 24.62109375 82.0703125 C24.64171875 79.4715625 24.66234375 76.8728125 24.68359375 74.1953125 C17.09359375 73.8653125 9.50359375 73.5353125 1.68359375 73.1953125 C1.68359375 64.2853125 1.68359375 55.3753125 1.68359375 46.1953125 C7.27117548 46.10329377 12.85611086 46.02371459 18.44384766 45.97558594 C20.343027 45.95551621 22.2421449 45.92825399 24.14111328 45.89355469 C26.87678214 45.84483141 29.61163146 45.82229743 32.34765625 45.8046875 C33.19163971 45.78404236 34.03562317 45.76339722 34.90518188 45.74212646 C40.28174085 45.74009694 43.57620548 46.38906595 47.68359375 50.1953125 C51.96336787 56.73667342 51.08287109 64.28156657 51.01171875 71.84375 C51.00865739 73.26624349 51.00678414 74.68873998 51.00604248 76.11123657 C51.00145947 79.07834513 50.98710383 82.04517923 50.96484375 85.01220703 C50.93640765 88.82223568 50.92561463 92.63205019 50.92116165 96.44217491 C50.91701617 99.37259065 50.90720856 102.30296287 50.89528656 105.23335648 C50.88957895 106.63923418 50.88482187 108.04511607 50.88101959 109.45100021 C50.87417994 111.4066493 50.859654 113.36226702 50.84472656 115.31787109 C50.83789856 116.43149017 50.83107056 117.54510925 50.82403564 118.69247437 C50.68359375 121.1953125 50.68359375 121.1953125 49.68359375 122.1953125 C47.78390284 122.30504969 45.88011474 122.34442386 43.97729492 122.35644531 C42.14354561 122.37085663 42.14354561 122.37085663 40.27275085 122.38555908 C38.9240233 122.39041156 37.57529357 122.39468928 36.2265625 122.3984375 C34.8442637 122.40419211 33.46196491 122.4099498 32.07966614 122.41571045 C29.17005034 122.42624028 26.26046227 122.43206749 23.35083008 122.43554688 C19.65368806 122.44098474 15.95692315 122.46490126 12.25989819 122.49351883 C9.39680492 122.51232661 6.53379834 122.5173607 3.67064857 122.51888275 C1.65467156 122.52332059 -0.36125872 122.54189524 -2.37715149 122.56085205 C-14.83561122 122.53111147 -28.0617645 120.58775394 -37.74609375 111.98828125 C-47.08430551 101.32599469 -51.95303437 88.73462822 -51.8828125 74.67578125 C-51.88901108 73.61474686 -51.89520966 72.55371246 -51.90159607 71.46052551 C-51.90865196 69.23109852 -51.90559496 67.00161837 -51.89282227 64.7722168 C-51.87898163 61.40117111 -51.91306556 58.03292068 -51.95117188 54.66210938 C-52.01296755 37.5160271 -49.94472691 23.32974367 -37.59375 10.390625 C-26.7409769 0.45255031 -14.03501406 -0.10580861 0 0 Z " fill="#12365C" transform="translate(347.31640625,335.8046875)"/>
<path d="M0 0 C10.72535653 0.17024375 19.45176976 3.90549899 27.21484375 11.21875 C35.06164493 19.53244338 40.02942778 29.72314299 44.93359375 39.93969727 C48.31610838 46.90064265 52.25030783 53.55537009 56.125 60.25 C56.12277939 59.51306412 56.12055878 58.77612823 56.11827087 58.01686096 C56.09826797 51.08587231 56.08302587 44.15488796 56.07318783 37.22387791 C56.06796005 33.66022578 56.06086431 30.09659743 56.04956055 26.53295898 C56.03665824 22.43993903 56.03177094 18.3469442 56.02734375 14.25390625 C56.02218246 12.96851456 56.01702118 11.68312286 56.01170349 10.35877991 C56.01162796 9.17763107 56.01155243 7.99648224 56.01147461 6.77954102 C56.009254 5.73363297 56.00703339 4.68772491 56.00474548 3.61012268 C56.125 1.25 56.125 1.25 57.125 0.25 C59.34355264 0.16216458 61.56488496 0.14305391 63.78515625 0.15234375 C64.78185585 0.15446617 64.78185585 0.15446617 65.7986908 0.15663147 C67.92833899 0.16224482 70.05788339 0.17479946 72.1875 0.1875 C73.62825369 0.19251329 75.06900903 0.19707649 76.50976562 0.20117188 C80.04821102 0.21221855 83.58659539 0.22949208 87.125 0.25 C87.14832931 16.00916744 87.16597933 31.76833024 87.17681217 47.52751064 C87.18197506 54.84427402 87.18901762 62.1610267 87.20043945 69.4777832 C87.21038651 75.85283018 87.21685348 82.22786941 87.21908849 88.60292393 C87.22039557 91.98048014 87.22348119 95.35801416 87.23073006 98.73556328 C87.23793613 102.50007343 87.23899113 106.26453685 87.23852539 110.02905273 C87.24212067 111.15689682 87.24571594 112.28474091 87.24942017 113.44676208 C87.2480455 114.46624939 87.24667084 115.48573669 87.24525452 116.53611755 C87.24617631 117.42749137 87.2470981 118.31886518 87.24804783 119.23725033 C87.125 121.25 87.125 121.25 86.125 122.25 C73.46756738 122.17465814 63.79961326 119.56004816 54.125 111.25 C47.82418022 104.78481101 43.00974521 97.26274735 38.28149414 89.61572266 C34.5804107 83.69258323 30.58844502 78.82930628 26.125 73.25 C26.125 89.42 26.125 105.59 26.125 122.25 C15.895 122.25 5.665 122.25 -4.875 122.25 C-4.89754729 106.49082936 -4.91597933 90.73167142 -4.92681217 74.97248936 C-4.93197506 67.65572598 -4.93901762 60.3389733 -4.95043945 53.0222168 C-4.96038651 46.64716982 -4.96685348 40.27213059 -4.96908849 33.89707607 C-4.97039557 30.51951986 -4.97348119 27.14198584 -4.98073006 23.76443672 C-4.98793613 19.99992657 -4.98899113 16.23546315 -4.98852539 12.47094727 C-4.9939183 10.77918114 -4.9939183 10.77918114 -4.99942017 9.05323792 C-4.9980455 8.03375061 -4.99667084 7.01426331 -4.99525452 5.96388245 C-4.99617631 5.07250863 -4.9970981 4.18113482 -4.99804783 3.26274967 C-4.77411452 -0.40022996 -3.85961216 0.24900724 0 0 Z " fill="#0D3258" transform="translate(96.875,335.75)"/>
<path d="M0 0 C1.06079773 0.00007553 2.12159546 0.00015106 3.21453857 0.00022888 C4.92253632 0.00797081 4.92253632 0.00797081 6.66503906 0.01586914 C7.83576965 0.01728409 9.00650024 0.01869904 10.21270752 0.02015686 C13.95205235 0.0257545 17.69133732 0.03830659 21.43066406 0.05102539 C23.96581945 0.05604069 26.50097577 0.06060355 29.03613281 0.06469727 C35.25099699 0.07572315 41.46582625 0.09245895 47.68066406 0.11352539 C47.70532152 4.22525099 47.72350365 8.33694817 47.7355957 12.44873047 C47.74063486 13.84847767 47.74746623 15.24821959 47.75610352 16.64794922 C47.76818726 18.65598316 47.77336213 20.66405497 47.77832031 22.67211914 C47.78355713 23.88182373 47.78879395 25.09152832 47.79418945 26.33789062 C47.68066406 29.11352539 47.68066406 29.11352539 46.68066406 30.11352539 C45.17279259 30.22043361 43.66005031 30.25973158 42.1484375 30.27124023 C41.18363464 30.28150238 40.21883179 30.29176453 39.22479248 30.30233765 C38.17382385 30.30963898 37.12285522 30.31694031 36.04003906 30.32446289 C33.83300047 30.35253758 31.62596932 30.38120208 29.41894531 30.41040039 C25.92529555 30.45164657 22.43178373 30.48851694 18.93798828 30.51489258 C15.5758764 30.5425016 12.21440458 30.58838356 8.85253906 30.63696289 C7.80966736 30.64021576 6.76679565 30.64346863 5.69232178 30.64682007 C-1.30565531 30.73528674 -1.30565531 30.73528674 -7.31933594 34.11352539 C-8.02058594 34.67040039 -8.72183594 35.22727539 -9.44433594 35.80102539 C-12.04195118 38.75503102 -12.04195118 38.75503102 -14.31933594 46.11352539 C6.14066406 46.11352539 26.60066406 46.11352539 47.68066406 46.11352539 C47.68066406 55.68352539 47.68066406 65.25352539 47.68066406 75.11352539 C46.68066406 76.11352539 46.68066406 76.11352539 44.32054138 76.23377991 C43.27463333 76.2315593 42.22872528 76.22933868 41.15112305 76.22705078 C39.96997421 76.22697525 38.78882538 76.22689972 37.57188416 76.2268219 C36.28649246 76.22166061 35.00110077 76.21649933 33.67675781 76.21118164 C31.71453026 76.20905922 31.71453026 76.20905922 29.71266174 76.20689392 C26.22903547 76.20306949 22.74545067 76.19323986 19.26184082 76.18218994 C15.70939698 76.17197421 12.15694647 76.16739596 8.60449219 76.16235352 C1.62986574 76.15161751 -5.34473311 76.13454199 -12.31933594 76.11352539 C-11.69309098 81.39630463 -11.21049762 84.32753024 -7.31933594 88.11352539 C-1.75411108 91.78559295 3.54414244 91.58570056 9.98535156 91.62524414 C11.60402634 91.65217094 11.60402634 91.65217094 13.25540161 91.67964172 C16.68878315 91.73365406 20.12202637 91.76761209 23.55566406 91.80102539 C25.8890166 91.83420639 28.22235092 91.86869677 30.55566406 91.90454102 C36.26401633 91.9918309 41.97174431 92.05197942 47.68066406 92.11352539 C47.68066406 102.01352539 47.68066406 111.91352539 47.68066406 122.11352539 C40.6548441 122.20586914 33.63117022 122.2853554 26.60522461 122.33325195 C24.22038599 122.35323979 21.83559557 122.38043934 19.45092773 122.4152832 C0.54228503 122.68444538 -14.24770675 122.42087935 -28.72558594 108.85961914 C-38.64321699 98.56181223 -43.63528278 86.75773424 -43.62011719 72.59399414 C-43.62440231 71.69538162 -43.62868744 70.7967691 -43.63310242 69.8709259 C-43.63882126 67.97743569 -43.63936411 66.08392353 -43.63500977 64.19042969 C-43.63185679 61.320005 -43.65531547 58.45061933 -43.68066406 55.58032227 C-43.68293827 53.73071417 -43.68363999 51.88110335 -43.68261719 50.03149414 C-43.69182693 49.18636765 -43.70103668 48.34124115 -43.71052551 47.47050476 C-43.63567011 37.64580898 -40.55119009 29.34995864 -35.31933594 21.11352539 C-34.88878906 20.43418945 -34.45824219 19.75485352 -34.01464844 19.05493164 C-26.22758033 7.7702821 -13.88956762 -0.0330704 0 0 Z " fill="#1A3D61" transform="translate(237.3193359375,335.886474609375)"/>
<path d="M0 0 C10.23 0.33 20.46 0.66 31 1 C31 41.26 31 81.52 31 123 C18.91662679 121.14101951 11.81508498 119.95515745 4.19140625 110.94140625 C0.65760979 105.18305596 0.69614099 99.39682684 0.68115234 92.86376953 C0.67110672 91.8582756 0.6610611 90.85278168 0.65071106 89.81681824 C0.619911 86.50548861 0.60285257 83.19423972 0.5859375 79.8828125 C0.56722332 77.58209541 0.54764972 75.28138516 0.5272522 72.98068237 C0.47595155 66.93420448 0.43631461 60.88770435 0.39910889 54.84112549 C0.3590564 48.66746527 0.3079697 42.49389743 0.2578125 36.3203125 C0.16107756 24.21360015 0.07768493 12.10684959 0 0 Z " fill="#1D4064" transform="translate(48,335)"/>
<path d="M0 0 C9.9 0 19.8 0 30 0 C30 39.93 30 79.86 30 121 C26.22540198 122.88729901 21.90193974 121.09537694 18 120 C11.31889666 117.4897024 5.72668512 114.25730576 2 108 C-0.28909473 102.60530007 -0.27142748 97.70868898 -0.22705078 91.95556641 C-0.22734283 90.95982605 -0.22763489 89.96408569 -0.22793579 88.93817139 C-0.22654663 85.65921196 -0.21100473 82.38048205 -0.1953125 79.1015625 C-0.19158091 76.82327397 -0.18873462 74.54498383 -0.18673706 72.26669312 C-0.17911217 66.27931259 -0.15947341 60.29202958 -0.1373291 54.3046875 C-0.11684609 48.19141967 -0.10773009 42.07813603 -0.09765625 35.96484375 C-0.0762265 23.97651284 -0.04105359 11.98827979 0 0 Z " fill="#1B3F63" transform="translate(411,336)"/>
<path d="M0 0 C1.23556641 0.01740234 1.23556641 0.01740234 2.49609375 0.03515625 C3.32238281 0.04417969 4.14867187 0.05320313 5 0.0625 C5.63808594 0.07410156 6.27617187 0.08570313 6.93359375 0.09765625 C8.09486345 2.42019564 8.05988036 3.75040358 8.0622282 6.33621216 C8.06545265 7.23071012 8.0686771 8.12520809 8.07199925 9.04681206 C8.07045065 10.0357049 8.06890205 11.02459774 8.06730652 12.04345703 C8.06957208 13.08914415 8.07183763 14.13483128 8.07417184 15.21220589 C8.0805352 18.73913786 8.07968099 22.26603164 8.07885742 25.79296875 C8.08184742 28.31215464 8.08524958 30.83134008 8.08903503 33.3505249 C8.0969732 39.49646742 8.10009034 45.64239579 8.10064741 51.78834295 C8.10112201 56.78160584 8.10317391 61.77486556 8.10634804 66.76812744 C8.115157 80.9125887 8.11976696 95.05704236 8.11901756 109.20150638 C8.11897761 109.96452099 8.11893765 110.72753561 8.11889648 111.51367188 C8.1188556 112.27761363 8.11881472 113.04155539 8.1187726 113.8286469 C8.11836591 126.21704636 8.12794056 138.60541545 8.14203485 150.99380612 C8.15637939 163.70200073 8.16330612 176.4101805 8.16244107 189.11838341 C8.16210847 196.25799211 8.16488328 203.39756898 8.17561913 210.53717041 C8.18564512 217.24789016 8.18540853 223.95853128 8.17810249 230.66925812 C8.17705142 233.13885852 8.17945022 235.60846303 8.18546295 238.07805634 C8.19311225 241.43607033 8.18858531 244.79384705 8.18083191 248.15185547 C8.18597547 249.14074831 8.19111904 250.12964115 8.19641846 251.14850044 C8.19181967 252.04299841 8.18722087 252.93749638 8.18248272 253.85910034 C8.18270009 254.63492399 8.18291746 255.41074764 8.18314141 256.2100811 C7.93359375 258.09765625 7.93359375 258.09765625 5.93359375 260.09765625 C3.21904419 260.42517859 0.68128616 260.22849875 -2.06640625 260.09765625 C-3.6144717 258.5495908 -3.19180026 257.1040593 -3.19224739 254.94812012 C-3.19485514 254.04802971 -3.19746289 253.1479393 -3.20014966 252.22057343 C-3.19791893 251.22030373 -3.19568821 250.22003403 -3.19338989 249.18945312 C-3.19494988 248.13574776 -3.19650987 247.08204239 -3.19811714 245.99640656 C-3.20213211 242.43639257 -3.19893558 238.87642061 -3.19580078 235.31640625 C-3.1971546 232.77604141 -3.19893442 230.23567677 -3.20111084 227.6953125 C-3.20521133 221.4940868 -3.20459182 215.29287688 -3.2016982 209.09165096 C-3.19944439 204.05401955 -3.19913155 199.01639154 -3.20022202 193.97875977 C-3.20037525 193.26314078 -3.20052848 192.54752179 -3.20068636 191.81021738 C-3.20100607 190.35667864 -3.20133028 188.90313991 -3.20165895 187.44960117 C-3.20451391 173.80374744 -3.20122647 160.15790041 -3.19585858 146.51204777 C-3.19139053 134.79058057 -3.19216646 123.06912327 -3.19677734 111.34765625 C-3.20212282 97.75229479 -3.20423922 84.15693921 -3.20116508 70.56157684 C-3.20084651 69.11323547 -3.20053214 67.6648941 -3.20022202 66.21655273 C-3.20006774 65.50384799 -3.19991346 64.79114324 -3.19975451 64.05684137 C-3.19888928 59.0223492 -3.20035237 53.98786074 -3.20270157 48.95336914 C-3.2057909 42.18358623 -3.20360721 35.413825 -3.19780731 28.64404297 C-3.19647895 26.15144889 -3.19687511 23.65885324 -3.19906998 21.16625977 C-3.20177851 17.77943788 -3.19840401 14.39267729 -3.19338989 11.00585938 C-3.19562061 10.00558968 -3.19785134 9.00531998 -3.20014966 7.97473907 C-3.19754191 7.07464867 -3.19493416 6.17455826 -3.19224739 5.24719238 C-3.19208504 4.46437141 -3.19192269 3.68155045 -3.19175541 2.87500763 C-3.0077104 0.26539585 -2.60563934 0.12313986 0 0 Z " fill="#318ED3" transform="translate(127.06640625,50.90234375)"/>
<path d="M0 0 C1.47906892 -0.02689216 2.95827483 -0.04634621 4.4375 -0.0625 C5.26121094 -0.07410156 6.08492188 -0.08570313 6.93359375 -0.09765625 C9 0 9 0 10 1 C10.09644787 2.37613823 10.12371912 3.75719833 10.12304783 5.13671207 C10.12503888 6.03393579 10.12702993 6.9311595 10.12908131 7.85557181 C10.12471205 9.35116311 10.12471205 9.35116311 10.12025452 10.87696838 C10.12110894 11.92729577 10.12196337 12.97762315 10.12284368 14.05977863 C10.12450162 17.60831008 10.118972 21.15679511 10.11352539 24.70532227 C10.11324356 27.23745726 10.11340117 29.76959234 10.1139679 32.30172729 C10.11419622 37.76818504 10.11134473 43.23462761 10.10573006 48.70108223 C10.09761737 56.60474301 10.09500007 64.50839802 10.09374207 72.41206252 C10.09155118 85.23394013 10.08489011 98.05581139 10.07543945 110.87768555 C10.06626628 123.33601856 10.05918498 135.79434984 10.05493164 148.25268555 C10.05466892 149.02008069 10.05440619 149.78747583 10.05413551 150.57812537 C10.05283051 154.42776103 10.05156679 158.27739671 10.05032361 162.1270324 C10.03994986 194.08469288 10.02233056 226.04234556 10 258 C6.78832601 259.73252349 4.68142974 260.2984943 1 260 C-0.54418725 258.45581275 -0.1326222 257.0205534 -0.14145851 254.86887455 C-0.14754965 253.97288424 -0.1536408 253.07689392 -0.15991652 252.15375239 C-0.16157675 251.15805576 -0.16323697 250.16235912 -0.16494751 249.13648987 C-0.17059105 248.08757362 -0.1762346 247.03865737 -0.18204916 245.95795578 C-0.19986527 242.41411394 -0.21049764 238.870286 -0.22119141 235.32641602 C-0.23239911 232.79752417 -0.24403098 230.26863418 -0.25605774 227.73974609 C-0.28420851 221.56627405 -0.30765609 215.39279942 -0.3288355 209.21929998 C-0.3461385 204.20360017 -0.36537098 199.18791126 -0.38599777 194.17222404 C-0.38892637 193.45966914 -0.39185496 192.74711424 -0.3948723 192.01296676 C-0.4008291 190.56563074 -0.40679032 189.11829474 -0.41275589 187.67095875 C-0.4685325 174.08279737 -0.51818131 160.49461881 -0.5657609 146.9064266 C-0.60676522 135.23699349 -0.65302464 123.56759084 -0.703125 111.89819336 C-0.76123854 98.36180117 -0.81609105 84.82540227 -0.86572587 71.28897613 C-0.87102418 69.84651465 -0.87632679 68.40405318 -0.88163376 66.96159172 C-0.88424359 66.25179179 -0.88685343 65.54199187 -0.88954235 64.81068285 C-0.90819588 59.79919551 -0.92919852 54.78772113 -0.9510994 49.77624702 C-0.98048942 43.03520655 -1.00456131 36.29416743 -1.02499962 29.55309296 C-1.03333387 27.07219995 -1.04340264 24.59131211 -1.05528831 22.11043358 C-1.07117335 18.7371163 -1.08091598 15.36383737 -1.08901978 11.99049377 C-1.09514145 10.99702787 -1.10126312 10.00356196 -1.10757029 8.97999102 C-1.10844594 8.08139296 -1.10932159 7.1827949 -1.11022377 6.25696659 C-1.11309918 5.47756311 -1.11597459 4.69815962 -1.11893713 3.89513785 C-1 2 -1 2 0 0 Z " fill="#308ED2" transform="translate(356,51)"/>
<path d="M0 0 C1.23556641 0.01740234 1.23556641 0.01740234 2.49609375 0.03515625 C3.32238281 0.04417969 4.14867187 0.05320313 5 0.0625 C5.63808594 0.07410156 6.27617187 0.08570313 6.93359375 0.09765625 C7.86982609 2.90635326 8.05378862 4.56448833 8.04102421 7.46484661 C8.03878569 8.81143023 8.03878569 8.81143023 8.03650194 10.18521756 C8.02629626 11.66623392 8.02629626 11.66623392 8.0158844 13.1771698 C8.01265527 14.22512248 8.00942614 15.27307516 8.00609916 16.35278398 C7.99398873 19.88130313 7.97462318 23.4097458 7.95532227 26.93823242 C7.94518322 29.46080863 7.93548915 31.98338667 7.9262085 34.50596619 C7.90519043 39.94566305 7.88106306 45.38533213 7.85412788 50.82500267 C7.81518932 58.68988608 7.78182681 66.55478534 7.74983262 74.41969971 C7.69777454 87.17947683 7.64119629 99.93922975 7.58178711 112.69897461 C7.52408048 125.09512388 7.46849542 137.49127966 7.41577148 149.88745117 C7.41252177 150.65133387 7.40927205 151.41521657 7.40592385 152.20224722 C7.38963436 156.03435742 7.37338665 159.86646778 7.35715973 163.69857824 C7.22245098 195.49830102 7.08033623 227.29798666 6.93359375 259.09765625 C3.78022575 259.79840469 1.20634401 260.09765625 -2.06640625 260.09765625 C-2.89472103 257.20185588 -3.19161525 254.63391048 -3.19224739 251.62582874 C-3.19485514 250.73021538 -3.19746289 249.83460201 -3.20014966 248.91184884 C-3.19791893 247.93199051 -3.19568821 246.95213218 -3.19338989 245.94258118 C-3.19494988 244.89856319 -3.19650987 243.85454521 -3.19811714 242.77889031 C-3.20211576 239.26965288 -3.19894188 235.76045848 -3.19580078 232.2512207 C-3.1971553 229.73996963 -3.19893552 227.22871876 -3.20111084 224.71746826 C-3.2052038 218.59887055 -3.2045959 212.48028885 -3.2016982 206.36169092 C-3.19944152 201.39135094 -3.19913279 196.4210144 -3.20022202 191.45067406 C-3.20037525 190.74378762 -3.20052848 190.03690119 -3.20068636 189.30859395 C-3.20100607 187.87269082 -3.20133029 186.43678769 -3.20165895 185.00088456 C-3.20451114 171.5338524 -3.20123048 158.06682706 -3.19585858 144.59979602 C-3.19138787 133.03356829 -3.19216918 121.4673506 -3.19677734 109.90112305 C-3.2021227 96.47823601 -3.20423954 83.05535493 -3.20116508 69.63246697 C-3.20084652 68.20270836 -3.20053215 66.77294976 -3.20022202 65.34319115 C-3.20006774 64.63966369 -3.19991346 63.93613624 -3.19975451 63.21128977 C-3.19888946 58.24288692 -3.20035193 53.27448785 -3.20270157 48.30608559 C-3.20579057 41.62736893 -3.20360769 34.94867426 -3.19780731 28.2699585 C-3.19647897 25.81122558 -3.19687507 23.35249107 -3.19906998 20.89375877 C-3.2017785 17.55307726 -3.19840407 14.21245789 -3.19338989 10.8717804 C-3.19562061 9.8852299 -3.19785134 8.89867941 -3.20014966 7.88223344 C-3.19754191 6.99444332 -3.19493416 6.10665319 -3.19224739 5.19196033 C-3.19208504 4.41987887 -3.19192269 3.64779741 -3.19175541 2.85231954 C-3.00639789 0.25764692 -2.58922487 0.12236412 0 0 Z " fill="#2D8CD2" transform="translate(281.06640625,50.90234375)"/>
<path d="M0 0 C3.3 0 6.6 0 10 0 C10 85.47 10 170.94 10 259 C7.03 259.33 4.06 259.66 1 260 C0 259 0 259 -0.1241985 257.21508592 C-0.12381878 256.42868512 -0.12343906 255.64228432 -0.12304783 254.83205318 C-0.12503888 253.92786268 -0.12702993 253.02367218 -0.12908131 252.09208196 C-0.12616847 251.0872392 -0.12325563 250.08239643 -0.12025452 249.04710388 C-0.12110894 247.9886094 -0.12196337 246.93011491 -0.12284368 245.83954483 C-0.12450164 242.26337444 -0.11897198 238.68725011 -0.11352539 235.11108398 C-0.11324356 232.5592448 -0.11340117 230.00740554 -0.1139679 227.45556641 C-0.11419622 221.94654686 -0.1113447 216.43754237 -0.10573006 210.92852592 C-0.0976174 202.96332697 -0.09500008 194.99813374 -0.09374207 187.0329311 C-0.09155118 174.11122491 -0.08489009 161.18952503 -0.07543945 148.26782227 C-0.06626629 135.71248405 -0.05918499 123.15714753 -0.05493164 110.60180664 C-0.05466892 109.82843751 -0.05440619 109.05506838 -0.05413551 108.25826382 C-0.05283051 104.37866001 -0.05156679 100.49905619 -0.05032361 96.61945236 C-0.03994984 64.41296362 -0.02225641 32.20648279 0 0 Z " fill="#2D8CD2" transform="translate(431,51)"/>
<path d="M0 0 C3.3 0 6.6 0 10 0 C11.16662903 2.33325807 11.11881435 3.66170362 11.10743046 6.2597599 C11.10519194 7.60858204 11.10519194 7.60858204 11.10290819 8.98465312 C11.09270251 10.47587516 11.09270251 10.47587516 11.08229065 11.9972229 C11.07906152 13.04840471 11.07583239 14.09958651 11.07250541 15.18262231 C11.06037852 18.72806668 11.04101651 22.27343553 11.02172852 25.81884766 C11.01159121 28.35112847 11.00189695 30.8834111 10.99261475 33.41569519 C10.9715851 38.87941875 10.94745498 44.34311482 10.92053413 49.80681229 C10.88161613 57.70646092 10.84824429 65.60612527 10.81623887 73.50580458 C10.76416471 86.32159671 10.70758681 99.13736486 10.64819336 111.953125 C10.5904977 124.40461289 10.53491275 136.85610725 10.48217773 149.30761719 C10.47892802 150.0747496 10.4756783 150.84188202 10.4723301 151.63226087 C10.45604075 155.48062577 10.43979302 159.32899084 10.42356598 163.177356 C10.28882989 195.11826713 10.14679173 227.05914192 10 259 C8.52168779 259.19412181 7.04230684 259.38012131 5.5625 259.5625 C4.73878906 259.66691406 3.91507813 259.77132813 3.06640625 259.87890625 C2.38449219 259.91886719 1.70257813 259.95882813 1 260 C0 259 0 259 -0.1241985 257.21508592 C-0.12381878 256.42868512 -0.12343906 255.64228432 -0.12304783 254.83205318 C-0.12503888 253.92786268 -0.12702993 253.02367218 -0.12908131 252.09208196 C-0.12616847 251.0872392 -0.12325563 250.08239643 -0.12025452 249.04710388 C-0.12110894 247.9886094 -0.12196337 246.93011491 -0.12284368 245.83954483 C-0.12450164 242.26337444 -0.11897198 238.68725011 -0.11352539 235.11108398 C-0.11324356 232.5592448 -0.11340117 230.00740554 -0.1139679 227.45556641 C-0.11419622 221.94654686 -0.1113447 216.43754237 -0.10573006 210.92852592 C-0.0976174 202.96332697 -0.09500008 194.99813374 -0.09374207 187.0329311 C-0.09155118 174.11122491 -0.08489009 161.18952503 -0.07543945 148.26782227 C-0.06626629 135.71248405 -0.05918499 123.15714753 -0.05493164 110.60180664 C-0.05466892 109.82843751 -0.05440619 109.05506838 -0.05413551 108.25826382 C-0.05283051 104.37866001 -0.05156679 100.49905619 -0.05032361 96.61945236 C-0.03994984 64.41296362 -0.02225641 32.20648279 0 0 Z " fill="#2D8CD2" transform="translate(49,51)"/>
<path d="M0 0 C1.23556641 0.01740234 1.23556641 0.01740234 2.49609375 0.03515625 C3.32238281 0.04417969 4.14867187 0.05320313 5 0.0625 C5.63808594 0.07410156 6.27617187 0.08570313 6.93359375 0.09765625 C8.0962781 2.42302495 8.057907 3.75275131 8.05664158 6.34179878 C8.05863263 7.23753015 8.06062368 8.13326151 8.06267506 9.05613625 C8.0583058 10.54152187 8.0583058 10.54152187 8.05384827 12.05691528 C8.05470269 13.10401354 8.05555712 14.15111179 8.05643743 15.2299403 C8.05809313 18.76154626 8.05256938 22.2931054 8.04711914 25.82470703 C8.04683726 28.34713744 8.04699502 30.86956793 8.04756165 33.39199829 C8.04778985 38.83442919 8.04494145 44.27684485 8.03932381 49.71927261 C8.03120685 57.58816831 8.02859339 65.45705821 8.02733582 73.32595764 C8.0251456 86.09182009 8.01848635 98.85767617 8.0090332 111.62353516 C7.99985829 124.02652962 7.99277784 136.42952236 7.98852539 148.83251953 C7.98826267 149.59666495 7.98799994 150.36081037 7.98772926 151.14811172 C7.98642425 154.98149268 7.98516053 158.81487365 7.98391736 162.64825463 C7.9735457 194.46472652 7.95585404 226.28119039 7.93359375 258.09765625 C4.41437226 260.02902943 1.97159235 260.36685616 -2.06640625 260.09765625 C-3.6144717 258.5495908 -3.19180026 257.1040593 -3.19224739 254.94812012 C-3.19485514 254.04802971 -3.19746289 253.1479393 -3.20014966 252.22057343 C-3.19791893 251.22030373 -3.19568821 250.22003403 -3.19338989 249.18945312 C-3.19494988 248.13574776 -3.19650987 247.08204239 -3.19811714 245.99640656 C-3.20213211 242.43639257 -3.19893558 238.87642061 -3.19580078 235.31640625 C-3.1971546 232.77604141 -3.19893442 230.23567677 -3.20111084 227.6953125 C-3.20521133 221.4940868 -3.20459182 215.29287688 -3.2016982 209.09165096 C-3.19944439 204.05401955 -3.19913155 199.01639154 -3.20022202 193.97875977 C-3.20037525 193.26314078 -3.20052848 192.54752179 -3.20068636 191.81021738 C-3.20100607 190.35667864 -3.20133028 188.90313991 -3.20165895 187.44960117 C-3.20451391 173.80374744 -3.20122647 160.15790041 -3.19585858 146.51204777 C-3.19139053 134.79058057 -3.19216646 123.06912327 -3.19677734 111.34765625 C-3.20212282 97.75229479 -3.20423922 84.15693921 -3.20116508 70.56157684 C-3.20084651 69.11323547 -3.20053214 67.6648941 -3.20022202 66.21655273 C-3.20006774 65.50384799 -3.19991346 64.79114324 -3.19975451 64.05684137 C-3.19888928 59.0223492 -3.20035237 53.98786074 -3.20270157 48.95336914 C-3.2057909 42.18358623 -3.20360721 35.413825 -3.19780731 28.64404297 C-3.19647895 26.15144889 -3.19687511 23.65885324 -3.19906998 21.16625977 C-3.20177851 17.77943788 -3.19840401 14.39267729 -3.19338989 11.00585938 C-3.19562061 10.00558968 -3.19785134 9.00531998 -3.20014966 7.97473907 C-3.19754191 7.07464867 -3.19493416 6.17455826 -3.19224739 5.24719238 C-3.19208504 4.46437141 -3.19192269 3.68155045 -3.19175541 2.87500763 C-3.0077104 0.26539585 -2.60563934 0.12313986 0 0 Z " fill="#0074C9" transform="translate(204.06640625,50.90234375)"/>
<path d="M0 0 C6.66558391 4.11740173 11.71717248 10.3939986 14.75 17.5625 C16.25309566 26.58107394 14.72681032 34.81485643 9.375 42.3125 C3.46451186 48.50277456 -3.55245319 52.00934634 -12.12890625 52.4375 C-20.173558 52.03463794 -27.59483237 48.93168377 -33.0625 42.9375 C-37.86585606 36.65514447 -40.03105669 29.76778338 -39.4453125 21.8984375 C-38.30562215 14.38578477 -35.29174286 8.29094642 -29.3359375 3.453125 C-21.01438781 -2.23914026 -9.52214763 -4.53261538 0 0 Z " fill="#193D61" transform="translate(104.625,113.6875)"/>
<path d="M0 0 C5.99937955 5.13704574 9.08933007 10.8153016 10.1875 18.66796875 C10.5416846 26.39843262 7.67299833 33.63151192 2.90234375 39.62890625 C-3.28541394 45.41311452 -8.9530128 48.12452944 -17.28515625 48.94140625 C-24.3911593 48.35894698 -31.69916709 45.2912378 -37.09765625 40.62890625 C-42.96951389 32.36685715 -45.03711736 25.74824445 -44.09765625 15.62890625 C-42.16033398 7.57618113 -38.06758097 1.78197261 -31.078125 -2.65234375 C-20.72088106 -8.19733094 -9.37133431 -7.03273732 0 0 Z " fill="#183C60" transform="translate(340.09765625,201.37109375)"/>
<path d="M0 0 C3.61907429 1.903365 6.26980721 4.18748844 8.9375 7.3125 C9.659375 8.1375 10.38125 8.9625 11.125 9.8125 C15.1737584 15.39699434 16.47172256 21.42105527 15.5390625 28.21484375 C13.6733816 36.91769642 10.49319041 43.17751804 3 48.1875 C-3.60889656 51.91913931 -10.193822 53.53149434 -17.66796875 51.66015625 C-25.10610706 49.26969249 -31.11977193 45.91478983 -35.40625 39.2109375 C-38.90990037 32.12855853 -39.97575428 24.8670687 -38 17.1875 C-35.0606657 8.75346418 -30.0296637 3.27060052 -22.0625 -0.6875 C-15.22537006 -2.96654331 -6.66539269 -2.7875504 0 0 Z " fill="#193C61" transform="translate(257.0625,113.6875)"/>
<path d="M0 0 C5.76262921 5.92727576 9.12141142 12.60768773 9.21875 20.91796875 C8.7155617 30.03825668 6.02124497 36.11715195 -0.8125 42.25 C-1.286875 42.7553125 -1.76125 43.260625 -2.25 43.78125 C-7.1680441 48.40421145 -14.22644211 48.90540288 -20.6484375 48.7265625 C-28.49771469 47.54432569 -35.94811829 43.51493718 -40.69921875 37.08203125 C-44.93275564 30.11526353 -45.77344167 23.35394142 -44.8125 15.25 C-42.43013665 6.86049467 -37.44166363 0.52233163 -29.8125 -3.75 C-19.07288192 -7.88062234 -9.56161581 -5.94944984 0 0 Z " fill="#193C61" transform="translate(340.8125,261.75)"/>
<path d="M0 0 C6.93740456 4.06385224 10.83498359 9.73488654 13.25390625 17.3203125 C15.02298968 24.09746298 14.21779055 30.43117768 11.0625 36.6796875 C7.09048114 43.13015955 2.22575015 47.37852215 -4.55859375 50.6953125 C-13.24930143 52.39937283 -20.99188867 51.79287448 -28.74609375 47.3203125 C-34.28509442 43.22442312 -38.07583977 38.03097789 -39.74609375 31.3203125 C-40.81151955 21.84131799 -40.12479185 14.01488879 -34.23828125 6.359375 C-25.14087751 -3.66892586 -12.23201064 -5.61533715 0 0 Z " fill="#183B60" transform="translate(105.74609375,53.6796875)"/>
<path d="M0 0 C6.87367591 3.12056453 11.73221391 8.05298715 15.421875 14.59375 C17.45179159 22.916408 18.05036948 31.74634126 13.75 39.4921875 C9.09678699 45.94432306 3.37566487 50.65325798 -4.390625 52.84375 C-13.40566965 53.94314569 -20.53583988 51.82329007 -28.265625 47.15625 C-34.17589368 41.50444788 -37.30759686 33.58101594 -37.640625 25.53125 C-37.18611088 17.08738772 -34.2262087 10.92867245 -28.015625 5.21875 C-19.80539184 -1.64277956 -10.27870699 -2.93677343 0 0 Z " fill="#183B60" transform="translate(408.953125,166.84375)"/>
<path d="M0 0 C5.46256569 4.83005808 8.6585621 10.22732194 9.31640625 17.49609375 C9.54523696 24.94416439 9.41755434 30.84916913 5 37 C4.4225 37.886875 3.845 38.77375 3.25 39.6875 C-2.75777597 45.86215864 -9.41640147 48.50848109 -18 49 C-26.18562563 48.62012815 -33.04109406 45.29686132 -38.6015625 39.26171875 C-44.19318079 31.8879765 -44.87666474 24.02639991 -44 15 C-42.18040918 8.37078803 -38.60255272 2.19363359 -32.6328125 -1.44140625 C-21.25013793 -7.36917891 -10.8684754 -7.28319249 0 0 Z " fill="#183C61" transform="translate(186,208)"/>
<path d="M0 0 C6.24605561 5.44868681 9.49257965 10.869066 11 19 C11.44164392 27.7347353 9.01315308 34.50596802 3.20703125 41.0078125 C-2.5081213 46.46059278 -8.56470432 48.99396222 -16.4375 49.4375 C-23.912823 49.1374434 -31.05586241 45.95359789 -36.4609375 40.8046875 C-42.26523642 33.9986314 -43.84230205 27.26671555 -43.4765625 18.40234375 C-42.33681172 10.26527053 -38.48722176 4.4574386 -32.08984375 -0.59375 C-21.89224086 -7.45568839 -10.07895004 -6.7810583 0 0 Z " fill="#173B60" transform="translate(185,147)"/>
<path d="M0 0 C5.4435288 4.48587096 9.41266501 9.4148412 10.796875 16.48828125 C11.62777962 25.24838997 11.05601882 32.24263274 5.796875 39.48828125 C0.48949787 45.47464053 -5.09138658 48.85816391 -13.0234375 49.8359375 C-21.96240789 50.28174293 -28.23107716 47.76953816 -35.078125 42.11328125 C-40.67161585 35.20367491 -43.6395144 28.42943444 -43.078125 19.48828125 C-41.89903738 10.92024453 -38.24091651 5.69570495 -31.62890625 0.1875 C-22.18330618 -6.42898314 -9.54011956 -6.54614587 0 0 Z " fill="#173B60" transform="translate(261.203125,176.51171875)"/>
<path d="M0 0 C2.96633325 1.65512797 4.99411056 3.59583921 7.15625 6.203125 C8.208125 7.2859375 8.208125 7.2859375 9.28125 8.390625 C14.33371274 15.96931911 14.65781256 23.08075723 13.07421875 31.9296875 C10.8279579 39.9397581 5.07484133 44.93689424 -1.84375 49.203125 C-7.77488796 52.10279245 -14.97987137 52.28084709 -21.30859375 50.515625 C-29.13335136 47.30546803 -34.60927375 42.7678183 -38.1171875 35.03515625 C-40.72141043 28.46859412 -40.97546474 20.72422938 -38.78125 13.953125 C-35.3483923 6.25325726 -29.61855634 1.19473527 -21.84375 -1.796875 C-14.41657486 -4.27260005 -7.03020066 -3.1591408 0 0 Z " fill="#183C60" transform="translate(411.84375,228.796875)"/>
<path d="M0 0 C7.31708463 4.26631319 12.38039148 9.74904729 14.8125 17.9375 C16.37432391 25.97119554 15.33997126 32.83434968 11.125 39.875 C6.31052727 46.42737995 -0.31022108 50.5805965 -8.3125 52.0625 C-16.51956692 52.8224136 -23.90256305 50.16131348 -30.3125 45.0625 C-36.41936003 38.67159997 -39.28293004 31.8447776 -39.3125 23.0625 C-38.75498559 16.05721024 -36.07315229 10.23037713 -31.3125 5.0625 C-21.99323197 -1.85086057 -11.09845021 -5.01498294 0 0 Z " fill="#183C60" transform="translate(257.3125,234.9375)"/>
<path d="M0 0 C5.46256569 4.83005808 8.6585621 10.22732194 9.31640625 17.49609375 C9.60472902 26.88053494 8.78142956 32.73377177 2.5625 39.75 C-5.13695536 46.51049739 -10.07231314 48.53457821 -20.4140625 48.3828125 C-27.01936451 47.67767133 -31.65879292 44.82093884 -36.8125 40.8125 C-43.21049459 32.58650696 -45.20228721 25.41982245 -44 15 C-42.77518157 8.93614484 -39.69363537 4.01892529 -35 0 C-23.22298378 -7.30401487 -11.74278794 -7.8690876 0 0 Z " fill="#173B60" transform="translate(186,87)"/>
<path d="M0 0 C1.23556641 0.01740234 1.23556641 0.01740234 2.49609375 0.03515625 C3.32238281 0.04417969 4.14867187 0.05320313 5 0.0625 C5.63808594 0.07410156 6.27617187 0.08570313 6.93359375 0.09765625 C8.0962781 2.42302495 8.057907 3.75275131 8.05664158 6.34179878 C8.05863263 7.23753015 8.06062368 8.13326151 8.06267506 9.05613625 C8.0583058 10.54152187 8.0583058 10.54152187 8.05384827 12.05691528 C8.05470269 13.10401354 8.05555712 14.15111179 8.05643743 15.2299403 C8.05809313 18.76154626 8.05256938 22.2931054 8.04711914 25.82470703 C8.04683726 28.34713744 8.04699502 30.86956793 8.04756165 33.39199829 C8.04778985 38.83442919 8.04494145 44.27684485 8.03932381 49.71927261 C8.03120685 57.58816831 8.02859339 65.45705821 8.02733582 73.32595764 C8.0251456 86.09182009 8.01848635 98.85767617 8.0090332 111.62353516 C7.99985829 124.02652962 7.99277784 136.42952236 7.98852539 148.83251953 C7.98826267 149.59666495 7.98799994 150.36081037 7.98772926 151.14811172 C7.98642425 154.98149268 7.98516053 158.81487365 7.98391736 162.64825463 C7.9735457 194.46472652 7.95585404 226.28119039 7.93359375 258.09765625 C4.41437226 260.02902943 1.97159235 260.36685616 -2.06640625 260.09765625 C-3.6144717 258.5495908 -3.19180026 257.1040593 -3.19224739 254.94812012 C-3.19485514 254.04802971 -3.19746289 253.1479393 -3.20014966 252.22057343 C-3.19791893 251.22030373 -3.19568821 250.22003403 -3.19338989 249.18945312 C-3.19494988 248.13574776 -3.19650987 247.08204239 -3.19811714 245.99640656 C-3.20213211 242.43639257 -3.19893558 238.87642061 -3.19580078 235.31640625 C-3.1971546 232.77604141 -3.19893442 230.23567677 -3.20111084 227.6953125 C-3.20521133 221.4940868 -3.20459182 215.29287688 -3.2016982 209.09165096 C-3.19944439 204.05401955 -3.19913155 199.01639154 -3.20022202 193.97875977 C-3.20037525 193.26314078 -3.20052848 192.54752179 -3.20068636 191.81021738 C-3.20100607 190.35667864 -3.20133028 188.90313991 -3.20165895 187.44960117 C-3.20451391 173.80374744 -3.20122647 160.15790041 -3.19585858 146.51204777 C-3.19139053 134.79058057 -3.19216646 123.06912327 -3.19677734 111.34765625 C-3.20212282 97.75229479 -3.20423922 84.15693921 -3.20116508 70.56157684 C-3.20084651 69.11323547 -3.20053214 67.6648941 -3.20022202 66.21655273 C-3.20006774 65.50384799 -3.19991346 64.79114324 -3.19975451 64.05684137 C-3.19888928 59.0223492 -3.20035237 53.98786074 -3.20270157 48.95336914 C-3.2057909 42.18358623 -3.20360721 35.413825 -3.19780731 28.64404297 C-3.19647895 26.15144889 -3.19687511 23.65885324 -3.19906998 21.16625977 C-3.20177851 17.77943788 -3.19840401 14.39267729 -3.19338989 11.00585938 C-3.19562061 10.00558968 -3.19785134 9.00531998 -3.20014966 7.97473907 C-3.19754191 7.07464867 -3.19493416 6.17455826 -3.19224739 5.24719238 C-3.19208504 4.46437141 -3.19192269 3.68155045 -3.19175541 2.87500763 C-3.0077104 0.26539585 -2.60563934 0.12313986 0 0 Z M-1.06640625 1.09765625 C-1.06640625 85.90765625 -1.06640625 170.71765625 -1.06640625 258.09765625 C1.24359375 258.09765625 3.55359375 258.09765625 5.93359375 258.09765625 C5.93359375 173.28765625 5.93359375 88.47765625 5.93359375 1.09765625 C3.62359375 1.09765625 1.31359375 1.09765625 -1.06640625 1.09765625 Z " fill="#91C3E7" transform="translate(204.06640625,50.90234375)"/>
<path d="M0 0 C5.65003545 0.03639314 10.7689225 1.56809155 16.125 3.25 C13.125 4.25 13.125 4.25 -2.875 1.25 C-2.875 40.52 -2.875 79.79 -2.875 120.25 C6.035 120.25 14.945 120.25 24.125 120.25 C24.125 103.75 24.125 87.25 24.125 70.25 C24.785 70.25 25.445 70.25 26.125 70.25 C26.125 87.41 26.125 104.57 26.125 122.25 C15.895 122.25 5.665 122.25 -4.875 122.25 C-4.89754729 106.49082936 -4.91597933 90.73167142 -4.92681217 74.97248936 C-4.93197506 67.65572598 -4.93901762 60.3389733 -4.95043945 53.0222168 C-4.96038651 46.64716982 -4.96685348 40.27213059 -4.96908849 33.89707607 C-4.97039557 30.51951986 -4.97348119 27.14198584 -4.98073006 23.76443672 C-4.98793613 19.99992657 -4.98899113 16.23546315 -4.98852539 12.47094727 C-4.9939183 10.77918114 -4.9939183 10.77918114 -4.99942017 9.05323792 C-4.9980455 8.03375061 -4.99667084 7.01426331 -4.99525452 5.96388245 C-4.99617631 5.07250863 -4.9970981 4.18113482 -4.99804783 3.26274967 C-4.77411452 -0.40022996 -3.85961216 0.24900724 0 0 Z " fill="#ACB8C6" transform="translate(96.875,335.75)"/>
<path d="M0 0 C1.25159912 0.00523682 2.50319824 0.01047363 3.79272461 0.01586914 C4.78942421 0.01799156 4.78942421 0.01799156 5.80625916 0.02015686 C7.93590735 0.02577021 10.06545175 0.03832485 12.19506836 0.05102539 C13.63582205 0.05603868 15.07657739 0.06060188 16.51733398 0.06469727 C20.05577938 0.07574394 23.59416375 0.09301747 27.13256836 0.11352539 C27.15589767 15.87269283 27.17354769 31.63185563 27.18438053 47.39103603 C27.18954342 54.70779941 27.19658598 62.02455209 27.20800781 69.34130859 C27.21795487 75.71635557 27.22442184 82.0913948 27.22665685 88.46644932 C27.22796393 91.84400553 27.23104955 95.22153955 27.23829842 98.59908867 C27.24550449 102.36359882 27.24655948 106.12806224 27.24609375 109.89257812 C27.24968903 111.02042221 27.2532843 112.1482663 27.25698853 113.31028748 C27.25561386 114.32977478 27.2542392 115.34926208 27.25282288 116.39964294 C27.25374467 117.29101676 27.25466646 118.18239058 27.25561619 119.10077572 C27.13256836 121.11352539 27.13256836 121.11352539 26.13256836 122.11352539 C24.02617108 122.07533409 21.92098534 121.95760096 19.82006836 121.80102539 C18.66893555 121.72239258 17.51780273 121.64375977 16.33178711 121.56274414 C13.13256836 121.11352539 13.13256836 121.11352539 9.13256836 119.11352539 C14.41256836 119.44352539 19.69256836 119.77352539 25.13256836 120.11352539 C25.13256836 80.84352539 25.13256836 41.57352539 25.13256836 1.11352539 C16.22256836 1.11352539 7.31256836 1.11352539 -1.86743164 1.11352539 C-1.86743164 22.23352539 -1.86743164 43.35352539 -1.86743164 65.11352539 C-2.52743164 64.78352539 -3.18743164 64.45352539 -3.86743164 64.11352539 C-3.89055874 55.91661978 -3.9083486 47.71972771 -3.91924381 39.52279758 C-3.92447184 35.71700962 -3.93156802 31.91124391 -3.94287109 28.10546875 C-3.95370284 24.43559995 -3.95970908 20.76575261 -3.96230888 17.09586906 C-3.96416261 15.69277547 -3.96778224 14.2896831 -3.9731617 12.88659859 C-3.98037583 10.92782859 -3.98083973 8.96903719 -3.98095703 7.01025391 C-3.98317764 5.89328629 -3.98539825 4.77631866 -3.98768616 3.62550354 C-3.81573948 0.03373574 -3.6320819 0.1437989 0 0 Z " fill="#92A2B4" transform="translate(156.867431640625,335.886474609375)"/>
<path d="M0 0 C0.96669868 -0.00021904 0.96669868 -0.00021904 1.95292664 -0.0004425 C4.06850634 0.00025033 6.18399636 0.00801308 8.29956055 0.01586914 C9.77215019 0.01773556 11.24474045 0.0191584 12.71733093 0.02015686 C16.58230318 0.02396443 20.4472375 0.0337796 24.31219482 0.04486084 C28.26045214 0.05511289 32.20871562 0.0596626 36.15698242 0.06469727 C43.89593195 0.07540352 51.6348503 0.0924587 59.3737793 0.11352539 C59.39843675 4.22525099 59.41661888 8.33694817 59.42871094 12.44873047 C59.43375009 13.84847767 59.44058146 15.24821959 59.44921875 16.64794922 C59.46130249 18.65598316 59.46647736 20.66405497 59.47143555 22.67211914 C59.47667236 23.88182373 59.48190918 25.09152832 59.48730469 26.33789062 C59.3737793 29.11352539 59.3737793 29.11352539 58.3737793 30.11352539 C56.41090164 30.23715837 54.44362771 30.29147979 52.47705078 30.31884766 C51.21581894 30.33879288 49.9545871 30.3587381 48.65513611 30.37928772 C47.26838303 30.39627334 45.88162864 30.4131521 44.49487305 30.42993164 C43.0838204 30.45049465 41.672774 30.47149094 40.26173401 30.49290466 C36.54144339 30.54819294 32.82109657 30.59757225 29.10070801 30.64575195 C25.30691505 30.69591781 21.51320406 30.75162947 17.71948242 30.80688477 C10.27098406 30.9145489 2.8224177 31.01597536 -4.6262207 31.11352539 C-2.18718259 28.67448727 -0.52182215 28.1561839 2.89848328 27.99327087 C4.40738884 27.99660179 4.40738884 27.99660179 5.94677734 28 C7.08773361 28.00007553 8.22868988 28.00015106 9.40422058 28.00022888 C10.63554214 28.00539017 11.86686371 28.01055145 13.13549805 28.01586914 C14.39642776 28.01728409 15.65735748 28.01869904 16.95649719 28.02015686 C20.30529638 28.02480964 23.65402741 28.03379198 27.00280762 28.04486084 C30.42138062 28.05509852 33.83996088 28.05971434 37.25854492 28.06469727 C43.96366145 28.07488432 50.66865856 28.0944587 57.3737793 28.11352539 C57.3737793 19.20352539 57.3737793 10.29352539 57.3737793 1.11352539 C34.6037793 1.44352539 11.8337793 1.77352539 -11.6262207 2.11352539 C-11.6262207 1.78352539 -11.6262207 1.45352539 -11.6262207 1.11352539 C-7.69024148 0.18342395 -4.03986652 -0.00772441 0 0 Z " fill="#AEBAC7" transform="translate(338.626220703125,335.886474609375)"/>
<path d="M0 0 C0.99 0.495 0.99 0.495 2 1 C2.95676964 5.1334673 3.12629303 9.12665637 3.12939453 13.35668945 C3.13254669 14.5942952 3.13569885 15.83190094 3.13894653 17.10700989 C3.13715746 18.44243404 3.13510668 19.77785787 3.1328125 21.11328125 C3.13348666 22.49236569 3.13445761 23.87145002 3.13571167 25.25053406 C3.13718091 28.12935527 3.13505736 31.00814532 3.13037109 33.88696289 C3.12464735 37.58378455 3.1279743 41.28053403 3.13394356 44.9773531 C3.13754723 47.81939748 3.13641195 50.66142458 3.13381577 53.50346947 C3.13314734 54.8674845 3.13397198 56.23150108 3.13629532 57.5955143 C3.1388215 59.49377031 3.13429171 61.39203182 3.12939453 63.2902832 C3.12859894 64.3713887 3.12780334 65.4524942 3.12698364 66.56636047 C3 69 3 69 2 70 C0.08956362 70.1044918 -1.82475703 70.13855315 -3.73803711 70.14526367 C-5.5814695 70.15483345 -5.5814695 70.15483345 -7.46214294 70.16459656 C-8.81720948 70.16612647 -10.17227654 70.16723977 -11.52734375 70.16796875 C-12.91443415 70.17118231 -14.30152421 70.17454646 -15.68861389 70.17805481 C-18.60662621 70.18405765 -21.52460889 70.18589388 -24.44262695 70.18530273 C-28.15781743 70.18520184 -31.87281362 70.19877231 -35.58795834 70.21607494 C-38.45954738 70.22727866 -41.33109101 70.22921928 -44.20269966 70.22869301 C-45.57044701 70.2298637 -46.9381959 70.23423357 -48.30592155 70.24202538 C-56.11780277 70.28230928 -63.41299335 69.95091287 -71 68 C-71 67.67 -71 67.34 -71 67 C-47.24 67.33 -23.48 67.66 1 68 C0.67 45.56 0.34 23.12 0 0 Z " fill="#8295A9" transform="translate(395,388)"/>
<path d="M0 0 C0.66 0.33 1.32 0.66 2 1 C-1.72346836 5.42094803 -5.29521038 9.57833482 -10 13 C-10 10 -10 10 -7.8125 7.625 C-6.884375 6.75875 -5.95625 5.8925 -5 5 C-4.071875 4.071875 -3.14375 3.14375 -2.1875 2.1875 C-1.1046875 1.1046875 -1.1046875 1.1046875 0 0 Z " fill="#73899F" transform="translate(215,343)"/>
<path d="M0 0 C0 0.66 0 1.32 0 2 C-0.99 2 -1.98 2 -3 2 C-3.226875 2.5775 -3.45375 3.155 -3.6875 3.75 C-5.33038023 6.5663661 -7.39533227 8.08077114 -10 10 C-10 7 -10 7 -8.3203125 5.17578125 C-7.59585938 4.56089844 -6.87140625 3.94601563 -6.125 3.3125 C-5.40570313 2.68988281 -4.68640625 2.06726562 -3.9453125 1.42578125 C-2 0 -2 0 0 0 Z " fill="#8093A8" transform="translate(81,54)"/>
<path d="M0 0 C0.66 0.33 1.32 0.66 2 1 C1.07038578 2.15224028 0.1309875 3.29659176 -0.8125 4.4375 C-1.59560547 5.39462891 -1.59560547 5.39462891 -2.39453125 6.37109375 C-4 8 -4 8 -7 9 C-5.44499019 5.18315774 -2.96404505 2.80804268 0 0 Z " fill="#7A8FA4" transform="translate(307,200)"/>
<path d="M0 0 C0.66 0.33 1.32 0.66 2 1 C1.07038578 2.15224028 0.1309875 3.29659176 -0.8125 4.4375 C-1.59560547 5.39462891 -1.59560547 5.39462891 -2.39453125 6.37109375 C-4 8 -4 8 -7 9 C-5.44499019 5.18315774 -2.96404505 2.80804268 0 0 Z " fill="#778CA2" transform="translate(383,170)"/>
<path d="M0 0 C0.66 0.33 1.32 0.66 2 1 C1.07038578 2.15224028 0.1309875 3.29659176 -0.8125 4.4375 C-1.59560547 5.39462891 -1.59560547 5.39462891 -2.39453125 6.37109375 C-4 8 -4 8 -7 9 C-5.44499019 5.18315774 -2.96404505 2.80804268 0 0 Z " fill="#7E92A6" transform="translate(153,146)"/>
<path d="M0 0 C-1.49097658 3.7952131 -3.75700849 5.61042731 -7 8 C-7 5 -7 5 -4.625 2.3125 C-2 0 -2 0 0 0 Z " fill="#788DA3" transform="translate(231,177)"/>
</svg>
