<svg width="155" height="126" viewBox="0 0 155 126" fill="none" xmlns="http://www.w3.org/2000/svg">
<path fill-rule="evenodd" clip-rule="evenodd" d="M151.5 6C153.157 6 154.5 4.65645 154.5 3.00003C154.5 1.34254 153.157 0 151.5 0C149.844 0 148.5 1.34254 148.5 3.00003C148.5 4.65645 149.844 6 151.5 6ZM143.5 26C146.261 26 148.5 23.7622 148.5 21C148.5 18.239 146.261 16 143.5 16C140.739 16 138.5 18.239 138.5 21C138.5 23.7622 140.739 26 143.5 26ZM38.5 10C38.5 11.6575 37.1575 13 35.5 13C33.8436 13 32.5 11.6575 32.5 10C32.5 8.34356 33.8436 7 35.5 7C37.1575 7 38.5 8.34356 38.5 10ZM6.5 86C9.81385 86 12.5 83.3115 12.5 80C12.5 76.6885 9.81385 74 6.5 74C3.18615 74 0.5 76.6885 0.5 80C0.5 83.3115 3.18615 86 6.5 86ZM144.5 66.0006C144.5 99.1893 117.636 126 84.5 126C51.3639 126 24.5 99.1893 24.5 66.0006C24.5 32.8108 51.3639 6 84.5 6C117.518 6 144.5 32.8108 144.5 66.0006Z" fill="#F7DDAF"/>
<g clip-path="url(#clip0_3773_11876)">
<path d="M85.9737 89.6874L105.667 86.215L98.721 46.8241L79.028 50.2965L77.291 40.4453L106.835 35.2359L117.254 94.3245L87.7099 99.5339L85.9737 89.6874Z" fill="#73D19C"/>
<path d="M66.5616 72.7996C68.114 81.6039 76.5059 87.4759 85.3055 85.9244L79.6862 54.0556C70.882 55.608 65.01 64 66.5616 72.7996Z" fill="#73D19C"/>
<path d="M85.9728 89.6889L66.2753 93.1621L59.3296 53.7712L79.0271 50.298L77.2901 40.4468L47.7461 45.6562L58.165 104.745L87.709 99.5355L85.9728 89.6889Z" fill="#73D19C"/>
<path d="M98.4333 67.1814C99.9858 75.9856 94.1083 84.3738 85.3088 85.9254L79.6895 54.0566C88.4936 52.5042 96.8817 58.3817 98.4333 67.1814Z" fill="#73D19C"/>
</g>
<g clip-path="url(#clip1_3773_11876)">
<path d="M87.9737 85.6874L107.667 82.215L100.721 42.8241L81.028 46.2965L79.291 36.4453L108.835 31.2359L119.254 90.3245L89.7099 95.5339L87.9737 85.6874Z" fill="white"/>
<path d="M68.5616 68.7996C70.114 77.6039 78.5059 83.4759 87.3055 81.9244L81.6862 50.0556C72.882 51.608 67.01 60 68.5616 68.7996Z" fill="white"/>
<path d="M87.9728 85.6889L68.2753 89.1621L61.3296 49.7712L81.0271 46.298L79.2901 36.4468L49.7461 41.6562L60.165 100.745L89.709 95.5355L87.9728 85.6889Z" fill="#004C45"/>
<path d="M100.433 63.1814C101.986 71.9856 96.1083 80.3738 87.3088 81.9254L81.6895 50.0566C90.4936 48.5042 98.8817 54.3817 100.433 63.1814Z" fill="#004C45"/>
</g>
<defs>
<clipPath id="clip0_3773_11876">
<rect width="64" height="64" fill="white" transform="translate(47.7461 45.6562) rotate(-10)"/>
</clipPath>
<clipPath id="clip1_3773_11876">
<rect width="60" height="60" fill="white" transform="translate(49.7461 41.6562) rotate(-10)"/>
</clipPath>
</defs>
</svg>
