<svg width="160" height="140" viewBox="0 0 160 140" fill="none" xmlns="http://www.w3.org/2000/svg">
<path d="M87 133C120.136 133 147 106.189 147 73.0006C147 39.8108 120.018 13 87 13C53.8639 13 27 39.8108 27 73.0006C27 106.189 53.8639 133 87 133Z" fill="#B7CDC4"/>
<path d="M105.925 79.7558L105.138 79.2997L119.499 75.5677L120.286 76.0238L105.925 79.7558Z" fill="white"/>
<path d="M105.937 83.8481L105.15 83.392L105.138 79.3L105.925 79.7561L105.937 83.8481Z" fill="white"/>
<path d="M87.9515 100.085L87.1643 99.6165L87.1523 95.5365L87.9396 95.9925L87.9515 100.085Z" fill="white"/>
<path d="M87.9396 95.9921L87.1523 95.536L105.139 79.3L105.926 79.7561L87.9396 95.9921Z" fill="white"/>
<path d="M120.287 76.0239L119.499 75.5679L119.368 30.0399L120.155 30.5079L120.287 76.0239Z" fill="white"/>
<path d="M69.9289 104.764L69.917 100.672L87.9393 95.9922L87.9513 100.084L69.9289 104.764Z" fill="white"/>
<path d="M69.9166 100.673L69.1294 100.217L87.1517 95.5365L87.9389 95.9925L69.9166 100.673Z" fill="white"/>
<path d="M69.9285 104.764L69.1413 104.308L69.1294 100.216L69.9166 100.672L69.9285 104.764Z" fill="white"/>
<path d="M105.795 34.2279L105.008 33.7719L119.368 30.0399L120.156 30.5079L105.795 34.2279Z" fill="#73D19C"/>
<path d="M105.926 79.7552L105.139 79.2992L105.008 33.7712L105.795 34.2272L105.926 79.7552Z" fill="#73D19C"/>
<path d="M105.794 34.2278L120.155 30.5078L120.286 76.0238L105.926 79.7558L105.794 34.2278Z" fill="#73D19C"/>
<path d="M105.783 30.1476L123.805 25.4556L123.96 79.1676L105.938 83.8476L105.926 79.7556L120.286 76.0236L120.155 30.5076L105.854 34.2156L105.783 30.1476Z" fill="white"/>
<path d="M105.782 30.148L104.995 29.68L123.017 25L123.805 25.456L105.782 30.148Z" fill="white"/>
<path d="M105.854 34.2159L105.067 33.7479L104.995 29.6799L105.782 30.1479L105.854 34.2159Z" fill="white"/>
<path d="M55.5802 113.608L54.793 113.152L69.1297 100.216L69.9169 100.672L55.5802 113.608Z" fill="white"/>
<path d="M87.9394 95.9918L87.1522 95.5358L87.021 50.0078L87.8082 50.4638L87.9394 95.9918Z" fill="#73D19C"/>
<path d="M87.9394 95.9918L87.1522 95.5358L87.021 50.0078L87.8082 50.4638L87.9394 95.9918Z" fill="white"/>
<path d="M105.795 34.2286L105.926 79.7566L87.9393 95.9926L87.8081 50.4646L105.795 34.2286Z" fill="#73D19C"/>
<path d="M87.8082 50.4632L87.021 50.0072L105.008 33.7712L105.795 34.2272L87.8082 50.4632Z" fill="#73D19C"/>
<path d="M87.796 46.3719L87.0088 45.9159L104.995 29.6799L105.783 30.1479L87.796 46.3719Z" fill="white"/>
<path d="M87.8079 50.4636L87.0207 50.0076L87.0088 45.9156L87.796 46.3716L87.8079 50.4636Z" fill="white"/>
<path d="M105.783 30.1477L105.795 34.2277L87.8083 50.4637L87.9395 95.9917L105.926 79.7557L105.938 83.8477L87.9514 100.084L87.9395 95.9917L87.8083 50.4637L87.7964 46.3717L105.783 30.1477Z" fill="white"/>
<path d="M69.7862 55.1438L68.999 54.6878L87.0214 50.0078L87.8086 50.4638L69.7862 55.1438Z" fill="#73D19C"/>
<path d="M69.9174 100.673L69.1302 100.217L68.999 54.6887L69.7862 55.1447L69.9174 100.673Z" fill="#73D19C"/>
<path d="M69.7856 55.1434L87.808 50.4634L87.9392 95.9914L69.9168 100.671L69.7856 55.1434Z" fill="#73D19C"/>
<path d="M69.7735 51.0636L68.9863 50.5956L87.0087 45.9156L87.7959 46.3716L69.7735 51.0636Z" fill="white"/>
<path d="M69.7855 55.1435L68.9983 54.6875L68.9863 50.5955L69.7735 51.0635L69.7855 55.1435Z" fill="white"/>
<path d="M69.7739 51.0632L87.7963 46.3712L87.8082 50.4632L69.7859 55.1432L69.7739 51.0632Z" fill="white"/>
<path d="M55.5805 113.607L54.7933 113.151L54.6621 67.6234L55.4612 68.0914L55.5805 113.607Z" fill="#73D19C"/>
<path d="M55.4612 68.0927L54.6621 67.6247L68.9989 54.6887L69.7861 55.1447L55.4612 68.0927Z" fill="#73D19C"/>
<path d="M69.7858 55.1443L69.917 100.672L55.5802 113.608L55.4609 68.0923L69.7858 55.1443Z" fill="#73D19C"/>
<path d="M51.7872 67.2875L51 66.8315L68.9866 50.5955L69.7738 51.0635L51.7872 67.2875Z" fill="white"/>
<path d="M51.9423 121L51.1551 120.532L51 66.8322L51.7872 67.2882L51.9423 121Z" fill="white"/>
<path d="M69.7737 51.0634L69.7856 55.1434L55.4608 68.0914L55.58 113.607L69.9168 100.671L69.9287 104.763L51.9422 120.999L51.7871 67.2874L69.7737 51.0634Z" fill="white"/>
<path d="M72.0282 80.5231C72.0282 80.5231 71.8373 80.7031 71.8135 80.7151C71.8135 80.7271 71.8373 80.7511 71.8493 80.7511C71.9805 80.6791 72.052 80.5951 72.0282 80.5111V80.5231Z" fill="white"/>
<path d="M70.2988 81.1C70.2988 81.1 70.2748 81.124 70.2988 81.124C70.2988 81.1 70.2988 81.088 70.2988 81.1Z" fill="white"/>
<path d="M68.271 83.344C68.3306 83.344 68.4022 83.332 68.4618 83.32C68.4618 83.296 68.4618 83.272 68.4618 83.248C68.4618 83.176 68.3783 83.248 68.2829 83.344H68.271Z" fill="white"/>
<path d="M75.1056 66.6284C75.1056 66.6284 75.213 66.5324 75.2368 66.4844C75.2368 66.4604 75.1056 66.4004 75.1176 66.3644C74.1753 66.9644 75.2368 65.2724 74.6285 65.2364C74.6405 65.2364 73.6982 66.6524 73.7459 66.2324C73.7459 66.2564 73.6505 65.8364 73.7817 65.6324C73.6863 65.6684 73.5193 65.6924 73.5074 65.7044C73.7817 65.3684 73.0422 65.6084 72.8513 65.7764C72.243 66.0284 72.1715 67.7564 71.6705 68.3084C71.1576 68.8724 71.1457 69.4484 70.8118 69.8804C70.3466 70.4684 70.8118 68.8364 70.8356 68.8724C70.7402 68.7644 69.6309 69.0404 69.3328 69.2204C69.3566 69.1844 69.5117 68.7044 69.4878 68.6924C69.4282 68.6564 69.3208 68.8244 69.2493 68.8004C69.1181 68.7644 70.5971 66.7364 70.6567 66.8084C70.5851 66.7244 70.3466 66.9764 70.275 66.8804C70.9787 66.7244 71.265 66.0764 71.8614 65.4884C71.6586 65.8244 71.4558 66.1604 71.2769 66.4364C71.3962 66.3404 72.255 65.9924 72.4339 65.7164C72.3146 65.8964 72.1118 65.3084 71.9926 65.3684C71.9568 65.3924 71.9687 65.5604 71.8972 65.6204C71.9449 65.5124 71.9806 65.4044 71.8852 65.4524C71.8852 65.4284 71.8852 65.3804 71.8852 65.3684C72.0999 65.2004 72.0641 65.4884 72.2192 65.3924C72.3027 65.3444 72.1596 65.2604 72.1596 65.2484C72.3146 64.9724 73.1972 64.3484 72.9825 63.9524C72.9706 63.9284 73.7578 63.6164 73.6624 63.3284C73.7459 63.4004 73.8532 63.5324 73.9725 63.4364C73.9725 63.5564 73.7459 63.5324 73.7578 63.7004C73.7578 63.7484 74.0322 63.5804 74.0679 63.5444C74.0679 63.6644 73.9248 63.8084 73.9367 63.8324C73.9845 64.0724 74.1395 63.5804 74.1395 63.5684C74.1634 63.6284 74.1753 63.5684 74.2349 63.5684C74.1634 63.9164 73.7698 64.2284 73.7698 64.4684C73.5908 64.6964 72.9468 64.8284 72.8752 65.2244C72.9468 64.8164 74.2588 65.1644 74.5331 65.0084C74.712 64.9004 74.3065 64.6724 74.3065 64.6484C74.5093 64.5284 74.6643 64.7924 74.8194 64.7084C74.9625 64.6244 74.8194 64.4084 74.8909 64.3244C74.8909 64.3244 74.8909 64.3244 74.9029 64.3124C74.9267 64.3484 74.9267 64.3964 74.9864 64.3604C74.8909 64.4204 75.0102 64.0724 75.046 64.0364C74.9983 63.9764 74.712 63.8924 74.7239 63.8804C74.7597 63.7484 75.535 63.6164 75.9048 62.9564C75.8332 62.9564 75.0818 62.9804 75.0818 62.9684C75.0818 62.8844 75.4515 62.6684 75.4515 62.5964C75.4515 62.5724 75.3084 62.6324 75.2845 62.6324C75.2845 62.6204 75.2845 62.6084 75.2845 62.5964C75.3203 62.5844 75.4038 62.5724 75.4277 62.5124C75.4992 62.3204 75.2607 62.5124 75.213 62.5484C75.2607 62.3564 74.8552 62.2004 74.6762 62.5964C74.6047 62.4404 74.4735 62.4884 74.4138 62.4044C74.4615 62.0684 73.901 62.4284 73.901 62.5484C73.9248 62.8364 74.1872 62.4164 74.2826 62.4524C74.3065 62.4524 73.7101 62.9564 73.7101 62.9444C73.7101 62.8844 73.9129 62.6084 73.901 62.5004C73.901 62.3564 72.9229 63.2084 72.8752 63.4724C72.8752 63.5444 73.0183 63.4244 73.0183 63.4844L72.9348 63.5804C72.5412 63.7124 73.3642 62.7404 73.3642 62.7524C73.3165 62.5844 72.1476 63.7004 72.1476 64.0364C72.1476 64.0364 72.4458 63.8924 72.4935 63.8924C72.4577 63.9164 72.1118 64.0604 72.1238 64.1564C72.1596 64.3484 73.0064 63.8444 73.0064 63.8444C73.0064 63.8444 72.9348 63.9404 72.9348 63.9524C72.7082 64.2524 72.422 64.5764 72.0999 64.8644C72.088 64.8644 72.1596 64.7564 72.1596 64.7324C72.1596 64.7324 71.9091 65.1044 71.8256 65.1884C71.8256 65.1644 71.7898 65.1044 71.754 65.1044C71.754 65.1044 72.2073 64.4324 71.8852 64.6244C71.8614 64.6364 71.8256 64.6724 71.7898 64.7204C71.7898 64.5404 71.4678 64.8284 71.4558 64.8164C71.5751 64.6484 71.8852 64.2284 71.5751 64.2284C71.754 64.0724 72.5174 63.4484 72.6128 63.1964C72.577 63.3044 71.0503 64.4444 70.8833 65.0084C70.8118 65.2244 71.1099 65.0204 71.1338 65.0084C71.1338 65.0444 71.1576 65.0324 71.1815 65.0324C71.0742 65.1404 70.5971 65.6684 70.5971 65.8484C70.5971 65.8604 70.5136 65.9324 70.5136 65.9324C70.5016 65.9324 70.4778 65.9204 70.4659 65.9324C70.4778 65.8844 70.6567 65.6204 70.6567 65.6204C70.6567 65.5844 70.4897 65.7164 70.4659 65.6804C70.4659 65.6924 70.9549 65.2124 70.9787 65.1524C71.0384 64.9724 70.1557 65.5604 70.1915 65.7284C70.2154 65.8004 70.3585 65.6204 70.3943 65.6444C70.108 66.0404 69.7741 66.3524 69.2612 66.4484C69.5713 66.1604 68.7125 66.4484 68.629 66.7604C68.629 66.7484 68.7483 66.9404 68.5933 67.1444C68.5933 67.1444 68.5336 67.1684 68.5217 67.1564C68.5455 67.0844 68.5217 66.9524 68.3905 67.0364C68.4024 67.0124 68.5336 66.8924 68.5336 66.8804C68.5336 66.8564 67.6748 67.5644 67.5436 67.5284C67.5436 67.4204 67.9253 67.2884 67.8657 67.1804C67.6868 66.9164 66.7803 67.6604 66.506 67.7564C66.5179 67.7324 66.5298 67.7204 66.5537 67.7084C66.5656 67.7084 66.6729 67.5164 66.6729 67.5044C66.6491 67.3604 66.2078 67.9964 66.2078 67.9124C66.2078 67.9124 66.2674 67.6604 66.2555 67.6364C66.2555 67.6364 66.1839 67.6364 66.172 67.6364C66.1958 67.6244 65.8738 68.1164 65.838 68.0204C65.838 68.0204 65.8857 67.9724 65.8977 67.9364C65.4921 68.4044 59.4926 71.0204 59.588 72.0404C59.588 72.1244 59.755 72.3764 59.8982 72.1484C59.8982 72.3884 59.5046 72.6404 59.4091 72.6644C59.433 72.6404 59.5403 72.5084 59.5284 72.4724C59.5284 72.4964 58.5146 73.2044 58.5146 73.3364C58.5146 73.3964 58.6696 73.3124 58.6935 73.3004C58.6696 73.3124 58.4788 73.5164 58.4788 73.5884C58.4907 73.7204 59.0871 73.3124 59.3495 73.0724C58.777 73.6724 57.2622 74.9324 57.5127 75.4004C57.5962 75.5324 57.9659 74.8964 58.0494 74.8484C57.9898 74.9204 57.5127 75.6164 57.5007 75.6884C57.5007 75.7364 58.1806 75.2324 58.2641 75.1364C58.0971 75.4124 58.2522 75.2684 58.3834 75.1364C58.2402 75.3284 57.6081 75.9644 57.0117 76.5524C57.0117 76.5524 57.1071 76.5884 57.1429 76.6124C57.8228 75.9884 58.5623 75.2924 58.7293 75.1364C58.6935 75.1844 58.3118 75.5684 58.3834 75.6284C58.3834 75.6284 58.4788 75.6404 58.4549 75.6524C58.5623 75.5924 59.1825 74.8724 59.2064 74.7884C59.2183 74.7044 59.1825 74.7884 59.2064 74.7164C59.2064 74.6924 58.777 75.0884 58.7412 75.1244C58.8605 74.9684 59.2302 74.6684 59.0513 74.6324C59.4091 74.2964 59.6477 73.9124 59.9459 73.6604C59.8385 73.8284 59.4211 74.2964 59.3972 74.4044C59.433 74.2724 60.2083 73.8284 60.5661 73.4804C60.5661 73.4924 60.5661 73.5164 60.5661 73.5164C60.5899 73.5524 60.7569 73.3004 60.7927 73.2524C60.7927 73.4084 60.8285 73.2884 60.8524 73.4564C62.2479 72.2324 61.3772 73.9844 61.6992 74.3204C61.8065 74.4404 61.9855 73.8284 62.0212 73.7084C61.9855 73.8884 61.9497 75.1364 62.0212 75.1844C61.9497 75.1964 61.735 75.1364 61.6992 75.3284C61.6157 75.8204 62.0689 75.6404 61.7827 76.4684C61.3294 77.5244 60.3991 79.3484 60.8643 79.9364C61.1148 80.2484 61.902 81.4244 61.4249 81.7004C61.6634 81.5564 61.902 82.9724 62.1763 82.8404C62.1763 82.8404 62.2002 82.8404 62.2121 82.8284C62.3671 82.7324 61.6396 80.6564 61.7946 80.5724C62.3075 80.2724 61.8543 81.1244 62.0212 81.2924C62.6415 81.9044 62.9158 83.5604 64.1205 83.4524C64.8003 83.3684 65.8261 83.3924 66.5537 82.9724C66.8518 82.8044 66.983 84.2924 67.484 84.0044C67.484 84.0044 67.6271 83.6324 67.7464 83.7764C67.7464 83.9084 67.6629 83.8844 67.651 83.9324C67.6391 83.9684 67.6868 84.0284 67.6987 84.0284C67.7822 83.9804 68.0446 83.5844 68.2235 83.3804C67.8538 83.4044 67.5436 83.2004 67.3767 82.8644C66.9353 81.9044 67.7464 82.0964 66.3986 82.3364C66.6133 81.8924 66.661 81.4244 66.8161 80.9804C67.2932 79.6484 66.0169 81.2564 66.0885 81.5084C66.2078 81.8684 65.015 82.4204 64.7884 81.7724C65.0866 81.1724 65.7426 77.5964 66.6849 78.3764C66.7206 78.3524 66.7445 78.3644 66.7564 78.3764C66.8161 78.1964 67.15 77.8004 67.1858 77.7284C67.2216 77.3564 68.0327 78.0524 68.0684 78.0764C67.9969 78.0164 68.307 78.7004 68.3428 78.6884C68.796 78.4244 68.4263 76.4084 69.297 75.6764C69.7621 75.2924 69.8337 74.8244 69.9888 74.6084C70.0603 74.5124 69.9888 73.6964 70.2869 73.5044C70.2631 73.5764 70.0603 74.2364 70.108 74.2724C70.2035 74.3444 70.3943 73.5164 70.4062 73.4564C70.4062 73.4444 70.442 73.5524 70.4539 73.5884C70.442 73.5284 70.776 72.9404 71.0026 72.6524C71.0026 72.6524 70.9907 72.6524 70.9787 72.6524C71.0145 72.6284 71.0384 72.6044 71.0622 72.5684C71.0384 72.5924 71.0264 72.6164 71.0026 72.6404C71.0503 72.6044 71.1815 72.4604 71.2054 72.4844C71.1934 72.4724 71.1576 72.4844 71.1338 72.5084C71.3723 72.2804 71.4439 72.1844 71.4558 72.3044C71.4558 72.2564 71.7779 72.0644 71.7182 71.9324C71.6825 71.8604 71.6467 72.0044 71.587 72.0764C71.587 72.0164 71.5393 71.9804 71.5393 71.9444C71.5751 71.7044 72.0045 71.2604 72.1596 70.9964C72.1596 71.0684 72.088 71.0924 72.088 71.1524C72.088 71.1044 72.9945 70.1924 73.078 70.0844C73.0541 70.1324 72.9348 70.2644 72.9348 70.2884C72.9348 70.3604 73.1137 70.1804 73.1257 70.1564C73.1257 70.3604 72.4697 70.6124 72.6128 70.9604C72.6724 71.0924 74.2826 69.0404 73.9248 69.2444C73.5312 69.4724 73.4358 69.6404 73.4239 69.7124C73.4239 69.6644 73.4 69.5684 73.2807 69.3884C73.2807 69.3884 72.911 69.6044 72.8752 69.6044C72.8752 69.6044 72.8752 69.6044 72.8752 69.5924C73.1257 69.5084 73.2211 69.2324 73.4 69.0644C73.5193 68.5724 72.1357 70.1924 71.9687 70.3964C72.8871 69.0404 73.6863 68.8124 74.6047 67.7564C75.2488 67.3844 75.3442 66.5564 75.0818 66.6284H75.1056ZM71.7779 64.7804C71.7063 64.8884 71.6347 65.0084 71.6228 65.0804C71.5274 64.9364 71.6825 64.8524 71.7779 64.7804ZM71.0622 65.9804C71.2292 65.8604 71.2889 65.8844 71.4201 65.8964C71.2769 65.9804 71.1099 65.9444 71.0503 65.9924L71.0622 65.9804Z" fill="white"/>
<path d="M74.9265 66.7599C74.9265 66.7599 74.8785 66.8199 74.8545 66.8559C74.8665 66.8199 74.9025 66.7959 74.9265 66.7599Z" fill="white"/>
<path d="M74.6165 67.0844L74.6045 67.0964C74.6045 67.0964 74.6045 67.0964 74.6165 67.0844Z" fill="white"/>
<path d="M73.8532 64.9236C73.7212 65.1156 73.9252 64.7676 73.8532 64.9236V64.9236Z" fill="white"/>
<path d="M70.3107 65.9321C70.2627 65.9801 70.4667 65.9321 70.3107 65.9321V65.9321Z" fill="white"/>
<path d="M66.7445 78.1477C66.7205 78.1957 66.8405 77.9677 66.7445 78.1477V78.1477Z" fill="white"/>
<path d="M59.9219 72.3157C59.9219 72.3157 59.8979 72.3157 59.8979 72.3277C59.8979 72.3277 59.9099 72.3277 59.9219 72.3157Z" fill="white"/>
<path d="M60.2325 73.4673C59.8605 73.7553 60.3045 73.4073 60.2325 73.4673V73.4673Z" fill="white"/>
<path d="M61.8662 73.7444V73.7564C61.9022 73.6604 61.9742 73.5404 61.8662 73.7444Z" fill="white"/>
<path d="M67.1506 83.2239C66.8626 83.6199 67.2586 83.0679 67.1506 83.2239V83.2239Z" fill="white"/>
<path d="M66.8642 78.4361C66.8642 78.4361 66.8282 78.3881 66.8042 78.3521C66.7802 78.4241 66.7922 78.4601 66.8642 78.4361Z" fill="white"/>
<path d="M73.8535 65.5599C73.8295 65.5839 73.8055 65.5959 73.7935 65.6319C73.8415 65.6199 73.8655 65.5959 73.8655 65.5719L73.8535 65.5599Z" fill="white"/>
<path d="M65.9688 67.8766C65.9688 67.8766 65.9688 67.9006 65.9448 67.9246C65.9568 67.9006 65.9688 67.8886 65.9688 67.8766Z" fill="white"/>
<path d="M75.6539 82.1914C75.6539 82.1914 75.6778 81.7714 75.5704 81.8314C75.2126 82.0354 74.8906 81.8554 74.6043 82.6834C74.6043 82.4194 73.3758 79.7554 72.684 81.3154C72.7913 80.7514 72.0757 80.9074 71.861 80.7634C71.4435 81.0034 70.4536 81.1594 70.3104 81.1354C70.2746 81.2554 69.9526 81.7834 69.9645 81.7114C69.9645 81.6514 69.9168 81.6274 69.9168 81.5794C69.9168 81.5314 70.1912 81.3394 70.0957 81.2434C69.7737 80.9194 68.736 83.2354 68.8076 83.1874C68.6883 83.2594 68.5809 83.2954 68.4617 83.3194C68.5213 83.6794 68.7002 84.4354 68.6644 84.4594C68.0561 84.8194 67.9011 86.8954 68.08 86.5354C67.9369 87.8794 68.4378 88.2034 69.0223 89.2594C69.3801 89.9074 71.1931 89.3314 70.5251 91.1074C70.2746 91.8154 70.5609 95.8954 70.9903 95.8954C70.8829 95.9794 70.9307 96.3994 71.0499 96.3274C71.1692 96.2554 71.0738 95.9074 71.0857 95.7874L71.1334 95.7634C71.1931 95.7274 71.3243 96.4234 71.2527 96.5314C71.1931 96.5674 71.1692 96.3874 71.0976 96.4354C71.1573 96.3994 71.0619 97.3114 71.1215 97.2874C71.0976 97.2994 71.4316 97.0354 71.4316 96.9274C71.4674 96.9634 71.5509 97.1074 71.5151 97.1914C71.0499 97.9834 72.016 98.2474 72.016 98.2474C72.016 98.2714 72.016 98.2954 72.016 98.3194C71.9445 98.3434 71.8848 98.3194 71.8848 98.4394C71.8848 98.6074 73.5428 98.3794 73.6143 98.2354C73.3877 98.3674 73.829 97.7794 73.8409 97.7434C72.7078 98.0674 72.4097 95.8474 72.7317 95.1394C72.8152 94.8994 72.8868 95.2834 72.9941 95.0434C73.0657 94.8874 72.4335 95.0434 72.5409 94.7794C72.6243 94.7074 73.495 93.5794 72.9702 93.9394C74.5089 92.5834 73.4712 93.3754 73.4831 92.3794C73.4831 93.1954 74.4254 91.5754 74.7594 90.8074C74.7594 90.8434 74.7594 90.8554 74.7832 90.8434C75.0098 90.7114 75.3438 88.3234 75.964 87.7474C76.5365 87.1714 78.0513 81.9634 77.5504 81.7834C77.0494 81.6034 76.0952 82.1674 75.6181 82.2274L75.6539 82.1914ZM70.048 82.0594C69.8095 82.5754 70.3581 81.3634 70.048 82.0594V82.0594ZM71.372 96.8194C71.2527 96.7594 71.372 96.6274 71.372 96.8194V96.8194Z" fill="white"/>
<path d="M82.3573 58.3964C82.1426 58.4684 81.9279 58.6244 81.7252 58.7324C82.0353 58.5404 82.0591 58.5404 82.4766 58.2884C82.6555 58.1804 82.3931 58.0244 82.2023 57.9284C82.2858 57.9404 82.6555 57.8444 82.5959 57.6044C82.5839 57.5564 82.417 57.6525 82.3812 57.6405C82.5959 57.4365 82.6674 57.4965 82.8583 57.2445C82.8583 57.2685 82.7867 57.2684 82.7748 57.2564C82.8941 57.1844 83.0253 57.1124 83.1326 56.9564C83.1922 56.8724 82.9895 56.9684 82.9656 56.9564C83.2996 56.5964 82.9895 56.7044 82.9656 56.5964C82.9298 56.4404 83.1922 56.4644 83.2519 56.5244C83.2877 56.4284 83.395 56.2365 83.395 56.2485C83.3711 56.0685 83.1922 56.3804 83.1207 56.2964C83.1326 56.2964 83.3115 56.2484 83.3115 56.1764C83.3115 55.9004 82.9418 56.3924 82.9179 56.4044C83.0253 55.8044 84.4208 55.1805 84.4685 54.7365C84.4565 54.8205 83.3354 55.3004 83.3711 55.2644C83.3473 55.3004 83.3473 55.5044 83.1445 55.5524C83.3473 55.2164 82.7748 55.7204 82.7509 55.6724C82.8225 55.6244 83.3115 55.2885 83.3115 55.2405C83.3115 54.9765 81.749 56.1044 81.7132 56.1164C81.749 56.0804 81.9041 55.9844 81.9041 55.9124C81.8802 55.6844 80.0792 57.2445 79.9838 57.1485C79.9838 57.1485 79.9003 57.1004 79.9003 57.1724C79.9003 57.3884 80.2342 57.0165 80.27 57.1365C80.1269 57.2685 79.614 57.2324 79.4947 57.4964C79.447 57.5924 79.5902 57.5324 79.6259 57.5204C79.5782 57.5564 79.1488 57.7965 79.1011 57.8445C79.1727 57.7245 77.0258 59.2004 77.0496 59.3204C77.0615 59.4044 77.3239 59.1284 77.3478 59.1764C77.4194 59.4284 75.9284 60.1244 75.9165 60.4004C75.9165 60.4364 76.2147 60.3404 76.2624 60.3404C76.167 60.4004 75.9642 60.4484 75.9404 60.5924C75.8569 61.1564 77.5267 59.6444 77.5386 59.9684C77.5386 60.1484 77.479 59.9924 77.6221 60.1124C77.4551 60.4124 77.5506 60.5324 77.6698 60.4004C77.6698 60.4484 77.2762 60.9644 77.5744 60.6284C77.5506 60.6644 77.3597 60.9644 77.4074 60.9884C77.5267 61.0484 77.6937 60.8204 77.7772 60.6884C77.7533 60.8564 77.8249 60.9164 77.9919 60.7844C77.9919 60.7844 77.98 60.8684 77.968 60.8684C77.7295 61.0604 77.7056 60.8684 77.7056 60.8684C77.6102 60.7964 77.312 61.4444 77.2882 61.5044C77.2405 61.6484 77.4909 61.4805 77.6579 61.3485C77.4074 61.7325 77.0258 62.3084 77.2524 62.1884C76.7872 63.1364 77.479 63.2204 77.801 63.4004C77.9084 63.4604 80.4251 60.3164 80.6517 59.7884C80.8545 59.8844 81.3435 59.5124 81.6178 59.2244C81.7252 59.1284 82.3573 58.4204 82.3573 58.4204V58.3964ZM82.2977 57.7244C82.2977 57.7244 82.1426 57.8804 82.1665 57.9284C82.0949 57.8924 82.0472 57.8804 82.0472 57.8684C82.0591 57.8324 82.2619 57.7244 82.2977 57.7244ZM77.7653 61.1445C77.7653 61.1445 77.6341 61.1445 77.6102 61.1445C77.646 61.1084 77.801 61.0364 77.8487 61.0124C77.8607 61.0124 77.8249 61.0605 77.7653 61.1445Z" fill="white"/>
<path d="M83.2402 56.5714C83.2402 56.5714 83.2642 56.5474 83.2402 56.5234C83.2402 56.5594 83.2282 56.5714 83.2402 56.5714Z" fill="white"/>
<path d="M84.3135 60.7362C84.3135 60.7362 84.4447 60.4962 84.4805 60.4482C84.4805 60.5082 84.3731 60.7002 84.4208 60.7482C84.4685 60.7002 84.5162 60.5562 84.564 60.5322C84.564 60.6162 84.3493 60.8441 84.3731 60.8801C84.4208 60.9401 84.5162 60.7001 84.5282 60.7001C84.5282 60.7361 84.4566 60.9161 84.4805 60.9521C84.5043 60.9881 84.6594 60.6881 84.6594 60.6881C84.6713 60.6881 84.5878 60.9401 84.5878 60.9761C84.5878 61.0361 84.8383 60.8201 84.886 60.7721C84.8621 60.9161 84.5878 61.5401 84.5878 61.4081C84.5878 61.5281 84.6355 61.4801 84.7309 61.4561C84.6952 61.5401 84.5043 61.8162 84.5162 61.8402C84.5401 61.9122 84.8502 61.7441 84.9337 61.6721C84.9098 61.7081 84.3373 62.2841 84.3731 62.3681C84.3731 62.3561 85.7686 61.3842 85.7448 61.2402C85.7448 61.2162 85.6016 61.2761 85.6016 61.2761C85.6851 61.0601 85.9952 60.5082 85.542 60.9282C85.4824 61.0242 85.2438 59.8002 85.2557 59.8482C85.208 59.7042 84.9218 60.1121 84.8621 60.0521C84.8741 60.0641 85.2438 59.4641 85.1723 59.4521H85.1007C85.0649 59.4761 84.719 60.0042 84.6236 60.1482C84.5401 60.2682 84.5043 60.3162 84.3612 60.4242C84.397 60.4962 84.3254 60.7242 84.3373 60.7362H84.3135Z" fill="white"/>
<path d="M112.629 46.9844C112.629 46.9844 112.665 47.0084 112.665 46.9844C112.665 46.9844 112.653 46.9844 112.629 46.9844Z" fill="white"/>
<path d="M96.8848 49.3232C96.8848 49.3232 96.8848 49.3472 96.8968 49.3592C96.8968 49.2992 96.8968 49.2632 96.8848 49.3232Z" fill="white"/>
<path d="M108.872 55.9121C108.872 56.0921 110.923 53.2841 110.303 52.7801C110.351 52.8161 109.957 52.9841 109.957 52.9841C110.41 52.6241 109.862 52.3121 109.683 52.2281C108.955 51.8921 109.754 51.6761 109.754 51.2441C109.754 51.2321 109.742 51.1241 109.731 51.1121C109.683 51.0881 108.407 51.8201 108.574 51.3761C108.574 51.3521 108.585 51.3161 108.597 51.2921C108.848 51.1481 108.991 50.4881 109.194 50.4761C109.277 50.4521 109.241 50.7881 109.241 50.9441C109.397 50.8481 110.136 50.7881 110.208 50.7881C110.72 50.5001 110.41 51.1121 110.685 51.4601C110.685 51.4601 111.508 50.7761 111.198 50.5601C110.995 50.4401 110.184 49.5161 110.709 49.2161C111.901 48.5201 111.46 47.0561 111.281 46.1921C111.794 46.0001 112.009 47.4281 112.39 47.2001C112.45 47.1641 112.39 47.0561 112.39 47.0201C112.426 46.9961 112.557 46.9721 112.617 46.9721C112.498 46.9001 112.116 46.5041 112.08 46.4681C112.164 46.3961 112.462 46.3961 112.462 46.3841C112.474 46.3241 111.102 45.6161 111.043 45.6521C110.923 45.7601 111.198 45.7961 111.221 45.8081C111.102 46.0481 111.269 45.7961 111.257 46.1441C110.935 45.9761 110.494 45.8801 110.208 46.2161C110.208 46.0961 109.993 45.9881 109.969 46.1081C109.969 46.1801 110.148 46.1441 110.112 46.2281C110.076 46.3121 109.909 46.1561 109.897 46.1561C109.897 46.1561 109.862 46.3361 109.635 46.3841C110.041 45.4961 110.876 43.6841 111.663 44.0081C111.615 44.0441 111.567 44.0921 111.532 44.1521C111.532 44.3321 112.235 43.7081 112.235 43.6961C112.247 43.4441 112.235 43.3601 112.211 43.3361C112.247 43.3001 112.319 43.2041 112.45 42.9281C112.355 43.1321 113.082 42.9881 113.034 42.6161C113.034 42.5441 112.867 42.5801 112.82 42.5321C112.999 42.5201 113.118 42.5561 113.237 42.6881C113.213 42.7001 112.879 43.6121 112.832 43.7081C112.855 43.6721 114.144 45.0641 114.12 45.0281C114.215 45.1481 114.37 44.3321 114.239 44.1641C114.251 44.1641 114.43 44.0081 114.466 44.0081C114.418 43.9721 114.215 43.9361 114.239 43.8641C114.239 43.8401 114.525 43.3121 114.37 43.2641C114.37 43.2521 114.37 43.2281 114.37 43.2041C114.263 43.0241 113.368 43.2161 113.511 42.7961C113.667 42.4001 114.299 42.3281 114.633 42.1241C114.287 42.3281 115.587 40.5041 115.468 41.0081C115.563 40.6241 114.68 41.0681 114.573 40.9361C114.657 40.9121 114.895 40.7921 114.895 40.6241C114.895 40.5641 114.633 40.5401 114.657 40.5281C114.668 40.5281 114.728 40.5641 114.728 40.4801C114.812 40.6481 116.267 40.0841 116.291 40.0001C116.291 39.9521 116.052 39.9161 116.028 39.9041C116.064 39.8561 116.219 39.8201 116.195 39.7361C116.088 39.7361 115.229 39.7121 115.122 40.0001C115.169 40.0241 115.229 40.0481 115.289 40.0481C114.108 40.3961 113.07 40.5881 111.854 41.1761C111.889 41.1881 112.259 41.2721 112.259 41.2481C112.08 41.6681 108.132 42.9161 107.369 43.3001C107.369 43.2521 107.488 43.2161 107.5 43.1921V43.1681L106.653 43.6001C106.653 43.6241 106.737 43.6121 106.749 43.6121C106.713 43.6361 106.534 43.7321 106.522 43.7801C106.522 43.6961 106.832 43.8041 106.832 43.8161C106.51 44.0321 106.152 44.0921 105.675 44.3681C105.627 44.4041 105.711 44.5841 105.723 44.6321C105.556 44.6681 103.981 44.5481 103.862 45.0401C103.838 45.1121 104.029 45.0881 104.053 45.1241C103.481 45.1241 102.431 46.1561 102.073 46.0241C102.109 45.9881 102.3 45.8801 102.3 45.7961C102.3 45.6041 101.811 46.1921 101.823 46.2041C101.823 46.2761 101.954 46.1681 101.99 46.1321C101.954 46.2761 101.417 46.4921 101.417 46.6601C101.417 46.4321 102.18 45.8681 102.145 45.6881C102.049 45.1241 99.9619 46.6481 100.045 46.6241C99.6757 46.7561 99.5325 47.0681 99.1509 47.2001C99.0555 47.2841 98.1013 48.0761 98.1013 48.2081C98.1013 48.2441 98.4233 48.0761 98.4829 48.0761C98.316 48.3161 97.648 48.5201 97.6242 48.7721C97.6242 48.9161 98.2086 48.7121 98.2086 48.7601C98.1609 48.8441 97.5645 49.0241 97.4691 49.0241C97.493 48.9881 97.6122 48.9281 97.6242 48.9041C97.7077 48.6401 97.2186 49.2881 97.2663 49.2401C97.3618 49.2401 97.4333 49.1321 97.5287 49.1321C97.481 49.1801 97.2306 49.2521 97.2186 49.3481C97.2186 49.3481 97.2186 49.3601 97.2186 49.3721C97.0874 49.3721 96.9562 49.3721 96.9204 49.3361C96.9085 49.4681 96.8608 49.7201 96.837 49.6961C96.837 49.6961 96.8369 49.7081 96.8489 49.7201C96.4911 49.3841 95.9424 49.3361 95.8828 50.3081C95.8828 50.3081 96.1094 50.3801 96.1213 50.3801C95.9663 50.8241 96.5626 50.1521 96.4672 50.6081C96.2883 50.6681 94.7019 51.0521 94.7019 51.1841C94.7019 51.1961 95.1433 51.1601 95.2148 51.1481C95.2267 51.4961 94.9286 51.2801 94.857 51.2681C94.7974 51.3401 94.4515 51.7361 94.1771 51.9401C94.1175 51.8081 94.2487 51.8441 94.2487 51.7361C94.2487 51.6281 92.9367 53.2121 92.8532 52.9121C92.9128 52.7681 93.044 52.8041 93.0917 52.6841C92.9486 52.6841 92.6266 52.8161 92.5431 52.7921C92.4954 52.8761 92.8055 53.1401 92.8055 53.0921C92.7936 53.1521 92.7458 53.2361 92.7697 53.2841C92.2687 53.1521 92.2687 53.8361 92.233 53.9321C92.1137 54.2201 91.7082 53.9561 91.5889 54.2561C91.5531 54.3521 91.8632 54.2801 91.8871 54.3041C91.5292 54.7241 91.1356 54.2441 90.9329 54.1721C91.2311 53.8841 92.9844 53.3081 91.9109 53.2841C91.3026 53.2241 90.8255 53.5841 90.3126 53.8121C90.3365 53.7881 90.5393 53.5961 90.5393 53.5601C90.5035 53.3561 90.086 53.8001 90.0622 53.8001L90.1457 53.6201C90.0264 53.5361 89.919 53.8361 89.8475 53.9201C89.8475 53.9201 89.8355 53.9081 89.8236 53.8961C89.8236 53.9441 89.7878 54.0281 89.6209 54.1361C89.6328 54.0881 89.7759 53.8721 89.7401 53.8361C89.7401 53.8361 89.1676 54.3041 89.0841 54.3281C89.108 54.3281 89.1915 54.3281 89.2034 54.3521C88.9887 54.4481 88.9768 54.4841 88.8217 54.7001C88.8456 54.3041 88.5951 54.8561 88.5474 55.0121C88.4281 54.8201 88.4162 55.0601 88.3565 55.1921C88.2731 54.9521 87.9629 55.4801 87.7482 55.7081C87.7482 55.7321 87.7482 55.7561 87.7482 55.7801C87.784 55.8041 88.0345 55.4921 88.0941 55.4441C88.118 56.2241 86.806 57.2921 86.7941 57.5681C86.7941 57.4481 86.0546 58.6601 86.4959 58.5761C86.3408 58.9961 87.2234 58.7561 87.3785 58.0841C87.629 58.8401 87.5216 58.7081 87.4739 59.2481C87.4739 59.2841 87.5574 59.2721 87.5813 59.2601C88.2253 58.8881 88.44 57.8561 88.8456 57.1601C88.8694 57.1121 88.2373 56.9441 88.6905 56.4401C88.9171 56.1761 89.2869 55.7801 89.5374 55.5281C89.275 55.8761 88.941 56.4881 89.2034 56.6441C89.4658 56.8001 90.1934 56.2241 90.6585 56.0201C90.42 56.2241 89.3465 56.8841 89.3107 57.2441C89.3107 57.2201 89.3704 57.3401 89.3704 57.3521C89.4181 57.3161 89.8475 56.8601 89.7878 56.9921C89.7759 57.1121 89.8117 57.1841 89.7878 57.2921C89.3346 57.7121 88.2731 59.4641 87.462 59.4641C87.2115 59.8241 87.462 58.5521 87.4143 58.5161C87.0087 58.2641 87.1042 59.6561 87.1042 59.6681C87.1042 59.7161 85.1839 61.9121 85.0884 61.9601C85.482 61.7321 84.5636 62.7761 84.504 62.7161C84.5756 62.9921 85.983 63.1721 84.337 64.1321C83.347 64.7081 83.514 65.4641 83.4902 66.4961C83.8241 66.3881 85.5655 65.5841 85.2793 64.7921C85.1123 64.3121 87.3069 61.6721 87.3069 62.6201C87.3069 62.6681 88.2492 62.5961 88.2492 62.7641C88.2731 63.3161 87.784 63.6041 87.784 63.7001C87.784 64.7921 88.941 62.5601 88.7382 62.4641C88.8098 62.4641 88.9052 62.5241 88.9529 62.5001C89.096 62.2361 87.7363 62.2361 87.7363 61.8401C87.7363 61.3361 88.2611 61.5761 88.2611 61.6361C88.2611 61.7441 89.9668 62.7641 90.1218 62.4281C90.1218 62.4281 90.1934 62.2601 90.2172 62.2121C90.1457 62.2001 89.6686 61.8641 89.764 61.8161C89.8475 61.7681 90.5393 61.1081 90.5512 61.3721C90.5512 61.4201 90.3842 61.7561 90.4081 61.8161C90.4916 61.9961 90.6108 61.5881 90.5989 61.5881C90.5989 61.6841 90.4796 61.9961 90.4319 62.0561C90.4796 62.0321 90.6705 61.9961 90.6943 61.9721C90.6943 62.0081 90.5154 62.1881 90.754 62.1521C90.7182 62.1641 90.6228 62.4161 90.6228 62.4401C90.742 62.2721 90.742 62.2601 90.8494 62.1401C90.8494 62.1881 90.754 62.2121 90.7301 62.3081C90.754 62.3081 90.8494 62.3681 90.8732 62.4041C90.9209 62.3201 90.9448 62.1641 90.9687 62.1281C90.9687 62.3441 92.4357 61.4681 92.4357 61.2521C92.6981 62.6561 91.6962 63.4121 90.5631 63.8321C90.3961 63.8921 88.5116 64.7801 89.0483 65.0081C88.6905 64.8521 87.8675 64.9001 87.4739 65.0201C87.1161 65.1161 87.6409 64.2281 87.4978 64.0481C87.1042 63.5561 83.8599 66.9881 83.5021 67.4561C83.0846 68.0081 82.035 70.4921 81.7845 71.2841C81.701 71.6321 81.3551 74.0921 81.5579 74.2481C81.9157 74.4881 82.2616 75.0401 82.7149 75.3521C83.5259 76.1201 84.7545 74.4401 85.7444 73.7201C85.9949 73.5401 87.6886 73.3361 87.128 74.2841C86.806 74.8841 87.7363 76.3601 87.9033 76.8041C88.2969 77.7521 87.2473 79.2401 87.9987 80.1161C88.5235 80.6921 88.5235 82.5161 88.941 83.0441C89.263 83.4401 90.0025 82.5641 90.5751 82.2281C91.8632 81.4841 92.2449 78.2081 92.555 77.4641C92.4477 76.7561 93.7477 75.3521 93.7477 74.0441C93.7477 73.8161 93.0798 71.9321 93.8551 71.4881C94.5827 71.0681 96.0736 67.0001 96.014 66.4481C96.002 66.2921 94.5111 67.1921 94.201 67.3721C94.6065 66.7481 91.7201 64.7441 91.8871 63.5561C91.9467 63.6521 92.1256 64.0121 92.2687 63.9281C92.3284 63.8921 92.3522 63.5441 92.3642 63.4601C92.3999 64.0121 94.7735 66.5201 94.6542 66.7481C95.4295 65.2841 97.7911 63.8921 97.7315 62.2601C97.7315 62.3561 96.6342 61.8401 96.8608 61.7081C96.5865 61.8641 96.4314 62.5721 96.0259 62.8001C95.7635 62.9561 96.0736 62.1281 95.7873 62.2961C95.7158 62.3321 95.7396 62.5721 95.7277 62.5961C95.7516 62.5841 94.6662 61.7441 95.3579 61.4681C95.4891 61.4081 96.2883 62.3081 96.6342 61.6601C96.9085 61.1201 99.3536 61.2761 99.8784 60.8441C99.8188 61.0241 99.5922 61.1321 99.5683 61.1801C99.5326 61.3241 100.069 61.5641 100.248 61.1201C100.367 62.1401 101.918 64.6721 102.073 63.4241C102.097 63.1721 101.966 61.6721 102.335 61.3001C102.622 61.0121 103.516 59.4281 103.6 58.9121C103.6 59.1521 103.97 58.8041 103.993 58.6241C104.053 58.7801 104.268 58.4921 104.268 58.3961C104.423 59.0081 105.234 59.8841 105.532 59.3561C106.009 58.4801 106.152 61.5041 106.057 61.5641C106.093 61.5401 106.105 61.3841 106.116 61.3601C106.14 61.3841 106.224 61.5881 106.236 61.5881C106.236 61.5881 107.202 63.1841 107.5 62.6441C107.631 62.4161 105.556 60.1841 106.462 59.6561C106.713 59.5121 107.56 60.4121 107.536 60.4601C109.146 58.4561 106.641 57.3041 108.168 56.4161C108.18 56.4281 108.168 56.7281 108.204 56.7881C108.108 56.6081 108.8 56.0441 108.86 55.8641L108.872 55.9121ZM97.5168 49.3121C97.5168 49.3121 97.4691 49.3361 97.4333 49.3481C97.5407 49.2881 97.6242 49.2281 97.5168 49.3121ZM96.837 50.8361C97.2425 50.5961 97.1709 50.1521 96.9204 49.8521C97.0755 49.9601 97.326 49.8881 97.5765 49.7801C97.5765 49.7801 97.326 49.9601 97.3021 50.0201C97.2783 50.1041 97.5168 50.8721 96.825 50.8361H96.837ZM97.6122 49.7681C97.7911 49.6961 97.9343 49.9121 97.9462 49.9121C97.8508 49.9721 97.7434 49.7681 97.6122 49.7681ZM107.536 43.3361C107.631 43.2281 107.762 43.0961 107.536 43.3361V43.3361Z" fill="white"/>
<path d="M109.278 51.0283C109.278 51.0283 109.266 50.9923 109.266 50.9443C109.23 50.9683 109.218 50.9923 109.278 51.0283Z" fill="white"/>
<path d="M90.4322 62.1276C90.4322 62.1276 90.4322 62.1276 90.4442 62.1156C90.4322 62.1156 90.4202 62.1156 90.4322 62.1276Z" fill="white"/>
<path d="M90.8979 62.4634C90.8979 62.4634 90.8619 62.5234 90.8379 62.5354C90.8979 62.5234 90.9099 62.4874 90.8979 62.4634Z" fill="white"/>
<path d="M116.482 59.6199C116.482 59.6199 116.947 59.3319 116.565 59.3439C116.398 59.3439 114.335 58.6839 114.228 59.6559C114.192 59.9919 113.452 59.4879 113.083 59.8839C113.071 59.8839 113.059 59.9559 113.047 59.9919C113.19 60.0039 113.393 60.2199 113.607 60.0759C113.5 60.1599 113.345 60.2559 113.321 60.3279C113.357 60.2559 113.512 60.6039 113.536 60.5919C113.631 60.5439 113.667 60.3159 113.703 60.2319C113.703 60.7119 114.43 60.4479 114.43 61.2399C114.43 61.5399 116.053 60.2799 115.623 60.5319C116.231 59.7039 116.482 60.7599 117.126 60.3879C117.15 60.3879 117.245 60.1839 117.245 60.1599C117.245 59.9679 116.291 60.0879 116.482 59.6319V59.6199Z" fill="white"/>
<path d="M113.059 59.9799C113.059 59.9799 113.059 59.9799 113.047 59.9799C113.047 60.0159 113.059 60.0039 113.059 59.9799Z" fill="white"/>
<path d="M116.505 63.9877C116.458 63.7357 116.458 63.5917 116.458 63.4237C116.458 63.1837 115.587 62.4157 115.623 62.2957C115.587 62.2237 115.527 61.1917 115.48 61.2277C115.289 61.3357 114.907 63.8557 114.681 63.7237C114.418 63.5797 114.048 63.6517 113.822 63.4237C113.738 63.3277 114.323 62.4997 114.227 62.4517L114.144 62.3557C114.025 62.4277 114.108 62.5717 114.025 62.6197C114.013 62.6197 113.977 62.4757 114.001 62.4517C113.667 62.6437 113.428 62.5837 113.166 62.7277C113.07 62.7757 113.333 62.8477 113.297 62.9317C113.297 62.9317 112.14 64.2757 112.617 64.0357C112.534 64.2877 112.379 64.0957 112.295 64.3597C112.235 63.4837 111.484 64.9957 111.424 65.2237C111.365 65.2597 111.317 65.1997 111.281 65.2237C111.162 65.2957 111.305 65.4877 111.305 65.5117C111.174 65.5357 111.269 65.5117 111.21 65.6917C111.174 65.6317 111.186 65.4517 111.15 65.4157C110.518 66.6397 109.957 67.2397 109.051 68.3197C109.051 68.2957 109.087 68.0917 109.051 68.1157C108.979 68.5357 109.003 69.0397 108.932 69.3757C108.932 69.4117 108.884 69.4477 108.872 69.4717C108.872 69.4477 108.848 69.3397 108.812 69.3517C108.669 69.3997 108.86 69.5557 108.765 69.6157C108.753 69.5797 108.717 69.3277 108.657 69.3637C108.765 69.3037 108.836 71.0077 108.788 71.2117C108.55 72.3517 108.61 71.9557 109.492 71.3077C110.279 70.7197 110.947 69.8077 111.782 69.3157C112.045 69.1597 112.212 69.1717 112.331 69.2317C112.474 70.0237 112.605 70.7797 113.357 70.8997C113.559 70.9357 113.893 70.7077 114.06 70.3837C114.144 70.2277 114.215 70.0717 114.287 69.9157C114.859 69.5797 117.161 65.2117 117.09 64.2997C117.114 64.5637 116.505 63.5677 116.505 63.9517V63.9877Z" fill="white"/>
<path d="M146 33C148.761 33 151 30.7622 151 28C151 25.239 148.761 23 146 23C143.239 23 141 25.239 141 28C141 30.7622 143.239 33 146 33Z" fill="#B7CDC4"/>
<path d="M154 13C155.657 13 157 11.6565 157 10C157 8.34254 155.657 7 154 7C152.344 7 151 8.34254 151 10C151 11.6565 152.344 13 154 13Z" fill="#B7CDC4"/>
<path d="M38 20C39.6575 20 41 18.6575 41 17C41 15.3436 39.6575 14 38 14C36.3436 14 35 15.3436 35 17C35 18.6575 36.3436 20 38 20Z" fill="#B7CDC4"/>
<path d="M9 93C12.3138 93 15 90.3115 15 87C15 83.6885 12.3138 81 9 81C5.68615 81 3 83.6885 3 87C3 90.3115 5.68615 93 9 93Z" fill="#B7CDC4"/>
<path d="M88.281 71.7629L91.5493 60.8468L106.453 11.3648C106.649 10.8419 106.322 10.2536 105.799 10.0575C105.276 9.86142 104.688 10.1883 104.492 10.7112L86.2547 59.0166L82.202 69.6712L88.281 71.7629Z" fill="#004C45"/>
<path d="M88.281 71.7629L91.5493 60.8468L86.1893 59.0166L82.202 69.6712L88.281 71.7629Z" fill="#F4CB46"/>
<path d="M82.2017 69.6711C81.0252 72.2204 77.0378 76.077 78.2144 81.437C79.4564 86.8624 78.5412 89.9999 78.5412 89.9999C78.5412 89.9999 84.032 84.5746 85.993 80.9141C88.0193 77.3189 88.2808 71.6321 88.2808 71.6321L82.2017 69.6711Z" fill="#5A2740"/>
</svg>
