<svg width="160" height="140" viewBox="0 0 160 140" fill="none" xmlns="http://www.w3.org/2000/svg">
<path fill-rule="evenodd" clip-rule="evenodd" d="M154 13C155.657 13 157 11.6565 157 10C157 8.34254 155.657 7 154 7C152.344 7 151 8.34254 151 10C151 11.6565 152.344 13 154 13ZM146 33C148.761 33 151 30.7622 151 28C151 25.239 148.761 23 146 23C143.239 23 141 25.239 141 28C141 30.7622 143.239 33 146 33ZM41 17C41 18.6575 39.6575 20 38 20C36.3436 20 35 18.6575 35 17C35 15.3436 36.3436 14 38 14C39.6575 14 41 15.3436 41 17ZM9 93C12.3138 93 15 90.3115 15 87C15 83.6885 12.3138 81 9 81C5.68615 81 3 83.6885 3 87C3 90.3115 5.68615 93 9 93ZM147 73.0006C147 106.189 120.136 133 87 133C53.8639 133 27 106.189 27 73.0006C27 39.8108 53.8639 13 87 13C120.018 13 147 39.8108 147 73.0006Z" fill="#F0C4BC"/>
<path d="M58.481 72.8117L62.531 75.1866C67.1839 77.9168 74.8316 77.9168 79.5247 75.1866L103.362 61.282C105.724 59.9017 106.899 58.0951 106.889 56.2783L107 96.0436C107 97.8604 105.824 99.6771 103.473 101.047L79.6352 114.952C74.9521 117.682 67.3045 117.682 62.6415 114.952L58.5916 112.577C56.2802 111.217 55.1245 109.431 55.1145 107.644L55.0039 67.8791C55.0039 69.6654 56.1696 71.4517 58.481 72.8117Z" fill="#004C45"/>
<path d="M83.7751 78.1413L90.7595 74.0714C91.5735 73.5944 92.3171 73.6147 92.8598 74.0207L94.4275 74.9646L93.7241 76.893V93.7816C93.7241 95.984 92.3975 98.5315 90.7695 99.4855L84.0062 103.423L83.5339 104.723L81.9159 103.738C81.2526 103.393 80.8306 102.53 80.8306 101.292V83.8453C80.8306 81.6429 82.1571 79.0954 83.7851 78.1413H83.7751Z" fill="#E2E2E2"/>
<path d="M85.4135 104.539L92.3979 100.469C94.036 99.5153 95.3525 96.9577 95.3525 94.7654V77.3186C95.3525 75.1162 94.0259 74.1114 92.3979 75.0654L85.4135 79.1353C83.7755 80.0894 82.459 82.647 82.459 84.8393V102.286C82.459 104.489 83.7855 105.493 85.4135 104.539Z" fill="white"/>
<path d="M85.6445 89.5398C85.6445 87.2359 87.2625 84.4245 89.2523 83.2573C91.2421 82.1003 92.8601 83.0239 92.8601 85.3379C92.8601 86.9314 92.0863 88.7684 90.9507 90.1285V94.8378L87.5539 96.8169V92.1076C86.4183 92.067 85.6445 91.1332 85.6445 89.5296V89.5398Z" fill="#004C45"/>
<path d="M88.2371 93.2642V88.5549C89.3727 87.1949 90.1465 85.3578 90.1465 83.7644C90.1465 83.4497 90.1163 83.1656 90.056 82.9118C91.6539 82.4043 92.8599 83.3584 92.8599 85.3477C92.8599 86.9411 92.086 88.7782 90.9504 90.1382V94.8475L87.5537 96.8266V93.66L88.2371 93.254V93.2642Z" fill="#B7CDC4"/>
<path d="M58.5312 62.8752C53.8482 65.6053 53.818 70.0812 58.4709 72.8114L62.5209 75.1864C67.1738 77.9165 74.8215 77.9165 79.5146 75.1864L103.352 61.2817C108.035 58.5515 108.065 54.0756 103.402 51.3454L99.3523 48.9705C94.6993 46.2403 87.0517 46.2403 82.3586 48.9705L58.5212 62.8752H58.5312Z" fill="#73D19C"/>
<path d="M64.2293 47.6818V68.9347H64.2795C64.2795 69.6756 64.7519 70.4266 65.7267 70.995C67.6662 72.1216 70.8218 72.1216 72.7714 70.9848C73.7462 70.4165 74.2285 69.6756 74.2386 68.9347H74.2888V47.6818C74.2888 45.1851 75.5551 42.9015 77.6554 41.582L87.7049 35.2793V55.2431H87.7652C87.7652 55.984 88.2375 56.7351 89.2123 57.3034C89.8756 57.6891 90.6695 57.9429 91.5137 58.0647C93.1517 58.3082 94.9707 58.0545 96.257 57.2933C97.2218 56.7249 97.7142 55.984 97.7242 55.2431H97.7745V35.0255C97.7745 31.3921 95.8148 28.0326 92.6693 26.2666C89.5239 24.4905 85.6649 24.592 82.6098 26.5102L72.3392 32.9449C67.2542 36.142 64.2192 41.6429 64.2192 47.692L64.2293 47.6818Z" fill="white"/>
<path d="M87.7148 35.2788V55.2426H87.7751C87.7751 55.9835 88.2475 56.7346 89.2223 57.3029C89.8855 57.6886 90.6794 57.9423 91.5236 58.0641V37.7654C91.5236 33.6955 87.7148 35.2788 87.7148 35.2788Z" fill="#E2E2E2"/>
<circle cx="112" cy="96" r="19" fill="#5A2740"/>
<path d="M112 104C113.105 104 114 103.105 114 102C114 100.895 113.105 100 112 100C110.895 100 110 100.895 110 102C110 103.105 110.895 104 112 104Z" fill="white"/>
<path d="M112 98.6667C112.353 98.6667 112.693 98.5262 112.943 98.2761C113.193 98.0261 113.333 97.687 113.333 97.3333V89.3333C113.333 88.9797 113.193 88.6406 112.943 88.3905C112.693 88.1405 112.353 88 112 88C111.646 88 111.307 88.1405 111.057 88.3905C110.807 88.6406 110.667 88.9797 110.667 89.3333V97.3333C110.667 97.687 110.807 98.0261 111.057 98.2761C111.307 98.5262 111.646 98.6667 112 98.6667Z" fill="white"/>
</svg>
