<svg width="160" height="140" viewBox="0 0 160 140" fill="none" xmlns="http://www.w3.org/2000/svg">
<path fill-rule="evenodd" clip-rule="evenodd" d="M154 13C155.657 13 157 11.6565 157 10C157 8.34254 155.657 7 154 7C152.344 7 151 8.34254 151 10C151 11.6565 152.344 13 154 13ZM146 33C148.761 33 151 30.7622 151 28C151 25.239 148.761 23 146 23C143.239 23 141 25.239 141 28C141 30.7622 143.239 33 146 33ZM41 17C41 18.6575 39.6575 20 38 20C36.3436 20 35 18.6575 35 17C35 15.3436 36.3436 14 38 14C39.6575 14 41 15.3436 41 17ZM9 93C12.3138 93 15 90.3115 15 87C15 83.6885 12.3138 81 9 81C5.68615 81 3 83.6885 3 87C3 90.3115 5.68615 93 9 93ZM147 73.0006C147 106.189 120.136 133 87 133C53.8639 133 27 106.189 27 73.0006C27 39.8108 53.8639 13 87 13C120.018 13 147 39.8108 147 73.0006Z" fill="#F0C4BC"/>
<path d="M121.288 74.2372C112.706 60.0712 101.22 47.8196 88.6174 40.5452C75.9191 33.2069 64.3374 32.2498 55.7549 36.6208L51.001 39.3327L54.1596 43.1295L56.6801 43.3209C57.8287 44.5333 59.1687 45.1076 60.1259 44.629C60.7959 44.2781 61.4659 44.0228 62.1679 43.7357L80.9601 45.1714L102.943 62.5918L116.63 82.3731L121.384 79.6611C122.66 78.8954 122.629 76.4387 121.288 74.2372Z" fill="#004C45"/>
<path d="M88.6181 55.4449C79.4613 50.1486 71.134 49.4148 64.8486 52.4139L60.0947 55.1259L64.1786 56.3702C64.3381 56.8169 64.5296 57.2635 64.7848 57.7102C65.9972 59.816 67.9434 61.0284 69.2197 60.3903C70.4959 59.7841 71.8678 59.3374 73.3674 59.114L85.3638 62.6874L101.731 79.1506L107.506 87.5417L112.26 84.8298C113.536 84.0959 113.536 81.6073 112.164 79.4059C105.943 69.3876 97.6792 60.6774 88.6181 55.4449Z" fill="#004C45"/>
<path d="M89.703 71.0143C89.352 70.791 89.0329 70.5996 88.682 70.4081L88.6182 70.3762C83.0666 67.1857 77.9937 66.6114 74.0693 68.2386C73.9736 68.2705 73.8779 68.3343 73.7822 68.3981L69.3154 70.9505L72.4741 73.4072L73.9417 73.5987C75.1541 75.6725 77.0684 76.8211 78.3447 76.2787C79.1423 75.9597 80.0037 75.7682 80.929 75.7044L89.2563 80.5859L98.3493 92.9333L103.103 90.2214C104.443 89.4556 104.348 86.8713 102.912 84.6379C99.3065 79.0226 94.7121 74.173 89.703 71.0143Z" fill="#004C45"/>
<path d="M88.6183 85.2428C85.8106 83.6156 83.2582 83.5837 81.5672 84.8919L78.0576 86.9338L78.5362 90.4115L79.3338 91.7196C79.5891 95.0697 81.0567 98.675 83.1944 101.674C84.6301 103.684 86.353 105.375 88.2035 106.556L90.405 110.225L94.9356 107.64C96.818 106.747 97.9666 104.577 97.9666 101.419C97.9666 99.0897 97.3285 96.5373 96.2118 94.1444C94.5527 90.4434 91.7769 87.0295 88.6183 85.2428Z" fill="#004C45"/>
<path d="M98.3492 92.8703C97.1687 93.5403 95.2862 92.5513 93.9781 90.5412C91.4257 86.6169 88.2032 83.203 84.6618 80.9377C84.4065 80.7782 84.1194 80.5868 83.8641 80.4591C79.9398 78.1938 76.3664 77.7791 73.5906 78.9277C72.2825 79.4701 70.3681 78.3215 69.1557 76.2157C67.8476 73.9504 67.9114 71.4618 69.3153 70.8875C73.2077 69.2284 78.3126 69.8027 83.8641 73.0252L83.9279 73.0571C84.2789 73.2485 84.5979 73.4399 84.9489 73.6633C89.958 76.8219 94.5524 81.6715 98.1577 87.255C99.6254 89.5203 99.6892 92.1046 98.3492 92.8703Z" fill="white"/>
<path d="M107.506 87.6051C106.293 88.307 104.347 87.286 103.103 85.2441C98.03 76.9806 91.2661 69.8657 83.8959 65.5904C76.4301 61.2832 69.6023 60.6451 64.4975 63.1337C63.2531 63.7399 61.275 62.5275 60.0626 60.4536C58.7864 58.2203 58.7864 55.7955 60.1264 55.1573C66.3799 52.1263 74.7391 52.8921 83.8959 58.1884C92.9251 63.4208 101.189 72.131 107.41 82.245C108.782 84.3827 108.814 86.8394 107.506 87.6051Z" fill="white"/>
<path d="M116.631 82.3402C115.418 83.0421 113.44 81.9573 112.196 79.8835C104.762 67.6318 94.8074 57.0073 83.8958 50.69C72.8884 44.3409 62.8702 43.5113 55.4043 47.3081C54.16 47.9462 52.1819 46.7338 50.9376 44.628C49.6613 42.3946 49.6932 40.0017 51.0014 39.3317C59.5839 34.9607 71.1656 35.9179 83.8639 43.2561C96.4665 50.5305 107.952 62.7822 116.503 76.9163C117.875 79.1177 117.907 81.5744 116.631 82.3402Z" fill="#73D19C"/>
<path d="M107.506 87.6051C106.293 88.307 104.347 87.286 103.103 85.2441C98.03 76.9806 91.2661 69.8657 83.8959 65.5904C76.4301 61.2832 69.6023 60.6451 64.4975 63.1337C63.2531 63.7399 61.275 62.5275 60.0626 60.4536C58.7864 58.2203 58.7864 55.7955 60.1264 55.1573C66.3799 52.1263 74.7391 52.8921 83.8959 58.1884C92.9251 63.4208 101.189 72.131 107.41 82.245C108.782 84.3827 108.814 86.8394 107.506 87.6051Z" fill="white"/>
<path d="M98.3492 92.8703C97.1687 93.5403 95.2862 92.5513 93.9781 90.5412C91.4257 86.6169 88.2032 83.203 84.6618 80.9377C84.4065 80.7782 84.1194 80.5868 83.8641 80.4591C79.9398 78.1938 76.3664 77.7791 73.5906 78.9277C72.2825 79.4701 70.3681 78.3215 69.1557 76.2157C67.8476 73.9504 67.9114 71.4618 69.3153 70.8875C73.2077 69.2284 78.3126 69.8027 83.8641 73.0252L83.9279 73.0571C84.2789 73.2485 84.5979 73.4399 84.9489 73.6633C89.958 76.8219 94.5524 81.6715 98.1577 87.255C99.6254 89.5203 99.6892 92.1046 98.3492 92.8703Z" fill="white"/>
<path d="M107.506 87.6051C106.293 88.307 104.347 87.286 103.103 85.2441C98.03 76.9806 91.2661 69.8657 83.8959 65.5904C76.4301 61.2832 69.6023 60.6451 64.4975 63.1337C63.2531 63.7399 61.275 62.5275 60.0626 60.4536C58.7864 58.2203 58.7864 55.7955 60.1264 55.1573C66.3799 52.1263 74.7391 52.8921 83.8959 58.1884C92.9251 63.4208 101.189 72.131 107.41 82.245C108.782 84.3827 108.814 86.8394 107.506 87.6051Z" fill="#73D19C"/>
<path d="M98.3492 92.8703C97.1687 93.5403 95.2862 92.5513 93.9781 90.5412C91.4257 86.6169 88.2032 83.203 84.6618 80.9377C84.4065 80.7782 84.1194 80.5868 83.8641 80.4591C79.9398 78.1938 76.3664 77.7791 73.5906 78.9277C72.2825 79.4701 70.3681 78.3215 69.1557 76.2157C67.8476 73.9504 67.9114 71.4618 69.3153 70.8875C73.2077 69.2284 78.3126 69.8027 83.8641 73.0252L83.9279 73.0571C84.2789 73.2485 84.5979 73.4399 84.9489 73.6633C89.958 76.8219 94.5524 81.6715 98.1577 87.255C99.6254 89.5203 99.6892 92.1046 98.3492 92.8703Z" fill="white"/>
<path d="M98.3492 92.8703C97.1687 93.5403 95.2862 92.5513 93.9781 90.5412C91.4257 86.6169 88.2032 83.203 84.6618 80.9377C84.4065 80.7782 84.1194 80.5868 83.8641 80.4591C79.9398 78.1938 76.3664 77.7791 73.5906 78.9277C72.2825 79.4701 70.3681 78.3215 69.1557 76.2157C67.8476 73.9504 67.9114 71.4618 69.3153 70.8875C73.2077 69.2284 78.3126 69.8027 83.8641 73.0252L83.9279 73.0571C84.2789 73.2485 84.5979 73.4399 84.9489 73.6633C89.958 76.8219 94.5524 81.6715 98.1577 87.255C99.6254 89.5203 99.6892 92.1046 98.3492 92.8703Z" fill="white"/>
<path d="M98.3492 92.8703C97.1687 93.5403 95.2862 92.5513 93.9781 90.5412C91.4257 86.6169 88.2032 83.203 84.6618 80.9377C84.4065 80.7782 84.1194 80.5868 83.8641 80.4591C79.9398 78.1938 76.3664 77.7791 73.5906 78.9277C72.2825 79.4701 70.3681 78.3215 69.1557 76.2157C67.8476 73.9504 67.9114 71.4618 69.3153 70.8875C73.2077 69.2284 78.3126 69.8027 83.8641 73.0252L83.9279 73.0571C84.2789 73.2485 84.5979 73.4399 84.9489 73.6633C89.958 76.8219 94.5524 81.6715 98.1577 87.255C99.6254 89.5203 99.6892 92.1046 98.3492 92.8703Z" fill="#73D19C"/>
<path d="M91.4899 96.8555C89.799 93.1225 87.0232 89.7406 83.8646 87.922C80.6102 86.0395 77.7706 86.2948 76.0796 88.241C75.0906 89.3896 74.4844 91.1125 74.4844 93.3459C74.4844 96.9831 76.0477 101.067 78.4087 104.385C79.9402 106.523 81.8226 108.373 83.8326 109.522C85.747 110.639 87.5337 110.99 89.0332 110.702C91.5218 110.224 93.1809 107.863 93.1809 104.13C93.2447 101.769 92.6066 99.2484 91.4899 96.8555Z" fill="#73D19C"/>
<circle cx="112" cy="96" r="19" fill="#5A2740"/>
<path d="M112 104C113.105 104 114 103.105 114 102C114 100.895 113.105 100 112 100C110.895 100 110 100.895 110 102C110 103.105 110.895 104 112 104Z" fill="white"/>
<path d="M112 98.6667C112.354 98.6667 112.693 98.5262 112.943 98.2761C113.193 98.0261 113.334 97.687 113.334 97.3333V89.3333C113.334 88.9797 113.193 88.6406 112.943 88.3905C112.693 88.1405 112.354 88 112 88C111.647 88 111.308 88.1405 111.058 88.3905C110.807 88.6406 110.667 88.9797 110.667 89.3333V97.3333C110.667 97.687 110.807 98.0261 111.058 98.2761C111.308 98.5262 111.647 98.6667 112 98.6667Z" fill="white"/>
</svg>
