<svg width="50" height="50" viewBox="0 0 50 50" fill="none" xmlns="http://www.w3.org/2000/svg">
<path d="M25 50C38.8067 50 50 38.8289 50 25.0003C50 11.1712 38.7574 0 25 0C11.1933 0 0 11.1712 0 25.0003C0 38.8289 11.1933 50 25 50Z" fill="#F0C4BC"/>
<path d="M19.3332 14.333H15.3332C13.8604 14.333 12.6665 15.5269 12.6665 16.9997L12.6665 17.833V20.9997C12.6665 22.4724 13.8604 23.6663 15.3332 23.6663H17.3332H19.3332C20.8059 23.6663 21.9998 22.4724 21.9998 20.9997V18.708V17.833V16.9997C21.9998 15.5269 20.8059 14.333 19.3332 14.333Z" fill="white" stroke="#004C45" stroke-width="2.66667" stroke-linecap="round" stroke-linejoin="round"/>
<path d="M20.6667 13H16.6667C15.1939 13 14 14.1939 14 15.6667L14 16.5V19.6667C14 21.1394 15.1939 22.3333 16.6667 22.3333H18.6667H20.6667C22.1394 22.3333 23.3333 21.1394 23.3333 19.6667V17.375V16.5V15.6667C23.3333 14.1939 22.1394 13 20.6667 13Z" fill="white" stroke="#73D19C" stroke-width="2" stroke-linecap="round" stroke-linejoin="round"/>
<path d="M34.0002 14.333H30.0002C28.5274 14.333 27.3335 15.5269 27.3335 16.9997L27.3335 17.833V20.9997C27.3335 22.4724 28.5274 23.6663 30.0002 23.6663H32.0002H34.0002C35.4729 23.6663 36.6668 22.4724 36.6668 20.9997V18.708V17.833V16.9997C36.6668 15.5269 35.4729 14.333 34.0002 14.333Z" fill="white" stroke="#004C45" stroke-width="2.66667" stroke-linecap="round" stroke-linejoin="round"/>
<path d="M35.3332 13H31.3332C29.8604 13 28.6665 14.1939 28.6665 15.6667L28.6665 16.5V19.6667C28.6665 21.1394 29.8604 22.3333 31.3332 22.3333H33.3332H35.3332C36.8059 22.3333 37.9998 21.1394 37.9998 19.6667V17.375V16.5V15.6667C37.9998 14.1939 36.8059 13 35.3332 13Z" fill="white" stroke="#73D19C" stroke-width="2" stroke-linecap="round" stroke-linejoin="round"/>
<path d="M19.3332 29H15.3332C13.8604 29 12.6665 30.1939 12.6665 31.6667L12.6665 32.5V35.6667C12.6665 37.1394 13.8604 38.3333 15.3332 38.3333H17.3332H19.3332C20.8059 38.3333 21.9998 37.1394 21.9998 35.6667V33.375V32.5V31.6667C21.9998 30.1939 20.8059 29 19.3332 29Z" fill="white" stroke="#004C45" stroke-width="2.66667" stroke-linecap="round" stroke-linejoin="round"/>
<path d="M20.6667 27.667H16.6667C15.1939 27.667 14 28.8609 14 30.3337L14 31.167V34.3337C14 35.8064 15.1939 37.0003 16.6667 37.0003H18.6667H20.6667C22.1394 37.0003 23.3333 35.8064 23.3333 34.3337V32.042V31.167V30.3337C23.3333 28.8609 22.1394 27.667 20.6667 27.667Z" fill="white" stroke="#73D19C" stroke-width="2" stroke-linecap="round" stroke-linejoin="round"/>
<path d="M34.0002 29H30.0002C28.5274 29 27.3335 30.1939 27.3335 31.6667L27.3335 32.5V35.6667C27.3335 37.1394 28.5274 38.3333 30.0002 38.3333H32.0002H34.0002C35.4729 38.3333 36.6668 37.1394 36.6668 35.6667V33.375V32.5V31.6667C36.6668 30.1939 35.4729 29 34.0002 29Z" fill="white" stroke="#004C45" stroke-width="2.66667" stroke-linecap="round" stroke-linejoin="round"/>
<path d="M35.3332 27.667H31.3332C29.8604 27.667 28.6665 28.8609 28.6665 30.3337L28.6665 31.167V34.3337C28.6665 35.8064 29.8604 37.0003 31.3332 37.0003H33.3332H35.3332C36.8059 37.0003 37.9998 35.8064 37.9998 34.3337V32.042V31.167V30.3337C37.9998 28.8609 36.8059 27.667 35.3332 27.667Z" fill="white" stroke="#73D19C" stroke-width="2" stroke-linecap="round" stroke-linejoin="round"/>
<circle cx="35.4172" cy="34.5837" r="7.91667" fill="#5A2740"/>
<path d="M35.4168 37.9167C35.8771 37.9167 36.2502 37.5436 36.2502 37.0833C36.2502 36.6231 35.8771 36.25 35.4168 36.25C34.9566 36.25 34.5835 36.6231 34.5835 37.0833C34.5835 37.5436 34.9566 37.9167 35.4168 37.9167Z" fill="white"/>
<path d="M35.4169 35.6944C35.5642 35.6944 35.7055 35.6359 35.8097 35.5317C35.9139 35.4275 35.9724 35.2862 35.9724 35.1389V31.8056C35.9724 31.6582 35.9139 31.5169 35.8097 31.4127C35.7055 31.3085 35.5642 31.25 35.4169 31.25C35.2695 31.25 35.1282 31.3085 35.024 31.4127C34.9199 31.5169 34.8613 31.6582 34.8613 31.8056V35.1389C34.8613 35.2862 34.9199 35.4275 35.024 35.5317C35.1282 35.6359 35.2695 35.6944 35.4169 35.6944Z" fill="white"/>
</svg>
