<svg width="160" height="140" viewBox="0 0 160 140" fill="none" xmlns="http://www.w3.org/2000/svg">
<path d="M87 133C120.136 133 147 106.189 147 73.0006C147 39.8108 120.018 13 87 13C53.8639 13 27 39.8108 27 73.0006C27 106.189 53.8639 133 87 133Z" fill="#B7CDC4"/>
<path d="M88.2431 37C68.3512 37 52.135 53.1081 52.135 73C52.135 92.8919 68.2431 109 88.135 109C108.027 109 124.135 92.8919 124.135 73C124.243 53.2162 108.135 37 88.2431 37Z" fill="#73D19C"/>
<path d="M119.811 61.8649C118.081 52.892 113 45.7568 105.865 41.7568C108.243 43.2703 109.865 44.1352 112.568 46.6217C114.946 49.0001 115.162 49.2163 116.568 50.946C118.622 53.7568 118.73 53.9731 119.811 55.8109C121.433 59.0541 121.433 59.1622 122.189 61.2163L122.73 62.946L122.838 63.3785C123.919 67.919 123.378 69.1082 123.378 69.1082C122.946 67.5947 123.162 65.8649 122.622 64.3514C122.189 62.7298 121.324 61.3244 120.784 59.8109V59.919C120.46 59.8109 120.135 59.1622 120.135 59.1622C120.243 60.1352 120.351 61.2163 119.919 61.8649C120.027 61.8649 119.919 61.8649 119.811 61.8649Z" fill="white"/>
<path d="M75.8106 78.946C75.8106 79.1622 75.5944 79.1622 75.3781 79.1622L75.27 79.0541C75.3781 78.946 75.8106 78.946 75.8106 78.946Z" fill="white"/>
<path d="M67.8108 79.2704C67.5946 79.1623 67.4865 79.0542 67.3784 79.0542C67.4865 79.0542 67.5946 78.946 67.7027 78.946C67.7027 78.946 67.8108 78.9461 67.8108 79.0542C67.8108 79.1623 67.8108 79.2704 67.8108 79.2704Z" fill="white"/>
<path d="M84.6755 53.7567C84.5674 53.7567 84.5674 53.8648 84.5674 53.8648C84.5674 53.7567 84.5674 53.7567 84.6755 53.7567ZM68.243 49.2162L68.1349 49.3243C68.1349 49.3243 68.1349 49.2162 68.243 49.2162ZM80.9998 48.3513C80.8917 48.3513 80.8917 48.3513 80.8917 48.2432L80.7836 48.1351L80.6755 48.027C80.7836 48.1351 80.8917 48.1351 80.9998 48.3513ZM80.243 47.3784C80.1349 47.2702 80.243 47.2702 80.243 47.3784V47.3784ZM81.9728 47.054C81.8647 47.054 81.7565 47.2702 81.6484 47.3784C81.7565 47.054 81.8647 47.054 81.9728 47.054C82.0809 47.054 82.0809 47.054 81.9728 47.054ZM86.7295 48.3513C86.6214 48.1351 86.6214 48.1351 85.9728 47.4865C86.0809 47.3784 86.189 47.2702 86.2971 47.2702L86.189 47.1621C86.2971 47.1621 86.2971 47.1621 86.4052 47.1621C86.189 46.9459 86.0809 46.6216 85.8647 46.5135C85.8647 46.5135 85.7566 46.5135 85.6485 46.6216C85.5403 46.4054 85.5404 46.0811 85.3241 45.8648C85.216 45.8648 85.1079 45.8648 84.9998 45.9729C84.9998 46.0811 84.9998 46.0811 84.9998 46.1892C85.1079 46.1892 85.1079 46.1892 85.216 46.1892C85.1079 46.2973 84.8917 46.2973 84.6755 46.4054C84.9998 46.0811 84.9998 46.0811 84.9998 45.8648C84.8917 45.8648 84.3512 45.8648 83.7025 46.4054L83.8106 46.5135C83.8106 46.5135 83.7025 46.5135 83.7025 46.6216C83.7025 46.5135 83.7025 46.5135 83.7025 46.4054C84.0268 46.0811 84.1349 46.0811 84.4593 45.7567C84.3511 45.7567 84.3512 45.7567 84.2431 45.6486C83.9187 45.7567 83.2701 45.9729 82.8376 46.4054C82.9457 46.4054 82.9458 46.4054 83.0539 46.5135C82.9458 46.5135 82.9457 46.5135 82.8376 46.5135C82.8376 46.5135 82.7295 46.6216 82.7295 46.7297C82.8376 46.8378 82.9458 46.9459 83.5944 47.054L83.4863 47.1621C82.9457 47.4865 82.7295 47.5946 82.2971 47.7027L82.4052 47.5946C82.2971 47.7027 82.0809 47.8108 81.9728 47.9189L81.8647 47.8108C82.2971 47.4865 82.2971 47.4865 82.4052 47.2702C82.2971 47.2702 82.2971 47.2702 82.189 47.2702L82.0809 47.1621C81.9728 47.1621 81.9728 47.1621 81.8647 47.1621C82.4052 46.7297 82.4052 46.7297 82.2971 46.4054C83.0539 46.1892 83.2701 46.1892 83.4863 45.9729C83.4863 45.9729 81.4322 46.2973 81.216 47.054C81.3241 47.054 81.3241 47.054 81.4322 47.1621C80.9998 47.5946 80.3512 47.9189 80.3512 47.9189C80.4593 47.8108 80.5674 47.7027 80.6755 47.5946L80.5674 47.4865C80.8917 47.3784 80.9998 47.3784 81.216 47.2702C81.216 47.2702 81.216 47.1621 81.1079 47.054C80.5674 47.054 80.4593 47.1621 80.243 47.2702C80.3512 47.2702 80.3512 47.2702 80.4593 47.2702C79.7025 47.8108 79.3782 47.4865 79.162 47.3784C79.162 47.3784 79.2701 47.2702 79.2701 47.1621C78.9458 46.8378 78.6214 46.9459 78.5133 47.054C78.2971 47.3784 78.2971 47.3784 78.0809 47.5946C78.189 47.4865 78.2971 47.2702 78.4052 47.1621C77.5403 47.1621 77.5403 47.1621 77.4322 47.1621C77.5403 47.054 77.6485 47.054 77.7566 47.054C77.7566 46.9459 77.8647 46.9459 77.8647 46.8378C77.8647 46.7297 77.8647 46.7297 77.7566 46.6216C77.4322 46.5135 77.1079 46.5135 76.8917 46.2973L77.216 46.1892C76.9998 46.1892 76.9998 46.1892 76.6755 46.2973C76.7836 46.1892 76.8917 46.0811 76.9998 45.9729V45.8648C76.5674 46.0811 76.3511 46.1892 74.189 45C73.5403 44.5675 72.9998 44.3513 72.5674 44.4594C71.8106 44.5675 71.5944 45.3243 70.8376 45.4324L70.9457 45.3243C70.4052 45.1081 70.189 45.2162 70.0809 45.3243C70.0809 45.4324 70.0809 45.4324 70.0809 45.4324C69.7566 45.5405 69.7566 45.5405 69.6485 45.7567C69.7566 45.8648 69.8647 45.8648 69.9728 45.8648C67.8106 46.2973 67.8106 46.2973 67.162 46.8378C67.2701 46.8378 67.4863 46.8378 67.5944 46.7297C67.2701 46.8378 67.0539 46.9459 66.7295 47.1621C66.8376 47.2702 66.9457 47.3784 67.0538 47.3784C66.8376 47.4865 66.8376 47.4865 64.5674 48.027C64.6755 48.1351 64.8917 48.2432 66.7295 48.027C66.4052 48.1351 66.2971 48.1351 66.0809 48.2432C66.5133 48.3513 66.9457 48.1351 67.0538 48.027C66.9457 48.027 66.8376 48.027 66.8376 48.027C68.3512 46.8378 68.3511 46.8378 68.6755 46.8378C67.8106 47.1621 67.8106 47.1621 67.7025 47.1621C68.0268 47.054 68.4593 47.2702 68.7836 47.2702C68.7836 47.2702 68.7836 47.2702 68.6755 47.3784C68.7836 47.3784 68.7836 47.3784 68.8917 47.3784C68.8917 47.4865 68.7836 47.5946 68.6755 47.7027C69.1079 47.7027 69.1079 47.7027 69.216 47.9189C68.7836 48.8919 67.8106 49.3243 67.2701 50.0811C67.5944 49.9729 67.5944 49.9729 68.0268 49.6486C67.5944 50.0811 66.4052 51.3784 65.9728 52.027C65.9728 51.9189 65.9728 51.9189 65.9728 51.8108C65.9728 51.8108 65.8647 51.8108 65.7566 51.8108C60.0268 58.2973 60.0268 58.2973 59.4863 60.7838C58.9458 63.054 58.9458 63.2702 58.6214 63.3784C58.7295 63.5946 58.7295 63.7027 58.5133 64.5675C58.2971 66.2973 58.189 67.054 58.4052 67.1621C59.162 65.4324 58.7295 63.3784 59.8106 61.7567C60.0268 61.9729 60.0268 62.0811 59.7025 62.8378C59.2701 63.5946 58.8376 68.4594 59.8106 71.2702C59.9187 71.5946 60.1349 71.8108 60.3512 72.1351C61.3241 73.4324 61.3241 73.4324 64.2431 75.4865C65.6485 76.4594 64.3512 78.5135 65.7566 79.4865C65.8647 79.3783 65.9728 79.2702 66.0809 79.1621C66.189 79.1621 66.189 79.2702 66.2971 79.2702C66.2971 79.2702 66.2971 79.3783 66.4052 79.4865L66.2971 79.5946C66.2971 79.5946 66.2971 79.7027 66.2971 79.8108L66.4052 79.9189C66.7295 79.8108 66.9458 79.5946 67.2701 79.4865C66.9458 78.6216 66.2971 77.9729 65.9728 77.2162C65.7565 76.4594 66.0809 75.5946 65.6485 74.8378C65.3241 74.2973 64.6755 74.1892 64.2431 73.8648C64.2431 73.8648 65.9728 71.054 65.6485 70.5135C64.5674 70.4054 64.5674 72.1351 63.4863 71.9189C63.4863 71.9189 62.189 71.4865 62.0809 69.7567C62.0809 69.5405 64.4593 65.4324 65.5403 65C66.0809 64.7838 66.4052 65 66.6214 65.7567H66.8376C67.162 65.5405 67.5944 65.3243 67.9187 65.1081C68.5674 65.8648 68.5674 65.8648 68.9998 69.1081C69.1079 69.1081 69.216 69 69.3241 69C69.9728 67.7027 70.0809 66.2973 70.9457 65.1081C71.5944 64.2432 72.7836 64.1351 73.4322 63.2702C73.9728 62.6216 73.9728 61.7567 74.6214 61.2162C74.6214 61.2162 74.7295 61.2162 74.8376 61.1081C74.2971 61.9729 74.189 62.0811 74.0809 62.4054C74.4052 62.1892 74.4052 62.1892 74.9458 61.2162C74.9458 61.3243 74.9458 61.3243 74.9458 61.4324C75.3782 60.8919 76.0268 60.5675 76.243 60.3513C76.3511 60.3513 76.5674 60.2432 76.6755 60.3513C76.7836 60.2432 76.8917 60.2432 76.9998 60.1351L77.1079 60.2432C77.5403 60.1351 77.5403 60.1351 77.6485 60.027C77.6485 59.9189 77.6485 59.9189 77.6485 59.8108L77.5403 59.9189L77.4322 59.8108C77.5403 59.5946 77.5404 59.5946 78.8377 58.7297L78.7295 58.8378C79.162 58.7297 80.243 58.2973 80.5674 58.1892L80.4593 58.2973C80.5674 58.2973 80.5674 58.2973 80.6755 58.4054C79.7025 59.054 79.7025 59.054 79.7025 59.2702C80.5674 59.1621 82.189 58.0811 82.5133 57.6486C82.189 57.5405 81.9728 57.5405 81.5404 57.7567C81.4322 57.6486 81.4322 57.6486 81.3241 57C80.9998 57 80.8917 57 80.6755 56.8919C80.8917 56.8919 81.216 57 81.7566 56.4594L81.6484 56.3513C80.8917 56.4594 79.4863 57.1081 79.0539 57.3243C81.1079 56.027 86.4052 56.7838 85.216 53.5405C85.1079 53.5405 84.8917 53.4324 84.7836 53.4324C84.3512 52.5675 85.3241 51.8108 84.8917 50.9459C84.5674 51.2702 83.9187 51.8108 83.4863 51.9189C83.4863 51.8108 83.4863 51.8108 83.4863 51.7027C83.4863 51.2702 83.5944 51.1621 83.7025 50.8378C83.7025 50.7297 83.5944 50.6216 83.4863 50.6216C83.4863 50.5135 83.5944 50.5135 83.5944 50.4054C82.7295 49.2162 81.8647 50.5135 81.3241 51.2702C79.5944 53.8648 77.7566 54.8378 77.7566 54.8378C77.7566 54.7297 77.6485 54.7297 77.6485 54.6216C77.8647 53.8648 78.4052 53.2162 78.6214 53V52.8919C78.189 52.4594 77.4322 51.9189 76.9998 51.8108C77.3241 51.3784 77.4322 51.3784 77.5403 51.1621L77.4322 51.054C77.4322 51.054 77.4322 50.9459 77.4322 50.8378C78.189 50.2973 79.5944 49.4324 80.1349 49.3243C80.0268 49.3243 79.9187 49.2162 79.8106 49.1081C80.2431 49.2162 80.2431 49.2162 82.0809 48.5675C81.6485 48.8919 81.3241 49.2162 80.8917 49.4324C82.189 49.6486 82.189 49.6486 82.4052 49.5405C82.2971 49.4324 82.2971 49.4324 82.2971 48.5675C82.2971 48.5675 82.189 48.6757 82.0809 48.6757C82.0809 48.5675 82.0809 48.4594 82.0809 48.3513C82.0809 48.3513 82.189 48.4594 82.2971 48.4594C82.2971 48.5675 82.2971 48.5675 82.2971 48.6757C82.8376 48.2432 83.7025 48.1351 83.8106 47.2702C84.3511 47.3784 84.5674 47.3784 84.6755 46.9459C84.6755 47.054 84.7836 47.2702 84.7836 47.3784L84.6755 47.4865C84.6755 47.4865 84.7836 47.5946 84.7836 47.7027C84.8917 47.7027 84.8917 47.7027 84.9998 47.7027C84.8917 47.8108 84.8917 47.9189 84.7836 48.027C84.8917 48.027 84.9998 47.9189 85.1079 47.8108C85.1079 47.9189 85.1079 48.027 85.1079 48.027C84.8917 48.3513 84.5674 48.5675 84.3511 48.8919C83.2701 49 83.2701 49 83.162 49.1081C84.135 49.1081 84.243 50.4054 85.1079 50.5135C85.1079 50.1892 85.1079 50.1892 84.8917 49.7567C85.1079 49.8648 85.216 50.2973 85.5403 50.4054C85.5403 50.1892 85.6485 49.9729 85.6485 49.8648L85.7566 49.973C85.7566 49.2162 85.7566 49.2162 85.6485 49C85.6485 48.3513 86.2971 48.6757 86.7295 48.3513Z" fill="white"/>
<path d="M66.6216 65.7567C66.5135 65.6486 66.5135 65.5405 66.6216 65.4324C66.6216 65.5405 66.6216 65.6486 66.6216 65.7567Z" fill="white"/>
<path d="M83.5943 50.4055C83.4862 50.5136 83.5943 50.5136 83.5943 50.4055C83.4862 50.4055 83.4862 50.4055 83.5943 50.4055Z" fill="white"/>
<path d="M71.4865 78.8379C71.3784 78.946 71.3784 79.0541 71.2703 79.1622C71.2703 79.2703 71.1622 79.2703 71.1622 79.3784C71.1622 79.2703 71.4865 78.8379 71.4865 78.8379ZM87.0541 91.0541C87.1622 90.5136 87.4865 89.4325 86.946 89.1082C85.5406 88.1352 86.0811 88.3514 84.5676 87.8109C84.5676 87.3784 84.5676 87.2703 84.4595 86.946C82.5135 86.5136 82.5135 86.5136 81.973 87.3784C81.973 87.2703 79.1622 79.2703 77.2162 81.5406C77.2162 80.3514 75.4865 79.0541 74.946 78.946C73.2162 78.2973 72.1351 77.5406 71.9189 77.4325C71.9189 77.4325 71.919 77.5406 71.8108 77.5406C71.4865 77.8649 71.4865 77.973 71.1622 78.1892C71.0541 78.0811 71.0541 77.973 71.0541 77.8649C71.4865 77.5406 71.4865 77.5406 71.4865 77.4325C71.3784 77.0001 71.1622 77 70.7298 77.1082C69.7568 77.7568 69.3244 78.8379 68.4595 79.4865C68.2433 79.3784 68.1352 79.3784 67.9189 79.2703C67.9189 79.4865 67.9189 79.4865 68.2433 82.0811C66.0811 82.946 67.3784 87.5946 68.0271 89C68.0271 89 69.5406 91.919 70.6216 93.1082C71.4865 94.0811 72.6757 94.6217 73.5405 95.5946C74.4054 96.4595 74.2973 96.6757 74.2973 97.6487C74.1892 98.2973 74.946 100.351 76.3514 102.514C77.2162 103.811 78.4054 104.892 78.4054 104.892C78.4054 104.676 78.4054 104.676 78.0811 104.351H78.1892C78.1892 104.351 78.7297 104.784 78.946 105.216C78.8378 105.108 78.7297 105.108 78.6216 105C79.0541 105.541 79.0541 105.541 79.1622 105.757C80.1352 105.865 80.6757 106.622 81.4325 107.162H81.3243C81.7568 107.487 83.9189 107.919 83.9189 107.919C83.9189 107.919 83.9189 107.811 84.027 107.811C81 106.622 81 105.108 81 105.108C81.1081 105.108 81.2162 105.108 81.3243 105.216C81.1081 104.892 80.6757 104.892 80.4595 104.568C81.1081 104.351 81.1081 104.243 81.2162 104.027H81.1081C82.0811 103.811 82.0811 103.811 82.2973 103.703C81.5406 102.838 81.5406 102.838 81.4325 102.73C81.4325 102.73 81.4325 102.622 81.3243 102.514C81.3243 102.622 81.4325 102.73 81.4325 102.73C82.4054 103.487 82.946 101.757 83.8108 101.541C84.1351 100.892 84.2433 100.135 84.6757 99.4865C85.2162 98.6217 85.3244 98.5136 85.8649 98.1892C87.0541 97.6487 87.0541 91.0541 87.0541 91.0541Z" fill="white"/>
<path d="M89.108 46.946L88.9998 47.0542C88.8917 47.0542 88.8917 46.946 88.7836 46.946C88.8917 46.946 89.108 46.946 89.108 46.946ZM93.7566 45.6487C93.6485 45.7569 93.6485 45.7569 93.7566 45.865C93.6485 45.865 93.6485 45.7569 93.5404 45.6487H93.7566ZM87.5944 44.5677C87.4863 44.6758 87.5944 44.6758 87.5944 44.5677C87.4863 44.6758 87.4863 44.6758 87.5944 44.5677ZM94.2971 43.2704C94.2971 43.2704 94.2971 43.1623 94.189 43.1623C94.0809 43.2704 93.3242 43.1623 93.3242 43.1623C93.3242 43.2704 93.3242 43.2704 93.3242 43.3785H93.2161C93.2161 43.2704 93.2161 43.2704 92.7836 43.2704C92.8917 43.1623 92.9998 43.1623 93.1079 43.0542C92.9998 42.946 92.9999 42.946 91.8107 43.1623C91.9188 43.0541 91.9187 43.0542 91.9187 43.0542C91.9187 42.946 91.8107 42.946 91.7025 42.946C91.3782 43.0542 91.0539 43.1623 90.7296 43.2704C90.6215 43.2704 90.6215 43.2704 90.5134 43.1623C90.5134 43.3785 90.7296 43.2704 90.8377 43.3785C90.189 43.2704 90.189 43.2704 90.189 43.2704C90.189 43.2704 90.189 43.3785 90.2971 43.3785C90.189 43.3785 90.189 43.3785 90.0809 43.3785C88.5674 43.4866 88.2431 43.8109 88.135 43.8109C88.2431 43.8109 88.2431 43.8109 88.3512 43.8109V43.919C87.9188 44.1352 87.3782 43.8109 87.0539 44.3514C87.0539 44.4596 87.0539 44.4596 87.3782 44.5677C87.0539 44.5677 87.0539 44.5677 87.0539 44.6758C87.0539 44.6758 86.9458 44.892 87.162 45.0001C87.2701 45.1082 87.7025 45.1082 87.9188 45.0001C88.2431 45.0001 88.4593 45.0001 88.5674 45.0001C88.7836 45.1082 88.6755 45.3244 88.7836 45.4325C88.5674 45.865 88.7836 45.865 88.7836 45.865C88.6755 45.9731 88.6755 46.0812 88.5674 46.1893C88.5674 46.1893 88.6755 46.1893 88.6755 46.0812C88.5674 46.2974 88.3512 46.6217 88.6755 46.5136C88.7836 46.5136 88.8917 46.4055 88.8917 46.2974C88.8917 46.5136 88.9999 46.6217 89.108 46.6217V46.7298C88.9999 46.7298 88.9998 46.7298 88.7836 46.5136C88.5674 46.6217 88.2431 47.1623 88.3512 47.2704C88.3512 47.2704 88.4593 47.3785 88.7836 47.2704C88.2431 48.0271 88.2431 48.0271 88.2431 48.2433H88.3512C87.9188 49.3244 88.2431 49.6487 89.216 50.8379C90.0809 50.5136 92.0269 48.6758 92.5674 47.4866C93.216 48.0271 93.9728 47.1623 94.2971 46.7298C94.0809 46.7298 93.8647 46.7298 93.6485 46.7298C93.9728 46.6217 94.2971 46.7298 94.5134 46.6217C94.5134 46.5136 94.5134 46.5136 93.7566 45.9731C93.9728 46.0812 94.189 46.0812 94.189 45.865C94.189 45.7569 94.189 45.7569 93.8647 45.6487C93.9728 45.5406 94.189 45.5406 94.2971 45.4325H94.189C94.4052 45.3244 94.4052 45.3244 94.4052 45.2163C94.4052 45.2163 94.4052 45.2163 94.189 45.1082C94.2971 44.7839 93.8647 44.7839 93.8647 44.5677C93.9728 44.5677 94.189 44.6758 94.2971 44.7839C94.189 44.4596 94.189 44.4596 94.189 44.4596C94.0809 44.3514 93.9728 44.4596 93.8647 44.4596H93.9728C93.7566 44.1352 93.7566 44.2433 93.6485 44.4596C93.5404 44.1352 93.5404 44.0271 93.9728 43.8109C94.189 43.4866 94.2971 43.3785 94.2971 43.2704Z" fill="white"/>
<path d="M102.622 53.2164C102.622 53.3245 102.622 53.3245 102.622 53.8651C102.73 53.8651 103.054 53.8651 102.73 54.0813C102.189 54.5137 101.541 54.5137 101 54.8381C101 54.7299 101 54.7299 101.541 53.9732C101.432 53.9732 101 54.0813 100.784 53.9732V53.757C100.892 53.5408 100.892 53.5408 100.892 53.4326C100.676 53.4326 100.676 53.4327 100.568 53.2164C100.676 53.1083 100.676 52.5678 100.568 52.2435C100.459 52.3516 100.243 52.4597 100.135 52.3516C100.135 52.3516 100.135 52.3516 100.027 52.1354C100.027 51.9191 100.027 51.9191 100.027 51.9191C99.9189 52.2435 99.9189 52.2435 99.9189 52.2435C99.9189 52.2435 99.9189 52.2435 99.8108 51.811C99.7027 52.1354 99.7027 52.1354 99.7027 52.0272C99.5946 51.811 99.8108 51.7029 99.8108 51.5948C99.8108 51.5948 99.8108 51.5948 99.7027 51.7029C99.7027 51.811 99.7027 51.811 99.7027 51.811C99.5946 51.7029 99.5946 51.4867 99.5946 51.3786C99.5946 51.4867 99.5946 51.5948 99.4865 51.7029C99.3784 51.5948 99.3784 51.3786 99.2703 51.1624C99.8108 50.9462 99.5946 50.4056 99.8108 50.0813H99.9189C100.027 50.2975 99.9189 50.8381 99.9189 50.8381C100.027 50.8381 100.027 50.8381 100.135 50.7299C100.243 50.6218 100.351 50.6218 100.459 50.7299C100.459 50.7299 101.865 52.6759 101.973 52.784C102.405 53.1083 102.622 53.0002 102.622 53.2164Z" fill="white"/>
<path d="M103.378 42.4055C103.378 42.5136 103.486 42.5136 103.378 42.4055V42.4055Z" fill="white"/>
<path d="M105.865 43.3784C105.865 43.3784 105.757 43.3785 105.648 43.2703C105.432 43.1622 105.324 43.1622 105.216 43.1622C105.216 43.1622 105.324 43.1622 105.648 43.2703C105.648 43.2703 105.757 43.3784 105.865 43.3784ZM105.216 43.1622C105.216 43.2703 105.216 43.2703 105.648 43.4866C106.513 43.919 106.513 44.0271 106.513 44.1352C106.513 44.1352 106.405 44.1352 106.189 44.1352C106.189 44.0271 105.54 43.5947 104.459 43.0541C104.892 43.1622 105 43.1622 105.216 43.1622ZM105.973 41.7568C104.892 41.1082 103.811 40.5676 102.621 40.1352C102.513 40.1352 102.405 40.1352 102.297 40.0271C102.513 40.2433 102.73 40.4595 102.946 40.6757C102.838 40.6757 102.73 40.5676 102.621 40.5676C102.838 40.7839 103.162 40.892 103.486 41.1082C102.081 40.4595 102.081 40.4595 101.865 40.3514C101.757 40.3514 101.757 40.4595 101.648 40.5676C102.621 41.7568 102.621 41.7568 103.162 41.8649C103.378 42.1893 103.378 42.1893 103.919 42.2974C103.811 42.2974 103.703 42.4055 103.594 42.4055C103.703 42.4055 103.811 42.5136 103.919 42.5136C103.919 42.6217 104.027 42.6217 104.027 42.6217C103.919 42.6217 103.811 42.5136 103.703 42.5136C103.919 42.6217 104.135 42.7298 104.243 42.8379C103.486 42.5136 103.486 42.5136 103.054 42.4055C103.703 42.946 104.135 43.1622 104.567 43.2703C104.784 43.3785 105 43.4866 105.216 43.4866C105 43.5947 104.567 43.5947 104.351 43.5947C104.567 43.7028 104.784 43.8109 105 43.919C104.892 43.919 104.784 43.919 104.675 43.8109C104.784 44.1352 104.676 44.4595 104.784 44.7839C104.676 44.892 104.675 44.892 104.567 45.0001C104.459 44.892 104.135 44.7839 104.027 44.6757C104.351 44.892 104.675 45.0001 104.892 45.2163C104.892 45.3244 104.892 45.4325 104.892 45.5406C105 45.6487 105.216 45.8649 105.324 45.973C105.216 45.973 105.108 45.973 105 45.973C105.108 46.0812 105.216 46.1893 105.216 46.1893C104.784 46.1893 104.784 46.1893 103.811 45.6487C103.919 45.5406 104.135 45.3244 104.351 45.3244C104.027 44.5676 102.405 44.6757 102.189 44.7839C102.081 44.6757 101.757 44.5676 101.648 44.5676C101.648 44.6757 101.648 44.6757 101.648 44.6757L101.54 44.4595L101.432 44.6757C101.324 44.6757 101.216 44.6757 101.108 44.6757C100.892 45.3244 100.892 45.3244 101 45.6487C100.892 45.7568 100.784 45.7568 100.784 45.8649C100.784 45.973 100.784 46.0812 100.892 46.1893C101 46.1893 101.216 46.2974 101.432 46.2974C101.865 47.1622 101.216 48.2433 101.648 49.1082C101.757 49.4325 102.405 50.4055 103.27 49.973C103.27 49.8649 103.27 49.6487 103.27 49.5406C104.027 50.1893 104.135 50.2974 104.675 51.3785C104.784 51.3785 105 51.3785 105.108 51.3785C105.432 49.5406 103.162 48.6757 103.594 46.8379C104.135 48.892 105.432 48.4595 105.865 48.2433C105.757 48.4595 105.54 48.6757 105.432 48.892C105.432 49.1082 105.648 49.3244 105.757 49.4325C105.757 49.3244 105.865 49.2163 105.865 49.1082C106.081 49.2163 106.189 49.4325 106.405 49.5406C106.081 51.2703 106.081 51.2703 105.757 51.5947C105.757 51.5947 105 52.0271 104.567 51.4866C104.135 50.946 104.135 50.1893 103.378 49.8649C103.486 50.1893 103.486 50.2974 104.351 51.7028C104.243 52.0271 103.919 52.892 102.73 54.1893C102.73 54.6217 102.73 54.7298 102.189 55.1622C102.73 55.919 103.703 56.2433 103.811 57.2163C103.162 57.8649 101.973 57.5406 101.54 58.6217C101.432 58.946 101.432 59.0541 102.081 61.8649C103.054 61.8649 106.081 61.973 105.108 59.919C104.675 59.0541 105.865 57.3244 106.513 56.892C107.486 56.2433 109.865 59.2703 109.757 59.2703C109.54 59.4866 109.432 59.8109 109.973 60.3514C110.838 60.0271 110.405 58.0812 110.405 58.0812C110.513 58.0812 110.621 58.0812 110.73 58.1893C109.865 57.2163 108.135 57.2163 107.703 55.7028C108.027 55.5947 108.135 55.5947 108.567 56.0271C108.784 56.2433 111.919 58.7298 112.892 58.946C112.892 58.946 112.892 58.946 112.892 58.8379C112.892 58.6217 112.892 58.6217 111.811 57.5406C111.811 57.1082 111.811 57.1082 112.351 56.892C112.459 56.892 112.567 57.0001 112.675 57.1082C112.784 57.7568 112.784 57.7568 113.108 57.973C113.108 58.0812 113.108 58.1893 113.216 58.2974C113.757 58.4055 113.865 58.8379 113.973 59.1622C113.973 59.0541 114.081 58.946 114.081 58.8379C114.189 58.946 114.297 59.1622 114.405 59.2703C114.405 59.1622 114.297 59.0541 114.297 58.946C115.27 59.0541 115.594 58.5136 115.811 58.2974C117.216 60.1352 116.784 61.1082 116.567 61.4325C115.703 62.8379 114.081 62.0812 113 62.8379C113 62.946 113 63.1622 113 63.2703C112.135 62.8379 112.135 62.8379 110.081 62.2974C109.757 62.1893 109.648 61.973 109.648 61.1082C109.54 60.0271 109 60.0271 108.784 60.0271C107.378 60.1352 102.73 63.919 102.73 63.919C100.567 66.1893 98.5133 74.946 99.7025 76.892C103.378 83.0541 105 82.0811 108.135 80.5676C111.378 78.8379 112.459 81.0001 112.567 81.2163L113 88.892C112.567 91.3784 112.567 91.3784 109.648 99.1622C109.757 99.2703 109.865 99.2703 109.865 99.3784C117.324 96.3514 123.811 80.5676 123.27 70.946C122.946 71.0541 122.946 71.0541 122.081 71.8109C121.324 68.1352 118.513 65.5406 116.892 62.1893C117.324 62.7298 117.324 62.7298 117.54 63.0541C117.648 62.8379 117.648 62.6217 117.54 62.4055C118.405 63.7028 121.432 67.919 122.189 70.6217C123.054 65.1082 123.054 65.1082 122.405 62.8379C121.54 61.7568 121.54 61.5406 121.324 61.2163C121.324 61.8649 121.54 62.4055 121.432 63.0541C121.216 62.7298 121.108 62.2974 120.892 61.8649C120.892 61.973 120.892 62.0812 120.892 62.2974C120.567 61.8649 119.811 61.0001 119.594 60.2433C119.703 60.2433 119.811 60.2433 119.919 60.2433C120.784 61.2163 120.784 61.2163 121.108 61.3244C121.108 61.1082 121.216 60.892 121.216 60.7839C122.189 61.0001 122.297 61.2163 122.621 62.0812C122.513 61.6487 122.297 61.0001 122.189 60.5676C120.892 57.2163 120.784 57.0001 119.811 55.1622C117.973 52.0271 117.865 51.919 116.567 50.2974C114.405 47.7028 114.189 47.4866 112.567 45.973C110.621 44.892 109 43.4866 105.973 41.7568Z" fill="white"/>
<path d="M65 100.5C67.3333 86.3333 79.1 57.5 105.5 57.5" stroke="#004C45" stroke-width="2" stroke-dasharray="4 4"/>
<path d="M103.347 54.1577L105.653 60.8422" stroke="#004C45" stroke-width="2"/>
<path d="M100.759 58.167L108.449 56.6254" stroke="#004C45" stroke-width="2"/>
<path d="M146 33C148.761 33 151 30.7622 151 28C151 25.239 148.761 23 146 23C143.239 23 141 25.239 141 28C141 30.7622 143.239 33 146 33Z" fill="#B7CDC4"/>
<path d="M154 13C155.657 13 157 11.6565 157 10C157 8.34254 155.657 7 154 7C152.344 7 151 8.34254 151 10C151 11.6565 152.344 13 154 13Z" fill="#B7CDC4"/>
<path d="M38 20C39.6575 20 41 18.6575 41 17C41 15.3436 39.6575 14 38 14C36.3436 14 35 15.3436 35 17C35 18.6575 36.3436 20 38 20Z" fill="#B7CDC4"/>
<path d="M9 93C12.3138 93 15 90.3115 15 87C15 83.6885 12.3138 81 9 81C5.68615 81 3 83.6885 3 87C3 90.3115 5.68615 93 9 93Z" fill="#B7CDC4"/>
</svg>
