<svg width="160" height="140" viewBox="0 0 160 140" fill="none" xmlns="http://www.w3.org/2000/svg">
<path d="M87 133C120.136 133 147 106.189 147 73.0006C147 39.8108 120.018 13 87 13C53.8639 13 27 39.8108 27 73.0006C27 106.189 53.8639 133 87 133Z" fill="#B7CDC4"/>
<path d="M88.2429 37C68.351 37 52.1348 53.1081 52.1348 73C52.1348 92.8919 68.2429 109 88.1348 109C108.027 109 124.135 92.8919 124.135 73C124.243 53.2162 108.135 37 88.2429 37Z" fill="#FFB673"/>
<path d="M119.811 61.8649C118.081 52.892 113 45.7568 105.865 41.7568C108.243 43.2703 109.865 44.1352 112.567 46.6217C114.946 49.0001 115.162 49.2163 116.567 50.946C118.621 53.7568 118.73 53.9731 119.811 55.8109C121.432 59.0541 121.432 59.1622 122.189 61.2163L122.73 62.946L122.838 63.3785C123.919 67.919 123.378 69.1082 123.378 69.1082C122.946 67.5947 123.162 65.8649 122.622 64.3514C122.189 62.7298 121.324 61.3244 120.784 59.8109V59.919C120.459 59.8109 120.135 59.1622 120.135 59.1622C120.243 60.1352 120.351 61.2163 119.919 61.8649C120.027 61.8649 119.919 61.8649 119.811 61.8649Z" fill="white"/>
<path d="M75.8106 78.946C75.8106 79.1622 75.5944 79.1622 75.3781 79.1622L75.27 79.0541C75.3781 78.946 75.8106 78.946 75.8106 78.946Z" fill="white"/>
<path d="M67.8104 79.2704C67.5941 79.1623 67.486 79.0542 67.3779 79.0542C67.486 79.0542 67.5941 78.946 67.7022 78.946C67.7022 78.946 67.8104 78.9461 67.8104 79.0542C67.8104 79.1623 67.8104 79.2704 67.8104 79.2704Z" fill="white"/>
<path d="M84.6752 53.7567C84.5671 53.7567 84.5671 53.8648 84.5671 53.8648C84.5671 53.7567 84.5671 53.7567 84.6752 53.7567ZM68.2428 49.2162L68.1347 49.3243C68.1347 49.3243 68.1347 49.2162 68.2428 49.2162ZM80.9996 48.3513C80.8915 48.3513 80.8915 48.3513 80.8915 48.2432L80.7833 48.1351L80.6752 48.027C80.7833 48.1351 80.8915 48.1351 80.9996 48.3513ZM80.2428 47.3784C80.1347 47.2702 80.2428 47.2702 80.2428 47.3784V47.3784ZM81.9725 47.054C81.8644 47.054 81.7563 47.2702 81.6482 47.3784C81.7563 47.054 81.8644 47.054 81.9725 47.054C82.0806 47.054 82.0806 47.054 81.9725 47.054ZM86.7293 48.3513C86.6212 48.1351 86.6212 48.1351 85.9725 47.4865C86.0806 47.3784 86.1888 47.2702 86.2969 47.2702L86.1887 47.1621C86.2969 47.1621 86.2969 47.1621 86.405 47.1621C86.1888 46.9459 86.0807 46.6216 85.8644 46.5135C85.8644 46.5135 85.7563 46.5135 85.6482 46.6216C85.5401 46.4054 85.5401 46.0811 85.3239 45.8648C85.2158 45.8648 85.1077 45.8648 84.9996 45.9729C84.9996 46.0811 84.9996 46.0811 84.9996 46.1892C85.1077 46.1892 85.1077 46.1892 85.2158 46.1892C85.1077 46.2973 84.8915 46.2973 84.6752 46.4054C84.9996 46.0811 84.9996 46.0811 84.9996 45.8648C84.8914 45.8648 84.3509 45.8648 83.7023 46.4054L83.8104 46.5135C83.8104 46.5135 83.7023 46.5135 83.7023 46.6216C83.7023 46.5135 83.7023 46.5135 83.7023 46.4054C84.0266 46.0811 84.1347 46.0811 84.459 45.7567C84.3509 45.7567 84.3509 45.7567 84.2428 45.6486C83.9185 45.7567 83.2698 45.9729 82.8374 46.4054C82.9455 46.4054 82.9455 46.4054 83.0536 46.5135C82.9455 46.5135 82.9455 46.5135 82.8374 46.5135C82.8374 46.5135 82.7293 46.6216 82.7293 46.7297C82.8374 46.8378 82.9455 46.9459 83.5942 47.054L83.486 47.1621C82.9455 47.4865 82.7293 47.5946 82.2969 47.7027L82.405 47.5946C82.2969 47.7027 82.0806 47.8108 81.9725 47.9189L81.8644 47.8108C82.2969 47.4865 82.2969 47.4865 82.405 47.2702C82.2969 47.2702 82.2968 47.2702 82.1887 47.2702L82.0807 47.1621C81.9725 47.1621 81.9725 47.1621 81.8644 47.1621C82.405 46.7297 82.405 46.7297 82.2969 46.4054C83.0536 46.1892 83.2698 46.1892 83.486 45.9729C83.486 45.9729 81.432 46.2973 81.2158 47.054C81.3239 47.054 81.3239 47.054 81.432 47.1621C80.9996 47.5946 80.3509 47.9189 80.3509 47.9189C80.459 47.8108 80.5671 47.7027 80.6752 47.5946L80.5671 47.4865C80.8914 47.3784 80.9996 47.3784 81.2158 47.2702C81.2158 47.2702 81.2158 47.1621 81.1077 47.054C80.5671 47.054 80.459 47.1621 80.2428 47.2702C80.3509 47.2702 80.3509 47.2702 80.459 47.2702C79.7023 47.8108 79.3779 47.4865 79.1617 47.3784C79.1617 47.3784 79.2698 47.2702 79.2698 47.1621C78.9455 46.8378 78.6212 46.9459 78.5131 47.054C78.2969 47.3784 78.2969 47.3784 78.0806 47.5946C78.1887 47.4865 78.2968 47.2702 78.405 47.1621C77.5401 47.1621 77.5401 47.1621 77.432 47.1621C77.5401 47.054 77.6482 47.054 77.7563 47.054C77.7563 46.9459 77.8644 46.9459 77.8644 46.8378C77.8644 46.7297 77.8644 46.7297 77.7563 46.6216C77.432 46.5135 77.1077 46.5135 76.8914 46.2973L77.2158 46.1892C76.9996 46.1892 76.9996 46.1892 76.6752 46.2973C76.7834 46.1892 76.8915 46.0811 76.9996 45.9729V45.8648C76.5671 46.0811 76.3509 46.1892 74.1887 45C73.5401 44.5675 72.9996 44.3513 72.5671 44.4594C71.8104 44.5675 71.5941 45.3243 70.8374 45.4324L70.9455 45.3243C70.405 45.1081 70.1888 45.2162 70.0806 45.3243C70.0806 45.4324 70.0806 45.4324 70.0806 45.4324C69.7563 45.5405 69.7563 45.5405 69.6482 45.7567C69.7563 45.8648 69.8644 45.8648 69.9725 45.8648C67.8104 46.2973 67.8104 46.2973 67.1617 46.8378C67.2698 46.8378 67.486 46.8378 67.5941 46.7297C67.2698 46.8378 67.0536 46.9459 66.7293 47.1621C66.8374 47.2702 66.9455 47.3784 67.0536 47.3784C66.8374 47.4865 66.8374 47.4865 64.5671 48.027C64.6752 48.1351 64.8915 48.2432 66.7293 48.027C66.405 48.1351 66.2969 48.1351 66.0806 48.2432C66.5131 48.3513 66.9455 48.1351 67.0536 48.027C66.9455 48.027 66.8374 48.027 66.8374 48.027C68.3509 46.8378 68.3509 46.8378 68.6752 46.8378C67.8104 47.1621 67.8104 47.1621 67.7023 47.1621C68.0266 47.054 68.459 47.2702 68.7833 47.2702C68.7833 47.2702 68.7833 47.2702 68.6752 47.3784C68.7833 47.3784 68.7833 47.3784 68.8915 47.3784C68.8915 47.4865 68.7833 47.5946 68.6752 47.7027C69.1077 47.7027 69.1077 47.7027 69.2158 47.9189C68.7833 48.8919 67.8104 49.3243 67.2698 50.0811C67.5942 49.9729 67.5942 49.9729 68.0266 49.6486C67.5942 50.0811 66.405 51.3784 65.9725 52.027C65.9725 51.9189 65.9725 51.9189 65.9725 51.8108C65.9725 51.8108 65.8644 51.8108 65.7563 51.8108C60.0266 58.2973 60.0266 58.2973 59.486 60.7838C58.9455 63.054 58.9455 63.2702 58.6212 63.3784C58.7293 63.5946 58.7293 63.7027 58.5131 64.5675C58.2969 66.2973 58.1888 67.054 58.405 67.1621C59.1617 65.4324 58.7293 63.3784 59.8104 61.7567C60.0266 61.9729 60.0266 62.0811 59.7023 62.8378C59.2698 63.5946 58.8374 68.4594 59.8104 71.2702C59.9185 71.5946 60.1347 71.8108 60.3509 72.1351C61.3239 73.4324 61.3239 73.4324 64.2428 75.4865C65.6482 76.4594 64.3509 78.5135 65.7563 79.4865C65.8644 79.3783 65.9725 79.2702 66.0806 79.1621C66.1887 79.1621 66.1888 79.2702 66.2969 79.2702C66.2969 79.2702 66.2969 79.3783 66.405 79.4865L66.2969 79.5946C66.2969 79.5946 66.2969 79.7027 66.2969 79.8108L66.405 79.9189C66.7293 79.8108 66.9455 79.5946 67.2698 79.4865C66.9455 78.6216 66.2968 77.9729 65.9725 77.2162C65.7563 76.4594 66.0806 75.5946 65.6482 74.8378C65.3239 74.2973 64.6752 74.1892 64.2428 73.8648C64.2428 73.8648 65.9725 71.054 65.6482 70.5135C64.5671 70.4054 64.5671 72.1351 63.486 71.9189C63.486 71.9189 62.1887 71.4865 62.0806 69.7567C62.0806 69.5405 64.459 65.4324 65.5401 65C66.0806 64.7838 66.405 65 66.6212 65.7567H66.8374C67.1617 65.5405 67.5942 65.3243 67.9185 65.1081C68.5671 65.8648 68.5671 65.8648 68.9996 69.1081C69.1077 69.1081 69.2158 69 69.3239 69C69.9725 67.7027 70.0806 66.2973 70.9455 65.1081C71.5941 64.2432 72.7834 64.1351 73.432 63.2702C73.9725 62.6216 73.9725 61.7567 74.6212 61.2162C74.6212 61.2162 74.7293 61.2162 74.8374 61.1081C74.2969 61.9729 74.1887 62.0811 74.0806 62.4054C74.405 62.1892 74.405 62.1892 74.9455 61.2162C74.9455 61.3243 74.9455 61.3243 74.9455 61.4324C75.3779 60.8919 76.0266 60.5675 76.2428 60.3513C76.3509 60.3513 76.5671 60.2432 76.6752 60.3513C76.7834 60.2432 76.8915 60.2432 76.9996 60.1351L77.1077 60.2432C77.5401 60.1351 77.5401 60.1351 77.6482 60.027C77.6482 59.9189 77.6482 59.9189 77.6482 59.8108L77.5401 59.9189L77.432 59.8108C77.5401 59.5946 77.5401 59.5946 78.8374 58.7297L78.7293 58.8378C79.1617 58.7297 80.2428 58.2973 80.5671 58.1892L80.459 58.2973C80.5671 58.2973 80.5671 58.2973 80.6752 58.4054C79.7023 59.054 79.7023 59.054 79.7023 59.2702C80.5671 59.1621 82.1888 58.0811 82.5131 57.6486C82.1888 57.5405 81.9725 57.5405 81.5401 57.7567C81.432 57.6486 81.432 57.6486 81.3239 57C80.9996 57 80.8914 57 80.6752 56.8919C80.8914 56.8919 81.2158 57 81.7563 56.4594L81.6482 56.3513C80.8914 56.4594 79.486 57.1081 79.0536 57.3243C81.1077 56.027 86.405 56.7838 85.2158 53.5405C85.1077 53.5405 84.8915 53.4324 84.7834 53.4324C84.3509 52.5675 85.3239 51.8108 84.8914 50.9459C84.5671 51.2702 83.9185 51.8108 83.486 51.9189C83.486 51.8108 83.486 51.8108 83.486 51.7027C83.486 51.2702 83.5942 51.1621 83.7023 50.8378C83.7023 50.7297 83.5942 50.6216 83.486 50.6216C83.486 50.5135 83.5942 50.5135 83.5942 50.4054C82.7293 49.2162 81.8644 50.5135 81.3239 51.2702C79.5942 53.8648 77.7563 54.8378 77.7563 54.8378C77.7563 54.7297 77.6482 54.7297 77.6482 54.6216C77.8644 53.8648 78.405 53.2162 78.6212 53V52.8919C78.1887 52.4594 77.432 51.9189 76.9996 51.8108C77.3239 51.3784 77.432 51.3784 77.5401 51.1621L77.432 51.054C77.432 51.054 77.432 50.9459 77.432 50.8378C78.1887 50.2973 79.5941 49.4324 80.1347 49.3243C80.0266 49.3243 79.9185 49.2162 79.8104 49.1081C80.2428 49.2162 80.2428 49.2162 82.0807 48.5675C81.6482 48.8919 81.3239 49.2162 80.8915 49.4324C82.1888 49.6486 82.1887 49.6486 82.405 49.5405C82.2969 49.4324 82.2969 49.4324 82.2969 48.5675C82.2969 48.5675 82.1888 48.6757 82.0807 48.6757C82.0807 48.5675 82.0807 48.4594 82.0807 48.3513C82.0807 48.3513 82.1887 48.4594 82.2969 48.4594C82.2969 48.5675 82.2969 48.5675 82.2969 48.6757C82.8374 48.2432 83.7022 48.1351 83.8104 47.2702C84.3509 47.3784 84.5671 47.3784 84.6752 46.9459C84.6752 47.054 84.7834 47.2702 84.7834 47.3784L84.6752 47.4865C84.6752 47.4865 84.7834 47.5946 84.7834 47.7027C84.8915 47.7027 84.8914 47.7027 84.9996 47.7027C84.8914 47.8108 84.8915 47.9189 84.7834 48.027C84.8915 48.027 84.9996 47.9189 85.1077 47.8108C85.1077 47.9189 85.1077 48.027 85.1077 48.027C84.8915 48.3513 84.5671 48.5675 84.3509 48.8919C83.2698 49 83.2698 49 83.1617 49.1081C84.1347 49.1081 84.2428 50.4054 85.1077 50.5135C85.1077 50.1892 85.1077 50.1892 84.8914 49.7567C85.1077 49.8648 85.2158 50.2973 85.5401 50.4054C85.5401 50.1892 85.6482 49.9729 85.6482 49.8648L85.7563 49.973C85.7563 49.2162 85.7563 49.2162 85.6482 49C85.6482 48.3513 86.2969 48.6757 86.7293 48.3513Z" fill="white"/>
<path d="M66.6216 65.7567C66.5135 65.6486 66.5135 65.5405 66.6216 65.4324C66.6216 65.5405 66.6216 65.6486 66.6216 65.7567Z" fill="white"/>
<path d="M83.5943 50.4055C83.4862 50.5136 83.5943 50.5136 83.5943 50.4055C83.4862 50.4055 83.4862 50.4055 83.5943 50.4055Z" fill="white"/>
<path d="M71.4863 78.8379C71.3781 78.946 71.3782 79.0541 71.2701 79.1622C71.2701 79.2703 71.1619 79.2703 71.1619 79.3784C71.1619 79.2703 71.4863 78.8379 71.4863 78.8379ZM87.0538 91.0541C87.1619 90.5136 87.4863 89.4325 86.9457 89.1082C85.5403 88.1352 86.0809 88.3514 84.5673 87.8109C84.5673 87.3784 84.5673 87.2703 84.4592 86.946C82.5133 86.5136 82.5133 86.5136 81.9728 87.3784C81.9728 87.2703 79.162 79.2703 77.216 81.5406C77.216 80.3514 75.4863 79.0541 74.9457 78.946C73.216 78.2973 72.1349 77.5406 71.9187 77.4325C71.9187 77.4325 71.9187 77.5406 71.8106 77.5406C71.4863 77.8649 71.4863 77.973 71.1619 78.1892C71.0538 78.0811 71.0538 77.973 71.0538 77.8649C71.4863 77.5406 71.4863 77.5406 71.4863 77.4325C71.3781 77.0001 71.162 77 70.7295 77.1082C69.7565 77.7568 69.3241 78.8379 68.4592 79.4865C68.243 79.3784 68.1349 79.3784 67.9187 79.2703C67.9187 79.4865 67.9187 79.4865 68.243 82.0811C66.0808 82.946 67.3782 87.5946 68.0268 89C68.0268 89 69.5403 91.919 70.6214 93.1082C71.4863 94.0811 72.6754 94.6217 73.5403 95.5946C74.4052 96.4595 74.2971 96.6757 74.2971 97.6487C74.189 98.2973 74.9457 100.351 76.3511 102.514C77.216 103.811 78.4052 104.892 78.4052 104.892C78.4052 104.676 78.4052 104.676 78.0809 104.351H78.189C78.189 104.351 78.7295 104.784 78.9457 105.216C78.8376 105.108 78.7295 105.108 78.6214 105C79.0538 105.541 79.0538 105.541 79.1619 105.757C80.1349 105.865 80.6755 106.622 81.4322 107.162H81.3241C81.7565 107.487 83.9187 107.919 83.9187 107.919C83.9187 107.919 83.9187 107.811 84.0268 107.811C80.9998 106.622 80.9998 105.108 80.9998 105.108C81.1079 105.108 81.216 105.108 81.3241 105.216C81.1079 104.892 80.6755 104.892 80.4592 104.568C81.1079 104.351 81.1079 104.243 81.216 104.027H81.1079C82.0808 103.811 82.0809 103.811 82.2971 103.703C81.5403 102.838 81.5403 102.838 81.4322 102.73C81.4322 102.73 81.4322 102.622 81.3241 102.514C81.3241 102.622 81.4322 102.73 81.4322 102.73C82.4052 103.487 82.9457 101.757 83.8106 101.541C84.1349 100.892 84.243 100.135 84.6755 99.4865C85.216 98.6217 85.3241 98.5136 85.8647 98.1892C87.0538 97.6487 87.0538 91.0541 87.0538 91.0541Z" fill="white"/>
<path d="M89.1075 46.946L88.9994 47.0542C88.8912 47.0542 88.8912 46.946 88.7831 46.946C88.8912 46.946 89.1075 46.946 89.1075 46.946ZM93.7561 45.6487C93.648 45.7569 93.648 45.7569 93.7561 45.865C93.648 45.865 93.648 45.7569 93.5399 45.6487H93.7561ZM87.5939 44.5677C87.4858 44.6758 87.5939 44.6758 87.5939 44.5677C87.4858 44.6758 87.4858 44.6758 87.5939 44.5677ZM94.2966 43.2704C94.2966 43.2704 94.2966 43.1623 94.1885 43.1623C94.0804 43.2704 93.3237 43.1623 93.3237 43.1623C93.3237 43.2704 93.3237 43.2704 93.3237 43.3785H93.2156C93.2156 43.2704 93.2156 43.2704 92.7831 43.2704C92.8912 43.1623 92.9993 43.1623 93.1075 43.0542C92.9993 42.946 92.9994 42.946 91.8102 43.1623C91.9183 43.0541 91.9183 43.0542 91.9183 43.0542C91.9183 42.946 91.8102 42.946 91.7021 42.946C91.3777 43.0542 91.0534 43.1623 90.7291 43.2704C90.621 43.2704 90.621 43.2704 90.5129 43.1623C90.5129 43.3785 90.7291 43.2704 90.8372 43.3785C90.1885 43.2704 90.1886 43.2704 90.1886 43.2704C90.1886 43.2704 90.1885 43.3785 90.2966 43.3785C90.1885 43.3785 90.1885 43.3785 90.0804 43.3785C88.5669 43.4866 88.2426 43.8109 88.1345 43.8109C88.2426 43.8109 88.2426 43.8109 88.3507 43.8109V43.919C87.9183 44.1352 87.3777 43.8109 87.0534 44.3514C87.0534 44.4596 87.0534 44.4596 87.3777 44.5677C87.0534 44.5677 87.0534 44.5677 87.0534 44.6758C87.0534 44.6758 86.9453 44.892 87.1615 45.0001C87.2696 45.1082 87.7021 45.1082 87.9183 45.0001C88.2426 45.0001 88.4588 45.0001 88.5669 45.0001C88.7831 45.1082 88.675 45.3244 88.7831 45.4325C88.5669 45.865 88.7831 45.865 88.7831 45.865C88.675 45.9731 88.675 46.0812 88.5669 46.1893C88.5669 46.1893 88.675 46.1893 88.675 46.0812C88.5669 46.2974 88.3507 46.6217 88.675 46.5136C88.7831 46.5136 88.8912 46.4055 88.8912 46.2974C88.8912 46.5136 88.9994 46.6217 89.1075 46.6217V46.7298C88.9994 46.7298 88.9993 46.7298 88.7831 46.5136C88.5669 46.6217 88.2426 47.1623 88.3507 47.2704C88.3507 47.2704 88.4588 47.3785 88.7831 47.2704C88.2426 48.0271 88.2426 48.0271 88.2426 48.2433H88.3507C87.9183 49.3244 88.2426 49.6487 89.2156 50.8379C90.0804 50.5136 92.0264 48.6758 92.5669 47.4866C93.2156 48.0271 93.9723 47.1623 94.2966 46.7298C94.0804 46.7298 93.8642 46.7298 93.648 46.7298C93.9723 46.6217 94.2967 46.7298 94.5129 46.6217C94.5129 46.5136 94.5129 46.5136 93.7561 45.9731C93.9723 46.0812 94.1885 46.0812 94.1885 45.865C94.1885 45.7569 94.1885 45.7569 93.8642 45.6487C93.9723 45.5406 94.1885 45.5406 94.2966 45.4325H94.1885C94.4047 45.3244 94.4048 45.3244 94.4048 45.2163C94.4048 45.2163 94.4047 45.2163 94.1885 45.1082C94.2966 44.7839 93.8642 44.7839 93.8642 44.5677C93.9723 44.5677 94.1885 44.6758 94.2966 44.7839C94.1885 44.4596 94.1885 44.4596 94.1885 44.4596C94.0804 44.3514 93.9723 44.4596 93.8642 44.4596H93.9723C93.7561 44.1352 93.7561 44.2433 93.648 44.4596C93.5399 44.1352 93.5399 44.0271 93.9723 43.8109C94.1886 43.4866 94.2966 43.3785 94.2966 43.2704Z" fill="white"/>
<path d="M102.621 53.2164C102.621 53.3245 102.621 53.3245 102.621 53.8651C102.729 53.8651 103.054 53.8651 102.729 54.0813C102.189 54.5137 101.54 54.5137 101 54.8381C101 54.7299 101 54.7299 101.54 53.9732C101.432 53.9732 101 54.0813 100.784 53.9732V53.757C100.892 53.5408 100.892 53.5408 100.892 53.4326C100.675 53.4326 100.675 53.4327 100.567 53.2164C100.675 53.1083 100.675 52.5678 100.567 52.2435C100.459 52.3516 100.243 52.4597 100.135 52.3516C100.135 52.3516 100.135 52.3516 100.027 52.1354C100.027 51.9191 100.027 51.9191 100.027 51.9191C99.9186 52.2435 99.9187 52.2435 99.9187 52.2435C99.9187 52.2435 99.9187 52.2435 99.8106 51.811C99.7025 52.1354 99.7024 52.1354 99.7024 52.0272C99.5943 51.811 99.8106 51.7029 99.8106 51.5948C99.8106 51.5948 99.8106 51.5948 99.7024 51.7029C99.7024 51.811 99.7024 51.811 99.7024 51.811C99.5943 51.7029 99.5943 51.4867 99.5943 51.3786C99.5943 51.4867 99.5943 51.5948 99.4862 51.7029C99.3781 51.5948 99.3781 51.3786 99.27 51.1624C99.8106 50.9462 99.5943 50.4056 99.8106 50.0813H99.9187C100.027 50.2975 99.9187 50.8381 99.9187 50.8381C100.027 50.8381 100.027 50.8381 100.135 50.7299C100.243 50.6218 100.351 50.6218 100.459 50.7299C100.459 50.7299 101.865 52.6759 101.973 52.784C102.405 53.1083 102.621 53.0002 102.621 53.2164Z" fill="white"/>
<path d="M103.378 42.4055C103.378 42.5136 103.486 42.5136 103.378 42.4055V42.4055Z" fill="white"/>
<path d="M105.865 43.3784C105.865 43.3784 105.757 43.3785 105.648 43.2703C105.432 43.1622 105.324 43.1622 105.216 43.1622C105.216 43.1622 105.324 43.1622 105.648 43.2703C105.648 43.2703 105.757 43.3784 105.865 43.3784ZM105.216 43.1622C105.216 43.2703 105.216 43.2703 105.648 43.4866C106.513 43.919 106.513 44.0271 106.513 44.1352C106.513 44.1352 106.405 44.1352 106.189 44.1352C106.189 44.0271 105.54 43.5947 104.459 43.0541C104.892 43.1622 105 43.1622 105.216 43.1622ZM105.973 41.7568C104.892 41.1082 103.811 40.5676 102.621 40.1352C102.513 40.1352 102.405 40.1352 102.297 40.0271C102.513 40.2433 102.73 40.4595 102.946 40.6757C102.838 40.6757 102.73 40.5676 102.621 40.5676C102.838 40.7839 103.162 40.892 103.486 41.1082C102.081 40.4595 102.081 40.4595 101.865 40.3514C101.757 40.3514 101.757 40.4595 101.648 40.5676C102.621 41.7568 102.621 41.7568 103.162 41.8649C103.378 42.1893 103.378 42.1893 103.919 42.2974C103.811 42.2974 103.703 42.4055 103.594 42.4055C103.703 42.4055 103.811 42.5136 103.919 42.5136C103.919 42.6217 104.027 42.6217 104.027 42.6217C103.919 42.6217 103.811 42.5136 103.703 42.5136C103.919 42.6217 104.135 42.7298 104.243 42.8379C103.486 42.5136 103.486 42.5136 103.054 42.4055C103.703 42.946 104.135 43.1622 104.567 43.2703C104.784 43.3785 105 43.4866 105.216 43.4866C105 43.5947 104.567 43.5947 104.351 43.5947C104.567 43.7028 104.784 43.8109 105 43.919C104.892 43.919 104.784 43.919 104.675 43.8109C104.784 44.1352 104.676 44.4595 104.784 44.7839C104.676 44.892 104.675 44.892 104.567 45.0001C104.459 44.892 104.135 44.7839 104.027 44.6757C104.351 44.892 104.675 45.0001 104.892 45.2163C104.892 45.3244 104.892 45.4325 104.892 45.5406C105 45.6487 105.216 45.8649 105.324 45.973C105.216 45.973 105.108 45.973 105 45.973C105.108 46.0812 105.216 46.1893 105.216 46.1893C104.784 46.1893 104.784 46.1893 103.811 45.6487C103.919 45.5406 104.135 45.3244 104.351 45.3244C104.027 44.5676 102.405 44.6757 102.189 44.7839C102.081 44.6757 101.757 44.5676 101.648 44.5676C101.648 44.6757 101.648 44.6757 101.648 44.6757L101.54 44.4595L101.432 44.6757C101.324 44.6757 101.216 44.6757 101.108 44.6757C100.892 45.3244 100.892 45.3244 101 45.6487C100.892 45.7568 100.784 45.7568 100.784 45.8649C100.784 45.973 100.784 46.0812 100.892 46.1893C101 46.1893 101.216 46.2974 101.432 46.2974C101.865 47.1622 101.216 48.2433 101.648 49.1082C101.757 49.4325 102.405 50.4055 103.27 49.973C103.27 49.8649 103.27 49.6487 103.27 49.5406C104.027 50.1893 104.135 50.2974 104.675 51.3785C104.784 51.3785 105 51.3785 105.108 51.3785C105.432 49.5406 103.162 48.6757 103.594 46.8379C104.135 48.892 105.432 48.4595 105.865 48.2433C105.757 48.4595 105.54 48.6757 105.432 48.892C105.432 49.1082 105.648 49.3244 105.757 49.4325C105.757 49.3244 105.865 49.2163 105.865 49.1082C106.081 49.2163 106.189 49.4325 106.405 49.5406C106.081 51.2703 106.081 51.2703 105.757 51.5947C105.757 51.5947 105 52.0271 104.567 51.4866C104.135 50.946 104.135 50.1893 103.378 49.8649C103.486 50.1893 103.486 50.2974 104.351 51.7028C104.243 52.0271 103.919 52.892 102.73 54.1893C102.73 54.6217 102.73 54.7298 102.189 55.1622C102.73 55.919 103.703 56.2433 103.811 57.2163C103.162 57.8649 101.973 57.5406 101.54 58.6217C101.432 58.946 101.432 59.0541 102.081 61.8649C103.054 61.8649 106.081 61.973 105.108 59.919C104.675 59.0541 105.865 57.3244 106.513 56.892C107.486 56.2433 109.865 59.2703 109.757 59.2703C109.54 59.4866 109.432 59.8109 109.973 60.3514C110.838 60.0271 110.405 58.0812 110.405 58.0812C110.513 58.0812 110.621 58.0812 110.73 58.1893C109.865 57.2163 108.135 57.2163 107.703 55.7028C108.027 55.5947 108.135 55.5947 108.567 56.0271C108.784 56.2433 111.919 58.7298 112.892 58.946C112.892 58.946 112.892 58.946 112.892 58.8379C112.892 58.6217 112.892 58.6217 111.811 57.5406C111.811 57.1082 111.811 57.1082 112.351 56.892C112.459 56.892 112.567 57.0001 112.675 57.1082C112.784 57.7568 112.784 57.7568 113.108 57.973C113.108 58.0812 113.108 58.1893 113.216 58.2974C113.757 58.4055 113.865 58.8379 113.973 59.1622C113.973 59.0541 114.081 58.946 114.081 58.8379C114.189 58.946 114.297 59.1622 114.405 59.2703C114.405 59.1622 114.297 59.0541 114.297 58.946C115.27 59.0541 115.594 58.5136 115.811 58.2974C117.216 60.1352 116.784 61.1082 116.567 61.4325C115.703 62.8379 114.081 62.0812 113 62.8379C113 62.946 113 63.1622 113 63.2703C112.135 62.8379 112.135 62.8379 110.081 62.2974C109.757 62.1893 109.648 61.973 109.648 61.1082C109.54 60.0271 109 60.0271 108.784 60.0271C107.378 60.1352 102.73 63.919 102.73 63.919C100.567 66.1893 98.5133 74.946 99.7025 76.892C103.378 83.0541 105 82.0811 108.135 80.5676C111.378 78.8379 112.459 81.0001 112.567 81.2163L113 88.892C112.567 91.3784 112.567 91.3784 109.648 99.1622C109.757 99.2703 109.865 99.2703 109.865 99.3784C117.324 96.3514 123.811 80.5676 123.27 70.946C122.946 71.0541 122.946 71.0541 122.081 71.8109C121.324 68.1352 118.513 65.5406 116.892 62.1893C117.324 62.7298 117.324 62.7298 117.54 63.0541C117.648 62.8379 117.648 62.6217 117.54 62.4055C118.405 63.7028 121.432 67.919 122.189 70.6217C123.054 65.1082 123.054 65.1082 122.405 62.8379C121.54 61.7568 121.54 61.5406 121.324 61.2163C121.324 61.8649 121.54 62.4055 121.432 63.0541C121.216 62.7298 121.108 62.2974 120.892 61.8649C120.892 61.973 120.892 62.0812 120.892 62.2974C120.567 61.8649 119.811 61.0001 119.594 60.2433C119.703 60.2433 119.811 60.2433 119.919 60.2433C120.784 61.2163 120.784 61.2163 121.108 61.3244C121.108 61.1082 121.216 60.892 121.216 60.7839C122.189 61.0001 122.297 61.2163 122.621 62.0812C122.513 61.6487 122.297 61.0001 122.189 60.5676C120.892 57.2163 120.784 57.0001 119.811 55.1622C117.973 52.0271 117.865 51.919 116.567 50.2974C114.405 47.7028 114.189 47.4866 112.567 45.973C110.621 44.892 109 43.4866 105.973 41.7568Z" fill="white"/>
<path d="M146 33C148.761 33 151 30.7622 151 28C151 25.239 148.761 23 146 23C143.239 23 141 25.239 141 28C141 30.7622 143.239 33 146 33Z" fill="#B7CDC4"/>
<path d="M154 13C155.657 13 157 11.6565 157 10C157 8.34254 155.657 7 154 7C152.344 7 151 8.34254 151 10C151 11.6565 152.344 13 154 13Z" fill="#B7CDC4"/>
<path d="M38 20C39.6575 20 41 18.6575 41 17C41 15.3436 39.6575 14 38 14C36.3436 14 35 15.3436 35 17C35 18.6575 36.3436 20 38 20Z" fill="#B7CDC4"/>
<path d="M9 93C12.3138 93 15 90.3115 15 87C15 83.6885 12.3138 81 9 81C5.68615 81 3 83.6885 3 87C3 90.3115 5.68615 93 9 93Z" fill="#B7CDC4"/>
<path d="M65 99.9487C67.3333 85.7821 79.1 56.9487 105.5 56.9487" stroke="#4D2A24" stroke-width="2" stroke-dasharray="4 4"/>
<path d="M105 57C100.667 53.6667 87.9 47.0001 73.5 51.0001" stroke="#4D2A24" stroke-width="2" stroke-dasharray="4 4"/>
<path d="M103.347 53.6064L105.653 60.2909" stroke="#4D2A24" stroke-width="2"/>
<path d="M72.5879 47.6062L74.894 54.2907" stroke="#4D2A24" stroke-width="2"/>
<path d="M100.759 57.6157L108.449 56.0741" stroke="#4D2A24" stroke-width="2"/>
<path d="M70 51.6155L77.69 50.0738" stroke="#4D2A24" stroke-width="2"/>
<circle cx="71" cy="49" r="10" fill="#4D2A24" stroke="white" stroke-width="4"/>
<circle cx="71" cy="49" r="4" fill="#FFB673"/>
</svg>
