<svg width="160" height="140" viewBox="0 0 160 140" fill="none" xmlns="http://www.w3.org/2000/svg">
<path fill-rule="evenodd" clip-rule="evenodd" d="M154 13C155.657 13 157 11.6565 157 10C157 8.34254 155.657 7 154 7C152.344 7 151 8.34254 151 10C151 11.6565 152.344 13 154 13ZM146 33C148.761 33 151 30.7622 151 28C151 25.239 148.761 23 146 23C143.239 23 141 25.239 141 28C141 30.7622 143.239 33 146 33ZM41 17C41 18.6575 39.6575 20 38 20C36.3436 20 35 18.6575 35 17C35 15.3436 36.3436 14 38 14C39.6575 14 41 15.3436 41 17ZM9 93C12.3138 93 15 90.3115 15 87C15 83.6885 12.3138 81 9 81C5.68615 81 3 83.6885 3 87C3 90.3115 5.68615 93 9 93ZM147 73.0006C147 106.189 120.136 133 87 133C53.8639 133 27 106.189 27 73.0006C27 39.8108 53.8639 13 87 13C120.018 13 147 39.8108 147 73.0006Z" fill="#B7CDC4"/>
<g clip-path="url(#clip0_2474_12580)">
<path d="M88.4737 96.6981L108.167 93.2257L101.221 53.8348L81.528 57.3072L79.791 47.4561L109.335 42.2466L119.754 101.335L90.2099 106.545L88.4737 96.6981Z" fill="#73D19C"/>
<path d="M69.0621 79.8113C70.6145 88.6156 79.0064 94.4877 87.806 92.9361L82.1866 61.0673C73.3825 62.6197 67.5105 71.0117 69.0621 79.8113Z" fill="#73D19C"/>
<path d="M88.4728 96.6977L68.7753 100.171L61.8296 60.78L81.5271 57.3068L79.7901 47.4556L50.2461 52.665L60.665 111.754L90.209 106.544L88.4728 96.6977Z" fill="#73D19C"/>
<path d="M100.934 74.1911C102.486 82.9954 96.6088 91.3836 87.8093 92.9352L82.1899 61.0664C90.9941 59.514 99.3822 65.3915 100.934 74.1911Z" fill="#73D19C"/>
</g>
<g clip-path="url(#clip1_2474_12580)">
<path d="M90.4737 92.6981L110.167 89.2257L103.221 49.8348L83.528 53.3072L81.791 43.4561L111.335 38.2466L121.754 97.3353L92.2099 102.545L90.4737 92.6981Z" fill="white"/>
<path d="M71.0621 75.8113C72.6145 84.6156 81.0064 90.4877 89.806 88.9361L84.1866 57.0673C75.3825 58.6197 69.5105 67.0117 71.0621 75.8113Z" fill="white"/>
<path d="M90.4728 92.6977L70.7753 96.1709L63.8296 56.78L83.5271 53.3068L81.7901 43.4556L52.2461 48.665L62.665 107.754L92.209 102.544L90.4728 92.6977Z" fill="#004C45"/>
<path d="M102.934 70.1911C104.486 78.9954 98.6088 87.3836 89.8093 88.9352L84.1899 57.0664C92.9941 55.514 101.382 61.3915 102.934 70.1911Z" fill="#004C45"/>
</g>
<defs>
<clipPath id="clip0_2474_12580">
<rect width="64" height="64" fill="white" transform="translate(50.2461 52.665) rotate(-10)"/>
</clipPath>
<clipPath id="clip1_2474_12580">
<rect width="60" height="60" fill="white" transform="translate(52.2461 48.665) rotate(-10)"/>
</clipPath>
</defs>
</svg>
