<svg width="160" height="140" viewBox="0 0 160 140" fill="none" xmlns="http://www.w3.org/2000/svg">
<path d="M146 33C148.761 33 151 30.7622 151 28C151 25.239 148.761 23 146 23C143.239 23 141 25.239 141 28C141 30.7622 143.239 33 146 33Z" fill="#F0C4BC"/>
<path d="M154 13C155.657 13 157 11.6565 157 10C157 8.34254 155.657 7 154 7C152.344 7 151 8.34254 151 10C151 11.6565 152.344 13 154 13Z" fill="#F0C4BC"/>
<path d="M38 20C39.6575 20 41 18.6575 41 17C41 15.3436 39.6575 14 38 14C36.3436 14 35 15.3436 35 17C35 18.6575 36.3436 20 38 20Z" fill="#F0C4BC"/>
<path d="M9 93C12.3138 93 15 90.3115 15 87C15 83.6885 12.3138 81 9 81C5.68615 81 3 83.6885 3 87C3 90.3115 5.68615 93 9 93Z" fill="#F0C4BC"/>
<path d="M87 133C120.136 133 147 106.189 147 73.0006C147 39.8108 120.018 13 87 13C53.8639 13 27 39.8108 27 73.0006C27 106.189 53.8639 133 87 133Z" fill="#F0C4BC"/>
<path d="M101.197 90.0784L88.6274 82.7339C86.082 81.2396 86.3962 78.6165 89.3501 76.8996L100.349 70.4772C103.287 68.7603 107.781 68.5695 110.326 70.0638L122.896 77.4083C125.441 78.9027 125.127 81.5257 122.173 83.2426L111.174 89.6651C108.236 91.382 103.743 91.5727 101.197 90.0784Z" fill="#004C45"/>
<path d="M124.609 79.935V70.9531L86.8992 71.2234V80.253L124.609 79.935Z" fill="#004C45"/>
<path d="M101.197 81.0794L88.6274 73.7349C86.082 72.2406 86.3962 69.6175 89.3501 67.9006L100.349 61.4782C103.287 59.7613 107.781 59.5705 110.326 61.0648L122.896 68.4093C125.441 69.9037 125.127 72.5267 122.173 74.2436L111.174 80.6661C108.236 82.383 103.743 82.5737 101.197 81.0794Z" fill="#73D19C"/>
<path d="M102.092 80.396L89.8212 73.2263C87.7629 72.0341 88.03 69.9197 90.4025 68.5367L101.401 62.1142C103.774 60.7311 107.387 60.5722 109.446 61.7804L121.717 68.95C123.775 70.1423 123.508 72.2566 121.136 73.6397L110.137 80.0621C107.765 81.4452 104.151 81.6042 102.092 80.396Z" fill="white"/>
<path d="M104.01 78.7123L92.6814 72.0991C91.6915 71.5268 91.8172 70.5094 92.9642 69.8417L103.649 63.5941C104.796 62.9264 106.524 62.8628 107.514 63.4351L118.842 70.0484C119.832 70.6207 119.706 71.6381 118.559 72.3058L107.875 78.5534C106.728 79.2211 105 79.2846 104.01 78.7123Z" fill="white"/>
<path d="M103.994 75.1345L98.8091 72.114C97.8192 71.5417 97.9449 70.5243 99.0919 69.8566L103.664 67.1859C104.795 66.5182 106.539 66.4546 107.529 67.0269L112.714 70.0474C113.704 70.6197 113.579 71.6371 112.432 72.3048L107.859 74.9755C106.712 75.6432 104.984 75.7068 103.994 75.1345Z" fill="white"/>
<path d="M101.197 80.1907L88.6274 72.8462C86.082 71.3519 86.3962 68.7288 89.3501 67.0119L100.349 60.5895C103.287 58.8726 107.781 58.6818 110.326 60.1762L122.896 67.5207C125.441 69.015 125.127 71.638 122.173 73.3549L111.174 79.7774C108.236 81.4943 103.743 81.6851 101.197 80.1907Z" fill="#004C45"/>
<path d="M124.609 70.0632V61.0654L86.8992 61.3357V70.3812L124.609 70.0632Z" fill="#004C45"/>
<path d="M101.197 71.2083L88.6274 63.8638C86.082 62.3695 86.3962 59.7464 89.3501 58.0295L100.349 51.6071C103.287 49.8902 107.781 49.6994 110.326 51.1937L122.896 58.5382C125.441 60.0326 125.127 62.6556 122.173 64.3725L111.174 70.795C108.236 72.5119 103.743 72.7026 101.197 71.2083Z" fill="#73D19C"/>
<path d="M102.092 70.5083L89.8212 63.3386C87.7629 62.1464 88.03 60.032 90.4025 58.649L101.401 52.2265C103.774 50.8435 107.387 50.6845 109.446 51.8927L121.717 59.0623C123.775 60.2546 123.508 62.3689 121.136 63.752L110.137 70.1744C107.765 71.5575 104.151 71.7165 102.092 70.5083Z" fill="white"/>
<path d="M104.01 68.8403L92.6814 62.227C91.6915 61.6547 91.8172 60.6373 92.9642 59.9696L103.649 53.722C104.796 53.0544 106.524 52.9908 107.514 53.5631L118.842 60.1763C119.832 60.7486 119.706 61.766 118.559 62.4337L107.875 68.6813C106.728 69.349 105 69.4126 104.01 68.8403Z" fill="white"/>
<path d="M103.994 65.2624L98.8091 62.242C97.8192 61.6697 97.9449 60.6523 99.0919 59.9846L103.664 57.3138C104.795 56.6462 106.539 56.5826 107.529 57.1549L112.714 60.1753C113.704 60.7476 113.579 61.7651 112.432 62.4327L107.859 65.1035C106.712 65.7712 104.984 65.8347 103.994 65.2624Z" fill="white"/>
<path d="M101.197 70.3186L88.6274 62.9741C86.082 61.4798 86.3962 58.8568 89.3501 57.1399L100.349 50.7174C103.287 49.0005 107.781 48.8097 110.326 50.3041L122.896 57.6486C125.441 59.1429 125.127 61.766 122.173 63.4829L111.174 69.9053C108.236 71.6222 103.743 71.813 101.197 70.3186Z" fill="#004C45"/>
<path d="M124.609 60.1912V51.1934L86.8992 51.4636V60.4932L124.609 60.1912Z" fill="#004C45"/>
<path d="M101.197 61.3362L88.6274 53.9917C86.082 52.4974 86.3962 49.8744 89.3501 48.1575L100.349 41.735C103.287 40.0181 107.781 39.8273 110.326 41.3217L122.896 48.6662C125.441 50.1605 125.127 52.7835 122.173 54.5004L111.174 60.9229C108.236 62.6398 103.743 62.8306 101.197 61.3362Z" fill="#73D19C"/>
<path d="M102.092 60.6372L89.8212 53.4675C87.7629 52.2753 88.03 50.1609 90.4025 48.7779L101.401 42.3554C103.774 40.9724 107.387 40.8134 109.446 42.0216L121.717 49.1912C123.775 50.3835 123.508 52.4978 121.136 53.8809L110.137 60.3033C107.765 61.6864 104.151 61.8454 102.092 60.6372Z" fill="#73D19C"/>
<path d="M104.01 58.9682L92.6814 52.355C91.6915 51.7827 91.8172 50.7653 92.9642 50.0976L103.649 43.85C104.796 43.1823 106.524 43.1187 107.514 43.691L118.842 50.3042C119.832 50.8765 119.706 51.894 118.559 52.5616L107.875 58.8092C106.728 59.4769 105 59.5405 104.01 58.9682Z" fill="#004C45"/>
<path d="M103.994 55.3913L98.8091 52.3709C97.8192 51.7986 97.9449 50.7812 99.0919 50.1135L103.664 47.4428C104.795 46.7751 106.539 46.7115 107.529 47.2838L112.714 50.3042C113.704 50.8765 113.579 51.894 112.432 52.5616L107.859 55.2324C106.712 55.9001 104.984 55.9636 103.994 55.3913Z" fill="#73D19C"/>
<path d="M60.2982 113.956L47.7284 106.612C45.1831 105.118 45.4973 102.494 48.4512 100.778L59.4498 94.3551C62.388 92.6382 66.8817 92.4474 69.427 93.9418L81.9968 101.286C84.5422 102.781 84.228 105.404 81.2741 107.121L70.2755 113.543C67.3373 115.26 62.8436 115.451 60.2982 113.956Z" fill="#004C45"/>
<path d="M83.7251 103.83V94.8477L46 95.102V104.148L83.7251 103.83Z" fill="#004C45"/>
<path d="M60.2982 104.974L47.7284 97.6294C45.1831 96.1351 45.4973 93.512 48.4512 91.7951L59.4498 85.3727C62.388 83.6558 66.8817 83.465 69.427 84.9594L81.9968 92.3039C84.5422 93.7982 84.228 96.4212 81.2741 98.1381L70.2755 104.561C67.3373 106.277 62.8436 106.468 60.2982 104.974Z" fill="#73D19C"/>
<path d="M61.194 104.275L48.9227 97.1052C46.8644 95.913 47.1315 93.7986 49.5041 92.4156L60.5026 85.9931C62.8752 84.6101 66.489 84.4511 68.5473 85.6593L80.8186 92.8289C82.8769 94.0212 82.6098 96.1355 80.2372 97.5186L69.2386 103.941C66.8661 105.324 63.2523 105.483 61.194 104.275Z" fill="white"/>
<path d="M63.111 102.604L51.7825 95.9907C50.7926 95.4184 50.9183 94.401 52.0653 93.7333L62.7496 87.4857C63.8966 86.818 65.6249 86.7545 66.6148 87.3268L77.9433 93.94C78.9332 94.5123 78.8075 95.5297 77.6605 96.1974L66.9762 102.445C65.8449 103.113 64.1009 103.176 63.111 102.604Z" fill="white"/>
<path d="M63.0952 99.029L57.9101 96.0086C56.9203 95.4363 57.046 94.4189 58.193 93.7512L62.7652 91.0804C63.8965 90.4128 65.6406 90.3492 66.6304 90.9215L71.8155 93.9419C72.8053 94.5142 72.6796 95.5317 71.5327 96.1993L66.9604 98.8701C65.8134 99.5378 64.0851 99.6013 63.0952 99.029Z" fill="white"/>
<path d="M60.2982 104.084L47.7284 96.7398C45.1831 95.2454 45.4973 92.6224 48.4512 90.9055L59.4498 84.483C62.388 82.7661 66.8817 82.5754 69.427 84.0697L81.9968 91.4142C84.5422 92.9086 84.228 95.5316 81.2741 97.2485L70.2755 103.671C67.3373 105.388 62.8436 105.579 60.2982 104.084Z" fill="#004C45"/>
<path d="M83.7251 93.9568V84.959L46 85.2292V94.2588L83.7251 93.9568Z" fill="#004C45"/>
<path d="M60.2982 95.1009L47.7284 87.7564C45.1831 86.262 45.4973 83.639 48.4512 81.9221L59.4498 75.4996C62.388 73.7827 66.8817 73.592 69.427 75.0863L81.9968 82.4308C84.5422 83.9251 84.228 86.5482 81.2741 88.2651L70.2755 94.6875C67.3373 96.4044 62.8436 96.5952 60.2982 95.1009Z" fill="#73D19C"/>
<path d="M61.194 94.4018L48.9227 87.2322C46.8644 86.0399 47.1315 83.9256 49.5041 82.5425L60.5026 76.1201C62.8752 74.737 66.489 74.578 68.5473 75.7862L80.8186 82.9559C82.8769 84.1481 82.6098 86.2625 80.2372 87.6455L69.2386 94.068C66.8661 95.451 63.2523 95.61 61.194 94.4018Z" fill="white"/>
<path d="M63.111 92.7319L51.7825 86.1186C50.7926 85.5463 50.9183 84.5289 52.0653 83.8612L62.7496 77.6137C63.8966 76.946 65.6249 76.8824 66.6148 77.4547L77.9433 84.0679C78.9332 84.6402 78.8075 85.6576 77.6605 86.3253L66.9762 92.5729C65.8449 93.2406 64.1009 93.3042 63.111 92.7319Z" fill="white"/>
<path d="M63.0952 89.156L57.9101 86.1355C56.9203 85.5632 57.046 84.5458 58.193 83.8781L62.7652 81.2074C63.8965 80.5397 65.6406 80.4761 66.6304 81.0484L71.8155 84.0689C72.8053 84.6412 72.6796 85.6586 71.5327 86.3263L66.9604 88.997C65.8134 89.6647 64.0851 89.7283 63.0952 89.156Z" fill="white"/>
<path d="M60.2982 94.2132L47.7284 86.8687C45.1831 85.3743 45.4973 82.7513 48.4512 81.0344L59.4498 74.6119C62.388 72.895 66.8817 72.7043 69.427 74.1986L81.9968 81.5431C84.5422 83.0375 84.228 85.6605 81.2741 87.3774L70.2755 93.7999C67.3373 95.5168 62.8436 95.7075 60.2982 94.2132Z" fill="#004C45"/>
<path d="M83.7251 84.0847V75.0869L46 75.3572V84.3868L83.7251 84.0847Z" fill="#004C45"/>
<path d="M60.2982 85.2288L47.7284 77.8843C45.1831 76.39 45.4973 73.7669 48.4512 72.05L59.4498 65.6276C62.388 63.9107 66.8817 63.7199 69.427 65.2142L81.9968 72.5587C84.5422 74.0531 84.228 76.6761 81.2741 78.393L70.2755 84.8155C67.3373 86.5324 62.8436 86.7231 60.2982 85.2288Z" fill="#73D19C"/>
<path d="M61.194 84.5298L48.9227 77.3601C46.8644 76.1678 47.1315 74.0535 49.5041 72.6705L60.5026 66.248C62.8752 64.8649 66.489 64.706 68.5473 65.9142L80.8186 73.0838C82.8769 74.2761 82.6098 76.3904 80.2372 77.7735L69.2386 84.1959C66.8661 85.579 63.2523 85.7379 61.194 84.5298Z" fill="white"/>
<path d="M63.111 82.8608L51.7825 76.2476C50.7926 75.6753 50.9183 74.6578 52.0653 73.9902L62.7496 67.7426C63.8966 67.0749 65.6249 67.0113 66.6148 67.5836L77.9433 74.1968C78.9332 74.7691 78.8075 75.7865 77.6605 76.4542L66.9762 82.7018C65.8449 83.3695 64.1009 83.4331 63.111 82.8608Z" fill="white"/>
<path d="M63.0952 79.2683L57.9101 76.2478C56.9203 75.6755 57.046 74.6581 58.193 73.9904L62.7652 71.3197C63.8965 70.652 65.6406 70.5884 66.6304 71.1607L71.8155 74.1812C72.8053 74.7535 72.6796 75.7709 71.5327 76.4386L66.9604 79.1093C65.8134 79.777 64.0851 79.8406 63.0952 79.2683Z" fill="white"/>
<path d="M60.2982 84.3382L47.7284 76.9937C45.1831 75.4993 45.4973 72.8763 48.4512 71.1594L59.4498 64.7369C62.388 63.02 66.8817 62.8293 69.427 64.3236L81.9968 71.6681C84.5422 73.1625 84.228 75.7855 81.2741 77.5024L70.2755 83.9249C67.3373 85.6418 62.8436 85.8325 60.2982 84.3382Z" fill="#004C45"/>
<path d="M83.7251 74.1968V65.2148L46 65.4851V74.5147L83.7251 74.1968Z" fill="#004C45"/>
<path d="M60.2982 75.3411L47.7284 67.9966C45.1831 66.5023 45.4973 63.8792 48.4512 62.1623L59.4498 55.7399C62.388 54.023 66.8817 53.8322 69.427 55.3265L81.9968 62.671C84.5422 64.1654 84.228 66.7884 81.2741 68.5053L70.2755 74.9278C67.3373 76.6447 62.8436 76.8354 60.2982 75.3411Z" fill="#73D19C"/>
<path d="M61.194 74.6577L48.9227 67.4881C46.8644 66.2958 47.1315 64.1814 49.5041 62.7984L60.5026 56.3759C62.8752 54.9929 66.489 54.8339 68.5473 56.0421L80.8186 63.2117C82.8769 64.404 82.6098 66.5183 80.2372 67.9014L69.2386 74.3239C66.8661 75.7069 63.2523 75.8659 61.194 74.6577Z" fill="#73D19C"/>
<path d="M63.111 72.9731L51.7825 66.3599C50.7926 65.7876 50.9183 64.7701 52.0653 64.1025L62.7496 57.8549C63.8966 57.1872 65.6249 57.1236 66.6148 57.6959L77.9433 64.3091C78.9332 64.8814 78.8075 65.8988 77.6605 66.5665L66.9762 72.8141C65.8449 73.4818 64.1009 73.5454 63.111 72.9731Z" fill="#004C45"/>
<path d="M63.0952 69.3953L57.9101 66.3748C56.9203 65.8025 57.046 64.7851 58.193 64.1174L62.7652 61.4467C63.8965 60.779 65.6406 60.7154 66.6304 61.2877L71.8155 64.3082C72.8053 64.8805 72.6796 65.8979 71.5327 66.5656L66.9604 69.2363C65.8134 69.904 64.0851 69.9676 63.0952 69.3953Z" fill="#73D19C"/>
<path d="M65.6246 65.7885C65.2161 66.027 64.5405 66.027 64.1163 65.7885C63.692 65.5501 63.692 65.1527 64.1163 64.9142C64.5248 64.6757 65.2004 64.6757 65.6246 64.9142C66.0489 65.1527 66.0489 65.5501 65.6246 65.7885Z" fill="white"/>
<path d="M106.508 50.8917C106.084 50.6533 105.408 50.6533 105 50.8917C104.591 51.1302 104.591 51.5276 105 51.7661C105.408 52.0045 106.099 52.0045 106.508 51.7661C106.916 51.5276 106.916 51.1302 106.508 50.8917Z" fill="white"/>
<path d="M65.8449 65.3422H63.8809V49.8424C63.8809 46.5835 65.6092 43.5471 68.406 41.9256L99.7048 23.6438C101.182 22.7854 102.926 22.7854 104.403 23.6438C105.88 24.5023 106.744 26.0443 106.744 27.7612V51.3367H104.78V27.7453C104.78 26.7438 104.277 25.8535 103.413 25.3607C102.564 24.8679 101.543 24.8679 100.679 25.3607L69.3801 43.6425C67.1961 44.9143 65.8449 47.283 65.8449 49.8424V65.3422Z" fill="white"/>
<path d="M79.9389 38.0781C79.9389 39.7473 78.6034 41.0985 76.9536 41.0985C75.3038 41.0985 73.9683 39.7473 73.9683 38.0781C73.9683 36.4089 75.3038 35.0576 76.9536 35.0576C78.6034 35.0576 79.9389 36.4089 79.9389 38.0781Z" fill="#5A2740"/>
<path d="M72.475 41.8296L71.4851 40.1127L74.6904 38.2368C75.1618 37.9665 75.7588 38.1255 76.0259 38.6024C76.2931 39.0793 76.1359 39.6834 75.6646 39.9537L72.4593 41.8296H72.475Z" fill="white"/>
<path d="M90.1199 34.7076C92.4802 34.7076 94.3936 32.7717 94.3936 30.3836C94.3936 27.9955 92.4802 26.0596 90.1199 26.0596C87.7596 26.0596 85.8462 27.9955 85.8462 30.3836C85.8462 32.7717 87.7596 34.7076 90.1199 34.7076Z" fill="#5A2740"/>
<path d="M85.014 34.5171L84.0242 32.8002L87.2295 30.9243C87.7008 30.654 88.2979 30.813 88.565 31.2899C88.8321 31.7668 88.675 32.3709 88.2036 32.6412L84.9983 34.5171H85.014Z" fill="white"/>
<path d="M116.469 60.5735C117.302 60.0966 117.962 60.4781 117.978 61.4319C117.978 62.3858 117.318 63.5622 116.485 64.0391C115.652 64.516 114.993 64.1345 114.977 63.1806C114.977 62.2268 115.637 61.0504 116.469 60.5735Z" fill="white"/>
<path d="M116.202 60.9377C116.799 60.588 117.271 60.8742 117.271 61.5577C117.271 62.2413 116.799 63.0839 116.202 63.4336C115.605 63.7833 115.134 63.4972 115.134 62.8136C115.134 62.13 115.605 61.2875 116.202 60.9377Z" fill="#73D19C"/>
<path d="M116.469 70.3176C117.302 69.8407 117.962 70.2222 117.978 71.1761C117.978 72.1299 117.318 73.3063 116.485 73.7832C115.652 74.2601 114.993 73.8786 114.977 72.9248C114.977 71.9709 115.637 70.7945 116.469 70.3176Z" fill="white"/>
<path d="M116.202 70.6829C116.799 70.3331 117.271 70.6193 117.271 71.3028C117.271 71.9864 116.799 72.829 116.202 73.1787C115.605 73.5285 115.134 73.2423 115.134 72.5587C115.134 71.8751 115.605 71.0326 116.202 70.6829Z" fill="#73D19C"/>
<path d="M75.3035 74.7375C76.1362 74.2606 76.7961 74.6422 76.8118 75.596C76.8118 76.5498 76.1519 77.7262 75.3192 78.2031C74.4864 78.68 73.8265 78.2985 73.8108 77.3447C73.8108 76.3909 74.4707 75.2145 75.3035 74.7375Z" fill="white"/>
<path d="M75.0367 75.1018C75.6338 74.7521 76.1051 75.0382 76.1051 75.7218C76.1051 76.4054 75.6338 77.2479 75.0367 77.5977C74.4396 77.9474 73.9683 77.6613 73.9683 76.9777C73.9683 76.2941 74.4396 75.4515 75.0367 75.1018Z" fill="#73D19C"/>
<path d="M75.3035 84.4983C76.1362 84.0214 76.7961 84.4029 76.8118 85.3567C76.8118 86.3106 76.1519 87.487 75.3192 87.9639C74.4864 88.4408 73.8265 88.0593 73.8108 87.1054C73.8108 86.1516 74.4707 84.9752 75.3035 84.4983Z" fill="white"/>
<path d="M75.0367 84.8469C75.6338 84.4972 76.1051 84.7833 76.1051 85.4669C76.1051 86.1505 75.6338 86.993 75.0367 87.3428C74.4396 87.6925 73.9683 87.4064 73.9683 86.7228C73.9683 86.0392 74.4396 85.1967 75.0367 84.8469Z" fill="#73D19C"/>
<path d="M75.3035 94.2424C76.1362 93.7655 76.7961 94.147 76.8118 95.1009C76.8118 96.0547 76.1519 97.2311 75.3192 97.708C74.4864 98.1849 73.8265 97.8034 73.8108 96.8496C73.8108 95.8957 74.4707 94.7193 75.3035 94.2424Z" fill="white"/>
<path d="M75.0367 94.6086C75.6338 94.2589 76.1051 94.545 76.1051 95.2286C76.1051 95.9122 75.6338 96.7548 75.0367 97.1045C74.4396 97.4542 73.9683 97.1681 73.9683 96.4845C73.9683 95.8009 74.4396 94.9584 75.0367 94.6086Z" fill="#73D19C"/>
<circle cx="112" cy="96" r="19" fill="#5A2740"/>
<path d="M112 104C113.105 104 114 103.105 114 102C114 100.895 113.105 100 112 100C110.895 100 110 100.895 110 102C110 103.105 110.895 104 112 104Z" fill="white"/>
<path d="M112 98.6667C112.354 98.6667 112.693 98.5262 112.943 98.2761C113.193 98.0261 113.333 97.687 113.333 97.3333V89.3333C113.333 88.9797 113.193 88.6406 112.943 88.3905C112.693 88.1405 112.354 88 112 88C111.646 88 111.307 88.1405 111.057 88.3905C110.807 88.6406 110.667 88.9797 110.667 89.3333V97.3333C110.667 97.687 110.807 98.0261 111.057 98.2761C111.307 98.5262 111.646 98.6667 112 98.6667Z" fill="white"/>
</svg>
