<svg width="160" height="140" viewBox="0 0 160 140" fill="none" xmlns="http://www.w3.org/2000/svg">
<path d="M146 33C148.761 33 151 30.7622 151 28C151 25.239 148.761 23 146 23C143.239 23 141 25.239 141 28C141 30.7622 143.239 33 146 33Z" fill="#F0C4BC"/>
<path d="M154 13C155.657 13 157 11.6565 157 10C157 8.34254 155.657 7 154 7C152.344 7 151 8.34254 151 10C151 11.6565 152.344 13 154 13Z" fill="#F0C4BC"/>
<path d="M38 20C39.6575 20 41 18.6575 41 17C41 15.3436 39.6575 14 38 14C36.3436 14 35 15.3436 35 17C35 18.6575 36.3436 20 38 20Z" fill="#F0C4BC"/>
<path d="M9 93C12.3138 93 15 90.3115 15 87C15 83.6885 12.3138 81 9 81C5.68615 81 3 83.6885 3 87C3 90.3115 5.68615 93 9 93Z" fill="#F0C4BC"/>
<path d="M87 133C120.136 133 147 106.189 147 73.0006C147 39.8108 120.018 13 87 13C53.8639 13 27 39.8108 27 73.0006C27 106.189 53.8639 133 87 133Z" fill="#F0C4BC"/>
<path d="M97.8621 80.1208C100.253 77.2181 105.119 76.6205 108.022 76.5352C108.448 76.8766 108.79 77.2181 109.131 77.4743C110.497 79.2671 111.778 81.4014 112.546 83.7919L116.303 95.7441C116.986 97.9638 117.242 101.037 116.73 103.257C116.73 103.342 116.73 103.428 116.644 103.428C116.559 103.598 116.559 103.769 116.473 103.94C115.364 107.611 113.059 111.88 110.241 113.929C108.704 114.868 106.997 115.807 105.033 116.575C101.619 109.148 97.5206 98.5614 96.24 96.2564C93.8496 91.9877 94.4472 84.3895 97.8621 80.1208Z" fill="#004C45"/>
<path d="M77.3712 71.9293L79.6762 69.1973L80.4446 63.3066L80.53 58.8672H96.8362L96.4947 71.3317L102.556 75.4296L102.642 83.1132H76.2613L77.3712 71.9293Z" fill="white"/>
<path d="M91.799 72.0146C89.8355 71.1609 85.1399 67.9167 83.774 65.7824C82.9202 64.4164 81.6396 61.8552 80.5298 59.5502V58.8672H96.8361L96.5799 69.2827C96.5799 69.2827 95.897 71.6732 95.7262 72.1C95.5555 72.4415 93.6772 72.8684 91.799 72.0146Z" fill="#EFF5F3"/>
<path d="M104.009 49.9846C104.095 53.4849 104.095 56.1315 103.668 58.7781C103.241 61.4246 101.79 65.3518 101.363 65.7787C100.936 66.2055 99.5698 66.7178 97.1794 66.7178C94.5328 66.7178 90.2642 65.5225 88.5567 64.4981C86.7639 63.4736 84.0319 60.4855 82.7513 59.1196C79.1656 58.522 75.2385 54.1679 74.0433 48.0211C72.848 41.8742 72.4212 32.91 79.8486 29.8366C87.2761 26.8485 97.6916 28.4706 101.021 32.91C104.351 37.3494 104.009 41.3619 104.009 44.9476C103.924 47.4234 104.009 48.704 104.009 49.9846Z" fill="white"/>
<path d="M76.6042 31.885C76.9457 31.7142 77.3725 31.4581 77.7994 31.2874C78.0555 30.9459 78.3116 30.6044 78.5677 30.3482C78.9092 30.1775 79.3361 29.9214 79.763 29.7506C87.1904 26.7626 97.606 28.3847 100.936 32.8241C104.265 37.2635 103.924 41.276 103.924 44.8617C103.924 44.9471 103.924 45.0324 103.924 45.0324C102.558 45.1178 99.911 45.2032 98.4597 44.3494C98.4597 44.3494 98.8012 45.0324 99.0573 45.9715C97.0083 45.63 92.9958 44.0933 91.7152 43.2396C91.7152 43.2396 92.1421 44.1787 92.3982 44.9471C90.9469 44.6909 88.3857 43.6665 86.849 42.7274C86.4221 43.6665 85.9098 44.6909 84.7146 45.63C84.6293 46.5691 84.5439 47.7644 84.5439 48.1059C83.9463 48.7035 83.9463 49.8133 83.9463 49.8133L83.6901 54.4235L81.6412 54.3381L81.0436 58.3506C77.9701 56.8993 74.9821 53.0575 74.043 47.8497C73.0185 42.8981 72.5916 35.8975 76.6042 31.885Z" fill="#EFF5F3"/>
<path d="M77.2025 31.1179C79.8491 26.6785 85.9959 26.7639 90.5207 27.1908C95.2162 27.3615 99.741 30.1788 101.79 31.6302C103.839 33.1669 106.485 35.8988 106.485 35.8988C106.485 35.8988 105.461 36.1549 104.522 35.8988C104.522 35.8988 105.632 38.0332 106.912 40.3382C106.059 41.0212 104.351 41.3627 104.351 41.3627L105.034 43.0702C105.034 43.0702 100.765 44.0093 98.6311 42.8994C98.6311 42.8994 98.9726 43.5824 99.3141 44.4361C97.2652 44.2654 93.1673 42.9848 91.8013 42.1311C91.8013 42.1311 92.2282 43.0702 92.5697 43.7532C91.1183 43.5824 89.0694 43.0702 87.5326 42.1311C87.1912 43.1555 86.5935 44.4361 85.4837 45.546C85.4837 46.4851 85.4837 47.4242 85.4837 47.8511C84.9715 48.4487 84.4592 49.217 84.4592 49.217V53.8272H82.4103L81.9834 58.4373L80.4467 63.1329C80.4467 63.1329 75.1535 54.8517 74.0437 50.4123C72.9338 45.9729 72.5923 41.6188 72.5923 41.6188C72.3362 38.9723 72.1655 33.3376 77.2025 31.1179Z" fill="#12181F"/>
<path d="M80.4447 49.8164C82.4083 49.8164 83.5182 52.2069 83.7743 53.9997L82.6644 59.0367C80.274 59.0367 78.5665 56.0486 78.3104 53.9143C78.0543 51.6092 78.9934 49.8164 80.4447 49.8164Z" fill="white"/>
<path d="M67.2126 77.3874C71.8227 74.3993 77.1159 70.9844 77.1159 70.9844L94.8735 77.985H96.1541L97.1786 70.9844C101.533 72.6065 107.338 75.6799 109.045 77.6435C109.558 78.3265 110.07 79.0948 110.582 79.8632C111.009 83.6196 112.204 95.9987 113.314 110.683C112.375 112.049 111.35 113.244 110.241 114.012C110.07 114.098 109.985 114.183 109.899 114.269C109.728 114.354 109.643 114.439 109.472 114.525C108.106 115.378 106.484 116.147 104.691 116.83C92.2269 120.586 76.5183 119.476 66.1881 113.415C65.0783 112.817 64.1392 112.134 63.2 111.451C61.4072 99.499 59.529 86.6077 59.529 86.01V85.9247C61.3218 81.9121 64.8221 78.9241 67.2126 77.3874Z" fill="#004C45"/>
<path d="M73.1884 116.574C70.6272 115.72 68.2367 114.696 66.1024 113.501C65.7609 113.244 65.334 113.074 64.9925 112.818V109.146H72.3346L73.1884 116.574Z" fill="#004C45"/>
<path d="M96.0708 77.9883H98.2905L98.632 79.0128L97.3514 82.7692H94.2779L90.863 79.6957V77.9883H96.0708Z" fill="#9BD1A9"/>
<path d="M95.7289 118.71C95.1313 101.806 94.1921 82.8535 94.1921 82.8535H97.2656C97.2656 82.8535 101.278 100.27 104.608 116.917C101.876 117.686 98.8023 118.369 95.7289 118.71Z" fill="#73D19C"/>
<path d="M94.8735 77.9861L79.9332 66.7168L77.2013 70.9855L87.9583 83.7914L94.8735 77.9861Z" fill="#73D19C"/>
<path d="M96.1547 77.9006L96.5815 68.7656L99.4842 71.4122L101.362 81.4862L96.1547 77.9006Z" fill="#73D19C"/>
<path d="M56.7128 98.1345C57.2251 94.9757 57.8227 91.9876 58.2496 89.4264C58.6764 87.036 59.7863 84.8163 61.1522 83.0234C69.6042 88.1458 72.9337 103.257 72.3361 109.062C72.3361 109.148 71.4824 111.965 70.4579 115.551C68.9212 114.953 67.4699 114.27 66.1039 113.416C58.9325 109.318 55.7737 103.598 56.7128 98.1345Z" fill="#004C45"/>
<circle cx="112" cy="96" r="19" fill="#5A2740"/>
<path d="M112 104C113.105 104 114 103.105 114 102C114 100.895 113.105 100 112 100C110.895 100 110 100.895 110 102C110 103.105 110.895 104 112 104Z" fill="white"/>
<path d="M112 98.6667C112.354 98.6667 112.693 98.5262 112.943 98.2761C113.193 98.0261 113.333 97.687 113.333 97.3333V89.3333C113.333 88.9797 113.193 88.6406 112.943 88.3905C112.693 88.1405 112.354 88 112 88C111.646 88 111.307 88.1405 111.057 88.3905C110.807 88.6406 110.667 88.9797 110.667 89.3333V97.3333C110.667 97.687 110.807 98.0261 111.057 98.2761C111.307 98.5262 111.646 98.6667 112 98.6667Z" fill="white"/>
</svg>
