<svg width="160" height="140" viewBox="0 0 160 140" fill="none" xmlns="http://www.w3.org/2000/svg">
<path fill-rule="evenodd" clip-rule="evenodd" d="M154 13C155.657 13 157 11.6565 157 10C157 8.34254 155.657 7 154 7C152.344 7 151 8.34254 151 10C151 11.6565 152.344 13 154 13ZM146 33C148.761 33 151 30.7622 151 28C151 25.239 148.761 23 146 23C143.239 23 141 25.239 141 28C141 30.7622 143.239 33 146 33ZM41 17C41 18.6575 39.6575 20 38 20C36.3436 20 35 18.6575 35 17C35 15.3436 36.3436 14 38 14C39.6575 14 41 15.3436 41 17ZM9 93C12.3138 93 15 90.3115 15 87C15 83.6885 12.3138 81 9 81C5.68615 81 3 83.6885 3 87C3 90.3115 5.68615 93 9 93ZM147 73.0006C147 106.189 120.136 133 87 133C53.8639 133 27 106.189 27 73.0006C27 39.8108 53.8639 13 87 13C120.018 13 147 39.8108 147 73.0006Z" fill="#B7CDC4"/>
<path d="M98.8087 57.0687C98.7488 56.4553 98.6789 55.9023 98.5891 55.4096C98.5691 55.2989 98.5492 55.1883 98.5292 55.0677C98.4693 54.585 98.3595 54.0219 98.2397 53.479C97.7107 51.0054 96.9621 49.1049 96.3633 47.838C96.3633 47.8279 96.3533 47.8078 96.3433 47.7877C96.0738 47.1844 95.8243 46.6816 95.6147 46.2694C95.6147 46.2492 95.5947 46.2291 95.5847 46.209C95.5448 46.1286 95.5049 46.0481 95.4649 45.9777C95.3052 45.666 94.8461 44.8013 94.1175 43.6852C94.0775 43.6148 94.0276 43.5444 93.9877 43.474C93.9578 43.4338 93.9278 43.3936 93.8979 43.3433C93.8579 43.283 93.818 43.2226 93.7781 43.1623C92.8798 41.835 92.1711 40.9602 91.4724 40.1759C91.3925 40.0854 91.3027 39.9848 91.2328 39.8944C91.173 39.824 91.1031 39.7536 91.0332 39.6832C91.0332 39.6832 91.0132 39.6631 91.0132 39.653C90.9933 39.6329 90.9733 39.6128 90.9534 39.5927C90.9334 39.5625 90.9035 39.5424 90.8835 39.5122C90.3944 38.9693 89.8953 38.4766 89.4162 38.0341C88.8972 37.5414 88.2484 36.9984 87.7394 36.5862C87.6096 36.4756 87.4599 36.365 87.3002 36.2443C87.2503 36.2041 87.2004 36.1639 87.1605 36.1337C86.891 35.9125 86.5716 35.6913 86.2521 35.46C86.2022 35.4198 86.1423 35.3796 86.0924 35.3393C85.4337 34.8466 84.4855 34.2835 83.7668 33.8612C83.0781 33.4791 82.0899 32.9361 80.7824 32.373C80.7524 32.363 80.7225 32.3429 80.7025 32.3328C80.6426 32.3027 80.5827 32.2825 80.5229 32.2624C80.0737 32.0714 79.5846 31.8803 79.0556 31.6893C78.0874 31.3374 77.4087 31.1463 77.1691 31.0759C77.1192 31.0659 77.0593 31.0457 77.0094 31.0357C76.9695 31.0256 76.9196 31.0156 76.8797 31.0055C76.1909 30.8245 75.3525 30.6033 74.3145 30.4223C74.2446 30.4123 74.1847 30.4022 74.1148 30.3922C74.0549 30.3821 73.9851 30.372 73.9252 30.362C73.9052 30.362 73.8753 30.362 73.8553 30.3519C73.6856 30.3218 73.5359 30.2916 73.3562 30.2715C73.3163 30.2715 73.2564 30.2614 73.1965 30.2514C73.0967 30.2413 72.9969 30.2212 72.8971 30.2112C72.8173 30.2011 72.7274 30.1911 72.6276 30.181C72.6176 30.181 72.6076 30.181 72.5977 30.181C72.5877 30.181 72.5677 30.181 72.5577 30.181C72.408 30.1609 72.2383 30.1408 72.0587 30.1207C71.9189 30.1106 71.7792 30.0905 71.6395 30.0804C71.4897 30.0704 71.34 30.0503 71.1803 30.0402C71.1404 30.0402 71.0905 30.0402 71.0506 30.0402C71.0206 30.0402 70.9907 30.0402 70.9507 30.0402C70.9308 30.0402 70.9108 30.0402 70.8809 30.0402C70.791 30.0402 70.7112 30.0302 70.6214 30.0201C70.5515 30.0201 70.4816 30.0201 70.4117 30.0201C70.2021 30.0101 69.9925 30 69.7729 30C69.7031 30 69.6332 30 69.5534 30C69.4935 30 69.4436 30 69.3837 30C69.3238 30 69.2739 30 69.214 30C69.0144 30 68.8347 30 68.6451 30C68.4754 30 68.2957 30 68.126 30C68.0462 30 67.9763 30 67.9064 30.0101C67.8965 30.0101 67.8865 30.0101 67.8765 30.0101C67.8166 30.0101 67.7567 30.0101 67.6968 30.0101C67.4074 30.0201 67.1279 30.0402 66.8584 30.0603C66.7386 30.0603 66.6288 30.0805 66.509 30.0905C66.1597 30.1207 65.8103 30.1508 65.481 30.1911H65.461C65.4111 30.1911 65.3612 30.2011 65.3213 30.2112C65.3013 30.2112 65.2813 30.2112 65.2614 30.2112C63.9039 30.3821 62.766 30.6134 61.9276 30.8346C61.8378 30.8547 61.7579 30.8748 61.6681 30.905C61.6182 30.915 61.5783 30.9251 61.5284 30.9452C61.4086 30.9754 61.2888 31.0055 61.179 31.0357C61.0991 31.0558 61.0093 31.0759 60.9295 31.096C60.8396 31.1262 60.7598 31.1463 60.67 31.1765C60.5901 31.1966 60.5103 31.2267 60.4304 31.2469C60.1809 31.3172 59.9513 31.3977 59.7217 31.4681C59.6419 31.4882 59.572 31.5183 59.4922 31.5384C59.2825 31.6088 59.0829 31.6792 58.8933 31.7496C58.1447 32.0211 57.4659 32.2926 56.877 32.544C56.8471 32.554 56.8172 32.5741 56.7872 32.5842C56.5277 32.6948 56.2881 32.8155 56.0586 32.916C56.0386 32.916 56.0286 32.9261 56.0087 32.9361C55.4797 33.1976 55.0505 33.4188 54.741 33.5998C54.5813 33.6903 54.4316 33.7707 54.2919 33.8512C54.2519 33.8713 54.212 33.9014 54.1721 33.9215C53.7529 34.1629 53.3536 34.4042 52.9644 34.6556C52.8645 34.7159 52.7547 34.7863 52.6549 34.8567C52.5751 34.907 52.4952 34.9673 52.4154 35.0176C52.1459 35.1986 51.8664 35.3896 51.5969 35.5807C50.5888 36.2946 49.6106 37.1392 48.9818 37.7023C48.9019 37.7727 48.8221 37.8431 48.7522 37.9034C48.6324 38.014 48.5027 38.1347 48.363 38.2654L48.343 38.2855C48.0835 38.5268 47.814 38.8084 47.5345 39.11C47.4147 39.2307 47.3049 39.3413 47.1951 39.4519C46.6062 40.0452 45.8876 40.8898 45.3885 41.5635C45.3885 41.5635 45.2787 41.7043 45.099 41.9456C43.8115 43.5746 42.8133 45.2839 42.0248 46.9632C41.9749 47.0637 41.935 47.1542 41.8851 47.2548C41.7753 47.486 41.6754 47.7173 41.5856 47.9486C41.5856 47.9687 41.5657 47.9888 41.5557 48.0089C41.4658 48.21 41.376 48.4413 41.2862 48.6726C41.2762 48.7027 41.2662 48.7329 41.2462 48.7731C41.1764 48.9541 41.1065 49.1351 41.0366 49.3261C40.9169 49.6278 40.7971 49.9295 40.7073 50.1909C40.4577 50.8244 40.2282 51.6489 40.0485 52.3528C40.0485 52.3829 40.0285 52.4231 40.0185 52.4533C40.0185 52.4734 40.0086 52.5036 39.9986 52.5237C39.9886 52.574 39.9686 52.6343 39.9587 52.6846C39.9387 52.755 39.9287 52.8354 39.9087 52.9058C39.8788 53.0164 39.8588 53.127 39.8289 53.2477C39.6892 53.851 39.5594 54.4945 39.4696 55.0274C39.3797 55.4699 39.3099 56.0028 39.26 56.5257C39.2101 56.8877 39.1801 57.2195 39.1502 57.5413C39.1302 57.7222 39.1102 57.9234 39.0903 58.1245C38.9106 60.0148 38.9805 62.4985 39.4696 65.2536C39.5594 65.8268 39.6592 66.3899 39.779 66.8826C39.9287 67.6468 40.1882 68.6523 40.4577 69.3863C41.6555 73.2676 43.4921 76.435 45.5582 78.9991C45.9574 79.5119 46.4066 80.0348 46.7959 80.437C46.8458 80.4973 46.9057 80.5577 46.9656 80.6079C47.285 80.9498 47.6044 81.2917 47.8838 81.5833C48.1234 81.8246 48.4228 82.1062 48.7223 82.3777C49.0417 82.6793 49.3511 82.9609 49.6505 83.2223C50.2295 83.7251 50.988 84.2781 51.567 84.7205C51.8065 84.9015 52.2657 85.2233 52.8845 85.6154C52.9045 85.6255 52.9244 85.6456 52.9444 85.6557C53.0642 85.7361 53.1939 85.8166 53.3337 85.897C53.3636 85.9171 53.3836 85.9271 53.4135 85.9473C53.6131 86.0679 53.8327 86.1986 54.0623 86.3294C54.1122 86.3595 54.1721 86.3897 54.222 86.4199C54.3817 86.5204 54.5713 86.621 54.771 86.7316C54.8109 86.7517 54.8508 86.7718 54.8908 86.7919C55.0904 86.9025 55.3 87.0131 55.5196 87.1237C55.5695 87.1438 55.6194 87.174 55.6693 87.1941C55.9088 87.3148 56.1584 87.4354 56.4179 87.5561C56.4179 87.5561 56.4279 87.5561 56.4379 87.5561C56.7074 87.6768 56.9868 87.8075 57.2863 87.9281C57.3462 87.9482 57.3961 87.9784 57.456 87.9985C57.6057 88.0589 57.7554 88.1192 57.9051 88.1795C57.955 88.1996 58.0149 88.2197 58.0648 88.2398C58.1547 88.2801 58.2545 88.3102 58.3543 88.3505C58.3543 88.3505 58.3742 88.3505 58.3842 88.3605C58.4042 88.3605 58.4341 88.3806 58.4541 88.3907C58.4741 88.3907 58.494 88.4007 58.514 88.4108C59.9313 88.9538 61.4385 89.3962 63.0156 89.7079C63.1353 89.728 63.2551 89.7582 63.3849 89.7783C63.4348 89.7783 63.4747 89.7984 63.5246 89.8085C63.5845 89.8185 63.6444 89.8286 63.7043 89.8386C63.7143 89.8386 63.7242 89.8386 63.7342 89.8386C63.7342 89.8386 63.7442 89.8386 63.7542 89.8386C63.7642 89.8386 63.7742 89.8386 63.7841 89.8386C64.0636 89.8889 64.3331 89.9291 64.6226 89.9794C64.6725 89.9794 64.7124 89.9895 64.7623 89.9995C65.1017 90.0498 65.441 90.09 65.7904 90.1302C65.9201 90.1403 66.0399 90.1604 66.1697 90.1705C66.4791 90.2006 66.7985 90.2308 67.1179 90.2509C67.1179 90.2509 67.2077 90.2509 67.2477 90.2509C67.3774 90.2509 67.4972 90.261 67.627 90.271C67.9863 90.2911 68.3556 90.3012 68.7249 90.3012C68.8547 90.3012 68.9844 90.3012 69.1142 90.3012C69.5434 90.3012 69.9826 90.3012 70.4217 90.271C70.5215 90.271 70.6114 90.2609 70.7112 90.2509C70.7411 90.2509 70.7611 90.2509 70.791 90.2509C71.0805 90.2308 71.3799 90.2207 71.6694 90.1906C71.8191 90.1805 71.9589 90.1604 72.1086 90.1503C72.2084 90.1403 72.3082 90.1202 72.418 90.1101C72.7574 90.0699 73.0868 90.0297 73.4261 89.9794C73.6158 89.9492 73.8054 89.9191 73.9951 89.8889H74.005C74.3544 89.8286 74.7137 89.7582 75.0631 89.6778C75.1229 89.6677 75.1828 89.6576 75.2527 89.6375C75.3525 89.6174 75.4623 89.5973 75.5621 89.5671C75.602 89.5671 75.642 89.547 75.6819 89.537C75.8616 89.4968 76.0412 89.4465 76.2109 89.4063C76.2508 89.4063 76.2808 89.3861 76.3207 89.3761C76.5303 89.3258 76.7299 89.2655 76.9196 89.2152C76.9296 89.2152 76.9495 89.2152 76.9595 89.2052C77.0294 89.185 77.0993 89.1649 77.1691 89.1448C77.3288 89.0946 77.4985 89.0543 77.6582 89.0041C77.6782 89.0041 77.7081 88.994 77.7281 88.9839C77.8479 88.9437 77.9576 88.9136 78.0674 88.8733C78.297 88.8029 78.5366 88.7225 78.7661 88.6421C78.9059 88.5918 79.0456 88.5415 79.1754 88.5013C82.2696 87.3852 85.2939 85.6959 88.0887 83.353C88.2584 83.2122 88.4281 83.0715 88.5878 82.9307C88.6377 82.8804 88.6976 82.8402 88.7475 82.7899C89.3763 82.2369 89.9253 81.704 90.4643 81.1308C90.4942 81.1006 90.5142 81.0805 90.5441 81.0504C90.5641 81.0303 90.5741 81.0202 90.594 81.0001C90.7138 80.8794 90.8236 80.7588 90.9434 80.6281C91.3227 80.2158 91.8118 79.6627 92.3508 78.989C92.7999 78.436 93.269 77.8126 93.6383 77.2495C97.8605 71.1359 99.5174 63.9666 98.7887 57.0486L98.8087 57.0687Z" fill="#EFF5F3"/>
<path d="M97.2715 57.2192C97.2216 56.636 97.1518 56.1131 97.0719 55.6405C97.052 55.5299 97.032 55.4294 97.022 55.3188C96.9621 54.8663 96.8623 54.3334 96.7425 53.8105C96.2335 51.4676 95.5348 49.6577 94.9659 48.4611C94.9659 48.4511 94.9559 48.431 94.9459 48.4209C94.6864 47.8478 94.4568 47.3752 94.2572 46.983C94.2572 46.9629 94.2372 46.9428 94.2272 46.9327C94.1873 46.8623 94.1474 46.7819 94.1174 46.7216C93.9677 46.4199 93.5285 45.6054 92.8398 44.5496C92.7999 44.4893 92.75 44.4089 92.7101 44.3485C92.6801 44.3083 92.6602 44.2681 92.6302 44.2279C92.5903 44.1675 92.5504 44.1173 92.5104 44.0569C91.662 42.79 90.9833 41.9654 90.3245 41.2314C90.2447 41.1409 90.1648 41.0504 90.095 40.97C90.0351 40.9097 89.9752 40.8393 89.9053 40.7689C89.9053 40.7689 89.8953 40.7488 89.8853 40.7488C89.8654 40.7287 89.8454 40.7085 89.8354 40.6884C89.8155 40.6583 89.7855 40.6382 89.7656 40.608C89.2964 40.0952 88.8273 39.6226 88.3782 39.2003C87.8891 38.7277 87.2702 38.2249 86.7911 37.8227C86.6614 37.7221 86.5216 37.6115 86.3719 37.5009C86.332 37.4708 86.2821 37.4305 86.2422 37.4004C85.9826 37.1892 85.6832 36.9781 85.3738 36.7669C85.3239 36.7267 85.264 36.6865 85.2241 36.6563C84.5952 36.1837 83.6969 35.6508 83.0182 35.2586C82.3694 34.8966 81.4311 34.3838 80.1935 33.8408C80.1635 33.8308 80.1436 33.8107 80.1136 33.8006C80.0537 33.7805 80.0038 33.7604 79.9439 33.7302C79.5147 33.5492 79.0456 33.3682 78.5465 33.1872C77.6283 32.8554 76.9894 32.6744 76.7599 32.604C76.71 32.594 76.6601 32.5739 76.6102 32.5638C76.5702 32.5538 76.5303 32.5437 76.4904 32.5337C75.8416 32.3627 75.0431 32.1516 74.0549 31.9806C73.995 31.9706 73.9252 31.9605 73.8653 31.9504C73.8054 31.9404 73.7455 31.9303 73.6856 31.9203C73.6657 31.9203 73.6457 31.9203 73.6157 31.9102C73.456 31.8801 73.3063 31.86 73.1466 31.8298C73.1067 31.8298 73.0468 31.8197 72.9969 31.8097C72.9071 31.7996 72.8073 31.7795 72.7174 31.7695C72.6376 31.7594 72.5577 31.7494 72.4679 31.7393C72.4579 31.7393 72.4479 31.7393 72.438 31.7393C72.428 31.7393 72.408 31.7393 72.398 31.7393C72.2583 31.7192 72.0986 31.7091 71.9289 31.689C71.7991 31.679 71.6594 31.6588 71.5296 31.6488C71.3899 31.6387 71.2502 31.6287 71.1005 31.6086C71.0605 31.6086 71.0206 31.6086 70.9807 31.6086C70.9507 31.6086 70.9208 31.6086 70.8908 31.6086C70.8709 31.6086 70.8509 31.6086 70.831 31.6086C70.7511 31.6086 70.6713 31.5985 70.5814 31.5885C70.5116 31.5885 70.4517 31.5885 70.3818 31.5885C70.1822 31.5885 69.9825 31.5684 69.7729 31.5684C69.7031 31.5684 69.6332 31.5684 69.5733 31.5684C69.5234 31.5684 69.4635 31.5684 69.4136 31.5684C69.3637 31.5684 69.3038 31.5684 69.2539 31.5684C69.0643 31.5684 68.8946 31.5684 68.7149 31.5684C68.5552 31.5684 68.3855 31.5684 68.2258 31.5684C68.156 31.5684 68.0861 31.5684 68.0162 31.5684C68.0062 31.5684 67.9962 31.5684 67.9863 31.5684C67.9264 31.5684 67.8765 31.5684 67.8166 31.5684C67.5471 31.5784 67.2776 31.5885 67.0181 31.6086C66.9083 31.6086 66.7985 31.6287 66.6887 31.6387C66.3493 31.6689 66.0299 31.6991 65.7205 31.7393C65.7205 31.7393 65.7105 31.7393 65.7005 31.7393C65.6506 31.7393 65.6107 31.7493 65.5608 31.7594C65.5408 31.7594 65.5209 31.7594 65.5009 31.7594C64.2133 31.9203 63.1353 32.1415 62.3368 32.3527C62.247 32.3728 62.1771 32.3929 62.0973 32.413C62.0474 32.423 62.0074 32.4331 61.9675 32.4532C61.8577 32.4834 61.7379 32.5135 61.6381 32.5437C61.5583 32.5638 61.4784 32.5839 61.3986 32.604C61.3087 32.6242 61.2389 32.6543 61.149 32.6744C61.0692 32.6945 60.9993 32.7147 60.9295 32.7448C60.6999 32.8152 60.4703 32.8856 60.2607 32.956C60.1908 32.9761 60.111 33.0063 60.0411 33.0264C59.8415 33.0967 59.6518 33.1571 59.4722 33.2275C58.7635 33.4788 58.1247 33.7403 57.5657 33.9816C57.5358 33.9917 57.5158 34.0017 57.4859 34.0218C57.2364 34.1324 57.0068 34.233 56.7972 34.3436C56.7772 34.3436 56.7672 34.3537 56.7473 34.3637C56.2482 34.605 55.839 34.8262 55.5395 34.9871C55.3898 35.0676 55.2401 35.148 55.1103 35.2285C55.0704 35.2486 55.0305 35.2787 54.9906 35.2988C54.5913 35.5301 54.212 35.7614 53.8427 35.9927C53.7429 36.053 53.6431 36.1133 53.5433 36.1837C53.4634 36.234 53.3935 36.2842 53.3137 36.3345C53.0542 36.5055 52.7947 36.6865 52.5351 36.8775C51.5869 37.5613 50.6487 38.3556 50.0598 38.8886C49.9899 38.9489 49.91 39.0193 49.8402 39.0796C49.7204 39.1801 49.6006 39.3008 49.4709 39.4215L49.4509 39.4416C49.2014 39.6729 48.9419 39.9443 48.6823 40.2158C48.5725 40.3264 48.4628 40.4371 48.3629 40.5376C47.804 41.1007 47.1153 41.9051 46.6561 42.5386C46.6561 42.5386 46.5463 42.6693 46.3766 42.9006C45.1589 44.4491 44.2107 46.068 43.4621 47.6567C43.4222 47.7472 43.3723 47.8377 43.3323 47.9282C43.2325 48.1494 43.1327 48.3706 43.0429 48.5918C43.0429 48.612 43.0229 48.6321 43.0229 48.6421C42.9431 48.8332 42.8532 49.0443 42.7634 49.2655C42.7534 49.2957 42.7434 49.3259 42.7235 49.356C42.6536 49.527 42.5837 49.708 42.5238 49.8789C42.4141 50.1705 42.3043 50.4521 42.2144 50.7034C41.9849 51.2967 41.7653 52.0911 41.5856 52.7547C41.5856 52.7849 41.5656 52.815 41.5557 52.8452C41.5557 52.8653 41.5457 52.8854 41.5357 52.9055C41.5257 52.9558 41.5057 53.0061 41.4958 53.0564C41.4758 53.1167 41.4658 53.1971 41.4459 53.2675C41.4159 53.3781 41.396 53.4787 41.366 53.5893C41.2363 54.1624 41.1065 54.7758 41.0167 55.2786C40.9268 55.7009 40.8669 56.2036 40.817 56.6963C40.7771 57.0382 40.7372 57.36 40.7072 57.6617C40.6873 57.8326 40.6673 58.0236 40.6573 58.2147C40.4877 60.0146 40.5475 62.3574 41.0167 64.9718C41.1065 65.5148 41.1963 66.0477 41.3061 66.5203C41.4459 67.2443 41.6954 68.1995 41.9549 68.8933C43.0928 72.5735 44.8295 75.57 46.7959 78.0034C47.1752 78.486 47.5944 78.9787 47.9637 79.3709C48.0136 79.4212 48.0735 79.4815 48.1234 79.5318C48.4228 79.8636 48.7322 80.1853 49.0017 80.4568C49.2313 80.6881 49.5108 80.9495 49.7903 81.211C50.0897 81.4925 50.3892 81.764 50.6686 82.0053C51.2176 82.488 51.9363 83.0109 52.4852 83.4332C52.7148 83.6041 53.144 83.9158 53.7329 84.2879C53.7529 84.2979 53.7728 84.308 53.7928 84.3281C53.9126 84.3985 54.0323 84.4789 54.1621 84.5594C54.192 84.5795 54.212 84.5895 54.242 84.6097C54.4316 84.7303 54.6412 84.851 54.8508 84.9716C54.9007 85.0018 54.9606 85.032 55.0005 85.0621C55.1602 85.1526 55.3299 85.2532 55.5196 85.3537C55.5595 85.3738 55.5894 85.3939 55.6294 85.4141C55.819 85.5146 56.0186 85.6152 56.2282 85.7258C56.2781 85.7459 56.3181 85.7761 56.368 85.7962C56.5975 85.9068 56.8271 86.0274 57.0767 86.138C57.0767 86.138 57.0866 86.138 57.0966 86.138C57.3462 86.2587 57.6156 86.3693 57.8951 86.49C57.945 86.5101 58.0049 86.5402 58.0548 86.5604C58.1946 86.6207 58.3343 86.681 58.484 86.7313C58.5339 86.7514 58.5838 86.7715 58.6337 86.7916C58.7236 86.8319 58.8234 86.8721 58.9132 86.9022C58.9132 86.9022 58.9332 86.9022 58.9432 86.9123C58.9631 86.9123 58.9831 86.9324 59.013 86.9425C59.033 86.9425 59.053 86.9525 59.0629 86.9626C60.4004 87.4754 61.8378 87.8977 63.335 88.1994C63.4448 88.2195 63.5645 88.2496 63.6843 88.2698C63.7242 88.2698 63.7741 88.2899 63.8141 88.2999C63.874 88.31 63.9338 88.32 63.9837 88.3301C63.9837 88.3301 64.0037 88.3301 64.0137 88.3301C64.0137 88.3301 64.0237 88.3301 64.0337 88.3301C64.0436 88.3301 64.0536 88.3301 64.0636 88.3301C64.3231 88.3804 64.5926 88.4206 64.8621 88.4608C64.902 88.4608 64.9519 88.4608 64.9919 88.4809C65.3113 88.5312 65.6406 88.5613 65.97 88.6016C66.0898 88.6116 66.2096 88.6317 66.3294 88.6418C66.6288 88.672 66.9282 88.6921 67.2277 88.7122C67.2676 88.7122 67.3175 88.7122 67.3574 88.7122C67.4772 88.7122 67.597 88.7222 67.7168 88.7323C68.0561 88.7524 68.4055 88.7624 68.7648 88.7624C68.8846 88.7624 69.0143 88.7624 69.1341 88.7624C69.5434 88.7624 69.9526 88.7624 70.3718 88.7323C70.4616 88.7323 70.5515 88.7222 70.6413 88.7122C70.6613 88.7122 70.6912 88.7122 70.7112 88.7122C70.9907 88.6921 71.2701 88.682 71.5396 88.6518C71.6794 88.6418 71.8091 88.6217 71.9489 88.6116C72.0487 88.6016 72.1385 88.5815 72.2383 88.5714C72.5577 88.5312 72.8771 88.491 73.1866 88.4407C73.3662 88.4105 73.5459 88.3904 73.7255 88.3502H73.7355C74.0749 88.2898 74.4043 88.2195 74.7436 88.1491C74.8035 88.139 74.8634 88.129 74.9233 88.1089C75.0231 88.0888 75.1229 88.0686 75.2227 88.0485C75.2627 88.0485 75.3026 88.0284 75.3425 88.0284C75.5122 87.9882 75.6819 87.948 75.8416 87.9078C75.8715 87.9078 75.9115 87.8877 75.9414 87.8776C76.141 87.8273 76.3307 87.777 76.5103 87.7268C76.5203 87.7268 76.5403 87.7268 76.5503 87.7167C76.6201 87.6966 76.68 87.6765 76.7499 87.6664C76.9096 87.6262 77.0593 87.5759 77.219 87.5257C77.239 87.5257 77.2689 87.5156 77.2889 87.5055C77.3987 87.4754 77.5085 87.4352 77.6083 87.405C77.8279 87.3346 78.0475 87.2642 78.2671 87.1838C78.3968 87.1335 78.5266 87.0933 78.6563 87.043C81.5908 85.9772 84.4655 84.3884 87.1105 82.1662C87.2702 82.0255 87.4299 81.8947 87.5797 81.764C87.6296 81.7238 87.6795 81.6735 87.7294 81.6333C88.3283 81.1004 88.8473 80.5976 89.3563 80.0647C89.3863 80.0345 89.4062 80.0144 89.4362 79.9842C89.4562 79.9641 89.4661 79.9541 89.4761 79.934C89.5859 79.8133 89.6957 79.7027 89.8055 79.582C90.1648 79.1899 90.624 78.667 91.143 78.0235C91.5622 77.5006 92.0214 76.9073 92.3607 76.3744C96.3632 70.5826 97.9303 63.7853 97.2416 57.2092L97.2715 57.2192Z" fill="white"/>
<path d="M97.6806 64.6912C99.4174 52.9165 92.3107 44.7014 82.7785 47.4565C66.7185 54.4147 62.4764 79.1607 76.4802 84.2486C84.9344 87.3154 95.8341 77.2602 97.6806 64.7012V64.6912Z" fill="#73D19C"/>
<path d="M78.8459 86.9329C78.6862 86.9631 78.5265 86.9933 78.3668 87.0234C78.0873 87.0737 77.7979 87.1139 77.5184 87.1441C77.4286 87.1541 77.3487 87.1743 77.2589 87.1843C77.1391 87.1944 77.0094 87.2145 76.8896 87.2245C76.64 87.2446 76.3905 87.2647 76.141 87.2849C76.121 87.2849 76.0911 87.2849 76.0711 87.2849C75.9913 87.2849 75.9114 87.2949 75.8316 87.305C75.4523 87.3251 75.083 87.3351 74.7136 87.3351C74.6038 87.3351 74.4941 87.3351 74.3743 87.3351C74.0549 87.3351 73.7355 87.3251 73.426 87.305C73.3163 87.305 73.2065 87.2949 73.1066 87.2849C73.0667 87.2849 73.0368 87.2849 72.9968 87.2849C72.7174 87.2647 72.4379 87.2446 72.1684 87.2145C72.0586 87.2044 71.9488 87.1944 71.839 87.1742C71.5396 87.134 71.2401 87.1039 70.9507 87.0536C70.9107 87.0536 70.8708 87.0536 70.8309 87.0335C70.5814 86.9933 70.3418 86.953 70.1023 86.9028C70.1023 86.9028 70.0823 86.9028 70.0723 86.9028C70.0723 86.9028 70.0623 86.9028 70.0524 86.9028C70.0524 86.9028 70.0324 86.9028 70.0224 86.9028C69.9725 86.8927 69.9126 86.8827 69.8627 86.8726C69.8228 86.8726 69.7829 86.8525 69.7429 86.8525C69.6331 86.8324 69.5233 86.8123 69.4235 86.7821C68.0461 86.4905 66.7086 86.0782 65.4609 85.5755C65.441 85.5755 65.431 85.5654 65.411 85.5554C65.3911 85.5554 65.3711 85.5352 65.3511 85.5252C65.3511 85.5252 65.3312 85.5252 65.3212 85.5151C65.2314 85.485 65.1515 85.4447 65.0717 85.4146C65.0218 85.3945 64.9718 85.3744 64.9219 85.3543C64.7822 85.2939 64.6524 85.2436 64.5227 85.1833C64.4728 85.1632 64.4229 85.1431 64.373 85.1129C64.1134 84.9923 63.8539 84.8817 63.6244 84.761H63.6144C63.3748 84.6403 63.1453 84.5297 62.9357 84.4191C62.8957 84.399 62.8458 84.3688 62.8059 84.3487C62.6063 84.2381 62.4166 84.1376 62.237 84.037C62.197 84.0169 62.1671 83.9968 62.1272 83.9767C61.9475 83.8761 61.7778 83.7756 61.6381 83.6851C61.5882 83.6549 61.5383 83.6248 61.4884 83.5946C61.2887 83.4739 61.0891 83.3533 60.9094 83.2427C60.8895 83.2226 60.8595 83.2125 60.8396 83.1924C60.7198 83.1119 60.6 83.0416 60.4902 82.9712C60.4703 82.9611 60.4503 82.951 60.4303 82.9309C59.8714 82.569 59.4522 82.2673 59.2326 82.0964C58.7036 81.6841 58.0049 81.1713 57.4759 80.6987C57.1964 80.4574 56.9069 80.1959 56.6175 79.9144C56.338 79.663 56.0685 79.4116 55.8389 79.1803C55.5794 78.9189 55.27 78.5971 54.9805 78.2754C54.9306 78.2251 54.8707 78.1648 54.8208 78.1145C54.4615 77.7324 54.0423 77.2497 53.653 76.7771C51.6867 74.3941 49.8701 71.4579 48.5625 67.8682C48.283 67.1845 47.9836 66.2493 47.7939 65.5455C47.6542 65.093 47.5344 64.5701 47.4147 64.0372C46.7858 61.4832 46.5463 59.1805 46.5662 57.4208C46.5662 57.2298 46.5662 57.0488 46.5662 56.8779C46.5662 56.5863 46.5662 56.2645 46.5862 55.9427C46.5862 55.4601 46.6062 54.9674 46.6561 54.5551C46.696 54.0624 46.7659 53.4591 46.8357 52.906C46.8457 52.7954 46.8657 52.6949 46.8757 52.5843C46.8757 52.5139 46.8956 52.4435 46.9056 52.3832C46.9056 52.3329 46.9256 52.2826 46.9256 52.2323C46.9256 52.2122 46.9256 52.1921 46.9256 52.172C46.9256 52.1419 46.9355 52.1117 46.9455 52.0815C47.0553 51.4279 47.1851 50.6537 47.3548 50.0705C47.4147 49.8191 47.4945 49.5476 47.5744 49.2661C47.6243 49.0951 47.6642 48.9242 47.7141 48.7532C47.7141 48.7231 47.7341 48.6929 47.744 48.6628C47.8039 48.4415 47.8638 48.2304 47.9337 48.0494C47.9337 48.0293 47.9437 48.0192 47.9536 47.9991C48.0235 47.7879 48.0934 47.5667 48.1633 47.3556C48.1932 47.2651 48.2231 47.1746 48.2631 47.0841C48.812 45.5255 49.5507 43.9368 50.5388 42.4285C50.6786 42.2073 50.7584 42.0766 50.7584 42.0766C51.1277 41.4532 51.6867 40.6588 52.1558 40.1158C52.2356 40.0153 52.3255 39.9147 52.4153 39.8041C52.6349 39.5326 52.8445 39.2712 53.0541 39.0399H53.0641C53.1739 38.8991 53.2737 38.7885 53.3735 38.688C53.4334 38.6276 53.4933 38.5673 53.5532 38.4969C54.0522 37.9741 54.8308 37.1998 55.6393 36.5261C55.8589 36.3451 56.0785 36.1641 56.2981 36.0032C56.3579 35.9529 56.4278 35.9027 56.4977 35.8524C56.5775 35.7921 56.6674 35.7317 56.7472 35.6714C57.0566 35.4401 57.386 35.2189 57.7254 34.9876C57.7553 34.9675 57.7953 34.9374 57.8252 34.9173C57.935 34.8469 58.0648 34.7664 58.1945 34.6759C58.454 34.5151 58.8034 34.3039 59.2426 34.0626C59.2525 34.0626 59.2725 34.0525 59.2825 34.0425C59.4621 33.9419 59.6618 33.8414 59.8814 33.7307C59.9013 33.7207 59.9313 33.7106 59.9512 33.6905C60.4403 33.4492 60.9993 33.1978 61.6181 32.9464C61.7778 32.8861 61.9475 32.8157 62.1172 32.7554C62.1771 32.7353 62.2469 32.7051 62.3068 32.685C62.4965 32.6146 62.6961 32.5442 62.8957 32.4839C62.9656 32.4638 63.0255 32.4437 63.0954 32.4236C63.1652 32.4035 63.2351 32.3733 63.3149 32.3532C63.3848 32.3331 63.4547 32.3129 63.5246 32.2928C63.6144 32.2627 63.7142 32.2325 63.814 32.2124C63.8539 32.2024 63.8939 32.1923 63.9338 32.1822C64.0037 32.1621 64.0735 32.142 64.1534 32.1219C64.7622 31.951 65.5607 31.77 66.499 31.6191C66.2295 31.6393 65.96 31.6694 65.7005 31.6996C65.7005 31.6996 65.6905 31.6996 65.6805 31.6996C65.6306 31.6996 65.5907 31.7096 65.5408 31.7197C65.5208 31.7197 65.5009 31.7197 65.4809 31.7197C64.1933 31.8806 63.1153 32.1018 62.3168 32.313C62.227 32.3331 62.1571 32.3532 62.0773 32.3733C62.0273 32.3833 61.9874 32.3934 61.9475 32.4135C61.8377 32.4437 61.7179 32.4738 61.6181 32.504C61.5383 32.5241 61.4584 32.5442 61.3786 32.5643C61.2887 32.5844 61.2189 32.6146 61.129 32.6347C61.0492 32.6548 60.9793 32.6749 60.9094 32.7051C60.6799 32.7755 60.4503 32.8459 60.2407 32.9163C60.1708 32.9364 60.091 32.9665 60.0211 32.9867C59.8215 33.057 59.6318 33.1174 59.4522 33.1878C58.7435 33.4391 58.1047 33.7006 57.5457 33.9419C57.5158 33.9519 57.4958 33.962 57.4659 33.9821C57.2163 34.0927 56.9868 34.1933 56.7772 34.3039C56.7572 34.3039 56.7472 34.3139 56.7273 34.324C56.2282 34.5653 55.8189 34.7865 55.5195 34.9474C55.3698 35.0279 55.2201 35.1083 55.0903 35.1887C55.0504 35.2089 55.0105 35.239 54.9705 35.2591C54.5713 35.4904 54.192 35.7217 53.8227 35.9529C53.7229 36.0133 53.6231 36.0736 53.5232 36.144C53.4434 36.1943 53.3735 36.2446 53.2937 36.2948C53.0342 36.4658 52.7746 36.6468 52.5151 36.8378C51.5669 37.5216 50.6286 38.3159 50.0397 38.8488C49.9699 38.9092 49.89 38.9796 49.8202 39.0399C49.7004 39.1405 49.5806 39.2611 49.4508 39.3818L49.4309 39.4019C49.1814 39.6332 48.9218 39.9047 48.6623 40.1761C48.5525 40.2868 48.4427 40.3974 48.3429 40.4979C47.784 41.061 47.0952 41.8654 46.6361 42.4989C46.6361 42.4989 46.5263 42.6296 46.3566 42.8609C45.1389 44.4094 44.1907 46.0283 43.4421 47.617C43.4021 47.7075 43.3522 47.798 43.3123 47.8885C43.2125 48.1097 43.1127 48.3309 43.0229 48.5521C43.0229 48.5723 43.0029 48.5924 43.0029 48.6024C42.923 48.7935 42.8332 49.0046 42.7434 49.2258C42.7334 49.256 42.7234 49.2862 42.7035 49.3163C42.6336 49.4873 42.5637 49.6683 42.5038 49.8392C42.394 50.1308 42.2842 50.4124 42.1944 50.6637C41.9648 51.257 41.7452 52.0514 41.5656 52.715C41.5656 52.7452 41.5456 52.7753 41.5356 52.8055C41.5356 52.8256 41.5257 52.8457 41.5157 52.8658C41.5057 52.9161 41.4857 52.9664 41.4757 53.0167C41.4558 53.077 41.4458 53.1574 41.4258 53.2278C41.3959 53.3384 41.3759 53.439 41.346 53.5496C41.2162 54.1227 41.0865 54.7361 40.9966 55.2389C40.9068 55.6612 40.8469 56.1639 40.797 56.6567C40.7571 56.9985 40.7172 57.3203 40.6872 57.6219C40.6673 57.7929 40.6473 57.9839 40.6373 58.175C40.4676 59.9749 40.5275 62.3177 40.9966 64.9321C41.0865 65.4751 41.1763 66.008 41.2861 66.4806C41.4258 67.2046 41.6754 68.1598 41.9349 68.8536C43.0728 72.5338 44.8095 75.5303 46.7758 77.9637C47.1551 78.4463 47.5744 78.939 47.9437 79.3312C47.9936 79.3815 48.0535 79.4418 48.1034 79.4921C48.4028 79.8239 48.7122 80.1456 48.9817 80.4171C49.2113 80.6484 49.4908 80.9098 49.7703 81.1713C50.0697 81.4528 50.3691 81.7243 50.6486 81.9656C51.1976 82.4483 51.9162 82.9712 52.4652 83.3935C52.6948 83.5644 53.124 83.8761 53.7129 84.2482C53.7328 84.2582 53.7528 84.2683 53.7728 84.2884C53.8925 84.3588 54.0123 84.4392 54.1421 84.5197C54.172 84.5398 54.192 84.5498 54.2219 84.5699C54.4116 84.6906 54.6212 84.8113 54.8308 84.9319C54.8807 84.9621 54.9406 84.9923 54.9805 85.0224C55.1402 85.1129 55.3099 85.2135 55.4995 85.314C55.5395 85.3341 55.5694 85.3543 55.6093 85.3744C55.799 85.4749 55.9986 85.5755 56.2082 85.6861C56.2581 85.7062 56.2981 85.7364 56.348 85.7565C56.5775 85.8671 56.8071 85.9877 57.0566 86.0983C57.0566 86.0983 57.0666 86.0983 57.0766 86.0983C57.3261 86.219 57.5956 86.3296 57.8751 86.4503C57.925 86.4704 57.9849 86.5006 58.0348 86.5207C58.1745 86.581 58.3143 86.6413 58.464 86.6916C58.5139 86.7117 58.5638 86.7318 58.6137 86.7519C58.7036 86.7921 58.8034 86.8324 58.8932 86.8625C58.8932 86.8625 58.9132 86.8625 58.9231 86.8726C58.9431 86.8726 58.9631 86.8927 58.993 86.9028C59.013 86.9028 59.0329 86.9128 59.0429 86.9229C60.3804 87.4357 61.8177 87.858 63.3149 88.1597C63.4247 88.1798 63.5445 88.2099 63.6643 88.23C63.7042 88.23 63.7541 88.2502 63.794 88.2602C63.8539 88.2703 63.9138 88.2803 63.9637 88.2904C63.9637 88.2904 63.9837 88.2904 63.9937 88.2904C63.9937 88.2904 64.0037 88.2904 64.0136 88.2904C64.0236 88.2904 64.0336 88.2904 64.0436 88.2904C64.3031 88.3407 64.5726 88.3809 64.8421 88.4211C64.882 88.4211 64.9319 88.4211 64.9718 88.4412C65.2912 88.4915 65.6206 88.5216 65.95 88.5619C66.0698 88.5719 66.1896 88.592 66.3093 88.6021C66.6088 88.6323 66.9082 88.6524 67.2077 88.6725C67.2476 88.6725 67.2975 88.6725 67.3374 88.6725C67.4572 88.6725 67.577 88.6825 67.6968 88.6926C68.0361 88.7127 68.3855 88.7228 68.7448 88.7228C68.8646 88.7228 68.9943 88.7228 69.1141 88.7228C69.5233 88.7228 69.9326 88.7228 70.3518 88.6926C70.4416 88.6926 70.5315 88.6825 70.6213 88.6725C70.6413 88.6725 70.6712 88.6725 70.6912 88.6725C70.9706 88.6524 71.2501 88.6423 71.5196 88.6121C71.6593 88.6021 71.7891 88.582 71.9288 88.5719C72.0287 88.5619 72.1185 88.5418 72.2183 88.5317C72.5377 88.4915 72.8571 88.4513 73.1665 88.401C73.3462 88.3708 73.5259 88.3507 73.7055 88.3105H73.7155C74.0549 88.2502 74.3843 88.1798 74.7236 88.1094C74.7835 88.0993 74.8434 88.0893 74.9033 88.0692C75.0031 88.049 75.1029 88.0289 75.2027 88.0088C75.2427 88.0088 75.2826 87.9887 75.3225 87.9887C75.4922 87.9485 75.6619 87.9083 75.8216 87.8681C75.8515 87.8681 75.8914 87.8479 75.9214 87.8379C76.121 87.7876 76.3107 87.7373 76.4903 87.6871C76.5003 87.6871 76.5203 87.6871 76.5303 87.677C76.6001 87.6569 76.66 87.6368 76.7299 87.6267C76.8896 87.5865 77.0393 87.5362 77.199 87.486C77.219 87.486 77.2489 87.4759 77.2689 87.4659C77.3787 87.4357 77.4885 87.3955 77.5883 87.3653C77.8079 87.2949 78.0275 87.2245 78.247 87.1441C78.3768 87.0938 78.5066 87.0536 78.6363 87.0033C78.796 86.943 78.9457 86.8827 79.1054 86.8223C79.0056 86.8424 78.9158 86.8625 78.816 86.8826L78.8459 86.9329Z" fill="#E2E2E2"/>
<path d="M94.6368 65.4138C94.9762 59.6521 91.6025 55.8915 87.1109 57.0277C79.016 59.2298 75.3728 72.8245 81.8407 76.6957C86.9811 79.7626 94.1477 73.4378 94.6269 65.4138H94.6368Z" fill="#004C45"/>
<path d="M92.0516 64.1182C91.5326 66.451 89.0473 66.9135 87.8395 64.9025C86.9212 63.364 87.3704 60.8603 89.6761 60.6592C91.4727 60.6994 92.411 62.5194 92.0516 64.1182Z" fill="white"/>
<g style="mix-blend-mode:screen">
<path d="M103.455 58.9592L103.222 59.6758L135.126 70.2183L135.36 69.5017L103.455 58.9592Z" fill="#EFF5F3"/>
</g>
<g style="mix-blend-mode:screen">
<path d="M88.8782 85.9962L88.3838 86.5625L112.114 107.586L112.608 107.02L88.8782 85.9962Z" fill="white"/>
</g>
<g style="mix-blend-mode:screen">
<path d="M118.033 110C116.486 110 115.048 109.638 113.781 108.893C110.736 107.124 109.06 103.433 109.06 98.4963C109.06 88.4311 116.136 76.1335 124.84 71.0657C129.142 68.5619 133.204 68.1698 136.279 69.9496C139.323 71.7193 141 75.4095 141 80.3467C141 90.4119 133.923 102.709 125.219 107.777C122.694 109.245 120.239 109.989 118.033 109.989V110ZM132.037 69.6077C129.961 69.6077 127.635 70.3216 125.229 71.7193C116.735 76.6664 109.818 88.6724 109.818 98.4963C109.818 103.152 111.365 106.611 114.17 108.24C116.995 109.889 120.798 109.487 124.86 107.124C133.354 102.187 140.271 90.1706 140.271 80.3467C140.271 75.6911 138.724 72.2321 135.919 70.6032C134.772 69.9395 133.464 69.6077 132.037 69.6077Z" fill="#EFF5F3"/>
</g>
<g style="mix-blend-mode:screen">
<path d="M133.114 94.4692C137.053 87.6805 137.091 80.3187 133.198 78.0262C129.305 75.7336 122.956 79.3784 119.017 86.167C115.077 92.9557 115.04 100.317 118.932 102.61C122.825 104.903 129.175 101.258 133.114 94.4692Z" fill="#73D19C"/>
</g>
<g style="mix-blend-mode:screen">
<path d="M85.7427 79.4415C85.7427 86.3896 90.6136 89.185 96.6223 85.6858C102.631 82.1966 107.502 73.7301 107.502 66.792C107.502 59.8539 102.631 57.0485 96.6223 60.5477C90.6136 64.0369 85.7427 72.5034 85.7427 79.4415Z" fill="#73D19C"/>
<path d="M91.7414 87.5664C90.6435 87.5664 89.6254 87.3049 88.7271 86.782C86.5711 85.5251 85.3833 82.9208 85.3833 79.4317C85.3833 72.383 90.344 63.7556 96.4426 60.2061C99.477 58.4364 102.352 58.1649 104.528 59.4318C106.684 60.6887 107.871 63.293 107.871 66.7822C107.871 73.8309 102.911 82.4583 96.8119 86.0078C95.0253 87.0435 93.3085 87.5664 91.7414 87.5664ZM101.503 59.4017C100.076 59.4017 98.4788 59.8944 96.8119 60.8597C90.923 64.2885 86.1219 72.6142 86.1219 79.4317C86.1219 82.6393 87.1799 85.0123 89.0964 86.1285C91.0327 87.2546 93.6379 86.9832 96.4426 85.3542C102.332 81.9254 107.133 73.5997 107.133 66.7822C107.133 63.5746 106.075 61.2016 104.158 60.0854C103.38 59.6329 102.481 59.4017 101.513 59.4017H101.503Z" fill="#EFF5F3"/>
</g>
<g style="mix-blend-mode:screen">
<path d="M122.554 94.1115C122.554 97.4498 124.9 98.7972 127.794 97.118C130.689 95.4388 133.035 91.3664 133.035 88.018C133.035 84.6697 130.689 83.3323 127.794 85.0115C124.9 86.6908 122.554 90.7631 122.554 94.1115Z" fill="#73D19C"/>
</g>
<path d="M86.6544 66.8562L86.3101 67.457L138.054 97.5523L138.398 96.9515L86.6544 66.8562Z" fill="#EFF5F3"/>
</svg>
