<svg width="160" height="140" viewBox="0 0 160 140" fill="none" xmlns="http://www.w3.org/2000/svg">
<path d="M87 133C120.136 133 147 106.189 147 73.0006C147 39.8108 120.018 13 87 13C53.8639 13 27 39.8108 27 73.0006C27 106.189 53.8639 133 87 133Z" fill="#B7CDC4"/>
<path d="M76.4449 57.4976C76.4449 57.4976 74.3711 64.738 75.408 67.2875C76.5485 69.9389 80.9034 72.8963 85.0508 74.5279C91.3757 76.9754 95.2121 81.5644 99.3595 84.7257C108.277 91.5583 123 87.6831 123 81.6664C123 74.4259 111.595 68.4092 111.595 68.4092L76.4449 57.4976Z" fill="#004C45"/>
<path d="M111.284 85.4396C101.641 85.7455 97.3896 80.6466 95.4195 77.3833C95.0048 76.6695 94.4864 75.9556 93.9679 75.3437C92.2053 73.2022 90.1315 71.4686 87.9541 69.9389C84.1177 67.2875 80.2813 65.2479 78.0002 62.3925C76.5486 60.4549 76.2376 58.7213 76.4449 57.1916C76.4449 56.9877 76.6523 56.0699 76.9634 54.9481C77.2744 53.7244 77.7928 52.1947 78.3113 51.1749C79.0371 49.7472 79.6592 48.2175 81.2145 47.0958C84.4288 44.6483 88.7836 47.8096 89.7168 49.7472C90.3389 50.869 96.0416 52.3986 96.0416 52.3986C97.2859 51.7868 98.5301 52.5006 99.878 54.5402C102.989 59.2312 109.936 67.2875 113.461 69.429C114.083 69.7349 114.602 70.1429 115.12 70.4488C118.853 72.8963 121.549 75.7517 122.067 77.9952C122.793 81.5644 120.926 85.0317 111.284 85.4396Z" fill="#004C45"/>
<path d="M98.3228 66.4715C95.8343 69.3269 94.5901 72.7941 94.0717 75.2416C92.309 73.1001 90.2353 71.3664 88.0579 69.8368C89.0947 65.4517 92.6201 61.3726 92.6201 61.3726L98.3228 66.4715Z" fill="white"/>
<path d="M115.12 70.4486C112.32 71.2645 110.454 72.4882 108.691 74.0179C107.654 74.9357 106.721 76.3634 105.373 76.7713C104.025 77.1792 102.677 76.1594 101.848 75.0377C100.604 73.508 100.604 71.3664 99.4632 69.6328C98.2189 67.8992 96.0415 65.5537 92.4125 61.8825C90.3388 59.7409 90.0277 60.0469 85.9839 60.9647C84.7397 61.2706 83.3918 61.4746 82.0439 61.2706C79.7628 60.7607 78.0001 58.6192 77.378 56.3756C77.2743 55.8658 77.0669 55.3559 77.0669 54.744C77.378 53.5203 77.8964 51.9906 78.4148 50.9708C79.1406 49.5431 79.7627 48.0134 81.318 46.8917C84.5323 44.4442 88.8872 47.6055 89.8203 49.5431C90.4425 50.6649 96.1452 52.1945 96.1452 52.1945C97.3895 51.5827 98.6337 52.2965 99.9816 54.3361C103.092 59.0271 110.039 67.0834 113.565 69.2249C113.979 69.7348 114.601 70.0407 115.12 70.4486Z" fill="#F0E8D3"/>
<path d="M83.2881 59.0276C80.6959 58.7217 78.5185 52.0931 82.0439 49.2377C85.5692 46.4843 87.1245 49.1357 87.8503 50.8694C88.5761 52.603 92.4125 53.9287 94.901 53.6228L89.924 57.396C89.924 57.396 85.6729 59.2316 83.2881 59.0276Z" fill="#73D19C"/>
<path d="M89.1985 57.7012C91.4796 56.8854 92.8275 56.0696 95.1086 59.027C97.8045 62.4942 103.922 68.0011 104.337 69.8367C104.751 71.7742 101.641 72.692 103.196 74.5277C105.063 76.8732 106.514 72.998 109.521 71.2644C112.01 69.8367 112.839 69.1228 110.869 67.7971C109.417 66.8793 108.484 68.6129 107.551 68.0011C106.618 67.3892 99.5671 59.2309 98.3229 57.2933C97.286 55.5597 96.3529 54.336 97.0787 53.5201C96.3529 50.9707 89.5095 52.8063 89.1985 57.7012Z" fill="#12181F"/>
<path d="M93.2422 60.2505C92.8275 60.5564 92.2054 60.4544 91.7906 60.0465C91.3759 59.5366 91.3759 58.9247 91.8943 58.6188C92.3091 58.3129 92.9312 58.4148 93.3459 58.8228C93.657 59.2307 93.657 59.9445 93.2422 60.2505Z" fill="#73D19C"/>
<path d="M99.1522 56.0694C98.7374 56.2734 98.1153 56.0694 97.8042 55.5595C97.4932 55.0496 97.4932 54.4378 97.9079 54.1318C98.3227 53.8259 98.9448 54.1318 99.2559 54.6417C99.6706 55.2536 99.5669 55.8655 99.1522 56.0694Z" fill="#73D19C"/>
<path d="M101.226 58.9249C100.811 59.1288 100.189 58.9249 99.878 58.415C99.5669 57.9051 99.5669 57.2932 99.9817 56.9873C100.396 56.6814 101.019 56.9873 101.33 57.4972C101.641 58.0071 101.641 58.7209 101.226 58.9249Z" fill="#73D19C"/>
<path d="M103.403 61.4745C102.989 61.7804 102.366 61.5764 102.055 61.0666C101.744 60.5567 101.744 59.9448 102.055 59.6389C102.366 59.3329 103.092 59.5369 103.403 60.0468C103.818 60.6586 103.714 61.2705 103.403 61.4745Z" fill="#73D19C"/>
<path d="M105.477 64.1258C105.062 64.4318 104.44 64.2278 104.129 63.7179C103.714 63.208 103.818 62.5962 104.129 62.2902C104.544 61.9843 105.166 62.1882 105.477 62.6981C105.892 63.208 105.892 63.8199 105.477 64.1258Z" fill="#73D19C"/>
<path d="M107.966 66.7778C107.655 67.0837 107.032 66.9817 106.618 66.4719C106.203 66.0639 106.203 65.3501 106.514 65.0442C106.825 64.7382 107.447 64.8402 107.862 65.3501C108.277 65.758 108.277 66.3699 107.966 66.7778Z" fill="#73D19C"/>
<path d="M95.7305 62.8003C95.3158 63.1062 94.6937 63.0042 94.2789 62.5963C93.8642 62.0864 93.8642 61.4745 94.3826 61.1686C94.7974 60.8627 95.4195 60.9647 95.8342 61.3726C96.1453 61.8825 96.1453 62.4943 95.7305 62.8003Z" fill="#73D19C"/>
<path d="M98.1153 65.3496C97.7006 65.6555 97.0784 65.5535 96.6637 65.1456C96.2489 64.6357 96.3526 64.0239 96.7674 63.7179C97.1821 63.412 97.8042 63.514 98.219 63.9219C98.5301 64.3298 98.53 64.9417 98.1153 65.3496Z" fill="#73D19C"/>
<path d="M100.708 68.0009C100.293 68.3069 99.6707 68.2049 99.256 67.797C98.8412 67.2871 98.8412 66.6752 99.3596 66.3693C99.7744 66.0634 100.397 66.1653 100.811 66.5732C101.122 66.9812 101.122 67.695 100.708 68.0009Z" fill="#73D19C"/>
<path d="M102.781 70.9585C102.367 71.2644 101.744 71.1624 101.33 70.7545C100.915 70.2446 100.915 69.6327 101.433 69.3268C101.848 69.0209 102.47 69.1229 102.885 69.5308C103.196 69.9387 103.196 70.5505 102.781 70.9585Z" fill="#73D19C"/>
<path d="M92.62 59.8426C92.5163 59.8426 92.3089 59.8426 92.2052 59.7406C91.8942 59.5366 91.8942 59.1287 92.1016 58.8228C93.7605 56.7832 95.6269 55.4575 98.4264 54.5397C98.7375 54.4377 99.1523 54.6417 99.2559 54.9476C99.3596 55.2536 99.1522 55.6615 98.8412 55.7634C96.3527 56.5793 94.59 57.701 93.1384 59.5366C92.931 59.7406 92.7237 59.8426 92.62 59.8426Z" fill="white"/>
<path d="M95.3158 62.494C95.2121 62.494 95.0047 62.494 94.901 62.2901C94.59 62.0861 94.59 61.6782 94.7974 61.3723C96.4563 59.4347 98.4264 58.007 100.396 57.2931C100.707 57.1912 101.122 57.3951 101.226 57.701C101.33 58.007 101.122 58.4149 100.811 58.5169C99.0485 59.1287 97.2858 60.4545 95.7305 62.1881C95.6268 62.392 95.5232 62.494 95.3158 62.494Z" fill="white"/>
<path d="M97.5968 64.9419C97.4931 64.9419 97.2857 64.9419 97.1821 64.738C96.871 64.534 96.871 64.1261 97.0784 63.8202C98.7373 61.8826 100.5 60.5569 102.47 59.945C102.781 59.843 103.196 60.047 103.3 60.3529C103.403 60.6588 103.196 61.0667 102.885 61.1687C101.122 61.7806 99.5668 62.9024 98.0115 64.636C98.0115 64.9419 97.8042 64.9419 97.5968 64.9419Z" fill="white"/>
<path d="M100.189 67.6958C100.085 67.6958 99.878 67.6958 99.7743 67.4918C99.4633 67.2878 99.4633 66.8799 99.6706 66.574C101.33 64.6364 102.574 63.3107 104.648 62.5968C104.959 62.4949 105.373 62.6988 105.477 63.0048C105.581 63.3107 105.373 63.7186 105.062 63.8206C103.3 64.4324 102.263 65.5542 100.604 67.3898C100.5 67.5938 100.396 67.6958 100.189 67.6958Z" fill="white"/>
<path d="M102.263 70.6526C102.159 70.6526 101.952 70.6526 101.848 70.4487C101.537 70.2447 101.537 69.8368 101.744 69.5309C103.403 67.5933 104.855 65.9616 106.929 65.3498C107.24 65.2478 107.654 65.4517 107.758 65.7577C107.862 66.0636 107.654 66.4715 107.343 66.5735C105.581 67.1854 104.233 68.6131 102.678 70.4487C102.678 70.5507 102.47 70.6526 102.263 70.6526Z" fill="white"/>
<path d="M52.1822 71.8765C52.1822 71.8765 50.0048 77.3833 51.5601 79.7288C54.2559 83.7059 59.1292 85.6435 62.6545 88.3969C66.1798 91.1504 71.9863 99.0027 81.7328 99.8185C91.7904 100.634 101.122 98.6967 101.122 94.1077C101.122 85.8475 90.0277 81.3604 90.0277 81.3604L52.1822 71.8765Z" fill="#004C45"/>
<path d="M87.3319 97.167C77.6891 97.4729 72.2974 92.578 70.2236 90.9463C69.9126 90.6404 69.4978 90.2325 69.0831 89.8246C67.5278 88.0909 65.6614 85.2355 64.1061 83.196C63.7951 82.788 63.5877 82.4821 63.2766 82.1762C61.2029 79.6267 55.2928 76.6694 53.1154 74.5278C52.0785 73.508 51.9748 71.7744 52.2859 70.2447C52.2859 70.0408 52.7006 68.1032 53.3227 66.0636C53.7375 64.5339 54.2559 63.0043 54.6707 62.1884C55.3965 60.7608 56.537 59.3331 58.196 58.3133C62.6545 55.7638 65.143 60.5568 65.8688 61.6786C66.5946 62.6983 72.1937 63.8201 72.1937 63.8201L73.4379 63.5142C74.8895 63.1063 76.4448 63.7181 77.2743 64.9419C80.0738 69.123 86.6061 78.505 90.1314 80.6465C90.8572 81.0544 91.583 81.5643 92.3088 81.9722C96.1452 84.5217 99.8779 87.683 100.396 90.5384C101.122 94.1076 96.9747 96.861 87.3319 97.167Z" fill="#004C45"/>
<path d="M75.408 79.1171C71.1569 82.7883 69.4979 88.1932 69.0832 89.9268C67.5279 88.1932 65.6615 85.3378 64.1062 83.2982C64.832 78.1993 70.4311 73.5083 70.4311 73.5083L75.408 79.1171Z" fill="white"/>
<path d="M92.3087 81.9722C89.4055 83.2979 86.606 85.6434 84.2212 87.9889C83.3917 88.9067 82.0438 89.2127 80.9032 89.0087C79.4516 88.7028 78.3111 86.6632 77.7926 85.2355C77.3779 84.0118 78.1037 82.2782 71.364 74.8337C70.2235 73.61 69.083 71.7744 67.424 71.7744C64.106 71.8764 52.9079 76.0575 53.7374 64.8399C54.1521 63.3102 54.2558 63.0043 54.7742 62.1884C55.5 60.7608 56.6406 59.3331 58.2996 58.3133C62.7581 55.7638 65.2466 60.5568 65.9724 61.6786C66.6982 62.6983 72.2973 63.8201 72.2973 63.8201L73.5415 63.5142C74.9931 63.1063 76.5484 63.7181 77.3779 64.9419C80.1774 69.123 86.7097 78.505 90.235 80.6465C90.8571 81.0544 91.5829 81.4623 92.3087 81.9722Z" fill="#F0E8D3"/>
<path d="M60.2698 70.245C57.6776 69.939 55.5002 63.3104 59.0255 60.4551C62.5509 57.7016 64.1062 61.9847 64.832 63.7184C65.5578 65.452 68.6684 65.7579 71.1569 65.452L67.0094 68.7153C66.9057 68.6133 62.6546 70.4489 60.2698 70.245Z" fill="#73D19C"/>
<path d="M66.9055 68.6129C69.2903 67.8991 70.6382 66.9812 72.9193 70.2446C75.5115 74.0177 81.629 80.1364 81.8364 81.9721C82.1474 84.0116 78.7258 84.7255 80.3848 86.6631C82.3548 89.0086 83.8064 85.1334 86.917 83.3997C89.5091 81.9721 90.4423 81.2582 88.4723 79.8305C87.0207 78.8107 86.0875 80.5444 85.0506 79.9325C84.1175 79.3206 77.2742 70.4485 76.1336 68.307C75.0967 66.4714 74.1636 65.1456 75.0967 64.2278C74.3709 61.7804 67.4239 63.412 66.9055 68.6129Z" fill="#12181F"/>
<path d="M71.1568 71.7744C70.7421 72.0803 70.1199 71.9783 69.7052 71.5704C69.2905 71.0605 69.2904 70.4487 69.8089 70.1427C70.2236 69.8368 70.8457 69.9388 71.2605 70.3467C71.5716 70.7546 71.5715 71.4684 71.1568 71.7744Z" fill="#73D19C"/>
<path d="M73.6453 74.4257C73.2306 74.7317 72.6085 74.6297 72.1937 74.2218C71.779 73.7119 71.779 73.1 72.2974 72.7941C72.7121 72.4882 73.3343 72.5901 73.749 72.9981C74.1638 73.406 74.1637 74.0178 73.6453 74.4257Z" fill="#73D19C"/>
<path d="M75.9263 77.2812C75.5116 77.5872 74.8895 77.4852 74.4747 77.0773C74.06 76.5674 74.06 75.9555 74.5784 75.6496C74.9932 75.3436 75.6153 75.4456 76.03 75.8535C76.3411 76.2614 76.3411 76.8733 75.9263 77.2812Z" fill="#73D19C"/>
<path d="M78.2073 80.0351C77.7926 80.3411 77.1705 80.2391 76.7557 79.8312C76.341 79.3213 76.341 78.7094 76.8594 78.4035C77.2742 78.0975 77.8963 78.1995 78.311 78.6074C78.7258 79.0153 78.6221 79.7292 78.2073 80.0351Z" fill="#73D19C"/>
<path d="M80.1775 83.0942C79.7628 83.4001 79.1407 83.2982 78.7259 82.8902C78.3112 82.3804 78.3112 81.7685 78.8296 81.4626C79.2444 81.1566 79.8665 81.2586 80.2812 81.6665C80.5923 82.0744 80.5923 82.7883 80.1775 83.0942Z" fill="#73D19C"/>
<path d="M77.4818 67.695C77.067 67.899 76.5486 67.695 76.1338 67.1851C75.8228 66.6752 75.8228 66.0634 76.2375 65.8594C76.6523 65.6555 77.1707 65.8594 77.5854 66.3693C77.8965 66.8792 77.7928 67.4911 77.4818 67.695Z" fill="#73D19C"/>
<path d="M79.4517 70.7546C79.037 70.9585 78.5185 70.7546 78.1038 70.2447C77.7927 69.7348 77.7928 69.1229 78.2075 68.919C78.6222 68.715 79.1407 68.919 79.5554 69.4289C79.8665 69.9388 79.8665 70.5506 79.4517 70.7546Z" fill="#73D19C"/>
<path d="M81.5255 73.6101C81.1108 73.814 80.5923 73.6101 80.1776 73.1002C79.7629 72.5903 79.8665 71.9784 80.2813 71.7744C80.696 71.5705 81.2145 71.7744 81.6292 72.2843C81.9403 72.7942 81.9403 73.4061 81.5255 73.6101Z" fill="#73D19C"/>
<path d="M83.8065 76.4655C83.3917 76.6695 82.8733 76.4655 82.4585 75.9556C82.1475 75.4457 82.1475 74.8339 82.5622 74.6299C82.977 74.426 83.4954 74.6299 83.9101 75.1398C84.3249 75.6497 84.2212 76.2616 83.8065 76.4655Z" fill="#73D19C"/>
<path d="M86.1912 79.1168C85.8801 79.4228 85.258 79.2188 84.8432 78.8109C84.4285 78.301 84.4285 77.6891 84.7396 77.4852C85.0506 77.1793 85.6727 77.3832 86.0875 77.7911C86.5022 78.199 86.6059 78.8109 86.1912 79.1168Z" fill="#73D19C"/>
<path d="M70.5345 71.3662C70.4309 71.3662 70.2235 71.3662 70.1198 71.2642C69.8087 71.0602 69.8087 70.6523 70.0161 70.3464C71.8825 67.8989 74.1636 66.9811 76.341 66.2673C76.652 66.1653 77.0668 66.3692 77.1705 66.6752C77.2741 66.9811 77.0668 67.389 76.7557 67.491C74.4746 68.2048 72.6083 69.1226 71.053 71.1622C70.9493 71.2642 70.7419 71.3662 70.5345 71.3662Z" fill="white"/>
<path d="M73.2306 74.0182C73.1269 74.0182 72.9195 74.0182 72.8158 73.8142C72.5048 73.6102 72.5048 73.2023 72.7122 72.8964C74.0601 71.2648 76.0301 70.041 78.5186 69.1232C78.8297 69.0212 79.2444 69.2252 79.3481 69.5311C79.4518 69.8371 79.2444 70.245 78.9333 70.3469C76.6522 71.0608 74.8896 72.1826 73.6453 73.7122C73.6453 73.9162 73.438 74.0182 73.2306 74.0182Z" fill="white"/>
<path d="M75.4081 76.8731C75.3044 76.8731 75.097 76.8731 74.9933 76.6692C74.6823 76.4652 74.6823 76.0573 74.8897 75.7514C76.3413 74.1197 78.2076 72.794 80.5924 71.9782C80.9035 71.8762 81.3182 72.0802 81.4219 72.3861C81.5256 72.692 81.3182 73.0999 81.0071 73.2019C78.9334 73.9158 77.1708 75.0375 75.9265 76.5672C75.8228 76.8731 75.6155 76.8731 75.4081 76.8731Z" fill="white"/>
<path d="M77.7926 79.7282C77.6889 79.7282 77.4815 79.7282 77.3779 79.5242C77.0668 79.3203 77.0668 78.9124 77.2742 78.6064C78.7258 76.9748 80.4884 75.751 82.7695 74.9352C83.0806 74.8332 83.4954 75.0372 83.599 75.3431C83.7027 75.6491 83.4954 76.057 83.1843 76.159C81.1106 76.8728 79.5553 77.8926 78.2073 79.4223C78.1036 79.6262 77.8963 79.7282 77.7926 79.7282Z" fill="white"/>
<path d="M79.659 82.7881C79.5554 82.7881 79.348 82.7881 79.2443 82.5842C78.9333 82.3802 78.9332 81.9723 79.1406 81.6663C80.5922 79.9327 82.7697 78.505 85.1544 77.7912C85.4655 77.6892 85.8802 77.8932 85.9839 78.1991C86.0876 78.505 85.8802 78.9129 85.5692 79.0149C83.4955 79.7288 81.4217 81.0545 80.1775 82.5842C80.0738 82.6861 79.8664 82.7881 79.659 82.7881Z" fill="white"/>
<path d="M146 33C148.761 33 151 30.7622 151 28C151 25.239 148.761 23 146 23C143.239 23 141 25.239 141 28C141 30.7622 143.239 33 146 33Z" fill="#B7CDC4"/>
<path d="M154 13C155.657 13 157 11.6565 157 10C157 8.34254 155.657 7 154 7C152.344 7 151 8.34254 151 10C151 11.6565 152.344 13 154 13Z" fill="#B7CDC4"/>
<path d="M38 20C39.6575 20 41 18.6575 41 17C41 15.3436 39.6575 14 38 14C36.3436 14 35 15.3436 35 17C35 18.6575 36.3436 20 38 20Z" fill="#B7CDC4"/>
<path d="M9 93C12.3138 93 15 90.3115 15 87C15 83.6885 12.3138 81 9 81C5.68615 81 3 83.6885 3 87C3 90.3115 5.68615 93 9 93Z" fill="#B7CDC4"/>
</svg>
