<svg width="154" height="126" viewBox="0 0 154 126" fill="none" xmlns="http://www.w3.org/2000/svg">
<path d="M84 126C117.136 126 144 99.1893 144 66.0006C144 32.8108 117.018 6 84 6C50.8639 6 24 32.8108 24 66.0006C24 99.1893 50.8639 126 84 126Z" fill="#B7CDC4"/>
<path d="M73.4449 50.4976C73.4449 50.4976 71.3711 57.738 72.408 60.2875C73.5485 62.9389 77.9034 65.8963 82.0508 67.5279C88.3757 69.9754 92.2121 74.5644 96.3595 77.7258C105.277 84.5583 120 80.6831 120 74.6664C120 67.4259 108.595 61.4092 108.595 61.4092L73.4449 50.4976Z" fill="#4D2A24"/>
<path d="M108.283 78.4396C98.6405 78.7455 94.3893 73.6466 92.4193 70.3833C92.0045 69.6695 91.4861 68.9556 90.9677 68.3437C89.205 66.2022 87.1313 64.4686 84.9538 62.9389C81.1174 60.2875 77.2811 58.2479 75 55.3925C73.5484 53.4549 73.2373 51.7213 73.4447 50.1916C73.4447 49.9877 73.6521 49.0699 73.9631 47.9481C74.2742 46.7244 74.7926 45.1947 75.311 44.1749C76.0368 42.7472 76.6589 41.2175 78.2142 40.0958C81.4285 37.6483 85.7834 40.8096 86.7165 42.7472C87.3386 43.869 93.0414 45.3986 93.0414 45.3986C94.2856 44.7868 95.5299 45.5006 96.8778 47.5402C99.9884 52.2312 106.935 60.2875 110.461 62.429C111.083 62.7349 111.601 63.1429 112.12 63.4488C115.852 65.8963 118.548 68.7517 119.067 70.9952C119.793 74.5644 117.926 78.0317 108.283 78.4396Z" fill="#4D2A24"/>
<path d="M95.3226 59.4715C92.8341 62.3269 91.5899 65.7941 91.0714 68.2416C89.3088 66.1001 87.235 64.3664 85.0576 62.8368C86.0945 58.4517 89.6198 54.3726 89.6198 54.3726L95.3226 59.4715Z" fill="white"/>
<path d="M112.12 63.4486C109.32 64.2645 107.454 65.4882 105.691 67.0179C104.654 67.9357 103.721 69.3634 102.373 69.7713C101.025 70.1792 99.6775 69.1594 98.848 68.0377C97.6037 66.508 97.6037 64.3664 96.4632 62.6328C95.2189 60.8992 93.0415 58.5537 89.4125 54.8825C87.3388 52.7409 87.0277 53.0469 82.9839 53.9647C81.7397 54.2706 80.3918 54.4746 79.0439 54.2706C76.7628 53.7607 75.0001 51.6192 74.378 49.3756C74.2743 48.8658 74.0669 48.3559 74.0669 47.744C74.378 46.5203 74.8964 44.9906 75.4148 43.9708C76.1406 42.5431 76.7627 41.0134 78.318 39.8917C81.5323 37.4442 85.8872 40.6055 86.8203 42.5431C87.4425 43.6649 93.1452 45.1945 93.1452 45.1945C94.3895 44.5827 95.6337 45.2965 96.9816 47.3361C100.092 52.0271 107.039 60.0834 110.565 62.2249C110.979 62.7348 111.601 63.0407 112.12 63.4486Z" fill="#F0E8D3"/>
<path d="M80.2883 52.0276C77.6962 51.7217 75.5188 45.0931 79.0441 42.2377C82.5695 39.4843 84.1248 42.1357 84.8506 43.8694C85.5764 45.603 89.4127 46.9287 91.9012 46.6228L86.9243 50.396C86.9243 50.396 82.6731 52.2316 80.2883 52.0276Z" fill="#FFB673"/>
<path d="M86.1982 50.7012C88.4793 49.8854 89.8273 49.0696 92.1084 52.027C94.8042 55.4942 100.922 61.0011 101.336 62.8367C101.751 64.7742 98.6406 65.692 100.196 67.5277C102.062 69.8732 103.514 65.998 106.521 64.2644C109.009 62.8367 109.839 62.1228 107.869 60.7971C106.417 59.8793 105.484 61.6129 104.551 61.0011C103.618 60.3892 96.5669 52.2309 95.3226 50.2933C94.2858 48.5597 93.3526 47.336 94.0784 46.5201C93.3526 43.9707 86.5093 45.8063 86.1982 50.7012Z" fill="#12181F"/>
<path d="M90.242 53.2505C89.8272 53.5564 89.2051 53.4544 88.7904 53.0465C88.3756 52.5366 88.3756 51.9247 88.8941 51.6188C89.3088 51.3129 89.9309 51.4148 90.3457 51.8228C90.6567 52.2307 90.6567 52.9445 90.242 53.2505Z" fill="#FFB673"/>
<path d="M96.1522 49.0694C95.7374 49.2734 95.1153 49.0694 94.8042 48.5595C94.4932 48.0496 94.4932 47.4378 94.9079 47.1318C95.3227 46.8259 95.9448 47.1318 96.2559 47.6417C96.6706 48.2536 96.5669 48.8655 96.1522 49.0694Z" fill="#FFB673"/>
<path d="M98.2259 51.9249C97.8112 52.1288 97.189 51.9249 96.878 51.415C96.5669 50.9051 96.5669 50.2932 96.9817 49.9873C97.3964 49.6814 98.0185 49.9873 98.3296 50.4972C98.6407 51.0071 98.6407 51.7209 98.2259 51.9249Z" fill="#FFB673"/>
<path d="M100.404 54.4745C99.9888 54.7804 99.3666 54.5764 99.0556 54.0666C98.7445 53.5567 98.7445 52.9448 99.0556 52.6389C99.3666 52.3329 100.092 52.5369 100.404 53.0468C100.818 53.6586 100.715 54.2705 100.404 54.4745Z" fill="#FFB673"/>
<path d="M102.477 57.1258C102.062 57.4318 101.44 57.2278 101.129 56.7179C100.714 56.208 100.818 55.5962 101.129 55.2902C101.544 54.9843 102.166 55.1882 102.477 55.6981C102.892 56.208 102.892 56.8199 102.477 57.1258Z" fill="#FFB673"/>
<path d="M104.965 59.7778C104.654 60.0837 104.032 59.9817 103.617 59.4719C103.203 59.0639 103.203 58.3501 103.514 58.0442C103.825 57.7382 104.447 57.8402 104.862 58.3501C105.276 58.758 105.276 59.3699 104.965 59.7778Z" fill="#FFB673"/>
<path d="M92.7303 55.8003C92.3155 56.1062 91.6934 56.0042 91.2787 55.5963C90.8639 55.0864 90.8639 54.4745 91.3824 54.1686C91.7971 53.8627 92.4192 53.9647 92.834 54.3726C93.145 54.8825 93.145 55.4943 92.7303 55.8003Z" fill="#FFB673"/>
<path d="M95.1151 58.3496C94.7003 58.6555 94.0782 58.5535 93.6635 58.1456C93.2487 57.6357 93.3524 57.0239 93.7671 56.7179C94.1819 56.412 94.804 56.514 95.2187 56.9219C95.5298 57.3298 95.5298 57.9417 95.1151 58.3496Z" fill="#FFB673"/>
<path d="M97.7078 61.0009C97.2931 61.3069 96.671 61.2049 96.2562 60.797C95.8415 60.2871 95.8415 59.6752 96.3599 59.3693C96.7746 59.0634 97.3968 59.1653 97.8115 59.5732C98.1226 59.9812 98.1226 60.695 97.7078 61.0009Z" fill="#FFB673"/>
<path d="M99.7811 63.9585C99.3663 64.2644 98.7442 64.1624 98.3295 63.7545C97.9147 63.2446 97.9147 62.6327 98.4331 62.3268C98.8479 62.0209 99.47 62.1229 99.8848 62.5308C100.196 62.9387 100.196 63.5505 99.7811 63.9585Z" fill="#FFB673"/>
<path d="M89.62 52.8426C89.5163 52.8426 89.3089 52.8426 89.2052 52.7406C88.8942 52.5366 88.8942 52.1287 89.1016 51.8228C90.7605 49.7832 92.6269 48.4575 95.4264 47.5397C95.7375 47.4377 96.1523 47.6417 96.2559 47.9476C96.3596 48.2536 96.1522 48.6615 95.8412 48.7634C93.3527 49.5793 91.59 50.701 90.1384 52.5366C89.931 52.7406 89.7237 52.8426 89.62 52.8426Z" fill="white"/>
<path d="M92.3158 55.494C92.2121 55.494 92.0047 55.494 91.901 55.2901C91.59 55.0861 91.59 54.6782 91.7974 54.3723C93.4563 52.4347 95.4264 51.007 97.3964 50.2931C97.7075 50.1912 98.1222 50.3951 98.2259 50.701C98.3296 51.007 98.1222 51.4149 97.8112 51.5169C96.0485 52.1287 94.2858 53.4545 92.7305 55.1881C92.6268 55.392 92.5232 55.494 92.3158 55.494Z" fill="white"/>
<path d="M94.5965 57.9419C94.4929 57.9419 94.2855 57.9419 94.1818 57.738C93.8708 57.534 93.8707 57.1261 94.0781 56.8202C95.7371 54.8826 97.4997 53.5569 99.4698 52.945C99.7809 52.843 100.196 53.047 100.299 53.3529C100.403 53.6588 100.196 54.0667 99.8846 54.1687C98.1219 54.7806 96.5666 55.9024 95.0113 57.636C95.0113 57.9419 94.8039 57.9419 94.5965 57.9419Z" fill="white"/>
<path d="M97.1893 60.6958C97.0856 60.6958 96.8783 60.6958 96.7746 60.4918C96.4635 60.2878 96.4635 59.8799 96.6709 59.574C98.3299 57.6364 99.5741 56.3107 101.648 55.5968C101.959 55.4949 102.374 55.6988 102.477 56.0048C102.581 56.3107 102.374 56.7186 102.063 56.8206C100.3 57.4324 99.263 58.5542 97.6041 60.3898C97.5004 60.5938 97.3967 60.6958 97.1893 60.6958Z" fill="white"/>
<path d="M99.2626 63.6526C99.1589 63.6526 98.9515 63.6526 98.8478 63.4487C98.5368 63.2447 98.5368 62.8368 98.7441 62.5309C100.403 60.5933 101.855 58.9616 103.928 58.3498C104.24 58.2478 104.654 58.4517 104.758 58.7577C104.862 59.0636 104.654 59.4715 104.343 59.5735C102.581 60.1854 101.233 61.6131 99.6773 63.4487C99.6773 63.5507 99.4699 63.6526 99.2626 63.6526Z" fill="white"/>
<path d="M49.1822 64.8765C49.1822 64.8765 47.0048 70.3833 48.5601 72.7288C51.2559 76.7059 56.1292 78.6435 59.6545 81.3969C63.1798 84.1504 68.9863 92.0027 78.7328 92.8185C88.7904 93.6343 98.1222 91.6967 98.1222 87.1077C98.1222 78.8475 87.0277 74.3604 87.0277 74.3604L49.1822 64.8765Z" fill="#4D2A24"/>
<path d="M84.3317 90.167C74.6888 90.4729 69.2971 85.578 67.2234 83.9463C66.9123 83.6404 66.4976 83.2325 66.0828 82.8246C64.5275 81.0909 62.6612 78.2355 61.1059 76.196C60.7948 75.788 60.5875 75.4821 60.2764 75.1762C58.2027 72.6267 52.2926 69.6694 50.1151 67.5278C49.0783 66.508 48.9746 64.7744 49.2856 63.2447C49.2856 63.0408 49.7004 61.1032 50.3225 59.0636C50.7372 57.5339 51.2557 56.0043 51.6704 55.1884C52.3962 53.7608 53.5368 52.3331 55.1958 51.3133C59.6543 48.7638 62.1428 53.5568 62.8686 54.6786C63.5944 55.6983 69.1934 56.8201 69.1934 56.8201L70.4377 56.5142C71.8893 56.1063 73.4446 56.7181 74.2741 57.9419C77.0736 62.123 83.6058 71.505 87.1312 73.6465C87.857 74.0544 88.5828 74.5643 89.3086 74.9722C93.145 77.5217 96.8777 80.683 97.3961 83.5384C98.1219 87.1076 93.9745 89.861 84.3317 90.167Z" fill="#4D2A24"/>
<path d="M72.4083 72.1171C68.1571 75.7883 66.4982 81.1932 66.0834 82.9268C64.5281 81.1932 62.6617 78.3378 61.1064 76.2982C61.8323 71.1993 67.4313 66.5083 67.4313 66.5083L72.4083 72.1171Z" fill="white"/>
<path d="M89.309 74.9722C86.4057 76.2979 83.6062 78.6434 81.2214 80.9889C80.3919 81.9067 79.044 82.2127 77.9035 82.0087C76.4518 81.7028 75.3113 79.6632 74.7929 78.2355C74.3781 77.0118 75.1039 75.2782 68.3643 67.8337C67.2237 66.61 66.0832 64.7744 64.4242 64.7744C61.1063 64.8764 49.9081 69.0575 50.7376 57.8399C51.1524 56.3102 51.256 56.0043 51.7745 55.1884C52.5003 53.7608 53.6409 52.3331 55.2998 51.3133C59.7583 48.7638 62.2468 53.5568 62.9726 54.6786C63.6984 55.6983 69.2975 56.8201 69.2975 56.8201L70.5417 56.5142C71.9933 56.1063 73.5486 56.7181 74.3781 57.9419C77.1777 62.123 83.7099 71.505 87.2352 73.6465C87.8573 74.0544 88.5832 74.4623 89.309 74.9722Z" fill="#F0E8D3"/>
<path d="M57.2698 63.245C54.6776 62.939 52.5002 56.3104 56.0255 53.4551C59.5509 50.7016 61.1062 54.9847 61.832 56.7184C62.5578 58.452 65.6684 58.7579 68.1569 58.452L64.0094 61.7153C63.9057 61.6133 59.6546 63.4489 57.2698 63.245Z" fill="#FFB673"/>
<path d="M63.9053 61.6129C66.2901 60.8991 67.638 59.9812 69.9191 63.2446C72.5112 67.0177 78.6287 73.1364 78.8361 74.9721C79.1472 77.0116 75.7255 77.7255 77.3845 79.6631C79.3545 82.0086 80.8061 78.1334 83.9167 76.3997C86.5089 74.9721 87.4421 74.2582 85.472 72.8305C84.0204 71.8107 83.0873 73.5444 82.0504 72.9325C81.1172 72.3206 74.2739 63.4485 73.1334 61.307C72.0965 59.4714 71.1633 58.1456 72.0965 57.2278C71.3707 54.7804 64.4237 56.412 63.9053 61.6129Z" fill="#12181F"/>
<path d="M68.157 64.7744C67.7423 65.0803 67.1202 64.9783 66.7054 64.5704C66.2907 64.0605 66.2907 63.4487 66.8091 63.1427C67.2238 62.8368 67.846 62.9388 68.2607 63.3467C68.5718 63.7546 68.5718 64.4684 68.157 64.7744Z" fill="#FFB673"/>
<path d="M70.6453 67.4257C70.2306 67.7317 69.6085 67.6297 69.1937 67.2218C68.779 66.7119 68.779 66.1 69.2974 65.7941C69.7121 65.4882 70.3343 65.5901 70.749 65.9981C71.1638 66.406 71.1637 67.0178 70.6453 67.4257Z" fill="#FFB673"/>
<path d="M72.9266 70.2812C72.5118 70.5872 71.8897 70.4852 71.475 70.0773C71.0602 69.5674 71.0602 68.9555 71.5787 68.6496C71.9934 68.3436 72.6155 68.4456 73.0303 68.8535C73.3413 69.2614 73.3413 69.8733 72.9266 70.2812Z" fill="#FFB673"/>
<path d="M75.2073 73.0351C74.7926 73.3411 74.1705 73.2391 73.7557 72.8312C73.341 72.3213 73.341 71.7094 73.8594 71.4035C74.2742 71.0975 74.8963 71.1995 75.311 71.6074C75.7258 72.0153 75.6221 72.7292 75.2073 73.0351Z" fill="#FFB673"/>
<path d="M77.1775 76.0942C76.7628 76.4001 76.1407 76.2982 75.7259 75.8902C75.3112 75.3804 75.3112 74.7685 75.8296 74.4626C76.2444 74.1566 76.8665 74.2586 77.2812 74.6665C77.5923 75.0744 77.5923 75.7883 77.1775 76.0942Z" fill="#FFB673"/>
<path d="M74.4818 60.695C74.067 60.899 73.5486 60.695 73.1338 60.1851C72.8228 59.6752 72.8228 59.0634 73.2375 58.8594C73.6523 58.6555 74.1707 58.8594 74.5854 59.3693C74.8965 59.8792 74.7928 60.4911 74.4818 60.695Z" fill="#FFB673"/>
<path d="M76.4515 63.7546C76.0368 63.9585 75.5183 63.7546 75.1036 63.2447C74.7925 62.7348 74.7925 62.1229 75.2073 61.919C75.622 61.715 76.1404 61.919 76.5552 62.4289C76.8663 62.9388 76.8662 63.5506 76.4515 63.7546Z" fill="#FFB673"/>
<path d="M78.5255 66.6101C78.1108 66.814 77.5923 66.6101 77.1776 66.1002C76.7629 65.5903 76.8665 64.9784 77.2813 64.7744C77.696 64.5705 78.2145 64.7744 78.6292 65.2843C78.9403 65.7942 78.9403 66.4061 78.5255 66.6101Z" fill="#FFB673"/>
<path d="M80.8065 69.4655C80.3917 69.6695 79.8733 69.4655 79.4585 68.9556C79.1475 68.4457 79.1475 67.8339 79.5622 67.6299C79.977 67.426 80.4954 67.6299 80.9101 68.1398C81.3249 68.6497 81.2212 69.2616 80.8065 69.4655Z" fill="#FFB673"/>
<path d="M83.1909 72.1168C82.8799 72.4228 82.2577 72.2188 81.843 71.8109C81.4282 71.301 81.4283 70.6891 81.7393 70.4852C82.0504 70.1793 82.6725 70.3832 83.0872 70.7911C83.502 71.199 83.6057 71.8109 83.1909 72.1168Z" fill="#FFB673"/>
<path d="M67.5345 64.3662C67.4309 64.3662 67.2235 64.3662 67.1198 64.2642C66.8087 64.0602 66.8087 63.6523 67.0161 63.3464C68.8825 60.8989 71.1636 59.9811 73.341 59.2673C73.652 59.1653 74.0668 59.3692 74.1705 59.6752C74.2741 59.9811 74.0668 60.389 73.7557 60.491C71.4746 61.2048 69.6083 62.1226 68.053 64.1622C67.9493 64.2642 67.7419 64.3662 67.5345 64.3662Z" fill="white"/>
<path d="M70.2303 67.0182C70.1267 67.0182 69.9193 67.0182 69.8156 66.8142C69.5045 66.6102 69.5045 66.2023 69.7119 65.8964C71.0598 64.2648 73.0299 63.041 75.5184 62.1232C75.8294 62.0212 76.2441 62.2252 76.3478 62.5311C76.4515 62.8371 76.2441 63.245 75.9331 63.3469C73.652 64.0608 71.8893 65.1826 70.6451 66.7122C70.6451 66.9162 70.4377 67.0182 70.2303 67.0182Z" fill="white"/>
<path d="M72.4081 69.8731C72.3044 69.8731 72.097 69.8731 71.9933 69.6692C71.6823 69.4652 71.6823 69.0573 71.8897 68.7514C73.3413 67.1197 75.2076 65.794 77.5924 64.9782C77.9035 64.8762 78.3182 65.0802 78.4219 65.3861C78.5256 65.692 78.3182 66.0999 78.0071 66.2019C75.9334 66.9158 74.1708 68.0375 72.9265 69.5672C72.8228 69.8731 72.6155 69.8731 72.4081 69.8731Z" fill="white"/>
<path d="M74.7928 72.7282C74.6892 72.7282 74.4818 72.7282 74.3781 72.5242C74.067 72.3203 74.067 71.9124 74.2744 71.6064C75.726 69.9748 77.4887 68.751 79.7698 67.9352C80.0808 67.8332 80.4956 68.0372 80.5993 68.3431C80.703 68.6491 80.4956 69.057 80.1845 69.159C78.1108 69.8728 76.5555 70.8926 75.2076 72.4223C75.1039 72.6262 74.8965 72.7282 74.7928 72.7282Z" fill="white"/>
<path d="M76.659 75.7881C76.5554 75.7881 76.348 75.7881 76.2443 75.5842C75.9333 75.3802 75.9332 74.9723 76.1406 74.6663C77.5922 72.9327 79.7697 71.505 82.1544 70.7912C82.4655 70.6892 82.8802 70.8932 82.9839 71.1991C83.0876 71.505 82.8802 71.9129 82.5692 72.0149C80.4955 72.7288 78.4217 74.0545 77.1775 75.5842C77.0738 75.6861 76.8664 75.7881 76.659 75.7881Z" fill="white"/>
<path d="M143 26C145.761 26 148 23.7622 148 21C148 18.239 145.761 16 143 16C140.239 16 138 18.239 138 21C138 23.7622 140.239 26 143 26Z" fill="#B7CDC4"/>
<path d="M151 6C152.657 6 154 4.65645 154 3.00003C154 1.34254 152.657 0 151 0C149.344 0 148 1.34254 148 3.00003C148 4.65645 149.344 6 151 6Z" fill="#B7CDC4"/>
<path d="M35 13C36.6575 13 38 11.6575 38 10C38 8.34356 36.6575 7 35 7C33.3436 7 32 8.34356 32 10C32 11.6575 33.3436 13 35 13Z" fill="#B7CDC4"/>
<path d="M6 86C9.31385 86 12 83.3115 12 80C12 76.6885 9.31385 74 6 74C2.68615 74 0 76.6885 0 80C0 83.3115 2.68615 86 6 86Z" fill="#B7CDC4"/>
</svg>
