<svg width="160" height="140" viewBox="0 0 160 140" fill="none" xmlns="http://www.w3.org/2000/svg">
<path d="M146 33C148.761 33 151 30.7622 151 28C151 25.239 148.761 23 146 23C143.239 23 141 25.239 141 28C141 30.7622 143.239 33 146 33Z" fill="#B7CDC4"/>
<path d="M154 13C155.657 13 157 11.6565 157 10C157 8.34254 155.657 7 154 7C152.344 7 151 8.34254 151 10C151 11.6565 152.344 13 154 13Z" fill="#B7CDC4"/>
<path d="M38 20C39.6575 20 41 18.6575 41 17C41 15.3436 39.6575 14 38 14C36.3436 14 35 15.3436 35 17C35 18.6575 36.3436 20 38 20Z" fill="#B7CDC4"/>
<path d="M9 93C12.3138 93 15 90.3115 15 87C15 83.6885 12.3138 81 9 81C5.68615 81 3 83.6885 3 87C3 90.3115 5.68615 93 9 93Z" fill="#B7CDC4"/>
<path d="M87 133C120.136 133 147 106.189 147 73.0006C147 39.8108 120.018 13 87 13C53.8639 13 27 39.8108 27 73.0006C27 106.189 53.8639 133 87 133Z" fill="#B7CDC4"/>
<path d="M92.4849 115.814V118.379L92.3964 118.408C92.3177 118.428 92.239 118.448 92.1603 118.477C92.0128 118.517 91.8653 118.556 91.7276 118.586H91.7079C91.5702 118.625 91.4325 118.655 91.3046 118.685L91.2259 118.704C91.1767 118.704 91.1276 118.724 91.0784 118.734C90.862 118.783 90.6948 118.803 90.5571 118.823H90.5374C90.4587 118.842 90.3899 118.852 90.3112 118.862C90.1931 118.882 90.0751 118.892 89.9571 118.911C89.5341 118.961 89.1112 118.99 88.6981 119C88.5899 119 88.5309 119 88.4817 119H88.3932C88.3046 119 88.2259 119 88.1374 119H88.1178C87.862 119 87.5964 118.981 87.3014 118.951C87.203 118.951 87.0948 118.931 86.9964 118.921C86.8784 118.911 86.7801 118.892 86.6915 118.882H86.6522C86.6522 118.882 86.5637 118.862 86.5243 118.852H86.4751C86.3768 118.823 86.2686 118.803 86.1702 118.783C86.0817 118.763 86.003 118.744 85.9047 118.724H85.8456C84.9801 118.507 84.1637 118.191 83.426 117.787L82.826 117.442H82.8063C82.6293 117.313 82.4522 117.185 82.285 117.067C82.1768 116.988 82.0785 116.909 81.9703 116.82C81.8916 116.761 81.8227 116.702 81.7539 116.633C81.6653 116.564 81.5866 116.495 81.508 116.416C81.3309 116.258 81.1637 116.09 81.0063 115.913C80.9473 115.843 80.8883 115.784 80.8391 115.725C80.7703 115.646 80.7014 115.567 80.6326 115.488C80.5637 115.409 80.4949 115.321 80.426 115.242C80.3572 115.163 80.2981 115.084 80.2391 114.995C80.1801 114.906 80.1211 114.827 80.0621 114.748C80.0031 114.66 79.944 114.581 79.885 114.492C79.826 114.403 79.7768 114.324 79.7178 114.235C79.6588 114.147 79.6096 114.068 79.5604 113.979C79.3539 113.634 79.167 113.279 78.9998 112.923C78.9604 112.835 78.9113 112.746 78.8818 112.657C78.8326 112.549 78.7834 112.44 78.744 112.332C78.744 112.322 78.744 112.302 78.7342 112.292C78.7342 112.292 78.7342 112.263 78.7145 112.253C78.449 111.602 78.2326 110.96 78.0752 110.359C78.0555 110.28 78.026 110.201 78.0063 110.122L80.249 109.175C80.2588 109.224 80.2686 109.283 80.2883 109.323C80.2883 109.352 80.2981 109.372 80.308 109.402C80.308 109.421 80.308 109.441 80.3178 109.461C80.5244 110.309 80.7801 111.079 81.085 111.769C81.085 111.779 81.085 111.799 81.1047 111.809C81.1047 111.819 81.1047 111.838 81.1244 111.848C82.3244 114.522 84.2522 116.011 86.9768 116.366C87.0653 116.376 87.1538 116.386 87.2423 116.396H87.2915C87.3997 116.416 87.4882 116.425 87.5768 116.425C87.7735 116.435 87.9407 116.445 88.1178 116.455C88.2161 116.455 88.3046 116.455 88.403 116.455H88.4915C88.5702 116.455 88.6292 116.455 88.7079 116.455C89.3374 116.445 89.9768 116.386 90.6161 116.278C91.1177 116.199 91.639 116.09 92.1702 115.942C92.2882 115.913 92.3964 115.883 92.5144 115.843L92.4849 115.814Z" fill="#004C45"/>
<path d="M80.239 109.144L77.9964 110.101L66.6948 103.502L68.9276 102.555L80.239 109.144Z" fill="#004C45"/>
<path d="M82.1275 116.929C82.1275 116.929 72.98 111.622 72.9702 111.631C69.7046 110.102 67.5309 106.975 66.6948 103.522L77.9964 110.112C78.1833 110.842 78.439 111.592 78.7242 112.292C79.4718 114.078 80.5931 115.725 82.1275 116.939V116.929Z" fill="#73D19C"/>
<path d="M92.485 115.814C92.3669 115.853 92.2587 115.883 92.1407 115.912C91.6096 116.05 91.0883 116.169 90.5866 116.248C89.9473 116.356 89.3079 116.405 88.6784 116.425C88.6096 116.425 88.5407 116.425 88.462 116.425H88.3735C88.2752 116.425 88.1866 116.425 88.0883 116.425C87.9211 116.425 87.744 116.415 87.5473 116.396C87.4686 116.396 87.3801 116.396 87.2621 116.376H87.2129C87.1243 116.366 87.0358 116.356 86.9473 116.336C84.2227 115.981 82.2949 114.492 81.0949 111.818C81.0949 111.808 81.085 111.789 81.0752 111.779C81.0752 111.779 81.0654 111.759 81.0555 111.739C80.7506 111.049 80.4949 110.279 80.2883 109.431C80.5244 109.352 80.7506 109.293 80.8096 109.273C80.8982 109.253 80.9769 109.224 81.0555 109.204L92.4653 115.814H92.485Z" fill="#004C45"/>
<path d="M113.987 89.2666C111.646 99.901 105.41 109.046 97.3243 113.732C97.0588 113.88 96.803 114.018 96.567 114.146C95.1899 114.876 93.8129 115.438 92.4752 115.813L81.0654 109.204C82.4326 108.829 83.8392 108.257 85.2457 107.507C85.472 107.388 85.7375 107.24 86.0031 107.092C94.0785 102.417 100.305 93.2816 102.655 82.667L113.987 89.2666Z" fill="#004C45"/>
<path d="M116.524 88.1621C116.376 88.8822 116.199 89.6418 116.003 90.4212C114.763 95.107 112.58 99.8717 109.698 104.183C106.776 108.563 103.265 112.252 99.5568 114.866C98.8486 115.369 98.1207 115.833 97.3929 116.257C97.1765 116.386 97.0191 116.474 96.8617 116.553L96.7831 116.603C96.665 116.672 96.547 116.731 96.4093 116.8C96.2913 116.869 96.1634 116.928 96.0454 116.987L95.9765 117.027C95.8486 117.096 95.7109 117.155 95.5831 117.224C95.5339 117.244 95.4847 117.264 95.4454 117.293L95.3273 117.352C95.2191 117.402 95.1109 117.451 94.9929 117.5C94.6978 117.638 94.3732 117.767 94.0191 117.905C93.8519 117.964 93.7044 118.023 93.5667 118.063C93.429 118.122 93.2814 118.161 93.1437 118.211L93.006 118.25C92.8978 118.28 92.7995 118.319 92.6913 118.349C92.6519 118.349 92.6126 118.368 92.5732 118.378L92.5044 118.398V115.833C93.8421 115.458 95.2191 114.896 96.5962 114.166C96.8322 114.038 97.088 113.9 97.3535 113.752C105.439 109.066 111.665 99.9309 114.016 89.2867L116.544 88.1917L116.524 88.1621Z" fill="#004C45"/>
<path d="M116.524 88.163L113.986 89.2679L102.675 82.6682L105.213 81.5732L116.524 88.163Z" fill="#73D19C"/>
<path d="M121.777 93.1732C121.708 93.2324 121.629 93.2817 121.531 93.3113C121.226 93.4297 120.832 93.3804 120.38 93.1239L117.99 91.7428L115.344 90.2137L103.944 83.6141L97.3047 79.7668L96.0063 79.0171C95.5932 78.7803 95.2293 78.4153 94.9342 77.9813C94.9047 77.9418 94.885 77.9024 94.8555 77.8629C94.7768 77.7347 94.708 77.6064 94.6391 77.4782C94.1768 76.5805 94.0391 75.5545 94.4522 74.9725L106.639 57.5905C106.678 57.5314 106.728 57.482 106.777 57.4327C106.875 57.3439 106.983 57.2847 107.101 57.2453C107.455 57.1368 107.908 57.2453 108.331 57.5412C108.724 57.7977 109.108 58.2022 109.403 58.6954L109.511 58.873C109.6 59.0407 109.678 59.2084 109.757 59.3958L110.859 62.2369L121.885 90.7366L121.944 90.8846C122.347 91.9302 122.219 92.7786 121.777 93.1633V93.1732Z" fill="#004C45"/>
<path d="M124.58 91.5456L124.334 91.6837L121.777 93.1634C122.229 92.7885 122.357 91.9303 121.944 90.8846L121.885 90.7366L110.859 62.237L109.757 59.3959C109.688 59.2183 109.609 59.0407 109.511 58.873L109.403 58.6955C109.098 58.1924 108.714 57.7978 108.331 57.5413C107.898 57.2552 107.455 57.1368 107.101 57.2453L109.58 55.8149L109.905 55.6275C110.583 55.4203 111.577 56.0221 112.216 57.0776L112.324 57.2552C112.413 57.4229 112.491 57.5906 112.57 57.778L113.672 60.6191L124.757 89.2766C125.16 90.3223 125.032 91.1707 124.59 91.5554L124.58 91.5456Z" fill="#004C45"/>
<path d="M115.216 55.5388C115.236 53.4869 115.196 51.2969 114.98 49.1562C114.38 43.2768 112.393 37.8116 106.324 37.0027C106.196 36.983 106.068 36.9731 105.941 36.9534C105.832 36.9435 105.714 36.9336 105.596 36.9238C105.38 36.9041 105.163 36.8942 104.947 36.8843C104.829 36.8843 104.721 36.8843 104.603 36.8843H104.495C104.406 36.8843 104.327 36.8843 104.239 36.8843C103.491 36.8942 102.714 36.9632 101.927 37.0915C99.3308 37.5058 96.5275 38.5318 93.6062 40.2187V36.9731C96.8127 35.1185 99.8816 34.063 102.695 33.7374C103.216 33.6782 103.737 33.6388 104.239 33.6289H104.318C104.377 33.6289 104.445 33.6289 104.504 33.6289H104.613C104.731 33.6289 104.839 33.6289 104.957 33.6289C105.291 33.6289 105.616 33.6585 105.95 33.698C106.078 33.7078 106.206 33.7276 106.324 33.7374C106.344 33.7374 106.354 33.7374 106.373 33.7374C106.491 33.7571 106.619 33.7769 106.737 33.7966C106.816 33.7966 106.885 33.8163 106.954 33.8361C107.072 33.8558 107.2 33.8854 107.318 33.9051C107.445 33.9347 107.573 33.9643 107.701 33.9939C108.734 34.2405 109.737 34.6253 110.662 35.1382L110.465 35.0199C115.865 37.8708 118.068 44.5987 117.999 50.9122L115.196 55.7756V55.5191L115.216 55.5388Z" fill="#004C45"/>
<path d="M110.475 35.0399C109.639 34.596 108.714 34.2507 107.711 34.0139C107.583 33.9843 107.455 33.9548 107.327 33.9252C107.199 33.8956 107.081 33.8758 106.963 33.8561C106.895 33.8462 106.816 33.8265 106.747 33.8166C106.629 33.7969 106.501 33.7772 106.383 33.7575C106.363 33.7575 106.354 33.7575 106.334 33.7575C106.206 33.7377 106.078 33.7279 105.96 33.718C105.626 33.6884 105.301 33.6588 104.967 33.6489C104.849 33.6489 104.74 33.6489 104.622 33.6489H104.514C104.416 33.6292 104.357 33.6391 104.327 33.6489H104.249C103.747 33.6489 103.226 33.6884 102.704 33.7575C99.8913 34.0731 96.8225 35.1287 93.616 36.9931L85.1865 32.0804L82.2161 30.3442C86.121 28.0753 89.8193 27 93.1045 27C95.0717 27 97.0389 27.3946 98.7996 28.2726C99.0651 28.4107 99.3307 28.5488 99.5864 28.7066L110.465 35.0498L110.475 35.0399Z" fill="#73D19C"/>
<path d="M115.216 55.5383L115.186 55.558L115 55.6665L103.816 49.1459C103.816 46.5119 104.278 39.9518 101.927 37.091C102.724 36.9627 103.491 36.8937 104.239 36.8838C104.327 36.8838 104.406 36.8838 104.495 36.8838H104.603C104.721 36.8838 104.829 36.8838 104.947 36.8838C105.164 36.8838 105.38 36.9035 105.596 36.9232C105.714 36.9232 105.823 36.943 105.941 36.9528C106.068 36.9627 106.196 36.9824 106.324 37.0022C112.393 37.821 114.38 43.2762 114.98 49.1557C115.196 51.2964 115.236 53.4864 115.216 55.5383Z" fill="#004C45"/>
<path d="M93.6062 36.9834V40.2289C83.2194 46.2367 76.0391 57.9463 73.3441 70.0998L70.8064 68.63C73.8949 56.9993 81.6358 45.2502 90.9604 38.6802C91.8259 38.0685 92.7112 37.4964 93.6062 36.9834Z" fill="#004C45"/>
<path d="M70.8065 68.6299L73.3442 70.0997C73.1278 71.0665 72.941 72.0431 72.7836 73.0198L70.1377 71.4907C70.3246 70.5437 70.5508 69.5868 70.8065 68.6299Z" fill="#73D19C"/>
<path d="M53.603 58.6764L59.3964 62.0305C59.1407 62.9874 58.9243 63.9344 58.7374 64.8913L52.0981 61.0539L50.7997 60.3042C50.3473 60.0378 49.9538 59.9983 49.6489 60.1167L52.2358 58.6173L52.4423 58.4989C52.7473 58.3805 53.1505 58.42 53.603 58.6863V58.6764Z" fill="#004C45"/>
<path d="M79.5409 76.8176L67.3541 94.2095C67.2852 94.3081 67.2065 94.387 67.1082 94.4462L67.0098 94.5054L64.3049 96.0641C64.3935 96.0049 64.4721 95.9259 64.5508 95.8273L65.6525 94.2588L76.7376 78.4454C77.436 77.4589 76.5606 75.2097 75.1737 74.4106L72.7836 73.0295L70.1377 71.5005C70.3246 70.5534 70.5508 69.5965 70.8065 68.6396L73.3442 70.1095L77.977 72.7928C79.3638 73.6017 80.2392 75.841 79.5409 76.8275V76.8176Z" fill="#004C45"/>
<path d="M93.6063 36.9829C92.7112 37.5058 91.826 38.0681 90.9604 38.6797C81.6457 45.2497 73.9048 57.0087 70.8064 68.6295C70.5507 69.5864 70.3343 70.5334 70.1376 71.4903L72.7835 73.0194L75.1736 74.4005C76.5605 75.2094 77.4359 77.4487 76.7376 78.4352L65.6524 94.2486L64.5508 95.8172C64.4819 95.9158 64.4032 95.9947 64.3049 96.0539L64.1967 96.1131C63.3803 96.5077 62.0131 95.5409 61.4229 94.002L49.2459 62.5231C48.8328 61.4577 48.9705 60.5995 49.4328 60.2345C49.5017 60.1852 49.5705 60.1358 49.6492 60.1161C49.9541 59.9977 50.3476 60.0372 50.8 60.3035L52.0984 61.0533L58.7377 64.8907C58.9246 63.9437 59.1508 62.9868 59.3967 62.0299C62.7704 49.3042 71.7114 36.4108 82.2064 30.334L85.1768 32.0702L93.6063 36.9829Z" fill="#73D19C"/>
</svg>
