<svg width="50" height="50" viewBox="0 0 50 50" fill="none" xmlns="http://www.w3.org/2000/svg">
<path d="M25 50C38.8067 50 50 38.8289 50 25.0003C50 11.1712 38.7574 0 25 0C11.1933 0 0 11.1712 0 25.0003C0 38.8289 11.1933 50 25 50Z" fill="#F0C4BC"/>
<g clip-path="url(#clip0_1428_12542)">
<path d="M23.9152 34.2419L32.1462 34.962L33.5866 18.4978L25.3556 17.7777L25.7158 13.6602L38.0643 14.7405L35.9036 39.4378L23.5551 38.3574L23.9152 34.2419Z" fill="#73D19C"/>
<path d="M17.974 25.4257C17.652 29.1056 20.3733 32.3467 24.0513 32.6685L25.2167 19.3483C21.5368 19.0264 18.2957 21.7477 17.974 25.4257Z" fill="#73D19C"/>
<path d="M23.915 34.2421L15.6821 33.5219L17.1225 17.0576L25.3555 17.7779L25.7157 13.6604L13.3672 12.5801L11.2065 37.2774L23.555 38.3577L23.915 34.2421Z" fill="#73D19C"/>
<path d="M31.2951 26.5924C30.9732 30.2723 27.7304 32.9916 24.0524 32.6698L25.2178 19.3496C28.8977 19.6716 31.6169 22.9144 31.2951 26.5924Z" fill="#73D19C"/>
</g>
<g clip-path="url(#clip1_1428_12542)">
<path d="M25.141 32.86L33.372 33.5802L34.8125 17.1159L26.5814 16.3958L26.9417 12.2783L39.2902 13.3587L37.1294 38.056L24.7809 36.9756L25.141 32.86Z" fill="white"/>
<path d="M19.1998 24.0439C18.8778 27.7238 21.5992 30.9649 25.2771 31.2867L26.4425 17.9665C22.7626 17.6445 19.5216 20.3659 19.1998 24.0439Z" fill="white"/>
<path d="M25.1409 32.8603L16.9079 32.14L18.3483 15.6758L26.5813 16.3961L26.9415 12.2786L14.593 11.1982L12.4323 35.8955L24.7808 36.9759L25.1409 32.8603Z" fill="#004C45"/>
<path d="M32.5209 25.2096C32.199 28.8895 28.9562 31.6088 25.2782 31.287L26.4436 17.9668C30.1235 18.2887 32.8427 21.5316 32.5209 25.2096Z" fill="#004C45"/>
</g>
<circle cx="35.4172" cy="34.5837" r="7.91667" fill="#5A2740"/>
<path d="M35.4168 37.9167C35.8771 37.9167 36.2502 37.5436 36.2502 37.0833C36.2502 36.6231 35.8771 36.25 35.4168 36.25C34.9566 36.25 34.5835 36.6231 34.5835 37.0833C34.5835 37.5436 34.9566 37.9167 35.4168 37.9167Z" fill="white"/>
<path d="M35.4169 35.6944C35.5642 35.6944 35.7055 35.6359 35.8097 35.5317C35.9139 35.4275 35.9724 35.2862 35.9724 35.1389V31.8056C35.9724 31.6582 35.9139 31.5169 35.8097 31.4127C35.7055 31.3085 35.5642 31.25 35.4169 31.25C35.2695 31.25 35.1282 31.3085 35.024 31.4127C34.9199 31.5169 34.8613 31.6582 34.8613 31.8056V35.1389C34.8613 35.2862 34.9199 35.4275 35.024 35.5317C35.1282 35.6359 35.2695 35.6944 35.4169 35.6944Z" fill="white"/>
<defs>
<clipPath id="clip0_1428_12542">
<rect width="26.4443" height="26.4443" fill="white" transform="translate(13.3672 12.5801) rotate(5)"/>
</clipPath>
<clipPath id="clip1_1428_12542">
<rect width="24.7916" height="24.7916" fill="white" transform="translate(14.593 11.1982) rotate(5)"/>
</clipPath>
</defs>
</svg>
